# https://github.com/mikedh/trimesh

o collision
v -0.02998701 -0.03979910 0.07168164
v -0.02998701 -0.03979915 0.07168163
v -0.02835650 -0.03979915 0.07017916
v -0.02614943 -0.04185945 0.07115199
v -0.02233045 -0.04410690 0.07193994
v -0.02380596 -0.04280672 0.07077191
v -0.02278612 -0.04185945 0.06862933
v -0.02487850 -0.03979915 0.06743078
v -0.02685929 -0.04085502 0.07030127
v -0.02665160 -0.03979915 0.06875763
v -0.02340608 -0.04085502 0.06771000
v -0.02303721 -0.03979915 0.06619586
v -0.02998409 -0.03120366 0.07168043
v -0.02994824 -0.03120362 0.07164474
v -0.02993784 -0.03120239 0.07163404
v -0.02835493 -0.03120366 0.07017931
v -0.02844330 -0.03118607 0.07025187
v -0.02799315 -0.03120366 0.06986570
v -0.02487274 -0.03120366 0.06742671
v -0.02454973 -0.03120366 0.06720427
v -0.02663645 -0.03120366 0.06874740
v -0.02613900 -0.03120366 0.06836451
v -0.02592568 -0.03120366 0.06820795
v -0.02591900 -0.03120366 0.06820051
v -0.02591755 -0.03120366 0.06820195
v -0.02373290 -0.03120366 0.06666063
v -0.02359517 -0.03120006 0.06656359
v -0.02733252 -0.01849095 0.00399962
v -0.02734189 -0.01847626 0.00693440
v -0.02732699 -0.01849868 0.00696432
v -0.02734189 -0.01847626 0.00696440
v -0.02857711 -0.01729998 0.01400073
v -0.02857711 -0.01729998 0.01403073
v -0.02767573 -0.01877149 0.01400073
v -0.02767573 -0.01877149 0.01403073
v -0.02163759 -0.02491504 0.00399962
v -0.02163759 -0.02491504 0.00693440
v -0.02163759 -0.02491504 0.00696440
v -0.02289351 -0.02376501 0.00399993
v -0.02290648 -0.02375313 0.00399962
v -0.02411601 -0.02252619 0.00399962
v -0.02154144 -0.02298053 0.00000068
v -0.02290622 -0.02375337 0.00693440
v -0.02290648 -0.02375313 0.00693440
v -0.02411601 -0.02252619 0.00693440
v -0.02452252 -0.02287946 0.01400073
v -0.02208008 -0.02532177 0.01400073
v -0.02333361 -0.02413297 0.01400073
v -0.02633214 -0.01989005 0.00399962
v -0.02526476 -0.02123040 0.00399962
v -0.02526123 -0.02123040 0.00399259
v -0.02633214 -0.01989005 0.00696440
v -0.02502980 -0.02149390 0.00693576
v -0.02526476 -0.02123040 0.00696440
v -0.02581000 -0.01805794 0.00000068
v -0.02483504 -0.01937653 0.00000068
v -0.02325890 -0.02123040 0.00000433
v -0.02324180 -0.02124509 0.00000068
v -0.02379076 -0.02064508 0.00000068
v -0.02268690 -0.02185171 0.00000068
v -0.02265108 -0.02188759 0.00000068
v -0.02564359 -0.02156464 0.01400073
v -0.02669681 -0.02019532 0.01400082
v -0.02669681 -0.02019532 0.01400073
v -0.02988084 -0.01400425 0.00399962
v -0.03057048 -0.01242672 0.00399962
v -0.02988772 -0.01398850 0.00693450
v -0.02988084 -0.01400425 0.00696440
v -0.03057041 -0.01242688 0.00693440
v -0.03056305 -0.01244595 0.00696953
v -0.02825897 -0.01703962 0.00399962
v -0.02910919 -0.01554261 0.00399962
v -0.02754572 -0.01527759 0.00000068
v -0.02761571 -0.01514377 0.00000068
v -0.02825897 -0.01703962 0.00693440
v -0.02910919 -0.01554261 0.00693440
v -0.02830634 -0.01381712 0.00000068
v -0.03014402 -0.01422411 0.01400073
v -0.03080632 -0.01262656 0.01400073
v -0.02940095 -0.01578419 0.01400073
v -0.03117695 -0.01081438 0.00399962
v -0.02959089 -0.01079698 0.00000068
v -0.03136871 -0.01036397 0.00696440
v -0.03169793 -0.00917593 0.00399962
v -0.03011303 -0.00924121 0.00000068
v -0.03055431 -0.00766151 0.00000068
v -0.03173605 -0.00921293 0.00696440
v -0.03173541 -0.00921493 0.00696440
v -0.02898789 -0.01232446 0.00000068
v -0.03138462 -0.01099836 0.01400108
v -0.03138462 -0.01099836 0.01400073
v -0.03182724 -0.00929863 0.01400073
v -0.02671682 -0.01668713 0.00000068
v -0.03226215 -0.00765399 0.05939559
v -0.03226997 -0.00765407 0.06720427
v -0.02846020 -0.01750086 0.05940548
v -0.02848377 -0.01746035 0.05940273
v -0.02754309 -0.01897167 0.05940254
v -0.02767573 -0.01877149 0.05941615
v -0.02733305 -0.01927935 0.05940967
v -0.02498432 -0.02235171 0.05940630
v -0.02451591 -0.02288701 0.05939559
v -0.02306546 -0.02439867 0.05940345
v -0.02205113 -0.02534744 0.05939559
v -0.02318372 -0.02428082 0.05939774
v -0.02557691 -0.02164885 0.05939585
v -0.02654157 -0.02040183 0.05940034
v -0.02663545 -0.02028044 0.05941299
v -0.03080632 -0.01262826 0.03669066
v -0.02974708 -0.01508134 0.05940055
v -0.02974987 -0.01507568 0.05940135
v -0.03026249 -0.01395059 0.05940647
v -0.03030044 -0.01386295 0.05939559
v -0.03000790 -0.01452237 0.05942559
v -0.03054463 -0.01328398 0.05939559
v -0.03084036 -0.01253910 0.05939559
v -0.02919418 -0.01618613 0.05941429
v -0.02920393 -0.01616717 0.05941273
v -0.02940095 -0.01578419 0.05942291
v -0.03092100 -0.01231122 0.05939559
v -0.03092923 -0.01229555 0.05939559
v -0.03112984 -0.01172430 0.05939559
v -0.03135267 -0.01108112 0.05939559
v -0.03139946 -0.01093416 0.05942559
v -0.03143313 -0.01081746 0.05939559
v -0.03180667 -0.00954205 0.05939559
v -0.03196787 -0.00891568 0.05939559
v -0.03185949 -0.00933929 0.05939559
v -0.03199339 -0.00878063 0.05939559
v -0.03204047 -0.00862759 0.05939559
v -0.03164976 -0.01010023 0.06720427
v -0.03140426 -0.01092770 0.06720427
v -0.03183066 -0.00947812 0.06720427
v -0.03187759 -0.00930071 0.06720427
v -0.03216175 -0.00814029 0.06720427
v -0.03217575 -0.00807083 0.06720427
v -0.03217353 -0.00809695 0.06720427
v -0.01892419 -0.02703325 0.00399962
v -0.01892419 -0.02703325 0.00693440
v -0.01893821 -0.02702290 0.00693440
v -0.01748958 -0.02798286 0.00399962
v -0.01628252 -0.02696344 0.00000068
v -0.01748981 -0.02798271 0.00693440
v -0.01748794 -0.02798383 0.00694838
v -0.01939533 -0.02749498 0.01400092
v -0.01939533 -0.02749498 0.01400073
v -0.01649735 -0.02937865 0.01400082
v -0.01649735 -0.02937865 0.01400073
v -0.01797057 -0.02847598 0.01401045
v -0.01797057 -0.02847598 0.01400073
v -0.01182892 -0.03160635 0.01403073
v -0.01182892 -0.03160635 0.01400073
v -0.01447936 -0.02965257 0.00399962
v -0.01447936 -0.02965257 0.00693440
v -0.01448098 -0.02965172 0.00693443
v -0.01600549 -0.02885692 0.00399962
v -0.01485533 -0.02777534 0.00000068
v -0.01600549 -0.02885692 0.00693440
v -0.01598989 -0.02886505 0.00690409
v -0.01291365 -0.03036693 0.00399962
v -0.01131579 -0.03099904 0.00399962
v -0.01195904 -0.02913904 0.00000068
v -0.01187087 -0.02917674 0.00000068
v -0.01291365 -0.03036693 0.00693440
v -0.01131690 -0.03099860 0.00696229
v -0.01131008 -0.03099904 0.00697767
v -0.01130800 -0.03099904 0.00697600
v -0.01130905 -0.03099904 0.00697661
v -0.01130551 -0.03099904 0.00697558
v -0.01131579 -0.03099904 0.00699267
v -0.01131125 -0.03099904 0.00697964
v -0.01131690 -0.03099860 0.00699229
v -0.01338856 -0.02851170 0.00000068
v -0.01498213 -0.03020296 0.01400073
v -0.01342491 -0.03094554 0.01400073
v -0.01020063 -0.03218202 0.01400073
v -0.00854326 -0.03267252 0.01400073
v -0.00686327 -0.03307787 0.01400252
v -0.00686327 -0.03307787 0.01400073
v -0.01042421 -0.02972345 0.00000068
v -0.00878790 -0.03024930 0.00000068
v -0.00719993 -0.03066625 0.00000068
v -0.00560928 -0.03099550 0.00000068
v -0.00516390 -0.03339124 0.01400073
v -0.00345160 -0.03361606 0.01400073
v -0.00172962 -0.03375231 0.01400073
v -0.00128674 -0.02866642 0.00696953
v -0.01883230 -0.04490130 0.07113279
v -0.01980099 -0.04369399 0.06952053
v -0.01918413 -0.04185945 0.06646617
v -0.02129511 -0.04280672 0.06901833
v -0.01644078 -0.04580000 0.07161577
v -0.01863856 -0.04280672 0.06748566
v -0.01717234 -0.03979915 0.06308112
v -0.02113391 -0.03979915 0.06505425
v -0.01970490 -0.04085502 0.06548852
v -0.01918723 -0.03979915 0.06401967
v -0.01140667 -0.04185945 0.06330478
v -0.01577742 -0.04451982 0.06878302
v -0.01609670 -0.04325036 0.06690010
v -0.01537445 -0.04185945 0.06468514
v -0.01263420 -0.04369399 0.06616773
v -0.01201734 -0.04490130 0.06794327
v -0.01317667 -0.04580000 0.07008928
v -0.01302788 -0.04280672 0.06503572
v -0.01512026 -0.03979915 0.06224824
v -0.01377184 -0.04085502 0.06289657
v -0.01302478 -0.03979915 0.06152239
v -0.01089830 -0.03979915 0.06090493
v -0.01918533 -0.02764826 0.05940751
v -0.01945348 -0.02745410 0.05939768
v -0.01681804 -0.02918672 0.05939708
v -0.01660392 -0.02931396 0.05940358
v -0.01834519 -0.02822742 0.05940698
v -0.01798969 -0.02846209 0.05939559
v -0.01792333 -0.02850422 0.05939559
v -0.01713675 -0.02899731 0.05937516
v -0.01713675 -0.02899731 0.05940516
v -0.01182892 -0.03160635 0.05939962
v -0.01152541 -0.03172211 0.05940073
v -0.01090493 -0.03194357 0.05940277
v -0.01566431 -0.02984504 0.05939891
v -0.01566342 -0.02984552 0.05939892
v -0.01504027 -0.03017232 0.05941221
v -0.01426532 -0.03055702 0.05939989
v -0.01426373 -0.03055777 0.05939981
v -0.01342491 -0.03094554 0.05941686
v -0.01282030 -0.03120387 0.05939568
v -0.01282004 -0.03120398 0.05939563
v -0.01282013 -0.03120394 0.05939564
v -0.01282034 -0.03120386 0.05939570
v -0.01282376 -0.03120247 0.05939796
v -0.01281992 -0.03120403 0.05939562
v -0.01281977 -0.03120409 0.05939560
v -0.01281921 -0.03120431 0.05939560
v -0.01281955 -0.03120418 0.05939560
v -0.01282037 -0.03120385 0.05939571
v -0.01295322 -0.03114991 0.05940615
v -0.00835025 -0.04185945 0.06252816
v -0.00711032 -0.04280672 0.06347562
v -0.00854554 -0.04451982 0.06626859
v -0.00846339 -0.04580000 0.06857204
v -0.00946773 -0.04325036 0.06459492
v -0.00874082 -0.03979915 0.06039861
v -0.00751639 -0.04085502 0.06124865
v -0.00655855 -0.03979915 0.06000481
v -0.00523803 -0.04185945 0.06201567
v -0.00305885 -0.04280672 0.06295146
v -0.00212890 -0.04135723 0.06116495
v -0.00448787 -0.04580000 0.06780057
v -0.00477615 -0.04451982 0.06558252
v -0.00493734 -0.04369399 0.06435172
v -0.00277057 -0.04528279 0.06665895
v -0.00089827 -0.04580000 0.06752271
v -0.00095717 -0.04446482 0.06520004
v -0.00098817 -0.04363434 0.06396203
v -0.00436388 -0.03979915 0.05972353
v -0.00221260 -0.03979915 0.05955750
v -0.01018448 -0.03218883 0.05940495
v -0.00854326 -0.03267593 0.05940878
v -0.00748680 -0.03293821 0.05939559
v -0.00748680 -0.03293821 0.05941044
v -0.00688912 -0.03307446 0.05941118
v -0.00653373 -0.03314599 0.05941148
v -0.00516390 -0.03339465 0.05941218
v -0.00481821 -0.03344575 0.05941217
v -0.00433683 -0.03351387 0.05941211
v -0.00348068 -0.03361606 0.05941172
v -0.00219161 -0.03372506 0.05941040
v -0.00219161 -0.03372506 0.05939559
v -0.00172962 -0.03375231 0.05940974
v -0.00087993 -0.03378637 0.05940828
v -0.02030934 -0.02601001 0.00399962
v -0.01908060 -0.02505990 0.00000068
v -0.01885690 -0.02522659 0.00000068
v -0.02030934 -0.02601001 0.00696440
v -0.02030923 -0.02407745 0.00000068
v -0.02148742 -0.02303141 0.00000068
v -0.02008181 -0.02426110 0.00000068
v -0.01766519 -0.02607982 0.00000068
v -0.02076517 -0.02644243 0.01400073
v -0.02119623 -0.02123040 0.00000068
v -0.02119623 -0.02123040 0.00696953
v -0.02122716 -0.02606093 0.05940814
v -0.02122716 -0.02606093 0.05939559
v -0.02079424 -0.02642200 0.05940123
v -0.04094291 -0.03979519 0.08943097
v -0.03938155 -0.03979519 0.08528189
v -0.03534454 -0.04313088 0.08569424
v -0.03710475 -0.03979519 0.08085585
v -0.03872581 -0.04295257 0.09562416
v -0.03961144 -0.04278266 0.10339619
v -0.04207079 -0.03979519 0.09371059
v -0.04275677 -0.03979519 0.09808195
v -0.04297983 -0.03979519 0.10250622
v -0.04275677 -0.03979519 0.10692344
v -0.03333345 -0.04580000 0.09230737
v -0.03453914 -0.04580000 0.10528859
v -0.02986559 -0.04356593 0.07818814
v -0.02942594 -0.04135723 0.07341327
v -0.02696778 -0.04280672 0.07341327
v -0.03020490 -0.04580000 0.08488850
v -0.03159656 -0.03984401 0.07344327
v -0.03159656 -0.03984401 0.07341413
v -0.03166091 -0.03979915 0.07341327
v -0.03166091 -0.03979915 0.07342355
v -0.03166096 -0.03973696 0.07341327
v -0.02573872 -0.04341748 0.07341327
v -0.02518228 -0.04369399 0.07341327
v -0.02464756 -0.04580000 0.07784901
v -0.03166711 -0.03120366 0.07341327
v -0.03157224 -0.03120366 0.07330873
v -0.03166295 -0.03119012 0.07340898
v -0.03166314 -0.03118985 0.07340918
v -0.03166328 -0.03118933 0.07340932
v -0.03166333 -0.03118895 0.07340937
v -0.03166322 -0.03118961 0.07340926
v -0.03124130 -0.03120366 0.07297515
v -0.03779047 -0.04349871 0.11035190
v -0.04207079 -0.03979519 0.11128774
v -0.04094291 -0.03979519 0.11557088
v -0.03938576 -0.03979519 0.11970938
v -0.03264452 -0.04315842 0.12393034
v -0.03740355 -0.03979519 0.12367852
v -0.03501733 -0.03979519 0.12742187
v -0.03226496 -0.03979519 0.13089354
v -0.03138012 -0.04580000 0.11768071
v -0.02695014 -0.04333627 0.13047591
v -0.02750935 -0.03979519 0.13552599
v -0.02396158 -0.03979519 0.13817914
v -0.01960431 -0.04574024 0.07341327
v -0.01960431 -0.04574024 0.07344327
v -0.01944366 -0.04579917 0.07341327
v -0.01945937 -0.04580000 0.07342479
v -0.01945889 -0.04579359 0.07341327
v -0.01939133 -0.04580000 0.07338326
v -0.02096933 -0.04580000 0.13044371
v -0.01633997 -0.04332040 0.13773635
v -0.01818329 -0.03979519 0.14144619
v -0.01354762 -0.03979519 0.14326493
v -0.01354694 -0.03979519 0.14326511
v -0.00776513 -0.04580000 0.13638684
v -0.00796793 -0.04300812 0.14090814
v -0.00765781 -0.03979519 0.14479437
v -0.00328517 -0.03979519 0.14535534
v -0.03248114 -0.00582506 0.00399962
v -0.03250884 -0.00581415 0.00696440
v -0.03274106 -0.00412350 0.00399962
v -0.03275376 -0.00414526 0.00696440
v -0.03255416 -0.00591960 0.01400073
v -0.03278354 -0.00419602 0.01400073
v -0.03291086 -0.00241107 0.00399962
v -0.03299173 -0.00068994 0.00399962
v -0.03298690 -0.00085142 0.00696440
v -0.03299373 -0.00069079 0.00705775
v -0.03298365 0.00099762 0.00400538
v -0.03298364 0.00099855 0.00399962
v -0.03299039 0.00052559 0.00699440
v -0.03298537 0.00089583 0.00699440
v -0.03298494 0.00092148 0.00693440
v -0.03298062 0.00108105 0.00697755
v -0.03294185 -0.00249288 0.01400073
v -0.03299677 -0.00075568 0.01400073
v -0.03300000 0.00099856 0.01000270
v -0.03288491 0.00275156 0.00399962
v -0.03288374 0.00276223 0.00697146
v -0.03269637 0.00446253 0.00399962
v -0.03241973 0.00616124 0.00399962
v -0.03269636 0.00446388 0.00696953
v -0.03241865 0.00616620 0.00697041
v -0.03213343 -0.00751137 0.00399962
v -0.03091126 -0.00605788 0.00000068
v -0.03216000 -0.00753966 0.00696440
v -0.03118503 -0.00443901 0.00000068
v -0.03222139 -0.00760571 0.01400073
v -0.03137448 -0.00280926 0.00000068
v -0.03147729 -0.00117081 0.00000068
v -0.03149578 0.00047199 0.00000068
v -0.02996763 0.00098429 0.00000068
v -0.02996763 0.00101429 0.00000068
v -0.02996763 0.00098429 0.00696953
v -0.02996763 0.00101429 0.00696953
v -0.02994656 0.00100144 0.00696953
v -0.03143122 0.00205281 0.00000068
v -0.03141867 0.00222179 0.00000068
v -0.03127619 0.00374802 0.00000068
v -0.03103839 0.00537318 0.00000068
v -0.03205402 0.00784420 0.00399962
v -0.03071626 0.00698258 0.00000068
v -0.03031077 0.00857447 0.00000068
v -0.03205073 0.00785625 0.00697191
v -0.03160116 0.00950438 0.00399962
v -0.03106302 0.01113830 0.00399962
v -0.02982285 0.01014009 0.00000068
v -0.03159850 0.00951246 0.00697109
v -0.03106302 0.01113830 0.00696440
v -0.03106193 0.01114111 0.00696971
v -0.03226433 -0.00764391 0.05942559
v -0.03228669 -0.00754191 0.05939559
v -0.03242921 -0.00681939 0.05939559
v -0.03252541 -0.00627988 0.05939559
v -0.03257020 -0.00603539 0.05942559
v -0.03277131 -0.00452746 0.05942559
v -0.03277823 -0.00447647 0.05939559
v -0.03279861 -0.00432775 0.05939559
v -0.03287711 -0.00351206 0.05939559
v -0.03237996 -0.00708652 0.06720427
v -0.03247707 -0.00657380 0.06720427
v -0.03247670 -0.00657595 0.06720427
v -0.03257656 -0.00601558 0.06720427
v -0.03275612 -0.00472170 0.06720427
v -0.03273824 -0.00488078 0.06720427
v -0.03276945 -0.00462186 0.06720427
v -0.03277560 -0.00452693 0.06720427
v -0.03279037 -0.00444143 0.06720427
v -0.03287690 -0.00355976 0.06720427
v -0.03293264 -0.00279909 0.05939559
v -0.03294829 -0.00251671 0.05939559
v -0.03294979 -0.00250767 0.05939559
v -0.03297120 -0.00201001 0.05939559
v -0.03298634 -0.00142517 0.05939559
v -0.03299257 -0.00082667 0.05939559
v -0.03292929 -0.00287937 0.06720427
v -0.03294596 -0.00258430 0.06720427
v -0.03297416 -0.00193428 0.06720427
v -0.03299269 -0.00086589 0.06720427
v -0.03300000 0.01849843 0.01000270
v -0.03298062 0.01912797 0.01000270
v -0.03292893 0.01975172 0.01000270
v -0.03285141 0.02037548 0.01000270
v -0.03285141 0.02037548 0.01000426
v -0.03273512 0.02099347 0.01000270
v -0.03258653 0.02160567 0.01000270
v -0.03241210 0.02220633 0.01000270
v -0.03043962 0.01274244 0.00399962
v -0.03043962 0.01274244 0.00697115
v -0.03043588 0.01275076 0.00697089
v -0.02973379 0.01431332 0.00399962
v -0.02973169 0.01431741 0.00697058
v -0.02925345 0.01167944 0.00000068
v -0.02860541 0.01318901 0.00000068
v -0.02894648 0.01584391 0.00399962
v -0.02788063 0.01466006 0.00000068
v -0.02707816 0.01609259 0.00000068
v -0.02894445 0.01584741 0.00697153
v -0.02808243 0.01733247 0.00399962
v -0.02808243 0.01733247 0.00697184
v -0.02807927 0.01733729 0.00697171
v -0.02713975 0.01877200 0.00399962
v -0.02713889 0.01877320 0.00399993
v -0.02705543 0.01888934 0.00399962
v -0.02713615 0.01877701 0.00697143
v -0.02628501 0.01735379 0.00000068
v -0.02616802 0.01753364 0.00000068
v -0.02612313 0.02016337 0.00399962
v -0.02520760 0.01888934 0.00000401
v -0.02513764 0.01897542 0.00000068
v -0.02423989 0.02011564 0.00000068
v -0.02612186 0.02016494 0.00697115
v -0.02330648 0.01888934 0.00000068
v -0.02330553 0.01888934 0.00696953
v -0.03219890 0.02279832 0.01000270
v -0.03195987 0.02337875 0.01000332
v -0.03195987 0.02337876 0.01000270
v -0.03168853 0.02394765 0.01000270
v -0.03139135 0.02449922 0.01000270
v -0.03106186 0.02503345 0.01000282
v -0.03106186 0.02503345 0.01000270
v -0.03070654 0.02555325 0.01000270
v -0.03032537 0.02604995 0.01000289
v -0.03032537 0.02604995 0.01000270
v -0.02991190 0.02652932 0.01000270
v -0.02947905 0.02698270 0.01000270
v -0.02902682 0.02741586 0.01000270
v -0.02854874 0.02782304 0.01000270
v -0.02805129 0.02820711 0.01000270
v -0.02753445 0.02856231 0.01000270
v -0.02699823 0.02889151 0.01000270
v -0.02503571 0.02149878 0.00399962
v -0.02503631 0.02149805 0.00697080
v -0.02315905 0.02135103 0.00000068
v -0.02388034 0.02277509 0.00399962
v -0.02201464 0.02252847 0.00000068
v -0.02388104 0.02277432 0.00697114
v -0.02266139 0.02398889 0.00399962
v -0.02266024 0.02398992 0.00697116
v -0.02644264 0.02919184 0.01000270
v -0.02588058 0.02946040 0.01000270
v -0.02529914 0.02970009 0.01000270
v -0.02470478 0.02991090 0.01000270
v -0.02410395 0.03008994 0.01000270
v -0.02349020 0.03023721 0.01000433
v -0.02349021 0.03023721 0.01000270
v -0.02287647 0.03034984 0.01000270
v -0.02224980 0.03043358 0.01000270
v -0.02162314 0.03048267 0.01000270
v -0.03299897 0.01853326 0.05939559
v -0.03298062 0.01915396 0.05939559
v -0.03293143 0.01975927 0.05939559
v -0.03290452 0.01995044 0.05939559
v -0.03288800 0.02008537 0.05942559
v -0.03286828 0.02019192 0.05939559
v -0.03286912 0.02022192 0.05939559
v -0.03273512 0.02099347 0.05939559
v -0.03266770 0.02127600 0.05939559
v -0.03265781 0.02131745 0.05940030
v -0.03264663 0.02136429 0.05939559
v -0.03258007 0.02164321 0.05939559
v -0.03237334 0.02232184 0.05939559
v -0.03228824 0.02255513 0.05939559
v -0.03300000 0.02317360 0.06720427
v -0.03300000 0.02639287 0.07174858
v -0.03223218 0.02270066 0.05939559
v -0.03217951 0.02285321 0.05939559
v -0.03211827 0.02300162 0.05939559
v -0.03194048 0.02341342 0.05939559
v -0.03174235 0.02383663 0.05939559
v -0.03168851 0.02395278 0.05939559
v -0.03139145 0.02449662 0.05941175
v -0.03137410 0.02452548 0.05939559
v -0.03112896 0.02492227 0.05939559
v -0.03097665 0.02515794 0.05939559
v -0.03082309 0.02537670 0.05939559
v -0.03082309 0.02538366 0.05939559
v -0.03079400 0.02542527 0.05939559
v -0.03070654 0.02555036 0.05939559
v -0.03044718 0.02588887 0.05939559
v -0.03020908 0.02618856 0.05939559
v -0.02985619 0.02659108 0.05939559
v -0.02976317 0.02668516 0.05939559
v -0.02967933 0.02678055 0.05939559
v -0.02947905 0.02698847 0.05939559
v -0.02910708 0.02734084 0.05939559
v -0.02907938 0.02736599 0.05939559
v -0.02909465 0.02735321 0.05939560
v -0.02892493 0.02750406 0.05939559
v -0.02892009 0.02749923 0.05939559
v -0.02891904 0.02750915 0.05939559
v -0.02861335 0.02777106 0.05939559
v -0.02836785 0.02796118 0.05939559
v -0.02835768 0.02797440 0.05939559
v -0.02810297 0.02816957 0.05939559
v -0.02749569 0.02858541 0.05939559
v -0.02733693 0.02868041 0.05939559
v -0.02725342 0.02873333 0.05939559
v -0.02725336 0.02873457 0.05939559
v -0.02701115 0.02888286 0.05939559
v -0.02971163 0.02674922 0.06720427
v -0.02958386 0.02688062 0.06720427
v -0.02954076 0.02691642 0.06720427
v -0.02951781 0.02694854 0.06720427
v -0.02942091 0.02704518 0.06720427
v -0.02908821 0.02735953 0.06720427
v -0.02908819 0.02735925 0.06720427
v -0.02902145 0.02741974 0.06720427
v -0.02860689 0.02777600 0.06720427
v -0.02836785 0.02796928 0.06720427
v -0.02823860 0.02806065 0.06720427
v -0.02822178 0.02807401 0.06720427
v -0.02807067 0.02819276 0.06720427
v -0.02794741 0.02825947 0.06720427
v -0.02785452 0.02834462 0.06720427
v -0.02748923 0.02858535 0.06720427
v -0.02725033 0.02873324 0.06720427
v -0.02706753 0.02884641 0.06720427
v -0.02688195 0.03050000 0.07154680
v -0.02642662 0.02919957 0.05939559
v -0.02642325 0.02920142 0.05939559
v -0.02641896 0.02920542 0.05939559
v -0.02587412 0.02946040 0.05939559
v -0.02540896 0.02965356 0.05939559
v -0.02530627 0.02969863 0.05942559
v -0.02515931 0.02975116 0.05939559
v -0.02476438 0.02989061 0.05939559
v -0.02411800 0.03008478 0.05939559
v -0.02410294 0.03009018 0.05939559
v -0.02358122 0.03021338 0.05939559
v -0.02322533 0.03028679 0.05939559
v -0.02317688 0.03029766 0.05939559
v -0.02312842 0.03030652 0.05939559
v -0.02279686 0.03036142 0.05939559
v -0.02244563 0.03040309 0.05939559
v -0.02244362 0.03040336 0.05939559
v -0.02219811 0.03043936 0.05939559
v -0.02171714 0.03048067 0.05939559
v -0.02164898 0.03048845 0.05938779
v -0.02670318 0.02905522 0.06720427
v -0.02664291 0.02908666 0.06720427
v -0.02599041 0.02940678 0.06720427
v -0.02587412 0.02946114 0.06720427
v -0.02585140 0.02947066 0.06720427
v -0.02525050 0.02971971 0.06720427
v -0.02495027 0.02982957 0.06720427
v -0.02477261 0.02988695 0.06720427
v -0.02477487 0.02988622 0.06720427
v -0.02477468 0.02988622 0.06720427
v -0.02477004 0.02988773 0.06720427
v -0.02523453 0.03050000 0.07018721
v -0.02410395 0.03008929 0.06720427
v -0.02384331 0.03015246 0.06720427
v -0.02371473 0.03018363 0.06720427
v -0.02358066 0.03020689 0.06720427
v -0.02357196 0.03021791 0.06720427
v -0.02309036 0.03031351 0.06720427
v -0.02296490 0.03033418 0.06717426
v -0.02296510 0.03033442 0.06720427
v -0.02287364 0.03034967 0.06720427
v -0.02222043 0.03043597 0.06720427
v -0.02164898 0.03048792 0.06717426
v -0.02164650 0.03048797 0.06720458
v -0.02164898 0.03048792 0.06720427
v -0.02166573 0.03048643 0.06720427
v -0.02081104 0.02364566 0.00000068
v -0.02137886 0.02513677 0.00399962
v -0.01955043 0.02469694 0.00000068
v -0.02137794 0.02513751 0.00696965
v -0.01823721 0.02568230 0.00000068
v -0.02003933 0.02621760 0.00399962
v -0.02003494 0.02622077 0.00696440
v -0.02003838 0.02621829 0.00697114
v -0.01864498 0.02722683 0.00399962
v -0.01687575 0.02659720 0.00000068
v -0.01864685 0.02722548 0.00697017
v -0.01719803 0.02816218 0.00399962
v -0.01719803 0.02816218 0.00697022
v -0.01719987 0.02816099 0.00697016
v -0.02099647 0.03050000 0.01000270
v -0.01571555 0.02729232 0.00000068
v -0.01538199 0.02748615 0.00000068
v -0.01570942 0.02902139 0.00399962
v -0.01401691 0.02820878 0.00000068
v -0.01417476 0.02980104 0.00399962
v -0.01570937 0.02902141 0.00697061
v -0.01417476 0.02980104 0.00697139
v -0.01417526 0.02980079 0.00697138
v -0.01252830 0.02890092 0.00000068
v -0.01260065 0.03050000 0.00399962
v -0.01098227 0.02952307 0.00000068
v -0.01260069 0.03049998 0.00697041
v -0.01260089 0.03049989 0.00697032
v -0.01260081 0.03049993 0.00697035
v -0.01260074 0.03049996 0.00697038
v -0.01260124 0.03049974 0.00697030
v -0.01260111 0.03049980 0.00697030
v -0.01260066 0.03049999 0.00697047
v -0.01260099 0.03049985 0.00697031
v -0.00945461 0.03004767 0.00000068
v -0.00787611 0.03050000 0.00000068
v -0.00463799 0.02962920 0.00000451
v -0.00466799 0.02962920 0.00000451
v -0.00466799 0.02962920 0.00696953
v -0.00463799 0.02962920 0.00696953
v -0.02099647 0.03050000 0.05939559
v -0.02100292 0.03049398 0.06720458
v -0.02099647 0.03050000 0.06728692
v -0.00574078 0.03049618 0.06720427
v -0.03293706 -0.00287171 0.07341327
v -0.03298062 -0.00186785 0.07342532
v -0.03298733 -0.00135073 0.07341266
v -0.03300000 0.00130310 0.07343201
v -0.04095132 0.02849824 0.08944862
v -0.04095132 0.02849840 0.08944862
v -0.03865348 0.02849840 0.08376656
v -0.03300000 0.02742319 0.07341830
v -0.03300000 0.02749061 0.07341832
v -0.03300000 0.02749213 0.07341266
v -0.03285249 0.02760226 0.07341912
v -0.03231542 0.02800324 0.07344266
v -0.03231542 0.02800324 0.07341266
v -0.03617362 0.03050000 0.08349225
v -0.04207920 0.02849840 0.09375998
v -0.04287461 0.02849840 0.09983543
v -0.03959619 0.03050000 0.09215821
v -0.04292512 0.02849840 0.10478187
v -0.04063358 0.03050000 0.10484449
v -0.03118270 0.02884893 0.07341266
v -0.02974358 0.02988013 0.07344266
v -0.02974358 0.02988013 0.07341266
v -0.02887823 0.03050000 0.07341266
v -0.02845830 0.03050000 0.07299086
v -0.04243482 0.02849840 0.10935255
v -0.04151316 0.02849840 0.11363217
v -0.04010331 0.02849840 0.11796825
v -0.03832942 0.02849840 0.12194974
v -0.03693115 0.03050000 0.11999163
v -0.03603368 0.02849840 0.12592418
v -0.03341178 0.02849840 0.12954052
v -0.03049108 0.03050000 0.12975572
v -0.03052685 0.02849840 0.13275464
v -0.02709481 0.02849840 0.13585939
v -0.02349233 0.02849840 0.13849667
v -0.02126708 0.03050000 0.13735180
v -0.01979305 0.02849840 0.14065059
v -0.01364021 0.02849840 0.14325611
v -0.01055537 0.03050000 0.14204067
v -0.00715700 0.02849840 0.14487906
v -0.00232248 0.02849840 0.14540210
v -0.00079795 0.03050000 0.14335667
v 0.00000853 -0.03379654 0.01400073
v -0.00000117 -0.03380000 0.01400073
v 0.00000853 -0.03379995 0.01464568
v 0.00172996 -0.03375226 0.01400073
v 0.00345139 -0.03361601 0.01400073
v 0.00516314 -0.03339119 0.01400073
v -0.00000890 -0.02999384 0.00000534
v 0.00002110 -0.02999384 0.00000534
v -0.00001011 -0.02999436 0.00696953
v 0.00001989 -0.02999436 0.00696953
v 0.00686197 -0.03307782 0.01400073
v 0.00854142 -0.03267247 0.01400073
v 0.01019826 -0.03218197 0.01400073
v 0.00559085 -0.03100000 0.00000068
v 0.00719786 -0.03066584 0.00000068
v 0.00886926 -0.03022372 0.00000068
v 0.01035152 -0.02975018 0.00000068
v 0.01182926 -0.03160631 0.01403073
v 0.01182926 -0.03160631 0.01400073
v 0.01131472 -0.03100000 0.00399962
v 0.01188811 -0.02917070 0.00000068
v 0.01291418 -0.03036701 0.00399962
v 0.01131545 -0.03099971 0.00693440
v 0.01131574 -0.03099999 0.00696953
v 0.01243001 -0.03055929 0.00693445
v 0.01291418 -0.03036701 0.00693440
v 0.01338950 -0.02851248 0.00000068
v 0.01448096 -0.02965226 0.00399962
v 0.01448096 -0.02965226 0.00696440
v 0.01600749 -0.02885674 0.00399962
v 0.01485567 -0.02777551 0.00000068
v 0.01600749 -0.02885674 0.00693440
v 0.01601008 -0.02885522 0.00696440
v 0.01342473 -0.03094549 0.01400073
v 0.01498468 -0.03020292 0.01400769
v 0.01498468 -0.03020292 0.01400073
v 0.01628161 -0.02696384 0.00000068
v 0.01748876 -0.02798348 0.00399962
v 0.01748876 -0.02798348 0.00696440
v 0.01892475 -0.02703249 0.00399962
v 0.01892475 -0.02703249 0.00693440
v 0.01650265 -0.02937860 0.01400073
v 0.01797217 -0.02847594 0.01400073
v 0.01939647 -0.02749493 0.01400073
v 0.00000068 -0.04220200 0.06208359
v 0.00252548 -0.04300318 0.06318060
v 0.00317179 -0.04159084 0.06149152
v 0.00513088 -0.04255097 0.06284032
v 0.00236429 -0.04469127 0.06563912
v 0.00269752 -0.04580000 0.06761533
v 0.00000068 -0.03979915 0.05950124
v 0.00223255 -0.03979915 0.05955887
v 0.00445822 -0.03979915 0.05973313
v 0.00641421 -0.04108291 0.06130765
v 0.00918235 -0.04255097 0.06357852
v 0.00944583 -0.04159084 0.06246847
v 0.00626852 -0.04580000 0.06807774
v 0.00650410 -0.04508276 0.06678999
v 0.00539592 -0.04387759 0.06469303
v 0.00893436 -0.04469127 0.06666033
v 0.00890957 -0.04345538 0.06473386
v 0.00667769 -0.03979915 0.06002265
v 0.00887237 -0.03979915 0.06042743
v 0.00003853 -0.03379995 0.05940633
v 0.00068496 -0.03379311 0.05940470
v 0.00068447 -0.03379313 0.05940470
v 0.00187617 -0.03374545 0.05940114
v 0.00228610 -0.03372162 0.05939979
v 0.00247585 -0.03370538 0.05939909
v 0.00337065 -0.03362622 0.05940132
v 0.00453012 -0.03348657 0.05939559
v 0.00453012 -0.03348657 0.05940352
v 0.00516314 -0.03339119 0.05940437
v 0.00590597 -0.03326516 0.05940511
v 0.00592577 -0.03326168 0.05940512
v 0.00679094 -0.03309143 0.05940555
v 0.00723661 -0.03299607 0.05940563
v 0.00723645 -0.03299611 0.05940563
v 0.00856079 -0.03266906 0.05940505
v 0.00999666 -0.03224804 0.05940321
v 0.01267585 -0.04108291 0.06278543
v 0.01470623 -0.04108291 0.06349070
v 0.01274715 -0.04345538 0.06585077
v 0.01234107 -0.04429979 0.06701297
v 0.01105929 -0.04580000 0.06932741
v 0.01191949 -0.04508276 0.06821701
v 0.01313772 -0.04255097 0.06472836
v 0.01523165 -0.04469127 0.06884956
v 0.01603141 -0.04580000 0.07142505
v 0.01105464 -0.03979915 0.06094609
v 0.01320592 -0.03979915 0.06157864
v 0.01528590 -0.03979915 0.06231067
v 0.01705590 -0.04508276 0.07046044
v 0.01624530 -0.04300318 0.06660476
v 0.01669012 -0.04108291 0.06429958
v 0.01839502 -0.04159084 0.06569640
v 0.02008443 -0.04387759 0.07001793
v 0.01896849 -0.04300318 0.06796557
v 0.02053080 -0.04108291 0.06621782
v 0.01735038 -0.03979915 0.06315865
v 0.01936837 -0.03979915 0.06411228
v 0.02133675 -0.03979915 0.06517019
v 0.01116071 -0.03185496 0.05940076
v 0.01116071 -0.03185496 0.05939559
v 0.01182926 -0.03160631 0.05939892
v 0.01261085 -0.03129293 0.05939637
v 0.01281995 -0.03120495 0.05939562
v 0.01282092 -0.03120453 0.05939565
v 0.01282053 -0.03120470 0.05939563
v 0.01281902 -0.03120535 0.05939561
v 0.01282119 -0.03120441 0.05939568
v 0.01282189 -0.03120412 0.05939584
v 0.01282169 -0.03120420 0.05939577
v 0.01282522 -0.03120311 0.05939559
v 0.01282196 -0.03120408 0.05939588
v 0.01282203 -0.03120406 0.05939591
v 0.01284992 -0.03119207 0.05939560
v 0.01336016 -0.03097273 0.05940904
v 0.01396706 -0.03069695 0.05940285
v 0.01404291 -0.03066029 0.05939881
v 0.01498468 -0.03019951 0.05940532
v 0.01522173 -0.03007772 0.05939905
v 0.01545667 -0.02995401 0.05940602
v 0.01658856 -0.02932633 0.05940009
v 0.01752918 -0.02875556 0.05940289
v 0.01774392 -0.02861868 0.05939591
v 0.01796248 -0.02847935 0.05940599
v 0.01935559 -0.02752239 0.05939569
v 0.01950951 -0.02741318 0.05940407
v 0.01766480 -0.02607847 0.00000068
v 0.01900020 -0.02512344 0.00000068
v 0.02030794 -0.02600881 0.00399962
v 0.02030808 -0.02600870 0.00696440
v 0.02030794 -0.02600881 0.00696440
v 0.02141084 -0.02510241 0.00696953
v 0.02028279 -0.02409976 0.00000068
v 0.02076586 -0.02644580 0.01400494
v 0.02076586 -0.02644580 0.01400073
v 0.02061982 -0.02656048 0.05939813
v 0.02145994 -0.02586359 0.05940516
v 0.02253019 -0.04387759 0.07166448
v 0.02237209 -0.04108291 0.06732238
v 0.02232250 -0.04255097 0.06931883
v 0.02383831 -0.04159084 0.06896482
v 0.02482405 -0.04255097 0.07113004
v 0.02586870 -0.04108291 0.06980936
v 0.02341674 -0.03979915 0.06643599
v 0.02509064 -0.03979915 0.06758240
v 0.02752090 -0.04108291 0.07118424
v 0.02686994 -0.03979915 0.06893189
v 0.02857484 -0.03979915 0.07037263
v 0.03020535 -0.03979915 0.07189912
v 0.02388159 -0.03119480 0.06675019
v 0.02454326 -0.03120366 0.06720427
v 0.02506318 -0.03120366 0.06756170
v 0.02527631 -0.03118822 0.06771322
v 0.02559530 -0.03120366 0.06795783
v 0.02619068 -0.03120366 0.06840705
v 0.02696318 -0.03120366 0.06900692
v 0.02720170 -0.03120366 0.06920507
v 0.02806651 -0.03120366 0.06993335
v 0.02869733 -0.03120366 0.07047834
v 0.02937131 -0.03120366 0.07110777
v 0.02936586 -0.03120366 0.07110005
v 0.02971162 -0.03120366 0.07142159
v 0.03040740 -0.03120366 0.07210000
v 0.02163831 -0.02491547 0.00399962
v 0.02163831 -0.02491547 0.00696440
v 0.02151257 -0.02301046 0.00000068
v 0.02290833 -0.02375349 0.00399962
v 0.02411547 -0.02252588 0.00399962
v 0.02289561 -0.02376513 0.00693440
v 0.02292145 -0.02374015 0.00696440
v 0.02411547 -0.02252588 0.00693440
v 0.02410325 -0.02253830 0.00696440
v 0.02208035 -0.02532173 0.01400073
v 0.02333348 -0.02413294 0.01400073
v 0.02452201 -0.02287943 0.01400073
v 0.02268199 -0.02185756 0.00000068
v 0.02171304 -0.02068649 0.00000068
v 0.02375332 -0.02068649 0.00000068
v 0.02171304 -0.02068649 0.00696953
v 0.02526164 -0.02123218 0.00399962
v 0.02569733 -0.02068649 0.00399962
v 0.02570427 -0.02067860 0.00399962
v 0.02633195 -0.01989049 0.00399962
v 0.02525723 -0.02123770 0.00693440
v 0.02525740 -0.02123749 0.00696440
v 0.02632864 -0.01989465 0.00696440
v 0.02633195 -0.01989049 0.00693440
v 0.02633195 -0.01989049 0.00696440
v 0.02483428 -0.01937681 0.00000068
v 0.02581064 -0.01805652 0.00000068
v 0.02564272 -0.02156461 0.01400073
v 0.02669561 -0.02019528 0.01400073
v 0.02733371 -0.01848954 0.00399962
v 0.02703962 -0.01890137 0.00693440
v 0.02733371 -0.01848954 0.00693440
v 0.02767421 -0.01877146 0.01400073
v 0.02857853 -0.01729995 0.01400073
v 0.02671631 -0.01668741 0.00000068
v 0.02754798 -0.01527372 0.00000068
v 0.02825926 -0.01703977 0.00399962
v 0.02910971 -0.01554330 0.00399962
v 0.02825926 -0.01703977 0.00693440
v 0.02825403 -0.01704797 0.00696364
v 0.02910971 -0.01554330 0.00693440
v 0.02830675 -0.01381758 0.00000068
v 0.02988063 -0.01400437 0.00399962
v 0.03056982 -0.01242724 0.00399962
v 0.02988063 -0.01400437 0.00696440
v 0.03055587 -0.01245916 0.00693440
v 0.03056982 -0.01242724 0.00696440
v 0.02940210 -0.01578416 0.01400073
v 0.03014494 -0.01422409 0.01400073
v 0.03014494 -0.01422409 0.01403073
v 0.03080703 -0.01262654 0.01400073
v 0.02898821 -0.01232323 0.00000068
v 0.02959125 -0.01079704 0.00000068
v 0.03117618 -0.01081614 0.00399962
v 0.03117618 -0.01081614 0.00693440
v 0.03138960 -0.01020007 0.00696440
v 0.03011367 -0.00924113 0.00000068
v 0.03051929 -0.00778560 0.00000068
v 0.03169859 -0.00917745 0.00399962
v 0.03172720 -0.00922555 0.00693440
v 0.03203523 -0.00805534 0.00696440
v 0.03138192 -0.01099834 0.01400073
v 0.03181469 -0.00928839 0.01400073
v 0.02859064 -0.01727832 0.03670351
v 0.02177199 -0.02559312 0.05939633
v 0.02208035 -0.02532173 0.05941349
v 0.02267462 -0.02477332 0.05942244
v 0.02283296 -0.02461996 0.05941794
v 0.02337867 -0.02408528 0.05939660
v 0.02395657 -0.02348941 0.05940723
v 0.02395705 -0.02348890 0.05940723
v 0.02459544 -0.02279671 0.05939559
v 0.02548582 -0.02175796 0.05940117
v 0.02589464 -0.02125123 0.05941653
v 0.02606582 -0.02102642 0.05941100
v 0.02641144 -0.02057030 0.05939773
v 0.02672077 -0.02015779 0.05942559
v 0.02679911 -0.02005453 0.05939559
v 0.02714119 -0.01955847 0.05942559
v 0.02722975 -0.01943224 0.05942559
v 0.02768294 -0.01875587 0.05939587
v 0.02860273 -0.01725672 0.05940358
v 0.02873676 -0.01701727 0.05942000
v 0.02881614 -0.01687212 0.05942559
v 0.02881620 -0.01687200 0.05939559
v 0.02923416 -0.01610776 0.05939559
v 0.02948546 -0.01561308 0.05939559
v 0.02950252 -0.01557806 0.05942559
v 0.02956867 -0.01544229 0.05941189
v 0.02964661 -0.01528234 0.05942559
v 0.02972131 -0.01512903 0.05939559
v 0.02997275 -0.01460026 0.05939559
v 0.03014494 -0.01422409 0.05939559
v 0.03029247 -0.01388556 0.05939559
v 0.03029247 -0.01388556 0.05942559
v 0.03037387 -0.01369878 0.05940849
v 0.03051807 -0.01334107 0.05942559
v 0.03054210 -0.01328046 0.05939559
v 0.03080690 -0.01263026 0.05939559
v 0.03089523 -0.01238944 0.05939559
v 0.03091879 -0.01232185 0.05942559
v 0.03133987 -0.01112632 0.05939559
v 0.03138388 -0.01099931 0.05939559
v 0.03160954 -0.01021165 0.05939559
v 0.03182430 -0.00944468 0.05939559
v 0.03192450 -0.00908742 0.05939559
v 0.03201068 -0.00873381 0.05939559
v 0.03209634 -0.00838231 0.05942559
v 0.03215388 -0.00814077 0.05939559
v 0.03215388 -0.00814077 0.05942559
v 0.03139187 -0.01095611 0.06720427
v 0.03139133 -0.01095795 0.06720427
v 0.03139132 -0.01095800 0.06720427
v 0.03139120 -0.01095836 0.06720427
v 0.03179189 -0.00961100 0.06720427
v 0.03178847 -0.00960526 0.06720427
v 0.03185435 -0.00938008 0.06720427
v 0.03185327 -0.00938451 0.06720427
v 0.03222478 -0.00785593 0.06720427
v 0.01944276 -0.04580000 0.07341327
v 0.01945269 -0.04579667 0.07341327
v 0.01957629 -0.04575520 0.07344327
v 0.01957629 -0.04575520 0.07341327
v 0.00436958 -0.04391089 0.14022303
v 0.00111692 -0.03979519 0.14546825
v 0.00557900 -0.04580000 0.13687903
v 0.00777058 -0.03979519 0.14477322
v 0.01200644 -0.04395990 0.13855752
v 0.01211376 -0.03979519 0.14373946
v 0.01876399 -0.04411441 0.13521132
v 0.01632016 -0.03979519 0.14226471
v 0.02027826 -0.03979519 0.14039481
v 0.02274717 -0.04469127 0.07341327
v 0.02657235 -0.04300318 0.07341327
v 0.02762716 -0.04240927 0.07341327
v 0.02775608 -0.04233734 0.07344327
v 0.02775608 -0.04233734 0.07341327
v 0.02782978 -0.04229588 0.07341621
v 0.02798361 -0.04220936 0.07344327
v 0.02798361 -0.04220936 0.07341327
v 0.02908321 -0.04159084 0.07341327
v 0.03169516 -0.04377179 0.08126005
v 0.03163913 -0.04580000 0.08794122
v 0.03144745 -0.03995057 0.07341327
v 0.03149037 -0.03992258 0.07344327
v 0.03149037 -0.03992258 0.07341327
v 0.03166847 -0.03979915 0.07341327
v 0.03166929 -0.03959117 0.07341327
v 0.03119107 -0.03120366 0.07291368
v 0.03166270 -0.03123366 0.07341327
v 0.03166226 -0.03120366 0.07341223
v 0.03166226 -0.03120366 0.07341222
v 0.03166268 -0.03120366 0.07341266
v 0.03552043 -0.04343990 0.08697892
v 0.03522478 -0.03979519 0.07787811
v 0.03768255 -0.03979519 0.08182256
v 0.03954692 -0.03979519 0.08567175
v 0.04128293 -0.03979519 0.09048235
v 0.03452406 -0.04580000 0.09712582
v 0.03452788 -0.04579765 0.09715795
v 0.03452788 -0.04579765 0.09712794
v 0.03472081 -0.04580000 0.10563920
v 0.03965318 -0.04264915 0.09997920
v 0.04216882 -0.03979519 0.09419042
v 0.04285270 -0.03979519 0.09928504
v 0.04294529 -0.03979519 0.10417502
v 0.04257494 -0.03979519 0.10835939
v 0.03040604 -0.04580000 0.11970761
v 0.03039026 -0.04375265 0.12562671
v 0.02147243 -0.04580000 0.12999387
v 0.02425951 -0.03979519 0.13797627
v 0.02772101 -0.03979519 0.13534252
v 0.03463822 -0.04395990 0.11804013
v 0.03681349 -0.04426892 0.10929809
v 0.03681018 -0.04427134 0.10929230
v 0.03566878 -0.03979519 0.12644634
v 0.04167853 -0.03979519 0.11298829
v 0.04029603 -0.03979519 0.11746196
v 0.03862105 -0.03979519 0.12135878
v 0.03248294 -0.03979519 0.13064305
v -0.00000809 0.00100144 0.00700029
v 0.00787633 0.03049994 0.00000068
v 0.00954027 0.03001831 0.00000068
v 0.01100470 0.02951460 0.00000068
v 0.01249276 0.02891485 0.00000068
v 0.01275769 0.02879389 0.00000068
v 0.01259688 0.03050000 0.00399962
v 0.01259881 0.03049914 0.00696515
v 0.01259788 0.03050000 0.00696953
v 0.01546614 0.02744091 0.00000068
v 0.01401617 0.02820925 0.00000068
v 0.01417232 0.02980076 0.00399962
v 0.01570594 0.02902115 0.00399962
v 0.01417188 0.02980096 0.00697054
v 0.01569914 0.02902461 0.00696953
v 0.01570536 0.02902146 0.00696953
v 0.01823781 0.02568267 0.00000068
v 0.01945012 0.02282711 0.00000068
v 0.01945012 0.02282711 0.00696953
v 0.01955115 0.02469727 0.00000068
v 0.02081150 0.02364502 0.00000068
v 0.02137755 0.02513814 0.00399962
v 0.02137817 0.02513758 0.00696974
v 0.02137755 0.02513814 0.00696440
v 0.01687428 0.02659822 0.00000068
v 0.01864492 0.02722761 0.00399962
v 0.01864774 0.02722557 0.00697046
v 0.01719774 0.02816268 0.00399962
v 0.01720032 0.02816101 0.00697029
v 0.02003912 0.02621893 0.00399962
v 0.02003962 0.02621853 0.00697158
v 0.02099648 0.03050000 0.01000270
v 0.02128113 0.03050000 0.06739748
v 0.03055684 -0.00764862 0.00000068
v 0.03213375 -0.00751117 0.00399962
v 0.03091110 -0.00605715 0.00000068
v 0.03118501 -0.00443969 0.00000068
v 0.03137388 -0.00280949 0.00000068
v 0.03147770 -0.00117080 0.00000068
v 0.02996722 0.00098673 0.00000508
v 0.02996722 0.00101233 0.00000068
v 0.03149509 0.00044610 0.00000068
v 0.03149287 0.00053486 0.00000068
v 0.02996722 0.00098233 0.00696953
v 0.02994754 0.00100144 0.00696953
v 0.02996722 0.00101233 0.00696953
v 0.03142876 0.00211391 0.00000068
v 0.03127508 0.00374849 0.00000068
v 0.03103795 0.00537239 0.00000068
v 0.03071603 0.00698346 0.00000068
v 0.03031065 0.00857317 0.00000068
v 0.03205405 0.00784455 0.00399962
v 0.03205075 0.00785665 0.00697200
v 0.02982180 0.01014151 0.00000068
v 0.03160098 0.00950477 0.00399962
v 0.03106312 0.01113935 0.00399962
v 0.03159849 0.00951234 0.00697106
v 0.03106312 0.01113935 0.00697009
v 0.03106203 0.01114215 0.00696999
v 0.03248167 -0.00582578 0.00399962
v 0.03274122 -0.00412341 0.00399962
v 0.03222810 -0.00761251 0.01400073
v 0.03255430 -0.00591959 0.01400073
v 0.03279007 -0.00420283 0.01400073
v 0.03291130 -0.00241043 0.00399962
v 0.03299193 -0.00069108 0.00399962
v 0.03298310 0.00099856 0.00399962
v 0.03298310 0.00099856 0.00693440
v 0.03298061 0.00107015 0.00697572
v 0.03293864 -0.00248947 0.01400073
v 0.03299677 -0.00075568 0.01400073
v 0.03300000 0.00099856 0.01000270
v 0.03288469 0.00275065 0.00399962
v 0.03288373 0.00275937 0.00697095
v 0.03269657 0.00446215 0.00399962
v 0.03241969 0.00616083 0.00399962
v 0.03269636 0.00446388 0.00696953
v 0.03241864 0.00616566 0.00697030
v 0.03226686 -0.00764998 0.05939559
v 0.03240225 -0.00695762 0.05939559
v 0.03240590 -0.00693997 0.05942559
v 0.03243777 -0.00676319 0.05939559
v 0.03257045 -0.00602518 0.05939559
v 0.03265046 -0.00545111 0.05939559
v 0.03265362 -0.00542860 0.05939559
v 0.03274485 -0.00478528 0.05939559
v 0.03283206 -0.00402570 0.05939559
v 0.03285084 -0.00380882 0.05939559
v 0.03287594 -0.00349335 0.05939559
v 0.03228020 -0.00757373 0.06720427
v 0.03233940 -0.00731771 0.06720427
v 0.03247643 -0.00657735 0.06720427
v 0.03251601 -0.00635670 0.06720427
v 0.03257361 -0.00603538 0.06720427
v 0.03266285 -0.00542630 0.06720427
v 0.03270282 -0.00515355 0.06720427
v 0.03281311 -0.00423708 0.06720427
v 0.03283199 -0.00405167 0.06720427
v 0.03285730 -0.00378268 0.06720427
v 0.03294858 -0.00251431 0.05939559
v 0.03296772 -0.00198531 0.05939559
v 0.03298385 -0.00156637 0.05939559
v 0.03299556 -0.00076337 0.05939559
v 0.03293367 -0.00277160 0.06720427
v 0.03294756 -0.00247635 0.06720427
v 0.03297363 -0.00189424 0.06720427
v 0.03299788 -0.00080655 0.06720427
v 0.03300000 -0.00069610 0.06720427
v 0.02620384 0.01748108 0.00000068
v 0.02525662 0.01882293 0.00000068
v 0.02424184 0.02011350 0.00000068
v 0.02612435 0.02016264 0.00399962
v 0.02612215 0.02016534 0.00697136
v 0.02925348 0.01168207 0.00000068
v 0.02860566 0.01318845 0.00000068
v 0.02787968 0.01466063 0.00000068
v 0.02707686 0.01609223 0.00000068
v 0.02894612 0.01584437 0.00399962
v 0.02894442 0.01584730 0.00697150
v 0.03043915 0.01274187 0.00399962
v 0.03043571 0.01274954 0.00697054
v 0.02973304 0.01431235 0.00399962
v 0.02973304 0.01431235 0.00696440
v 0.02973134 0.01431567 0.00697004
v 0.02808105 0.01733151 0.00399962
v 0.02807852 0.01733537 0.00697095
v 0.02713913 0.01877165 0.00399962
v 0.02713575 0.01877628 0.00697072
v 0.02713575 0.01877628 0.00697110
v 0.02713913 0.01877165 0.00697123
v 0.02197635 0.02256624 0.00000068
v 0.02170436 0.02281898 0.00000068
v 0.02309643 0.02141695 0.00000068
v 0.02316082 0.02135065 0.00000068
v 0.02388283 0.02277370 0.00399962
v 0.02382984 0.02282711 0.00399962
v 0.02382855 0.02282711 0.00399962
v 0.02388177 0.02277477 0.00697150
v 0.02382855 0.02282711 0.00697119
v 0.02266021 0.02398901 0.00399962
v 0.02266021 0.02398901 0.00697087
v 0.02265979 0.02398939 0.00697086
v 0.02503671 0.02149595 0.00399962
v 0.02503671 0.02149595 0.00697036
v 0.02503553 0.02149725 0.00697032
v 0.02162314 0.03048267 0.01000270
v 0.02224980 0.03043358 0.01000270
v 0.02287646 0.03034984 0.01000270
v 0.02349021 0.03023721 0.01000341
v 0.02349021 0.03023721 0.01000270
v 0.02410395 0.03008994 0.01000270
v 0.02470477 0.02991090 0.01000270
v 0.02529914 0.02970009 0.01000270
v 0.02644264 0.02919184 0.01000270
v 0.02588058 0.02946040 0.01000270
v 0.03219890 0.02279832 0.01000270
v 0.03070653 0.02555325 0.01000270
v 0.03139134 0.02449922 0.01000329
v 0.03139134 0.02449922 0.01000270
v 0.03195987 0.02337876 0.01000270
v 0.03168852 0.02394765 0.01000270
v 0.03106186 0.02503345 0.01000270
v 0.02854875 0.02782304 0.01000270
v 0.02902682 0.02741586 0.01000270
v 0.02947905 0.02698270 0.01000270
v 0.02699824 0.02889151 0.01000270
v 0.02753446 0.02856231 0.01000270
v 0.02805129 0.02820711 0.01000270
v 0.02991190 0.02652932 0.01000270
v 0.03032537 0.02604995 0.01000270
v 0.03300000 0.01849843 0.01000270
v 0.03298062 0.01912759 0.01000270
v 0.03298061 0.01912797 0.01000270
v 0.03292893 0.01975172 0.01000270
v 0.03292893 0.01975172 0.01000293
v 0.03285141 0.02037548 0.01000270
v 0.03285138 0.02037564 0.01003155
v 0.03285134 0.02037586 0.01000270
v 0.03273512 0.02099347 0.01000270
v 0.03263987 0.02138591 0.01000270
v 0.03258653 0.02160567 0.01000270
v 0.03241209 0.02220633 0.01000270
v 0.02168635 0.03048511 0.05939559
v 0.02219812 0.03043936 0.05939559
v 0.02244375 0.03040336 0.05939559
v 0.02244094 0.03040653 0.05939559
v 0.02254721 0.03039498 0.05939559
v 0.02277956 0.03036428 0.05939559
v 0.02312843 0.03030652 0.05939559
v 0.02335318 0.03026101 0.05939559
v 0.02335323 0.03026100 0.05939559
v 0.02345718 0.03024051 0.05939559
v 0.02357698 0.03021302 0.05939559
v 0.02356773 0.03021988 0.05939559
v 0.02410395 0.03008994 0.05939559
v 0.02480591 0.02987896 0.05939559
v 0.02428186 0.03003788 0.05939559
v 0.02428162 0.03003795 0.05939559
v 0.02496595 0.02981553 0.05939559
v 0.02492570 0.02983639 0.05939559
v 0.02510855 0.02976917 0.05939559
v 0.02530560 0.02969720 0.05939559
v 0.02642325 0.02920339 0.05939559
v 0.02663662 0.02908968 0.05939559
v 0.02662838 0.02908968 0.05939559
v 0.02584562 0.02947363 0.05939559
v 0.02602271 0.02939687 0.05939559
v 0.02165544 0.03048792 0.06720427
v 0.02224504 0.03043287 0.06720427
v 0.02247915 0.03040336 0.06720427
v 0.02272466 0.03036794 0.06720427
v 0.02316719 0.03030069 0.06720427
v 0.02334513 0.03026439 0.06720427
v 0.02334485 0.03026445 0.06720427
v 0.02352251 0.03022821 0.06720427
v 0.02409522 0.03008872 0.06720427
v 0.02433943 0.03002071 0.06720427
v 0.02434593 0.03001887 0.06720427
v 0.02434299 0.03001983 0.06720427
v 0.02459074 0.02994745 0.06720427
v 0.02531205 0.02969669 0.06720427
v 0.02682617 0.02898745 0.06720427
v 0.02682704 0.02898701 0.06720427
v 0.02670578 0.02905385 0.06720427
v 0.02568454 0.02953753 0.06720427
v 0.02569038 0.02953492 0.06720427
v 0.02606147 0.02937658 0.06720427
v 0.02520453 0.03050000 0.07016499
v 0.03217306 0.02286474 0.05939559
v 0.03202904 0.02321467 0.05939559
v 0.03206524 0.02312869 0.05939559
v 0.03070653 0.02555325 0.05939559
v 0.03141073 0.02445879 0.05939559
v 0.03176701 0.02378881 0.05939559
v 0.03194048 0.02342497 0.05939559
v 0.03168898 0.02395247 0.05939833
v 0.03168836 0.02395372 0.05939932
v 0.03163499 0.02405082 0.05939559
v 0.03110692 0.02496001 0.05941484
v 0.03109418 0.02497941 0.05939559
v 0.03118084 0.02484698 0.05939559
v 0.03114556 0.02489538 0.05939559
v 0.02837431 0.02796165 0.05939559
v 0.02845830 0.02789680 0.05939559
v 0.02859338 0.02778705 0.05939559
v 0.02861335 0.02777106 0.05939559
v 0.02882227 0.02757849 0.05939559
v 0.02880075 0.02760842 0.05939559
v 0.02905469 0.02739004 0.05939559
v 0.02928524 0.02717352 0.05939559
v 0.02930789 0.02715189 0.05939559
v 0.02947905 0.02698847 0.05939559
v 0.02918530 0.02726556 0.05939559
v 0.02737096 0.02865734 0.05939559
v 0.02747127 0.02860056 0.05939559
v 0.02699514 0.02889114 0.05939559
v 0.02724143 0.02874337 0.05939559
v 0.02803191 0.02821866 0.05939559
v 0.02974482 0.02670540 0.05939559
v 0.02992163 0.02651257 0.05939559
v 0.02993774 0.02650333 0.05939559
v 0.03024135 0.02614936 0.05939559
v 0.03053193 0.02578034 0.05939559
v 0.03053193 0.02578154 0.05939559
v 0.02843735 0.02791172 0.06720427
v 0.02872120 0.02767735 0.06720427
v 0.02898183 0.02745584 0.06720427
v 0.02911726 0.02733207 0.06720427
v 0.02911789 0.02733207 0.06720427
v 0.02933349 0.02712947 0.06720427
v 0.02921042 0.02724074 0.06720427
v 0.02748618 0.02859201 0.06720427
v 0.02694197 0.02892118 0.06720427
v 0.02779160 0.02838686 0.06720427
v 0.02779602 0.02838386 0.06720427
v 0.02779287 0.02838603 0.06720427
v 0.02801253 0.02823504 0.06720427
v 0.02688195 0.03050000 0.07154680
v 0.02955774 0.02690015 0.06720427
v 0.02971162 0.02674922 0.06720427
v 0.03299661 0.01860782 0.05942559
v 0.03297001 0.01932429 0.05942559
v 0.03296594 0.01938501 0.05940210
v 0.03295263 0.01949649 0.05939559
v 0.03292893 0.01974884 0.05939559
v 0.03286433 0.02025709 0.05939559
v 0.03281143 0.02056805 0.05939559
v 0.03278422 0.02072033 0.05942559
v 0.03278422 0.02072033 0.05939559
v 0.03273512 0.02099347 0.05939559
v 0.03249414 0.02191979 0.05939559
v 0.03248011 0.02196604 0.05939834
v 0.03246223 0.02202503 0.05939559
v 0.03257361 0.02165765 0.05939559
v 0.03238625 0.02227563 0.05939559
v 0.03300000 0.02317360 0.06720427
v 0.03300000 0.02317973 0.06721292
v 0.03300000 0.02639287 0.07174858
v 0.00377881 0.02849840 0.14530419
v 0.00863753 0.02849840 0.14460739
v 0.01104269 0.03050000 0.14181046
v 0.01484508 0.02849840 0.14283097
v 0.02039821 0.03050000 0.13798156
v 0.01897573 0.02849840 0.14106162
v 0.03291213 -0.00345140 0.07341327
v 0.03298061 -0.00185577 0.07342765
v 0.03298984 -0.00134136 0.07341702
v 0.03299086 -0.00128421 0.07341266
v 0.03299780 -0.00089737 0.07342365
v 0.02845830 0.03050000 0.07299086
v 0.02887823 0.03050000 0.07341266
v 0.02949139 0.03006078 0.07343104
v 0.02987848 0.02978350 0.07341266
v 0.03117169 0.02885715 0.07341266
v 0.03237589 0.02795720 0.07341266
v 0.03253321 0.02784216 0.07341629
v 0.03253321 0.02784216 0.07343882
v 0.03299634 0.02749487 0.07342725
v 0.03300000 0.02749172 0.07342728
v 0.03300000 0.02749213 0.07341266
v 0.03563511 0.03050000 0.08226534
v 0.03793295 0.02849840 0.08225475
v 0.04004878 0.02849840 0.08694629
v 0.03986571 0.03050000 0.09428303
v 0.04168905 0.02849840 0.09205414
v 0.04275590 0.02849752 0.09841449
v 0.04275591 0.02849840 0.09841447
v 0.04289162 0.02849699 0.10497765
v 0.04289163 0.02849840 0.10497770
v 0.02368926 0.02849840 0.13834408
v 0.02916874 0.03050000 0.13107084
v 0.02952435 0.02849840 0.13369577
v 0.03711861 0.03050000 0.11920045
v 0.03754367 0.02849840 0.12338480
v 0.04246973 0.02849840 0.10923083
v 0.04117351 0.02849840 0.11488996
v 0.03988570 0.02849840 0.11850452
v 0.03397590 0.02849840 0.12881018
f 4 301 300
f 4 300 9
f 2 313 1
f 2 1 14
f 2 9 300
f 2 3 9
f 3 10 9
f 3 2 17
f 10 3 16
f 4 6 301
f 6 308 301
f 6 309 308
f 4 9 11
f 4 7 6
f 5 309 6
f 7 11 190
f 4 11 7
f 6 7 191
f 5 6 191
f 8 11 10
f 9 10 11
f 8 10 25
f 8 12 11
f 11 12 195
f 8 26 12
f 1 312 318
f 13 1 318
f 1 13 14
f 14 15 2
f 3 17 16
f 15 17 2
f 16 23 10
f 13 318 312
f 18 21 16
f 16 21 23
f 8 25 26
f 10 23 24
f 10 24 25
f 12 26 27
f 20 103 104
f 20 286 211
f 20 104 284
f 20 284 286
f 24 26 25
f 19 26 24
f 19 20 26
f 23 21 22
f 20 27 26
f 28 71 93
f 28 49 29
f 30 29 49
f 30 31 29
f 28 29 71
f 29 31 71
f 31 75 71
f 34 64 63
f 34 31 30
f 30 64 34
f 31 34 75
f 34 32 75
f 34 33 32
f 41 45 53
f 36 37 39
f 37 38 39
f 40 41 60
f 40 42 278
f 39 40 278
f 36 39 278
f 40 61 42
f 40 60 61
f 61 282 42
f 39 44 40
f 39 43 44
f 40 44 45
f 40 45 41
f 38 43 39
f 53 45 46
f 46 62 53
f 38 47 43
f 47 48 44
f 44 48 45
f 45 48 46
f 43 47 44
f 51 41 50
f 41 51 58
f 56 59 51
f 50 56 51
f 49 56 50
f 49 50 54
f 52 49 54
f 41 54 50
f 41 53 54
f 49 55 56
f 28 55 49
f 28 93 55
f 55 73 59
f 59 73 58
f 55 59 56
f 30 49 52
f 51 57 58
f 51 59 57
f 41 58 60
f 57 59 58
f 60 58 282
f 60 282 61
f 73 282 58
f 52 54 62
f 52 62 64
f 54 53 62
f 64 62 63
f 30 52 64
f 33 34 97
f 35 34 98
f 63 100 34
f 34 35 96
f 62 46 106
f 48 47 105
f 48 102 46
f 62 107 63
f 65 66 89
f 65 72 68
f 65 68 67
f 67 69 66
f 65 67 66
f 67 70 69
f 68 70 67
f 72 77 74
f 71 72 73
f 71 73 93
f 72 74 73
f 71 75 72
f 72 75 76
f 76 68 72
f 77 89 74
f 72 65 77
f 65 89 77
f 89 73 74
f 68 80 78
f 68 78 70
f 70 78 79
f 75 32 76
f 76 32 80
f 68 76 80
f 32 33 80
f 66 82 89
f 66 81 82
f 81 85 82
f 85 89 82
f 81 66 83
f 81 83 88
f 66 69 83
f 69 70 83
f 81 84 85
f 84 371 86
f 84 86 85
f 85 376 89
f 81 87 84
f 81 88 87
f 84 87 371
f 87 373 371
f 89 376 73
f 376 377 282
f 79 83 70
f 79 91 83
f 83 91 88
f 79 90 91
f 87 88 91
f 87 91 92
f 87 92 373
f 92 375 373
f 55 93 73
f 282 73 376
f 379 283 282
f 78 80 110
f 79 78 115
f 33 117 80
f 79 109 90
f 90 124 91
f 91 127 92
f 92 130 375
f 315 412 410
f 414 316 415
f 315 411 412
f 413 411 315
f 316 414 413
f 316 416 415
f 316 423 416
f 316 424 423
f 316 657 424
f 100 63 108
f 99 35 98
f 34 100 98
f 99 96 35
f 97 34 96
f 106 46 101
f 101 46 102
f 47 285 104
f 47 104 103
f 105 47 103
f 48 105 102
f 62 106 107
f 63 107 108
f 20 96 99
f 20 97 96
f 17 15 132
f 133 312 313
f 134 313 314
f 133 13 312
f 317 409 314
f 315 410 317
f 316 413 315
f 13 133 14
f 14 131 15
f 21 132 22
f 132 24 23
f 22 132 23
f 19 24 132
f 19 132 20
f 17 132 16
f 16 132 18
f 18 132 21
f 20 112 114
f 20 118 117
f 20 119 118
f 20 117 97
f 20 110 119
f 20 114 111
f 20 111 110
f 112 20 120
f 120 20 121
f 121 20 122
f 122 20 123
f 15 131 132
f 20 132 123
f 20 107 106
f 20 106 101
f 20 101 102
f 20 98 100
f 20 108 107
f 20 100 108
f 20 99 98
f 20 105 103
f 20 102 105
f 104 285 284
f 79 115 109
f 112 113 78
f 113 115 78
f 114 78 111
f 112 78 114
f 110 111 78
f 80 117 118
f 97 117 33
f 118 119 80
f 110 80 119
f 115 116 109
f 120 109 116
f 109 121 90
f 90 122 123
f 122 90 121
f 90 123 124
f 124 125 91
f 125 126 91
f 91 128 127
f 126 128 91
f 127 129 92
f 92 129 130
f 130 94 375
f 109 120 121
f 115 113 116
f 113 112 120
f 113 120 116
f 133 313 134
f 134 314 135
f 14 133 131
f 135 314 137
f 137 314 136
f 314 95 136
f 407 95 314
f 407 314 409
f 408 409 317
f 317 410 408
f 124 123 132
f 124 133 125
f 125 128 126
f 125 133 128
f 127 128 133
f 129 94 130
f 127 135 129
f 129 135 94
f 135 398 94
f 124 131 133
f 131 124 132
f 127 133 134
f 127 134 135
f 398 135 137
f 137 136 398
f 138 139 140
f 138 280 141
f 141 142 156
f 141 280 142
f 138 143 139
f 138 141 143
f 141 156 143
f 156 144 143
f 144 156 158
f 140 146 276
f 145 281 146
f 149 145 146
f 144 150 143
f 139 150 140
f 139 143 150
f 140 150 146
f 144 158 148
f 144 148 150
f 149 146 150
f 147 149 150
f 147 150 148
f 152 170 176
f 152 176 151
f 153 173 160
f 156 153 159
f 153 155 159
f 153 154 155
f 153 160 154
f 153 156 157
f 142 157 156
f 275 274 182
f 153 157 173
f 182 280 275
f 142 280 182
f 156 159 158
f 160 173 162
f 160 162 163
f 161 163 180
f 162 173 182
f 160 163 161
f 160 165 164
f 160 164 154
f 165 160 161
f 165 161 169
f 164 165 172
f 167 165 169
f 166 171 165
f 165 167 168
f 168 166 165
f 171 170 165
f 165 170 172
f 142 182 157
f 182 173 157
f 159 174 158
f 155 174 159
f 158 174 148
f 164 175 154
f 155 154 174
f 174 154 175
f 147 148 174
f 152 175 164
f 152 164 172
f 152 172 170
f 171 176 170
f 152 151 175
f 145 211 281
f 214 145 149
f 217 149 147
f 151 176 220
f 174 223 147
f 174 175 226
f 175 151 238
f 166 177 171
f 166 168 179
f 171 177 176
f 167 184 168
f 167 169 186
f 166 179 177
f 168 184 179
f 167 186 185
f 167 185 184
f 179 178 177
f 161 180 181
f 162 182 163
f 163 182 180
f 161 181 182
f 180 182 181
f 182 282 705
f 161 182 183
f 712 169 161
f 283 707 705
f 186 169 700
f 700 169 699
f 161 183 712
f 182 712 183
f 182 705 706
f 712 182 706
f 707 187 708
f 176 177 260
f 177 178 261
f 179 265 178
f 179 184 265
f 184 185 267
f 185 186 270
f 186 700 272
f 5 188 333
f 5 191 189
f 5 189 188
f 188 336 333
f 7 190 191
f 11 196 190
f 190 193 191
f 189 191 193
f 188 192 336
f 188 189 199
f 188 199 192
f 189 200 199
f 189 193 200
f 190 200 193
f 190 201 200
f 190 194 201
f 195 12 237
f 195 237 197
f 194 197 231
f 11 195 196
f 195 197 196
f 190 196 194
f 194 196 197
f 198 201 207
f 199 200 202
f 199 202 203
f 199 204 192
f 199 203 204
f 200 201 205
f 200 205 202
f 202 241 203
f 203 242 204
f 198 205 201
f 202 205 243
f 198 243 205
f 194 207 201
f 194 206 207
f 206 208 207
f 194 228 206
f 206 230 208
f 207 208 209
f 198 207 209
f 208 230 209
f 209 229 244
f 211 286 281
f 145 210 211
f 210 145 214
f 217 147 213
f 213 147 222
f 217 216 149
f 214 149 215
f 216 215 149
f 219 151 220
f 220 176 221
f 223 222 147
f 174 224 223
f 225 224 174
f 225 174 226
f 226 175 227
f 175 238 227
f 238 151 232
f 151 237 232
f 230 228 151
f 231 151 228
f 237 151 231
f 229 151 233
f 236 234 151
f 151 235 236
f 233 151 234
f 229 230 151
f 219 235 151
f 12 232 237
f 12 27 232
f 20 214 215
f 20 218 212
f 20 216 218
f 20 215 216
f 20 212 213
f 20 213 222
f 20 211 210
f 20 210 214
f 20 223 224
f 20 224 225
f 20 225 226
f 20 222 223
f 27 226 227
f 27 227 238
f 27 238 232
f 217 213 212
f 216 217 218
f 217 212 218
f 20 226 27
f 197 237 231
f 194 231 228
f 206 228 230
f 209 230 229
f 229 233 244
f 198 239 243
f 198 209 239
f 239 240 243
f 239 247 240
f 239 245 247
f 203 241 242
f 202 243 241
f 250 204 242
f 241 250 242
f 241 243 252
f 241 251 250
f 241 252 251
f 240 252 243
f 209 244 245
f 209 245 239
f 233 246 244
f 244 246 245
f 245 246 257
f 245 257 247
f 234 257 246
f 236 258 257
f 240 248 252
f 240 247 248
f 247 249 248
f 248 249 743
f 248 743 256
f 249 749 743
f 251 255 253
f 250 251 253
f 253 254 250
f 251 252 255
f 204 787 192
f 250 755 204
f 248 256 252
f 253 255 254
f 252 256 255
f 247 257 249
f 249 257 258
f 235 749 258
f 249 258 749
f 221 176 259
f 176 260 259
f 177 261 260
f 178 263 261
f 263 178 264
f 178 265 264
f 265 184 266
f 184 267 266
f 267 185 268
f 185 270 268
f 270 186 271
f 186 272 271
f 700 762 272
f 233 234 246
f 234 236 257
f 235 258 236
f 219 749 235
f 220 221 749
f 219 220 749
f 221 259 749
f 259 260 749
f 260 261 262
f 262 261 263
f 260 262 749
f 262 263 749
f 263 264 749
f 264 265 749
f 265 266 749
f 266 267 749
f 267 268 749
f 268 269 749
f 269 271 749
f 271 272 749
f 749 272 762
f 268 270 269
f 269 270 271
f 273 277 279
f 36 277 273
f 138 273 275
f 273 279 274
f 273 274 275
f 36 273 276
f 36 276 37
f 140 276 273
f 138 140 273
f 36 278 277
f 42 282 278
f 138 275 280
f 277 278 182
f 282 182 278
f 37 276 281
f 47 38 281
f 146 281 276
f 37 281 38
f 277 182 279
f 182 274 279
f 282 283 705
f 47 281 285
f 283 381 187
f 187 381 383
f 187 707 283
f 383 1045 187
f 286 285 281
f 286 284 285
f 287 289 291
f 287 288 289
f 289 290 299
f 290 306 299
f 289 302 291
f 290 307 306
f 288 290 289
f 291 292 294
f 291 298 292
f 292 319 296
f 287 291 293
f 291 294 293
f 292 295 294
f 292 296 295
f 291 297 298
f 291 302 297
f 292 298 319
f 290 657 307
f 299 306 303
f 299 310 302
f 301 304 300
f 299 303 332
f 331 303 304
f 289 299 302
f 305 306 307
f 304 306 305
f 303 306 304
f 2 305 307
f 2 304 305
f 2 300 304
f 2 307 311
f 299 334 310
f 310 334 302
f 301 331 304
f 299 335 333
f 302 334 333
f 299 333 334
f 299 332 335
f 301 308 331
f 331 332 303
f 309 331 308
f 5 331 309
f 2 311 313
f 313 312 1
f 311 314 313
f 311 315 317
f 311 316 315
f 311 317 314
f 296 319 320
f 319 321 320
f 319 322 321
f 319 327 322
f 319 298 327
f 322 327 323
f 322 323 324
f 323 325 324
f 323 326 325
f 323 327 337
f 323 328 326
f 326 328 329
f 323 337 328
f 328 338 329
f 329 338 330
f 287 661 288
f 287 293 661
f 288 663 290
f 290 658 657
f 659 658 290
f 290 660 659
f 293 294 671
f 294 295 672
f 295 296 674
f 307 657 311
f 311 657 316
f 296 320 681
f 320 321 682
f 321 322 683
f 322 324 684
f 324 325 686
f 325 326 687
f 326 329 689
f 329 330 690
f 5 335 331
f 5 333 335
f 331 335 332
f 297 1026 298
f 333 336 1007
f 192 1007 336
f 333 1026 302
f 297 302 1026
f 328 337 338
f 330 338 339
f 327 990 337
f 338 337 342
f 338 343 340
f 338 340 339
f 340 343 341
f 327 298 1026
f 337 990 342
f 338 342 343
f 341 343 344
f 343 345 344
f 342 988 343
f 343 988 989
f 343 989 345
f 330 339 693
f 339 340 694
f 341 694 340
f 344 696 341
f 344 345 696
f 345 989 697
f 346 371 373
f 346 373 375
f 346 350 347
f 348 352 376
f 346 347 348
f 347 349 348
f 348 349 352
f 349 351 352
f 346 375 350
f 347 350 349
f 349 350 351
f 351 362 352
f 352 353 377
f 352 362 354
f 353 352 354
f 353 354 355
f 353 356 357
f 353 357 378
f 355 356 353
f 355 358 356
f 355 364 358
f 356 360 357
f 356 358 359
f 356 359 360
f 357 360 361
f 357 361 365
f 358 364 359
f 360 359 364
f 361 360 364
f 362 355 354
f 355 362 363
f 363 364 355
f 350 375 399
f 350 411 351
f 351 406 362
f 362 420 363
f 364 363 422
f 365 384 357
f 365 367 386
f 361 366 365
f 365 366 369
f 365 369 367
f 369 368 367
f 370 368 369
f 370 391 368
f 361 364 427
f 361 428 366
f 366 429 369
f 370 369 430
f 364 422 427
f 86 371 372
f 346 372 371
f 372 376 86
f 346 374 372
f 85 86 376
f 374 376 372
f 346 348 374
f 348 376 374
f 377 378 282
f 379 282 378
f 381 283 379
f 352 377 376
f 353 378 377
f 357 384 378
f 379 378 380
f 381 379 380
f 380 382 381
f 383 381 382
f 365 385 384
f 365 386 385
f 384 385 386
f 386 387 384
f 367 387 386
f 384 387 390
f 367 368 387
f 368 389 387
f 384 453 378
f 378 453 380
f 388 390 389
f 368 388 389
f 388 392 390
f 387 389 390
f 384 390 443
f 391 388 368
f 388 391 395
f 392 388 395
f 392 394 390
f 394 440 390
f 393 440 394
f 392 393 394
f 392 395 393
f 393 395 396
f 382 380 461
f 384 443 453
f 94 399 375
f 350 399 400
f 400 401 350
f 401 402 350
f 404 351 403
f 351 404 405
f 406 417 362
f 351 405 406
f 350 402 411
f 403 351 411
f 417 418 362
f 418 419 362
f 362 419 420
f 363 420 421
f 421 422 363
f 398 399 94
f 399 401 400
f 399 398 409
f 399 409 401
f 401 409 402
f 404 406 405
f 418 417 406
f 404 418 406
f 403 423 404
f 404 423 418
f 407 398 136
f 407 409 398
f 407 136 95
f 402 409 408
f 408 411 402
f 410 412 408
f 411 408 412
f 403 411 413
f 403 413 414
f 403 414 423
f 414 415 423
f 415 416 423
f 419 422 420
f 418 424 419
f 420 422 421
f 419 426 422
f 418 423 424
f 419 424 426
f 424 425 426
f 424 657 425
f 657 658 425
f 425 658 659
f 426 425 659
f 426 660 422
f 659 660 426
f 660 512 422
f 370 432 391
f 361 427 428
f 366 428 429
f 369 429 430
f 370 430 432
f 391 432 433
f 430 431 432
f 427 498 428
f 428 498 429
f 429 499 430
f 430 500 431
f 431 504 432
f 432 507 433
f 433 508 434
f 434 509 462
f 393 435 440
f 435 438 441
f 391 433 395
f 393 396 435
f 396 397 435
f 397 436 435
f 437 435 436
f 435 439 438
f 435 437 439
f 395 434 396
f 396 434 397
f 397 462 436
f 436 462 437
f 443 390 440
f 435 441 440
f 443 440 441
f 456 380 453
f 438 443 441
f 438 442 443
f 442 444 443
f 443 444 453
f 438 439 445
f 438 445 442
f 395 433 434
f 437 464 439
f 439 465 445
f 397 434 462
f 437 462 464
f 439 464 465
f 444 446 453
f 442 446 444
f 446 449 453
f 442 445 446
f 445 447 446
f 447 448 446
f 448 452 446
f 449 446 452
f 445 466 447
f 447 466 448
f 448 468 452
f 452 450 449
f 451 450 452
f 456 460 380
f 380 460 461
f 449 454 453
f 453 454 456
f 449 456 454
f 450 456 449
f 450 451 456
f 455 456 451
f 455 457 456
f 455 458 457
f 456 457 460
f 457 458 460
f 455 479 458
f 455 451 459
f 452 459 451
f 455 459 479
f 445 465 466
f 448 466 468
f 452 468 469
f 452 469 459
f 471 480 459
f 459 469 471
f 471 472 480
f 472 473 484
f 464 462 463
f 468 466 467
f 473 474 486
f 469 470 471
f 470 472 471
f 459 480 479
f 479 480 484
f 479 484 482
f 472 484 480
f 473 486 484
f 474 616 486
f 458 479 481
f 483 458 481
f 479 482 481
f 481 482 483
f 482 485 483
f 484 486 482
f 483 485 613
f 485 614 613
f 482 486 485
f 614 485 486
f 486 616 614
f 474 475 616
f 475 476 620
f 476 477 623
f 475 620 616
f 476 619 620
f 476 623 619
f 477 478 626
f 478 487 633
f 487 488 635
f 492 493 491
f 492 494 493
f 463 462 515
f 463 516 464
f 464 517 465
f 466 465 518
f 466 520 467
f 467 522 468
f 469 468 526
f 469 526 470
f 470 528 472
f 472 531 473
f 473 532 474
f 474 539 475
f 475 539 476
f 476 542 477
f 477 547 478
f 487 478 567
f 487 569 488
f 488 570 489
f 573 490 489
f 491 490 574
f 576 492 491
f 494 492 578
f 494 581 495
f 495 586 496
f 427 422 497
f 427 497 498
f 429 498 499
f 499 500 430
f 500 501 431
f 431 501 502
f 502 503 431
f 431 503 504
f 422 511 497
f 498 497 500
f 498 500 499
f 503 502 504
f 502 505 504
f 502 506 505
f 497 511 500
f 422 512 511
f 504 505 432
f 505 507 432
f 433 507 508
f 434 508 509
f 462 509 510
f 462 510 513
f 505 506 507
f 509 508 507
f 507 510 509
f 500 511 501
f 501 511 502
f 502 511 506
f 506 511 507
f 507 511 510
f 511 513 510
f 511 517 513
f 513 514 462
f 514 515 462
f 463 515 516
f 516 517 464
f 465 517 518
f 466 518 519
f 519 520 466
f 520 521 467
f 467 521 522
f 523 468 522
f 468 523 524
f 524 525 468
f 525 526 468
f 526 527 470
f 527 528 470
f 528 529 472
f 472 529 530
f 531 472 530
f 473 531 532
f 532 533 474
f 533 535 474
f 474 535 534
f 534 536 474
f 474 536 538
f 474 538 539
f 539 540 476
f 540 541 476
f 476 541 542
f 542 543 477
f 543 544 477
f 477 544 546
f 477 546 547
f 478 547 567
f 487 568 569
f 567 568 487
f 570 488 569
f 570 571 489
f 571 572 489
f 489 572 573
f 490 573 574
f 574 575 491
f 575 576 491
f 576 577 492
f 577 578 492
f 578 579 494
f 579 580 494
f 494 580 581
f 584 495 581
f 495 584 586
f 514 513 515
f 515 513 516
f 513 517 516
f 511 518 517
f 511 519 518
f 511 520 519
f 511 523 520
f 520 523 521
f 521 523 522
f 523 511 524
f 524 511 525
f 511 529 525
f 526 525 527
f 511 548 529
f 511 512 548
f 527 525 529
f 527 529 528
f 529 548 530
f 530 533 531
f 531 533 532
f 534 537 536
f 536 537 538
f 539 538 540
f 530 548 533
f 535 533 548
f 534 535 554
f 534 554 537
f 537 554 538
f 538 554 540
f 540 558 541
f 541 544 542
f 542 544 543
f 544 545 546
f 546 567 547
f 541 558 544
f 544 559 545
f 545 565 546
f 551 512 666
f 560 666 669
f 512 549 548
f 512 550 549
f 512 551 550
f 551 666 552
f 552 666 553
f 553 666 555
f 555 666 556
f 556 666 557
f 666 559 558
f 557 666 558
f 559 666 560
f 560 669 676
f 560 676 678
f 535 548 549
f 549 550 535
f 550 554 535
f 554 555 540
f 540 555 558
f 551 552 550
f 552 554 550
f 553 554 552
f 553 555 554
f 555 556 557
f 555 557 558
f 558 559 544
f 545 559 561
f 561 564 545
f 545 564 565
f 565 587 546
f 561 559 560
f 560 562 561
f 562 563 561
f 561 563 564
f 560 679 562
f 560 678 679
f 562 679 563
f 563 679 564
f 679 565 564
f 565 679 587
f 587 679 588
f 588 679 589
f 590 589 679
f 599 679 680
f 567 546 587
f 568 567 587
f 569 568 590
f 569 571 570
f 569 590 571
f 573 575 574
f 571 591 572
f 572 594 573
f 573 594 575
f 575 594 576
f 576 578 577
f 576 601 578
f 578 601 579
f 579 604 580
f 580 605 582
f 582 581 580
f 582 584 581
f 582 583 584
f 585 584 583
f 585 586 584
f 582 612 583
f 585 583 609
f 585 609 586
f 568 587 588
f 588 589 568
f 568 589 590
f 571 590 591
f 572 591 596
f 572 596 594
f 594 597 576
f 576 597 600
f 591 592 593
f 593 595 591
f 591 595 596
f 597 599 600
f 590 679 591
f 591 679 592
f 592 679 593
f 593 679 595
f 594 596 679
f 596 595 679
f 594 679 597
f 597 679 599
f 566 604 680
f 599 680 600
f 600 680 601
f 602 601 680
f 603 602 680
f 603 680 604
f 566 606 604
f 566 607 606
f 598 612 566
f 576 600 601
f 579 601 602
f 602 604 579
f 604 605 580
f 603 604 602
f 605 604 606
f 606 607 605
f 582 605 612
f 583 612 611
f 583 611 609
f 605 607 612
f 607 608 612
f 610 609 611
f 566 608 607
f 566 612 608
f 610 611 598
f 598 611 612
f 610 598 655
f 382 1089 383
f 382 461 652
f 458 622 460
f 483 622 458
f 613 617 483
f 613 614 615
f 614 618 615
f 617 613 615
f 622 483 617
f 615 618 617
f 616 618 614
f 460 651 461
f 617 618 621
f 619 618 616
f 619 616 620
f 477 626 623
f 621 618 619
f 619 623 621
f 478 625 626
f 488 489 643
f 489 490 644
f 490 491 646
f 478 633 625
f 491 493 640
f 493 494 641
f 494 495 642
f 495 496 639
f 617 621 622
f 621 624 622
f 622 624 628
f 623 626 621
f 624 621 625
f 626 625 621
f 624 630 628
f 487 635 633
f 496 627 645
f 488 634 635
f 488 643 634
f 624 625 630
f 630 625 633
f 489 644 643
f 490 646 644
f 491 640 646
f 493 641 640
f 460 622 648
f 628 630 629
f 629 631 628
f 629 630 631
f 622 628 648
f 631 632 636
f 630 632 631
f 630 633 635
f 494 642 641
f 495 639 642
f 496 645 639
f 632 630 634
f 630 635 634
f 632 634 643
f 648 650 460
f 460 650 651
f 461 651 652
f 631 648 628
f 632 637 636
f 636 648 631
f 637 638 636
f 637 647 638
f 632 643 637
f 640 641 637
f 641 642 637
f 639 637 642
f 644 637 643
f 644 646 637
f 640 637 646
f 496 586 627
f 627 653 645
f 652 1063 382
f 638 648 636
f 647 648 638
f 637 648 647
f 650 648 649
f 1046 648 637
f 649 651 650
f 651 649 652
f 639 1076 637
f 645 1076 639
f 645 653 1076
f 586 653 627
f 586 609 653
f 610 653 609
f 610 654 653
f 610 655 654
f 598 656 655
f 654 656 653
f 654 655 656
f 680 1355 566
f 598 566 1355
f 653 656 1077
f 598 1322 656
f 290 664 660
f 663 288 661
f 290 663 664
f 293 671 661
f 294 672 671
f 295 674 672
f 296 681 674
f 320 682 681
f 321 683 682
f 322 684 683
f 324 686 684
f 325 687 686
f 326 689 687
f 329 690 689
f 330 691 690
f 330 693 691
f 660 664 512
f 671 662 661
f 662 670 663
f 661 662 663
f 662 673 670
f 663 670 665
f 663 665 664
f 664 665 512
f 665 666 512
f 666 665 667
f 665 668 667
f 666 667 669
f 667 668 669
f 665 670 668
f 670 677 668
f 662 671 673
f 671 672 673
f 672 675 673
f 672 674 675
f 674 681 675
f 673 688 670
f 673 675 688
f 668 678 669
f 669 678 676
f 679 677 670
f 668 677 678
f 677 679 678
f 675 681 682
f 682 685 675
f 682 683 685
f 683 684 685
f 684 686 685
f 685 688 675
f 686 688 685
f 686 687 688
f 687 689 688
f 688 689 690
f 688 690 692
f 690 691 692
f 691 693 692
f 339 694 693
f 341 696 694
f 345 697 696
f 680 679 1355
f 670 1368 679
f 670 688 1368
f 692 693 694
f 694 695 692
f 692 1368 688
f 695 694 696
f 696 698 695
f 696 697 698
f 699 169 722
f 700 699 701
f 699 702 701
f 702 699 722
f 705 707 706
f 707 708 706
f 712 721 169
f 721 722 169
f 702 722 703
f 703 722 704
f 704 722 709
f 709 722 710
f 710 722 711
f 713 712 714
f 712 713 718
f 708 880 706
f 714 712 715
f 713 714 718
f 714 715 718
f 718 721 712
f 706 867 712
f 700 701 762
f 701 702 764
f 702 703 767
f 703 704 769
f 704 709 773
f 710 775 709
f 710 711 778
f 711 722 717
f 716 711 717
f 715 719 718
f 718 719 720
f 719 725 720
f 718 720 721
f 722 721 723
f 720 723 721
f 723 720 724
f 715 712 867
f 725 719 729
f 720 725 726
f 720 726 727
f 720 727 724
f 726 730 727
f 726 728 730
f 726 725 729
f 715 867 719
f 726 729 728
f 728 729 735
f 730 728 731
f 717 722 723
f 724 732 723
f 717 723 732
f 724 727 732
f 727 734 732
f 727 730 734
f 734 730 731
f 731 740 734
f 734 733 732
f 734 740 733
f 735 736 728
f 729 828 735
f 735 828 736
f 736 828 738
f 731 728 736
f 736 737 731
f 736 738 737
f 739 737 738
f 731 737 740
f 737 741 740
f 741 737 739
f 739 742 741
f 832 742 739
f 836 835 742
f 716 802 711
f 717 804 716
f 732 812 717
f 732 733 817
f 740 821 733
f 741 823 740
f 742 825 741
f 835 827 742
f 256 743 744
f 743 749 745
f 743 745 744
f 744 745 746
f 744 746 757
f 745 752 746
f 254 755 250
f 254 255 747
f 255 256 747
f 256 744 747
f 254 747 748
f 254 748 755
f 747 756 748
f 744 757 747
f 748 756 755
f 747 757 756
f 755 787 204
f 745 749 750
f 745 750 751
f 745 751 752
f 749 808 750
f 746 754 753
f 746 752 754
f 753 754 785
f 755 756 758
f 757 759 758
f 756 757 758
f 192 787 984
f 746 753 757
f 753 759 757
f 758 783 755
f 758 784 783
f 758 759 782
f 753 781 759
f 751 760 752
f 752 760 761
f 750 805 751
f 751 807 760
f 752 761 754
f 754 761 788
f 760 806 761
f 762 701 764
f 764 702 763
f 702 765 763
f 765 702 766
f 702 767 766
f 767 703 768
f 703 769 768
f 769 704 771
f 704 772 771
f 704 773 772
f 709 774 773
f 774 709 776
f 775 776 709
f 775 710 777
f 777 710 778
f 711 802 778
f 749 762 764
f 749 764 763
f 749 763 765
f 749 765 766
f 749 766 767
f 749 767 768
f 749 768 770
f 749 770 771
f 749 771 772
f 749 772 773
f 749 773 774
f 749 774 776
f 749 776 775
f 749 775 777
f 768 769 770
f 769 771 770
f 749 777 778
f 749 778 801
f 749 801 803
f 749 803 804
f 749 804 808
f 750 808 805
f 751 805 807
f 754 779 785
f 758 782 784
f 759 781 782
f 782 786 784
f 783 787 755
f 783 784 786
f 753 785 781
f 781 792 782
f 782 792 786
f 783 786 787
f 781 785 792
f 779 780 785
f 785 793 792
f 780 793 785
f 754 788 779
f 779 788 789
f 761 809 788
f 788 811 789
f 779 789 780
f 780 789 790
f 780 790 793
f 789 811 790
f 790 810 798
f 786 792 796
f 786 791 787
f 791 984 787
f 786 795 791
f 786 796 795
f 792 793 794
f 792 794 796
f 791 795 984
f 795 839 984
f 794 797 796
f 796 797 841
f 795 796 841
f 790 798 793
f 798 810 799
f 799 813 800
f 793 798 799
f 793 799 794
f 794 799 797
f 797 799 800
f 797 800 840
f 800 814 845
f 716 803 802
f 803 716 804
f 717 808 804
f 717 809 806
f 717 805 808
f 717 807 805
f 717 806 807
f 717 811 809
f 717 813 810
f 717 810 811
f 717 814 813
f 717 812 814
f 732 815 812
f 732 816 815
f 816 732 817
f 733 818 817
f 733 819 818
f 733 820 819
f 821 820 733
f 740 822 821
f 740 823 822
f 741 824 823
f 741 825 824
f 742 826 825
f 827 826 742
f 827 835 837
f 760 807 806
f 761 806 809
f 788 809 811
f 802 801 778
f 801 802 803
f 790 811 810
f 799 810 813
f 800 813 814
f 814 812 845
f 812 851 845
f 812 815 851
f 815 816 851
f 816 817 851
f 817 818 851
f 819 852 818
f 819 820 852
f 820 821 852
f 822 852 821
f 822 823 852
f 823 824 852
f 824 825 852
f 825 826 852
f 827 852 826
f 818 852 851
f 187 1089 708
f 187 1045 1089
f 706 878 867
f 729 719 867
f 706 880 878
f 828 729 829
f 829 729 834
f 738 828 829
f 738 829 830
f 729 867 834
f 829 834 830
f 830 834 865
f 738 830 739
f 830 832 739
f 830 831 832
f 830 833 831
f 830 865 866
f 830 866 833
f 834 867 865
f 836 832 831
f 831 833 836
f 832 836 742
f 833 874 836
f 835 836 838
f 708 1089 880
f 837 835 838
f 838 836 929
f 795 841 839
f 797 840 841
f 841 842 843
f 839 841 843
f 840 842 841
f 839 843 998
f 842 844 843
f 843 844 847
f 843 847 998
f 800 845 840
f 840 846 842
f 840 845 846
f 842 846 844
f 844 846 848
f 844 848 847
f 846 845 852
f 848 846 855
f 847 999 998
f 999 847 1001
f 847 1004 1001
f 847 1005 1004
f 847 848 849
f 847 849 850
f 847 850 1005
f 848 858 849
f 849 862 850
f 845 851 852
f 846 852 853
f 853 854 846
f 846 854 855
f 855 857 848
f 827 837 852
f 837 838 852
f 838 929 852
f 852 929 930
f 852 930 931
f 852 931 932
f 854 856 855
f 855 856 857
f 848 857 858
f 849 858 862
f 850 862 861
f 861 1016 850
f 858 859 860
f 860 862 858
f 863 1016 861
f 864 1016 863
f 866 865 870
f 865 867 868
f 867 877 868
f 868 877 869
f 865 868 870
f 870 868 871
f 868 873 871
f 868 869 872
f 868 872 873
f 869 881 872
f 833 866 874
f 866 870 874
f 871 875 874
f 871 874 870
f 871 873 875
f 873 876 875
f 873 872 876
f 876 872 886
f 867 890 877
f 869 877 879
f 877 890 879
f 879 881 869
f 879 882 881
f 879 890 882
f 882 890 883
f 883 890 884
f 881 885 872
f 881 882 885
f 882 886 885
f 872 885 886
f 883 888 882
f 882 887 886
f 883 884 888
f 882 888 889
f 882 889 887
f 884 890 891
f 884 891 894
f 890 899 891
f 891 899 894
f 884 895 888
f 888 895 889
f 876 886 892
f 886 887 892
f 893 887 889
f 889 895 893
f 887 893 892
f 894 899 901
f 884 896 895
f 894 896 884
f 894 904 896
f 894 901 904
f 896 897 895
f 893 895 897
f 904 897 896
f 898 897 904
f 836 874 929
f 874 875 931
f 875 876 935
f 876 892 936
f 892 893 938
f 898 928 897
f 897 944 893
f 867 878 1083
f 906 899 890
f 878 880 1084
f 1083 890 867
f 899 900 901
f 906 900 899
f 902 900 906
f 900 902 901
f 901 903 904
f 901 902 903
f 902 905 903
f 902 907 905
f 902 906 907
f 906 916 907
f 907 916 908
f 907 909 905
f 907 910 909
f 907 908 910
f 910 908 911
f 898 904 903
f 903 905 898
f 898 905 912
f 905 909 912
f 909 913 912
f 909 910 913
f 910 911 915
f 910 915 913
f 914 912 913
f 913 915 914
f 906 890 1083
f 1078 916 906
f 908 916 917
f 908 917 918
f 1078 917 916
f 918 917 921
f 908 919 911
f 908 918 919
f 919 918 920
f 918 924 920
f 921 917 922
f 1078 922 917
f 921 922 923
f 918 921 923
f 922 1078 923
f 1078 1079 923
f 918 923 924
f 923 1079 925
f 923 925 924
f 1106 925 1079
f 915 911 919
f 915 919 926
f 919 920 926
f 920 924 926
f 924 925 926
f 925 927 926
f 925 1106 927
f 912 950 898
f 914 956 912
f 915 958 914
f 964 915 926
f 926 927 970
f 927 1106 970
f 874 930 929
f 930 874 931
f 875 932 931
f 875 933 932
f 875 934 933
f 875 935 934
f 935 876 936
f 892 937 936
f 937 892 938
f 893 939 938
f 893 940 939
f 940 893 941
f 941 893 942
f 942 893 943
f 943 893 944
f 897 928 945
f 944 897 945
f 946 945 928
f 852 932 933
f 852 933 934
f 852 934 935
f 852 935 936
f 852 936 937
f 852 937 938
f 852 938 939
f 852 939 940
f 852 940 941
f 852 941 943
f 852 943 944
f 852 944 945
f 852 945 946
f 978 853 852
f 853 977 854
f 854 977 856
f 856 977 857
f 857 977 858
f 858 977 859
f 859 976 860
f 860 976 862
f 862 976 861
f 976 863 861
f 863 975 864
f 864 979 1013
f 979 1016 1013
f 979 1015 1016
f 1015 979 1017
f 852 946 947
f 852 947 948
f 852 948 952
f 941 942 943
f 852 952 953
f 852 953 954
f 852 954 959
f 852 959 960
f 852 960 961
f 852 961 965
f 852 965 966
f 852 966 978
f 853 978 977
f 859 977 976
f 863 976 975
f 975 979 864
f 898 949 928
f 949 898 950
f 950 912 951
f 951 912 953
f 912 955 953
f 955 912 956
f 914 957 956
f 914 958 957
f 960 958 915
f 960 915 961
f 915 962 961
f 915 963 962
f 963 915 964
f 928 947 946
f 947 928 949
f 964 926 966
f 926 967 966
f 967 926 968
f 926 969 968
f 926 970 969
f 970 1106 971
f 971 1106 972
f 972 1106 973
f 947 949 948
f 948 949 952
f 949 950 951
f 949 951 952
f 951 953 952
f 953 955 954
f 954 955 959
f 955 956 958
f 955 958 959
f 958 956 957
f 959 958 960
f 961 962 964
f 962 963 964
f 961 964 965
f 979 980 1017
f 982 1017 980
f 981 1017 982
f 983 1017 981
f 983 1134 1017
f 1134 1135 1017
f 1135 1136 1017
f 964 966 965
f 978 966 967
f 968 982 967
f 969 970 971
f 969 971 972
f 968 969 982
f 969 972 982
f 972 973 974
f 972 974 981
f 978 967 977
f 976 977 967
f 975 976 967
f 967 980 975
f 975 980 979
f 982 980 967
f 972 981 982
f 981 974 983
f 973 1106 1123
f 1017 1136 1137
f 1017 1137 1138
f 1017 1138 1139
f 1017 1139 1140
f 1017 1140 1141
f 1017 1141 1142
f 1017 1142 1143
f 1017 1143 1148
f 973 1124 974
f 983 974 1124
f 1148 1149 1017
f 1149 1349 1017
f 1007 192 984
f 1007 1026 333
f 985 987 986
f 839 985 984
f 839 987 985
f 1026 990 327
f 342 990 988
f 988 991 989
f 988 990 992
f 988 992 991
f 991 992 993
f 1034 990 1026
f 992 990 1034
f 992 994 995
f 992 995 993
f 992 1034 994
f 994 996 995
f 994 1035 996
f 989 991 1343
f 991 993 1344
f 993 995 1346
f 996 1348 995
f 839 997 987
f 987 1001 986
f 985 986 1006
f 987 997 1001
f 839 998 997
f 985 1007 984
f 1001 1000 986
f 986 1000 1006
f 997 998 999
f 997 999 1001
f 985 1006 1007
f 1000 1001 1002
f 1002 1001 1004
f 1002 1004 1003
f 1000 1002 1006
f 1002 1003 1006
f 1004 1008 1003
f 1008 1004 1005
f 1006 1003 1009
f 1008 1005 850
f 1003 1008 1009
f 1008 850 1010
f 850 1011 1010
f 1008 1010 1009
f 1010 1011 1009
f 850 1012 1011
f 1012 850 1014
f 850 1016 1015
f 850 1015 1014
f 864 1013 1016
f 1015 1017 1014
f 1006 1009 1019
f 1006 1019 1020
f 1006 1018 1007
f 1007 1018 1023
f 1006 1020 1018
f 1011 1019 1009
f 1012 1019 1011
f 1018 1020 1021
f 1018 1021 1022
f 1023 1024 1007
f 1024 1026 1007
f 1023 1025 1024
f 1022 1025 1023
f 1025 1027 1024
f 1018 1022 1023
f 1024 1039 1026
f 1027 1039 1024
f 1022 1027 1025
f 1038 1039 1027
f 1027 1031 1038
f 1022 1028 1027
f 1027 1028 1029
f 1027 1029 1030
f 1027 1030 1031
f 1012 1350 1019
f 1019 1351 1020
f 1026 1032 1034
f 1032 1033 1034
f 1032 1037 1033
f 994 1034 1036
f 994 1036 1035
f 1034 1033 1036
f 1033 1044 1036
f 1026 1039 1032
f 1032 1039 1038
f 1032 1038 1037
f 1033 1037 1043
f 1033 1043 1040
f 1037 1038 1041
f 1037 1041 1042
f 1031 1041 1038
f 1037 1042 1043
f 1033 1040 1044
f 1014 1349 1012
f 1017 1349 1014
f 1012 1349 1350
f 1019 1350 1351
f 1352 1020 1351
f 1352 1353 1020
f 1020 1366 1021
f 1021 1367 1022
f 1022 1369 1028
f 1028 1370 1029
f 1029 1372 1030
f 1030 1372 1031
f 996 1035 1374
f 1035 1036 1374
f 1036 1044 1376
f 1040 1043 1378
f 1031 1379 1041
f 1041 1380 1042
f 1042 1381 1043
f 1040 1382 1044
f 1045 383 1089
f 382 1090 1089
f 382 1063 1090
f 648 1069 649
f 1046 637 1051
f 1063 652 649
f 648 1046 1047
f 1047 1048 648
f 1051 637 1052
f 1052 637 1053
f 648 1048 1069
f 637 1076 1053
f 1069 1062 649
f 1051 1047 1046
f 1063 649 1062
f 1048 1047 1051
f 1048 1051 1049
f 1049 1056 1050
f 1049 1051 1056
f 1052 1056 1051
f 1049 1050 1069
f 1069 1050 1054
f 1048 1049 1069
f 1050 1056 1055
f 1050 1055 1054
f 1055 1056 1057
f 1054 1055 1057
f 1052 1058 1056
f 1056 1058 1059
f 1056 1059 1057
f 1069 1061 1065
f 1069 1175 1062
f 1069 1065 1176
f 1064 1061 1074
f 1065 1061 1064
f 1175 1069 1176
f 1065 1064 1066
f 1064 1074 1066
f 1066 1074 1068
f 1054 1072 1069
f 1061 1069 1070
f 1069 1072 1070
f 1071 1072 1073
f 1071 1070 1072
f 1054 1057 1072
f 1060 1073 1072
f 1057 1059 1072
f 1059 1060 1072
f 1052 1053 1199
f 1052 1199 1058
f 1058 1198 1059
f 1053 1076 1190
f 1061 1070 1074
f 1070 1071 1075
f 1070 1075 1074
f 1068 1074 1075
f 1073 1211 1071
f 1060 1059 1198
f 1060 1210 1073
f 1053 1190 1191
f 1053 1191 1192
f 1053 1192 1194
f 1053 1194 1195
f 1053 1195 1196
f 1053 1197 1199
f 1053 1196 1197
f 1076 1077 1190
f 653 1077 1076
f 1355 1322 598
f 1077 656 1272
f 1272 656 1322
f 1084 1091 878
f 1083 878 1087
f 1087 878 1091
f 880 1088 1084
f 880 1089 1088
f 906 1083 1078
f 1078 1080 1079
f 1079 1080 1104
f 1080 1078 1081
f 1080 1081 1104
f 1083 1081 1078
f 1081 1105 1104
f 1081 1082 1105
f 1083 1082 1081
f 1083 1109 1082
f 1091 1084 1085
f 1084 1090 1085
f 1083 1087 1086
f 1083 1086 1110
f 1086 1087 1110
f 1111 1087 1091
f 1084 1088 1090
f 1088 1089 1090
f 1063 1085 1090
f 1091 1092 1117
f 1092 1094 1093
f 1092 1093 1119
f 1093 1120 1119
f 1093 1094 1120
f 1062 1091 1085
f 1091 1062 1092
f 1062 1094 1092
f 1094 1095 1096
f 1094 1096 1120
f 1095 1099 1096
f 1096 1097 1120
f 1096 1099 1097
f 1099 1101 1097
f 1095 1098 1099
f 1158 1100 1098
f 1098 1100 1099
f 1099 1100 1101
f 1101 1100 1102
f 1100 1103 1102
f 1106 1079 1104
f 1107 1104 1105
f 1082 1109 1105
f 1105 1109 1108
f 1104 1107 1106
f 1105 1108 1107
f 1114 1108 1109
f 1083 1110 1109
f 1109 1110 1114
f 1087 1111 1110
f 1111 1112 1110
f 1110 1112 1116
f 1112 1111 1118
f 1116 1112 1113
f 1112 1118 1113
f 1110 1115 1114
f 1110 1116 1115
f 1107 1125 1106
f 1107 1108 1129
f 1108 1114 1133
f 1114 1115 1144
f 1116 1147 1115
f 1091 1117 1111
f 1092 1119 1117
f 1111 1117 1118
f 1117 1119 1118
f 1118 1119 1121
f 1119 1122 1121
f 1120 1122 1119
f 1120 1097 1122
f 1113 1215 1116
f 1118 1217 1113
f 1118 1121 1218
f 1121 1122 1220
f 1124 1123 1106
f 1125 1124 1106
f 1107 1126 1125
f 1107 1127 1126
f 1127 1107 1128
f 1107 1129 1128
f 1108 1130 1129
f 1108 1131 1130
f 1131 1108 1132
f 1132 1108 1133
f 1133 1114 1144
f 1115 1145 1144
f 1115 1146 1145
f 1115 1147 1146
f 1123 1124 973
f 1124 1125 1134
f 1125 1126 1128
f 1126 1127 1128
f 1125 1128 1137
f 1129 1140 1128
f 1130 1131 1129
f 1129 1131 1132
f 1129 1132 1140
f 1132 1133 1142
f 1133 1144 1148
f 1124 1134 983
f 1134 1125 1136
f 1125 1137 1136
f 1135 1134 1136
f 1128 1139 1137
f 1128 1140 1139
f 1137 1139 1138
f 1132 1141 1140
f 1132 1142 1141
f 1142 1133 1143
f 1133 1148 1143
f 1145 1149 1144
f 1145 1146 1147
f 1145 1147 1152
f 1144 1149 1148
f 1149 1145 1151
f 1149 1151 1150
f 1145 1152 1151
f 1149 1150 1350
f 1349 1149 1350
f 1151 1352 1150
f 1152 1352 1151
f 1350 1150 1352
f 1352 1152 1353
f 1116 1325 1147
f 1364 1152 1147
f 1152 1364 1353
f 1062 1085 1063
f 1062 1095 1094
f 1062 1098 1095
f 1062 1158 1098
f 1158 1062 1159
f 1062 1154 1153
f 1154 1062 1155
f 1177 1178 1155
f 1062 1160 1159
f 1062 1161 1160
f 1153 1154 1171
f 1062 1153 1161
f 1154 1155 1156
f 1155 1187 1156
f 1154 1156 1171
f 1156 1172 1171
f 1156 1157 1172
f 1156 1188 1157
f 1158 1159 1164
f 1160 1161 1162
f 1159 1160 1166
f 1160 1162 1166
f 1168 1166 1162
f 1162 1163 1168
f 1100 1158 1164
f 1159 1166 1164
f 1165 1103 1100
f 1164 1165 1100
f 1167 1165 1166
f 1164 1166 1165
f 1101 1225 1097
f 1166 1168 1167
f 1103 1226 1102
f 1101 1102 1226
f 1103 1165 1200
f 1153 1169 1161
f 1161 1169 1162
f 1169 1153 1171
f 1169 1171 1174
f 1169 1174 1170
f 1169 1163 1162
f 1169 1170 1163
f 1172 1174 1171
f 1163 1170 1203
f 1172 1206 1174
f 1172 1173 1206
f 1170 1174 1206
f 1167 1168 1204
f 1167 1204 1165
f 1168 1163 1205
f 1101 1226 1225
f 1165 1204 1200
f 1103 1200 1226
f 1168 1205 1204
f 1062 1175 1155
f 1175 1176 1180
f 1176 1184 1181
f 1175 1177 1155
f 1177 1179 1178
f 1155 1178 1187
f 1178 1179 1187
f 1177 1175 1179
f 1175 1180 1179
f 1176 1181 1180
f 1183 1181 1184
f 1179 1180 1183
f 1180 1181 1183
f 1182 1179 1183
f 1065 1184 1176
f 1065 1066 1184
f 1184 1067 1186
f 1184 1186 1185
f 1066 1068 1184
f 1067 1184 1068
f 1184 1185 1183
f 1179 1189 1187
f 1156 1187 1188
f 1188 1187 1189
f 1179 1182 1189
f 1188 1189 1214
f 1067 1208 1186
f 1185 1186 1209
f 1185 1209 1183
f 1182 1183 1209
f 1189 1182 1213
f 1071 1212 1075
f 1068 1075 1207
f 1067 1068 1207
f 1058 1199 1198
f 1060 1198 1210
f 1073 1210 1211
f 1071 1211 1212
f 1067 1207 1208
f 1075 1212 1207
f 1194 1192 1193
f 1193 1195 1194
f 1172 1157 1201
f 1157 1188 1214
f 1173 1172 1201
f 1182 1209 1213
f 1157 1214 1201
f 1189 1213 1214
f 1163 1203 1205
f 1170 1206 1203
f 1173 1201 1206
f 1203 1202 1205
f 1202 1203 1206
f 1186 1208 1209
f 1190 1227 1191
f 1192 1191 1231
f 1192 1233 1193
f 1193 1238 1195
f 1195 1241 1196
f 1197 1196 1244
f 1198 1300 1210
f 1197 1246 1199
f 1198 1199 1251
f 1275 1200 1204
f 1201 1276 1206
f 1202 1277 1205
f 1204 1205 1279
f 1202 1206 1285
f 1207 1212 1288
f 1208 1207 1292
f 1209 1208 1297
f 1210 1301 1211
f 1212 1211 1302
f 1209 1303 1213
f 1214 1213 1305
f 1214 1306 1201
f 1122 1097 1223
f 1113 1216 1215
f 1113 1217 1216
f 1121 1220 1218
f 1118 1218 1217
f 1122 1222 1220
f 1122 1223 1222
f 1097 1224 1223
f 1097 1225 1224
f 1218 1219 1217
f 1222 1221 1220
f 1221 1222 1223
f 1219 1218 1220
f 1116 1215 1325
f 1216 1325 1215
f 1217 1325 1216
f 1217 1219 1326
f 1220 1221 1330
f 1223 1334 1221
f 1219 1220 1329
f 1223 1224 1334
f 1225 1338 1224
f 1226 1338 1225
f 1200 1273 1226
f 1191 1227 1228
f 1228 1230 1191
f 1229 1191 1230
f 1231 1191 1229
f 1232 1192 1231
f 1232 1233 1192
f 1233 1234 1193
f 1234 1235 1193
f 1235 1236 1193
f 1238 1237 1195
f 1193 1236 1238
f 1195 1237 1239
f 1196 1240 1244
f 1195 1242 1241
f 1242 1195 1239
f 1196 1241 1240
f 1243 1197 1244
f 1243 1245 1197
f 1197 1245 1246
f 1198 1251 1247
f 1247 1249 1198
f 1198 1249 1248
f 1198 1248 1300
f 1251 1199 1250
f 1190 1252 1227
f 1190 1077 1252
f 1199 1246 1270
f 1199 1270 1250
f 1273 1200 1275
f 1275 1204 1274
f 1204 1279 1274
f 1276 1201 1308
f 1205 1278 1279
f 1205 1280 1278
f 1205 1281 1280
f 1205 1282 1281
f 1277 1282 1205
f 1286 1206 1284
f 1206 1286 1285
f 1202 1285 1277
f 1284 1206 1276
f 1287 1288 1212
f 1207 1289 1290
f 1290 1292 1207
f 1288 1289 1207
f 1208 1292 1293
f 1208 1293 1297
f 1294 1209 1297
f 1209 1295 1296
f 1294 1295 1209
f 1298 1211 1301
f 1299 1211 1298
f 1210 1300 1301
f 1299 1302 1211
f 1287 1212 1302
f 1305 1306 1214
f 1209 1296 1303
f 1305 1213 1304
f 1304 1213 1303
f 1306 1308 1201
f 1230 1228 1227
f 1234 1231 1229
f 1227 1254 1230
f 1230 1254 1229
f 1229 1254 1234
f 1231 1234 1232
f 1234 1233 1232
f 1236 1237 1238
f 1242 1239 1237
f 1234 1255 1235
f 1257 1236 1235
f 1236 1261 1237
f 1242 1237 1261
f 1241 1243 1240
f 1240 1243 1244
f 1243 1263 1245
f 1241 1242 1263
f 1243 1241 1263
f 1245 1262 1246
f 1247 1251 1249
f 1249 1266 1248
f 1249 1251 1250
f 1250 1270 1249
f 1252 1254 1227
f 1252 1253 1254
f 1234 1254 1255
f 1255 1256 1235
f 1235 1256 1258
f 1258 1257 1235
f 1257 1261 1236
f 1257 1259 1261
f 1261 1259 1260
f 1077 1272 1252
f 1252 1322 1253
f 1253 1322 1254
f 1254 1322 1255
f 1242 1261 1263
f 1245 1263 1262
f 1246 1262 1269
f 1262 1264 1265
f 1262 1265 1269
f 1249 1270 1266
f 1248 1266 1267
f 1271 1266 1270
f 1271 1268 1266
f 1270 1246 1269
f 1255 1322 1256
f 1252 1272 1322
f 1354 1257 1258
f 1354 1259 1257
f 1256 1354 1258
f 1259 1354 1260
f 1354 1263 1261
f 1262 1263 1354
f 1262 1354 1264
f 1261 1260 1354
f 1270 1269 1355
f 1265 1264 1355
f 1269 1265 1355
f 1256 1322 1354
f 1284 1276 1308
f 1284 1308 1307
f 1282 1277 1285
f 1274 1279 1278
f 1280 1340 1278
f 1282 1340 1281
f 1280 1281 1340
f 1286 1283 1340
f 1283 1284 1340
f 1282 1286 1340
f 1283 1286 1284
f 1282 1285 1286
f 1340 1307 1304
f 1284 1307 1340
f 1324 1341 1340
f 1340 1304 1324
f 1324 1342 1341
f 1291 1297 1293
f 1296 1295 1303
f 1291 1293 1292
f 1320 1288 1287
f 1292 1290 1312
f 1312 1290 1289
f 1288 1312 1289
f 1292 1312 1291
f 1291 1312 1297
f 1295 1294 1324
f 1297 1312 1294
f 1248 1301 1300
f 1248 1298 1301
f 1299 1287 1302
f 1267 1298 1248
f 1267 1299 1298
f 1299 1320 1287
f 1307 1305 1304
f 1306 1307 1308
f 1307 1306 1305
f 1295 1324 1303
f 1304 1303 1324
f 1288 1319 1309
f 1310 1311 1288
f 1288 1309 1310
f 1315 1323 1294
f 1294 1323 1324
f 1294 1312 1315
f 1288 1311 1312
f 1315 1312 1313
f 1311 1313 1312
f 1314 1323 1315
f 1299 1317 1318
f 1267 1317 1299
f 1318 1320 1299
f 1320 1319 1288
f 1318 1317 1316
f 1319 1321 1309
f 1318 1355 1320
f 1319 1320 1355
f 1316 1355 1318
f 1270 1355 1271
f 1266 1268 1355
f 1271 1355 1268
f 1266 1355 1267
f 1317 1267 1355
f 1317 1355 1316
f 1264 1354 1355
f 1322 1355 1354
f 1321 1319 1355
f 1321 1355 1357
f 1314 1342 1323
f 1323 1342 1324
f 1309 1321 1364
f 1309 1364 1310
f 1315 1364 1314
f 1315 1313 1364
f 1311 1364 1313
f 1310 1364 1311
f 1321 1359 1364
f 1314 1364 1342
f 1321 1357 1358
f 1358 1359 1321
f 1325 1217 1326
f 1219 1327 1326
f 1219 1328 1327
f 1219 1329 1328
f 1330 1221 1331
f 1221 1333 1331
f 1221 1334 1333
f 1220 1330 1329
f 1147 1325 1340
f 1147 1340 1341
f 1333 1332 1331
f 1329 1330 1328
f 1328 1331 1327
f 1331 1328 1330
f 1325 1326 1340
f 1326 1327 1340
f 1364 1147 1341
f 1338 1334 1224
f 1226 1335 1338
f 1226 1337 1336
f 1226 1336 1335
f 1226 1273 1339
f 1226 1339 1337
f 1333 1334 1338
f 1333 1338 1335
f 1331 1332 1340
f 1333 1340 1332
f 1333 1335 1340
f 1331 1340 1327
f 1337 1339 1275
f 1275 1339 1273
f 1335 1336 1340
f 1336 1337 1340
f 1275 1340 1337
f 1274 1340 1275
f 1278 1340 1274
f 1341 1342 1364
f 697 989 1343
f 991 1344 1343
f 993 1346 1344
f 995 1348 1346
f 996 1374 1348
f 1365 1355 679
f 679 1368 1365
f 692 695 1368
f 1368 695 698
f 697 1343 698
f 698 1343 1345
f 1343 1344 1345
f 1345 1347 698
f 1347 1368 698
f 1344 1346 1345
f 1345 1346 1348
f 1345 1348 1347
f 1347 1348 1374
f 1020 1353 1366
f 1350 1352 1351
f 1021 1366 1367
f 1022 1367 1369
f 1028 1369 1371
f 1028 1371 1370
f 1370 1372 1029
f 1031 1372 1379
f 1036 1376 1374
f 1044 1382 1376
f 1040 1378 1382
f 1041 1379 1380
f 1042 1380 1381
f 1043 1381 1378
f 1355 1356 1357
f 1356 1361 1357
f 1357 1359 1358
f 1357 1361 1359
f 1355 1365 1356
f 1353 1364 1363
f 1363 1366 1353
f 1360 1359 1361
f 1360 1361 1362
f 1360 1364 1359
f 1360 1362 1364
f 1363 1364 1362
f 1356 1365 1361
f 1363 1362 1365
f 1361 1365 1362
f 1363 1365 1366
f 1365 1367 1366
f 1365 1368 1367
f 1367 1368 1369
f 1368 1371 1369
f 1368 1373 1371
f 1368 1377 1379
f 1370 1371 1372
f 1368 1379 1373
f 1371 1373 1372
f 1372 1373 1379
f 1347 1375 1368
f 1375 1347 1374
f 1374 1376 1375
f 1375 1376 1382
f 1375 1377 1368
f 1375 1382 1377
f 1377 1382 1378
f 1377 1380 1379
f 1377 1381 1380
f 1377 1378 1381
