# https://github.com/mikedh/trimesh

o collision
v -0.03556674 -0.02665113 -0.03022244
v -0.04179976 -0.00473637 -0.03338277
v -0.04097275 -0.01285683 -0.03283088
v -0.03688777 -0.02180448 -0.03281254
v -0.03340781 -0.00405287 -0.03867472
v -0.04120779 -0.01618113 -0.03059605
v -0.04120779 -0.01618113 -0.02662794
v -0.04108592 -0.01343936 -0.02459953
v -0.04376717 -0.00767620 -0.03023950
v -0.04376717 -0.00767620 -0.02717897
v -0.03842644 -0.02211322 -0.02762679
v -0.03812611 -0.02099671 -0.02468142
v -0.03179297 -0.02837153 -0.03304243
v -0.02671994 -0.03347061 -0.03282150
v -0.03166239 -0.03093855 -0.03054317
v -0.03300737 -0.02957154 -0.02672689
v -0.03094856 -0.03022009 -0.02487846
v -0.02745336 -0.03489975 -0.03034186
v -0.02745336 -0.03489975 -0.02700838
v -0.03064822 -0.01429374 -0.03862610
v -0.02759265 -0.02015399 -0.03844526
v -0.02698110 -0.01395199 -0.03962772
v -0.04324049 0.00277826 -0.03218688
v -0.04182588 0.00346176 -0.03340324
v -0.04087699 0.01398613 -0.03269782
v -0.03339258 0.00551227 -0.03867174
v -0.04422637 -0.00166450 -0.02981770
v -0.04383681 0.00681713 -0.03040669
v -0.04383681 0.00681713 -0.02690602
v -0.04339284 -0.00063924 -0.02473942
v -0.04101627 0.01717839 -0.03018320
v -0.04101627 0.01717839 -0.02727621
v -0.04103369 0.01452983 -0.02462341
v -0.03005626 0.00072776 -0.03966504
v -0.03048827 0.03488410 -0.03872871
v -0.03048895 0.03488474 -0.03872689
v -0.03048537 0.03486935 -0.03873182
v -0.03048732 0.03489935 -0.03873120
v -0.03116322 0.03488993 -0.03695102
v -0.03116875 0.03488591 -0.03692850
v -0.03123246 0.03486506 -0.03642977
v -0.03123246 0.03489506 -0.03642977
v -0.02868952 0.03489506 -0.03939549
v -0.02869686 0.03487574 -0.03939344
v -0.02869270 0.03489506 -0.03939498
v -0.02862026 0.03489506 -0.03940677
v -0.02859030 0.03489506 -0.03940677
v -0.03170218 0.03489506 -0.03287341
v -0.02595935 0.03489506 -0.03983992
v -0.02322600 0.03489506 -0.04020528
v -0.03198922 0.03486506 -0.02930391
v -0.03198922 0.03489506 -0.02930391
v -0.03203645 0.03488701 -0.02875254
v -0.03203709 0.03488575 -0.02875111
v -0.03203635 0.03488149 -0.02874403
v -0.03203709 0.03491575 -0.02874226
v -0.03200537 0.03489506 -0.02865156
v -0.03200537 0.03486506 -0.02865156
v -0.03126039 0.03489506 -0.02601789
v -0.03025962 0.03489506 -0.02460571
v -0.03024417 0.03487260 -0.02457940
v -0.03024417 0.03490260 -0.02457940
v -0.03024397 0.03487270 -0.02457906
v -0.03023914 0.03489862 -0.02457547
v -0.03023167 0.03489668 -0.02457507
v -0.03024070 0.03490079 -0.02457559
v -0.02853302 0.03876381 -0.02308782
v -0.02633140 0.03746251 -0.02308782
v -0.02502765 0.03719003 -0.02311150
v -0.02502765 0.03719003 -0.02308150
v -0.02493606 0.03713861 -0.02308150
v -0.02516994 0.03726413 -0.02308782
v -0.02432525 0.03707532 -0.02311150
v -0.02432525 0.03707532 -0.02308150
v -0.02341505 0.03697753 -0.02308782
v -0.03311889 0.03879192 -0.00716424
v -0.01980572 -0.02454626 -0.03938952
v -0.02186454 -0.02659676 -0.03831732
v -0.01693732 -0.02964922 -0.03847768
v -0.01591009 -0.04008038 -0.03264834
v -0.01228867 -0.02796376 -0.03964798
v -0.01902660 -0.04022018 -0.02875018
v -0.02194288 -0.03757162 -0.02462341
v -0.01416031 -0.04183573 -0.03053293
v -0.01107862 -0.04303963 -0.02717897
v -0.01649334 -0.04029786 -0.02462683
v -0.01166668 -0.03753300 -0.02449787
v -0.01160965 -0.03753278 -0.02449717
v -0.01365540 -0.01497724 -0.04058072
v -0.00894473 -0.03948231 -0.03450339
v -0.00613834 -0.04272312 -0.03247476
v -0.00545498 -0.03301623 -0.03881291
v 0.00000327 -0.03784007 -0.03615952
v 0.00000327 -0.03069777 -0.03963945
v -0.00606435 -0.04304740 -0.02461318
v -0.00340922 -0.04420080 -0.02875018
v -0.00067575 -0.01192939 -0.04104139
v -0.01788402 -0.00080721 -0.04079504
v -0.02185583 0.02328330 -0.04054234
v -0.01912599 0.03489506 -0.04065835
v -0.01479129 0.03489506 -0.04103275
v -0.02188390 0.03486525 -0.02418222
v -0.02188390 0.03489525 -0.02418222
v -0.02185933 0.03489506 -0.02418117
v -0.02206637 0.03675727 -0.02308782
v -0.02127863 0.03675127 -0.02308782
v -0.02089721 0.03671088 -0.02311150
v -0.02085441 0.03670678 -0.02308150
v -0.02049262 0.03666803 -0.02308150
v -0.00477161 0.00363264 -0.04144779
v -0.01092595 0.03489506 -0.04127241
v -0.00989361 0.03489506 -0.04131211
v -0.00986262 0.03489506 -0.04131410
v -0.00955519 0.03489506 -0.04134543
v -0.00874065 0.03489506 -0.04135809
v -0.00873684 0.03489506 -0.04135817
v -0.00545926 0.03489506 -0.04148674
v 0.00000398 0.03489506 -0.04156360
v -0.03347599 0.03857344 0.00063803
v -0.03190658 0.03874781 0.01091838
v -0.02800792 0.03796842 0.01361601
v -0.02769951 0.03880243 0.01960669
v -0.02186014 0.03789489 0.02181471
v -0.01645091 0.03898729 0.03004341
v -0.00956053 0.03781926 0.02864722
v -0.00595709 0.03871209 0.03320222
v -0.03380737 0.04581159 -0.02308782
v -0.03443048 0.04852109 -0.02308782
v -0.03443798 0.04854785 -0.02309818
v -0.03444239 0.04857288 -0.02308782
v -0.03443048 0.04852109 -0.02305782
v -0.03444381 0.04857525 -0.02308150
v -0.03444161 0.04856842 -0.02307928
v -0.03074961 0.04075208 -0.02308782
v -0.02966423 0.03977309 -0.02308782
v -0.02964567 0.03975044 -0.02308945
v -0.02962262 0.03973556 -0.02308782
v -0.02966423 0.03977309 -0.02305782
v -0.02964567 0.03975044 -0.02305945
v -0.03996260 0.04857525 -0.01098009
v -0.03817711 0.04857525 -0.01624583
v -0.03685828 0.04454176 -0.01633111
v -0.04104201 0.04706269 -0.00578384
v -0.04104201 0.04706273 -0.00578384
v -0.03732798 0.04266471 -0.00956020
v -0.03749487 0.04177660 -0.00158222
v -0.03524204 0.11989252 -0.02308782
v -0.03524306 0.11989052 -0.02308782
v -0.03523924 0.11989803 -0.02308143
v -0.03524703 0.11987004 -0.02308150
v -0.03524728 0.11989252 -0.02308150
v -0.03523378 0.11990874 -0.02308782
v -0.03523378 0.11990874 -0.02305782
v -0.03434575 0.12165277 -0.02308782
v -0.02841660 0.11962897 -0.03645405
v -0.03049422 0.11962897 -0.03381155
v -0.03038378 0.12136121 -0.03351492
v -0.02978327 0.11962897 -0.03517711
v -0.02798865 0.12132690 -0.03595304
v -0.02881694 0.12171280 -0.03434331
v -0.02869270 0.12239883 -0.03148376
v -0.02735364 0.11564996 -0.03833328
v -0.02595935 0.11416642 -0.03869864
v -0.02677383 0.11746795 -0.03819763
v -0.02590413 0.11947460 -0.03770386
v -0.02495160 0.11846270 -0.03839116
v -0.02322600 0.11416642 -0.03924848
v -0.02595935 0.12155844 -0.03627318
v -0.02595935 0.12231308 -0.03421670
v -0.03211628 0.12161418 -0.02875083
v -0.03302049 0.12128402 -0.02789713
v -0.03142604 0.12233881 -0.02601789
v -0.03143786 0.12249552 -0.02308782
v -0.03142604 0.12250174 -0.02308782
v -0.03143786 0.12249552 -0.02305782
v -0.02732603 0.12249316 -0.03011730
v -0.03871275 0.11963201 -0.01488754
v -0.03995043 0.11826652 -0.01098009
v -0.04104202 0.12106895 -0.00577746
v -0.04104201 0.12106895 -0.00577752
v -0.04143969 0.11963201 -0.00141204
v -0.03689480 0.12249748 -0.00961232
v -0.01912599 0.11143085 -0.03998914
v -0.02185933 0.11690198 -0.03924758
v -0.01912599 0.11416642 -0.03994482
v -0.01701903 0.11965469 -0.03920552
v -0.01920191 0.12100961 -0.03832785
v -0.01775931 0.12249316 -0.03421670
v -0.01151265 0.11143085 -0.04095589
v -0.01639264 0.11690198 -0.04010037
v -0.01502597 0.11416642 -0.04052541
v -0.01229262 0.11690198 -0.04058691
v -0.01365929 0.12134405 -0.03866970
v -0.01297596 0.12211155 -0.03694963
v -0.00809597 0.11143085 -0.04122086
v -0.00856533 0.11576144 -0.04108068
v -0.01092595 0.11962897 -0.03989870
v -0.00545926 0.11769520 -0.04096854
v -0.00545926 0.11962897 -0.04025592
v -0.00750927 0.12152414 -0.03891297
v -0.00409258 0.11143085 -0.04141891
v -0.00135924 0.11143085 -0.04149126
v -0.00272591 0.11416642 -0.04141077
v -0.00272764 0.12232166 -0.03694963
v 0.00000398 0.11817114 -0.04103547
v -0.04063013 0.04528963 0.00200421
v -0.04145591 0.04857645 0.00132356
v -0.04145592 0.04857525 0.00132349
v -0.04099737 0.04781057 0.00613752
v -0.03784233 0.04264160 0.00712781
v -0.03999101 0.04857525 0.01088206
v -0.03818522 0.04460898 0.01339015
v -0.03820146 0.04857525 0.01618886
v -0.03555568 0.04444092 0.01913287
v -0.03540960 0.04857525 0.02162202
v -0.03312092 0.04857525 0.02497668
v -0.02903457 0.04150403 0.02358996
v -0.02860038 0.04459218 0.02855877
v -0.02826560 0.04857525 0.03029612
v -0.03962985 0.12207733 -0.00004428
v -0.04104201 0.12107735 0.00571424
v -0.03934985 0.11894926 0.01285000
v -0.03874522 0.12151012 0.01333329
v -0.03484351 0.12241765 0.01566608
v -0.03578673 0.11958602 0.02093385
v -0.03578698 0.11963201 0.02093340
v -0.03448438 0.12134206 0.02234223
v -0.03187919 0.11963201 0.02644552
v -0.02527693 0.12235883 0.02933110
v -0.02649431 0.11963201 0.03184078
v -0.02239579 0.12134206 0.03444679
v -0.02059407 0.04167629 0.03147120
v -0.02127377 0.04446193 0.03417356
v -0.02167754 0.04857525 0.03537549
v -0.01667207 0.04857525 0.03794992
v -0.01667110 0.04857525 0.03795026
v -0.01197298 0.04163007 0.03560766
v -0.01325731 0.04537681 0.03844901
v -0.01092806 0.04857525 0.03997788
v -0.00545796 0.04354179 0.03909341
v -0.00583535 0.04701561 0.04101081
v -0.00583535 0.04701227 0.04101081
v -0.00272291 0.04857525 0.04135828
v -0.02099174 0.11963201 0.03574823
v -0.01625613 0.11963201 0.03814261
v -0.00956146 0.12250588 0.03684671
v -0.00956053 0.12250588 0.03684749
v -0.01037821 0.11826652 0.04007264
v -0.00581912 0.12109417 0.04101081
v 0.00000402 0.11963201 0.04143409
v 0.00204902 -0.04291924 -0.03276563
v 0.00819499 -0.04188234 -0.03286372
v 0.01058678 -0.02933077 -0.03944902
v 0.01026360 -0.03200846 -0.03864273
v 0.00895671 -0.04349400 -0.02949484
v 0.01108516 -0.04303963 -0.02717897
v 0.00604089 -0.04304740 -0.02461318
v 0.00607089 -0.04304740 -0.02461318
v 0.01079925 -0.00726527 -0.04102833
v 0.01590792 -0.04008038 -0.03264834
v 0.01674363 -0.03496965 -0.03568328
v 0.02186237 -0.02659676 -0.03831561
v 0.01649988 -0.04029786 -0.02462683
v 0.01903314 -0.04022018 -0.02875018
v 0.01989061 -0.03928426 -0.03083318
v 0.02194942 -0.03757162 -0.02462341
v 0.01293586 -0.01805299 -0.04038883
v 0.02186237 -0.02112875 -0.03964798
v 0.01912889 -0.00473637 -0.04065920
v 0.00887836 0.00414527 -0.04134969
v 0.00206004 0.03489506 -0.04152577
v 0.00201683 0.03489506 -0.04152577
v 0.00546722 0.03489506 -0.04148674
v 0.00958720 0.03489506 -0.04134554
v 0.00274523 0.03489506 -0.02417964
v 0.02049563 0.01115115 -0.04067551
v 0.01154068 0.03489506 -0.04123253
v 0.01164982 0.03489506 -0.04122604
v 0.01352922 0.03489506 -0.04111414
v 0.01776728 0.03489506 -0.04078225
v 0.01981312 0.03489506 -0.04056636
v 0.01986100 0.03489506 -0.04056095
v 0.02050063 0.03489506 -0.04051276
v 0.02188947 0.03489628 -0.02417878
v 0.02186237 0.03489506 -0.02417815
v 0.02050066 0.03665963 -0.02308150
v 0.02078480 0.03669052 -0.02311149
v 0.02078466 0.03669051 -0.02308150
v 0.02118284 0.03673054 -0.02308782
v 0.02186730 0.03673020 -0.02308782
v 0.02478736 -0.03493082 -0.03292983
v 0.02766883 -0.02694627 -0.03574299
v 0.03136860 -0.02927640 -0.03270166
v 0.02745990 -0.03489975 -0.03034186
v 0.02745990 -0.03489975 -0.02700838
v 0.02322911 -0.03343178 -0.02449717
v 0.03163139 -0.03097388 -0.03054138
v 0.03166893 -0.03093855 -0.03054317
v 0.03301391 -0.02957154 -0.02672689
v 0.03095510 -0.03022009 -0.02487846
v 0.02911718 -0.01741707 -0.03852352
v 0.02801269 -0.01292867 -0.03952771
v 0.03281368 -0.01022380 -0.03832243
v 0.03557328 -0.02665113 -0.03022244
v 0.03689213 -0.02179866 -0.03281084
v 0.04097059 -0.01283353 -0.03282577
v 0.04160172 -0.00746649 -0.03324800
v 0.03843298 -0.02211322 -0.02762679
v 0.03813265 -0.02099671 -0.02468142
v 0.04121434 -0.01618113 -0.03059605
v 0.04147645 -0.01569336 -0.02878125
v 0.04147645 -0.01569336 -0.02875125
v 0.04121434 -0.01618113 -0.02662794
v 0.04109246 -0.01343936 -0.02459953
v 0.04377371 -0.00767620 -0.03023950
v 0.04377371 -0.00767620 -0.02717897
v 0.03006280 0.00004523 -0.03963924
v 0.02596732 0.03489506 -0.03982364
v 0.02869606 0.02942705 -0.03960533
v 0.02870067 0.03489506 -0.03938775
v 0.03048838 0.03487946 -0.03872938
v 0.03047632 0.03489506 -0.03873382
v 0.03048473 0.03488095 -0.03873073
v 0.03048936 0.03489506 -0.03872846
v 0.03048838 0.03489506 -0.03872938
v 0.03116215 0.03489506 -0.03696544
v 0.03117184 0.03489435 -0.03691994
v 0.03125894 0.03489506 -0.03624204
v 0.03125894 0.03486506 -0.03624204
v 0.03171011 0.03489506 -0.03285023
v 0.02306592 0.03693853 -0.02308782
v 0.02410505 0.03705151 -0.02311150
v 0.02410505 0.03705151 -0.02308150
v 0.02464477 0.03711481 -0.02308150
v 0.02463570 0.03710920 -0.02308150
v 0.02471978 0.03715393 -0.02311150
v 0.02471978 0.03715393 -0.02308150
v 0.02487232 0.03723087 -0.02308782
v 0.02600141 0.03741899 -0.02308782
v 0.03199979 0.03489506 -0.02926589
v 0.03199979 0.03486506 -0.02926589
v 0.03201631 0.03486506 -0.02866127
v 0.03201631 0.03489506 -0.02866127
v 0.03204374 0.03490943 -0.02874338
v 0.03204374 0.03487943 -0.02874338
v 0.03204469 0.03491366 -0.02874313
v 0.03204403 0.03487992 -0.02874468
v 0.03206096 0.03485157 -0.02875540
v 0.03127526 0.03489506 -0.02601789
v 0.03028537 0.03489506 -0.02462695
v 0.03028537 0.03486506 -0.02462695
v 0.03024324 0.03489720 -0.02457150
v 0.03025481 0.03491028 -0.02457496
v 0.03025481 0.03488028 -0.02457496
v 0.03023839 0.03489690 -0.02457126
v 0.03025313 0.03488086 -0.02457227
v 0.03352317 0.00141126 -0.03873784
v 0.04182153 0.00414527 -0.03339557
v 0.04323833 0.00277826 -0.03218645
v 0.04100541 0.01306185 -0.03282321
v 0.04440484 -0.00200625 -0.02875018
v 0.04384335 0.00681713 -0.03040669
v 0.04384335 0.00681713 -0.02690602
v 0.04339937 -0.00063924 -0.02473942
v 0.04102281 0.01717839 -0.03018320
v 0.04102281 0.01717839 -0.02727621
v 0.04104023 0.01452983 -0.02462341
v 0.03312085 0.03879402 -0.00716108
v 0.03143275 0.03801463 -0.00072974
v 0.00273502 0.03861336 0.03336964
v 0.01101726 0.03873730 0.03188342
v 0.01571839 0.03785707 0.02523096
v 0.02060414 0.03889643 0.02688065
v 0.02770756 0.03880243 0.01960669
v 0.02801394 0.03797052 0.01361601
v 0.03336940 0.03864592 0.00293290
v 0.00136721 0.11143085 -0.04149126
v 0.00546722 0.11143085 -0.04135832
v 0.00136721 0.11679907 -0.04122538
v 0.00068732 0.11962897 -0.04036806
v 0.00273560 0.12157559 -0.03900159
v 0.00341722 0.11416642 -0.04137957
v 0.00546722 0.11768663 -0.04096854
v 0.00546722 0.12230451 -0.03694963
v 0.01074065 0.11143085 -0.04103547
v 0.00820057 0.11962897 -0.04010580
v 0.00856640 0.11575287 -0.04108068
v 0.01503394 0.11143085 -0.04056882
v 0.01366726 0.11416642 -0.04067554
v 0.01366726 0.11962897 -0.03962921
v 0.01298393 0.12136550 -0.03869683
v 0.01298393 0.12211155 -0.03694963
v 0.01435060 0.11690198 -0.04034138
v 0.01913396 0.11143085 -0.03998552
v 0.01913396 0.11416642 -0.03994121
v 0.01920298 0.12100961 -0.03832605
v 0.02050063 0.11690198 -0.03948903
v 0.01776728 0.12249316 -0.03421670
v 0.02963758 0.03976591 -0.02308782
v 0.02965244 0.03977791 -0.02308961
v 0.02965244 0.03977791 -0.02305961
v 0.03381128 0.04581939 -0.02311059
v 0.03380256 0.04579487 -0.02309461
v 0.03380536 0.04580116 -0.02309767
v 0.03380536 0.04580116 -0.02306767
v 0.03381128 0.04581939 -0.02308059
v 0.03381114 0.04581889 -0.02308044
v 0.03443550 0.04852762 -0.02310656
v 0.03444345 0.04857288 -0.02308782
v 0.03444165 0.04856263 -0.02308527
v 0.03444345 0.04857288 -0.02308104
v 0.03818515 0.04857525 -0.01623319
v 0.03839211 0.04437159 -0.01203829
v 0.03996253 0.04857525 -0.01098009
v 0.03879689 0.04305755 -0.00277823
v 0.04104177 0.04707078 -0.00577097
v 0.04104194 0.04707109 -0.00577120
v 0.04140716 0.04857525 -0.00072816
v 0.02323397 0.11416642 -0.03924305
v 0.02409332 0.11866423 -0.03847436
v 0.02596732 0.11416642 -0.03869321
v 0.02736160 0.11564139 -0.03833147
v 0.02590520 0.11947460 -0.03770205
v 0.02677490 0.11745938 -0.03819582
v 0.02596732 0.12155844 -0.03627137
v 0.02596732 0.12231308 -0.03421670
v 0.02841767 0.11962897 -0.03645224
v 0.02799662 0.12132690 -0.03595123
v 0.02882491 0.12171280 -0.03434331
v 0.02978434 0.11962897 -0.03517711
v 0.03050219 0.11962897 -0.03380974
v 0.02870067 0.12239883 -0.03148376
v 0.03038485 0.12136121 -0.03351673
v 0.02733399 0.12249316 -0.03011730
v 0.03212080 0.12161418 -0.02875083
v 0.03143401 0.12233881 -0.02601789
v 0.03302846 0.12128402 -0.02789532
v 0.03143401 0.12249316 -0.02308782
v 0.03145844 0.12248611 -0.02308782
v 0.03143275 0.12249748 -0.02308150
v 0.03145844 0.12248611 -0.02305782
v 0.03434682 0.12165277 -0.02308782
v 0.03524152 0.11965025 -0.02308782
v 0.03524590 0.11964046 -0.02308782
v 0.03525103 0.11962897 -0.02308782
v 0.03525504 0.11960714 -0.02308150
v 0.03525532 0.11963201 -0.02308150
v 0.03933152 0.11894926 -0.01293065
v 0.03690285 0.12249748 -0.00961232
v 0.04104194 0.12106895 -0.00576489
v 0.04135035 0.11963201 -0.00277981
v 0.03962978 0.12206892 -0.00141204
v 0.00273502 0.04310692 0.03885650
v 0.00273096 0.04857525 0.04135828
v 0.00583528 0.04701227 0.04101081
v 0.01093205 0.04857525 0.03997788
v 0.01203378 0.04433798 0.03836372
v 0.01559056 0.04857525 0.03843006
v 0.01919401 0.04444092 0.03551447
v 0.02168558 0.04857525 0.03537549
v 0.00134492 0.12209994 0.03958670
v 0.00578905 0.12109417 0.04101081
v 0.00581906 0.12109407 0.04101081
v 0.00581905 0.12109417 0.04101081
v 0.00956941 0.12250588 0.03684685
v 0.00956858 0.12250588 0.03684749
v 0.01161378 0.11826645 0.03975518
v 0.01161378 0.11826652 0.03975518
v 0.01900329 0.11963201 0.03676694
v 0.03775958 0.04257122 0.00712781
v 0.04105006 0.04705429 0.00570792
v 0.03557996 0.04170150 0.01239197
v 0.03819327 0.04460898 0.01338383
v 0.03556373 0.04444092 0.01912656
v 0.03820139 0.04857525 0.01618254
v 0.03999094 0.04857525 0.01088206
v 0.03030464 0.04155865 0.02214006
v 0.02860842 0.04460058 0.02855245
v 0.03066174 0.04857525 0.02792701
v 0.02650641 0.04857525 0.03184394
v 0.03541764 0.04857525 0.02161570
v 0.04105006 0.12107735 0.00570160
v 0.04105006 0.12107731 0.00570160
v 0.03874515 0.12150591 0.01333014
v 0.03416780 0.12245547 0.01771773
v 0.03934977 0.11894888 0.01284683
v 0.03934978 0.11894926 0.01284684
v 0.02528294 0.12235883 0.02933110
v 0.03312085 0.11963201 0.02496404
v 0.02865712 0.11963201 0.02994233
v 0.02239978 0.12134206 0.03444364
v 0.02502121 0.11963201 0.03307587
v 0.03449243 0.12134206 0.02234223
v 0.03578692 0.11963201 0.02092708
v 0.03578692 0.11963183 0.02092708
f 1 4 13
f 11 16 12
f 1 15 16
f 1 16 11
f 12 16 17
f 3 4 6
f 3 6 9
f 2 3 9
f 2 5 3
f 1 6 4
f 3 20 4
f 3 5 20
f 6 7 10
f 6 11 7
f 11 12 7
f 7 12 8
f 6 10 9
f 7 8 10
f 9 10 27
f 2 9 27
f 10 30 27
f 8 30 10
f 1 11 6
f 1 13 15
f 4 21 13
f 13 14 15
f 14 18 15
f 14 80 18
f 13 21 78
f 21 77 78
f 13 78 14
f 15 19 16
f 16 19 17
f 15 18 19
f 8 12 88
f 18 82 19
f 19 82 83
f 17 19 83
f 12 17 87
f 4 20 21
f 20 22 21
f 5 22 20
f 5 34 22
f 21 22 77
f 22 34 98
f 8 88 102
f 2 27 23
f 2 23 24
f 23 25 24
f 23 28 25
f 2 24 5
f 5 24 26
f 24 35 26
f 24 25 35
f 23 27 28
f 27 30 29
f 27 29 28
f 8 33 30
f 29 30 33
f 25 28 31
f 29 32 28
f 29 33 32
f 28 32 31
f 8 102 33
f 25 31 35
f 31 36 35
f 31 39 36
f 31 40 39
f 31 41 40
f 31 51 41
f 31 32 54
f 32 33 63
f 31 54 51
f 32 55 54
f 32 58 55
f 32 61 58
f 32 63 61
f 5 26 34
f 26 43 34
f 34 99 98
f 26 35 37
f 26 37 44
f 26 44 43
f 35 36 38
f 40 41 42
f 37 45 44
f 43 44 45
f 45 37 35
f 38 45 35
f 42 41 52
f 42 52 48
f 41 51 52
f 34 43 99
f 46 47 99
f 43 46 99
f 50 47 49
f 50 101 47
f 33 102 63
f 51 53 52
f 52 53 56
f 51 54 53
f 57 56 53
f 57 53 55
f 55 53 54
f 57 55 58
f 57 127 56
f 58 61 57
f 57 60 59
f 57 59 127
f 59 60 127
f 61 60 57
f 60 62 127
f 66 127 62
f 64 134 66
f 63 64 66
f 60 61 62
f 63 66 62
f 61 63 62
f 64 63 65
f 64 135 134
f 64 136 135
f 64 137 136
f 67 137 64
f 64 65 68
f 64 68 67
f 67 72 137
f 65 63 103
f 68 65 72
f 65 69 72
f 65 73 69
f 65 75 73
f 65 105 75
f 68 72 67
f 72 69 70
f 63 102 103
f 65 103 105
f 69 74 70
f 69 73 74
f 71 70 74
f 73 75 74
f 75 105 106
f 72 76 137
f 72 70 76
f 71 76 70
f 71 74 121
f 75 121 74
f 75 106 121
f 121 106 108
f 108 109 121
f 71 119 76
f 71 121 119
f 77 79 78
f 78 79 80
f 14 78 80
f 79 90 80
f 80 91 84
f 77 81 79
f 79 81 92
f 18 84 82
f 18 80 84
f 17 83 87
f 82 86 83
f 83 86 87
f 87 88 12
f 82 84 85
f 82 85 86
f 85 95 86
f 86 95 88
f 86 88 87
f 22 89 77
f 22 98 89
f 77 89 81
f 89 98 110
f 79 92 90
f 80 90 91
f 81 94 92
f 90 92 93
f 90 93 91
f 91 93 251
f 91 251 96
f 81 97 94
f 84 96 85
f 84 91 96
f 85 96 95
f 88 95 257
f 95 96 257
f 81 89 97
f 89 110 97
f 88 104 102
f 47 112 99
f 100 101 50
f 101 112 47
f 98 99 114
f 113 99 112
f 99 113 114
f 111 112 101
f 104 103 102
f 103 104 105
f 104 106 105
f 104 107 106
f 106 107 108
f 98 114 110
f 88 275 104
f 114 115 110
f 115 116 110
f 113 115 114
f 116 272 110
f 117 272 116
f 117 118 272
f 104 287 107
f 107 288 108
f 109 108 286
f 125 109 286
f 119 121 120
f 109 123 121
f 120 121 122
f 121 123 122
f 109 125 123
f 123 125 124
f 124 125 126
f 125 370 126
f 48 129 130
f 56 127 129
f 131 138 142
f 133 131 142
f 132 133 142
f 127 128 129
f 129 133 130
f 128 131 129
f 131 133 129
f 130 133 132
f 40 130 148
f 130 132 151
f 40 42 130
f 42 48 130
f 52 129 48
f 56 129 52
f 66 134 127
f 138 139 142
f 134 135 127
f 131 135 138
f 128 135 131
f 127 135 128
f 138 135 139
f 135 136 139
f 136 137 139
f 38 162 45
f 36 148 38
f 36 39 148
f 148 39 40
f 43 45 183
f 46 43 183
f 46 183 47
f 183 49 47
f 140 142 143
f 132 142 141
f 139 145 142
f 140 141 142
f 142 145 143
f 76 145 139
f 140 143 144
f 208 144 143
f 143 145 206
f 207 144 208
f 206 208 143
f 76 146 145
f 145 146 206
f 76 119 146
f 140 177 141
f 141 150 132
f 144 178 140
f 144 207 181
f 76 139 137
f 130 151 148
f 132 150 151
f 154 170 171
f 147 171 148
f 147 152 171
f 152 154 171
f 147 148 151
f 149 152 147
f 149 147 151
f 149 151 153
f 149 153 152
f 153 175 152
f 152 173 154
f 38 158 162
f 38 148 156
f 38 156 158
f 45 163 167
f 45 162 163
f 45 167 183
f 155 162 158
f 155 159 164
f 156 171 157
f 157 170 161
f 156 157 158
f 158 157 159
f 159 157 160
f 155 158 159
f 160 157 161
f 160 161 169
f 162 167 163
f 162 164 184
f 155 164 162
f 159 165 164
f 164 165 166
f 162 184 167
f 164 166 184
f 159 187 165
f 159 168 187
f 165 187 166
f 159 169 168
f 159 160 169
f 161 176 169
f 169 176 188
f 157 171 170
f 161 170 172
f 148 171 156
f 161 172 174
f 161 174 176
f 154 172 170
f 154 173 172
f 173 174 172
f 175 173 152
f 174 173 175
f 140 178 177
f 141 177 150
f 144 180 178
f 179 180 144
f 179 144 181
f 178 180 177
f 177 151 150
f 151 180 153
f 153 180 175
f 151 177 180
f 175 180 182
f 180 220 182
f 179 221 180
f 179 181 221
f 49 191 50
f 50 191 100
f 100 189 101
f 101 195 111
f 111 201 112
f 113 112 201
f 113 201 115
f 116 115 201
f 116 201 117
f 117 202 118
f 49 183 191
f 100 191 189
f 101 189 195
f 167 184 185
f 167 185 183
f 166 190 184
f 166 186 190
f 166 187 186
f 168 193 187
f 184 190 185
f 183 185 191
f 185 190 191
f 168 194 193
f 168 169 194
f 190 192 191
f 186 192 190
f 186 187 197
f 187 193 197
f 189 191 196
f 191 192 196
f 186 197 192
f 193 194 200
f 169 188 204
f 169 204 194
f 176 174 398
f 175 434 174
f 111 195 201
f 117 201 202
f 118 202 377
f 189 196 195
f 192 198 196
f 193 199 197
f 192 197 198
f 193 200 199
f 195 196 203
f 197 199 198
f 194 204 200
f 176 398 188
f 195 203 201
f 196 198 379
f 201 203 202
f 196 379 203
f 199 200 380
f 198 199 205
f 202 203 377
f 198 205 379
f 199 380 205
f 200 381 380
f 200 204 381
f 188 398 204
f 175 247 434
f 206 209 208
f 207 208 209
f 206 210 212
f 206 212 209
f 209 212 211
f 146 210 206
f 119 210 146
f 119 120 210
f 211 212 213
f 210 214 212
f 120 214 210
f 212 214 215
f 212 215 213
f 209 221 207
f 209 211 221
f 211 213 222
f 215 225 213
f 120 122 214
f 214 218 215
f 215 216 225
f 122 217 214
f 214 217 218
f 215 218 216
f 216 218 219
f 122 232 217
f 122 123 232
f 217 232 218
f 218 234 219
f 218 232 233
f 218 233 234
f 216 219 228
f 219 234 230
f 207 221 181
f 211 222 221
f 222 213 226
f 213 225 226
f 180 221 220
f 220 221 223
f 182 220 224
f 220 223 224
f 221 222 223
f 222 226 223
f 223 227 224
f 223 226 227
f 182 247 175
f 224 246 182
f 216 228 225
f 228 226 225
f 226 228 227
f 219 230 228
f 230 234 244
f 224 227 229
f 227 228 230
f 227 230 231
f 227 231 229
f 224 229 246
f 230 244 231
f 123 124 232
f 232 237 233
f 233 238 234
f 234 238 235
f 124 237 232
f 233 237 238
f 124 126 237
f 236 235 238
f 236 238 239
f 234 235 244
f 236 245 235
f 239 248 236
f 126 240 237
f 237 240 238
f 238 242 239
f 238 240 242
f 239 242 241
f 126 370 453
f 126 453 240
f 241 242 243
f 240 453 242
f 243 242 454
f 239 241 248
f 241 243 249
f 250 243 454
f 235 245 244
f 236 248 245
f 182 246 247
f 231 244 245
f 229 231 247
f 229 247 246
f 231 245 249
f 231 249 247
f 248 241 249
f 243 250 249
f 248 249 245
f 247 249 461
f 249 250 462
f 92 254 93
f 93 252 251
f 92 94 253
f 92 253 254
f 251 252 255
f 93 254 252
f 252 260 255
f 94 267 253
f 96 251 255
f 96 255 258
f 88 257 258
f 96 258 257
f 255 256 258
f 88 258 296
f 94 97 267
f 97 259 267
f 97 270 259
f 88 296 285
f 252 254 261
f 252 261 260
f 253 262 254
f 254 262 261
f 260 261 291
f 260 291 265
f 253 268 262
f 261 262 291
f 255 264 256
f 255 260 265
f 255 265 264
f 256 264 263
f 256 263 258
f 258 263 296
f 264 265 294
f 263 264 266
f 263 266 296
f 253 267 268
f 259 270 269
f 259 269 267
f 267 302 268
f 267 269 302
f 97 110 270
f 110 272 270
f 88 285 275
f 272 271 270
f 118 271 272
f 118 273 271
f 271 277 270
f 273 274 271
f 274 277 271
f 104 275 290
f 104 290 287
f 107 287 288
f 108 288 286
f 269 270 276
f 277 276 270
f 277 278 276
f 279 281 278
f 278 281 276
f 276 281 282
f 280 281 279
f 280 283 281
f 282 281 283
f 290 275 285
f 284 290 285
f 287 289 288
f 287 290 289
f 289 290 331
f 289 333 288
f 265 291 294
f 262 301 292
f 262 292 291
f 291 292 293
f 291 293 294
f 293 297 294
f 293 298 297
f 292 305 293
f 264 294 295
f 264 295 266
f 266 295 300
f 266 300 296
f 294 297 295
f 295 299 300
f 293 304 298
f 297 298 299
f 295 297 299
f 296 300 309
f 262 268 302
f 262 302 301
f 269 317 302
f 301 302 303
f 292 301 305
f 302 317 303
f 303 317 357
f 285 296 314
f 293 305 304
f 298 304 299
f 299 304 308
f 299 308 309
f 299 309 300
f 301 303 306
f 301 306 305
f 304 305 310
f 303 307 306
f 303 358 307
f 305 306 310
f 306 315 310
f 306 307 315
f 307 359 315
f 304 312 308
f 296 309 314
f 304 310 311
f 304 311 312
f 308 313 309
f 308 312 313
f 310 315 311
f 311 315 312
f 312 316 313
f 309 313 314
f 315 316 312
f 313 316 314
f 315 361 316
f 316 361 364
f 314 316 364
f 269 276 317
f 276 319 317
f 317 319 357
f 276 282 319
f 283 322 282
f 282 322 319
f 283 318 320
f 320 322 283
f 319 321 357
f 319 323 321
f 322 323 319
f 321 325 324
f 321 323 325
f 322 325 323
f 327 328 329
f 328 341 329
f 330 340 328
f 328 340 341
f 290 284 355
f 331 333 289
f 290 332 331
f 331 332 333
f 332 336 333
f 333 336 337
f 333 334 335
f 333 337 334
f 336 338 337
f 290 355 332
f 332 352 336
f 336 352 339
f 284 356 355
f 336 339 338
f 338 399 337
f 338 339 399
f 284 285 367
f 284 367 356
f 348 341 347
f 344 347 341
f 344 341 346
f 345 343 342
f 344 343 345
f 344 345 347
f 342 343 350
f 344 349 343
f 343 349 350
f 344 346 402
f 332 355 352
f 339 352 399
f 353 354 351
f 352 355 356
f 353 351 350
f 354 352 356
f 353 352 354
f 352 400 399
f 399 401 337
f 342 350 351
f 353 403 352
f 353 350 403
f 350 349 403
f 344 404 349
f 303 357 358
f 358 357 321
f 324 360 358
f 307 358 359
f 358 360 359
f 359 360 362
f 285 314 367
f 315 362 361
f 315 359 362
f 361 363 364
f 361 362 363
f 314 364 367
f 363 367 364
f 360 365 362
f 362 366 363
f 363 366 367
f 362 365 366
f 324 358 321
f 324 365 360
f 324 326 365
f 326 327 365
f 327 329 365
f 329 341 365
f 348 366 365
f 356 367 366
f 341 348 365
f 342 351 366
f 348 347 366
f 345 366 347
f 345 342 366
f 354 356 366
f 354 366 351
f 335 334 368
f 334 337 368
f 286 288 375
f 288 333 375
f 333 335 375
f 368 337 401
f 335 368 369
f 335 369 375
f 368 376 369
f 125 286 372
f 286 375 372
f 125 372 370
f 370 372 371
f 371 372 373
f 372 375 373
f 369 376 374
f 373 375 374
f 369 374 375
f 273 118 377
f 273 378 274
f 378 277 274
f 378 278 277
f 378 279 278
f 279 385 280
f 280 385 283
f 283 388 318
f 273 377 378
f 279 378 385
f 203 382 377
f 203 379 382
f 205 383 379
f 204 384 381
f 377 382 378
f 379 387 382
f 379 383 387
f 205 380 386
f 380 381 386
f 205 386 383
f 378 382 387
f 378 387 385
f 381 391 386
f 381 384 392
f 383 393 387
f 385 387 389
f 383 386 390
f 383 390 393
f 381 392 391
f 204 398 384
f 174 434 398
f 283 385 388
f 318 388 394
f 387 393 389
f 385 389 388
f 386 391 390
f 388 389 395
f 389 393 395
f 390 391 396
f 384 426 392
f 384 398 426
f 388 395 394
f 393 397 395
f 390 420 393
f 391 392 425
f 390 396 420
f 391 425 396
f 394 395 419
f 395 397 419
f 393 420 397
f 392 426 425
f 247 440 434
f 327 326 409
f 327 409 328
f 328 409 330
f 330 409 340
f 340 409 341
f 341 408 346
f 401 399 400
f 352 403 400
f 344 402 404
f 349 404 403
f 403 401 400
f 405 401 403
f 318 394 320
f 320 422 322
f 322 422 325
f 325 445 324
f 324 445 326
f 346 408 402
f 341 409 408
f 404 402 407
f 405 403 404
f 402 406 407
f 404 407 405
f 402 408 406
f 406 408 410
f 410 411 406
f 409 411 410
f 408 409 410
f 326 445 409
f 409 446 411
f 405 413 401
f 406 412 407
f 405 407 413
f 411 412 406
f 407 412 413
f 368 401 413
f 412 417 413
f 412 414 417
f 368 413 415
f 368 415 376
f 413 417 416
f 413 416 415
f 415 416 470
f 417 471 416
f 417 418 471
f 411 446 412
f 412 448 414
f 414 450 417
f 417 451 418
f 320 394 419
f 320 419 421
f 320 421 422
f 325 422 430
f 325 430 431
f 325 431 445
f 397 422 419
f 397 424 422
f 396 423 420
f 397 420 424
f 396 428 423
f 396 425 428
f 419 422 421
f 420 423 424
f 423 428 424
f 422 424 427
f 424 428 427
f 398 434 426
f 425 426 428
f 426 429 428
f 426 434 432
f 422 427 430
f 427 428 430
f 428 429 433
f 428 433 430
f 430 433 431
f 426 432 429
f 429 432 433
f 432 435 433
f 431 433 437
f 432 434 438
f 432 438 436
f 433 435 437
f 432 436 435
f 431 437 445
f 435 442 437
f 440 438 434
f 436 438 439
f 435 436 442
f 436 439 442
f 438 441 439
f 441 443 439
f 409 445 446
f 437 442 443
f 437 443 444
f 437 444 445
f 439 443 442
f 444 447 445
f 445 447 446
f 412 446 448
f 414 448 450
f 417 450 451
f 438 450 441
f 438 440 450
f 441 450 443
f 446 447 448
f 450 447 444
f 443 450 444
f 447 450 448
f 440 449 450
f 449 452 450
f 450 452 482
f 450 482 451
f 370 371 453
f 242 453 455
f 242 455 454
f 453 457 455
f 371 457 453
f 455 457 458
f 455 458 456
f 454 455 463
f 455 456 463
f 371 459 457
f 457 459 458
f 371 373 459
f 458 459 460
f 456 458 467
f 458 460 469
f 440 247 449
f 463 250 454
f 456 467 463
f 247 461 466
f 249 462 461
f 247 466 465
f 250 463 464
f 250 464 462
f 466 461 462
f 462 464 466
f 468 464 463
f 467 468 463
f 458 469 467
f 460 492 469
f 449 247 465
f 465 466 488
f 464 491 466
f 464 468 469
f 467 469 468
f 464 469 491
f 466 491 488
f 469 492 491
f 374 376 472
f 374 472 477
f 376 415 470
f 376 470 472
f 416 471 470
f 470 471 473
f 471 476 473
f 470 473 472
f 472 473 474
f 473 476 475
f 472 474 477
f 473 475 474
f 474 475 481
f 471 418 483
f 471 483 476
f 481 475 495
f 475 476 486
f 373 374 477
f 373 477 459
f 459 477 478
f 474 478 477
f 474 479 478
f 478 479 480
f 459 478 460
f 460 478 480
f 479 481 489
f 479 490 480
f 460 480 492
f 474 481 479
f 449 465 485
f 418 451 483
f 476 483 486
f 486 495 475
f 449 485 452
f 452 485 484
f 482 483 451
f 452 484 482
f 482 487 483
f 484 485 493
f 487 495 486
f 484 494 487
f 487 494 495
f 484 493 494
f 483 487 486
f 482 484 487
f 479 489 490
f 480 490 492
f 465 488 485
f 488 491 493
f 485 488 493
f 489 493 490
f 490 493 491
f 490 491 492
f 481 495 489
f 489 494 493
f 489 495 494
