# https://github.com/mikedh/trimesh

o collision
v -0.02998701 -0.03979910 0.07168164
v -0.02998701 -0.03979915 0.07168163
v -0.02835650 -0.03979915 0.07017916
v -0.02614943 -0.04185945 0.07115199
v -0.02233045 -0.04410690 0.07193994
v -0.02380596 -0.04280672 0.07077191
v -0.02278612 -0.04185945 0.06862933
v -0.02487850 -0.03979915 0.06743078
v -0.02685929 -0.04085502 0.07030127
v -0.02665160 -0.03979915 0.06875763
v -0.02340608 -0.04085502 0.06771000
v -0.02303721 -0.03979915 0.06619586
v -0.02998409 -0.03120366 0.07168043
v -0.02994824 -0.03120362 0.07164474
v -0.02993784 -0.03120239 0.07163404
v -0.02835493 -0.03120366 0.07017931
v -0.02844330 -0.03118607 0.07025187
v -0.02799315 -0.03120366 0.06986570
v -0.02587404 -0.03120366 0.06816699
v -0.02487274 -0.03120366 0.06742671
v -0.02454973 -0.03120366 0.06720427
v -0.02663645 -0.03120366 0.06874740
v -0.02613900 -0.03120366 0.06836451
v -0.02592568 -0.03120366 0.06820795
v -0.02373290 -0.03120366 0.06666063
v -0.02359517 -0.03120006 0.06656359
v -0.02733252 -0.01849095 0.00399962
v -0.02734189 -0.01847626 0.00693543
v -0.02732699 -0.01849868 0.00696432
v -0.02857711 -0.01729998 0.01400073
v -0.02767573 -0.01877149 0.01400073
v -0.02767573 -0.01877149 0.01403073
v -0.02163759 -0.02491504 0.00399962
v -0.02163759 -0.02491504 0.00693440
v -0.02163759 -0.02491504 0.00696440
v -0.02290648 -0.02375313 0.00399962
v -0.02411601 -0.02252619 0.00399962
v -0.02152898 -0.02299281 0.00000068
v -0.02290609 -0.02375349 0.00694859
v -0.02411601 -0.02252619 0.00693440
v -0.02452252 -0.02287946 0.01400073
v -0.02208008 -0.02532177 0.01400073
v -0.02333361 -0.02413297 0.01400073
v -0.02633214 -0.01989005 0.00399962
v -0.02526476 -0.02123040 0.00399962
v -0.02526123 -0.02123040 0.00399259
v -0.02633214 -0.01989005 0.00696440
v -0.02502980 -0.02149390 0.00693576
v -0.02526476 -0.02123040 0.00696440
v -0.02581000 -0.01805794 0.00000068
v -0.02483504 -0.01937653 0.00000068
v -0.02325890 -0.02123040 0.00000433
v -0.02322780 -0.02126040 0.00000068
v -0.02379076 -0.02064508 0.00000068
v -0.02268690 -0.02185171 0.00000068
v -0.02265108 -0.02188759 0.00000068
v -0.02564359 -0.02156464 0.01400073
v -0.02669681 -0.02019532 0.01400082
v -0.02669681 -0.02019532 0.01400073
v -0.02988084 -0.01400425 0.00399962
v -0.03057048 -0.01242672 0.00399962
v -0.02988084 -0.01400425 0.00693440
v -0.02988084 -0.01400425 0.00696440
v -0.03057048 -0.01242672 0.00693440
v -0.03056305 -0.01244595 0.00696953
v -0.02825897 -0.01703962 0.00399962
v -0.02910919 -0.01554261 0.00399962
v -0.02754572 -0.01527759 0.00000068
v -0.02761571 -0.01514377 0.00000068
v -0.02825897 -0.01703962 0.00693440
v -0.02910919 -0.01554261 0.00693440
v -0.02830634 -0.01381712 0.00000068
v -0.03014402 -0.01422411 0.01400073
v -0.03080632 -0.01262656 0.01400073
v -0.02940095 -0.01578419 0.01400073
v -0.03117695 -0.01081438 0.00399962
v -0.02959089 -0.01079698 0.00000068
v -0.03136871 -0.01036397 0.00696440
v -0.03136955 -0.01036481 0.00696953
v -0.03169793 -0.00917593 0.00399962
v -0.03011303 -0.00924121 0.00000068
v -0.03055431 -0.00766151 0.00000068
v -0.03173605 -0.00921293 0.00696440
v -0.03173541 -0.00921493 0.00696440
v -0.02898789 -0.01232446 0.00000068
v -0.03138462 -0.01099836 0.01400073
v -0.03182724 -0.00929863 0.01400073
v -0.02671682 -0.01668713 0.00000068
v -0.03225319 -0.00769603 0.05939559
v -0.03226997 -0.00765407 0.06720427
v -0.02822806 -0.01788266 0.05941474
v -0.02846020 -0.01750086 0.05940548
v -0.02848377 -0.01746035 0.05940273
v -0.02754309 -0.01897167 0.05940254
v -0.02767573 -0.01877149 0.05941615
v -0.02733305 -0.01927935 0.05940967
v -0.02498432 -0.02235171 0.05940630
v -0.02451591 -0.02288701 0.05939559
v -0.02306546 -0.02439867 0.05940345
v -0.02205113 -0.02534744 0.05939559
v -0.02318372 -0.02428082 0.05939774
v -0.02557691 -0.02164885 0.05939585
v -0.02654157 -0.02040183 0.05940034
v -0.02663545 -0.02028044 0.05941299
v -0.03080632 -0.01262826 0.03669066
v -0.02974708 -0.01508134 0.05940055
v -0.02974987 -0.01507568 0.05940135
v -0.03026249 -0.01395059 0.05940647
v -0.03030044 -0.01386295 0.05939559
v -0.03000790 -0.01452237 0.05942559
v -0.03054463 -0.01328398 0.05939559
v -0.03082987 -0.01256711 0.05939559
v -0.02919418 -0.01618613 0.05941429
v -0.02920393 -0.01616717 0.05941273
v -0.02940095 -0.01578419 0.05942291
v -0.03092100 -0.01231122 0.05939559
v -0.03112984 -0.01173266 0.05939559
v -0.03135267 -0.01107168 0.05939559
v -0.03139946 -0.01093416 0.05942559
v -0.03199339 -0.00878063 0.05939559
v -0.03200190 -0.00878063 0.05939559
v -0.03164976 -0.01010023 0.06720427
v -0.03140426 -0.01092770 0.06720427
v -0.03183066 -0.00947812 0.06720427
v -0.03186653 -0.00933317 0.06720427
v -0.03216175 -0.00814029 0.06720427
v -0.03217575 -0.00807083 0.06720427
v -0.03217575 -0.00808730 0.06720427
v -0.01892419 -0.02703325 0.00399962
v -0.01892419 -0.02703325 0.00693440
v -0.01893821 -0.02702290 0.00693440
v -0.01748958 -0.02798286 0.00399962
v -0.01640232 -0.02688688 0.00000068
v -0.01628252 -0.02696344 0.00000068
v -0.01748981 -0.02798271 0.00693440
v -0.01748794 -0.02798383 0.00694838
v -0.01939533 -0.02749498 0.01400092
v -0.01939533 -0.02749498 0.01400073
v -0.01649735 -0.02937865 0.01400082
v -0.01649735 -0.02937865 0.01400073
v -0.01797057 -0.02847598 0.01400073
v -0.01182892 -0.03160635 0.01403073
v -0.01182892 -0.03160635 0.01400073
v -0.01447936 -0.02965257 0.00399962
v -0.01447936 -0.02965257 0.00693440
v -0.01448098 -0.02965172 0.00693443
v -0.01600549 -0.02885692 0.00399962
v -0.01485533 -0.02777534 0.00000068
v -0.01598989 -0.02886505 0.00690409
v -0.01600549 -0.02885692 0.00693440
v -0.01291365 -0.03036693 0.00399962
v -0.01131579 -0.03099904 0.00399962
v -0.01195904 -0.02913904 0.00000068
v -0.01186480 -0.02917904 0.00000068
v -0.01291365 -0.03036693 0.00693440
v -0.01131690 -0.03099860 0.00696229
v -0.01131008 -0.03099904 0.00697767
v -0.01130905 -0.03099904 0.00697661
v -0.01130800 -0.03099904 0.00697600
v -0.01130551 -0.03099904 0.00697558
v -0.01131579 -0.03099904 0.00699267
v -0.01131125 -0.03099904 0.00697964
v -0.01131690 -0.03099860 0.00699229
v -0.01338856 -0.02851170 0.00000068
v -0.01498213 -0.03020296 0.01400073
v -0.01342491 -0.03094554 0.01400073
v -0.01797397 -0.02847351 0.02208417
v -0.01020063 -0.03218202 0.01400073
v -0.00854326 -0.03267252 0.01400073
v -0.00686327 -0.03307787 0.01400252
v -0.00686327 -0.03307787 0.01400073
v -0.01042421 -0.02972345 0.00000068
v -0.00878790 -0.03024930 0.00000068
v -0.00719993 -0.03066625 0.00000068
v -0.00560928 -0.03099550 0.00000068
v -0.00516390 -0.03339124 0.01400073
v -0.00345160 -0.03361606 0.01400073
v -0.00172962 -0.03375231 0.01400073
v -0.00128674 -0.02866642 0.00696953
v -0.01883230 -0.04490130 0.07113279
v -0.01980099 -0.04369399 0.06952053
v -0.01918413 -0.04185945 0.06646617
v -0.02129511 -0.04280672 0.06901833
v -0.01644078 -0.04580000 0.07161577
v -0.01863856 -0.04280672 0.06748566
v -0.01717234 -0.03979915 0.06308112
v -0.02113391 -0.03979915 0.06505425
v -0.01970490 -0.04085502 0.06548852
v -0.01918723 -0.03979915 0.06401967
v -0.01140667 -0.04185945 0.06330478
v -0.01577742 -0.04451982 0.06878302
v -0.01609670 -0.04325036 0.06690010
v -0.01537445 -0.04185945 0.06468514
v -0.01263420 -0.04369399 0.06616773
v -0.01201734 -0.04490130 0.06794327
v -0.01317667 -0.04580000 0.07008928
v -0.01302788 -0.04280672 0.06503572
v -0.01512026 -0.03979915 0.06224824
v -0.01377184 -0.04085502 0.06289657
v -0.01302478 -0.03979915 0.06152239
v -0.01089830 -0.03979915 0.06090493
v -0.01918533 -0.02764826 0.05940751
v -0.01945348 -0.02745410 0.05939768
v -0.01681804 -0.02918672 0.05939708
v -0.01660392 -0.02931396 0.05940358
v -0.01834519 -0.02822742 0.05940698
v -0.01798969 -0.02846209 0.05939559
v -0.01792333 -0.02850422 0.05939559
v -0.01713675 -0.02899731 0.05937516
v -0.01713675 -0.02899731 0.05940516
v -0.01182892 -0.03160635 0.05939962
v -0.01152541 -0.03172211 0.05940073
v -0.01090493 -0.03194357 0.05940277
v -0.01566431 -0.02984504 0.05939891
v -0.01566342 -0.02984552 0.05939892
v -0.01504027 -0.03017232 0.05941221
v -0.01426532 -0.03055702 0.05939989
v -0.01426373 -0.03055777 0.05939981
v -0.01342491 -0.03094554 0.05941686
v -0.01282030 -0.03120387 0.05939568
v -0.01282013 -0.03120394 0.05939564
v -0.01282004 -0.03120398 0.05939563
v -0.01282034 -0.03120386 0.05939570
v -0.01282037 -0.03120385 0.05939571
v -0.01282376 -0.03120247 0.05939796
v -0.01281992 -0.03120403 0.05939562
v -0.01281977 -0.03120409 0.05939560
v -0.01281955 -0.03120418 0.05939560
v -0.01295322 -0.03114991 0.05940615
v -0.00835025 -0.04185945 0.06252816
v -0.00711032 -0.04280672 0.06347562
v -0.00854554 -0.04451982 0.06626859
v -0.00846339 -0.04580000 0.06857204
v -0.00946773 -0.04325036 0.06459492
v -0.00874082 -0.03979915 0.06039861
v -0.00751639 -0.04085502 0.06124865
v -0.00655855 -0.03979915 0.06000481
v -0.00523803 -0.04185945 0.06201567
v -0.00305885 -0.04280672 0.06295146
v -0.00212890 -0.04135723 0.06116495
v -0.00448787 -0.04580000 0.06780057
v -0.00477615 -0.04451982 0.06558252
v -0.00493734 -0.04369399 0.06435172
v -0.00277057 -0.04528279 0.06665895
v -0.00089827 -0.04580000 0.06752271
v -0.00095717 -0.04446482 0.06520004
v -0.00098817 -0.04363434 0.06396203
v -0.00436388 -0.03979915 0.05972353
v -0.00221260 -0.03979915 0.05955750
v -0.01018448 -0.03218883 0.05940495
v -0.00854326 -0.03267593 0.05940878
v -0.00748680 -0.03293821 0.05939559
v -0.00748680 -0.03293821 0.05941044
v -0.00688912 -0.03307446 0.05941118
v -0.00653373 -0.03314599 0.05941148
v -0.00516390 -0.03339465 0.05941218
v -0.00481821 -0.03344575 0.05941217
v -0.00433683 -0.03351387 0.05941211
v -0.00348068 -0.03361606 0.05941172
v -0.00219161 -0.03372506 0.05941040
v -0.00219161 -0.03372506 0.05939559
v -0.00172962 -0.03375231 0.05940974
v -0.00087993 -0.03378637 0.05940828
v -0.02030934 -0.02601001 0.00399962
v -0.01907721 -0.02506260 0.00000068
v -0.01885690 -0.02522659 0.00000068
v -0.02030934 -0.02601001 0.00696440
v -0.02028460 -0.02409931 0.00000068
v -0.02148742 -0.02303141 0.00000068
v -0.01766519 -0.02607982 0.00000068
v -0.02076517 -0.02644243 0.01400073
v -0.02119779 -0.02122645 0.00000068
v -0.02119623 -0.02123040 0.00696953
v -0.02122716 -0.02606093 0.05940814
v -0.02122716 -0.02606093 0.05939559
v -0.02079424 -0.02642200 0.05940123
v -0.04094291 -0.03979519 0.08943097
v -0.03938155 -0.03979519 0.08528189
v -0.03534454 -0.04313088 0.08569424
v -0.03710475 -0.03979519 0.08085585
v -0.03872581 -0.04295257 0.09562416
v -0.03961144 -0.04278266 0.10339619
v -0.04207079 -0.03979519 0.09371059
v -0.04275677 -0.03979519 0.09808195
v -0.04297983 -0.03979519 0.10250622
v -0.04275677 -0.03979519 0.10692344
v -0.03333345 -0.04580000 0.09230737
v -0.03453914 -0.04580000 0.10528859
v -0.02986559 -0.04356593 0.07818814
v -0.02942594 -0.04135723 0.07341327
v -0.02696778 -0.04280672 0.07341327
v -0.03020490 -0.04580000 0.08488850
v -0.03159656 -0.03984401 0.07344327
v -0.03159656 -0.03984401 0.07341413
v -0.03166091 -0.03979915 0.07341327
v -0.03166091 -0.03979915 0.07342355
v -0.03166096 -0.03973696 0.07341327
v -0.02573872 -0.04341748 0.07341327
v -0.02518228 -0.04369399 0.07341327
v -0.02464756 -0.04580000 0.07784901
v -0.03166711 -0.03120366 0.07341327
v -0.03157224 -0.03120366 0.07330873
v -0.03166314 -0.03118985 0.07340918
v -0.03166328 -0.03118933 0.07340932
v -0.03166333 -0.03118895 0.07340937
v -0.03166322 -0.03118961 0.07340926
v -0.03166295 -0.03119012 0.07340898
v -0.03124130 -0.03120366 0.07297515
v -0.03779047 -0.04349871 0.11035190
v -0.04207079 -0.03979519 0.11128774
v -0.04094291 -0.03979519 0.11557088
v -0.03938576 -0.03979519 0.11970938
v -0.03264452 -0.04315842 0.12393034
v -0.03740355 -0.03979519 0.12367852
v -0.03501733 -0.03979519 0.12742187
v -0.03226496 -0.03979519 0.13089354
v -0.03138012 -0.04580000 0.11768071
v -0.02695014 -0.04333627 0.13047591
v -0.02750935 -0.03979519 0.13552599
v -0.02396158 -0.03979519 0.13817914
v -0.01960431 -0.04574024 0.07341327
v -0.01960431 -0.04574024 0.07344327
v -0.01944366 -0.04579917 0.07341327
v -0.01945764 -0.04580000 0.07342333
v -0.01945889 -0.04579359 0.07341327
v -0.01939133 -0.04580000 0.07338326
v -0.02096933 -0.04580000 0.13044371
v -0.01633997 -0.04332040 0.13773635
v -0.01818329 -0.03979519 0.14144619
v -0.01354762 -0.03979519 0.14326493
v -0.01354694 -0.03979519 0.14326511
v -0.00776513 -0.04580000 0.13638684
v -0.00796793 -0.04300812 0.14090814
v -0.00765781 -0.03979519 0.14479437
v -0.00328517 -0.03979519 0.14535534
v -0.03248114 -0.00582506 0.00399962
v -0.03250736 -0.00582424 0.00696440
v -0.03274106 -0.00412350 0.00399962
v -0.03275376 -0.00414526 0.00696440
v -0.03255416 -0.00591960 0.01400073
v -0.03278354 -0.00419602 0.01400073
v -0.03291086 -0.00241107 0.00399962
v -0.03299173 -0.00068994 0.00399962
v -0.03298690 -0.00085142 0.00696440
v -0.03299373 -0.00069079 0.00705775
v -0.03298364 0.00099855 0.00399962
v -0.03298344 0.00103183 0.00399962
v -0.03298494 0.00092148 0.00693440
v -0.03298062 0.00108105 0.00697755
v -0.03294185 -0.00249288 0.01400073
v -0.03299677 -0.00075568 0.01400073
v -0.03299998 -0.00000460 0.00999537
v -0.03300000 0.00099856 0.01000270
v -0.03288491 0.00275156 0.00399962
v -0.03288374 0.00276223 0.00697146
v -0.03269637 0.00446253 0.00399962
v -0.03241973 0.00616124 0.00399962
v -0.03269636 0.00446388 0.00696953
v -0.03241865 0.00616620 0.00697041
v -0.03213343 -0.00751137 0.00399962
v -0.03091126 -0.00605788 0.00000068
v -0.03216000 -0.00753966 0.00696440
v -0.03118503 -0.00443901 0.00000068
v -0.03222139 -0.00760571 0.01400073
v -0.03137448 -0.00280926 0.00000068
v -0.03147729 -0.00117081 0.00000068
v -0.03149578 0.00047199 0.00000068
v -0.02996763 0.00098429 0.00000068
v -0.02996763 0.00101429 0.00000068
v -0.02996763 0.00098429 0.00696953
v -0.02996763 0.00100546 0.00696742
v -0.02994656 0.00100144 0.00696953
v -0.03142872 0.00211410 0.00000068
v -0.03127619 0.00374802 0.00000068
v -0.03103839 0.00537318 0.00000068
v -0.03205402 0.00784420 0.00399962
v -0.03071626 0.00698258 0.00000068
v -0.03031077 0.00857447 0.00000068
v -0.03205073 0.00785625 0.00697191
v -0.03160116 0.00950438 0.00399962
v -0.03106302 0.01113830 0.00399962
v -0.02982285 0.01014009 0.00000068
v -0.03159850 0.00951246 0.00697109
v -0.03106748 0.01112476 0.00696983
v -0.03106193 0.01114111 0.00696971
v -0.03228693 -0.00754050 0.05939559
v -0.03242921 -0.00681939 0.05939559
v -0.03250741 -0.00637909 0.05939559
v -0.03257431 -0.00601228 0.05942559
v -0.03276889 -0.00455485 0.05939559
v -0.03277131 -0.00452746 0.05942559
v -0.03278223 -0.00443429 0.05939559
v -0.03281662 -0.00416179 0.05939559
v -0.03288883 -0.00336646 0.05939559
v -0.03237996 -0.00708652 0.06720427
v -0.03244324 -0.00676258 0.06720427
v -0.03247718 -0.00657329 0.06720427
v -0.03247670 -0.00657595 0.06720427
v -0.03260224 -0.00584351 0.06720427
v -0.03274285 -0.00484257 0.06720427
v -0.03275612 -0.00472170 0.06720427
v -0.03276990 -0.00461809 0.06720427
v -0.03277904 -0.00449991 0.06720427
v -0.03278713 -0.00447055 0.06720427
v -0.03287690 -0.00355976 0.06720427
v -0.03293264 -0.00279909 0.05939559
v -0.03294813 -0.00251671 0.05939559
v -0.03295192 -0.00250767 0.05939559
v -0.03297092 -0.00201941 0.05939559
v -0.03298242 -0.00139245 0.05939559
v -0.03292928 -0.00287944 0.06720427
v -0.03295634 -0.00233440 0.06720427
v -0.03297416 -0.00193428 0.06720427
v -0.03299188 -0.00091926 0.06720427
v -0.03300000 0.01849843 0.01000270
v -0.03298062 0.01912797 0.01000270
v -0.03292893 0.01975172 0.01000270
v -0.03285141 0.02037548 0.01000270
v -0.03273512 0.02099347 0.01000270
v -0.03258653 0.02160567 0.01000270
v -0.03241210 0.02220633 0.01000270
v -0.03043962 0.01274244 0.00399962
v -0.03043588 0.01275076 0.00697089
v -0.02973379 0.01431332 0.00399962
v -0.02973169 0.01431741 0.00697058
v -0.02925345 0.01167944 0.00000068
v -0.02860541 0.01318901 0.00000068
v -0.02894648 0.01584391 0.00399962
v -0.02788063 0.01466006 0.00000068
v -0.02707816 0.01609259 0.00000068
v -0.02894445 0.01584741 0.00697153
v -0.02808243 0.01733247 0.00399962
v -0.02807927 0.01733729 0.00697171
v -0.02713975 0.01877200 0.00399962
v -0.02713889 0.01877320 0.00399992
v -0.02705488 0.01888934 0.00399962
v -0.02713615 0.01877701 0.00697143
v -0.02620370 0.01748308 0.00000068
v -0.02612313 0.02016337 0.00399962
v -0.02520760 0.01888934 0.00000401
v -0.02423989 0.02011564 0.00000068
v -0.02612313 0.02016337 0.00697119
v -0.02612186 0.02016494 0.00697115
v -0.02331055 0.01888324 0.00000068
v -0.02330553 0.01888934 0.00696953
v -0.03219890 0.02279832 0.01000270
v -0.03195987 0.02337875 0.01000332
v -0.03195987 0.02337876 0.01000270
v -0.03168853 0.02394765 0.01000270
v -0.03139135 0.02449922 0.01000270
v -0.03106186 0.02503345 0.01000282
v -0.03106186 0.02503345 0.01000270
v -0.03070654 0.02555325 0.01000270
v -0.03032537 0.02604995 0.01000270
v -0.02991190 0.02652932 0.01000270
v -0.02947905 0.02698270 0.01000270
v -0.02902682 0.02741586 0.01000270
v -0.02854874 0.02782304 0.01000270
v -0.02805129 0.02820711 0.01000270
v -0.02753445 0.02856231 0.01000270
v -0.02699823 0.02889151 0.01000270
v -0.02503571 0.02149878 0.00399962
v -0.02503571 0.02149878 0.00696440
v -0.02503631 0.02149805 0.00697080
v -0.02315905 0.02135103 0.00000068
v -0.02307566 0.02143682 0.00000068
v -0.02388034 0.02277509 0.00399962
v -0.02201464 0.02252847 0.00000068
v -0.02388034 0.02277509 0.00697116
v -0.02266139 0.02398889 0.00399962
v -0.02267094 0.02397938 0.00697118
v -0.02266024 0.02398992 0.00697116
v -0.02644264 0.02919184 0.01000270
v -0.02588058 0.02946040 0.01000270
v -0.02529914 0.02970009 0.01000270
v -0.02470478 0.02991090 0.01000270
v -0.02410395 0.03008994 0.01000270
v -0.02349020 0.03023721 0.01000433
v -0.02349021 0.03023721 0.01000270
v -0.02287647 0.03034984 0.01000353
v -0.02287647 0.03034984 0.01000270
v -0.02224980 0.03043358 0.01000270
v -0.02162314 0.03048267 0.01000270
v -0.03299897 0.01853326 0.05939559
v -0.03298062 0.01915396 0.05939559
v -0.03293698 0.01968618 0.05939559
v -0.03289904 0.01999136 0.05939559
v -0.03288800 0.02008537 0.05942559
v -0.03286828 0.02019192 0.05939559
v -0.03273512 0.02099347 0.05939559
v -0.03266770 0.02127600 0.05939559
v -0.03265781 0.02131745 0.05940030
v -0.03264663 0.02136429 0.05939559
v -0.03258007 0.02164321 0.05939559
v -0.03237334 0.02232184 0.05939559
v -0.03228824 0.02255513 0.05939559
v -0.03300000 0.02317360 0.06720427
v -0.03300000 0.02639287 0.07174858
v -0.03223218 0.02270066 0.05939559
v -0.03215368 0.02291961 0.05939559
v -0.03194048 0.02341342 0.05939559
v -0.03174235 0.02383663 0.05939559
v -0.03168818 0.02395337 0.05939559
v -0.03139145 0.02449662 0.05941175
v -0.03137410 0.02452548 0.05939559
v -0.03117815 0.02485152 0.05939559
v -0.03101627 0.02510332 0.05939559
v -0.03082309 0.02537670 0.05939559
v -0.03082309 0.02538366 0.05939559
v -0.03079400 0.02542527 0.05939559
v -0.03070654 0.02555036 0.05939559
v -0.03027369 0.02611348 0.05939559
v -0.02999832 0.02643306 0.05939559
v -0.02985619 0.02659108 0.05939559
v -0.02976317 0.02668516 0.05939559
v -0.02967933 0.02678055 0.05939559
v -0.02947905 0.02698847 0.05939559
v -0.02910708 0.02734084 0.05939559
v -0.02907938 0.02736599 0.05939559
v -0.02909465 0.02735321 0.05939560
v -0.02892345 0.02750538 0.05939559
v -0.02892009 0.02749923 0.05939559
v -0.02891516 0.02751248 0.05939559
v -0.02861335 0.02777106 0.05939559
v -0.02837431 0.02796165 0.05939559
v -0.02835768 0.02796965 0.05939559
v -0.02835816 0.02796928 0.05939559
v -0.02810297 0.02816957 0.05939559
v -0.02749569 0.02858541 0.05939559
v -0.02733593 0.02868181 0.05939559
v -0.02725269 0.02873498 0.05939559
v -0.02701115 0.02888286 0.05939559
v -0.02971163 0.02674922 0.06720427
v -0.02970926 0.02675166 0.06720427
v -0.02954076 0.02691642 0.06720427
v -0.02951781 0.02694854 0.06720427
v -0.02942091 0.02704518 0.06720427
v -0.02908573 0.02736178 0.06720427
v -0.02908819 0.02735925 0.06720427
v -0.02898848 0.02744727 0.06720427
v -0.02860689 0.02777600 0.06720427
v -0.02836785 0.02796928 0.06720427
v -0.02823860 0.02806065 0.06720427
v -0.02822374 0.02807765 0.06720427
v -0.02807067 0.02819276 0.06720427
v -0.02785452 0.02834462 0.06720427
v -0.02748923 0.02858535 0.06720427
v -0.02725033 0.02873324 0.06720427
v -0.02702811 0.02886869 0.06720427
v -0.02688195 0.03050000 0.07154680
v -0.02641896 0.02920529 0.05939559
v -0.02642668 0.02920138 0.05939559
v -0.02642325 0.02920142 0.05939559
v -0.02587412 0.02946040 0.05939559
v -0.02540896 0.02965356 0.05939559
v -0.02531206 0.02969669 0.05939559
v -0.02530815 0.02969863 0.05939559
v -0.02479520 0.02988068 0.05939559
v -0.02410294 0.03008953 0.05942559
v -0.02411800 0.03008478 0.05939559
v -0.02410395 0.03008994 0.05939559
v -0.02356774 0.03021988 0.05939559
v -0.02322533 0.03028679 0.05939559
v -0.02317688 0.03029766 0.05939559
v -0.02312842 0.03030652 0.05939559
v -0.02279686 0.03036142 0.05939559
v -0.02245023 0.03040362 0.05939559
v -0.02244362 0.03040336 0.05939559
v -0.02219811 0.03043936 0.05939559
v -0.02181708 0.03047111 0.05939559
v -0.02164898 0.03048845 0.05938779
v -0.02670319 0.02905526 0.06720427
v -0.02664291 0.02908666 0.06720427
v -0.02599041 0.02940678 0.06720427
v -0.02587154 0.02946222 0.06720427
v -0.02587412 0.02946114 0.06720427
v -0.02524952 0.02971883 0.06720427
v -0.02495027 0.02982957 0.06720427
v -0.02477468 0.02988622 0.06720427
v -0.02477004 0.02988773 0.06720427
v -0.02456783 0.02995234 0.06720427
v -0.02523453 0.03050000 0.07018721
v -0.02411610 0.03008257 0.06720427
v -0.02384331 0.03015246 0.06720427
v -0.02358066 0.03021005 0.06720427
v -0.02316719 0.03030069 0.06720427
v -0.02296490 0.03033418 0.06717426
v -0.02297302 0.03033290 0.06720427
v -0.02288984 0.03034699 0.06720427
v -0.02278564 0.03035996 0.06720427
v -0.02221342 0.03043673 0.06720427
v -0.02174894 0.03047902 0.06720427
v -0.02164898 0.03048792 0.06717426
v -0.02165263 0.03048760 0.06720427
v -0.02164650 0.03048797 0.06720458
v -0.02164898 0.03048792 0.06720427
v -0.02081104 0.02364566 0.00000068
v -0.02137886 0.02513677 0.00399962
v -0.01955043 0.02469694 0.00000068
v -0.02137794 0.02513751 0.00696965
v -0.01823721 0.02568230 0.00000068
v -0.02003933 0.02621760 0.00399962
v -0.02003494 0.02622077 0.00696440
v -0.02003838 0.02621829 0.00697114
v -0.01811056 0.02576741 0.00000068
v -0.01864498 0.02722683 0.00399962
v -0.01687575 0.02659720 0.00000068
v -0.01864685 0.02722548 0.00697017
v -0.01719803 0.02816218 0.00399962
v -0.01719803 0.02816218 0.00697022
v -0.01719987 0.02816099 0.00697016
v -0.02099647 0.03050000 0.01000270
v -0.01571555 0.02729232 0.00000068
v -0.01534672 0.02750482 0.00000068
v -0.01570942 0.02902139 0.00399962
v -0.01401691 0.02820878 0.00000068
v -0.01417476 0.02980104 0.00399962
v -0.01570937 0.02902141 0.00697061
v -0.01417476 0.02980104 0.00697139
v -0.01417526 0.02980079 0.00697138
v -0.01252830 0.02890092 0.00000068
v -0.01260065 0.03050000 0.00399962
v -0.01098227 0.02952307 0.00000068
v -0.01260089 0.03049989 0.00697032
v -0.01260074 0.03049996 0.00697038
v -0.01260081 0.03049993 0.00697035
v -0.01260069 0.03049998 0.00697041
v -0.01260066 0.03049999 0.00697047
v -0.01260111 0.03049980 0.00697030
v -0.01260124 0.03049974 0.00697030
v -0.01260099 0.03049985 0.00697031
v -0.00944002 0.03005185 0.00000068
v -0.00787639 0.03049992 0.00000068
v -0.00463799 0.02962920 0.00000451
v -0.00466799 0.02962920 0.00000451
v -0.00466799 0.02962920 0.00696953
v -0.00463799 0.02962920 0.00696953
v -0.02099647 0.03050000 0.05939559
v -0.02100292 0.03049398 0.06720458
v -0.02099647 0.03050000 0.06728692
v -0.00574078 0.03049618 0.06720427
v -0.03293706 -0.00287171 0.07341327
v -0.03298062 -0.00186785 0.07342532
v -0.03298750 -0.00133751 0.07341266
v -0.03298733 -0.00135073 0.07341266
v -0.03300000 0.00130310 0.07343201
v -0.04095132 0.02849824 0.08944862
v -0.04095132 0.02849840 0.08944862
v -0.03865348 0.02849840 0.08376656
v -0.03300000 0.02742319 0.07341830
v -0.03300000 0.02749061 0.07341832
v -0.03299964 0.02749240 0.07341266
v -0.03300000 0.02749213 0.07341266
v -0.03231542 0.02800324 0.07344266
v -0.03231542 0.02800324 0.07341266
v -0.03617362 0.03050000 0.08349225
v -0.04207920 0.02849840 0.09375998
v -0.04287461 0.02849840 0.09983543
v -0.03959619 0.03050000 0.09215821
v -0.04292512 0.02849840 0.10478187
v -0.04063358 0.03050000 0.10484449
v -0.03118555 0.02884680 0.07341266
v -0.02974358 0.02988013 0.07344266
v -0.02974358 0.02988013 0.07341266
v -0.02887823 0.03050000 0.07342061
v -0.02887823 0.03050000 0.07341266
v -0.02845830 0.03050000 0.07299086
v -0.04243482 0.02849840 0.10935255
v -0.04151316 0.02849840 0.11363217
v -0.04010331 0.02849840 0.11796825
v -0.03832942 0.02849840 0.12194974
v -0.03693115 0.03050000 0.11999163
v -0.03603368 0.02849840 0.12592418
v -0.03341178 0.02849840 0.12954052
v -0.03049108 0.03050000 0.12975572
v -0.03052685 0.02849840 0.13275464
v -0.02709481 0.02849840 0.13585939
v -0.02349233 0.02849840 0.13849667
v -0.02126708 0.03050000 0.13735180
v -0.01979305 0.02849840 0.14065059
v -0.01364021 0.02849840 0.14325611
v -0.01055537 0.03050000 0.14204067
v -0.00715700 0.02849840 0.14487906
v -0.00232248 0.02849840 0.14540210
v -0.00079795 0.03050000 0.14335667
v 0.00000853 -0.03379654 0.01400073
v -0.00000448 -0.03379918 0.01399867
v -0.00000117 -0.03380000 0.01400073
v 0.00000853 -0.03379995 0.01464568
v 0.00172996 -0.03375226 0.01400073
v 0.00345139 -0.03361601 0.01400073
v 0.00516314 -0.03339119 0.01400073
v -0.00000890 -0.02999384 0.00000534
v 0.00002109 -0.02999384 0.00000534
v -0.00001011 -0.02999436 0.00696953
v 0.00001989 -0.02999436 0.00696953
v 0.00686197 -0.03307782 0.01400073
v 0.00854142 -0.03267247 0.01400073
v 0.01019826 -0.03218197 0.01400073
v 0.00559085 -0.03100000 0.00000068
v 0.00719786 -0.03066584 0.00000068
v 0.00566195 -0.02757332 0.00696953
v 0.00878726 -0.03024991 0.00000068
v 0.01034139 -0.02975341 0.00000068
v 0.01182926 -0.03160631 0.01403073
v 0.01182926 -0.03160631 0.01400073
v 0.01131472 -0.03100000 0.00399962
v 0.01188811 -0.02917070 0.00000068
v 0.01291418 -0.03036701 0.00399962
v 0.01131545 -0.03099971 0.00693440
v 0.01131586 -0.03099994 0.00696953
v 0.01131570 -0.03100000 0.00696955
v 0.01131574 -0.03099999 0.00696953
v 0.01243001 -0.03055929 0.00693445
v 0.01291418 -0.03036701 0.00693440
v 0.01309677 -0.02864082 0.00000068
v 0.01448096 -0.02965226 0.00399962
v 0.01448096 -0.02965226 0.00696440
v 0.01349287 -0.02846052 0.00000068
v 0.01600749 -0.02885674 0.00399962
v 0.01485567 -0.02777551 0.00000068
v 0.01601008 -0.02885522 0.00696440
v 0.01342473 -0.03094549 0.01400073
v 0.01498468 -0.03020292 0.01400769
v 0.01498468 -0.03020292 0.01400073
v 0.01628161 -0.02696384 0.00000068
v 0.01748876 -0.02798348 0.00399962
v 0.01748876 -0.02798348 0.00696440
v 0.01892475 -0.02703249 0.00399962
v 0.01892475 -0.02703249 0.00693440
v 0.01650265 -0.02937860 0.01400073
v 0.01797217 -0.02847594 0.01400073
v 0.01939647 -0.02749493 0.01400073
v 0.00000068 -0.04220200 0.06208359
v 0.00252548 -0.04300318 0.06318060
v 0.00317179 -0.04159084 0.06149152
v 0.00513088 -0.04255097 0.06284032
v 0.00236429 -0.04469127 0.06563912
v 0.00269752 -0.04580000 0.06761533
v 0.00000068 -0.03979915 0.05950124
v 0.00223255 -0.03979915 0.05955887
v 0.00445822 -0.03979915 0.05973313
v 0.00641421 -0.04108291 0.06130765
v 0.00918235 -0.04255097 0.06357852
v 0.00944583 -0.04159084 0.06246847
v 0.00626852 -0.04580000 0.06807774
v 0.00650410 -0.04508276 0.06678999
v 0.00539592 -0.04387759 0.06469303
v 0.00893436 -0.04469127 0.06666033
v 0.00890957 -0.04345538 0.06473386
v 0.00667769 -0.03979915 0.06002265
v 0.00887237 -0.03979915 0.06042743
v 0.00003853 -0.03379995 0.05940633
v 0.00068496 -0.03379311 0.05940470
v 0.00068447 -0.03379313 0.05940470
v 0.00187617 -0.03374545 0.05940114
v 0.00228610 -0.03372162 0.05939979
v 0.00247585 -0.03370538 0.05939909
v 0.00337065 -0.03362622 0.05940132
v 0.00453012 -0.03348657 0.05939559
v 0.00453012 -0.03348657 0.05940352
v 0.00516314 -0.03339119 0.05940437
v 0.00590597 -0.03326516 0.05940511
v 0.00592577 -0.03326168 0.05940512
v 0.00679094 -0.03309143 0.05940555
v 0.00723661 -0.03299607 0.05940563
v 0.00723645 -0.03299611 0.05940563
v 0.00856079 -0.03266906 0.05940505
v 0.00999666 -0.03224804 0.05940321
v 0.01267585 -0.04108291 0.06278543
v 0.01470623 -0.04108291 0.06349070
v 0.01274715 -0.04345538 0.06585077
v 0.01234107 -0.04429979 0.06701297
v 0.01105929 -0.04580000 0.06932741
v 0.01191949 -0.04508276 0.06821701
v 0.01313772 -0.04255097 0.06472836
v 0.01523165 -0.04469127 0.06884956
v 0.01603141 -0.04580000 0.07142505
v 0.01105464 -0.03979915 0.06094609
v 0.01320592 -0.03979915 0.06157864
v 0.01528590 -0.03979915 0.06231067
v 0.01705590 -0.04508276 0.07046044
v 0.01624530 -0.04300318 0.06660476
v 0.01669012 -0.04108291 0.06429958
v 0.01839502 -0.04159084 0.06569640
v 0.02008443 -0.04387759 0.07001793
v 0.01896849 -0.04300318 0.06796557
v 0.02053080 -0.04108291 0.06621782
v 0.01735038 -0.03979915 0.06315865
v 0.01936837 -0.03979915 0.06411228
v 0.02133675 -0.03979915 0.06517019
v 0.01116071 -0.03185496 0.05940076
v 0.01116071 -0.03185496 0.05939559
v 0.01182926 -0.03160631 0.05939892
v 0.01261085 -0.03129293 0.05939637
v 0.01281995 -0.03120495 0.05939562
v 0.01282092 -0.03120453 0.05939565
v 0.01282053 -0.03120470 0.05939563
v 0.01281902 -0.03120535 0.05939561
v 0.01282119 -0.03120441 0.05939568
v 0.01282189 -0.03120412 0.05939584
v 0.01282169 -0.03120420 0.05939577
v 0.01282196 -0.03120408 0.05939588
v 0.01282522 -0.03120311 0.05939559
v 0.01282203 -0.03120406 0.05939591
v 0.01284992 -0.03119207 0.05939560
v 0.01336016 -0.03097273 0.05940904
v 0.01396706 -0.03069695 0.05940285
v 0.01404291 -0.03066029 0.05939881
v 0.01498468 -0.03019951 0.05940532
v 0.01522173 -0.03007772 0.05939905
v 0.01545667 -0.02995401 0.05940602
v 0.01658856 -0.02932633 0.05940009
v 0.01774392 -0.02861868 0.05939591
v 0.01796248 -0.02847935 0.05940599
v 0.01935559 -0.02752239 0.05939569
v 0.01950951 -0.02741318 0.05940407
v 0.01766480 -0.02607847 0.00000068
v 0.01900020 -0.02512344 0.00000068
v 0.02030794 -0.02600881 0.00399962
v 0.01990216 -0.02630961 0.00693440
v 0.02030794 -0.02600881 0.00696440
v 0.02028279 -0.02409976 0.00000068
v 0.02076586 -0.02644580 0.01400494
v 0.02076586 -0.02644580 0.01400073
v 0.02061982 -0.02656048 0.05939813
v 0.02145994 -0.02586359 0.05940516
v 0.02253019 -0.04387759 0.07166448
v 0.02237209 -0.04108291 0.06732238
v 0.02232250 -0.04255097 0.06931883
v 0.02383831 -0.04159084 0.06896482
v 0.02482405 -0.04255097 0.07113004
v 0.02586870 -0.04108291 0.06980936
v 0.02341674 -0.03979915 0.06643599
v 0.02509064 -0.03979915 0.06758240
v 0.02752090 -0.04108291 0.07118424
v 0.02686994 -0.03979915 0.06893189
v 0.02857484 -0.03979915 0.07037263
v 0.03020535 -0.03979915 0.07189912
v 0.02388159 -0.03119480 0.06675019
v 0.02454326 -0.03120366 0.06720427
v 0.02506032 -0.03120366 0.06755970
v 0.02522735 -0.03121092 0.06767941
v 0.02559530 -0.03120366 0.06795783
v 0.02619068 -0.03120366 0.06840705
v 0.02690133 -0.03120366 0.06895526
v 0.02720170 -0.03120366 0.06920507
v 0.02720170 -0.03120366 0.06920502
v 0.02809651 -0.03120366 0.06995687
v 0.02869733 -0.03120366 0.07047834
v 0.02937131 -0.03120366 0.07110777
v 0.02936586 -0.03120366 0.07110005
v 0.02971162 -0.03120366 0.07142159
v 0.03030760 -0.03120366 0.07200084
v 0.02163831 -0.02491547 0.00399962
v 0.02162498 -0.02492642 0.00693470
v 0.02163944 -0.02491443 0.00696440
v 0.02151257 -0.02301046 0.00000068
v 0.02290833 -0.02375349 0.00399962
v 0.02411547 -0.02252588 0.00399962
v 0.02289548 -0.02376525 0.00696440
v 0.02290902 -0.02375279 0.00696440
v 0.02411547 -0.02252588 0.00693440
v 0.02410325 -0.02253830 0.00696440
v 0.02208035 -0.02532173 0.01400073
v 0.02333348 -0.02413294 0.01400073
v 0.02452201 -0.02287943 0.01400073
v 0.02268199 -0.02185756 0.00000068
v 0.02171561 -0.02067974 0.00000284
v 0.02375332 -0.02068649 0.00000068
v 0.02171304 -0.02068649 0.00696953
v 0.02526164 -0.02123218 0.00399962
v 0.02569733 -0.02068649 0.00399962
v 0.02570433 -0.02067852 0.00399962
v 0.02633195 -0.01989049 0.00399962
v 0.02525723 -0.02123770 0.00693440
v 0.02525723 -0.02123770 0.00696440
v 0.02632554 -0.01989854 0.00696440
v 0.02633195 -0.01989049 0.00696440
v 0.02483428 -0.01937681 0.00000068
v 0.02581064 -0.01805652 0.00000068
v 0.02564272 -0.02156461 0.01400073
v 0.02669561 -0.02019528 0.01400073
v 0.02733371 -0.01848954 0.00399962
v 0.02733371 -0.01848954 0.00693440
v 0.02767421 -0.01877146 0.01400073
v 0.02857853 -0.01729995 0.01400073
v 0.02671631 -0.01668741 0.00000068
v 0.02754798 -0.01527372 0.00000068
v 0.02825926 -0.01703977 0.00399962
v 0.02910971 -0.01554330 0.00399962
v 0.02825926 -0.01703977 0.00693440
v 0.02825408 -0.01704788 0.00696365
v 0.02910971 -0.01554330 0.00693440
v 0.02830675 -0.01381758 0.00000068
v 0.02892649 -0.01245856 0.00000068
v 0.02988063 -0.01400437 0.00399962
v 0.03056982 -0.01242724 0.00399962
v 0.02988063 -0.01400437 0.00693440
v 0.03050170 -0.01258313 0.00696440
v 0.03056285 -0.01244320 0.00693440
v 0.03056982 -0.01242724 0.00696440
v 0.02940210 -0.01578416 0.01403073
v 0.02940210 -0.01578416 0.01400073
v 0.03014494 -0.01422409 0.01400073
v 0.03014494 -0.01422409 0.01403073
v 0.03080703 -0.01262654 0.01400073
v 0.02898821 -0.01232323 0.00000068
v 0.02959125 -0.01079704 0.00000068
v 0.03117618 -0.01081614 0.00399962
v 0.03117618 -0.01081614 0.00693440
v 0.03011367 -0.00924113 0.00000068
v 0.03053749 -0.00772029 0.00000068
v 0.03169859 -0.00917745 0.00399962
v 0.03172725 -0.00922539 0.00693470
v 0.03185855 -0.00872954 0.00696440
v 0.03138192 -0.01099834 0.01400073
v 0.03181469 -0.00928839 0.01400073
v 0.02177199 -0.02559312 0.05939633
v 0.02208035 -0.02532173 0.05941349
v 0.02267462 -0.02477332 0.05942244
v 0.02283296 -0.02461996 0.05941794
v 0.02337867 -0.02408528 0.05939660
v 0.02395657 -0.02348941 0.05940723
v 0.02395705 -0.02348890 0.05940723
v 0.02459544 -0.02279671 0.05939559
v 0.02548582 -0.02175796 0.05940117
v 0.02589464 -0.02125123 0.05941653
v 0.02606582 -0.02102642 0.05941100
v 0.02641144 -0.02057030 0.05939773
v 0.02672077 -0.02015779 0.05942559
v 0.02679911 -0.02005453 0.05939559
v 0.02714119 -0.01955847 0.05942559
v 0.02722975 -0.01943224 0.05942559
v 0.02768294 -0.01875587 0.05939587
v 0.02860273 -0.01725672 0.05940358
v 0.02881614 -0.01687212 0.05942559
v 0.02940210 -0.01578416 0.05939559
v 0.02950252 -0.01557806 0.05942559
v 0.02956867 -0.01544229 0.05941189
v 0.02964661 -0.01528234 0.05942559
v 0.02964661 -0.01528234 0.05939559
v 0.02997275 -0.01460026 0.05939559
v 0.03014494 -0.01422409 0.05939559
v 0.03029247 -0.01388556 0.05939559
v 0.03029247 -0.01388556 0.05942559
v 0.03037387 -0.01369878 0.05940849
v 0.03051807 -0.01334107 0.05942559
v 0.03054210 -0.01328046 0.05939559
v 0.03080690 -0.01263026 0.05939559
v 0.03089523 -0.01238944 0.05939559
v 0.03091879 -0.01232185 0.05942559
v 0.03134098 -0.01112311 0.05939559
v 0.03136503 -0.01105370 0.05939559
v 0.03139134 -0.01096394 0.05939559
v 0.03182909 -0.00944468 0.05939559
v 0.03186917 -0.00928502 0.05939559
v 0.03192450 -0.00908742 0.05939559
v 0.03201068 -0.00873381 0.05939559
v 0.03209634 -0.00838231 0.05942559
v 0.03215388 -0.00814077 0.05939559
v 0.03215388 -0.00814077 0.05942559
v 0.03139133 -0.01095795 0.06720427
v 0.03139187 -0.01095611 0.06720427
v 0.03139120 -0.01095836 0.06720427
v 0.03139130 -0.01095805 0.06720427
v 0.03139132 -0.01095800 0.06720427
v 0.03179189 -0.00961100 0.06720427
v 0.03178847 -0.00960526 0.06720427
v 0.03185327 -0.00938451 0.06720427
v 0.03223429 -0.00781343 0.06720427
v 0.03223680 -0.00778640 0.06720427
v 0.01944276 -0.04580000 0.07341327
v 0.01957629 -0.04575520 0.07344327
v 0.01957629 -0.04575520 0.07341327
v 0.00436958 -0.04391089 0.14022303
v 0.00111692 -0.03979519 0.14546825
v 0.00557900 -0.04580000 0.13687903
v 0.00777058 -0.03979519 0.14477322
v 0.01200644 -0.04395990 0.13855752
v 0.01211376 -0.03979519 0.14373946
v 0.01876399 -0.04411441 0.13521132
v 0.01632016 -0.03979519 0.14226471
v 0.02027826 -0.03979519 0.14039481
v 0.02274717 -0.04469127 0.07341327
v 0.02657235 -0.04300318 0.07341327
v 0.02775608 -0.04233734 0.07344327
v 0.02775608 -0.04233734 0.07341327
v 0.02782978 -0.04229588 0.07341621
v 0.02798361 -0.04220936 0.07344327
v 0.02798361 -0.04220936 0.07341327
v 0.02908321 -0.04159084 0.07341327
v 0.03169516 -0.04377179 0.08126005
v 0.03163913 -0.04580000 0.08794122
v 0.03144745 -0.03995057 0.07341327
v 0.03149037 -0.03992258 0.07344327
v 0.03149037 -0.03992258 0.07341327
v 0.03166444 -0.03980194 0.07341592
v 0.03166847 -0.03979915 0.07341327
v 0.03166934 -0.03955973 0.07341327
v 0.03119107 -0.03120366 0.07291368
v 0.03165735 -0.03120366 0.07340702
v 0.03166268 -0.03120366 0.07341266
v 0.03166270 -0.03123463 0.07341327
v 0.03552043 -0.04343990 0.08697892
v 0.03522478 -0.03979519 0.07787811
v 0.03768255 -0.03979519 0.08182256
v 0.03954692 -0.03979519 0.08567175
v 0.04128293 -0.03979519 0.09048235
v 0.03452406 -0.04580000 0.09712582
v 0.03452788 -0.04579765 0.09712794
v 0.03452788 -0.04579765 0.09715795
v 0.03472081 -0.04580000 0.10563920
v 0.03965318 -0.04264915 0.09997920
v 0.04216882 -0.03979519 0.09419042
v 0.04285270 -0.03979519 0.09928504
v 0.04294529 -0.03979519 0.10417502
v 0.04257494 -0.03979519 0.10835939
v 0.03040604 -0.04580000 0.11970761
v 0.03039026 -0.04375265 0.12562671
v 0.02147243 -0.04580000 0.12999387
v 0.02425951 -0.03979519 0.13797627
v 0.02772101 -0.03979519 0.13534252
v 0.03463822 -0.04395990 0.11804013
v 0.03681349 -0.04426892 0.10929809
v 0.03681018 -0.04427134 0.10929230
v 0.03566878 -0.03979519 0.12644634
v 0.04167853 -0.03979519 0.11298829
v 0.04029603 -0.03979519 0.11746196
v 0.03862105 -0.03979519 0.12135878
v 0.03248294 -0.03979519 0.13064305
v -0.00000809 0.00100144 0.00700029
v 0.00787633 0.03049994 0.00000068
v 0.00949900 0.03003250 0.00000068
v 0.01100470 0.02951460 0.00000068
v 0.01248669 0.02891729 0.00000068
v 0.01270595 0.02881793 0.00000068
v 0.01259688 0.03050000 0.00399962
v 0.01259688 0.03050000 0.00696953
v 0.01259788 0.03050000 0.00696953
v 0.01546614 0.02744091 0.00000068
v 0.01401617 0.02820925 0.00000068
v 0.01417232 0.02980076 0.00399962
v 0.01570594 0.02902115 0.00399962
v 0.01417188 0.02980096 0.00697054
v 0.01569914 0.02902461 0.00696953
v 0.01570536 0.02902146 0.00696953
v 0.01823781 0.02568267 0.00000068
v 0.01945301 0.02282359 0.00000068
v 0.01945012 0.02282711 0.00696953
v 0.01955115 0.02469727 0.00000068
v 0.02081150 0.02364502 0.00000068
v 0.02137755 0.02513814 0.00399962
v 0.02137817 0.02513758 0.00696974
v 0.02137755 0.02513814 0.00696440
v 0.01687428 0.02659822 0.00000068
v 0.01864492 0.02722761 0.00399962
v 0.01863327 0.02723513 0.00697054
v 0.01864774 0.02722557 0.00697046
v 0.01719774 0.02816268 0.00399962
v 0.01720032 0.02816101 0.00696994
v 0.01720032 0.02816101 0.00697029
v 0.02003912 0.02621893 0.00399962
v 0.02003962 0.02621853 0.00697158
v 0.02099648 0.03050000 0.01000270
v 0.02128113 0.03050000 0.06739748
v 0.03055684 -0.00764862 0.00000068
v 0.03213375 -0.00751117 0.00399962
v 0.03091110 -0.00605715 0.00000068
v 0.03118501 -0.00443969 0.00000068
v 0.03137388 -0.00280949 0.00000068
v 0.03147770 -0.00117080 0.00000068
v 0.02996722 0.00099539 0.00000068
v 0.02996722 0.00101233 0.00000068
v 0.03149433 0.00037520 0.00000068
v 0.03149098 0.00058221 0.00000068
v 0.02996722 0.00098233 0.00696953
v 0.02994754 0.00100144 0.00696953
v 0.02996722 0.00101233 0.00696953
v 0.03142876 0.00211391 0.00000068
v 0.03127508 0.00374849 0.00000068
v 0.03103795 0.00537239 0.00000068
v 0.03071603 0.00698346 0.00000068
v 0.03031065 0.00857317 0.00000068
v 0.03205405 0.00784455 0.00399962
v 0.03205075 0.00785665 0.00697200
v 0.02982180 0.01014151 0.00000068
v 0.03160098 0.00950477 0.00399962
v 0.03106312 0.01113935 0.00399962
v 0.03159849 0.00951234 0.00697106
v 0.03106312 0.01113935 0.00696440
v 0.03106203 0.01114215 0.00696999
v 0.03248167 -0.00582578 0.00399962
v 0.03274122 -0.00412341 0.00399962
v 0.03222810 -0.00761251 0.01400073
v 0.03255430 -0.00591959 0.01400073
v 0.03279007 -0.00420283 0.01400073
v 0.03291130 -0.00241043 0.00399962
v 0.03299193 -0.00069108 0.00399962
v 0.03298310 0.00099856 0.00399962
v 0.03298272 0.00103274 0.00399962
v 0.03298391 0.00099088 0.00696953
v 0.03298311 0.00099781 0.00693983
v 0.03298061 0.00107015 0.00697572
v 0.03293864 -0.00248947 0.01400073
v 0.03299677 -0.00075568 0.01400073
v 0.03299925 0.00099856 0.00986157
v 0.03288469 0.00275065 0.00399962
v 0.03288469 0.00275065 0.00697231
v 0.03288373 0.00275937 0.00697095
v 0.03269657 0.00446215 0.00399962
v 0.03241972 0.00616066 0.00399962
v 0.03241969 0.00616083 0.00399962
v 0.03269629 0.00446388 0.00696953
v 0.03269636 0.00446388 0.00696953
v 0.03242249 0.00614364 0.00696440
v 0.03241864 0.00616566 0.00697030
v 0.03226686 -0.00764998 0.05939559
v 0.03240225 -0.00695762 0.05939559
v 0.03240600 -0.00693997 0.05939559
v 0.03240590 -0.00693997 0.05942559
v 0.03257045 -0.00602518 0.05939559
v 0.03265291 -0.00545732 0.05939559
v 0.03265046 -0.00542977 0.05939559
v 0.03273839 -0.00483980 0.05939559
v 0.03283206 -0.00402570 0.05939559
v 0.03285084 -0.00380882 0.05939559
v 0.03285084 -0.00380882 0.05942559
v 0.03233888 -0.00732019 0.06720427
v 0.03247643 -0.00657735 0.06720427
v 0.03247670 -0.00657595 0.06720427
v 0.03257361 -0.00603538 0.06720427
v 0.03270282 -0.00515355 0.06720427
v 0.03281288 -0.00423931 0.06720427
v 0.03283827 -0.00398995 0.06720427
v 0.03285787 -0.00377646 0.06720427
v 0.03294852 -0.00250714 0.05939559
v 0.03297093 -0.00200919 0.05939559
v 0.03297383 -0.00156637 0.05939559
v 0.03298385 -0.00156637 0.05939559
v 0.03299985 -0.00060782 0.05939559
v 0.03293367 -0.00277160 0.06720427
v 0.03294193 -0.00265154 0.06720427
v 0.03297415 -0.00192220 0.06720427
v 0.03299162 -0.00100833 0.06720427
v 0.03300000 -0.00069610 0.06720427
v 0.02620384 0.01748108 0.00000068
v 0.02525662 0.01882293 0.00000068
v 0.02424184 0.02011350 0.00000068
v 0.02612435 0.02016264 0.00399962
v 0.02612215 0.02016534 0.00697136
v 0.02932772 0.01148083 0.00000068
v 0.02920049 0.01180528 0.00000068
v 0.02860566 0.01318845 0.00000068
v 0.02780907 0.01478654 0.00000068
v 0.02788183 0.01465627 0.00000068
v 0.02707686 0.01609223 0.00000068
v 0.02894612 0.01584437 0.00399962
v 0.02894442 0.01584730 0.00697150
v 0.03043915 0.01274187 0.00399962
v 0.03043571 0.01274954 0.00697054
v 0.02973304 0.01431235 0.00399962
v 0.02973304 0.01431235 0.00696440
v 0.02973134 0.01431567 0.00697004
v 0.02808105 0.01733151 0.00399962
v 0.02807852 0.01733537 0.00697095
v 0.02807360 0.01734290 0.00697095
v 0.02713913 0.01877165 0.00399962
v 0.02713575 0.01877628 0.00696904
v 0.02713575 0.01877628 0.00697110
v 0.02197694 0.02256570 0.00000068
v 0.02161734 0.02289701 0.00000068
v 0.02309497 0.02141846 0.00000068
v 0.02316082 0.02135065 0.00000068
v 0.02363604 0.02282711 0.00363649
v 0.02388283 0.02277370 0.00399962
v 0.02382855 0.02282711 0.00399962
v 0.02382984 0.02282711 0.00399962
v 0.02388177 0.02277477 0.00697150
v 0.02382855 0.02282711 0.00696440
v 0.02266021 0.02398901 0.00399962
v 0.02266021 0.02398901 0.00697087
v 0.02265979 0.02398939 0.00697086
v 0.02503671 0.02149595 0.00399962
v 0.02503671 0.02149595 0.00697036
v 0.02503553 0.02149725 0.00697032
v 0.02162314 0.03048267 0.01000270
v 0.02224980 0.03043358 0.01000270
v 0.02287646 0.03034984 0.01000270
v 0.02349021 0.03023721 0.01000341
v 0.02349021 0.03023721 0.01000270
v 0.02410395 0.03008994 0.01000270
v 0.02470477 0.02991090 0.01000270
v 0.02529914 0.02970009 0.01000270
v 0.02644264 0.02919184 0.01000270
v 0.02588058 0.02946040 0.01000270
v 0.03219890 0.02279832 0.01000270
v 0.03070653 0.02555325 0.01000270
v 0.03139134 0.02449922 0.01000270
v 0.03195987 0.02337876 0.01000270
v 0.03168852 0.02394765 0.01000270
v 0.03106186 0.02503345 0.01000270
v 0.02854875 0.02782304 0.01000270
v 0.02902682 0.02741586 0.01000270
v 0.02947905 0.02698270 0.01000270
v 0.02699824 0.02889151 0.01000270
v 0.02753446 0.02856231 0.01000270
v 0.02805129 0.02820711 0.01000270
v 0.02991190 0.02652932 0.01000270
v 0.03032536 0.02604996 0.01000822
v 0.03032537 0.02604995 0.01000270
v 0.03300000 0.01849843 0.01000270
v 0.03298062 0.01912759 0.01000270
v 0.03298061 0.01912797 0.01000270
v 0.03292893 0.01975172 0.01000270
v 0.03292893 0.01975172 0.01000293
v 0.03285141 0.02037548 0.01000270
v 0.03285138 0.02037564 0.01003155
v 0.03285134 0.02037586 0.01000270
v 0.03273512 0.02099347 0.01000270
v 0.03263598 0.02140194 0.01000270
v 0.03258653 0.02160567 0.01000270
v 0.03241209 0.02220633 0.01000270
v 0.02165860 0.03048760 0.05939559
v 0.02219812 0.03043936 0.05939559
v 0.02244375 0.03040336 0.05939559
v 0.02277956 0.03036428 0.05939559
v 0.02308982 0.03031291 0.05939559
v 0.02336033 0.03026015 0.05939559
v 0.02341753 0.03024783 0.05939559
v 0.02356773 0.03021988 0.05939559
v 0.02410395 0.03008994 0.05939559
v 0.02480591 0.02987896 0.05939559
v 0.02428186 0.03003788 0.05939559
v 0.02495677 0.02982498 0.05939559
v 0.02496595 0.02981553 0.05939559
v 0.02510855 0.02976917 0.05939559
v 0.02530560 0.02969720 0.05939559
v 0.02642325 0.02920339 0.05939559
v 0.02655601 0.02912980 0.05939559
v 0.02663662 0.02908968 0.05939559
v 0.02584562 0.02947363 0.05939559
v 0.02602271 0.02939687 0.05939559
v 0.02165544 0.03048792 0.06720427
v 0.02227830 0.03042868 0.06720427
v 0.02247915 0.03040336 0.06720427
v 0.02258234 0.03038680 0.06720427
v 0.02276664 0.03036713 0.06720427
v 0.02316053 0.03030179 0.06720427
v 0.02319603 0.03029481 0.06720427
v 0.02334519 0.03026438 0.06720427
v 0.02334485 0.03026445 0.06720427
v 0.02358231 0.03020973 0.06720427
v 0.02410395 0.03008929 0.06720427
v 0.02433943 0.03002071 0.06720427
v 0.02434593 0.03001887 0.06720427
v 0.02434299 0.03001983 0.06720427
v 0.02469503 0.02991250 0.06720427
v 0.02531205 0.02969669 0.06720427
v 0.02682617 0.02898745 0.06720427
v 0.02682704 0.02898701 0.06720427
v 0.02683157 0.02898450 0.06720427
v 0.02670667 0.02905337 0.06720427
v 0.02568454 0.02953753 0.06720427
v 0.02569075 0.02953530 0.06720427
v 0.02605009 0.02938111 0.06720427
v 0.02520453 0.03050000 0.07016499
v 0.03217306 0.02286474 0.05939559
v 0.03202904 0.02321467 0.05939559
v 0.03206524 0.02312869 0.05939559
v 0.03070653 0.02555325 0.05939559
v 0.03141073 0.02445879 0.05939559
v 0.03176701 0.02378881 0.05939559
v 0.03194048 0.02342497 0.05939559
v 0.03168898 0.02395247 0.05939833
v 0.03168836 0.02395372 0.05939932
v 0.03163499 0.02405082 0.05939559
v 0.03110692 0.02496001 0.05941484
v 0.03118084 0.02484698 0.05939559
v 0.03114556 0.02489538 0.05939559
v 0.03094953 0.02518547 0.05939559
v 0.02837431 0.02796165 0.05939559
v 0.02845830 0.02789680 0.05939559
v 0.02859550 0.02778536 0.05939559
v 0.02861335 0.02777106 0.05939559
v 0.02882227 0.02757849 0.05939559
v 0.02880075 0.02760842 0.05939559
v 0.02918023 0.02727186 0.05939559
v 0.02905469 0.02739004 0.05939559
v 0.02928524 0.02717352 0.05939559
v 0.02930789 0.02715189 0.05939559
v 0.02947905 0.02698847 0.05939559
v 0.02737096 0.02865734 0.05939559
v 0.02746466 0.02860264 0.05939559
v 0.02746466 0.02860264 0.05942559
v 0.02690097 0.02894431 0.05939559
v 0.02756676 0.02853921 0.05939559
v 0.02803191 0.02821866 0.05939559
v 0.02974482 0.02670540 0.05939559
v 0.02992163 0.02651257 0.05939559
v 0.03044295 0.02589112 0.05939559
v 0.03024135 0.02614936 0.05939559
v 0.03033584 0.02603135 0.05939559
v 0.03053193 0.02578034 0.05939559
v 0.02843049 0.02791730 0.06720427
v 0.02864719 0.02773551 0.06720427
v 0.02852575 0.02783973 0.06720427
v 0.02898183 0.02745584 0.06720427
v 0.02911726 0.02733207 0.06720427
v 0.02911789 0.02733207 0.06720427
v 0.02933349 0.02712947 0.06720427
v 0.02921042 0.02724074 0.06720427
v 0.02740244 0.02864491 0.06720427
v 0.02779160 0.02838686 0.06720427
v 0.02779550 0.02838422 0.06720427
v 0.02779287 0.02838603 0.06720427
v 0.02794573 0.02828096 0.06720427
v 0.02688195 0.03050000 0.07154680
v 0.02955774 0.02690015 0.06720427
v 0.02971162 0.02674922 0.06720427
v 0.03299661 0.01860782 0.05942559
v 0.03297001 0.01932429 0.05942559
v 0.03296594 0.01938501 0.05940210
v 0.03295263 0.01949649 0.05939559
v 0.03292893 0.01974884 0.05939559
v 0.03286433 0.02025709 0.05939559
v 0.03281222 0.02056118 0.05939559
v 0.03278422 0.02072033 0.05942559
v 0.03278422 0.02072033 0.05939559
v 0.03273512 0.02099347 0.05939559
v 0.03249414 0.02191979 0.05939559
v 0.03248011 0.02196604 0.05939834
v 0.03246223 0.02202503 0.05939559
v 0.03257361 0.02165765 0.05939559
v 0.03238625 0.02227563 0.05939559
v 0.03300000 0.02317360 0.06720427
v 0.03300000 0.02639287 0.07174858
v 0.00377881 0.02849840 0.14530419
v 0.00863753 0.02849840 0.14460739
v 0.01104269 0.03050000 0.14181046
v 0.01484508 0.02849840 0.14283097
v 0.02039821 0.03050000 0.13798156
v 0.01897573 0.02849840 0.14106162
v 0.03291992 -0.00328096 0.07341327
v 0.03298061 -0.00185577 0.07342765
v 0.03298984 -0.00134136 0.07341702
v 0.03299086 -0.00128421 0.07341266
v 0.03299780 -0.00089737 0.07342365
v 0.02845830 0.03050000 0.07299086
v 0.02887823 0.03050000 0.07341266
v 0.02949139 0.03006078 0.07343104
v 0.02987848 0.02978350 0.07341266
v 0.03114524 0.02887610 0.07341266
v 0.03237589 0.02795720 0.07341266
v 0.03269283 0.02772246 0.07342751
v 0.03299634 0.02749487 0.07342725
v 0.03300000 0.02749172 0.07342728
v 0.03300000 0.02749213 0.07341266
v 0.03563511 0.03050000 0.08226534
v 0.03793295 0.02849840 0.08225475
v 0.04004878 0.02849840 0.08694629
v 0.03986571 0.03050000 0.09428303
v 0.04168905 0.02849840 0.09205414
v 0.04275590 0.02849752 0.09841449
v 0.04275591 0.02849840 0.09841447
v 0.04289163 0.02849840 0.10497770
v 0.04289162 0.02849699 0.10497765
v 0.02368926 0.02849840 0.13834408
v 0.02916874 0.03050000 0.13107084
v 0.02952435 0.02849840 0.13369577
v 0.03711861 0.03050000 0.11920045
v 0.03754367 0.02849840 0.12338480
v 0.04246973 0.02849840 0.10923083
v 0.04117351 0.02849840 0.11488996
v 0.03988570 0.02849840 0.11850452
v 0.03397590 0.02849840 0.12881018
f 4 291 290
f 4 290 9
f 2 307 1
f 2 1 14
f 2 9 290
f 2 3 9
f 3 10 9
f 3 2 17
f 3 17 10
f 4 6 291
f 6 298 291
f 6 299 298
f 4 9 11
f 4 7 6
f 5 299 6
f 7 11 182
f 4 11 7
f 6 7 183
f 5 6 183
f 8 11 10
f 9 10 11
f 8 10 24
f 8 12 11
f 11 12 187
f 8 25 12
f 1 302 308
f 13 1 308
f 1 13 14
f 14 15 2
f 15 17 2
f 10 17 16
f 16 24 10
f 302 13 308
f 18 22 16
f 22 24 16
f 8 24 19
f 8 19 25
f 12 25 26
f 21 99 100
f 21 276 203
f 21 100 274
f 21 274 276
f 19 20 25
f 20 21 25
f 24 22 23
f 21 26 25
f 88 27 66
f 27 44 28
f 29 28 44
f 28 66 27
f 28 70 66
f 58 31 59
f 29 31 28
f 29 59 31
f 28 31 70
f 30 70 31
f 58 32 31
f 31 32 30
f 37 40 48
f 34 36 33
f 35 36 34
f 36 37 55
f 33 38 269
f 33 36 38
f 36 56 38
f 53 38 55
f 55 38 56
f 36 55 56
f 38 53 269
f 36 39 40
f 37 36 40
f 35 39 36
f 48 40 41
f 41 57 48
f 35 42 39
f 43 39 42
f 39 43 40
f 40 43 41
f 46 37 45
f 37 46 52
f 51 54 46
f 45 51 46
f 44 51 45
f 44 45 49
f 47 44 49
f 37 49 45
f 37 48 49
f 44 50 51
f 27 50 44
f 27 88 50
f 50 88 51
f 29 44 47
f 37 52 53
f 46 54 52
f 37 53 55
f 52 54 53
f 53 54 272
f 53 272 269
f 47 49 57
f 47 57 59
f 49 48 57
f 59 57 58
f 29 47 59
f 58 96 32
f 30 32 91
f 57 41 102
f 42 99 43
f 41 43 98
f 57 104 58
f 60 61 85
f 62 60 67
f 61 62 64
f 60 62 61
f 63 65 64
f 63 64 62
f 67 72 69
f 66 67 68
f 66 68 88
f 69 72 88
f 67 69 68
f 69 88 68
f 66 70 67
f 67 70 71
f 62 67 71
f 67 60 72
f 60 85 72
f 62 75 63
f 63 75 73
f 63 73 65
f 65 73 74
f 70 30 71
f 75 71 30
f 62 71 75
f 61 77 85
f 61 76 77
f 76 81 77
f 85 77 82
f 76 61 78
f 76 78 84
f 78 65 79
f 61 64 78
f 65 78 64
f 76 80 81
f 80 360 82
f 81 82 77
f 80 82 81
f 82 365 72
f 76 83 80
f 76 84 83
f 78 79 84
f 80 83 360
f 83 362 360
f 85 82 72
f 72 366 51
f 74 79 65
f 74 86 79
f 79 86 84
f 83 84 86
f 87 83 86
f 362 83 87
f 87 364 362
f 88 72 51
f 51 366 54
f 366 272 54
f 272 370 273
f 73 75 106
f 109 74 73
f 30 113 75
f 74 105 86
f 86 121 87
f 87 121 364
f 306 399 397
f 304 400 399
f 403 305 404
f 304 401 400
f 304 402 401
f 305 403 402
f 305 405 404
f 305 411 405
f 305 642 411
f 96 58 104
f 92 30 91
f 92 93 30
f 95 32 94
f 95 91 32
f 32 96 94
f 102 41 97
f 97 41 98
f 42 275 100
f 42 100 99
f 43 101 98
f 43 99 101
f 57 102 103
f 57 103 104
f 21 92 91
f 21 93 92
f 17 15 123
f 124 302 307
f 125 307 303
f 124 13 302
f 306 398 303
f 304 399 306
f 305 402 304
f 13 124 14
f 14 122 15
f 22 123 23
f 123 19 24
f 23 123 24
f 19 123 20
f 20 123 21
f 16 17 123
f 16 123 18
f 18 123 22
f 21 108 110
f 21 114 113
f 21 115 114
f 21 113 93
f 21 106 115
f 21 110 107
f 21 107 106
f 108 21 116
f 116 21 118
f 15 122 123
f 21 123 118
f 21 103 102
f 21 102 97
f 21 97 98
f 21 94 96
f 21 104 103
f 21 96 104
f 21 95 94
f 21 91 95
f 21 101 99
f 21 98 101
f 100 275 274
f 74 111 105
f 108 109 73
f 110 73 107
f 108 73 110
f 106 107 73
f 109 111 74
f 113 114 75
f 93 113 30
f 114 115 75
f 106 75 115
f 111 112 105
f 105 112 86
f 112 116 86
f 117 118 86
f 86 116 117
f 86 118 119
f 121 89 364
f 119 124 86
f 86 124 121
f 111 109 116
f 109 108 116
f 116 112 111
f 124 307 125
f 125 303 126
f 14 124 122
f 126 303 128
f 128 303 127
f 127 303 90
f 395 90 303
f 396 395 303
f 303 398 396
f 306 397 398
f 117 116 118
f 119 118 123
f 121 125 120
f 120 89 121
f 120 126 89
f 127 386 89
f 119 122 124
f 122 119 123
f 121 124 125
f 120 125 126
f 89 128 127
f 126 128 89
f 129 130 131
f 129 270 132
f 132 134 147
f 132 270 133
f 132 133 134
f 129 135 130
f 129 132 135
f 132 147 135
f 147 136 135
f 136 147 150
f 131 138 267
f 137 271 138
f 141 137 138
f 136 141 135
f 130 141 131
f 130 135 141
f 131 141 138
f 136 150 140
f 136 140 141
f 139 141 140
f 143 161 168
f 143 168 142
f 144 164 151
f 147 144 149
f 144 146 149
f 144 145 146
f 144 151 145
f 144 147 148
f 134 148 147
f 133 148 134
f 133 164 148
f 144 148 164
f 147 149 150
f 151 164 153
f 152 153 154
f 152 154 172
f 151 153 152
f 151 152 155
f 151 155 145
f 155 152 156
f 152 160 156
f 155 156 163
f 158 157 156
f 157 162 156
f 158 156 159
f 159 156 160
f 162 161 156
f 156 161 163
f 270 693 133
f 149 165 150
f 146 165 149
f 150 165 140
f 155 166 145
f 146 145 165
f 145 166 165
f 139 140 165
f 155 143 166
f 143 155 163
f 143 163 161
f 162 168 161
f 143 142 166
f 137 203 271
f 206 137 141
f 139 209 141
f 141 167 206
f 141 208 167
f 142 168 212
f 165 215 139
f 165 166 218
f 142 225 166
f 157 169 162
f 157 158 171
f 162 169 168
f 158 159 176
f 159 160 178
f 157 171 169
f 158 176 171
f 159 178 177
f 159 177 176
f 171 170 169
f 152 172 173
f 172 154 173
f 152 173 174
f 175 160 152
f 164 693 153
f 133 693 164
f 152 174 175
f 153 693 154
f 154 693 173
f 693 273 695
f 178 160 687
f 687 160 686
f 173 693 174
f 693 175 174
f 175 700 160
f 179 696 695
f 168 169 251
f 169 170 252
f 171 256 170
f 171 176 256
f 176 177 258
f 177 178 261
f 178 687 263
f 687 688 263
f 5 180 323
f 5 183 181
f 5 181 180
f 180 326 323
f 7 182 183
f 11 188 182
f 182 185 183
f 181 183 185
f 180 184 326
f 180 181 191
f 180 191 184
f 181 192 191
f 181 185 192
f 182 192 185
f 182 193 192
f 182 186 193
f 187 12 224
f 187 224 189
f 186 189 223
f 11 187 188
f 187 189 188
f 182 188 186
f 186 188 189
f 190 193 199
f 191 192 194
f 191 194 195
f 191 196 184
f 191 195 196
f 192 193 197
f 192 197 194
f 194 232 195
f 195 233 196
f 190 197 193
f 194 197 234
f 190 234 197
f 186 199 193
f 186 198 199
f 198 200 199
f 186 220 198
f 198 221 200
f 199 200 201
f 190 199 201
f 200 221 201
f 201 222 235
f 203 276 271
f 137 202 203
f 202 137 206
f 209 139 205
f 205 139 214
f 209 208 141
f 206 167 207
f 208 207 167
f 211 142 212
f 212 168 213
f 139 215 214
f 165 216 215
f 165 217 216
f 217 165 218
f 218 166 219
f 219 166 229
f 166 225 229
f 142 224 225
f 222 221 142
f 223 224 142
f 142 221 220
f 220 223 142
f 222 142 226
f 142 227 226
f 142 228 227
f 142 211 228
f 12 225 224
f 12 26 225
f 21 206 207
f 21 210 204
f 21 208 210
f 21 207 208
f 21 204 205
f 21 205 214
f 21 203 202
f 21 202 206
f 21 215 216
f 21 216 217
f 21 217 218
f 21 214 215
f 26 218 219
f 26 219 229
f 26 229 225
f 209 205 204
f 208 209 210
f 209 204 210
f 21 218 26
f 189 224 223
f 186 223 220
f 198 220 221
f 201 221 222
f 222 226 235
f 190 230 234
f 190 201 230
f 230 231 234
f 230 238 231
f 230 236 238
f 195 232 233
f 194 234 232
f 233 241 196
f 232 241 233
f 232 234 243
f 232 242 241
f 232 243 242
f 241 245 196
f 231 243 234
f 201 235 236
f 201 236 230
f 226 237 235
f 235 237 236
f 236 237 248
f 236 248 238
f 227 248 237
f 228 249 248
f 231 239 243
f 231 238 239
f 238 240 239
f 239 240 734
f 239 734 247
f 240 740 734
f 242 246 244
f 241 242 244
f 241 244 245
f 242 243 246
f 196 973 184
f 239 247 243
f 244 246 245
f 243 247 246
f 245 774 196
f 238 248 240
f 240 248 249
f 228 740 249
f 240 249 740
f 213 168 250
f 168 251 250
f 169 252 251
f 170 254 252
f 254 170 255
f 170 256 255
f 256 176 257
f 176 258 257
f 258 177 259
f 177 261 259
f 261 178 262
f 178 263 262
f 688 753 263
f 226 227 237
f 227 228 248
f 211 740 228
f 212 213 740
f 211 212 740
f 213 250 740
f 250 251 740
f 251 252 253
f 253 252 254
f 251 253 740
f 253 254 740
f 254 255 740
f 255 256 740
f 256 257 740
f 257 258 740
f 258 259 740
f 259 260 740
f 260 262 740
f 262 263 740
f 740 263 753
f 259 261 260
f 260 261 262
f 33 268 264
f 129 265 266
f 129 264 265
f 264 268 265
f 268 269 270
f 268 270 265
f 33 264 267
f 33 267 34
f 131 267 264
f 129 131 264
f 33 269 268
f 129 266 270
f 265 270 266
f 34 267 271
f 42 35 271
f 138 271 267
f 34 271 35
f 269 272 693
f 693 272 273
f 270 269 693
f 42 271 275
f 179 273 372
f 179 695 273
f 179 372 1032
f 276 275 271
f 276 274 275
f 277 279 281
f 277 278 279
f 279 280 289
f 280 296 289
f 279 292 281
f 280 297 296
f 278 280 279
f 281 282 284
f 281 288 282
f 282 309 286
f 277 281 283
f 281 284 283
f 282 285 284
f 282 286 285
f 281 287 288
f 281 292 287
f 282 288 309
f 280 642 297
f 289 296 293
f 289 300 292
f 291 294 290
f 289 293 322
f 321 293 294
f 279 289 292
f 295 296 297
f 294 296 295
f 293 296 294
f 2 295 297
f 2 294 295
f 2 290 294
f 2 297 301
f 289 324 300
f 300 324 292
f 291 321 294
f 289 325 323
f 289 323 324
f 289 322 325
f 291 298 321
f 321 322 293
f 299 321 298
f 5 321 299
f 2 301 307
f 1 307 302
f 301 303 307
f 301 304 306
f 301 305 304
f 301 306 303
f 286 309 310
f 309 311 310
f 309 312 311
f 309 317 312
f 288 317 309
f 312 317 313
f 312 313 314
f 313 315 314
f 313 316 315
f 313 317 327
f 313 318 316
f 316 318 319
f 313 327 318
f 318 328 319
f 319 328 320
f 277 647 278
f 277 283 647
f 278 649 280
f 280 643 642
f 643 280 645
f 280 644 645
f 280 646 644
f 283 284 657
f 284 285 658
f 285 286 660
f 297 642 301
f 301 642 305
f 286 310 668
f 310 311 669
f 311 312 670
f 312 314 671
f 314 315 673
f 315 316 674
f 316 319 676
f 319 320 677
f 5 325 321
f 5 323 325
f 321 325 322
f 1013 288 287
f 323 326 973
f 184 973 326
f 324 323 1010
f 292 324 1013
f 287 292 1013
f 318 327 328
f 320 328 329
f 327 332 328
f 328 333 330
f 328 330 329
f 330 333 331
f 317 288 1013
f 317 1021 327
f 332 327 978
f 328 332 333
f 331 333 334
f 333 335 334
f 332 976 333
f 333 976 977
f 333 977 335
f 320 329 680
f 329 330 681
f 331 681 330
f 334 683 331
f 334 335 683
f 335 977 684
f 336 360 362
f 364 336 362
f 336 340 337
f 338 342 365
f 336 337 338
f 337 339 338
f 338 339 342
f 339 341 342
f 336 364 340
f 337 340 339
f 339 340 341
f 341 350 342
f 342 343 366
f 342 350 344
f 343 342 344
f 345 343 344
f 343 346 367
f 346 347 367
f 343 352 346
f 343 345 352
f 346 352 348
f 352 353 348
f 349 347 346
f 346 348 349
f 349 354 347
f 349 348 353
f 350 345 344
f 345 350 351
f 345 351 352
f 340 364 386
f 341 340 390
f 341 394 350
f 350 409 351
f 354 373 347
f 354 356 374
f 355 354 349
f 356 354 355
f 355 358 356
f 358 359 356
f 356 359 357
f 359 379 357
f 349 353 415
f 349 416 355
f 358 355 417
f 358 418 359
f 352 484 353
f 351 484 352
f 82 360 361
f 336 361 360
f 361 365 82
f 336 363 361
f 365 366 72
f 363 365 361
f 336 338 363
f 338 365 363
f 366 368 272
f 370 272 368
f 273 370 372
f 342 366 365
f 343 367 366
f 347 373 367
f 368 366 369
f 370 368 369
f 370 369 371
f 370 371 372
f 354 374 373
f 373 374 367
f 356 375 374
f 374 375 377
f 356 357 375
f 357 377 375
f 382 367 374
f 367 430 366
f 374 377 378
f 438 369 366
f 376 378 377
f 357 376 377
f 376 380 378
f 374 378 382
f 367 382 429
f 379 376 357
f 379 380 376
f 379 383 380
f 378 380 382
f 381 426 382
f 380 381 382
f 380 383 384
f 380 384 381
f 381 384 385
f 369 445 371
f 429 430 367
f 430 438 366
f 89 386 364
f 386 387 340
f 340 387 388
f 340 388 389
f 341 390 392
f 392 393 341
f 394 406 350
f 341 393 394
f 340 389 401
f 340 401 390
f 406 407 350
f 408 350 407
f 408 409 350
f 409 410 351
f 414 351 410
f 386 388 387
f 386 398 388
f 388 398 389
f 392 390 391
f 391 390 401
f 394 393 392
f 392 406 394
f 406 392 407
f 391 411 392
f 407 392 411
f 127 395 386
f 395 396 386
f 386 396 398
f 395 127 90
f 389 398 397
f 389 397 400
f 397 399 400
f 400 401 389
f 401 402 391
f 391 402 403
f 404 405 403
f 391 403 411
f 403 405 411
f 408 410 409
f 407 412 408
f 408 414 410
f 407 411 412
f 408 412 414
f 412 413 414
f 411 642 412
f 642 413 412
f 642 643 413
f 413 643 645
f 414 413 645
f 414 645 644
f 414 644 646
f 484 351 414
f 646 650 414
f 359 419 379
f 349 415 416
f 355 416 417
f 358 417 418
f 359 418 419
f 379 419 420
f 353 484 415
f 415 485 416
f 416 486 417
f 417 486 418
f 418 490 419
f 419 493 420
f 420 494 421
f 421 495 446
f 381 422 426
f 422 424 427
f 379 420 383
f 381 385 422
f 385 423 422
f 422 423 424
f 423 425 424
f 383 421 384
f 384 421 385
f 385 446 423
f 426 427 382
f 422 427 426
f 382 427 429
f 424 429 427
f 424 428 429
f 428 430 429
f 425 431 424
f 431 428 424
f 383 420 421
f 423 448 425
f 425 449 431
f 385 421 446
f 423 446 448
f 425 448 449
f 432 438 430
f 428 432 430
f 432 434 438
f 431 433 428
f 433 432 428
f 433 434 432
f 435 434 433
f 435 433 437
f 431 450 433
f 433 452 437
f 438 444 369
f 369 444 445
f 436 440 438
f 434 435 438
f 435 436 438
f 436 439 440
f 439 441 440
f 441 465 440
f 439 462 441
f 436 435 442
f 436 442 439
f 435 437 442
f 439 442 443
f 439 443 462
f 440 465 466
f 431 449 450
f 433 450 452
f 437 452 453
f 442 437 453
f 442 453 443
f 454 464 443
f 443 453 454
f 454 455 464
f 455 456 463
f 446 447 448
f 452 450 451
f 456 457 471
f 455 463 464
f 443 463 462
f 462 463 467
f 443 464 463
f 463 469 467
f 456 469 463
f 456 471 469
f 457 472 471
f 457 600 472
f 441 462 465
f 465 467 466
f 462 467 465
f 466 467 468
f 467 470 468
f 466 605 440
f 466 468 599
f 467 469 471
f 468 470 597
f 470 598 597
f 467 471 470
f 598 470 472
f 471 472 470
f 472 600 598
f 457 458 600
f 458 459 604
f 459 460 608
f 458 604 600
f 459 603 604
f 459 608 603
f 460 461 611
f 461 473 618
f 473 474 620
f 478 481 479
f 478 480 481
f 480 482 481
f 446 500 447
f 447 501 448
f 448 502 449
f 450 449 503
f 450 506 451
f 452 451 507
f 452 511 453
f 453 511 454
f 454 513 455
f 456 455 516
f 456 517 457
f 457 524 458
f 524 459 458
f 459 528 460
f 460 532 461
f 473 461 552
f 474 473 554
f 474 554 475
f 475 557 476
f 477 476 560
f 561 479 477
f 479 562 478
f 480 478 565
f 480 566 482
f 482 571 483
f 484 485 415
f 416 485 486
f 418 486 487
f 487 488 418
f 488 489 418
f 418 489 490
f 497 484 414
f 485 484 486
f 486 484 487
f 489 491 490
f 484 497 487
f 414 498 497
f 414 650 498
f 491 419 490
f 491 493 419
f 420 493 494
f 421 494 495
f 495 496 446
f 446 496 499
f 491 492 493
f 493 495 494
f 493 496 495
f 487 497 488
f 488 497 489
f 489 497 491
f 491 497 492
f 492 497 493
f 493 497 496
f 497 499 496
f 497 502 499
f 499 500 446
f 447 500 501
f 501 502 448
f 449 502 503
f 450 503 504
f 504 505 450
f 450 505 506
f 506 507 451
f 507 508 452
f 508 509 452
f 509 510 452
f 511 452 510
f 511 512 454
f 454 512 513
f 513 514 455
f 514 515 455
f 516 455 515
f 456 516 517
f 517 518 457
f 518 520 457
f 520 519 457
f 457 519 521
f 521 522 457
f 522 523 457
f 457 523 524
f 524 525 459
f 459 525 527
f 459 527 526
f 528 459 526
f 528 529 460
f 529 530 460
f 460 530 531
f 460 531 532
f 461 532 552
f 551 473 553
f 473 552 553
f 551 554 473
f 555 475 554
f 555 556 475
f 556 557 475
f 476 557 558
f 558 560 476
f 477 560 561
f 561 562 479
f 562 563 478
f 563 564 478
f 564 565 478
f 480 565 566
f 569 482 566
f 482 569 571
f 500 499 501
f 499 502 501
f 497 503 502
f 497 504 503
f 497 505 504
f 497 508 505
f 506 505 507
f 505 508 507
f 497 510 509
f 508 497 509
f 510 497 514
f 497 533 514
f 497 498 533
f 514 511 510
f 511 513 512
f 511 514 513
f 514 533 515
f 515 518 516
f 516 518 517
f 519 522 521
f 524 523 525
f 515 533 518
f 518 533 520
f 519 520 539
f 519 539 522
f 522 539 523
f 523 539 525
f 527 525 539
f 526 527 543
f 526 530 528
f 528 530 529
f 531 552 532
f 526 543 530
f 530 549 531
f 536 498 653
f 653 652 545
f 545 652 655
f 498 534 533
f 498 535 534
f 498 536 535
f 536 653 537
f 537 653 538
f 538 653 540
f 540 653 541
f 541 653 542
f 542 653 543
f 543 653 544
f 545 544 653
f 545 655 662
f 545 662 664
f 533 534 520
f 534 535 520
f 520 535 539
f 539 540 527
f 527 540 543
f 536 537 535
f 537 539 535
f 537 538 539
f 539 538 540
f 540 541 542
f 542 543 540
f 543 544 530
f 530 544 548
f 530 548 549
f 549 572 531
f 544 545 548
f 545 546 548
f 546 547 548
f 545 666 546
f 545 664 666
f 546 666 547
f 547 666 548
f 666 549 548
f 549 666 572
f 572 666 573
f 573 666 574
f 574 666 576
f 576 666 575
f 666 667 584
f 552 531 572
f 553 552 572
f 553 576 551
f 551 555 554
f 551 576 555
f 555 575 556
f 560 558 557
f 556 579 557
f 557 580 560
f 560 580 559
f 561 560 559
f 561 559 563
f 562 561 563
f 559 584 563
f 563 584 564
f 565 564 588
f 565 587 567
f 565 567 566
f 566 567 569
f 567 568 569
f 568 570 569
f 569 570 571
f 567 592 568
f 570 568 593
f 570 593 571
f 553 572 573
f 573 574 553
f 553 574 576
f 555 576 575
f 556 575 579
f 557 579 580
f 559 580 584
f 578 575 577
f 575 578 579
f 581 584 580
f 575 666 577
f 577 666 578
f 578 666 579
f 666 580 579
f 580 666 581
f 581 666 583
f 666 584 583
f 550 667 582
f 550 586 667
f 584 667 585
f 667 586 585
f 550 588 586
f 589 588 550
f 550 590 589
f 550 582 591
f 564 584 585
f 585 588 564
f 565 588 587
f 581 583 584
f 586 588 585
f 587 588 589
f 587 589 590
f 567 587 592
f 592 594 568
f 568 596 593
f 594 596 568
f 587 590 592
f 592 590 591
f 593 596 595
f 550 591 590
f 582 592 591
f 595 596 582
f 582 594 592
f 582 596 594
f 595 582 640
f 371 1078 372
f 371 445 637
f 597 599 468
f 599 605 466
f 597 598 599
f 598 602 599
f 599 602 601
f 600 602 598
f 438 440 635
f 444 438 635
f 635 445 444
f 601 605 599
f 440 605 633
f 601 602 606
f 602 600 603
f 603 600 604
f 460 611 608
f 606 602 603
f 603 608 606
f 461 610 611
f 475 630 474
f 475 476 629
f 476 477 631
f 461 618 610
f 477 479 624
f 479 481 626
f 481 482 625
f 482 483 627
f 601 606 605
f 605 606 607
f 606 609 607
f 607 609 613
f 606 608 609
f 608 611 609
f 609 615 613
f 473 620 618
f 483 612 628
f 474 619 620
f 474 630 619
f 611 610 609
f 609 610 615
f 615 610 618
f 475 629 630
f 476 631 629
f 477 624 631
f 479 626 624
f 613 616 607
f 613 615 614
f 623 605 607
f 613 614 616
f 616 623 607
f 614 615 616
f 616 617 621
f 616 615 617
f 615 618 620
f 481 625 626
f 482 627 625
f 483 628 627
f 615 619 617
f 615 620 619
f 617 619 622
f 635 440 633
f 445 635 636
f 636 637 445
f 605 623 633
f 621 623 616
f 617 622 621
f 621 622 623
f 622 632 623
f 622 619 630
f 624 622 631
f 624 626 622
f 625 622 626
f 625 627 622
f 629 622 630
f 629 631 622
f 483 571 612
f 612 638 628
f 1050 371 637
f 632 633 623
f 622 633 632
f 635 633 634
f 633 622 1033
f 634 636 635
f 636 634 637
f 633 1033 634
f 627 1065 622
f 628 1065 627
f 638 1065 628
f 571 638 612
f 593 638 571
f 593 595 638
f 595 639 638
f 595 640 639
f 639 641 638
f 639 640 641
f 638 641 1065
f 640 582 1066
f 667 1350 582
f 641 640 1066
f 280 650 646
f 649 278 647
f 280 649 650
f 283 657 647
f 284 658 657
f 285 660 658
f 286 668 660
f 310 669 668
f 311 670 669
f 312 671 670
f 314 673 671
f 315 674 673
f 316 676 674
f 319 677 676
f 320 678 677
f 320 680 678
f 657 648 647
f 648 656 649
f 647 648 649
f 648 659 656
f 649 656 651
f 649 651 650
f 498 650 653
f 653 650 651
f 653 651 652
f 651 654 652
f 654 655 652
f 651 656 654
f 656 663 654
f 659 661 665
f 656 659 665
f 648 657 659
f 657 658 659
f 658 661 659
f 658 660 661
f 660 668 661
f 654 664 655
f 655 664 662
f 656 665 663
f 654 663 664
f 663 665 664
f 664 665 666
f 661 668 669
f 669 672 661
f 669 670 672
f 670 671 672
f 671 673 672
f 672 675 661
f 673 675 672
f 673 674 675
f 674 676 675
f 675 676 677
f 675 677 679
f 677 678 679
f 678 680 679
f 329 681 680
f 331 683 681
f 335 684 683
f 666 1350 667
f 665 1362 666
f 665 661 1362
f 679 680 681
f 681 682 679
f 682 685 679
f 661 675 1362
f 675 679 1362
f 682 681 683
f 683 685 682
f 683 684 685
f 679 685 1342
f 160 712 686
f 686 688 687
f 686 689 688
f 686 690 689
f 690 686 712
f 700 175 693
f 693 695 694
f 700 693 694
f 700 707 160
f 695 696 694
f 696 702 694
f 707 710 160
f 710 713 160
f 712 160 713
f 690 712 691
f 691 713 692
f 692 713 697
f 712 713 691
f 697 713 698
f 698 713 699
f 700 701 707
f 701 703 707
f 700 708 701
f 701 708 703
f 703 704 707
f 703 708 704
f 700 694 869
f 689 753 688
f 689 690 755
f 690 691 758
f 691 692 760
f 692 697 764
f 698 766 697
f 698 699 769
f 699 713 706
f 705 699 706
f 704 708 707
f 707 708 709
f 708 716 709
f 707 709 710
f 710 711 713
f 711 710 714
f 709 714 710
f 709 715 714
f 708 700 726
f 716 708 721
f 709 716 717
f 709 717 718
f 709 718 715
f 717 720 718
f 718 720 722
f 716 719 717
f 716 721 719
f 717 719 721
f 721 708 726
f 726 700 819
f 717 721 720
f 720 721 726
f 706 713 711
f 706 711 714
f 715 723 714
f 706 714 723
f 715 718 723
f 718 725 723
f 718 722 725
f 725 722 731
f 725 724 723
f 725 731 724
f 726 727 720
f 726 818 727
f 727 818 729
f 722 720 727
f 722 727 728
f 727 729 728
f 728 729 730
f 729 821 730
f 722 728 731
f 731 728 732
f 732 728 730
f 732 730 733
f 730 821 733
f 733 821 825
f 825 824 733
f 705 793 699
f 706 795 705
f 723 806 706
f 723 724 808
f 731 811 724
f 732 814 731
f 733 815 732
f 824 826 733
f 247 734 735
f 734 740 736
f 734 736 735
f 735 736 737
f 735 737 748
f 736 743 737
f 245 246 738
f 246 247 738
f 247 735 738
f 245 738 739
f 738 747 739
f 735 748 738
f 739 774 245
f 739 747 746
f 738 748 747
f 736 740 741
f 736 741 742
f 736 742 743
f 740 799 741
f 737 745 744
f 737 743 745
f 744 745 776
f 746 747 749
f 748 750 749
f 747 748 749
f 774 739 746
f 774 973 196
f 737 744 748
f 744 750 748
f 749 774 746
f 749 775 774
f 749 750 773
f 744 772 750
f 742 751 743
f 743 751 752
f 741 796 742
f 742 798 751
f 743 752 745
f 745 752 779
f 751 797 752
f 753 689 755
f 755 690 754
f 690 756 754
f 756 690 757
f 690 758 757
f 758 691 759
f 691 760 759
f 760 692 762
f 692 763 762
f 692 764 763
f 697 765 764
f 765 697 767
f 766 767 697
f 766 698 768
f 768 698 769
f 699 793 769
f 740 753 755
f 740 755 754
f 740 754 756
f 740 756 757
f 740 757 758
f 740 758 759
f 740 759 761
f 740 761 762
f 740 762 763
f 740 763 764
f 740 764 765
f 740 765 767
f 740 767 766
f 740 766 768
f 759 760 761
f 760 762 761
f 740 768 769
f 740 769 792
f 740 792 794
f 740 794 795
f 740 795 799
f 741 799 796
f 742 796 798
f 745 770 776
f 749 773 775
f 750 772 773
f 773 777 775
f 774 775 777
f 744 776 772
f 772 783 773
f 773 783 777
f 774 777 778
f 778 973 774
f 772 776 783
f 770 771 776
f 776 784 783
f 771 784 776
f 745 779 770
f 770 779 780
f 752 800 779
f 779 802 780
f 770 780 771
f 771 780 781
f 771 781 784
f 780 802 781
f 781 801 789
f 777 783 787
f 777 782 778
f 778 782 973
f 777 786 782
f 777 787 786
f 783 784 785
f 783 785 787
f 782 786 973
f 786 828 973
f 785 788 787
f 787 788 830
f 786 787 830
f 781 789 784
f 789 801 790
f 790 803 791
f 784 789 790
f 784 790 785
f 785 790 788
f 788 790 791
f 788 791 829
f 791 805 834
f 705 794 793
f 794 705 795
f 706 799 795
f 706 800 797
f 706 796 799
f 706 798 796
f 706 797 798
f 706 802 800
f 804 805 706
f 706 803 801
f 706 801 802
f 706 805 803
f 804 706 806
f 723 807 806
f 807 723 808
f 724 809 808
f 724 810 809
f 724 811 810
f 731 812 811
f 731 813 812
f 731 814 813
f 732 815 814
f 733 816 815
f 733 817 816
f 817 733 826
f 751 798 797
f 752 797 800
f 779 800 802
f 793 792 769
f 792 793 794
f 781 802 801
f 790 801 803
f 791 803 805
f 804 834 805
f 804 840 834
f 804 806 840
f 806 807 840
f 807 808 840
f 808 809 840
f 809 810 841
f 810 811 841
f 811 812 841
f 813 841 812
f 813 814 841
f 814 815 841
f 815 816 841
f 816 817 841
f 809 841 840
f 702 871 694
f 696 179 1078
f 179 1032 1078
f 700 869 819
f 871 869 694
f 702 696 1077
f 726 819 818
f 729 818 819
f 729 819 820
f 819 823 820
f 820 823 855
f 820 821 729
f 821 820 822
f 820 856 822
f 820 855 856
f 822 856 857
f 868 823 819
f 823 858 855
f 821 822 825
f 822 857 825
f 825 865 824
f 824 865 827
f 702 1077 871
f 696 1078 1077
f 824 827 826
f 786 830 828
f 788 829 830
f 830 831 832
f 828 830 832
f 829 831 830
f 828 832 986
f 831 833 832
f 832 833 836
f 832 836 986
f 791 834 829
f 829 835 831
f 829 834 835
f 831 835 833
f 833 835 837
f 833 837 836
f 835 834 841
f 837 835 844
f 836 988 986
f 836 991 988
f 836 992 991
f 836 837 838
f 836 838 839
f 836 839 992
f 837 847 838
f 839 838 851
f 834 840 841
f 835 841 842
f 835 842 843
f 843 844 835
f 844 845 837
f 845 846 837
f 817 826 841
f 826 827 841
f 827 919 841
f 841 919 920
f 841 920 921
f 841 921 922
f 837 846 847
f 847 848 838
f 848 852 838
f 838 852 851
f 839 851 1002
f 847 849 848
f 849 850 848
f 850 852 848
f 851 853 1001
f 853 854 1001
f 851 1001 1002
f 856 855 861
f 856 861 857
f 855 858 859
f 868 858 823
f 868 819 870
f 858 868 859
f 859 868 860
f 855 859 862
f 855 862 861
f 859 864 862
f 860 863 859
f 864 859 863
f 863 860 876
f 825 857 865
f 857 861 865
f 861 866 865
f 862 866 861
f 862 864 866
f 863 867 866
f 864 863 866
f 863 877 867
f 819 880 870
f 860 868 870
f 819 888 880
f 869 896 819
f 870 872 860
f 870 873 872
f 870 880 873
f 873 880 874
f 874 880 875
f 860 872 876
f 872 873 876
f 876 873 877
f 863 876 877
f 873 874 878
f 873 878 877
f 874 875 879
f 874 879 878
f 819 896 888
f 875 880 881
f 875 881 884
f 880 888 881
f 881 888 884
f 875 885 879
f 867 877 882
f 877 878 882
f 879 883 878
f 878 883 882
f 883 879 885
f 884 888 890
f 884 885 875
f 884 893 885
f 884 890 893
f 883 885 886
f 885 893 886
f 887 886 893
f 866 921 865
f 866 867 925
f 867 882 926
f 882 883 928
f 883 886 933
f 887 935 886
f 869 871 1073
f 888 889 890
f 896 889 888
f 891 889 895
f 889 891 890
f 890 892 893
f 890 891 892
f 891 894 892
f 891 897 894
f 896 869 913
f 896 895 889
f 891 895 897
f 895 896 897
f 896 908 897
f 897 908 898
f 897 899 894
f 897 900 899
f 897 898 901
f 900 897 901
f 898 902 901
f 887 893 892
f 887 892 894
f 887 894 904
f 904 894 899
f 904 903 887
f 899 905 904
f 899 900 905
f 901 902 907
f 900 901 907
f 900 907 905
f 905 906 904
f 905 907 906
f 913 869 1067
f 869 1069 1067
f 869 1070 1069
f 896 913 908
f 1070 869 1071
f 869 1072 1071
f 898 908 909
f 898 909 910
f 909 908 913
f 910 909 912
f 898 910 902
f 910 911 902
f 910 915 911
f 909 913 912
f 912 913 914
f 910 912 914
f 913 1068 914
f 910 914 915
f 914 916 915
f 914 1068 916
f 1068 918 916
f 902 911 907
f 911 917 907
f 915 917 911
f 915 916 917
f 916 918 917
f 918 1068 1095
f 887 903 938
f 903 904 942
f 906 943 904
f 907 948 906
f 907 917 953
f 917 918 958
f 918 1095 958
f 827 865 919
f 919 865 920
f 920 865 921
f 921 866 922
f 866 923 922
f 866 924 923
f 866 925 924
f 867 926 925
f 926 882 927
f 928 927 882
f 883 929 928
f 929 883 930
f 930 883 932
f 883 933 932
f 934 933 886
f 934 886 935
f 887 936 935
f 841 922 923
f 841 923 924
f 841 924 925
f 841 925 926
f 841 926 927
f 841 927 928
f 841 928 929
f 841 929 930
f 841 930 931
f 841 931 933
f 841 933 934
f 841 934 935
f 930 932 931
f 841 935 936
f 965 842 841
f 842 966 843
f 843 966 844
f 966 845 844
f 845 967 846
f 846 967 847
f 847 967 849
f 849 963 850
f 850 963 852
f 852 963 851
f 851 963 853
f 853 963 854
f 854 968 1001
f 968 1002 1001
f 968 1003 1002
f 841 936 937
f 841 937 939
f 931 932 933
f 841 939 940
f 841 940 941
f 841 941 946
f 841 946 947
f 841 947 948
f 841 948 952
f 841 952 953
f 841 953 965
f 842 965 966
f 845 966 967
f 849 967 963
f 964 854 963
f 854 964 968
f 887 937 936
f 937 887 938
f 903 940 938
f 940 903 942
f 942 904 943
f 906 944 943
f 906 945 944
f 945 906 948
f 948 907 949
f 907 950 949
f 950 907 951
f 952 951 907
f 952 907 953
f 917 954 953
f 917 955 954
f 917 956 955
f 917 957 956
f 917 958 957
f 958 1095 959
f 960 959 1095
f 960 1095 961
f 939 937 938
f 938 940 939
f 940 942 941
f 941 942 946
f 945 942 943
f 942 945 946
f 943 944 945
f 945 947 946
f 945 948 947
f 949 951 948
f 949 950 951
f 948 951 952
f 1003 968 969
f 1003 969 970
f 970 971 1003
f 971 972 1003
f 1003 972 1129
f 1129 1130 1003
f 953 954 965
f 954 955 965
f 957 958 959
f 955 956 970
f 956 957 970
f 957 960 970
f 957 959 960
f 960 961 962
f 960 962 971
f 955 967 966
f 955 966 965
f 964 963 955
f 963 967 955
f 964 955 969
f 964 969 968
f 955 970 969
f 960 971 970
f 961 1095 1118
f 1003 1130 1131
f 1003 1131 1132
f 1003 1132 1133
f 1003 1133 1134
f 1003 1134 1135
f 1003 1135 1136
f 1003 1136 1142
f 961 1119 962
f 1142 1143 1003
f 1003 1143 1144
f 1003 1144 1344
f 973 1010 323
f 973 975 974
f 828 975 973
f 324 1010 1013
f 317 1013 1021
f 978 327 1021
f 332 978 976
f 976 979 977
f 976 978 980
f 976 980 979
f 979 980 981
f 978 1021 980
f 980 982 983
f 980 983 981
f 980 1021 982
f 982 984 983
f 982 1022 984
f 977 979 1338
f 979 981 1339
f 981 983 1341
f 984 1343 983
f 828 985 975
f 975 988 974
f 973 974 993
f 975 985 988
f 828 986 985
f 988 987 974
f 974 987 993
f 985 986 988
f 973 993 994
f 987 988 989
f 989 988 991
f 989 991 990
f 987 989 993
f 989 990 993
f 990 991 995
f 992 995 991
f 993 990 996
f 973 994 1010
f 839 995 992
f 990 995 996
f 839 997 995
f 839 999 997
f 995 997 996
f 997 999 998
f 997 998 996
f 839 1000 999
f 999 1000 998
f 839 1004 1000
f 839 1002 1004
f 1004 1002 1003
f 1000 1345 998
f 993 996 1006
f 993 1006 1007
f 993 1005 994
f 994 1005 1010
f 993 1007 1005
f 1006 996 998
f 1005 1007 1008
f 1005 1008 1009
f 1012 1010 1011
f 1012 1013 1010
f 1009 1011 1010
f 1011 1014 1012
f 1005 1009 1010
f 1012 1026 1013
f 1014 1026 1012
f 1009 1014 1011
f 1026 1014 1025
f 1014 1018 1025
f 1009 1015 1014
f 1014 1015 1016
f 1014 1016 1017
f 1014 1017 1018
f 1345 1006 998
f 1006 1346 1007
f 1013 1019 1021
f 1019 1020 1021
f 1019 1024 1020
f 982 1021 1023
f 982 1023 1022
f 1021 1020 1023
f 1020 1031 1023
f 1013 1026 1019
f 1019 1026 1025
f 1019 1025 1024
f 1020 1024 1030
f 1020 1030 1027
f 1024 1025 1028
f 1024 1028 1029
f 1018 1028 1025
f 1024 1029 1030
f 1020 1027 1031
f 1000 1004 1344
f 1004 1003 1344
f 1345 1000 1344
f 1006 1345 1346
f 1347 1007 1346
f 1347 1348 1007
f 1007 1360 1008
f 1008 1361 1009
f 1009 1363 1015
f 1015 1364 1016
f 1016 1367 1017
f 1017 1367 1018
f 984 1022 1368
f 1022 1023 1368
f 1023 1031 1370
f 1027 1030 1372
f 1018 1373 1028
f 1028 1374 1029
f 1029 1375 1030
f 1027 1376 1031
f 1032 372 1078
f 1078 371 1079
f 371 1050 1079
f 1033 622 1039
f 637 634 1050
f 1033 1035 634
f 1036 634 1035
f 622 1065 1039
f 634 1036 1052
f 1033 1034 1035
f 1038 1034 1033
f 634 1052 1049
f 1049 1050 634
f 1034 1038 1035
f 1036 1035 1038
f 1038 1033 1039
f 1036 1043 1037
f 1036 1038 1043
f 1039 1043 1038
f 1036 1037 1056
f 1037 1041 1056
f 1036 1056 1048
f 1041 1037 1042
f 1037 1043 1042
f 1042 1043 1044
f 1041 1042 1044
f 1039 1045 1043
f 1045 1044 1043
f 1045 1046 1044
f 1039 1065 1040
f 1049 1052 1172
f 1049 1172 1173
f 1048 1063 1051
f 1051 1053 1052
f 1051 1063 1053
f 1053 1063 1055
f 1036 1048 1051
f 1041 1060 1056
f 1052 1036 1051
f 1048 1056 1057
f 1056 1060 1057
f 1061 1057 1060
f 1061 1058 1057
f 1041 1044 1060
f 1060 1047 1061
f 1044 1046 1060
f 1046 1047 1060
f 1047 1062 1061
f 1039 1040 1196
f 1045 1039 1196
f 1046 1045 1195
f 1040 1065 1187
f 1048 1057 1063
f 1057 1058 1063
f 1058 1059 1063
f 1063 1059 1064
f 1063 1064 1055
f 1061 1207 1058
f 1046 1195 1047
f 1047 1206 1062
f 1040 1187 1188
f 1040 1188 1189
f 1040 1189 1191
f 1040 1191 1192
f 1061 1062 1207
f 1040 1192 1193
f 1040 1194 1196
f 1040 1193 1194
f 1187 1065 1066
f 582 1349 1066
f 582 1350 1349
f 641 1066 1065
f 1075 869 1073
f 1072 869 1075
f 1073 871 1077
f 913 1067 1068
f 1068 1067 1069
f 1068 1069 1093
f 1069 1070 1093
f 1070 1094 1093
f 1070 1071 1094
f 1071 1072 1098
f 1073 1074 1076
f 1073 1077 1074
f 1073 1076 1075
f 1072 1075 1099
f 1075 1076 1100
f 1076 1080 1101
f 1077 1079 1074
f 1078 1079 1077
f 1074 1079 1049
f 1080 1081 1108
f 1081 1082 1111
f 1082 1112 1111
f 1082 1083 1113
f 1082 1113 1112
f 1049 1076 1074
f 1076 1049 1080
f 1080 1049 1081
f 1049 1082 1081
f 1084 1083 1082
f 1083 1084 1085
f 1083 1085 1113
f 1084 1088 1085
f 1086 1113 1085
f 1085 1088 1086
f 1088 1090 1086
f 1084 1087 1088
f 1087 1152 1089
f 1087 1089 1088
f 1088 1091 1090
f 1089 1091 1088
f 1091 1089 1092
f 1068 1093 1095
f 1093 1094 1096
f 1071 1098 1094
f 1094 1098 1097
f 1093 1096 1095
f 1094 1097 1096
f 1097 1098 1105
f 1072 1099 1098
f 1098 1099 1105
f 1075 1100 1099
f 1076 1101 1100
f 1100 1103 1099
f 1099 1103 1102
f 1099 1102 1107
f 1101 1103 1100
f 1101 1108 1103
f 1103 1108 1104
f 1103 1107 1102
f 1103 1104 1107
f 1099 1106 1105
f 1099 1107 1106
f 1096 1120 1095
f 1096 1097 1125
f 1097 1105 1126
f 1105 1106 1138
f 1080 1108 1101
f 1081 1111 1108
f 1104 1108 1109
f 1108 1110 1109
f 1110 1108 1114
f 1111 1114 1108
f 1110 1114 1115
f 1111 1116 1114
f 1114 1116 1115
f 1111 1112 1116
f 1113 1117 1112
f 1116 1112 1117
f 1116 1117 1115
f 1117 1113 1086
f 1104 1212 1107
f 1104 1109 1214
f 1110 1115 1215
f 1109 1110 1214
f 1117 1217 1115
f 1106 1107 1321
f 1118 1095 1119
f 1120 1119 1095
f 1096 1122 1120
f 1096 1123 1122
f 1096 1125 1123
f 1097 1126 1125
f 1126 1105 1127
f 1127 1105 1136
f 1136 1105 1142
f 1105 1138 1137
f 1106 1140 1138
f 1106 1141 1140
f 1105 1137 1142
f 1118 1119 961
f 1121 1119 1120
f 962 1119 971
f 1119 1121 972
f 1120 1124 1121
f 1120 1122 1124
f 1122 1123 1124
f 1121 1124 1131
f 1123 1127 1124
f 1123 1125 1127
f 1125 1126 1127
f 1124 1127 1133
f 1133 1127 1128
f 1128 1127 1136
f 971 1119 972
f 972 1121 1130
f 1130 1121 1131
f 1129 972 1130
f 1124 1133 1131
f 1131 1133 1132
f 1128 1134 1133
f 1128 1135 1134
f 1135 1128 1136
f 1138 1139 1137
f 1138 1140 1139
f 1139 1140 1141
f 1137 1139 1146
f 1139 1141 1146
f 1137 1143 1142
f 1143 1137 1145
f 1145 1144 1143
f 1137 1146 1145
f 1344 1144 1345
f 1145 1348 1144
f 1146 1348 1145
f 1144 1347 1345
f 1348 1347 1144
f 1106 1321 1141
f 1141 1336 1146
f 1348 1146 1357
f 1049 1079 1050
f 1049 1087 1084
f 1087 1049 1155
f 1049 1173 1155
f 1149 1173 1174
f 1155 1148 1147
f 1149 1148 1155
f 1147 1148 1168
f 1173 1149 1155
f 1149 1150 1148
f 1149 1184 1150
f 1148 1150 1168
f 1150 1169 1168
f 1150 1151 1169
f 1150 1184 1151
f 1082 1049 1084
f 1087 1155 1152
f 1153 1152 1154
f 1153 1154 1160
f 1152 1155 1154
f 1154 1155 1156
f 1155 1147 1157
f 1155 1157 1158
f 1154 1156 1162
f 1156 1155 1162
f 1155 1158 1162
f 1162 1158 1164
f 1164 1158 1159
f 1153 1160 1152
f 1089 1152 1160
f 1154 1162 1160
f 1092 1089 1161
f 1160 1161 1089
f 1160 1162 1163
f 1163 1161 1160
f 1086 1090 1222
f 1163 1162 1164
f 1091 1092 1223
f 1090 1091 1223
f 1092 1161 1197
f 1147 1165 1157
f 1157 1165 1158
f 1147 1168 1165
f 1169 1165 1168
f 1167 1165 1169
f 1158 1166 1159
f 1165 1167 1158
f 1158 1167 1166
f 1159 1166 1199
f 1169 1170 1202
f 1167 1169 1202
f 1166 1167 1202
f 1164 1200 1163
f 1161 1163 1200
f 1164 1159 1201
f 1090 1223 1222
f 1161 1200 1197
f 1092 1197 1223
f 1164 1201 1200
f 1172 1171 1173
f 1172 1175 1171
f 1172 1181 1177
f 1173 1176 1174
f 1149 1174 1184
f 1174 1176 1184
f 1171 1176 1173
f 1171 1175 1178
f 1171 1178 1176
f 1172 1177 1175
f 1175 1177 1178
f 1180 1177 1181
f 1178 1180 1176
f 1177 1180 1178
f 1179 1176 1180
f 1052 1181 1172
f 1052 1053 1181
f 1054 1183 1181
f 1181 1183 1182
f 1053 1055 1181
f 1055 1054 1181
f 1181 1182 1180
f 1176 1186 1184
f 1185 1184 1186
f 1151 1184 1185
f 1186 1176 1179
f 1185 1186 1211
f 1054 1204 1183
f 1182 1183 1205
f 1182 1205 1180
f 1179 1180 1205
f 1186 1179 1209
f 1058 1207 1059
f 1059 1208 1064
f 1055 1064 1203
f 1054 1055 1203
f 1045 1196 1195
f 1047 1195 1206
f 1062 1206 1207
f 1059 1207 1208
f 1054 1203 1204
f 1064 1208 1203
f 1191 1189 1190
f 1192 1191 1190
f 1169 1151 1198
f 1151 1185 1211
f 1170 1169 1198
f 1179 1205 1209
f 1151 1211 1198
f 1186 1209 1211
f 1159 1199 1201
f 1166 1202 1199
f 1170 1198 1202
f 1183 1204 1205
f 1210 1211 1209
f 1211 1210 1198
f 1188 1187 1224
f 1189 1188 1227
f 1190 1189 1228
f 1190 1231 1192
f 1192 1234 1193
f 1194 1193 1235
f 1195 1196 1239
f 1195 1241 1206
f 1196 1194 1238
f 1270 1197 1200
f 1198 1271 1202
f 1199 1272 1201
f 1200 1201 1274
f 1199 1202 1279
f 1203 1208 1283
f 1204 1203 1287
f 1205 1204 1288
f 1293 1207 1206
f 1208 1207 1297
f 1210 1209 1302
f 1205 1299 1209
f 1198 1210 1304
f 1117 1086 1220
f 1104 1213 1212
f 1104 1214 1213
f 1115 1217 1215
f 1110 1215 1214
f 1117 1219 1217
f 1117 1220 1219
f 1086 1221 1220
f 1086 1222 1221
f 1216 1214 1215
f 1217 1219 1218
f 1219 1220 1218
f 1216 1215 1217
f 1107 1212 1321
f 1213 1321 1212
f 1214 1321 1213
f 1216 1322 1214
f 1217 1218 1326
f 1220 1330 1218
f 1216 1217 1325
f 1220 1221 1330
f 1222 1334 1221
f 1223 1334 1222
f 1197 1268 1223
f 1188 1224 1225
f 1227 1188 1225
f 1227 1228 1189
f 1190 1228 1229
f 1230 1190 1229
f 1230 1231 1190
f 1192 1231 1232
f 1232 1234 1192
f 1193 1234 1233
f 1193 1233 1235
f 1236 1237 1194
f 1236 1194 1235
f 1194 1237 1238
f 1239 1240 1195
f 1195 1240 1241
f 1242 1243 1196
f 1239 1196 1243
f 1187 1244 1224
f 1244 1187 1066
f 1196 1238 1265
f 1196 1265 1242
f 1268 1197 1270
f 1270 1200 1269
f 1200 1274 1269
f 1198 1304 1271
f 1201 1273 1274
f 1201 1275 1273
f 1201 1276 1275
f 1201 1277 1276
f 1272 1277 1201
f 1278 1280 1202
f 1280 1279 1202
f 1278 1202 1281
f 1199 1279 1272
f 1202 1271 1281
f 1282 1283 1208
f 1203 1284 1285
f 1285 1287 1203
f 1283 1284 1203
f 1204 1287 1289
f 1204 1289 1288
f 1205 1288 1290
f 1205 1291 1292
f 1291 1205 1290
f 1293 1294 1207
f 1206 1241 1296
f 1206 1296 1293
f 1207 1294 1297
f 1208 1297 1298
f 1282 1208 1298
f 1205 1292 1299
f 1300 1209 1299
f 1300 1302 1209
f 1210 1301 1304
f 1303 1301 1210
f 1210 1302 1303
f 1224 1226 1225
f 1226 1227 1225
f 1226 1228 1227
f 1224 1246 1226
f 1226 1246 1229
f 1226 1229 1228
f 1230 1232 1231
f 1230 1229 1252
f 1230 1255 1232
f 1236 1233 1234
f 1236 1235 1233
f 1236 1257 1237
f 1232 1255 1234
f 1236 1234 1257
f 1237 1256 1238
f 1239 1243 1240
f 1240 1260 1241
f 1242 1240 1243
f 1242 1265 1240
f 1245 1224 1244
f 1224 1245 1246
f 1229 1246 1247
f 1247 1249 1229
f 1229 1250 1252
f 1229 1249 1250
f 1230 1252 1251
f 1251 1253 1230
f 1230 1253 1255
f 1247 1248 1249
f 1253 1254 1255
f 1244 1066 1267
f 1244 1318 1245
f 1245 1318 1246
f 1246 1318 1247
f 1247 1318 1248
f 1234 1255 1257
f 1237 1257 1256
f 1238 1256 1264
f 1256 1258 1259
f 1256 1259 1264
f 1240 1265 1260
f 1261 1241 1260
f 1265 1266 1260
f 1260 1266 1263
f 1265 1238 1264
f 1248 1318 1249
f 1249 1318 1250
f 1244 1267 1318
f 1252 1349 1251
f 1251 1349 1253
f 1250 1349 1252
f 1253 1349 1254
f 1267 1066 1349
f 1349 1257 1255
f 1256 1257 1349
f 1255 1254 1349
f 1256 1349 1258
f 1350 1265 1264
f 1259 1258 1350
f 1259 1350 1264
f 1250 1318 1349
f 1281 1271 1304
f 1277 1272 1279
f 1269 1274 1273
f 1275 1336 1273
f 1277 1336 1276
f 1276 1336 1275
f 1278 1281 1336
f 1280 1278 1336
f 1277 1280 1336
f 1277 1279 1280
f 1281 1304 1336
f 1304 1301 1336
f 1300 1336 1301
f 1300 1320 1336
f 1320 1337 1336
f 1289 1286 1288
f 1292 1291 1299
f 1286 1289 1287
f 1287 1285 1309
f 1284 1309 1285
f 1283 1309 1284
f 1286 1287 1309
f 1286 1309 1288
f 1291 1290 1320
f 1288 1309 1290
f 1295 1294 1293
f 1293 1296 1241
f 1294 1295 1282
f 1294 1298 1297
f 1294 1282 1298
f 1295 1283 1282
f 1261 1293 1241
f 1261 1295 1293
f 1295 1316 1283
f 1300 1303 1302
f 1301 1303 1300
f 1291 1320 1299
f 1300 1299 1320
f 1305 1283 1315
f 1305 1307 1283
f 1283 1306 1309
f 1283 1307 1306
f 1312 1319 1290
f 1290 1319 1320
f 1290 1309 1312
f 1306 1308 1310
f 1306 1310 1309
f 1309 1310 1312
f 1311 1319 1312
f 1314 1295 1262
f 1261 1262 1295
f 1316 1295 1314
f 1316 1315 1283
f 1313 1314 1262
f 1315 1317 1305
f 1316 1314 1350
f 1315 1316 1350
f 1313 1350 1314
f 1266 1265 1350
f 1263 1350 1260
f 1263 1266 1350
f 1261 1260 1350
f 1261 1350 1262
f 1262 1350 1313
f 1267 1349 1318
f 1258 1349 1350
f 1315 1350 1317
f 1317 1353 1305
f 1317 1350 1352
f 1319 1311 1337
f 1319 1337 1320
f 1305 1358 1307
f 1307 1358 1306
f 1311 1312 1358
f 1312 1310 1358
f 1308 1358 1310
f 1306 1358 1308
f 1305 1354 1355
f 1305 1356 1358
f 1305 1355 1356
f 1311 1358 1337
f 1317 1352 1353
f 1353 1354 1305
f 1321 1214 1322
f 1216 1323 1322
f 1216 1324 1323
f 1216 1325 1324
f 1326 1218 1327
f 1218 1329 1327
f 1218 1330 1329
f 1217 1326 1325
f 1141 1321 1336
f 1325 1326 1327
f 1327 1329 1328
f 1324 1327 1323
f 1325 1327 1324
f 1321 1322 1336
f 1323 1336 1322
f 1337 1146 1336
f 1146 1337 1357
f 1221 1334 1330
f 1223 1331 1334
f 1223 1333 1332
f 1223 1332 1331
f 1223 1268 1335
f 1223 1335 1333
f 1331 1328 1329
f 1331 1329 1330
f 1331 1330 1334
f 1327 1328 1336
f 1331 1336 1328
f 1327 1336 1323
f 1333 1335 1268
f 1333 1268 1270
f 1331 1332 1336
f 1332 1333 1336
f 1333 1270 1336
f 1269 1336 1270
f 1273 1336 1269
f 684 977 1338
f 979 1339 1338
f 981 1341 1339
f 983 1343 1341
f 984 1368 1343
f 666 1362 1350
f 684 1338 685
f 1338 1340 685
f 1338 1339 1340
f 685 1340 1342
f 679 1342 1362
f 1339 1341 1340
f 1340 1341 1343
f 1340 1343 1342
f 1342 1343 1368
f 1007 1348 1357
f 1345 1347 1346
f 1007 1357 1360
f 1008 1360 1361
f 1009 1361 1363
f 1015 1363 1365
f 1015 1365 1364
f 1364 1367 1016
f 1018 1367 1373
f 1023 1370 1368
f 1031 1376 1370
f 1027 1372 1376
f 1028 1373 1374
f 1029 1374 1375
f 1030 1375 1372
f 1350 1351 1352
f 1351 1355 1352
f 1352 1354 1353
f 1352 1355 1354
f 1350 1359 1351
f 1358 1357 1337
f 1358 1356 1357
f 1351 1359 1355
f 1356 1359 1357
f 1355 1359 1356
f 1357 1359 1360
f 1350 1362 1359
f 1359 1361 1360
f 1361 1359 1362
f 1361 1362 1363
f 1362 1365 1363
f 1362 1366 1365
f 1362 1371 1373
f 1364 1365 1367
f 1362 1373 1366
f 1365 1366 1367
f 1367 1366 1373
f 1342 1369 1362
f 1369 1342 1368
f 1368 1370 1369
f 1369 1370 1376
f 1369 1371 1362
f 1369 1376 1371
f 1371 1376 1372
f 1371 1374 1373
f 1371 1375 1374
f 1371 1372 1375
