# https://github.com/mikedh/trimesh

o collision
v -0.03413533 0.03905092 -0.00132183
v -0.02770756 0.03880198 -0.01960665
v -0.02869770 0.03786502 -0.01088199
v -0.01101727 0.03873685 -0.03188340
v -0.02060414 0.03889599 -0.02688062
v -0.00273502 0.03861291 -0.03336962
v -0.00956858 0.03781881 -0.02864719
v -0.03362111 -0.02879429 0.02695440
v -0.03557328 -0.02665484 0.03022239
v -0.03558199 -0.02394706 0.03288043
v -0.04109246 -0.01344182 0.02459941
v -0.04121434 -0.01618063 0.02662832
v -0.04121434 -0.01618063 0.03059577
v -0.03843298 -0.02211408 0.02762658
v -0.04377371 -0.00767713 0.02717903
v -0.04377371 -0.00767713 0.03023943
v -0.03813265 -0.02099877 0.02468125
v -0.03690156 -0.01702162 0.02449727
v -0.03689649 -0.01703021 0.02449711
v -0.04187594 -0.00337106 0.03342943
v -0.04097059 -0.01283664 0.03282416
v -0.03820229 -0.01965652 0.03274147
v -0.03289856 -0.00930257 0.03837681
v -0.02745991 -0.03489455 0.02700853
v -0.02961013 -0.03160487 0.02485345
v -0.02956442 -0.03291415 0.03044233
v -0.02194943 -0.03757128 0.02462328
v -0.02766884 -0.02694191 0.03574306
v -0.02478737 -0.03493334 0.03292987
v -0.02911719 -0.01741911 0.03852365
v -0.02869607 -0.01019869 0.03964487
v -0.02391248 -0.01908237 0.03959415
v -0.03312085 0.03879357 0.00716118
v -0.03143275 0.03801418 0.00072983
v -0.04339938 -0.00064001 0.02473922
v -0.04384335 0.00681607 0.02690623
v -0.04384335 0.00681607 0.03040652
v -0.04104023 0.01452819 0.02462499
v -0.04102282 0.01718165 0.02727621
v -0.04102282 0.01718165 0.03018317
v -0.04366427 0.00179789 0.03155026
v -0.04366272 0.00175451 0.03156015
v -0.04172360 0.00619537 0.03333565
v -0.04100541 0.01305792 0.03282331
v -0.03350359 0.00072939 0.03872718
v -0.03142954 -0.00200166 0.03939851
v -0.02869607 0.00209880 0.03988101
v -0.03026069 0.03479738 0.02457216
v -0.03026187 0.03479701 0.02457404
v -0.03026187 0.03482701 0.02457404
v -0.03025637 0.03481777 0.02457176
v -0.03024306 0.03481177 0.02457102
v -0.03029748 0.03477935 0.02463438
v -0.03029748 0.03480935 0.02463438
v -0.03128900 0.03480935 0.02602527
v -0.03205568 0.03479701 0.02873731
v -0.03205568 0.03482701 0.02873731
v -0.03205857 0.03479897 0.02874652
v -0.03205935 0.03480341 0.02875489
v -0.03205935 0.03483341 0.02874470
v -0.03205870 0.03480466 0.02875479
v -0.03202231 0.03477935 0.02863754
v -0.03202231 0.03480935 0.02863754
v -0.03200616 0.03480935 0.02936066
v -0.03200616 0.03477935 0.02936066
v -0.02604719 0.03742608 0.02306209
v -0.02604719 0.03742608 0.02309209
v -0.02604115 0.03742440 0.02309147
v -0.03172558 0.03480935 0.03283049
v -0.03123488 0.03477935 0.03647964
v -0.03123488 0.03480935 0.03647964
v -0.03117618 0.03479837 0.03693065
v -0.03117166 0.03480176 0.03694980
v -0.03049756 0.03479562 0.03872521
v -0.03049630 0.03479167 0.03872854
v -0.03049202 0.03477935 0.03873187
v -0.03049374 0.03480935 0.03873187
v -0.03049523 0.03480935 0.03873136
v -0.03047935 0.03480935 0.03873675
v -0.02869607 0.02943260 0.03960651
v -0.02870061 0.03480935 0.03939154
v -0.02605700 0.03480935 0.03981297
v -0.01649989 -0.04029458 0.02462669
v -0.01989062 -0.03928208 0.03083276
v -0.01903314 -0.04021699 0.02875100
v -0.01108517 -0.04304115 0.02717903
v -0.01108517 -0.04304115 0.03023943
v -0.02186237 -0.02659277 0.03831585
v -0.01499822 -0.04024415 0.03280029
v -0.01390679 -0.03619025 0.03559856
v -0.01299708 -0.03123148 0.03858566
v -0.01229521 -0.02796606 0.03964572
v -0.02134985 -0.00925966 0.04031210
v -0.01242062 -0.00473659 0.04102398
v -0.00607089 -0.04304891 0.02461476
v -0.00477815 -0.04415840 0.02875100
v -0.00819500 -0.04188317 0.03286380
v -0.00477815 -0.04357456 0.03125560
v -0.00341141 -0.03880686 0.03551843
v -0.00546152 -0.03301307 0.03881285
v -0.00136131 -0.03069710 0.03964061
v -0.00746810 -0.01530002 0.04078763
v -0.00136566 -0.01566468 0.04088183
v -0.01594274 0.00482985 0.04102334
v -0.02188025 0.03673222 0.02305976
v -0.02184890 0.03673230 0.02300682
v -0.02186726 0.03672784 0.02308976
v -0.02189896 0.03673316 0.02308976
v -0.02189047 0.03478011 0.02418917
v -0.02189047 0.03481011 0.02418917
v -0.02186703 0.03480936 0.02418854
v -0.02187106 0.03477938 0.02418870
v -0.02186726 0.03480935 0.04035286
v -0.01776598 0.03480935 0.04078297
v -0.01644095 0.03477935 0.04088610
v -0.01644095 0.03480935 0.04088610
v -0.01597278 0.03480935 0.04092449
v -0.01355441 0.03480935 0.04111272
v -0.00956723 0.03480935 0.04135217
v -0.00759182 0.03480935 0.04141679
v -0.00758345 0.03480935 0.04141719
v -0.00551208 0.03480935 0.04148692
v -0.00000398 0.03480935 0.04156469
v -0.03541765 0.04857486 -0.02161566
v -0.03541791 0.04857486 -0.02161515
v -0.02650641 0.04857486 -0.03184392
v -0.03066174 0.04857486 -0.02792698
v -0.02860842 0.04460016 -0.02855242
v -0.02498469 0.04150359 -0.02764584
v -0.03840429 0.04435647 -0.01196073
v -0.03999094 0.04857558 -0.01088199
v -0.03999094 0.04857486 -0.01088199
v -0.03820139 0.04857486 -0.01618249
v -0.03556373 0.04444890 -0.01912651
v -0.04105006 0.04705388 -0.00570785
v -0.03525330 0.04061338 -0.00807262
v -0.03578692 0.11963200 -0.02092704
v -0.03312085 0.11963200 -0.02496400
v -0.03449243 0.12134205 -0.02234219
v -0.02649831 0.11961720 -0.03183760
v -0.02649830 0.11963200 -0.03183760
v -0.02239978 0.12134205 -0.03444362
v -0.02528295 0.12235883 -0.02933265
v -0.03872892 0.11963200 -0.01481156
v -0.03874515 0.12150591 -0.01333008
v -0.03997065 0.11826649 -0.01088199
v -0.03416780 0.12245546 -0.01771767
v -0.04105006 0.12107734 -0.00570153
v -0.02168558 0.04857486 -0.03537547
v -0.01919401 0.04444050 -0.03551446
v -0.01559056 0.04857486 -0.03843005
v -0.01102335 0.04150780 -0.03575611
v -0.00874989 0.04394156 -0.03872856
v -0.01093205 0.04857486 -0.03997787
v -0.00583529 0.04701187 -0.04101081
v -0.00583527 0.04701195 -0.04101081
v -0.00583528 0.04701187 -0.04101081
v -0.00000403 0.04579761 -0.04092552
v -0.01900329 0.11963200 -0.03676693
v -0.01161378 0.11826642 -0.03975518
v -0.01161378 0.11826649 -0.03975518
v -0.00956941 0.12250588 -0.03684685
v -0.00956858 0.12250588 -0.03684749
v -0.00581905 0.12109414 -0.04101081
v -0.00000405 0.11963952 -0.04143191
v -0.04140716 0.04857486 0.00072825
v -0.03888211 0.04313065 0.00277832
v -0.04104194 0.04707073 0.00577130
v -0.04104194 0.04707069 0.00577130
v -0.03996253 0.04857486 0.01098020
v -0.03996252 0.04863291 0.01098020
v -0.03712603 0.04291743 0.01119579
v -0.03818516 0.04857486 0.01623331
v -0.03467910 0.04513796 0.02114527
v -0.03443748 0.04853518 0.02307378
v -0.03444339 0.04856923 0.02308544
v -0.03442300 0.04848075 0.02305976
v -0.03444339 0.04856923 0.02308976
v -0.03442300 0.04848075 0.02308976
v -0.03380837 0.04581382 0.02308976
v -0.02965143 0.03977521 0.02306200
v -0.02963946 0.03976551 0.02306006
v -0.02965143 0.03977521 0.02309200
v -0.02969764 0.03983494 0.02306385
v -0.02976142 0.03994359 0.02308976
v -0.02969764 0.03983494 0.02309386
v -0.04143962 0.11963200 0.00141213
v -0.03962978 0.12206891 0.00141213
v -0.04104194 0.12106895 0.00576499
v -0.03690285 0.12249748 0.00961243
v -0.03995036 0.11826649 0.01098020
v -0.03844892 0.11826649 0.01556048
v -0.03525756 0.11957771 0.02308271
v -0.03525787 0.11963263 0.02308032
v -0.03525787 0.11963473 0.02308196
v -0.03525462 0.11964191 0.02308976
v -0.03525787 0.11963473 0.02308976
v -0.03434676 0.12165193 0.02308976
v -0.03302840 0.12128283 0.02789366
v -0.03146175 0.12248513 0.02305976
v -0.03146175 0.12248513 0.02308976
v -0.03143395 0.12249316 0.02308976
v -0.03143275 0.12249748 0.02308795
v -0.03143395 0.12233865 0.02601804
v -0.03212074 0.12161331 0.02875098
v -0.02733394 0.12249316 0.03011745
v -0.03038479 0.12136009 0.03351508
v -0.03050213 0.11963473 0.03380990
v -0.02870061 0.12239873 0.03148392
v -0.02979119 0.11963473 0.03517728
v -0.02882485 0.12171202 0.03434347
v -0.02799657 0.12132575 0.03595140
v -0.02842452 0.11963473 0.03645241
v -0.02596727 0.12231289 0.03421686
v -0.02596727 0.12155751 0.03627154
v -0.02736155 0.11564326 0.03833164
v -0.02596727 0.11416684 0.03869338
v -0.02677485 0.11746303 0.03819599
v -0.02590515 0.11947164 0.03770041
v -0.02323393 0.11416684 0.03924323
v -0.02409327 0.11866906 0.03847453
v -0.01913392 0.11142860 0.03998569
v -0.01776725 0.12249316 0.03421686
v -0.02186726 0.11689650 0.03924323
v -0.01920294 0.12100815 0.03832622
v -0.01913392 0.11416684 0.03994138
v -0.01503391 0.11416684 0.04052198
v -0.01435057 0.11689650 0.04034156
v -0.01640058 0.11963473 0.03930563
v -0.01298390 0.12136438 0.03869700
v -0.01230057 0.12213263 0.03694980
v -0.01074063 0.11142860 0.04103564
v -0.00810392 0.11142860 0.04121923
v -0.00856638 0.11575484 0.04108086
v -0.01093390 0.11963473 0.03989616
v -0.00410054 0.11142860 0.04141909
v -0.00136720 0.11142860 0.04149144
v -0.00546721 0.11963473 0.04025429
v -0.00546721 0.11769050 0.04096782
v -0.00273387 0.11416684 0.04141004
v -0.00273362 0.11416684 0.04141004
v -0.00271883 0.11413671 0.04141093
v -0.00000398 0.11680207 0.04122556
v -0.00273560 0.12157468 0.03900177
v -0.00000398 0.11816690 0.04103564
v -0.00000398 0.11963473 0.04038632
v 0.00595708 0.03871164 -0.03320220
v 0.00953053 0.03781881 -0.02864719
v 0.00956053 0.03781881 -0.02864719
v 0.01645091 0.03898685 -0.03004339
v 0.02186014 0.03789444 -0.02181466
v 0.02769951 0.03880198 -0.01960665
v 0.02800792 0.03797007 -0.01361595
v 0.03190658 0.03874736 -0.01091832
v 0.03347599 0.03857299 -0.00063794
v 0.00477160 -0.04415840 0.02875100
v 0.00606435 -0.04304891 0.02461476
v 0.00750943 -0.03992217 0.02450180
v -0.00000327 -0.04296356 0.03281564
v 0.00545497 -0.03301695 0.03881285
v 0.00818845 -0.04188511 0.03293925
v 0.00800020 -0.01428849 0.04079327
v 0.01107862 -0.04304115 0.02717903
v 0.01107862 -0.04304115 0.03023943
v 0.01649334 -0.04029458 0.02462669
v 0.01902659 -0.04021699 0.02875100
v 0.01988407 -0.03928208 0.03083361
v 0.01591008 -0.04008510 0.03264855
v 0.01458687 -0.03604671 0.03551417
v 0.01502214 -0.03013848 0.03871141
v 0.01570551 -0.02523112 0.03969240
v 0.02187541 -0.02524664 0.03874465
v 0.01425172 -0.01301412 0.04062928
v 0.01921457 -0.00353957 0.04065342
v 0.00084985 0.00149702 0.04143967
v 0.00905572 0.00778808 0.04134616
v 0.00071549 0.03480935 0.04155491
v 0.00070166 0.03480935 0.04155468
v 0.00135476 0.03480935 0.04156552
v 0.00297265 0.03480935 0.04152246
v 0.00303651 0.03480935 0.04152156
v 0.00538464 0.03480935 0.04148782
v 0.00791960 0.03480935 0.04139081
v 0.00802207 0.03480935 0.04138684
v 0.00955519 0.03480935 0.04134728
v 0.01005067 0.03480935 0.04130802
v 0.01003779 0.03480935 0.04130878
v 0.01046262 0.03480935 0.04129233
v 0.01095001 0.03480935 0.04126868
v 0.02030356 0.01089446 0.04070169
v 0.02049262 0.03666757 0.02308795
v 0.02049262 0.03666346 0.02308976
v 0.01480506 0.03480935 0.04103293
v 0.01912595 0.03480935 0.04066034
v 0.02103869 0.03480935 0.04043125
v 0.02103205 0.03480935 0.04043205
v 0.02185583 0.03480935 0.04036607
v 0.02194288 -0.03757128 0.02462328
v 0.02745336 -0.03489455 0.02700853
v 0.02960358 -0.03160487 0.02485345
v 0.02955787 -0.03291415 0.03044233
v 0.02478953 -0.03493334 0.03292987
v 0.03049152 -0.02977383 0.03306968
v 0.02790604 -0.01924531 0.03859717
v 0.03031959 -0.01560649 0.03845481
v 0.02800615 -0.01224699 0.03958605
v 0.03361456 -0.02879429 0.02695440
v 0.03556673 -0.02665484 0.03022239
v 0.03812610 -0.02099877 0.02468125
v 0.03689501 -0.01702162 0.02449727
v 0.03688994 -0.01703021 0.02449711
v 0.04108592 -0.01344182 0.02459941
v 0.03844747 -0.02206921 0.02761903
v 0.03842644 -0.02211408 0.02762658
v 0.04120779 -0.01618063 0.02662832
v 0.04120779 -0.01618063 0.03059577
v 0.04376716 -0.00767713 0.02717903
v 0.04368990 -0.00552313 0.03085450
v 0.03688777 -0.02180373 0.03281265
v 0.03339040 -0.00473271 0.03866452
v 0.04097275 -0.01285216 0.03283098
v 0.03311889 0.03879357 0.00716434
v 0.03005625 -0.00063613 0.03963976
v 0.02194936 0.03480963 0.02419022
v 0.02197825 0.03481102 0.02419083
v 0.02197825 0.03478101 0.02419083
v 0.02195998 0.03478023 0.02419039
v 0.02494582 0.03714432 0.02306896
v 0.02485568 0.03713376 0.02308976
v 0.02485492 0.03713343 0.02308976
v 0.02494582 0.03714432 0.02309895
v 0.02530969 0.03734429 0.02308976
v 0.02853134 0.03876139 0.02308976
v 0.03023687 0.03481369 0.02457487
v 0.03023928 0.03481532 0.02457502
v 0.03024187 0.03481893 0.02457521
v 0.03024629 0.03479690 0.02457669
v 0.03024678 0.03482674 0.02457747
v 0.03026554 0.03480251 0.02460917
v 0.03028213 0.03477935 0.02463718
v 0.03028213 0.03480935 0.02463718
v 0.03127413 0.03480935 0.02602527
v 0.03214840 0.03461547 0.02873815
v 0.03201861 0.03480935 0.02864475
v 0.03201861 0.03477935 0.02864475
v 0.03205618 0.03479241 0.02874788
v 0.03205644 0.03479285 0.02874904
v 0.03205618 0.03482241 0.02874788
v 0.03205688 0.03482538 0.02874800
v 0.03201833 0.03477935 0.02919222
v 0.03201833 0.03480935 0.02919222
v 0.02238835 0.03480935 0.04026610
v 0.02232769 0.03480935 0.04027687
v 0.02595930 0.03480935 0.03984191
v 0.03172144 0.03480935 0.03282460
v 0.03124868 0.03480935 0.03636651
v 0.03124868 0.03477935 0.03636651
v 0.02869264 0.03480935 0.03939877
v 0.03117630 0.03480331 0.03692567
v 0.03116922 0.03480935 0.03695364
v 0.03047678 0.03480935 0.03873705
v 0.03049473 0.03480935 0.03872514
v 0.03048062 0.03480935 0.03873563
v 0.03048726 0.03480935 0.03873438
v 0.03049152 0.03480935 0.03873357
v 0.03048726 0.03480935 0.03873317
v 0.04339283 -0.00064001 0.02473922
v 0.04383680 0.00681607 0.02690623
v 0.04383680 0.00681607 0.03040652
v 0.04103369 0.01452819 0.02462499
v 0.04101627 0.01718165 0.02727621
v 0.04101627 0.01718165 0.03018317
v 0.03352968 0.00209880 0.03874550
v 0.04182587 0.00346238 0.03340342
v 0.04324049 0.00277962 0.03218736
v 0.04087699 0.01398508 0.03269629
v 0.00101959 0.04235021 -0.03825948
v 0.00272291 0.04857486 -0.04136144
v 0.00583534 0.04701187 -0.04101081
v 0.00583535 0.04701187 -0.04101081
v 0.01092806 0.04857486 -0.03997787
v 0.01147182 0.04287751 -0.03704965
v 0.01397151 0.04550350 -0.03834160
v 0.01667110 0.04857486 -0.03795025
v 0.01667207 0.04857486 -0.03794991
v 0.02059406 0.04167586 -0.03147117
v 0.02127377 0.04446151 -0.03417354
v 0.02167753 0.04857486 -0.03537547
v 0.00135538 0.12210253 -0.03958302
v 0.00581911 0.12109414 -0.04101081
v 0.01037821 0.11826649 -0.04007264
v 0.00956053 0.12250588 -0.03684749
v 0.01625613 0.11963200 -0.03814260
v 0.02099174 0.11963200 -0.03574821
v 0.02860037 0.04459596 -0.02855874
v 0.02826559 0.04857486 -0.03029609
v 0.02903457 0.04150359 -0.02358992
v 0.03312092 0.04857486 -0.02497664
v 0.03579487 0.04857486 -0.02093686
v 0.03579510 0.04857486 -0.02093651
v 0.03555568 0.04444050 -0.01913283
v 0.03820146 0.04857486 -0.01618881
v 0.03818522 0.04460856 -0.01339009
v 0.03999101 0.04857486 -0.01088199
v 0.03784233 0.04264117 -0.00712773
v 0.03797421 0.04200358 0.00004436
v 0.04099739 0.04781021 -0.00613720
v 0.04099737 0.04781017 -0.00613744
v 0.04063013 0.04528922 -0.00200413
v 0.04145592 0.04857486 -0.00132340
v 0.02239579 0.12134205 -0.03444678
v 0.02649431 0.11963200 -0.03184075
v 0.02910356 0.12137146 -0.02906099
v 0.03187919 0.11963200 -0.02644549
v 0.03448438 0.12134205 -0.02234219
v 0.03578698 0.11961659 -0.02093336
v 0.03578698 0.11963200 -0.02093335
v 0.03415975 0.12245546 -0.01771767
v 0.03872899 0.11963200 -0.01481788
v 0.04035216 0.11690097 -0.00951738
v 0.04104201 0.12107734 -0.00571416
v 0.03962985 0.12207732 0.00004436
v 0.04139694 0.11960257 -0.00063995
v 0.04139694 0.11963257 -0.00063995
v 0.00135923 0.11142860 0.04149144
v 0.00409258 0.11142860 0.04141909
v 0.00272591 0.11416684 0.04141095
v 0.00135923 0.12234723 0.03694980
v 0.00137308 0.12234735 0.03694749
v 0.00545925 0.11963473 0.04025609
v 0.00545925 0.11769479 0.04096872
v 0.00809595 0.11142860 0.04122103
v 0.00750925 0.12152317 0.03891314
v 0.00856532 0.11575484 0.04108086
v 0.01092593 0.11963473 0.03989888
v 0.01151263 0.11142860 0.04095606
v 0.01229260 0.11689650 0.04058709
v 0.01229260 0.12213263 0.03694980
v 0.01365927 0.12134291 0.03866987
v 0.01502594 0.11416684 0.04052559
v 0.01639261 0.11689650 0.04010055
v 0.01912595 0.11142860 0.03998931
v 0.01775928 0.12249316 0.03421686
v 0.01912595 0.11416684 0.03994500
v 0.01701900 0.11966048 0.03920389
v 0.02185929 0.11689650 0.03924684
v 0.01920188 0.12100815 0.03832803
v 0.03732798 0.04266428 0.00956031
v 0.04104201 0.04706229 0.00578394
v 0.04104201 0.04706232 0.00578394
v 0.03685828 0.04454134 0.01633123
v 0.03817711 0.04857486 0.01624595
v 0.03996260 0.04857486 0.01098020
v 0.03996259 0.04863344 0.01098020
v 0.02966179 0.03976426 0.02306114
v 0.02964820 0.03975095 0.02306143
v 0.02962331 0.03973469 0.02308976
v 0.02966179 0.03976426 0.02309114
v 0.02966909 0.03977594 0.02308976
v 0.03075401 0.04075937 0.02308976
v 0.03380618 0.04582718 0.02308976
v 0.03380730 0.04581382 0.02308976
v 0.03442938 0.04851308 0.02305976
v 0.03444232 0.04856923 0.02308562
v 0.03442938 0.04851308 0.02308976
v 0.03443762 0.04854217 0.02310090
v 0.03444380 0.04857486 0.02308795
v 0.03444232 0.04856923 0.02308976
v 0.03689480 0.12249748 0.00961243
v 0.04104201 0.12106895 0.00577762
v 0.04104201 0.12106895 0.00577753
v 0.03995042 0.11826649 0.01098020
v 0.03844899 0.11826649 0.01556680
v 0.02732597 0.12249316 0.03011745
v 0.03144036 0.12249515 0.02305976
v 0.03144036 0.12249515 0.02308976
v 0.03142598 0.12250174 0.02308976
v 0.03142598 0.12233865 0.02601804
v 0.03211622 0.12162189 0.02875098
v 0.02322596 0.12242448 0.03421686
v 0.02595930 0.12231289 0.03421686
v 0.02595930 0.12156609 0.03627335
v 0.02322596 0.11416684 0.03924685
v 0.02595930 0.11416684 0.03869881
v 0.02735358 0.11565184 0.03833164
v 0.02495156 0.11845875 0.03838952
v 0.02590408 0.11947164 0.03770402
v 0.02677378 0.11747161 0.03819780
v 0.02869264 0.12239873 0.03148392
v 0.02798860 0.12132575 0.03595321
v 0.02978322 0.11963473 0.03517728
v 0.02881688 0.12171202 0.03434166
v 0.03038372 0.12136867 0.03351508
v 0.03049416 0.11963473 0.03381171
v 0.02841655 0.11963473 0.03645422
v 0.03486846 0.08598758 0.02308795
v 0.03524401 0.11964990 0.02305976
v 0.03525113 0.11961037 0.02308795
v 0.03524390 0.11964998 0.02308795
v 0.03525539 0.11963200 0.02308795
v 0.03524390 0.11964059 0.02308795
v 0.03524367 0.11965016 0.02308976
v 0.03524645 0.11989654 0.02308976
v 0.03434569 0.12165193 0.02308976
v 0.03302043 0.12128283 0.02789727
f 2 7 3
f 1 2 34
f 2 3 34
f 2 5 7
f 4 7 5
f 4 6 7
f 7 6 248
f 3 7 106
f 7 248 106
f 8 17 25
f 8 14 17
f 8 9 14
f 8 26 9
f 9 26 10
f 9 10 22
f 11 17 12
f 11 19 17
f 13 16 12
f 13 12 14
f 12 17 14
f 9 13 14
f 11 15 35
f 11 35 18
f 12 16 15
f 11 12 15
f 16 42 15
f 11 18 19
f 17 19 25
f 9 22 13
f 13 22 21
f 13 21 16
f 16 21 20
f 16 20 42
f 20 21 23
f 21 22 23
f 10 30 22
f 22 30 23
f 20 23 45
f 19 27 25
f 8 25 24
f 8 24 26
f 24 25 27
f 24 84 26
f 24 27 85
f 24 85 84
f 10 26 29
f 10 29 28
f 26 84 29
f 28 29 88
f 28 88 30
f 10 28 30
f 30 31 23
f 23 46 45
f 23 31 46
f 31 47 46
f 30 88 32
f 30 32 31
f 31 93 47
f 31 32 93
f 1 34 33
f 33 34 66
f 3 105 34
f 33 66 182
f 34 105 66
f 3 106 105
f 36 38 35
f 18 35 38
f 15 36 35
f 36 15 41
f 15 42 41
f 36 41 37
f 36 37 39
f 38 36 39
f 37 44 40
f 37 40 39
f 18 38 112
f 20 43 42
f 41 42 44
f 37 41 44
f 42 43 44
f 20 45 43
f 43 75 44
f 43 45 75
f 38 39 48
f 39 40 59
f 39 53 49
f 39 49 48
f 39 62 53
f 39 56 62
f 39 58 56
f 39 59 58
f 40 65 59
f 40 44 74
f 44 75 74
f 40 70 65
f 40 72 70
f 40 73 72
f 40 74 73
f 19 18 112
f 45 46 80
f 46 47 80
f 47 93 104
f 48 109 38
f 38 109 112
f 54 55 180
f 55 57 180
f 53 54 49
f 52 48 51
f 49 50 48
f 48 50 51
f 50 49 54
f 53 63 54
f 50 54 180
f 183 182 67
f 50 185 51
f 52 51 67
f 51 186 183
f 51 185 186
f 48 52 109
f 52 67 68
f 51 183 67
f 63 57 55
f 57 60 180
f 54 63 55
f 53 62 63
f 56 63 62
f 58 59 61
f 56 58 57
f 57 58 61
f 61 60 57
f 56 57 63
f 65 61 59
f 60 61 64
f 61 65 64
f 66 67 182
f 68 67 66
f 52 68 108
f 52 110 109
f 52 107 110
f 52 108 107
f 68 66 108
f 66 105 108
f 45 76 75
f 45 80 76
f 65 70 64
f 64 71 69
f 70 71 64
f 70 72 71
f 76 77 75
f 75 77 78
f 76 79 77
f 76 80 79
f 80 47 115
f 80 115 79
f 79 114 81
f 81 113 82
f 114 113 81
f 27 83 85
f 84 85 87
f 19 258 27
f 83 95 86
f 83 86 85
f 85 86 87
f 29 84 89
f 29 89 90
f 29 90 88
f 32 88 92
f 84 87 89
f 89 97 90
f 87 97 89
f 88 90 91
f 88 91 92
f 19 112 258
f 32 92 93
f 93 94 104
f 92 102 93
f 93 102 94
f 27 258 83
f 87 86 96
f 86 95 96
f 87 96 98
f 83 258 95
f 95 257 96
f 98 96 256
f 90 97 99
f 87 98 97
f 90 99 100
f 90 100 91
f 91 100 92
f 92 100 101
f 97 98 259
f 97 259 99
f 99 260 100
f 92 101 103
f 100 260 101
f 92 103 102
f 94 102 103
f 94 103 275
f 112 111 258
f 47 104 117
f 108 105 107
f 112 109 110
f 112 110 111
f 107 111 110
f 115 47 117
f 79 116 114
f 79 115 116
f 120 117 104
f 116 115 117
f 117 119 118
f 117 120 119
f 94 275 104
f 104 275 121
f 105 106 291
f 105 292 107
f 111 107 292
f 104 121 120
f 121 275 278
f 121 278 122
f 122 278 123
f 124 134 125
f 124 127 134
f 124 138 127
f 124 125 137
f 126 149 128
f 128 149 150
f 126 128 127
f 127 128 134
f 128 129 134
f 2 134 129
f 128 150 129
f 2 129 5
f 126 140 149
f 126 127 140
f 132 133 135
f 130 135 133
f 132 131 133
f 125 134 133
f 130 133 134
f 130 134 136
f 130 167 135
f 130 136 167
f 1 167 136
f 133 131 144
f 133 144 125
f 131 132 148
f 132 135 148
f 135 166 148
f 2 136 134
f 1 136 2
f 124 137 138
f 137 139 138
f 149 140 159
f 127 138 140
f 141 142 159
f 141 159 140
f 138 139 141
f 138 141 140
f 139 142 141
f 139 147 143
f 139 143 142
f 143 147 162
f 131 146 144
f 125 144 137
f 131 148 146
f 187 148 166
f 144 146 145
f 137 145 139
f 137 144 145
f 139 145 147
f 145 146 148
f 145 148 188
f 145 188 147
f 147 188 190
f 147 190 162
f 149 151 150
f 5 150 152
f 150 151 153
f 150 153 152
f 4 5 152
f 5 129 150
f 149 159 151
f 151 160 154
f 151 155 153
f 151 154 155
f 154 156 155
f 155 157 153
f 155 156 157
f 4 152 6
f 6 152 153
f 6 153 377
f 153 157 158
f 157 156 378
f 153 158 377
f 157 378 158
f 154 164 156
f 156 165 378
f 159 160 151
f 142 143 163
f 142 164 159
f 160 159 161
f 159 164 161
f 142 163 164
f 143 162 163
f 162 190 392
f 154 160 164
f 164 165 156
f 160 161 164
f 164 163 389
f 162 392 163
f 190 203 392
f 135 169 166
f 166 169 168
f 135 167 169
f 167 172 169
f 169 170 168
f 171 168 170
f 1 172 167
f 1 33 172
f 169 172 173
f 169 173 170
f 33 181 172
f 172 174 173
f 174 176 173
f 172 181 174
f 166 168 187
f 168 171 189
f 171 170 192
f 170 173 192
f 173 176 193
f 33 182 181
f 179 60 175
f 175 60 178
f 60 179 180
f 174 177 175
f 174 175 176
f 176 175 178
f 175 177 179
f 174 184 177
f 73 193 178
f 176 178 193
f 174 181 184
f 177 184 185
f 50 180 185
f 180 179 185
f 179 177 185
f 183 186 184
f 181 183 184
f 181 182 183
f 185 184 186
f 60 64 178
f 64 69 178
f 69 71 178
f 71 72 178
f 72 73 178
f 73 74 197
f 75 78 197
f 75 197 74
f 77 79 216
f 77 216 78
f 79 81 216
f 81 82 222
f 187 168 189
f 171 191 189
f 171 192 191
f 173 193 192
f 148 187 189
f 148 189 188
f 188 189 190
f 189 191 192
f 189 203 190
f 189 192 194
f 194 200 189
f 192 193 194
f 189 200 203
f 73 197 193
f 195 193 197
f 194 193 195
f 195 197 196
f 195 200 194
f 195 196 200
f 198 201 196
f 196 197 199
f 198 196 199
f 198 199 205
f 197 208 199
f 78 216 210
f 78 208 197
f 78 210 208
f 81 217 216
f 81 220 217
f 81 222 220
f 196 201 200
f 201 202 200
f 202 203 200
f 198 204 201
f 198 205 204
f 201 204 202
f 202 204 209
f 199 207 205
f 204 205 209
f 202 209 206
f 199 208 207
f 205 207 209
f 207 208 210
f 207 211 209
f 209 211 214
f 207 210 212
f 207 212 211
f 211 212 214
f 210 213 212
f 210 216 213
f 213 216 218
f 212 213 218
f 206 209 214
f 212 215 214
f 206 214 223
f 216 217 220
f 216 224 218
f 212 218 219
f 218 221 219
f 216 220 224
f 218 224 221
f 212 219 225
f 212 225 215
f 219 221 225
f 82 113 227
f 113 114 232
f 114 116 232
f 116 117 232
f 117 118 232
f 118 119 233
f 119 120 236
f 120 121 236
f 121 122 236
f 122 123 237
f 82 227 222
f 113 232 227
f 214 215 231
f 214 231 223
f 220 226 224
f 220 222 226
f 221 229 225
f 215 225 230
f 221 224 228
f 224 226 228
f 222 227 226
f 215 230 231
f 221 228 229
f 226 227 228
f 225 229 235
f 228 235 229
f 225 235 230
f 227 234 228
f 227 232 234
f 118 233 232
f 119 236 233
f 122 237 236
f 237 123 425
f 203 202 477
f 202 206 477
f 206 223 477
f 223 231 428
f 232 233 234
f 228 234 239
f 230 244 231
f 228 239 235
f 230 235 238
f 233 240 234
f 235 239 238
f 230 238 244
f 428 429 223
f 233 236 240
f 234 243 239
f 236 242 240
f 234 240 243
f 231 244 428
f 238 239 245
f 236 237 242
f 240 241 243
f 240 425 241
f 242 425 240
f 237 425 242
f 243 241 427
f 239 243 245
f 238 245 246
f 238 246 244
f 247 249 6
f 6 249 248
f 247 250 249
f 249 250 251
f 248 249 291
f 249 251 291
f 251 252 253
f 252 254 253
f 251 253 291
f 253 254 255
f 95 258 257
f 96 257 256
f 98 256 259
f 257 258 265
f 257 263 256
f 256 264 261
f 256 263 264
f 99 259 260
f 256 261 259
f 259 261 260
f 260 261 269
f 101 260 271
f 101 271 262
f 101 262 103
f 103 262 275
f 262 273 276
f 257 265 263
f 258 298 265
f 263 265 266
f 263 266 264
f 265 298 266
f 264 266 267
f 261 264 268
f 261 268 269
f 264 267 268
f 260 269 270
f 260 270 271
f 268 302 269
f 267 302 268
f 269 302 270
f 270 272 271
f 270 302 272
f 262 271 273
f 273 274 276
f 271 272 306
f 271 306 273
f 273 306 274
f 248 291 106
f 258 111 327
f 275 276 279
f 262 276 275
f 105 291 292
f 111 324 327
f 292 324 111
f 275 277 278
f 275 279 277
f 276 280 279
f 276 281 280
f 279 280 277
f 281 283 282
f 276 283 281
f 276 284 283
f 276 285 284
f 284 285 287
f 274 290 276
f 276 290 285
f 285 290 287
f 287 290 286
f 286 294 288
f 294 289 288
f 289 294 293
f 286 290 296
f 290 295 296
f 290 297 295
f 286 296 294
f 295 297 353
f 298 300 299
f 266 298 299
f 266 299 267
f 267 299 301
f 258 311 298
f 298 311 300
f 299 300 307
f 299 307 301
f 267 301 302
f 272 302 303
f 272 303 304
f 301 303 302
f 301 308 303
f 303 319 304
f 258 327 311
f 272 304 306
f 274 306 323
f 304 305 306
f 304 319 305
f 305 323 306
f 305 320 323
f 300 309 307
f 301 307 308
f 307 309 314
f 307 314 308
f 314 313 308
f 303 308 319
f 300 311 309
f 310 312 311
f 309 313 314
f 309 311 312
f 309 312 315
f 309 315 313
f 313 315 316
f 313 316 308
f 316 315 317
f 312 310 367
f 312 367 317
f 312 317 315
f 316 317 318
f 308 316 319
f 305 319 321
f 305 321 320
f 316 321 319
f 320 321 374
f 316 318 321
f 318 375 321
f 253 255 328
f 255 322 328
f 292 291 253
f 292 253 330
f 253 328 329
f 253 329 330
f 328 322 457
f 311 327 310
f 274 323 290
f 290 323 297
f 320 373 323
f 323 373 365
f 327 324 325
f 325 326 327
f 292 330 324
f 325 324 330
f 330 329 325
f 329 328 331
f 331 328 332
f 332 328 457
f 326 325 337
f 329 334 325
f 329 331 334
f 331 332 334
f 326 370 327
f 326 337 370
f 332 457 333
f 325 334 337
f 332 335 334
f 333 335 332
f 459 336 335
f 333 457 335
f 335 457 458
f 335 458 459
f 337 334 335
f 335 336 337
f 337 336 338
f 339 340 337
f 338 339 337
f 339 341 340
f 340 341 344
f 336 459 460
f 336 462 338
f 338 462 339
f 341 339 462
f 341 462 342
f 342 462 349
f 341 342 344
f 340 344 345
f 342 349 348
f 342 348 344
f 348 345 344
f 348 346 345
f 346 348 347
f 343 347 350
f 351 348 349
f 347 348 351
f 347 351 350
f 297 323 353
f 323 352 353
f 352 358 354
f 352 361 358
f 352 323 361
f 323 363 361
f 323 365 364
f 323 364 363
f 351 356 350
f 351 355 356
f 350 356 357
f 356 359 357
f 364 365 366
f 365 362 366
f 310 327 370
f 310 370 367
f 367 370 368
f 317 367 368
f 317 368 369
f 317 369 318
f 318 369 375
f 368 370 371
f 368 371 369
f 369 372 376
f 369 371 372
f 320 374 373
f 365 374 376
f 365 373 374
f 321 375 374
f 374 375 376
f 369 376 375
f 337 371 370
f 343 372 371
f 340 371 337
f 340 345 371
f 345 346 371
f 347 343 371
f 346 347 371
f 343 350 372
f 365 376 372
f 350 357 372
f 360 362 372
f 362 365 372
f 357 359 372
f 359 360 372
f 158 382 377
f 158 379 380
f 158 378 379
f 6 377 247
f 158 380 382
f 380 381 383
f 380 383 382
f 247 377 382
f 378 390 379
f 379 391 380
f 391 381 380
f 382 383 387
f 381 384 383
f 383 384 385
f 247 382 250
f 250 382 386
f 383 385 388
f 382 387 386
f 383 388 387
f 250 386 251
f 381 391 384
f 385 384 391
f 385 394 388
f 378 165 390
f 379 390 391
f 165 164 390
f 389 390 164
f 163 392 389
f 389 392 390
f 390 393 391
f 385 391 393
f 385 393 394
f 390 392 411
f 390 411 393
f 393 411 394
f 392 413 411
f 386 387 395
f 387 388 395
f 388 396 395
f 386 395 397
f 251 386 252
f 252 386 397
f 395 396 398
f 395 401 397
f 252 397 401
f 395 398 399
f 388 412 396
f 396 414 398
f 395 399 400
f 395 400 401
f 398 416 399
f 399 416 400
f 252 401 254
f 400 403 401
f 400 402 403
f 254 401 405
f 401 403 405
f 402 404 403
f 254 405 255
f 255 405 406
f 403 409 405
f 403 404 408
f 403 408 409
f 405 409 406
f 407 409 408
f 407 410 409
f 400 416 402
f 402 419 404
f 404 420 408
f 408 421 407
f 407 423 410
f 388 394 412
f 396 412 414
f 394 411 412
f 411 413 412
f 392 418 413
f 412 413 414
f 413 415 414
f 413 418 415
f 398 414 416
f 414 415 417
f 414 417 416
f 392 469 418
f 392 475 469
f 416 419 402
f 404 419 420
f 408 420 421
f 407 421 423
f 416 417 419
f 415 421 417
f 415 418 421
f 417 421 419
f 418 422 421
f 418 469 422
f 419 421 420
f 421 422 471
f 421 424 423
f 421 471 424
f 278 425 123
f 277 425 278
f 277 280 425
f 280 281 425
f 281 282 425
f 282 283 426
f 283 284 426
f 284 287 426
f 286 426 287
f 286 288 426
f 288 289 426
f 289 293 432
f 293 294 436
f 294 296 440
f 296 295 440
f 295 353 440
f 353 352 440
f 352 354 440
f 392 203 477
f 282 426 425
f 289 432 426
f 429 443 223
f 425 427 241
f 425 426 427
f 244 433 428
f 243 431 245
f 245 430 246
f 244 246 433
f 243 427 434
f 426 432 427
f 243 434 431
f 245 431 430
f 246 430 433
f 443 474 223
f 428 480 429
f 427 432 434
f 428 433 438
f 430 431 435
f 432 436 434
f 431 434 437
f 431 437 435
f 430 439 433
f 430 435 439
f 293 436 432
f 294 440 436
f 354 442 440
f 223 474 477
f 428 438 480
f 429 480 443
f 434 436 440
f 434 440 437
f 433 439 438
f 435 437 445
f 437 440 441
f 435 447 439
f 437 441 445
f 435 445 447
f 438 481 480
f 438 482 481
f 440 442 444
f 440 444 441
f 441 444 446
f 438 439 482
f 442 483 444
f 444 483 446
f 445 486 447
f 439 447 482
f 441 486 445
f 441 446 486
f 322 456 457
f 255 406 322
f 322 406 448
f 406 409 448
f 409 410 449
f 409 449 448
f 450 449 410
f 449 450 454
f 453 449 454
f 322 448 456
f 451 453 452
f 448 451 456
f 451 452 467
f 448 449 451
f 449 453 451
f 410 423 450
f 454 450 472
f 496 467 452
f 453 454 473
f 452 453 473
f 458 457 456
f 455 458 456
f 455 459 458
f 459 455 465
f 451 455 456
f 460 459 465
f 460 461 462
f 460 462 336
f 455 463 465
f 351 349 466
f 351 466 355
f 355 468 356
f 356 468 359
f 354 358 442
f 360 359 503
f 362 503 366
f 360 503 362
f 361 485 358
f 361 363 485
f 364 366 485
f 364 485 363
f 451 463 455
f 461 349 462
f 349 461 466
f 460 465 461
f 461 465 466
f 451 464 463
f 451 467 464
f 463 466 465
f 463 464 466
f 466 464 468
f 467 468 464
f 466 468 355
f 467 359 468
f 496 359 467
f 496 501 359
f 392 477 475
f 423 424 450
f 424 471 450
f 470 450 471
f 470 472 450
f 496 452 498
f 452 473 498
f 454 472 473
f 422 469 471
f 469 470 471
f 469 475 470
f 470 500 473
f 470 475 497
f 470 497 500
f 473 500 498
f 470 473 472
f 358 483 442
f 358 485 484
f 358 484 483
f 366 491 485
f 366 503 494
f 366 494 491
f 477 476 475
f 476 502 475
f 477 478 476
f 478 504 476
f 478 479 504
f 474 489 477
f 477 489 478
f 478 489 479
f 479 493 505
f 443 480 474
f 480 481 489
f 474 480 489
f 481 482 490
f 446 483 485
f 447 486 487
f 446 488 486
f 447 487 490
f 447 490 482
f 483 484 485
f 446 485 488
f 486 488 487
f 487 488 490
f 481 492 489
f 489 492 493
f 481 490 492
f 490 495 491
f 490 491 493
f 490 493 492
f 479 489 493
f 493 494 505
f 491 494 493
f 485 495 488
f 488 495 490
f 485 491 495
f 501 502 359
f 359 502 503
f 496 498 501
f 475 502 499
f 475 499 497
f 502 476 504
f 497 501 500
f 497 499 501
f 498 500 501
f 501 499 502
f 502 504 503
f 503 504 505
f 479 505 504
f 494 503 505
