# https://github.com/mikedh/trimesh

o collision
v -0.03267933 -0.02791044 0.00129994
v -0.03541944 -0.02434534 0.00000013
v -0.03664428 -0.02245967 0.00129994
v -0.03478387 -0.02527134 0.00129994
v -0.02791044 -0.03267933 0.00000013
v -0.02705599 -0.03341171 0.00129994
v -0.02434534 -0.03541944 0.00129994
v -0.02523853 -0.03480558 0.00000013
v -0.02529261 -0.03476691 0.00000013
v -0.02245967 -0.03664428 0.00000013
v -0.03114200 -0.02961038 0.00000013
v -0.03117247 -0.02958144 0.00000013
v -0.02958144 -0.03117247 0.00129994
v -0.03033477 -0.02203896 0.00131981
v -0.02786101 -0.02508530 0.00131811
v -0.02913812 -0.02359534 0.00131879
v -0.02508565 -0.02786071 0.00131776
v -0.02203896 -0.03033477 0.00131874
v -0.02359569 -0.02913782 0.00131808
v -0.02651020 -0.02650957 0.00131776
v -0.03777232 -0.02050666 0.00000013
v -0.03970850 -0.01644489 0.00000013
v -0.03879513 -0.01849892 0.00129994
v -0.04121411 -0.01217661 0.00000013
v -0.04120693 -0.01220634 0.00129994
v -0.03379855 -0.01620490 0.00132548
v -0.03247113 -0.01875000 0.00132291
v -0.03341083 -0.01701742 0.00132467
v -0.03500392 -0.01343481 0.00132635
v -0.03565750 -0.01158412 0.00132539
v -0.03425536 -0.01524749 0.00132607
v -0.04226341 -0.00783311 0.00000013
v -0.04226341 -0.00783311 0.00129994
v -0.04276429 -0.00448688 0.00129994
v -0.04284848 -0.00336727 0.00000013
v -0.04296633 -0.00112383 0.00129994
v -0.03621525 -0.00970536 0.00132374
v -0.03667776 -0.00779659 0.00132199
v -0.03703749 -0.00586580 0.00132091
v -0.03729448 -0.00391246 0.00132026
v -0.03744127 -0.00196016 0.00132003
v -0.03144333 -0.02042385 0.00132121
v -0.02050666 -0.03777232 0.00129994
v -0.01849892 -0.03879513 0.00000013
v -0.01644489 -0.03970850 0.00129994
v -0.01634706 -0.03974308 0.00129994
v -0.01875000 -0.03247113 0.00132109
v -0.01701742 -0.03341083 0.00132277
v -0.01220634 -0.04120693 0.00000013
v -0.01220634 -0.04120693 0.00129994
v -0.01343481 -0.03500392 0.00132658
v -0.01499711 -0.03435875 0.00132509
v -0.01524814 -0.03425509 0.00132477
v -0.01158477 -0.03565731 0.00132767
v -0.02042385 -0.03144333 0.00131975
v -0.00783311 -0.04226341 0.00000013
v -0.00783311 -0.04226341 0.00129994
v -0.00970536 -0.03621525 0.00132697
v -0.00955387 -0.03625196 0.00132689
v -0.00779724 -0.03667760 0.00132517
v -0.00586580 -0.03703749 0.00132320
v -0.00456411 -0.04275273 0.00000013
v -0.00445502 -0.04276596 0.00000013
v -0.00336727 -0.04284848 0.00129994
v -0.00394298 -0.03729444 0.00132160
v -0.00198964 -0.03744128 0.00132039
v -0.00195964 -0.03744128 0.00135039
v -0.00003000 -0.03749266 0.00131951
v -0.03033477 -0.02203896 0.06500000
v -0.02786071 -0.02508565 0.06500000
v -0.02911248 -0.02362525 0.06499969
v -0.02507699 -0.02786813 0.06500000
v -0.02203896 -0.03033477 0.06500000
v -0.02359534 -0.02913812 0.06500000
v -0.02653051 -0.02648815 0.06500000
v -0.03247113 -0.01875000 0.06500000
v -0.03341083 -0.01701742 0.06500000
v -0.03497788 -0.01349786 0.06500000
v -0.03566997 -0.01154212 0.06500000
v -0.03426034 -0.01523542 0.06499979
v -0.03621525 -0.00970536 0.06500000
v -0.03667776 -0.00779659 0.06500000
v -0.03703749 -0.00586580 0.06500000
v -0.03729444 -0.00391298 0.06500000
v -0.03744127 -0.00196016 0.06500000
v -0.03143058 -0.02044242 0.06500000
v -0.01875000 -0.03247113 0.06500000
v -0.01701659 -0.03341123 0.06499998
v -0.01343394 -0.03500423 0.06499998
v -0.01527636 -0.03424163 0.06500000
v -0.01158477 -0.03565731 0.06500000
v -0.02042385 -0.03144333 0.06500000
v -0.00969535 -0.03621767 0.06499984
v -0.00782357 -0.03667122 0.06500000
v -0.00586580 -0.03703749 0.06500000
v -0.00391298 -0.03729444 0.06500000
v -0.00196016 -0.03744127 0.06500000
v -0.00000002 -0.03750001 0.06500000
v -0.04296633 0.00112383 0.00000013
v -0.04284848 0.00336727 0.00129994
v -0.04276429 0.00448688 0.00000013
v -0.04275273 0.00456411 0.00000013
v -0.04226341 0.00783311 0.00000013
v -0.04226341 0.00783311 0.00126994
v -0.04226341 0.00783311 0.00129994
v -0.03749999 0.00003052 0.00132016
v -0.03744127 0.00199016 0.00132074
v -0.03729444 0.00394298 0.00132166
v -0.03703749 0.00586580 0.00132301
v -0.03667776 0.00779659 0.00132475
v -0.03621504 0.00970605 0.00132689
v -0.04120693 0.01220634 0.00003013
v -0.04120693 0.01220634 0.00000013
v -0.04120693 0.01220634 0.00129994
v -0.03970850 0.01644489 0.00129994
v -0.03879513 0.01849892 0.00000013
v -0.03777232 0.02050666 0.00129994
v -0.03565731 0.01158477 0.00132940
v -0.03500392 0.01343481 0.00133096
v -0.03493265 0.01360739 0.00133090
v -0.03425509 0.01524814 0.00132905
v -0.03341083 0.01701742 0.00132732
v -0.03247077 0.01875060 0.00132604
v -0.03144295 0.02042441 0.00132525
v -0.03664428 0.02245967 0.00000013
v -0.03541944 0.02434534 0.00129994
v -0.03478387 0.02527134 0.00000013
v -0.03267933 0.02791044 0.00000013
v -0.03033477 0.02203896 0.00132492
v -0.02913812 0.02359534 0.00132507
v -0.02786071 0.02508565 0.00132569
v -0.03117247 0.02958144 0.00129994
v -0.02958144 0.03117247 0.00000013
v -0.02650989 0.02650989 0.00132677
v -0.02508507 0.02786121 0.00132832
v -0.02359469 0.02913862 0.00133009
v -0.02333367 0.02933931 0.00133027
v -0.02283063 0.02972608 0.00133018
v -0.02203896 0.03033477 0.00132910
v -0.02791044 0.03267933 0.00129994
v -0.02527134 0.03478387 0.00129994
v -0.02434534 0.03541944 0.00000013
v -0.02245967 0.03664428 0.00129994
v -0.02042385 0.03144333 0.00132678
v -0.01875000 0.03247113 0.00132467
v -0.01701742 0.03341083 0.00132255
v -0.02050666 0.03777232 0.00000013
v -0.01849892 0.03879513 0.00129994
v -0.01644489 0.03970850 0.00000013
v -0.01524814 0.03425509 0.00132072
v -0.01343481 0.03500392 0.00131918
v -0.01158434 0.03565744 0.00131794
v -0.01220634 0.04120693 0.00000013
v -0.01220634 0.04120693 0.00129994
v -0.00970536 0.03621525 0.00131699
v -0.00779620 0.03667783 0.00131632
v -0.00586580 0.03703749 0.00131597
v -0.00783311 0.04226341 0.00000013
v -0.00783311 0.04226341 0.00129994
v -0.00391259 0.03729447 0.00131593
v -0.00196016 0.03744127 0.00131620
v -0.00448688 0.04276429 0.00129994
v -0.00336980 0.04284815 0.00000013
v -0.00326275 0.04285122 0.00000013
v -0.03750001 0.00000000 0.06500000
v -0.03743653 0.00202313 0.06500000
v -0.03729444 0.00391298 0.06500000
v -0.03703749 0.00586580 0.06500000
v -0.03667793 0.00779568 0.06500000
v -0.03621525 0.00970536 0.06500000
v -0.03565731 0.01158477 0.06500000
v -0.03500392 0.01343481 0.06500000
v -0.03425545 0.01524729 0.06500000
v -0.03341083 0.01701742 0.06500000
v -0.03245459 0.01877694 0.06500000
v -0.03144333 0.02042385 0.06500000
v -0.03033529 0.02203820 0.06500000
v -0.02913812 0.02359534 0.06500000
v -0.02786071 0.02508565 0.06500000
v -0.02651021 0.02650956 0.06500000
v -0.02508565 0.02786071 0.06500000
v -0.02359534 0.02913812 0.06500000
v -0.02203969 0.03033421 0.06500000
v -0.02042385 0.03144333 0.06500000
v -0.01875000 0.03247113 0.06500000
v -0.01701742 0.03341083 0.06500000
v -0.01524814 0.03425509 0.06500000
v -0.01343481 0.03500392 0.06500000
v -0.01158477 0.03565731 0.06500000
v -0.00970536 0.03621525 0.06500000
v -0.00779659 0.03667776 0.06500000
v -0.00586580 0.03703749 0.06500000
v -0.00391298 0.03729444 0.06500000
v -0.00196016 0.03744127 0.06500000
v -0.00006015 0.03749821 0.06500000
v 0.00000000 -0.04300000 0.00000013
v 0.00112383 -0.04296633 0.00129994
v 0.00448666 -0.04276430 0.00000013
v 0.00456594 -0.04275246 0.00000084
v 0.00196016 -0.03744127 0.00131898
v 0.00391298 -0.03729444 0.00131880
v 0.00783311 -0.04226341 0.00000013
v 0.00783311 -0.04226341 0.00129994
v 0.00586580 -0.03703749 0.00131900
v 0.00779659 -0.03667776 0.00131958
v 0.00970536 -0.03621525 0.00132052
v 0.01220634 -0.04120693 0.00000013
v 0.01220634 -0.04120693 0.00129994
v 0.01158477 -0.03565731 0.00132181
v 0.01343481 -0.03500392 0.00132344
v 0.01524814 -0.03425509 0.00132543
v 0.01644489 -0.03970850 0.00129994
v 0.01848401 -0.03880084 0.00000013
v 0.01854228 -0.03877158 0.00000013
v 0.02050666 -0.03777232 0.00129994
v 0.01701742 -0.03341083 0.00132751
v 0.01735392 -0.03322832 0.00132794
v 0.01864769 -0.03252662 0.00132873
v 0.01875067 -0.03247072 0.00132870
v 0.02042385 -0.03144333 0.00132761
v 0.02245967 -0.03664428 0.00000013
v 0.02434534 -0.03541944 0.00129994
v 0.02525875 -0.03479220 0.00000013
v 0.02529991 -0.03476108 0.00000013
v 0.02787876 -0.03270459 0.00000013
v 0.02791567 -0.03267436 0.00000013
v 0.02705599 -0.03341171 0.00129994
v 0.02203896 -0.03033477 0.00132564
v 0.02359534 -0.02913812 0.00132366
v 0.02508565 -0.02786071 0.00132199
v 0.02650989 -0.02650989 0.00132065
v 0.02958144 -0.03117247 0.00129994
v 0.03116531 -0.02958824 0.00000013
v 0.02786071 -0.02508565 0.00131966
v 0.02913812 -0.02359534 0.00131900
v 0.03033477 -0.02203896 0.00131869
v 0.03267933 -0.02791044 0.00129994
v 0.03478387 -0.02527134 0.00129994
v 0.03541944 -0.02434534 0.00000013
v 0.03664428 -0.02245967 0.00129994
v 0.03144333 -0.02042385 0.00131875
v 0.03247113 -0.01875000 0.00131915
v 0.03341083 -0.01701742 0.00131990
v 0.03425509 -0.01524814 0.00132100
v 0.03500392 -0.01343481 0.00132245
v 0.03565749 -0.01158415 0.00132424
v 0.03776103 -0.02052508 0.00000013
v 0.03778973 -0.02047014 0.00000013
v 0.03879513 -0.01849892 0.00129994
v 0.03970685 -0.01644835 0.00000013
v 0.03974308 -0.01634706 0.00000013
v 0.04120693 -0.01220634 0.00000013
v 0.04120693 -0.01220634 0.00129994
v 0.03621542 -0.00970467 0.00132635
v 0.03667790 -0.00779582 0.00132877
v 0.03667776 -0.00779659 0.00132877
v 0.03703749 -0.00586580 0.00133127
v 0.03710604 -0.00534484 0.00133175
v 0.03715344 -0.00501458 0.00133168
v 0.03729450 -0.00394215 0.00133047
v 0.03744129 -0.00198938 0.00132859
v 0.03750001 -0.00003000 0.00132713
v 0.04226341 -0.00783311 0.00000013
v 0.04226341 -0.00783311 0.00129994
v 0.04275273 -0.00456411 0.00129925
v 0.04276429 -0.00448688 0.00129994
v 0.04284848 -0.00336727 0.00000013
v 0.04296633 -0.00112383 0.00129994
v 0.00000000 -0.03749633 0.03315356
v 0.00196233 -0.03744110 0.06500000
v 0.00391298 -0.03729444 0.06500000
v 0.00590044 -0.03703104 0.06500000
v 0.00779659 -0.03667776 0.06500000
v 0.00970536 -0.03621525 0.06500000
v 0.01158477 -0.03565731 0.06500000
v 0.01341327 -0.03501153 0.06500000
v 0.01524814 -0.03425509 0.06500000
v 0.01698739 -0.03342516 0.06500000
v 0.01875000 -0.03247113 0.06500000
v 0.02041633 -0.03144795 0.06500000
v 0.02203896 -0.03033477 0.06500000
v 0.02359534 -0.02913812 0.06500000
v 0.02508565 -0.02786071 0.06500000
v 0.02651577 -0.02650370 0.06500000
v 0.02788177 -0.02506108 0.06500000
v 0.02913302 -0.02360129 0.06500000
v 0.03033477 -0.02203896 0.06500000
v 0.03142274 -0.02045385 0.06500000
v 0.03247113 -0.01875000 0.06500000
v 0.03341603 -0.01700653 0.06499981
v 0.03425509 -0.01524814 0.06500000
v 0.03500392 -0.01343481 0.06500000
v 0.03566902 -0.01154534 0.06500000
v 0.03622041 -0.00968405 0.06499966
v 0.03667776 -0.00779659 0.06500000
v 0.03703732 -0.00586671 0.06499992
v 0.03729444 -0.00391298 0.06500000
v 0.03744445 -0.00185404 0.06499881
v 0.00000000 0.03750001 0.00131674
v 0.00199016 0.03744127 0.00131764
v 0.00394298 0.03729444 0.00131878
v 0.00112383 0.04296633 0.00000013
v 0.00000000 0.04300000 0.00129994
v 0.00448688 0.04276429 0.00129994
v 0.00586580 0.03703749 0.00132030
v 0.00779659 0.03667776 0.00132197
v 0.00970536 0.03621525 0.00132376
v 0.00783311 0.04226341 0.00000013
v 0.00783311 0.04226341 0.00129994
v 0.02042385 0.03144333 0.00132121
v 0.01122614 0.03576377 0.00132517
v 0.01158477 0.03565731 0.00132539
v 0.01524814 0.03425509 0.00132607
v 0.01343481 0.03500392 0.00132635
v 0.01220634 0.04120693 0.00000013
v 0.01220634 0.04120693 0.00129994
v 0.01701742 0.03341083 0.00132467
v 0.01620490 0.03379855 0.00132548
v 0.01875000 0.03247113 0.00132291
v 0.01644489 0.03970850 0.00000013
v 0.01849892 0.03879513 0.00129994
v 0.02050666 0.03777232 0.00000013
v 0.03144300 0.02042433 0.00132246
v 0.03744127 0.00196016 0.00132620
v 0.03729444 0.00391298 0.00132570
v 0.03703749 0.00586580 0.00132572
v 0.03667776 0.00779659 0.00132624
v 0.03621525 0.00970536 0.00132725
v 0.04296441 0.00115575 0.00000013
v 0.04296599 0.00111071 0.00000013
v 0.04284848 0.00336727 0.00129994
v 0.04276429 0.00448688 0.00000013
v 0.04226341 0.00783311 0.00000013
v 0.04226341 0.00783311 0.00129994
v 0.03453149 0.01457882 0.00132993
v 0.03425509 0.01524814 0.00132907
v 0.03565695 0.01158579 0.00132873
v 0.03503246 0.01335399 0.00133038
v 0.03341083 0.01701742 0.00132652
v 0.03247113 0.01875000 0.00132430
v 0.04120693 0.01220634 0.00000013
v 0.04120693 0.01220634 0.00129994
v 0.03879513 0.01849892 0.00000013
v 0.03970850 0.01644489 0.00129994
v 0.03777232 0.02050666 0.00129994
v 0.02650989 0.02650989 0.00131880
v 0.02359534 0.02913812 0.00131919
v 0.02203896 0.03033477 0.00131995
v 0.02508565 0.02786071 0.00131881
v 0.02913779 0.02359573 0.00131988
v 0.02786071 0.02508565 0.00131916
v 0.03033477 0.02203896 0.00132098
v 0.02958144 0.03117247 0.00000013
v 0.03117247 0.02958144 0.00129994
v 0.02245967 0.03664428 0.00129994
v 0.02527134 0.03478387 0.00129994
v 0.02434534 0.03541944 0.00000013
v 0.02791044 0.03267933 0.00129994
v 0.03478387 0.02527134 0.00000013
v 0.03664428 0.02245967 0.00000013
v 0.03541944 0.02434534 0.00129994
v 0.03267933 0.02791044 0.00000013
v 0.03341171 0.02705599 0.00129994
v 0.00196016 0.03744127 0.06500000
v 0.00391298 0.03729444 0.06500000
v 0.00586580 0.03703749 0.06500000
v 0.00779659 0.03667776 0.06500000
v 0.00970536 0.03621525 0.06500000
v 0.02042385 0.03144333 0.06500000
v 0.01158477 0.03565731 0.06500000
v 0.01524814 0.03425509 0.06500000
v 0.01343481 0.03500392 0.06500000
v 0.01701742 0.03341083 0.06500000
v 0.01875000 0.03247113 0.06500000
v 0.03142627 0.02044870 0.06500000
v 0.03750001 0.00000000 0.06500000
v 0.03744129 0.00195924 0.06500000
v 0.03729444 0.00391298 0.06500000
v 0.03702991 0.00590652 0.06500000
v 0.03667776 0.00779659 0.06500000
v 0.03619486 0.00977403 0.06500000
v 0.03425509 0.01524814 0.06500000
v 0.03563349 0.01165220 0.06499912
v 0.03500392 0.01343481 0.06500000
v 0.03341083 0.01701742 0.06500000
v 0.03247113 0.01875000 0.06500000
v 0.02650989 0.02650989 0.06500000
v 0.02359534 0.02913812 0.06500000
v 0.02203896 0.03033477 0.06500000
v 0.02508565 0.02786071 0.06500000
v 0.02913812 0.02359534 0.06500000
v 0.02784453 0.02510271 0.06500000
v 0.03033477 0.02203896 0.06500000
f 2 12 1
f 12 2 11
f 3 21 2
f 2 4 3
f 1 4 2
f 1 28 4
f 5 11 9
f 5 6 13
f 7 9 8
f 5 9 6
f 6 9 7
f 8 10 7
f 7 10 43
f 6 7 52
f 6 47 55
f 1 11 13
f 5 13 11
f 2 9 11
f 1 12 11
f 8 9 2
f 2 10 8
f 6 42 13
f 6 20 15
f 6 15 16
f 1 13 27
f 6 14 42
f 13 42 27
f 6 16 14
f 6 18 19
f 6 19 17
f 6 17 20
f 6 55 18
f 10 101 62
f 14 69 42
f 16 69 14
f 15 70 16
f 15 20 70
f 75 20 17
f 18 73 19
f 17 19 74
f 21 22 2
f 3 23 21
f 21 23 22
f 22 24 2
f 22 25 24
f 22 23 25
f 23 29 25
f 25 29 33
f 29 30 33
f 3 4 26
f 3 31 23
f 4 28 26
f 1 27 28
f 10 2 101
f 3 26 31
f 23 31 29
f 24 33 32
f 24 25 33
f 33 34 32
f 37 34 33
f 2 24 101
f 30 37 33
f 37 38 36
f 34 35 32
f 24 32 101
f 34 36 35
f 34 37 36
f 32 35 101
f 35 36 99
f 36 38 39
f 39 40 105
f 26 77 31
f 27 76 28
f 26 28 77
f 29 78 30
f 30 79 37
f 31 80 29
f 37 82 38
f 38 83 39
f 84 40 39
f 40 84 41
f 85 106 41
f 76 27 42
f 43 10 44
f 43 44 45
f 10 56 44
f 7 43 51
f 6 48 47
f 6 53 48
f 6 52 53
f 43 45 51
f 7 51 52
f 46 49 50
f 44 49 45
f 45 49 46
f 45 46 54
f 44 56 49
f 10 62 56
f 50 49 56
f 46 50 54
f 50 58 54
f 45 54 51
f 63 62 101
f 63 101 196
f 50 56 57
f 50 57 58
f 57 59 58
f 56 62 57
f 57 64 59
f 59 64 60
f 57 62 64
f 62 63 64
f 60 64 197
f 61 60 197
f 64 63 196
f 64 196 197
f 61 203 65
f 66 67 65
f 67 66 68
f 67 68 269
f 47 48 87
f 53 90 48
f 52 90 53
f 52 51 90
f 54 89 51
f 54 58 91
f 55 92 18
f 87 55 47
f 58 59 93
f 60 93 59
f 60 61 94
f 61 65 96
f 65 67 97
f 75 70 20
f 71 69 16
f 16 70 71
f 75 17 72
f 72 17 74
f 18 92 73
f 19 73 74
f 71 70 69
f 73 92 74
f 92 72 74
f 70 75 72
f 76 77 28
f 30 78 79
f 31 77 80
f 80 78 29
f 37 81 82
f 79 81 37
f 82 83 38
f 83 84 39
f 84 85 41
f 85 165 106
f 69 86 42
f 86 76 42
f 77 76 80
f 79 78 81
f 82 81 76
f 82 76 83
f 78 80 76
f 81 78 76
f 83 76 69
f 83 69 168
f 84 165 85
f 84 83 168
f 168 69 169
f 69 76 86
f 48 88 87
f 90 88 48
f 90 51 89
f 89 54 91
f 55 87 92
f 67 269 98
f 58 93 91
f 60 94 93
f 61 95 94
f 61 96 95
f 96 65 97
f 67 98 97
f 89 91 90
f 92 98 72
f 88 90 91
f 92 87 98
f 87 88 98
f 91 98 88
f 94 95 93
f 93 98 91
f 95 96 93
f 93 96 98
f 97 98 96
f 69 70 195
f 72 195 70
f 98 195 72
f 101 35 99
f 36 100 99
f 39 105 36
f 99 100 101
f 36 105 100
f 100 102 101
f 100 104 102
f 40 41 105
f 105 41 106
f 105 106 107
f 105 107 108
f 100 105 104
f 102 104 103
f 113 101 102
f 103 113 102
f 103 104 114
f 104 105 114
f 113 103 112
f 103 114 112
f 105 108 109
f 109 110 105
f 105 110 111
f 111 118 105
f 112 114 115
f 113 112 116
f 105 119 114
f 113 125 101
f 118 119 105
f 112 115 116
f 114 119 115
f 116 125 113
f 115 117 116
f 116 117 125
f 115 119 120
f 115 120 117
f 117 120 121
f 117 121 126
f 121 122 126
f 123 126 122
f 123 124 126
f 106 166 107
f 166 108 107
f 108 167 109
f 109 169 110
f 111 110 170
f 170 118 111
f 171 119 118
f 119 172 120
f 120 172 121
f 122 121 173
f 123 122 175
f 123 175 124
f 117 126 125
f 125 126 127
f 124 129 126
f 127 128 125
f 126 128 127
f 126 132 128
f 126 129 130
f 126 130 131
f 126 131 134
f 126 134 135
f 128 132 133
f 126 135 132
f 128 147 125
f 132 140 133
f 132 136 140
f 125 302 101
f 132 135 136
f 136 137 140
f 137 138 141
f 128 133 147
f 133 140 142
f 140 141 142
f 137 141 140
f 133 142 147
f 138 143 141
f 141 143 142
f 142 143 147
f 124 177 129
f 129 178 130
f 130 179 131
f 179 134 131
f 135 134 181
f 135 181 136
f 136 182 137
f 137 183 138
f 138 183 139
f 139 183 144
f 101 302 196
f 138 139 148
f 139 144 148
f 147 163 125
f 138 148 143
f 143 148 147
f 147 148 149
f 144 145 159
f 148 144 159
f 164 125 163
f 145 146 159
f 164 302 125
f 150 159 146
f 150 151 159
f 148 154 149
f 149 163 147
f 149 154 153
f 151 152 159
f 148 159 154
f 153 154 159
f 152 155 159
f 155 156 159
f 149 153 163
f 153 159 158
f 156 157 159
f 157 160 159
f 158 163 153
f 159 162 158
f 159 160 161
f 159 161 299
f 158 162 163
f 159 301 162
f 159 299 300
f 159 300 301
f 163 303 164
f 162 303 163
f 164 303 302
f 144 185 145
f 145 185 146
f 146 186 150
f 150 187 151
f 152 151 189
f 152 189 155
f 156 155 191
f 156 191 157
f 192 160 157
f 160 194 161
f 161 194 299
f 106 165 166
f 166 167 108
f 109 167 168
f 168 169 109
f 169 170 110
f 170 171 118
f 171 172 119
f 172 173 121
f 122 173 174
f 122 174 175
f 175 176 124
f 124 176 177
f 165 84 167
f 167 166 165
f 167 84 168
f 69 173 169
f 170 169 173
f 171 170 173
f 172 171 173
f 174 173 175
f 69 195 173
f 175 173 178
f 176 175 177
f 177 175 178
f 179 178 173
f 178 129 177
f 130 178 179
f 179 180 134
f 134 180 181
f 136 181 182
f 182 183 137
f 180 179 173
f 181 180 173
f 181 173 182
f 182 173 183
f 183 184 144
f 144 184 185
f 185 186 146
f 186 187 150
f 187 188 151
f 151 188 189
f 189 190 155
f 155 190 191
f 191 192 157
f 192 193 160
f 160 193 194
f 194 195 299
f 173 195 183
f 184 188 185
f 186 185 188
f 187 186 188
f 183 195 184
f 184 195 188
f 190 189 188
f 190 188 195
f 191 190 195
f 192 191 193
f 193 191 194
f 191 195 194
f 61 197 203
f 196 198 197
f 65 203 66
f 66 203 68
f 197 198 203
f 68 203 200
f 200 203 201
f 198 199 203
f 199 202 203
f 199 198 207
f 201 203 204
f 203 205 204
f 199 207 202
f 203 202 208
f 203 206 205
f 203 209 206
f 68 200 269
f 202 207 208
f 203 210 209
f 203 208 216
f 208 207 212
f 207 213 212
f 208 212 217
f 203 211 210
f 203 216 211
f 208 217 216
f 212 213 214
f 212 214 215
f 215 214 221
f 212 215 217
f 214 213 223
f 207 233 213
f 215 222 218
f 215 218 217
f 218 222 219
f 219 222 220
f 200 201 271
f 201 204 271
f 204 205 273
f 206 274 205
f 206 209 275
f 209 210 275
f 210 211 277
f 211 216 277
f 216 217 279
f 217 218 279
f 218 219 279
f 220 280 219
f 198 196 302
f 302 207 198
f 207 302 247
f 214 223 221
f 215 221 222
f 221 223 222
f 220 222 227
f 222 223 224
f 213 233 223
f 222 224 227
f 224 225 227
f 233 224 223
f 225 226 227
f 225 224 233
f 226 232 227
f 220 232 228
f 220 227 232
f 228 237 229
f 207 247 233
f 228 232 237
f 225 233 226
f 229 238 230
f 232 226 233
f 229 237 238
f 232 233 237
f 230 238 231
f 231 238 234
f 234 238 235
f 235 238 236
f 236 238 241
f 237 233 239
f 237 239 238
f 233 247 239
f 238 239 240
f 239 247 240
f 220 228 281
f 228 229 282
f 229 230 283
f 230 231 283
f 231 234 284
f 234 235 286
f 236 287 235
f 236 241 287
f 238 242 241
f 238 243 242
f 238 244 243
f 238 245 244
f 240 247 248
f 238 240 256
f 238 246 245
f 240 249 255
f 238 254 246
f 238 256 254
f 240 255 256
f 240 248 249
f 248 250 249
f 249 250 253
f 250 251 253
f 249 253 257
f 251 252 253
f 249 257 255
f 341 248 247
f 250 248 341
f 253 264 258
f 253 258 257
f 251 250 341
f 253 252 264
f 252 263 264
f 252 251 341
f 265 258 264
f 263 252 267
f 263 265 264
f 265 263 266
f 258 266 259
f 259 268 260
f 260 331 261
f 258 265 266
f 259 266 268
f 266 263 267
f 266 267 268
f 268 331 260
f 252 341 267
f 267 330 268
f 241 242 289
f 243 289 242
f 243 244 291
f 244 245 292
f 245 246 293
f 246 254 293
f 295 254 256
f 255 295 256
f 255 257 296
f 297 257 258
f 297 258 259
f 259 260 297
f 297 260 261
f 261 262 376
f 269 200 98
f 98 200 270
f 200 271 270
f 271 204 272
f 272 204 273
f 273 205 274
f 206 275 274
f 275 210 276
f 210 277 276
f 277 216 278
f 216 279 278
f 219 280 279
f 220 281 280
f 270 271 98
f 271 272 98
f 272 275 98
f 272 273 275
f 275 277 98
f 273 274 275
f 275 276 277
f 98 277 282
f 278 282 277
f 279 280 278
f 278 280 282
f 98 282 195
f 287 195 282
f 288 195 287
f 288 289 195
f 228 282 281
f 229 283 282
f 231 284 283
f 234 285 284
f 234 286 285
f 235 287 286
f 280 281 282
f 283 284 282
f 285 282 284
f 287 282 285
f 285 286 287
f 287 241 288
f 241 289 288
f 289 243 290
f 290 243 291
f 291 244 292
f 292 245 293
f 293 254 294
f 294 254 295
f 255 296 295
f 257 297 296
f 261 298 297
f 298 261 376
f 290 293 289
f 293 290 291
f 292 293 291
f 295 296 297
f 297 376 295
f 297 298 376
f 247 302 322
f 162 301 305
f 162 306 303
f 302 303 304
f 162 305 306
f 303 306 304
f 302 304 308
f 304 306 307
f 304 311 309
f 308 315 302
f 304 309 308
f 304 307 311
f 309 311 312
f 309 312 316
f 309 316 308
f 302 315 320
f 312 314 321
f 314 313 321
f 320 322 302
f 308 316 315
f 312 321 316
f 316 321 320
f 316 320 315
f 313 318 321
f 317 356 318
f 317 319 358
f 318 355 321
f 318 356 355
f 320 321 322
f 321 355 322
f 300 299 195
f 300 364 301
f 301 366 305
f 366 306 305
f 368 307 306
f 368 311 307
f 310 319 374
f 311 370 312
f 312 370 314
f 314 372 313
f 317 318 373
f 313 373 318
f 317 373 319
f 247 322 341
f 261 331 262
f 262 331 324
f 324 331 325
f 325 331 326
f 268 330 329
f 268 329 331
f 267 341 330
f 329 332 331
f 330 341 329
f 331 332 334
f 326 331 327
f 327 331 328
f 331 334 337
f 331 337 328
f 334 342 337
f 341 332 329
f 332 333 334
f 333 341 342
f 341 333 332
f 342 334 333
f 337 342 338
f 335 338 344
f 335 361 336
f 339 363 340
f 339 336 363
f 335 344 345
f 335 345 361
f 341 359 360
f 338 342 344
f 343 344 341
f 342 341 344
f 341 360 343
f 343 345 344
f 343 360 345
f 340 323 375
f 262 324 377
f 324 325 378
f 326 379 325
f 326 327 380
f 327 328 380
f 335 384 338
f 336 382 335
f 328 337 383
f 384 337 338
f 340 386 339
f 339 385 336
f 319 310 354
f 347 363 348
f 310 348 363
f 319 354 358
f 346 351 363
f 323 363 352
f 350 363 351
f 352 363 350
f 347 349 363
f 346 363 349
f 310 363 354
f 322 353 341
f 354 362 353
f 354 353 358
f 317 358 356
f 322 355 357
f 355 356 357
f 322 357 353
f 356 358 357
f 353 357 358
f 323 340 363
f 336 361 363
f 362 363 359
f 359 363 361
f 341 353 359
f 359 361 360
f 345 360 361
f 353 362 359
f 354 363 362
f 347 348 388
f 310 389 348
f 347 390 349
f 346 349 390
f 387 351 346
f 350 351 392
f 350 393 352
f 323 352 393
f 195 364 300
f 364 365 301
f 365 366 301
f 366 367 306
f 367 368 306
f 369 310 374
f 310 369 389
f 311 368 370
f 370 372 314
f 313 372 371
f 373 313 371
f 373 374 319
f 364 195 365
f 195 366 365
f 195 368 366
f 368 367 366
f 195 374 368
f 195 392 388
f 391 392 195
f 195 375 391
f 195 369 374
f 368 374 370
f 195 389 369
f 374 372 370
f 195 388 389
f 374 371 372
f 371 374 373
f 375 386 340
f 375 323 393
f 262 377 376
f 324 378 377
f 378 325 379
f 326 380 379
f 328 383 381
f 328 381 380
f 335 382 384
f 385 382 336
f 337 384 383
f 339 386 385
f 195 289 293
f 294 195 293
f 295 195 294
f 195 295 376
f 376 379 195
f 195 379 375
f 376 377 378
f 376 378 379
f 380 381 379
f 375 379 381
f 381 384 375
f 384 382 385
f 384 381 383
f 375 384 386
f 384 385 386
f 347 388 390
f 388 348 389
f 387 346 390
f 391 350 392
f 391 393 350
f 387 392 351
f 392 387 390
f 392 390 388
f 391 375 393
