# https://github.com/mikedh/trimesh

o collision
v -0.06687038 -0.01408211 -0.09791582
v -0.06271382 -0.02593417 -0.10188653
v -0.05503706 -0.04176200 -0.09508469
v -0.05874682 -0.01799340 -0.10518951
v -0.05612020 -0.03573389 -0.10288959
v -0.06829200 -0.01016544 -0.09008124
v -0.06452131 -0.02474144 -0.09008124
v -0.06159006 -0.03148950 -0.09008124
v -0.06814307 -0.00233212 -0.09791582
v -0.06691100 0.01333454 -0.09791582
v -0.06466009 -0.00820711 -0.10357364
v -0.06380373 0.01818336 -0.10291184
v -0.05874682 -0.00233212 -0.10599671
v -0.05874682 0.01333454 -0.10561686
v -0.05691926 0.04068305 -0.10363769
v -0.05692202 0.04067769 -0.10363667
v -0.05692202 0.04069745 -0.10363667
v -0.05987065 0.04068643 -0.09791582
v -0.05987062 0.04068646 -0.09791587
v -0.05987119 0.04069745 -0.09791477
v -0.06883357 0.00550121 -0.09008124
v -0.06696516 0.01725121 -0.09008124
v -0.06072740 0.04069745 -0.09013537
v -0.06072748 0.04068670 -0.09011124
v -0.06073709 0.04068670 -0.09008124
v -0.06072930 0.04068670 -0.08890916
v -0.06073195 0.04066745 -0.08714743
v -0.06073192 0.04069745 -0.08713832
v -0.06073916 0.04069745 -0.08233984
v -0.06072740 0.04069745 -0.06658582
v -0.06066058 0.04069745 -0.06650678
v -0.06071154 0.04071084 -0.06559905
v -0.06072021 0.04071386 -0.06556904
v -0.06071249 0.04095806 -0.06556904
v -0.06065420 0.04070990 -0.06559905
v -0.04765816 -0.04996067 -0.09316760
v -0.04687288 -0.04920850 -0.10147699
v -0.05090758 -0.02973802 -0.10597000
v -0.05090758 -0.02190468 -0.10629644
v -0.04117285 -0.04929178 -0.10392826
v -0.03845146 -0.05666574 -0.09791582
v -0.03914234 -0.05714896 -0.09008138
v -0.03914234 -0.05714896 -0.09005138
v -0.05091109 0.04066745 -0.10586916
v -0.05090477 0.04069745 -0.10587361
v -0.04308202 0.04068634 -0.10630238
v -0.06664698 -0.01799340 -0.05875481
v -0.06320123 -0.02699796 -0.05330622
v -0.06253104 -0.02954459 -0.05875481
v -0.06288983 -0.01879930 -0.04683676
v -0.05503706 -0.04177276 -0.05423214
v -0.05503706 -0.04177276 -0.05423212
v -0.05532138 -0.03450892 -0.04671212
v -0.06902312 -0.00233212 -0.05875481
v -0.06688391 -0.00233212 -0.05092023
v -0.06774366 0.01333454 -0.05875481
v -0.06649128 0.00941788 -0.05092023
v -0.06370219 -0.00233212 -0.04639458
v -0.06264613 0.02115175 -0.04700888
v -0.06063228 0.04066745 -0.05874905
v -0.06063801 0.04069745 -0.05881527
v -0.06063803 0.04069745 -0.05874905
v -0.05874682 0.00354288 -0.04578176
v -0.05859789 0.04068670 -0.05092023
v -0.05859654 0.04068670 -0.05092023
v -0.05859561 0.04068670 -0.05091664
v -0.05859117 0.04068128 -0.05090684
v -0.05859117 0.04071128 -0.05090684
v -0.05859180 0.04071159 -0.05090799
v -0.05859332 0.04071253 -0.05091086
v -0.05716525 0.04069745 -0.04866164
v -0.05573628 0.04066745 -0.04641893
v -0.05576399 0.04069745 -0.04644560
v -0.05573628 0.04069745 -0.04641893
v -0.04751522 -0.04984906 -0.05361949
v -0.04752277 -0.04984247 -0.05361485
v -0.04564081 -0.04799429 -0.04839180
v -0.04895454 -0.02974070 -0.04580847
v -0.03915550 -0.05714928 -0.05875481
v -0.03558790 -0.05719763 -0.05092023
v -0.05096837 0.04069745 -0.04575617
v -0.05092615 0.04069745 -0.04575184
v -0.05091193 0.04066607 -0.04575062
v -0.05091373 0.04069745 -0.04575092
v -0.05086504 0.04069745 -0.04575059
v -0.04312747 0.04069745 -0.04569810
v -0.05925890 0.10342058 -0.06557302
v -0.05926470 0.10342058 -0.06557302
v -0.05822776 0.11123692 -0.06557302
v -0.05822478 0.11124447 -0.06557302
v -0.05822478 0.11124447 -0.06556904
v -0.05822803 0.11122041 -0.06551608
v -0.05608727 0.11857827 -0.06557302
v -0.05273103 0.12742007 -0.06557302
v -0.04307998 0.07210572 -0.10630424
v -0.04985570 0.13465349 -0.06557531
v -0.04985570 0.13465349 -0.06556904
v -0.04308246 0.15085052 -0.06557302
v -0.04307960 0.15085052 -0.06556904
v -0.03540976 0.16669609 -0.06557302
v -0.03541191 0.16668761 -0.06556904
v -0.05860135 0.06090573 -0.03858491
v -0.05927138 0.06424522 -0.03859166
v -0.05926891 0.06423303 -0.03859105
v -0.05742863 0.05642327 -0.03858854
v -0.05659614 0.05360175 -0.03858491
v -0.05928179 0.07657217 -0.03855491
v -0.05526469 0.05116220 -0.03858491
v -0.05525797 0.05115871 -0.03858692
v -0.05525797 0.05115871 -0.03858491
v -0.05311749 0.05094133 -0.03859016
v -0.05312327 0.05094147 -0.03859011
v -0.05305392 0.05094133 -0.03859014
v -0.05928280 0.10341924 -0.05091742
v -0.05928948 0.08740423 -0.03858491
v -0.05929241 0.09560440 -0.03858491
v -0.05928630 0.10012262 -0.03858491
v -0.05928630 0.10008606 -0.03858491
v -0.05928280 0.10341924 -0.03861491
v -0.05927481 0.10341924 -0.03858491
v -0.05928280 0.10341924 -0.03858491
v -0.05913291 0.10419848 -0.03858491
v -0.05830770 0.10854387 -0.03858491
v -0.05928629 0.10342527 -0.03524793
v -0.05928629 0.10342527 -0.03521793
v -0.05927251 0.06425085 -0.01659079
v -0.05927778 0.06425743 -0.01651976
v -0.05723448 0.05643440 -0.01654976
v -0.05723130 0.05642257 -0.01654478
v -0.05722981 0.05641950 -0.01653866
v -0.05500292 0.05240088 -0.01654976
v -0.05500001 0.05240059 -0.01654976
v -0.05500543 0.05239784 -0.01651976
v -0.05929789 0.09558770 -0.01651976
v -0.05929548 0.09721673 -0.01651976
v -0.05929330 0.09868846 -0.01651976
v -0.05928189 0.10344829 -0.01651976
v -0.05927893 0.10344870 -0.01651976
v -0.05777612 0.11127049 -0.03861491
v -0.05778565 0.11124326 -0.03861491
v -0.05777612 0.11127049 -0.03858491
v -0.05778542 0.11127105 -0.03858491
v -0.05778542 0.11125506 -0.03858491
v -0.05578594 0.11622595 -0.03858491
v -0.05557325 0.11675303 -0.03859660
v -0.05556970 0.11676127 -0.03859373
v -0.04320540 0.05094245 -0.03858937
v -0.04151160 0.14693066 -0.03858491
v -0.03621224 0.15828905 -0.03858491
v -0.03623087 0.15823995 -0.03855491
v -0.03300867 -0.05811635 -0.10269966
v -0.02740342 -0.05323799 -0.10577413
v -0.02362596 -0.06504709 -0.09434871
v -0.02362369 -0.06504761 -0.09434864
v -0.01957095 -0.06025467 -0.10424580
v -0.01685633 -0.06532644 -0.10221297
v -0.01173849 -0.06777639 -0.09399854
v -0.03179014 -0.05740717 -0.04683676
v -0.02363950 -0.06505782 -0.05462979
v -0.01957772 -0.05323799 -0.04572092
v -0.01157602 -0.06473009 -0.04714242
v -0.00782564 -0.06861451 -0.05875481
v -0.00774825 -0.06685229 -0.05065018
v -0.00777825 -0.06685229 -0.05065018
v -0.03285554 0.16500095 -0.03858491
v -0.03286258 0.16498126 -0.03858491
v -0.03041478 0.16888140 -0.03858491
v -0.03040889 0.16889195 -0.03858491
v -0.03040435 0.16889496 -0.03858491
v -0.03286580 0.16497813 -0.01648976
v -0.03040510 0.16890252 -0.01651976
v -0.06768680 -0.01408837 0.05875379
v -0.06319242 -0.02698649 0.05330762
v -0.06451236 -0.02473987 0.05875379
v -0.06451230 -0.02474007 0.05875379
v -0.06289460 -0.01882843 0.04682917
v -0.05502941 -0.04175484 0.05425684
v -0.05978101 -0.03452652 0.05875379
v -0.05531370 -0.03449965 0.04671051
v -0.06687456 -0.00233497 0.05091676
v -0.06899992 -0.00233497 0.05875379
v -0.06648198 0.00940769 0.05091676
v -0.06773419 0.01332549 0.05875393
v -0.06773418 0.01332549 0.05875379
v -0.06370683 -0.00233497 0.04639015
v -0.06261031 0.02109124 0.04702495
v -0.06063278 0.04072682 0.05873718
v -0.06063377 0.04073937 0.05874927
v -0.06064460 0.04073937 0.05976878
v -0.06064460 0.04070937 0.05976878
v -0.05873864 0.00353636 0.04577909
v -0.05554869 0.04975114 0.04244858
v -0.05554729 0.04974965 0.04245101
v -0.05555351 0.04975058 0.04245101
v -0.05859267 0.04072772 0.05092270
v -0.05858823 0.04072094 0.05091073
v -0.05858823 0.04075094 0.05091073
v -0.05858926 0.04075146 0.05091262
v -0.05859355 0.04072793 0.05092597
v -0.05573560 0.04073937 0.04641328
v -0.05573971 0.04072123 0.04641444
v -0.05573971 0.04075123 0.04641444
v -0.04563452 -0.04798893 0.04840726
v -0.04751621 -0.04982691 0.05362798
v -0.04699502 -0.03365589 0.04577316
v -0.03913661 -0.05714659 0.05878379
v -0.03913661 -0.05714659 0.05875379
v -0.03558984 -0.05719496 0.05091676
v -0.05155278 0.04915518 0.04245101
v -0.05154575 0.04916341 0.04245101
v -0.05092893 0.04074441 0.04575105
v -0.05092893 0.04071441 0.04575105
v -0.05091024 0.04074225 0.04574943
v -0.05091919 0.04071501 0.04574945
v -0.05073355 0.04073937 0.04574928
v -0.04307405 0.04073937 0.04569707
v -0.06828921 -0.01017057 0.09007818
v -0.06451907 -0.02474544 0.09007818
v -0.06159501 -0.03149009 0.09007818
v -0.06687456 -0.01408837 0.09791521
v -0.06270507 -0.02593315 0.10188414
v -0.05509033 -0.04183007 0.09257879
v -0.05440670 -0.04094871 0.10030013
v -0.05873864 -0.01800080 0.10518567
v -0.05611240 -0.03572497 0.10288677
v -0.06914884 0.00158283 0.09007818
v -0.06774095 0.01332549 0.09007818
v -0.06071537 0.04075266 0.06642826
v -0.06071700 0.04073937 0.06658156
v -0.06066514 0.04074110 0.06667247
v -0.06072417 0.04075314 0.06725547
v -0.06071858 0.04099322 0.06725547
v -0.06066389 0.04075282 0.06725165
v -0.06071700 0.04075293 0.06725165
v -0.06071977 0.04084488 0.06725547
v -0.06072545 0.04073937 0.07526462
v -0.06069451 0.04073937 0.07623592
v -0.06073606 0.04073937 0.08225191
v -0.06072826 0.04073937 0.08739059
v -0.06072823 0.04071078 0.08741057
v -0.06072417 0.04073937 0.09008079
v -0.06072853 0.04073937 0.09004818
v -0.06072862 0.04073937 0.09007818
v -0.06072417 0.04075314 0.09008079
v -0.06814706 -0.00233497 0.09791521
v -0.06690840 0.01332549 0.09791521
v -0.06466459 -0.00821167 0.10357644
v -0.06380159 0.01818110 0.10290901
v -0.05873864 0.00549526 0.10579970
v -0.05987578 0.04073937 0.09791521
v -0.05986722 0.04073937 0.09791521
v -0.05986810 0.04075314 0.09791350
v -0.05692464 0.04073937 0.10363428
v -0.05691941 0.04073937 0.10363607
v -0.05392261 0.04071597 0.10475030
v -0.03913661 -0.05714659 0.09007818
v -0.04765835 -0.04996126 0.09315722
v -0.04686642 -0.04920350 0.10145700
v -0.05091407 -0.02973809 0.10596581
v -0.05091407 -0.02191323 0.10628618
v -0.04117059 -0.04928949 0.10392646
v -0.03845975 -0.05666292 0.09791521
v -0.05092073 0.04070937 0.10586490
v -0.05091502 0.04075314 0.10586853
v -0.04308930 0.04070937 0.10629170
v -0.05928939 0.06425743 0.01175226
v -0.05929034 0.06426484 0.04245101
v -0.05928939 0.06425743 0.04245218
v -0.05768882 0.05643628 0.04241858
v -0.05768743 0.05642863 0.04245101
v -0.05768504 0.05641748 0.04245101
v -0.05929261 0.07295167 0.04244858
v -0.05930068 0.09562555 0.04244858
v -0.05929239 0.09564693 0.04244858
v -0.05928354 0.10148175 0.04244858
v -0.05927846 0.10342035 0.04245101
v -0.05927845 0.10342878 0.04248101
v -0.05927845 0.10342878 0.04245101
v -0.05927552 0.10344423 0.04245101
v -0.05927845 0.10342878 0.05091697
v -0.05779059 0.11125723 0.04247858
v -0.05778727 0.11126582 0.04246862
v -0.05779289 0.11124872 0.04247704
v -0.05574179 0.11633854 0.04247858
v -0.05557733 0.11673845 0.04244858
v -0.05542649 0.11707518 0.04245101
v -0.03623800 0.15824474 0.04245101
v -0.05924379 0.10408831 0.06725547
v -0.05924733 0.10411721 0.06725547
v -0.05924896 0.10398323 0.06725547
v -0.05864954 0.10903171 0.06725547
v -0.05830357 0.11191204 0.06726047
v -0.05829836 0.11193103 0.06725165
v -0.05829630 0.11193856 0.06725683
v -0.05622294 0.11951688 0.06725547
v -0.05063531 0.13631837 0.06725547
v -0.05063531 0.13631837 0.06725165
v -0.04400918 0.15230528 0.06725682
v -0.04192083 0.15724194 0.06725593
v -0.04192083 0.15724194 0.06725165
v -0.03722477 0.16690418 0.06725165
v -0.03722207 0.16690771 0.06725679
v -0.03181293 -0.05741530 0.04682917
v -0.02362286 -0.06504670 0.05465433
v -0.01957520 -0.05324491 0.04571977
v -0.01565615 -0.06722325 0.05875379
v -0.00898902 -0.06514343 0.04687663
v -0.03142035 -0.06141372 0.09007818
v -0.03301775 -0.05811395 0.10270286
v -0.02363639 -0.06504670 0.09434969
v -0.01957520 -0.06026364 0.10424831
v -0.01958443 -0.05323568 0.10623874
v -0.01957520 -0.05324491 0.10623872
v -0.01173710 -0.06815298 0.09007818
v -0.01686774 -0.06533690 0.10221638
v -0.00782481 -0.06784128 0.09791521
v -0.03286580 0.16497813 0.04246653
v -0.03041880 0.16889441 0.04247396
v -0.03041480 0.16889967 0.04247407
v -0.05626652 0.18177269 -0.10325251
v -0.05626797 0.18180549 -0.10325029
v -0.05626797 0.18174854 -0.10326584
v -0.05850080 0.18176840 -0.09789783
v -0.05850080 0.18179840 -0.09791529
v -0.05850365 0.18177466 -0.09789076
v -0.05928849 0.18177617 -0.09007954
v -0.05928849 0.18177617 -0.09005561
v -0.05926005 0.18179840 -0.08793353
v -0.05919132 0.18179840 -0.08225329
v -0.05918147 0.18176840 -0.08225063
v -0.05918268 0.18179840 -0.08224746
v -0.05707334 0.18179840 -0.07574137
v -0.05695783 0.18177170 -0.07538544
v -0.05695729 0.18176842 -0.07538458
v -0.05093199 0.18180616 -0.10549252
v -0.05092856 0.18177617 -0.10549480
v -0.05090477 0.18174854 -0.10550278
v -0.04307822 0.18180616 -0.10630012
v -0.04308031 0.18177617 -0.10630021
v -0.04307997 0.18177617 -0.10630025
v -0.05089352 0.18177232 -0.07156714
v -0.05087520 0.18177520 -0.07156496
v -0.05090558 0.18176840 -0.07156940
v -0.05090459 0.18176840 -0.07156907
v -0.05090504 0.18176840 -0.07156920
v -0.05090508 0.18179840 -0.07156862
v -0.04307956 0.18177474 -0.07070008
v -0.04295193 0.18177617 -0.07069275
v -0.06504043 0.33840799 -0.10397658
v -0.06827640 0.33840799 -0.09791529
v -0.06915648 0.33840799 -0.09008429
v -0.06546016 0.33057639 -0.06775820
v -0.06900754 0.33840799 -0.07441676
v -0.06537215 0.34819749 -0.06781627
v -0.05874452 0.32666060 -0.06508980
v -0.06688183 0.35407117 -0.09791529
v -0.06462748 0.35015538 -0.10366412
v -0.06269808 0.36592981 -0.10188057
v -0.05611783 0.37571928 -0.10290921
v -0.05503466 0.38174874 -0.09508374
v -0.06664488 0.35798696 -0.09008429
v -0.06252883 0.36953411 -0.09008429
v -0.06758589 0.35407117 -0.07441676
v -0.06313135 0.36686423 -0.06982657
v -0.05874452 0.35798696 -0.06550734
v -0.05496696 0.38165972 -0.07030771
v -0.04752695 0.33539325 -0.11786333
v -0.04191478 0.32274482 -0.11849379
v -0.03523975 0.32274482 -0.11943948
v -0.05090490 0.31491587 -0.06472204
v -0.05090508 0.31491321 -0.06472203
v -0.04716815 0.35075608 -0.11761999
v -0.04765557 0.38995856 -0.09317024
v -0.04687028 0.38920209 -0.10147685
v -0.03976198 0.36668625 -0.11784121
v -0.03844864 0.39665544 -0.09791529
v -0.04699213 0.37365016 -0.06480499
v -0.04696283 0.37366238 -0.06480494
v -0.04743894 0.38975832 -0.06999248
v -0.04699213 0.38148174 -0.06600507
v -0.03913916 0.39714491 -0.09008429
v -0.03904438 0.39707819 -0.07441676
v -0.02782743 0.17388628 -0.06556904
v -0.02782279 0.17389089 -0.06557302
v -0.01958178 0.18177617 -0.06922149
v -0.01958178 0.17652851 -0.06557302
v -0.01957723 0.17652580 -0.06556904
v -0.01566353 0.18177617 -0.06913975
v -0.01562938 0.18177617 -0.06913979
v -0.01562443 0.18193598 -0.06913482
v -0.01174508 0.18177617 -0.06905800
v -0.01176276 0.17688482 -0.06558125
v -0.01174508 0.17688572 -0.06558153
v -0.01174310 0.17688572 -0.06556904
v -0.01174852 0.28358683 -0.06472203
v -0.02649066 0.17186220 -0.03856076
v -0.02649627 0.17185807 -0.03855491
v -0.02298664 0.17295539 -0.03858491
v -0.01958263 0.17401570 -0.03858491
v -0.01957200 0.17401169 -0.03858491
v -0.01895647 0.17404284 -0.03858491
v -0.02649094 0.17186211 -0.01654976
v -0.01956455 0.17401211 -0.01651976
v -0.01957200 0.17401169 -0.01654976
v -0.01957274 0.17401983 -0.01651976
v -0.01957560 0.17401530 -0.01651976
v -0.01625268 0.17414404 -0.03858491
v -0.01625720 0.17414387 -0.03855491
v -0.01174755 0.17431360 -0.03858491
v -0.01174780 0.17431358 -0.03855696
v -0.00363324 0.17430943 -0.03855494
v -0.01554433 0.17416500 -0.01651976
v -0.01174827 0.17430173 -0.01688159
v -0.01174782 0.17430153 -0.01654976
v -0.01174782 0.17430162 -0.01651976
v -0.02741385 0.30708161 -0.11895282
v -0.03132680 0.36386067 -0.11941460
v -0.03300571 0.39810163 -0.10269906
v -0.02402895 0.38181546 -0.11770294
v -0.02363630 0.40504324 -0.09434821
v -0.03380455 0.39861333 -0.06895276
v -0.02741385 0.39322913 -0.06500409
v -0.02347383 0.40497652 -0.07079437
v -0.01566147 0.30316582 -0.11926251
v -0.01174514 0.34819749 -0.12082415
v -0.01174852 0.38771141 -0.11654157
v -0.01685296 0.40533251 -0.10221239
v -0.00782881 0.40783551 -0.09791529
v -0.00779881 0.40783551 -0.09791529
v -0.01174852 0.40815809 -0.09008429
v -0.00782881 0.40849185 -0.07441676
v -0.00587572 0.40108296 -0.06551011
v -0.05696697 0.18138652 0.07537870
v -0.05696322 0.18138652 0.07537633
v -0.05919072 0.18135650 0.08224871
v -0.05919041 0.18135650 0.08224609
v -0.05927920 0.18135650 0.08919451
v -0.05928522 0.18135650 0.08966725
v -0.05928580 0.18135650 0.09007912
v -0.05848856 0.18135650 0.09791497
v -0.05848936 0.18135650 0.09791183
v -0.05742521 0.18138652 0.10047194
v -0.05625595 0.18138343 0.10326546
v -0.05625977 0.18138652 0.10326189
v -0.05626547 0.18138652 0.10326146
v -0.05089492 0.18138215 0.07155993
v -0.05089740 0.18138170 0.07156015
v -0.05091137 0.18137658 0.07156189
v -0.05091516 0.18138497 0.07156355
v -0.05091137 0.18140657 0.07156189
v -0.05091501 0.18138470 0.07156348
v -0.05084631 0.18138652 0.07155582
v -0.04307959 0.18138652 0.07069590
v -0.05091502 0.18141651 0.10549701
v -0.05091502 0.18138652 0.10549773
v -0.05090797 0.18136954 0.10549850
v -0.04307959 0.18117884 0.10630433
v -0.04306846 0.18141651 0.10630192
v -0.04306336 0.18141651 0.10630233
v -0.04307959 0.18138652 0.10630433
v -0.06545070 0.33057612 0.06776299
v -0.06537623 0.34819403 0.06781276
v -0.06901155 0.33839887 0.07442164
v -0.06914695 0.33839887 0.09008386
v -0.05874871 0.32665360 0.06509731
v -0.06828043 0.33839887 0.09791497
v -0.06503098 0.33839887 0.10397634
v -0.06816534 0.35015532 0.07442164
v -0.06313547 0.36688176 0.06981478
v -0.06152428 0.37140602 0.07442164
v -0.06664893 0.35798922 0.09008386
v -0.06252619 0.36953393 0.09008386
v -0.05874871 0.35798922 0.06550103
v -0.05497123 0.38168037 0.07029593
v -0.06687233 0.35406670 0.09791497
v -0.06463157 0.35015532 0.10366111
v -0.06270221 0.36592340 0.10188583
v -0.05612207 0.37572971 0.10290897
v -0.05503892 0.38176951 0.09508891
v -0.05090798 0.31491125 0.06471571
v -0.05090940 0.31490827 0.06471571
v -0.05090941 0.31490833 0.06471571
v -0.04753134 0.33539012 0.11786328
v -0.04191927 0.32273108 0.11849929
v -0.04307012 0.34232140 0.11889749
v -0.03524436 0.32273108 0.11944500
v -0.04698977 0.37365702 0.06480696
v -0.04698977 0.38149092 0.06600154
v -0.04745688 0.38977057 0.06998069
v -0.03906247 0.39708072 0.07442164
v -0.03913016 0.39714757 0.09008386
v -0.04717255 0.35074592 0.11761995
v -0.04765996 0.38995999 0.09316985
v -0.04687468 0.38921338 0.10147658
v -0.03976652 0.36668116 0.11784116
v -0.03845320 0.39665729 0.09791497
v -0.02650370 0.17186354 0.01172224
v -0.02650128 0.17186430 0.04245272
v -0.01958182 0.17401874 0.04245101
v -0.01171706 0.17430334 0.04245106
v -0.01174711 0.17430332 0.04245101
v -0.03287806 0.17257541 0.06725547
v -0.02925939 0.17546868 0.06725700
v -0.02925929 0.17546876 0.06725701
v -0.02768907 0.17632359 0.06725547
v -0.02306222 0.17781408 0.06725547
v -0.02306523 0.17781317 0.06725165
v -0.02268335 0.17793618 0.06725547
v -0.01958714 0.17886858 0.06725749
v -0.01957322 0.17887059 0.06725796
v -0.01972663 0.18138652 0.06906616
v -0.01958263 0.18138459 0.06905474
v -0.01952239 0.18138425 0.06905040
v -0.01943750 0.18138652 0.06905010
v -0.01609005 0.17903264 0.06725573
v -0.01525132 0.17905889 0.06725547
v -0.01174974 0.17916997 0.06725547
v -0.01175380 0.18138652 0.06887256
v -0.01174002 0.28359500 0.06472124
v -0.02545202 0.34819964 0.12019023
v -0.03382273 0.39861855 0.06895203
v -0.02740507 0.39324734 0.06500329
v -0.02349219 0.40499264 0.07050055
v -0.03132471 0.36582312 0.11934268
v -0.03301037 0.39810595 0.10270434
v -0.02362758 0.40503719 0.09434783
v -0.02402023 0.38181409 0.11770291
v -0.01565967 0.30315188 0.11925973
v -0.00587070 0.32665360 0.12083038
v -0.01565967 0.40107012 0.06626423
v -0.01174002 0.40804598 0.07442164
v -0.00587070 0.40668646 0.06839899
v -0.01685790 0.40532693 0.10221213
v -0.01174002 0.40777853 0.09399942
v -0.01174002 0.38769788 0.11654151
v -0.00782714 0.35406670 0.12083037
v -0.00001645 0.37744468 0.11951619
v 0.00000006 -0.06623982 -0.10311513
v 0.00000006 -0.06828143 -0.09791582
v 0.00586933 -0.06107132 -0.10515390
v 0.01685644 -0.06532644 -0.10221297
v 0.00000006 -0.06906582 -0.09008124
v 0.01173860 -0.06815247 -0.09008124
v 0.01957783 -0.05323799 -0.10624303
v 0.01958705 -0.05322876 -0.10624304
v 0.02363961 -0.06504709 -0.09435465
v 0.03300878 -0.05811635 -0.10269966
v 0.00000006 -0.06107132 -0.04611859
v 0.00782575 -0.06861989 -0.05875481
v 0.00782560 -0.06861648 -0.05873916
v 0.00777836 -0.06685229 -0.05065018
v 0.00896305 -0.06514379 -0.04687830
v 0.01957783 -0.05323799 -0.04572092
v 0.02363961 -0.06505782 -0.05462979
v 0.03179025 -0.05740717 -0.04683676
v 0.03041138 0.16890053 -0.03858491
v 0.03286698 0.16497606 -0.03858491
v 0.03287218 0.16498126 -0.03858491
v 0.03041242 0.16889419 -0.01651976
v 0.03041622 0.16890034 -0.01651976
v 0.03286572 0.16497856 -0.01654984
v 0.03286572 0.16497856 -0.01654976
v 0.03286381 0.16498162 -0.01651976
v 0.03845157 -0.05666574 -0.09791582
v 0.04117296 -0.04929178 -0.10392826
v 0.04687299 -0.04920850 -0.10147699
v 0.04765827 -0.04996067 -0.09317056
v 0.05090769 -0.02973802 -0.10597000
v 0.05090769 -0.02190468 -0.10629644
v 0.03914207 -0.05714928 -0.09008124
v 0.03914207 -0.05714928 -0.09005123
v 0.04308200 0.04068670 -0.10629644
v 0.05091280 0.04066745 -0.10586894
v 0.05503717 -0.04176200 -0.09508469
v 0.05503717 -0.04176201 -0.09508469
v 0.05612031 -0.03573389 -0.10288959
v 0.05874693 -0.01799340 -0.10518951
v 0.06271394 -0.02593417 -0.10188653
v 0.06687049 -0.01408211 -0.09791582
v 0.06159017 -0.03148950 -0.09008124
v 0.06558426 -0.02190468 -0.09008124
v 0.06829211 -0.01016544 -0.09008124
v 0.05874693 -0.00233212 -0.10599671
v 0.05874693 0.01333454 -0.10561389
v 0.05693267 0.04068670 -0.10363743
v 0.05693357 0.04069745 -0.10363475
v 0.05988758 0.04066745 -0.09792009
v 0.05988929 0.04066745 -0.09791477
v 0.06466021 -0.00820711 -0.10357364
v 0.06379708 0.01817799 -0.10290888
v 0.06814318 -0.00233212 -0.09791582
v 0.06691111 0.01333454 -0.09791582
v 0.06065799 0.04067357 -0.09083977
v 0.06914509 0.00158454 -0.09008124
v 0.06774377 0.01333454 -0.09008124
v 0.06073985 0.04067497 -0.09008460
v 0.06074201 0.04066745 -0.09004575
v 0.06074201 0.04069745 -0.09004575
v 0.06074731 0.04069745 -0.09001575
v 0.06073542 0.04069745 -0.06654804
v 0.06072553 0.04069745 -0.06556904
v 0.06072204 0.04084961 -0.06550358
v 0.03558801 -0.05719763 -0.05092023
v 0.03914207 -0.05714928 -0.05875481
v 0.04752288 -0.04984247 -0.05361485
v 0.04564092 -0.04799429 -0.04839180
v 0.04895465 -0.02974070 -0.04580847
v 0.04305445 0.04069745 -0.04567771
v 0.05091175 0.04066745 -0.04574468
v 0.05090612 0.04069745 -0.04574300
v 0.05085447 0.04069745 -0.04574462
v 0.05091923 0.04069745 -0.04574591
v 0.05503717 -0.04177276 -0.05423212
v 0.05532150 -0.03450892 -0.04671212
v 0.05979622 -0.03453579 -0.05875481
v 0.06452820 -0.02474681 -0.05875481
v 0.06320135 -0.02699796 -0.05330622
v 0.06288994 -0.01879930 -0.04683676
v 0.06770992 -0.01408211 -0.05875481
v 0.05874693 0.00354288 -0.04578176
v 0.05573447 0.04066745 -0.04642187
v 0.05573447 0.04069745 -0.04642187
v 0.05858359 0.04067410 -0.05091223
v 0.05858359 0.04070410 -0.05091223
v 0.05858798 0.04067617 -0.05092324
v 0.05858717 0.04067599 -0.05092023
v 0.06370230 -0.00233212 -0.04639458
v 0.06902324 -0.00233212 -0.05875481
v 0.06688403 -0.00233212 -0.05092023
v 0.06774377 0.01333454 -0.05875481
v 0.06649139 0.00941788 -0.05092023
v 0.06263269 0.02113026 -0.04701482
v 0.06063490 0.04069745 -0.05906958
v 0.06063055 0.04069745 -0.05875725
v 0.06062430 0.04068563 -0.05872124
v 0.03512666 0.16715547 -0.06557294
v 0.03541619 0.16670093 -0.06556904
v 0.03541416 0.16670412 -0.06557622
v 0.04308474 0.15085167 -0.06556904
v 0.04308800 0.15085649 -0.06557302
v 0.04286168 0.15132417 -0.06556904
v 0.05010964 0.13410693 -0.06557485
v 0.04348807 0.14999734 -0.06557655
v 0.04348465 0.15000458 -0.06557643
v 0.05926012 0.10344532 -0.06557612
v 0.05842070 0.11022010 -0.06557488
v 0.05842138 0.11021476 -0.06553340
v 0.05322606 0.12631688 -0.06557302
v 0.05322816 0.12632568 -0.06557302
v 0.05822907 0.11124447 -0.06557437
v 0.05822560 0.11125691 -0.06557356
v 0.05639833 0.11780326 -0.06557374
v 0.05841644 0.11024640 -0.06557355
v 0.03480003 0.16112289 -0.03858491
v 0.03481203 0.16109890 -0.03858491
v 0.03618790 0.15834633 -0.03858491
v 0.03615583 0.15839390 -0.03858491
v 0.03623250 0.15825708 -0.03858491
v 0.03623646 0.15824915 -0.03858491
v 0.03623232 0.15823996 -0.01655083
v 0.03623232 0.15823995 -0.01654976
v 0.03631643 0.15806553 -0.01651976
v 0.05340258 0.05094890 -0.03858491
v 0.05340579 0.05094927 -0.03858491
v 0.05525726 0.05115847 -0.03858491
v 0.05525547 0.05115828 -0.03858759
v 0.05525825 0.05115858 -0.03858917
v 0.05744191 0.05642173 -0.03858491
v 0.05928773 0.06424183 -0.03859456
v 0.05928620 0.06424934 -0.03858491
v 0.05928709 0.10341924 -0.05091742
v 0.05928709 0.10341924 -0.05088742
v 0.05928951 0.10331380 -0.03863027
v 0.05928709 0.10341924 -0.03861491
v 0.05928591 0.10342794 -0.03861491
v 0.05929079 0.09848653 -0.03276688
v 0.05485701 0.05240059 -0.01654976
v 0.05500323 0.05240075 -0.01654976
v 0.05500448 0.05240110 -0.01654976
v 0.05500774 0.05239784 -0.01651976
v 0.05724123 0.05641804 -0.01651976
v 0.05724174 0.05642895 -0.01651976
v 0.05723710 0.05642895 -0.01648976
v 0.05928522 0.06423264 -0.01651976
v 0.05929171 0.06425741 -0.01651964
v 0.05929354 0.07448363 -0.02754642
v 0.05929172 0.07126866 -0.01651976
v 0.05929935 0.08469481 -0.01651976
v 0.05929172 0.09699495 -0.01651976
v 0.05929171 0.10036179 -0.01650253
v 0.05928897 0.10114106 -0.01651976
v 0.05928003 0.10342624 -0.01651976
v 0.05928755 0.10342624 -0.01651976
v 0.05925524 0.10357213 -0.01651976
v 0.05557426 0.11675411 -0.03858491
v 0.05554870 0.11680912 -0.03861491
v 0.05452821 0.11900348 -0.03861174
v 0.05654873 0.11433967 -0.03861491
v 0.05778766 0.11125176 -0.03861491
v 0.05779417 0.11124197 -0.03858491
v 0.05779018 0.11125204 -0.03858491
v -0.00000025 -0.06734685 0.05091676
v -0.00000025 -0.06108052 0.04611132
v -0.00000025 -0.06905585 0.05875379
v 0.01160123 -0.06474035 0.04714063
v 0.01565565 -0.06722325 0.05875379
v 0.01957470 -0.05324491 0.04571977
v 0.02362236 -0.06504670 0.05465433
v 0.03181243 -0.05741530 0.04682917
v -0.00000027 -0.06906123 0.09007818
v -0.00000023 -0.06906123 0.09007818
v 0.01173660 -0.06815298 0.09007818
v -0.00000025 -0.06623976 0.10311814
v 0.00782432 -0.06784128 0.09791521
v 0.00586818 -0.06108052 0.10515007
v 0.01686724 -0.06533690 0.10221638
v 0.03141985 -0.06141372 0.09007818
v 0.02363589 -0.06504670 0.09434969
v 0.02349375 -0.05324491 0.10600734
v 0.03301725 -0.05811395 0.10270286
v 0.01786312 0.04073937 0.10630050
v 0.03041847 0.16889864 0.00391944
v 0.03040686 0.16889864 0.02741212
v 0.03009398 0.16913100 0.04245101
v 0.03039401 0.16890876 0.04245101
v 0.03040686 0.16888642 0.04245101
v 0.03041050 0.16889626 0.04245101
v 0.03286301 0.16498627 0.04242101
v 0.03286573 0.16498899 0.04245101
v 0.03287147 0.16497986 0.04245101
v 0.03558934 -0.05719496 0.05091676
v 0.03913612 -0.05713584 0.05875379
v 0.04563402 -0.04798893 0.04840726
v 0.04751571 -0.04982691 0.05362798
v 0.05154368 0.04916341 0.04245295
v 0.05154836 0.04916345 0.04245296
v 0.04377868 0.04073937 0.04570474
v 0.05087675 0.04073937 0.04575535
v 0.05091458 0.04070937 0.04575536
v 0.05090675 0.04073937 0.04575048
v 0.05092384 0.04070937 0.04575590
v 0.05502892 -0.04175484 0.05425684
v 0.05531320 -0.03449965 0.04671051
v 0.05286633 -0.01799543 0.04576129
v 0.05978052 -0.03452652 0.05875379
v 0.06319191 -0.02698649 0.05330762
v 0.06451181 -0.02474007 0.05875379
v 0.06289410 -0.01882843 0.04682917
v 0.06768630 -0.01408837 0.05875379
v 0.05554337 0.04975114 0.04245101
v 0.05586422 0.05032264 0.04245564
v 0.05573367 0.04073992 0.04641314
v 0.05573837 0.04072376 0.04641435
v 0.05573699 0.04071994 0.04641388
v 0.05573360 0.04073974 0.04641313
v 0.05573837 0.04075376 0.04641435
v 0.05858609 0.04072347 0.05090936
v 0.05859117 0.04073168 0.05092270
v 0.05858609 0.04075347 0.05090936
v 0.05858626 0.04075349 0.05090964
v 0.05859175 0.04073182 0.05092486
v 0.06363188 0.00353636 0.04641982
v 0.06687406 -0.00233497 0.05091676
v 0.06899942 -0.00233497 0.05875379
v 0.06648148 0.00940769 0.05091676
v 0.06773368 0.01332549 0.05875379
v 0.06265043 0.02115572 0.04700715
v 0.06061231 0.04111316 0.05851112
v 0.06063056 0.04073071 0.05873448
v 0.06063056 0.04076071 0.05873448
v 0.06063177 0.04073937 0.05874927
v 0.06064470 0.04070937 0.05996652
v 0.06064470 0.04073937 0.05996652
v 0.03845925 -0.05666292 0.09791521
v 0.04117010 -0.04928949 0.10392646
v 0.04686592 -0.04920350 0.10145700
v 0.04765785 -0.04996126 0.09315722
v 0.05091358 -0.02973809 0.10596581
v 0.05091358 -0.02191323 0.10628618
v 0.04307570 0.04073884 0.10630396
v 0.05090994 0.04075314 0.10586853
v 0.05091991 0.04073937 0.10586853
v 0.06252859 -0.02953387 0.09007818
v 0.06663716 -0.01800080 0.09007818
v 0.05504245 -0.04176559 0.09507941
v 0.05611190 -0.03572497 0.10288677
v 0.05873814 -0.01800080 0.10518567
v 0.06270458 -0.02593315 0.10188414
v 0.06687406 -0.01408837 0.09791521
v 0.06901296 -0.00233497 0.09007818
v 0.06774045 0.01332549 0.09007818
v 0.06066483 0.04073937 0.06658686
v 0.06071499 0.04073937 0.06658156
v 0.06071499 0.04075293 0.06661157
v 0.06071493 0.04075293 0.06725165
v 0.06071910 0.04075314 0.06725547
v 0.06066351 0.04075282 0.06725165
v 0.06068992 0.04073937 0.07483343
v 0.06071968 0.04073937 0.07480343
v 0.06071222 0.04070937 0.08228191
v 0.06073099 0.04073937 0.08225191
v 0.06072573 0.04073937 0.08571235
v 0.06072468 0.04071914 0.08640319
v 0.06072058 0.04073937 0.08913685
v 0.06072651 0.04073937 0.09004818
v 0.06071910 0.04073937 0.09008079
v 0.06072019 0.04073937 0.09011079
v 0.06071910 0.04075314 0.09008079
v 0.05873814 0.00549526 0.10580563
v 0.05986199 0.04073793 0.09791553
v 0.05986215 0.04073776 0.09791521
v 0.05986303 0.04075314 0.09791350
v 0.05691433 0.04073937 0.10363607
v 0.05692414 0.04073937 0.10363428
v 0.05691433 0.04075314 0.10363607
v 0.05973074 0.04073937 0.09817024
v 0.06466748 -0.00821167 0.10357644
v 0.06380109 0.01817572 0.10290901
v 0.06814657 -0.00233497 0.09791521
v 0.06690791 0.01332549 0.09791521
v 0.03623492 0.15824690 0.04245101
v 0.05768948 0.05644195 0.04245101
v 0.05767709 0.05641708 0.04245101
v 0.05768335 0.05641850 0.04245101
v 0.05767796 0.05642863 0.04245101
v 0.05780675 0.05689071 0.04245101
v 0.05785019 0.05704658 0.04245560
v 0.05785211 0.05705347 0.04245672
v 0.05929942 0.06423805 0.04246065
v 0.05930248 0.06425743 0.04247858
v 0.05930023 0.08052380 0.04245101
v 0.05929044 0.09622195 0.04247858
v 0.05927706 0.10342328 0.04247858
v 0.05927543 0.10343748 0.04244858
v 0.05927856 0.10343434 0.04244858
v 0.05927874 0.10332273 0.04247858
v 0.05928833 0.10342878 0.04308468
v 0.05928833 0.10342878 0.05088697
v 0.05396784 0.12020694 0.04245101
v 0.05557327 0.11675569 0.04247858
v 0.05550279 0.11691406 0.04247858
v 0.05555130 0.11680960 0.04247858
v 0.05779237 0.11124077 0.04247858
v 0.05778136 0.11127766 0.04247858
v 0.03512235 0.16912150 0.06725606
v 0.03638151 0.16746870 0.06725577
v 0.03654860 0.16719663 0.06725547
v 0.03700260 0.16646440 0.06725547
v 0.04320282 0.15375920 0.06725165
v 0.04319860 0.15376922 0.06725547
v 0.04131250 0.15824474 0.06725165
v 0.04131481 0.15824361 0.06725547
v 0.04970598 0.13791744 0.06725165
v 0.04970598 0.13791744 0.06725840
v 0.05086241 0.13483725 0.06725785
v 0.05926743 0.10343161 0.06725547
v 0.05926853 0.10342207 0.06725547
v 0.05601070 0.12006678 0.06725547
v 0.05837625 0.11114369 0.06725547
v 0.05836456 0.11121807 0.06718908
v 0.05836250 0.11123548 0.06725547
v 0.05836249 0.11125096 0.06725547
v 0.01241337 0.18177617 -0.06906264
v 0.01174122 0.17687376 -0.06557302
v 0.01177116 0.17687261 -0.06557302
v 0.01281758 0.17683256 -0.06557302
v 0.01174270 0.28358683 -0.06472203
v 0.01957791 0.18177617 -0.06921750
v 0.01958509 0.18177617 -0.06921796
v 0.01957791 0.17652851 -0.06557302
v 0.01958151 0.17652580 -0.06556904
v 0.02025912 0.17632583 -0.06557524
v 0.02025912 0.17632583 -0.06556904
v 0.02781567 0.17389193 -0.06557302
v 0.03199248 0.17120677 -0.06556904
v 0.03199131 0.17121288 -0.06557302
v 0.01175082 0.17430148 -0.03860646
v 0.01175082 0.17430148 -0.03857646
v 0.01174900 0.17430153 -0.01654976
v 0.01174900 0.17430153 -0.01651976
v 0.01718690 0.17410575 -0.01651976
v 0.01957918 0.17401166 -0.03858491
v 0.01958151 0.17401959 -0.03858491
v 0.01957345 0.17401169 -0.03855484
v 0.01959734 0.17401466 -0.03858491
v 0.02252971 0.17309976 -0.03858491
v 0.02627186 0.17193411 -0.03861491
v 0.02650638 0.17185926 -0.03861491
v 0.01957109 0.17401178 -0.01651976
v 0.01957505 0.17401983 -0.01651976
v 0.02378722 0.17270958 -0.01651976
v 0.02803648 0.17069840 -0.01651976
v -0.00000291 0.29925004 -0.11922933
v -0.00000291 0.32274482 -0.12076677
v 0.00391004 0.34819749 -0.12100735
v 0.01566242 0.30316582 -0.11926251
v 0.01566242 0.34623957 -0.12079166
v 0.00390327 0.37756595 -0.11959986
v -0.00000291 0.38840112 -0.11705866
v -0.00000291 0.40625077 -0.10311052
v -0.00000291 0.40624470 -0.10313044
v 0.00782298 0.40783551 -0.09791529
v 0.01174270 0.38379562 -0.11848826
v 0.01174270 0.38771141 -0.11654157
v 0.01686068 0.40533251 -0.10221239
v -0.00000291 0.40905920 -0.09008429
v 0.00000386 0.39322913 -0.06472203
v 0.00586990 0.40668967 -0.06839973
v 0.00782298 0.40849185 -0.07441676
v 0.01174270 0.40815809 -0.09008429
v 0.02740803 0.30708161 -0.11895833
v 0.02402313 0.38181546 -0.11770294
v 0.02363048 0.40504324 -0.09435374
v 0.03132775 0.36386067 -0.11941460
v 0.03301343 0.39810163 -0.10269906
v 0.02153523 0.39715603 -0.06563455
v 0.02349509 0.40499878 -0.07049574
v 0.03382581 0.39861333 -0.06895276
v 0.04307051 0.18180616 -0.10630019
v 0.04307610 0.18180616 -0.10629974
v 0.04307610 0.18177617 -0.10630025
v 0.05089909 0.18180616 -0.10550082
v 0.05088902 0.18177617 -0.10550278
v 0.05091280 0.18177617 -0.10549878
v 0.04310079 0.18177445 -0.07070009
v 0.05090971 0.18177561 -0.07157344
v 0.05091106 0.18177557 -0.07157359
v 0.05090954 0.18177561 -0.07157342
v 0.05091191 0.18177530 -0.07157370
v 0.05091300 0.18177424 -0.07157388
v 0.05091333 0.18180379 -0.07157402
v 0.05091280 0.18177450 -0.07157385
v 0.05091249 0.18177482 -0.07157379
v 0.05624064 0.18179840 -0.10327705
v 0.05624741 0.18179840 -0.10327423
v 0.05624741 0.18176840 -0.10327062
v 0.05626411 0.18174854 -0.10326584
v 0.05786264 0.18176840 -0.09943072
v 0.05849121 0.18176840 -0.09792623
v 0.05849498 0.18179840 -0.09793188
v 0.05849976 0.18174854 -0.09791477
v 0.05886263 0.18176840 -0.09433294
v 0.05929431 0.18180616 -0.09011195
v 0.05929651 0.18177617 -0.09010745
v 0.05929651 0.18177617 -0.09007954
v 0.05927407 0.18177617 -0.08843795
v 0.05926831 0.18179840 -0.08800277
v 0.05751083 0.18177617 -0.07708719
v 0.05918958 0.18179840 -0.08225137
v 0.05919904 0.18179840 -0.08227542
v 0.05918950 0.18176840 -0.08225063
v 0.05220477 0.18177617 -0.07239280
v 0.05696559 0.18177617 -0.07540984
v 0.05696646 0.18177617 -0.07541219
v 0.05696572 0.18174854 -0.07538600
v 0.03524747 0.32274482 -0.11943948
v 0.04192250 0.32274482 -0.11849932
v 0.04752789 0.33539325 -0.11786333
v 0.05091296 0.31491345 -0.06472204
v 0.05091280 0.31491321 -0.06472203
v 0.03975616 0.36668625 -0.11784673
v 0.03845636 0.39665544 -0.09791529
v 0.04714879 0.35071158 -0.11760893
v 0.04686445 0.38920209 -0.10147685
v 0.03914687 0.39714491 -0.09008429
v 0.03916492 0.38145623 -0.06474138
v 0.03916042 0.38148174 -0.06474139
v 0.03912886 0.38148841 -0.06474138
v 0.03906564 0.39710042 -0.07441676
v 0.04778515 0.39009205 -0.09008429
v 0.04744666 0.38975832 -0.06998141
v 0.04699308 0.38148174 -0.06599955
v 0.06503461 0.33840799 -0.10397658
v 0.06828412 0.33840799 -0.09791529
v 0.05873870 0.32666060 -0.06509810
v 0.06915066 0.33840799 -0.09008429
v 0.06545434 0.33057639 -0.06776374
v 0.06901526 0.33840799 -0.07441676
v 0.06537987 0.34819749 -0.06781351
v 0.05611201 0.37571928 -0.10290921
v 0.05508977 0.38182661 -0.09258402
v 0.06462166 0.35015538 -0.10366134
v 0.06270580 0.36592981 -0.10188610
v 0.06687600 0.35407117 -0.09791529
v 0.05873870 0.35798696 -0.06550182
v 0.05497468 0.38168198 -0.07029665
v 0.06252979 0.36953411 -0.09008429
v 0.06770191 0.35407117 -0.09008429
v 0.06152786 0.37140301 -0.07441676
v 0.06313907 0.36686423 -0.06980997
v 0.06548142 0.36190274 -0.07441676
v 0.06816226 0.35015538 -0.07441676
v 0.01174511 0.17430875 0.04247858
v 0.01173852 0.17431387 0.04244642
v 0.01237519 0.17428999 0.04245205
v 0.01957505 0.17401983 0.04245564
v 0.01957982 0.17401874 0.04245101
v 0.02528508 0.17224209 0.04245101
v 0.02651049 0.17185540 0.04245101
v 0.02697770 0.17150091 0.04245101
v 0.01174511 0.17918187 0.06726414
v 0.01174511 0.17918187 0.06725165
v 0.01178162 0.17918043 0.06726398
v 0.01171775 0.18138652 0.06886874
v 0.01564885 0.18138652 0.06896461
v 0.01561884 0.18138652 0.06896461
v 0.01561696 0.18164712 0.06895503
v 0.01568752 0.18138652 0.06896658
v 0.01173725 0.28359500 0.06472124
v 0.01958010 0.17887010 0.06725762
v 0.01957982 0.17887019 0.06725768
v 0.01957982 0.17887019 0.06725165
v 0.01958010 0.18138652 0.06905979
v 0.02766664 0.17632060 0.06725165
v 0.02766680 0.17632048 0.06725576
v 0.03079055 0.17389840 0.06725547
v -0.00000139 0.29924050 0.11922378
v -0.00000139 0.39324734 0.06472124
v -0.00000139 0.40893742 0.07442164
v 0.00586793 0.40107012 0.06550795
v -0.00000139 0.40906003 0.09008386
v 0.01173725 0.40804598 0.07442164
v -0.00000139 0.37757954 0.11950860
v 0.00780938 0.35406670 0.12083037
v 0.00782437 0.35406670 0.12083037
v -0.00000139 0.40826881 0.09791497
v -0.00000139 0.40624070 0.10313018
v -0.00000139 0.38838878 0.11705031
v 0.01173725 0.40777853 0.09399942
v 0.01685513 0.40532693 0.10221213
v 0.01173725 0.38379765 0.11848270
v 0.01173725 0.38769788 0.11654151
v 0.02153636 0.30510756 0.11911318
v 0.02348590 0.40499356 0.07062336
v 0.02348942 0.40499264 0.07062222
v 0.02741583 0.39324734 0.06500329
v 0.03381996 0.39859623 0.06895203
v 0.02544924 0.35015532 0.12016258
v 0.02363835 0.40503719 0.09434783
v 0.02403099 0.38181409 0.11770291
v 0.02741583 0.36973450 0.11943393
v 0.03300760 0.39810595 0.10270434
v 0.04304451 0.18138652 0.07069972
v 0.05085083 0.18138652 0.07157884
v 0.05090994 0.18138652 0.07158399
v 0.05090956 0.18141651 0.07158376
v 0.05090994 0.18138652 0.07158276
v 0.04307673 0.18141030 0.10628500
v 0.04307197 0.18141089 0.10628521
v 0.05089951 0.18141651 0.10549498
v 0.05090598 0.18141651 0.10549409
v 0.05089951 0.18138652 0.10549498
v 0.05091345 0.18138652 0.10549245
v 0.05695051 0.18136144 0.07539491
v 0.05695076 0.18136077 0.07539513
v 0.05695874 0.18138650 0.07540053
v 0.05918533 0.18135650 0.08224613
v 0.05918576 0.18138650 0.08225276
v 0.05919274 0.18138650 0.08225276
v 0.05919683 0.18135650 0.08259089
v 0.05919683 0.18138650 0.08259089
v 0.05929231 0.18138652 0.09008079
v 0.05929193 0.18138652 0.09005087
v 0.05850223 0.18138650 0.09788497
v 0.05849598 0.18138650 0.09791350
v 0.05850223 0.18138650 0.09791497
v 0.05692564 0.18138650 0.10168031
v 0.05705614 0.18138650 0.10136617
v 0.05626053 0.18135650 0.10326536
v 0.05626823 0.18138650 0.10326291
v 0.05626116 0.18138650 0.10326414
v 0.05090664 0.31490833 0.06472124
v 0.03524159 0.32273108 0.11944500
v 0.04191650 0.32273108 0.11849929
v 0.04752857 0.33539012 0.11786328
v 0.03905969 0.39708072 0.07442164
v 0.03914093 0.39714757 0.09008386
v 0.04503394 0.37561271 0.06480835
v 0.04501626 0.37561962 0.06480831
v 0.04699376 0.38149092 0.06600431
v 0.04744056 0.38974828 0.06999175
v 0.03976374 0.36668116 0.11784116
v 0.03845042 0.39665729 0.09791497
v 0.04715623 0.35070133 0.11760890
v 0.04685837 0.38919112 0.10146552
v 0.04765719 0.38995999 0.09316155
v 0.05874594 0.32665360 0.06508902
v 0.06544793 0.33057612 0.06775746
v 0.06537346 0.34819403 0.06781553
v 0.06900878 0.33839887 0.07442164
v 0.06914417 0.33839887 0.09008386
v 0.06829119 0.33839887 0.09791497
v 0.06504174 0.33839887 0.10398187
v 0.05874594 0.35798922 0.06550656
v 0.05496845 0.38168037 0.07030699
v 0.06152150 0.37138373 0.07442164
v 0.06313269 0.36685947 0.06982584
v 0.06547500 0.36191174 0.07442164
v 0.06816257 0.35015532 0.07442164
v 0.06452725 0.36474219 0.09008386
v 0.06829796 0.35015532 0.09008386
v 0.05611930 0.37572971 0.10290897
v 0.05503615 0.38176951 0.09507232
v 0.06462879 0.35015532 0.10366663
v 0.06271297 0.36592340 0.10188583
v 0.06688309 0.35406670 0.09791497
f 1 7 6
f 2 8 7
f 1 11 2
f 2 11 4
f 4 11 13
f 1 2 7
f 3 5 37
f 13 39 38
f 2 4 5
f 2 5 3
f 2 3 8
f 4 38 5
f 4 13 38
f 6 7 47
f 7 8 49
f 6 47 54
f 7 49 47
f 36 51 3
f 51 8 3
f 49 8 52
f 51 52 8
f 1 9 11
f 9 12 11
f 1 6 9
f 6 21 9
f 9 21 10
f 9 10 12
f 10 21 22
f 11 14 13
f 11 12 14
f 10 22 25
f 10 18 12
f 12 18 19
f 10 25 24
f 10 24 18
f 13 14 44
f 12 15 14
f 12 16 15
f 12 19 16
f 16 19 20
f 15 20 17
f 16 20 15
f 18 20 19
f 18 23 20
f 23 18 24
f 14 15 44
f 15 45 44
f 6 54 21
f 21 56 22
f 21 54 56
f 22 56 25
f 25 56 26
f 26 56 27
f 24 25 26
f 24 26 23
f 26 28 23
f 26 27 28
f 27 31 28
f 29 28 30
f 27 56 60
f 28 31 30
f 27 60 31
f 31 32 30
f 31 35 32
f 32 33 34
f 60 35 31
f 32 61 33
f 32 35 61
f 35 60 61
f 5 40 37
f 3 37 36
f 36 37 41
f 5 38 40
f 37 151 41
f 36 41 42
f 37 40 151
f 38 152 40
f 38 39 152
f 42 75 36
f 36 76 51
f 36 75 76
f 43 75 42
f 43 79 75
f 13 46 39
f 13 44 46
f 44 45 46
f 47 50 54
f 47 49 48
f 47 48 50
f 51 76 52
f 52 77 53
f 48 49 52
f 48 53 50
f 48 52 53
f 50 78 58
f 58 78 63
f 50 53 78
f 54 55 57
f 50 55 54
f 54 57 56
f 55 59 57
f 50 58 55
f 55 58 59
f 58 63 59
f 56 57 64
f 56 64 60
f 57 59 64
f 60 62 61
f 63 78 83
f 59 66 64
f 59 67 66
f 59 72 67
f 63 83 59
f 59 81 72
f 65 70 60
f 60 64 65
f 64 66 65
f 69 70 66
f 66 70 65
f 67 68 66
f 66 68 69
f 62 60 103
f 70 103 60
f 67 71 68
f 67 72 71
f 73 71 74
f 72 74 71
f 69 105 70
f 68 106 69
f 68 71 106
f 59 83 81
f 74 72 81
f 69 106 105
f 71 73 106
f 73 74 108
f 73 108 106
f 74 81 108
f 81 82 108
f 82 84 108
f 84 110 108
f 84 109 110
f 84 112 109
f 85 111 112
f 52 76 77
f 75 80 76
f 53 158 78
f 53 77 158
f 75 79 80
f 76 80 77
f 77 80 158
f 78 160 83
f 81 83 82
f 82 83 84
f 84 85 112
f 86 113 111
f 85 86 111
f 83 160 84
f 160 85 84
f 17 20 322
f 20 23 325
f 17 336 15
f 15 336 45
f 23 28 326
f 28 29 326
f 29 30 326
f 30 32 327
f 32 34 330
f 34 114 87
f 330 34 87
f 89 87 92
f 87 114 92
f 20 324 322
f 20 325 323
f 20 323 324
f 23 326 325
f 17 322 336
f 30 327 326
f 32 328 327
f 32 330 328
f 89 92 91
f 89 91 90
f 90 91 93
f 330 87 88
f 87 333 88
f 333 87 89
f 89 90 334
f 90 93 343
f 88 332 330
f 88 333 332
f 89 334 333
f 93 94 343
f 90 343 334
f 45 95 46
f 45 340 95
f 45 339 340
f 45 336 337
f 337 339 45
f 94 97 96
f 96 97 99
f 94 96 345
f 94 345 343
f 96 344 345
f 96 98 344
f 96 99 98
f 98 100 341
f 99 101 98
f 98 101 100
f 33 61 121
f 33 119 34
f 61 62 121
f 70 104 103
f 70 102 104
f 103 107 62
f 70 105 102
f 104 102 126
f 105 129 102
f 129 106 108
f 106 129 105
f 115 62 107
f 62 115 116
f 62 116 118
f 117 62 118
f 103 104 134
f 107 103 134
f 109 112 110
f 108 110 129
f 110 112 132
f 112 111 132
f 132 111 113
f 34 119 114
f 33 121 119
f 91 92 121
f 92 114 119
f 92 119 121
f 91 121 122
f 91 122 123
f 117 121 62
f 115 118 116
f 107 134 115
f 115 134 118
f 117 120 121
f 120 122 121
f 124 117 118
f 120 117 124
f 120 124 122
f 124 123 122
f 124 125 142
f 124 143 123
f 124 142 143
f 102 128 126
f 102 129 128
f 110 130 129
f 130 128 129
f 104 126 134
f 126 127 134
f 110 131 130
f 110 132 131
f 130 131 133
f 132 133 131
f 134 127 266
f 134 124 118
f 135 125 124
f 135 124 134
f 125 137 142
f 137 138 142
f 125 135 136
f 125 136 137
f 138 137 136
f 266 135 134
f 142 138 283
f 91 140 93
f 91 123 140
f 93 140 139
f 93 139 94
f 139 97 94
f 97 139 145
f 97 145 146
f 123 143 140
f 140 141 139
f 141 143 142
f 140 143 141
f 142 144 141
f 139 141 145
f 141 144 145
f 142 282 144
f 144 282 145
f 145 285 146
f 113 147 132
f 97 146 99
f 99 146 148
f 148 150 99
f 101 99 149
f 150 149 99
f 149 166 101
f 149 150 170
f 285 148 146
f 287 150 148
f 150 287 170
f 40 155 151
f 41 153 42
f 40 152 155
f 41 151 156
f 41 156 153
f 152 39 544
f 151 155 156
f 153 156 154
f 154 156 157
f 42 159 43
f 42 153 159
f 43 159 79
f 159 153 154
f 154 162 159
f 152 540 155
f 155 538 156
f 156 539 157
f 544 39 545
f 155 540 538
f 156 538 539
f 152 544 540
f 157 539 542
f 157 162 154
f 157 542 162
f 39 46 569
f 46 95 569
f 79 159 80
f 80 159 158
f 78 158 160
f 158 159 161
f 86 608 113
f 147 113 608
f 159 162 164
f 158 548 160
f 159 164 161
f 158 161 548
f 550 164 162
f 163 164 550
f 163 552 164
f 161 164 552
f 161 552 548
f 86 85 608
f 160 609 85
f 100 101 383
f 95 340 921
f 677 133 132
f 101 167 383
f 101 166 165
f 101 165 167
f 149 170 166
f 165 166 170
f 170 167 165
f 167 170 168
f 171 169 168
f 171 397 169
f 170 318 168
f 168 318 171
f 147 677 132
f 172 173 174
f 172 181 176
f 173 175 174
f 173 178 175
f 172 176 173
f 177 179 203
f 173 176 179
f 173 179 177
f 173 177 178
f 176 191 205
f 176 205 179
f 133 210 192
f 176 181 180
f 180 181 182
f 180 182 186
f 181 184 182
f 181 183 184
f 176 180 185
f 180 186 185
f 176 185 191
f 185 186 191
f 183 190 184
f 182 195 186
f 182 184 195
f 184 188 187
f 188 184 190
f 184 199 195
f 184 187 199
f 190 189 188
f 191 214 205
f 200 202 270
f 200 271 194
f 193 194 192
f 194 211 200
f 192 210 193
f 193 213 194
f 194 213 211
f 193 209 213
f 193 210 209
f 186 196 201
f 186 195 196
f 186 214 191
f 186 201 212
f 196 195 198
f 197 196 198
f 195 199 198
f 198 199 267
f 187 267 199
f 196 202 201
f 196 197 202
f 197 270 202
f 197 198 270
f 186 212 214
f 201 202 200
f 200 212 201
f 200 211 212
f 177 203 204
f 179 205 303
f 179 303 203
f 204 208 207
f 203 208 204
f 203 303 208
f 205 214 305
f 209 215 213
f 209 210 216
f 209 216 215
f 214 212 211
f 214 211 213
f 215 214 213
f 172 174 217
f 175 218 174
f 175 178 219
f 174 218 217
f 175 219 218
f 177 222 178
f 177 204 222
f 178 222 219
f 217 218 220
f 218 219 221
f 218 221 220
f 220 221 247
f 221 224 247
f 222 258 223
f 223 258 225
f 219 222 221
f 221 225 224
f 221 222 223
f 221 223 225
f 224 225 259
f 224 259 249
f 249 259 260
f 172 217 181
f 183 181 226
f 181 217 226
f 226 227 183
f 190 183 227
f 189 229 228
f 229 189 230
f 230 234 229
f 228 229 234
f 228 234 235
f 230 233 234
f 234 231 235
f 231 234 233
f 190 240 189
f 231 233 237
f 189 240 230
f 236 231 237
f 240 233 230
f 227 240 190
f 227 242 240
f 227 243 242
f 233 240 237
f 237 238 236
f 237 239 238
f 237 240 239
f 239 244 238
f 240 242 239
f 239 242 244
f 243 241 244
f 244 242 243
f 217 245 226
f 217 220 245
f 226 245 246
f 220 247 245
f 245 247 248
f 226 246 227
f 245 248 246
f 224 249 247
f 247 249 248
f 227 246 243
f 246 241 243
f 246 250 241
f 246 248 250
f 248 249 253
f 248 253 250
f 249 254 253
f 249 255 254
f 244 241 252
f 241 250 251
f 241 251 252
f 250 253 251
f 251 254 252
f 251 253 254
f 249 263 255
f 255 263 264
f 204 207 257
f 204 257 222
f 206 257 207
f 206 256 257
f 206 308 256
f 222 257 258
f 225 258 261
f 257 262 258
f 225 261 259
f 256 262 257
f 258 262 309
f 258 309 261
f 256 308 262
f 259 261 312
f 259 312 260
f 249 260 265
f 249 265 263
f 263 265 264
f 126 269 127
f 128 130 192
f 128 269 126
f 127 269 266
f 135 266 272
f 192 130 133
f 128 192 269
f 272 136 135
f 138 136 279
f 272 273 136
f 273 275 136
f 136 275 276
f 136 278 279
f 276 278 136
f 138 279 283
f 266 269 268
f 266 268 267
f 271 270 269
f 192 194 269
f 200 270 271
f 194 271 269
f 269 270 268
f 267 272 266
f 198 268 270
f 198 267 268
f 267 187 272
f 187 188 274
f 189 276 188
f 189 228 276
f 187 274 272
f 188 275 274
f 273 272 274
f 274 275 273
f 188 276 275
f 228 278 276
f 228 277 278
f 228 280 277
f 277 293 278
f 279 278 293
f 279 293 283
f 280 288 277
f 288 291 277
f 291 293 277
f 142 283 282
f 145 282 285
f 283 281 282
f 282 284 285
f 283 293 281
f 293 294 281
f 294 295 281
f 282 281 297
f 282 297 284
f 284 297 285
f 281 295 297
f 148 285 286
f 286 287 148
f 285 300 286
f 297 298 285
f 286 300 287
f 285 298 300
f 301 317 287
f 300 301 287
f 301 302 319
f 235 280 228
f 235 232 280
f 232 290 280
f 232 235 435
f 231 437 235
f 280 290 288
f 288 290 289
f 288 289 291
f 232 435 290
f 231 236 438
f 236 238 438
f 244 439 238
f 244 252 441
f 252 254 445
f 254 255 455
f 255 264 455
f 291 292 293
f 435 289 290
f 289 433 291
f 291 433 292
f 293 433 294
f 293 292 433
f 296 297 295
f 294 449 295
f 235 437 435
f 231 438 437
f 238 439 438
f 289 436 433
f 294 433 434
f 296 295 451
f 294 434 449
f 295 449 451
f 289 435 436
f 244 441 439
f 252 440 441
f 252 442 440
f 252 445 442
f 254 444 445
f 444 254 443
f 254 455 443
f 265 457 264
f 296 298 297
f 296 451 448
f 296 448 298
f 298 448 299
f 299 448 302
f 298 299 300
f 299 301 300
f 301 299 302
f 264 456 455
f 264 460 456
f 264 457 460
f 208 303 304
f 207 208 304
f 207 304 206
f 205 305 303
f 303 307 304
f 214 215 707
f 303 305 703
f 303 703 307
f 304 307 306
f 305 214 707
f 306 307 704
f 307 702 704
f 210 735 216
f 216 737 215
f 304 308 206
f 304 310 308
f 304 306 310
f 262 308 310
f 262 310 309
f 261 309 311
f 261 311 313
f 261 313 312
f 309 310 315
f 309 315 311
f 721 265 260
f 306 704 314
f 306 314 310
f 314 704 710
f 310 314 316
f 310 316 315
f 311 315 713
f 311 715 313
f 314 710 316
f 315 316 713
f 311 713 715
f 312 779 260
f 171 318 497
f 287 317 170
f 170 317 318
f 318 319 497
f 301 318 317
f 301 319 318
f 502 319 302
f 210 133 680
f 457 265 721
f 460 457 780
f 780 458 460
f 458 780 459
f 320 322 324
f 321 320 324
f 320 336 322
f 335 320 321
f 320 335 336
f 329 328 331
f 330 331 328
f 330 332 331
f 329 331 332
f 321 324 350
f 324 323 351
f 323 325 351
f 325 326 351
f 324 351 350
f 321 350 349
f 367 321 349
f 326 327 353
f 353 327 328
f 328 329 353
f 329 332 353
f 332 333 353
f 333 334 353
f 326 353 351
f 353 334 352
f 334 343 352
f 343 346 352
f 346 355 352
f 346 371 355
f 336 338 339
f 336 339 337
f 336 335 416
f 336 416 338
f 344 346 345
f 345 346 343
f 344 341 346
f 98 341 344
f 341 342 371
f 346 341 371
f 371 342 347
f 348 371 347
f 341 384 342
f 342 386 347
f 348 347 386
f 100 384 341
f 348 388 371
f 321 367 335
f 335 367 368
f 335 368 369
f 335 369 416
f 349 350 357
f 350 356 357
f 350 351 356
f 349 357 367
f 357 372 367
f 351 353 363
f 353 354 363
f 352 354 353
f 352 355 354
f 354 355 365
f 355 371 370
f 355 370 377
f 351 361 356
f 356 361 358
f 356 358 357
f 358 361 362
f 357 358 372
f 358 359 375
f 358 360 359
f 358 362 360
f 359 360 374
f 351 363 361
f 361 363 364
f 361 364 362
f 354 364 363
f 354 365 364
f 360 362 366
f 362 364 366
f 364 365 380
f 355 377 365
f 360 366 379
f 364 379 366
f 364 380 379
f 367 369 368
f 367 417 369
f 371 395 370
f 358 375 372
f 359 374 375
f 360 373 374
f 373 376 374
f 367 372 417
f 372 375 417
f 374 419 375
f 374 418 419
f 374 376 418
f 373 381 376
f 370 378 377
f 365 377 380
f 360 379 373
f 373 379 381
f 379 382 381
f 379 380 421
f 377 378 422
f 377 422 380
f 379 421 382
f 380 422 421
f 342 384 386
f 384 100 383
f 348 386 385
f 348 385 388
f 383 387 384
f 387 386 384
f 338 416 424
f 424 893 338
f 388 395 371
f 340 339 921
f 338 919 339
f 338 893 919
f 388 389 390
f 386 387 392
f 385 386 392
f 385 393 388
f 385 392 393
f 388 393 389
f 393 391 389
f 392 394 393
f 390 395 388
f 391 868 389
f 394 864 393
f 393 864 391
f 389 867 390
f 390 867 395
f 167 168 383
f 168 169 383
f 383 169 397
f 383 397 396
f 396 397 402
f 387 383 396
f 387 396 398
f 398 399 387
f 396 402 398
f 398 400 399
f 400 407 401
f 400 408 407
f 398 404 400
f 400 404 408
f 171 402 397
f 171 497 402
f 402 406 398
f 398 406 404
f 404 403 408
f 405 403 406
f 406 403 404
f 405 412 403
f 402 497 406
f 406 497 405
f 387 399 392
f 392 399 394
f 400 394 399
f 394 400 401
f 401 407 394
f 394 407 409
f 394 409 411
f 408 409 407
f 408 412 409
f 409 412 410
f 409 410 411
f 413 411 410
f 394 411 878
f 403 412 408
f 413 410 412
f 411 413 414
f 411 414 880
f 369 424 416
f 369 417 425
f 375 419 417
f 376 381 420
f 376 420 418
f 418 426 419
f 418 427 426
f 418 420 427
f 381 382 423
f 381 423 420
f 382 421 423
f 378 370 968
f 420 423 430
f 378 907 422
f 421 422 432
f 421 432 423
f 369 894 424
f 369 425 894
f 424 894 893
f 425 895 894
f 395 867 370
f 417 898 425
f 417 419 898
f 419 426 899
f 426 427 899
f 420 428 427
f 420 430 428
f 428 429 427
f 425 898 895
f 427 901 899
f 419 899 903
f 419 903 898
f 429 900 427
f 427 900 901
f 428 430 906
f 428 906 429
f 423 431 430
f 422 907 432
f 430 431 906
f 906 431 909
f 423 432 908
f 423 908 431
f 378 968 907
f 444 442 445
f 454 443 455
f 436 463 433
f 435 463 436
f 435 437 463
f 438 463 437
f 439 463 438
f 433 463 461
f 439 464 463
f 434 433 461
f 434 461 449
f 449 461 450
f 450 461 465
f 450 465 482
f 439 441 464
f 441 440 466
f 440 442 466
f 442 444 466
f 441 466 464
f 444 467 466
f 444 443 483
f 444 483 467
f 449 450 451
f 451 450 448
f 450 447 448
f 302 448 447
f 446 503 447
f 447 450 482
f 446 447 482
f 452 446 482
f 446 452 505
f 447 502 302
f 453 505 452
f 447 503 502
f 452 511 453
f 446 504 503
f 446 505 504
f 452 482 511
f 455 456 454
f 456 460 458
f 454 456 484
f 456 458 486
f 481 512 482
f 443 454 483
f 454 484 483
f 456 486 484
f 462 463 468
f 461 463 462
f 461 462 465
f 462 473 465
f 463 464 468
f 464 471 468
f 465 480 482
f 480 465 487
f 464 466 475
f 466 467 476
f 466 476 475
f 467 483 476
f 476 483 492
f 462 468 469
f 462 469 473
f 468 471 469
f 469 472 470
f 469 471 472
f 469 474 473
f 469 470 474
f 465 473 487
f 473 474 488
f 470 479 474
f 470 472 479
f 474 479 493
f 464 475 471
f 471 475 477
f 475 476 477
f 471 477 472
f 472 477 479
f 477 478 479
f 476 492 477
f 477 495 478
f 478 494 479
f 483 484 485
f 483 485 492
f 484 486 485
f 485 486 520
f 473 488 487
f 474 489 488
f 474 493 489
f 489 493 491
f 487 488 522
f 488 489 521
f 489 490 521
f 488 521 522
f 489 491 490
f 477 492 495
f 478 495 494
f 485 495 492
f 479 494 493
f 493 494 496
f 485 524 495
f 491 493 496
f 494 525 496
f 494 495 527
f 494 527 525
f 497 499 405
f 405 499 412
f 497 319 498
f 319 502 503
f 319 504 498
f 319 503 504
f 504 505 498
f 497 498 499
f 498 507 499
f 498 505 507
f 507 509 499
f 509 510 499
f 510 515 499
f 412 499 413
f 414 413 499
f 415 414 499
f 415 499 501
f 501 500 415
f 415 994 414
f 500 993 415
f 499 516 501
f 499 515 516
f 501 516 517
f 501 1002 500
f 501 517 1002
f 453 506 505
f 453 508 506
f 453 509 508
f 453 511 509
f 482 512 511
f 507 505 506
f 506 509 507
f 506 508 509
f 509 512 510
f 510 513 515
f 511 512 509
f 510 512 513
f 458 459 528
f 481 519 512
f 458 528 486
f 459 1017 528
f 513 516 515
f 513 517 516
f 513 514 517
f 514 518 517
f 514 513 519
f 513 512 519
f 518 514 1004
f 517 518 1001
f 519 1007 514
f 486 528 529
f 486 529 520
f 487 1018 480
f 490 523 521
f 490 491 523
f 491 526 523
f 487 522 1018
f 521 530 522
f 521 523 530
f 523 526 531
f 485 520 524
f 495 524 527
f 491 496 526
f 496 525 526
f 520 536 524
f 524 1023 527
f 525 533 526
f 526 533 534
f 525 527 535
f 525 535 533
f 481 482 1072
f 480 1072 482
f 481 1072 519
f 528 1017 529
f 520 529 1024
f 523 532 530
f 523 531 532
f 522 530 1020
f 526 534 531
f 480 1018 1079
f 522 1020 1018
f 530 532 1020
f 531 1019 532
f 531 534 1021
f 531 1021 1019
f 536 537 524
f 524 537 1023
f 533 1026 534
f 533 535 1028
f 527 1028 535
f 536 520 1024
f 536 1024 537
f 533 1027 1026
f 534 1026 1021
f 533 1028 1027
f 527 1023 1031
f 527 1031 1028
f 538 541 539
f 538 540 541
f 539 541 542
f 39 569 545
f 541 543 542
f 542 543 549
f 162 542 549
f 543 554 549
f 95 572 569
f 540 547 541
f 540 544 547
f 541 546 543
f 541 547 546
f 545 565 544
f 546 547 564
f 546 564 570
f 544 565 547
f 543 546 554
f 546 570 554
f 554 570 571
f 554 571 604
f 550 162 549
f 550 551 163
f 160 548 553
f 551 552 163
f 550 549 554
f 554 551 550
f 551 554 552
f 548 552 555
f 548 555 553
f 609 160 553
f 85 611 608
f 611 85 609
f 552 554 555
f 554 604 603
f 554 603 555
f 553 555 607
f 608 663 147
f 572 95 921
f 875 636 876
f 663 677 147
f 678 133 677
f 678 679 133
f 679 680 133
f 636 875 556
f 556 637 638
f 556 638 636
f 558 637 556
f 654 637 558
f 557 654 558
f 556 562 558
f 655 654 562
f 557 558 561
f 557 561 654
f 559 556 892
f 560 559 892
f 556 559 563
f 562 556 563
f 558 562 561
f 561 562 654
f 560 722 559
f 563 559 722
f 545 568 565
f 547 566 564
f 564 567 570
f 547 565 566
f 545 569 568
f 564 566 567
f 565 576 566
f 566 574 567
f 565 568 576
f 570 605 571
f 571 605 604
f 567 605 570
f 567 613 605
f 569 572 583
f 572 573 584
f 566 576 574
f 574 575 567
f 568 569 583
f 568 577 576
f 568 583 577
f 574 576 578
f 576 577 578
f 574 578 580
f 578 581 580
f 577 589 578
f 577 583 589
f 578 589 579
f 578 579 581
f 579 582 581
f 613 567 575
f 574 615 575
f 613 575 615
f 574 580 615
f 580 581 616
f 581 582 619
f 580 616 615
f 581 619 616
f 572 584 583
f 584 573 585
f 585 573 586
f 584 585 590
f 585 587 590
f 585 586 587
f 583 584 589
f 584 590 589
f 579 589 591
f 589 590 591
f 579 591 582
f 582 591 594
f 591 592 594
f 590 592 591
f 592 595 594
f 587 592 590
f 587 588 592
f 588 593 592
f 592 593 596
f 592 596 595
f 582 594 628
f 594 595 628
f 582 628 619
f 595 630 628
f 597 595 596
f 597 633 595
f 597 596 598
f 599 600 598
f 597 598 633
f 633 634 595
f 635 595 634
f 598 600 601
f 598 601 633
f 602 633 601
f 635 630 595
f 555 603 606
f 603 604 605
f 603 605 606
f 607 609 553
f 555 606 614
f 555 614 607
f 605 613 606
f 610 609 612
f 609 610 611
f 611 663 608
f 611 610 663
f 606 613 614
f 607 614 618
f 613 615 617
f 613 617 614
f 614 617 618
f 607 627 620
f 607 618 627
f 615 616 617
f 617 619 618
f 616 619 617
f 618 619 628
f 607 620 609
f 612 609 632
f 621 622 612
f 609 620 632
f 621 612 632
f 623 632 626
f 621 632 623
f 635 624 625
f 622 623 624
f 621 623 622
f 624 623 626
f 624 626 625
f 635 669 624
f 612 667 610
f 612 622 667
f 610 664 663
f 610 666 664
f 610 667 666
f 622 624 667
f 624 668 667
f 618 629 627
f 627 629 632
f 620 627 632
f 628 631 629
f 618 628 629
f 628 630 631
f 629 631 632
f 625 630 635
f 625 626 630
f 626 631 630
f 626 632 631
f 921 573 572
f 573 921 923
f 573 923 924
f 641 639 640
f 641 929 637
f 640 639 644
f 641 640 929
f 640 644 933
f 643 933 644
f 649 932 642
f 642 932 933
f 642 933 643
f 573 924 586
f 586 937 587
f 587 937 588
f 593 588 941
f 593 941 596
f 596 941 598
f 598 941 599
f 601 671 602
f 599 944 600
f 600 951 601
f 601 645 671
f 645 601 951
f 647 646 653
f 671 645 646
f 671 646 647
f 924 937 586
f 588 937 941
f 599 941 944
f 600 944 945
f 600 945 946
f 946 947 600
f 600 947 951
f 652 649 648
f 651 930 652
f 645 955 646
f 646 955 653
f 650 653 955
f 650 955 651
f 652 932 649
f 652 930 932
f 651 955 930
f 645 948 955
f 645 951 948
f 637 659 641
f 637 655 656
f 637 658 659
f 658 637 656
f 655 637 654
f 639 641 659
f 655 657 656
f 657 660 656
f 662 659 658
f 658 656 660
f 655 660 657
f 659 662 697
f 696 643 644
f 639 696 644
f 643 696 642
f 639 697 696
f 696 697 662
f 639 659 697
f 655 562 661
f 658 660 662
f 655 661 660
f 660 661 662
f 696 662 840
f 602 673 633
f 633 673 634
f 635 634 673
f 664 666 665
f 665 666 667
f 667 668 665
f 663 664 677
f 664 665 678
f 624 670 668
f 669 670 624
f 665 668 681
f 670 684 668
f 635 673 669
f 670 669 676
f 670 676 686
f 672 602 671
f 602 672 673
f 647 672 671
f 653 675 647
f 650 675 653
f 647 674 672
f 647 675 674
f 650 700 675
f 669 673 676
f 672 674 673
f 700 701 693
f 674 690 673
f 675 700 693
f 675 693 674
f 664 678 677
f 665 679 678
f 665 681 679
f 681 680 679
f 668 682 681
f 682 668 684
f 670 685 684
f 683 682 685
f 684 685 682
f 670 686 687
f 687 685 670
f 686 688 687
f 690 685 687
f 688 686 676
f 687 688 689
f 688 676 689
f 689 690 687
f 673 690 676
f 674 691 690
f 674 693 691
f 694 693 701
f 689 676 690
f 691 693 692
f 692 693 694
f 701 843 694
f 642 698 649
f 649 698 648
f 652 648 699
f 642 696 695
f 701 648 698
f 642 695 698
f 651 652 699
f 651 699 650
f 699 648 700
f 648 701 700
f 650 699 700
f 696 840 695
f 695 840 698
f 698 840 701
f 307 705 702
f 307 703 705
f 305 707 703
f 702 705 704
f 704 705 706
f 703 709 705
f 703 707 709
f 705 708 706
f 707 215 739
f 215 737 738
f 738 739 215
f 705 709 708
f 708 709 731
f 708 731 732
f 680 735 210
f 216 735 737
f 704 711 710
f 704 712 711
f 704 706 712
f 706 718 712
f 316 710 714
f 711 714 710
f 316 714 713
f 711 712 714
f 713 714 716
f 713 716 715
f 313 715 719
f 313 779 312
f 712 718 714
f 714 718 716
f 779 721 260
f 706 708 718
f 708 732 717
f 708 717 718
f 715 716 720
f 715 720 719
f 716 718 720
f 313 719 779
f 717 774 718
f 718 774 720
f 719 720 775
f 560 999 722
f 562 563 821
f 722 728 563
f 723 722 1000
f 722 723 728
f 728 730 563
f 821 563 730
f 723 1000 724
f 723 724 726
f 726 729 723
f 723 729 728
f 724 725 726
f 725 727 726
f 728 729 730
f 727 847 726
f 729 726 847
f 729 847 730
f 845 846 727
f 727 846 847
f 457 721 780
f 459 780 1049
f 709 733 731
f 707 744 709
f 731 734 732
f 731 733 734
f 707 739 744
f 709 743 733
f 733 742 734
f 709 744 743
f 737 735 738
f 735 740 738
f 736 740 735
f 738 740 741
f 738 741 739
f 733 743 742
f 742 743 746
f 743 748 746
f 742 746 745
f 743 744 748
f 744 762 748
f 745 746 747
f 746 748 749
f 746 749 747
f 748 764 749
f 736 735 680
f 680 750 736
f 739 762 744
f 736 750 740
f 740 750 755
f 751 752 755
f 750 751 755
f 752 824 756
f 751 824 752
f 739 741 762
f 740 755 741
f 741 753 754
f 741 755 753
f 752 753 755
f 752 756 753
f 741 754 762
f 757 767 754
f 757 758 767
f 753 757 754
f 756 759 753
f 753 759 757
f 756 824 759
f 759 824 760
f 757 759 758
f 758 759 760
f 761 758 829
f 758 760 829
f 829 770 761
f 761 770 769
f 829 768 770
f 748 762 763
f 762 767 765
f 748 763 764
f 762 765 763
f 763 765 764
f 764 765 766
f 754 767 762
f 758 765 767
f 761 766 758
f 761 769 766
f 758 766 765
f 771 769 770
f 771 773 772
f 717 732 774
f 732 777 774
f 732 734 777
f 734 785 777
f 719 775 778
f 720 774 776
f 720 776 775
f 719 778 779
f 774 777 776
f 776 777 785
f 775 776 786
f 775 786 778
f 779 780 721
f 779 809 780
f 782 780 809
f 782 781 780
f 734 742 785
f 742 745 785
f 745 783 785
f 745 747 783
f 747 749 784
f 747 784 783
f 749 790 784
f 776 785 786
f 778 786 787
f 778 787 809
f 783 788 785
f 785 788 786
f 786 788 787
f 778 809 779
f 783 784 788
f 787 788 817
f 788 789 817
f 784 789 788
f 784 790 789
f 749 764 790
f 764 766 790
f 766 791 790
f 771 791 769
f 771 772 791
f 773 793 792
f 794 793 773
f 792 793 795
f 793 794 795
f 792 795 797
f 800 772 773
f 795 796 797
f 800 773 792
f 797 796 799
f 792 797 800
f 797 799 798
f 796 801 799
f 797 798 800
f 766 769 791
f 800 791 772
f 791 800 803
f 803 805 791
f 798 799 801
f 798 802 800
f 798 801 802
f 800 802 803
f 801 808 802
f 802 804 803
f 804 802 808
f 803 804 805
f 804 806 805
f 804 808 806
f 808 807 806
f 809 813 782
f 781 782 813
f 781 813 815
f 809 814 813
f 809 818 814
f 816 814 818
f 808 812 807
f 807 812 811
f 810 812 816
f 810 811 812
f 816 813 814
f 816 815 813
f 787 817 809
f 809 817 818
f 789 790 819
f 790 820 819
f 789 819 817
f 817 819 818
f 790 791 820
f 818 819 820
f 807 811 820
f 805 806 820
f 806 807 820
f 810 816 818
f 810 818 811
f 811 818 820
f 791 805 820
f 562 821 661
f 661 821 662
f 821 839 662
f 839 841 662
f 842 662 841
f 842 840 662
f 821 730 851
f 847 848 730
f 730 848 851
f 839 851 841
f 841 851 842
f 842 849 853
f 821 851 839
f 842 851 849
f 681 751 680
f 682 751 681
f 682 683 751
f 683 685 826
f 690 830 685
f 680 751 750
f 751 683 823
f 823 683 825
f 825 683 826
f 826 685 827
f 827 685 828
f 685 829 828
f 830 829 685
f 690 691 835
f 691 692 835
f 692 694 835
f 830 690 831
f 831 690 832
f 832 690 836
f 833 690 835
f 690 833 836
f 843 834 694
f 694 834 835
f 751 823 824
f 822 824 825
f 823 825 824
f 822 825 826
f 760 824 822
f 760 822 826
f 760 826 827
f 760 827 828
f 760 828 829
f 830 768 829
f 831 768 830
f 768 831 770
f 771 770 832
f 771 837 773
f 837 794 773
f 770 831 832
f 771 832 836
f 843 833 834
f 835 834 833
f 833 837 836
f 771 836 837
f 794 837 838
f 833 860 837
f 833 843 860
f 838 837 860
f 840 844 701
f 843 701 844
f 840 842 853
f 840 853 844
f 844 855 843
f 855 858 843
f 853 855 844
f 860 843 861
f 843 862 861
f 858 862 843
f 781 1048 780
f 852 851 848
f 850 851 852
f 849 851 850
f 848 1047 852
f 853 854 855
f 854 853 849
f 850 852 1047
f 850 1047 849
f 854 1047 855
f 849 1047 854
f 1048 1049 780
f 1052 1048 781
f 795 794 838
f 795 838 796
f 838 857 796
f 857 838 856
f 856 838 860
f 856 860 859
f 857 1057 796
f 796 1062 801
f 801 1062 808
f 781 815 1052
f 808 1064 812
f 816 1069 815
f 816 812 1069
f 858 1047 862
f 860 861 859
f 861 862 859
f 856 859 1055
f 862 1055 859
f 857 856 1055
f 796 1057 1058
f 796 1058 1060
f 796 1060 1063
f 796 1063 1062
f 855 1047 858
f 862 1047 1045
f 862 1045 1054
f 862 1054 1055
f 857 1055 1057
f 815 1053 1052
f 815 1069 1053
f 808 1062 1064
f 812 1064 1065
f 1067 1070 812
f 812 1070 1069
f 1067 812 1068
f 812 1065 1068
f 339 919 921
f 864 863 391
f 391 863 868
f 389 868 867
f 864 865 868
f 863 864 868
f 865 866 868
f 867 868 869
f 866 871 870
f 868 866 870
f 871 873 872
f 868 870 869
f 873 874 872
f 870 925 869
f 870 871 928
f 871 872 928
f 874 875 876
f 872 874 928
f 893 896 919
f 896 911 919
f 869 960 867
f 864 394 877
f 394 878 877
f 878 411 879
f 877 865 864
f 865 883 866
f 865 877 883
f 877 882 883
f 877 884 882
f 877 878 881
f 877 881 884
f 879 411 880
f 879 881 878
f 879 880 881
f 866 883 871
f 871 883 873
f 873 883 885
f 885 886 873
f 873 887 874
f 873 886 887
f 882 885 883
f 882 886 885
f 882 884 886
f 884 891 886
f 886 891 887
f 887 891 888
f 874 888 875
f 874 887 888
f 875 888 556
f 556 888 892
f 881 889 884
f 889 891 884
f 889 881 890
f 889 890 891
f 891 999 888
f 888 999 892
f 893 894 896
f 894 895 897
f 894 956 896
f 894 897 956
f 867 966 370
f 899 904 903
f 899 901 905
f 429 902 900
f 900 902 901
f 429 906 902
f 901 902 905
f 902 906 910
f 895 898 914
f 895 914 897
f 898 903 914
f 899 905 904
f 903 904 912
f 902 910 913
f 902 913 905
f 906 909 910
f 431 908 909
f 432 907 916
f 432 916 908
f 370 966 967
f 968 370 967
f 909 917 910
f 908 917 909
f 908 916 917
f 896 956 911
f 897 914 956
f 867 959 966
f 903 912 914
f 904 905 915
f 904 915 912
f 905 913 915
f 912 961 914
f 913 962 915
f 913 965 962
f 910 917 913
f 916 907 967
f 913 917 965
f 917 969 965
f 907 968 967
f 916 918 917
f 916 972 918
f 917 918 969
f 919 920 921
f 911 920 919
f 920 911 923
f 911 922 923
f 921 920 923
f 924 923 922
f 870 928 925
f 874 876 927
f 874 926 928
f 874 927 926
f 876 636 927
f 636 638 929
f 638 637 929
f 869 925 960
f 636 929 927
f 640 933 929
f 930 931 932
f 932 931 933
f 933 931 929
f 929 931 927
f 927 931 926
f 931 930 952
f 925 928 960
f 931 960 926
f 926 960 928
f 911 956 922
f 922 956 957
f 922 958 934
f 922 957 958
f 960 931 959
f 924 922 934
f 924 934 936
f 924 936 937
f 935 936 934
f 936 938 937
f 936 935 938
f 935 940 938
f 937 938 941
f 938 939 941
f 940 939 938
f 939 942 941
f 939 940 942
f 941 942 944
f 942 943 944
f 947 949 951
f 947 950 949
f 948 954 955
f 951 949 948
f 930 955 952
f 931 952 953
f 952 955 953
f 953 955 954
f 934 958 935
f 935 958 973
f 935 974 940
f 940 976 942
f 942 976 943
f 935 973 974
f 940 974 976
f 931 953 977
f 931 975 959
f 931 977 975
f 978 944 943
f 978 945 944
f 978 946 945
f 946 978 947
f 947 978 950
f 950 978 949
f 948 949 978
f 953 954 978
f 948 978 954
f 943 976 978
f 953 978 977
f 914 958 956
f 956 958 957
f 867 960 959
f 959 975 966
f 914 961 963
f 914 963 958
f 912 915 964
f 912 964 961
f 915 962 964
f 962 965 970
f 961 983 963
f 961 964 980
f 962 970 964
f 964 970 981
f 965 969 970
f 916 967 972
f 918 972 971
f 918 971 969
f 967 966 975
f 967 985 972
f 969 971 970
f 970 971 981
f 958 963 982
f 958 982 973
f 973 982 974
f 974 982 984
f 974 984 976
f 976 984 988
f 976 988 992
f 976 992 978
f 975 979 985
f 975 977 979
f 977 978 979
f 978 992 979
f 961 980 983
f 963 983 982
f 980 981 983
f 981 987 983
f 964 981 980
f 982 983 984
f 983 987 988
f 983 988 984
f 981 989 987
f 981 986 989
f 967 975 985
f 986 990 989
f 972 985 990
f 971 986 981
f 971 972 990
f 971 990 986
f 987 989 991
f 987 991 988
f 988 991 992
f 979 990 985
f 989 990 991
f 979 992 990
f 990 992 991
f 880 414 994
f 993 994 415
f 880 994 881
f 994 890 881
f 890 994 995
f 890 995 996
f 993 500 1002
f 993 995 994
f 993 1002 995
f 995 1002 996
f 997 996 1002
f 997 1002 1012
f 891 890 996
f 891 996 997
f 891 997 998
f 891 998 999
f 560 892 999
f 999 1000 722
f 997 1012 998
f 1010 998 1012
f 1010 999 998
f 1014 999 1010
f 1000 999 1014
f 724 1000 1014
f 1014 725 724
f 725 1014 727
f 1014 1016 727
f 845 727 1016
f 517 1001 1002
f 1004 514 1006
f 518 1004 1001
f 514 1007 1006
f 1001 1003 1002
f 1002 1003 1012
f 1001 1013 1003
f 1003 1011 1012
f 1003 1013 1011
f 1004 1006 1001
f 1006 1005 1001
f 1005 1008 1001
f 1008 1013 1001
f 1017 459 1049
f 519 1009 1007
f 1012 1011 1010
f 1010 1011 1013
f 1014 1010 1015
f 1015 1016 1014
f 1013 1008 1043
f 1013 1043 1010
f 1010 1043 1015
f 1072 1005 1006
f 1072 1006 1007
f 1005 1072 1008
f 1072 1007 1009
f 1017 1049 1033
f 519 1072 1009
f 1072 480 1079
f 529 1017 1033
f 529 1033 1073
f 529 1073 1024
f 1073 1025 1024
f 532 1019 1035
f 532 1035 1020
f 1019 1021 1022
f 1021 1029 1022
f 1018 1020 1036
f 1019 1022 1034
f 1019 1034 1035
f 1022 1029 1034
f 1023 537 1024
f 1023 1024 1025
f 1021 1026 1029
f 1026 1027 1030
f 1028 1031 1032
f 1027 1028 1030
f 1023 1025 1041
f 1023 1041 1031
f 1026 1030 1029
f 1028 1032 1030
f 1031 1040 1032
f 1025 1073 1038
f 1020 1035 1037
f 1018 1036 1079
f 1020 1037 1036
f 1029 1039 1034
f 1034 1039 1035
f 1035 1076 1037
f 1035 1039 1077
f 1035 1077 1076
f 1025 1038 1041
f 1031 1041 1040
f 1029 1030 1039
f 1030 1042 1039
f 1030 1032 1040
f 1030 1040 1042
f 1038 1082 1041
f 1040 1041 1082
f 1039 1083 1077
f 1039 1042 1083
f 1015 1047 1016
f 1008 1044 1043
f 845 1016 1047
f 845 1047 846
f 1015 1043 1044
f 847 1047 848
f 846 1047 847
f 1015 1044 1047
f 1008 1072 1044
f 1045 1044 1046
f 1045 1047 1044
f 1044 1072 1046
f 1033 1049 1048
f 1033 1048 1050
f 1033 1050 1051
f 1051 1052 1053
f 1050 1052 1051
f 1052 1050 1048
f 1033 1051 1073
f 1051 1074 1073
f 1053 1071 1075
f 1051 1053 1075
f 1051 1075 1074
f 1045 1056 1054
f 1054 1056 1055
f 1055 1056 1057
f 1058 1057 1059
f 1061 1058 1059
f 1058 1061 1060
f 1060 1061 1063
f 1071 1053 1069
f 1064 1066 1065
f 1065 1066 1068
f 1070 1071 1069
f 1045 1046 1088
f 1045 1088 1056
f 1046 1072 1087
f 1046 1087 1088
f 1056 1090 1057
f 1057 1090 1059
f 1061 1059 1090
f 1061 1090 1063
f 1062 1063 1091
f 1056 1088 1090
f 1063 1090 1091
f 1092 1070 1067
f 1070 1075 1071
f 1070 1093 1075
f 1091 1064 1062
f 1091 1066 1064
f 1066 1092 1068
f 1092 1067 1068
f 1070 1092 1093
f 1066 1091 1092
f 1072 1078 1087
f 1038 1073 1075
f 1073 1074 1075
f 1036 1037 1080
f 1036 1078 1079
f 1036 1080 1078
f 1037 1081 1080
f 1037 1076 1081
f 1076 1077 1081
f 1072 1079 1078
f 1078 1080 1094
f 1077 1086 1081
f 1081 1086 1103
f 1038 1075 1082
f 1077 1083 1086
f 1042 1085 1083
f 1040 1085 1042
f 1040 1082 1085
f 1075 1084 1082
f 1082 1084 1105
f 1082 1102 1085
f 1083 1085 1086
f 1085 1103 1086
f 1087 1094 1089
f 1087 1089 1088
f 1088 1089 1090
f 1089 1099 1090
f 1090 1099 1101
f 1090 1101 1091
f 1075 1104 1084
f 1075 1093 1104
f 1091 1101 1092
f 1092 1101 1106
f 1092 1104 1093
f 1092 1106 1104
f 1078 1094 1087
f 1080 1097 1094
f 1095 1096 1097
f 1095 1103 1096
f 1096 1103 1100
f 1080 1081 1097
f 1081 1095 1097
f 1081 1103 1095
f 1089 1094 1097
f 1096 1098 1097
f 1089 1097 1099
f 1097 1098 1099
f 1096 1100 1098
f 1098 1101 1099
f 1098 1100 1101
f 1102 1105 1103
f 1082 1105 1102
f 1084 1104 1105
f 1085 1102 1103
f 1100 1105 1106
f 1104 1106 1105
f 1100 1103 1105
f 1100 1106 1101
