# Blender 5.1.2
# www.blender.org
o NewtonChipBagSealedCylinderDemo
v -0.127000 -0.008000 -0.180000
v -0.095250 -0.008000 -0.180000
v -0.063500 -0.008000 -0.180000
v -0.031750 -0.008000 -0.180000
v 0.000000 -0.008000 -0.180000
v 0.031750 -0.008000 -0.180000
v 0.063500 -0.008000 -0.180000
v 0.095250 -0.008000 -0.180000
v 0.127000 -0.008000 -0.180000
v -0.127000 0.000000 -0.180000
v -0.095250 0.000000 -0.180000
v -0.063500 0.000000 -0.180000
v -0.031750 0.000000 -0.180000
v 0.000000 0.000000 -0.180000
v 0.031750 0.000000 -0.180000
v 0.063500 0.000000 -0.180000
v 0.095250 0.000000 -0.180000
v 0.127000 0.000000 -0.180000
v -0.127000 0.008000 -0.180000
v -0.095250 0.008000 -0.180000
v -0.063500 0.008000 -0.180000
v -0.031750 0.008000 -0.180000
v 0.000000 0.008000 -0.180000
v 0.031750 0.008000 -0.180000
v 0.063500 0.008000 -0.180000
v 0.095250 0.008000 -0.180000
v 0.127000 0.008000 -0.180000
v 0.133928 -0.004000 -0.180000
v 0.133928 0.004000 -0.180000
v -0.133928 0.004000 -0.180000
v -0.133928 -0.004000 -0.180000
v -0.127000 -0.008000 0.180000
v -0.095250 -0.008000 0.180000
v -0.063500 -0.008000 0.180000
v -0.031750 -0.008000 0.180000
v 0.000000 -0.008000 0.180000
v 0.031750 -0.008000 0.180000
v 0.063500 -0.008000 0.180000
v 0.095250 -0.008000 0.180000
v 0.127000 -0.008000 0.180000
v -0.127000 0.000000 0.180000
v -0.095250 0.000000 0.180000
v -0.063500 0.000000 0.180000
v -0.031750 0.000000 0.180000
v 0.000000 0.000000 0.180000
v 0.031750 0.000000 0.180000
v 0.063500 0.000000 0.180000
v 0.095250 0.000000 0.180000
v 0.127000 0.000000 0.180000
v -0.127000 0.008000 0.180000
v -0.095250 0.008000 0.180000
v -0.063500 0.008000 0.180000
v -0.031750 0.008000 0.180000
v 0.000000 0.008000 0.180000
v 0.031750 0.008000 0.180000
v 0.063500 0.008000 0.180000
v 0.095250 0.008000 0.180000
v 0.127000 0.008000 0.180000
v 0.133928 -0.004000 0.180000
v 0.133928 0.004000 0.180000
v -0.133928 0.004000 0.180000
v -0.133928 -0.004000 0.180000
v -0.096922 -0.038078 -0.135000
v -0.072691 -0.038078 -0.135000
v -0.048461 -0.038078 -0.135000
v -0.024230 -0.038078 -0.135000
v 0.000000 -0.038078 -0.135000
v 0.024230 -0.038078 -0.135000
v 0.048461 -0.038078 -0.135000
v 0.072691 -0.038078 -0.135000
v 0.096922 -0.038078 -0.135000
v 0.129899 -0.019039 -0.135000
v 0.129899 0.019039 -0.135000
v 0.096922 0.038078 -0.135000
v 0.072691 0.038078 -0.135000
v 0.048461 0.038078 -0.135000
v 0.024230 0.038078 -0.135000
v 0.000000 0.038078 -0.135000
v -0.024230 0.038078 -0.135000
v -0.048461 0.038078 -0.135000
v -0.072691 0.038078 -0.135000
v -0.096922 0.038078 -0.135000
v -0.129899 0.019039 -0.135000
v -0.129899 -0.019039 -0.135000
v -0.083000 -0.052000 -0.090000
v -0.062250 -0.052000 -0.090000
v -0.041500 -0.052000 -0.090000
v -0.020750 -0.052000 -0.090000
v 0.000000 -0.052000 -0.090000
v 0.020750 -0.052000 -0.090000
v 0.041500 -0.052000 -0.090000
v 0.062250 -0.052000 -0.090000
v 0.083000 -0.052000 -0.090000
v 0.128033 -0.026000 -0.090000
v 0.128033 0.026000 -0.090000
v 0.083000 0.052000 -0.090000
v 0.062250 0.052000 -0.090000
v 0.041500 0.052000 -0.090000
v 0.020750 0.052000 -0.090000
v 0.000000 0.052000 -0.090000
v -0.020750 0.052000 -0.090000
v -0.041500 0.052000 -0.090000
v -0.062250 0.052000 -0.090000
v -0.083000 0.052000 -0.090000
v -0.128033 0.026000 -0.090000
v -0.128033 -0.026000 -0.090000
v -0.083000 -0.052000 -0.045000
v -0.062250 -0.052000 -0.045000
v -0.041500 -0.052000 -0.045000
v -0.020750 -0.052000 -0.045000
v 0.000000 -0.052000 -0.045000
v 0.020750 -0.052000 -0.045000
v 0.041500 -0.052000 -0.045000
v 0.062250 -0.052000 -0.045000
v 0.083000 -0.052000 -0.045000
v 0.128033 -0.026000 -0.045000
v 0.128033 0.026000 -0.045000
v 0.083000 0.052000 -0.045000
v 0.062250 0.052000 -0.045000
v 0.041500 0.052000 -0.045000
v 0.020750 0.052000 -0.045000
v 0.000000 0.052000 -0.045000
v -0.020750 0.052000 -0.045000
v -0.041500 0.052000 -0.045000
v -0.062250 0.052000 -0.045000
v -0.083000 0.052000 -0.045000
v -0.128033 0.026000 -0.045000
v -0.128033 -0.026000 -0.045000
v -0.083000 -0.052000 0.000000
v -0.062250 -0.052000 0.000000
v -0.041500 -0.052000 0.000000
v -0.020750 -0.052000 0.000000
v 0.000000 -0.052000 0.000000
v 0.020750 -0.052000 0.000000
v 0.041500 -0.052000 0.000000
v 0.062250 -0.052000 0.000000
v 0.083000 -0.052000 0.000000
v 0.128033 -0.026000 0.000000
v 0.128033 0.026000 0.000000
v 0.083000 0.052000 0.000000
v 0.062250 0.052000 0.000000
v 0.041500 0.052000 0.000000
v 0.020750 0.052000 0.000000
v 0.000000 0.052000 0.000000
v -0.020750 0.052000 0.000000
v -0.041500 0.052000 0.000000
v -0.062250 0.052000 0.000000
v -0.083000 0.052000 0.000000
v -0.128033 0.026000 0.000000
v -0.128033 -0.026000 0.000000
v -0.083000 -0.052000 0.045000
v -0.062250 -0.052000 0.045000
v -0.041500 -0.052000 0.045000
v -0.020750 -0.052000 0.045000
v 0.000000 -0.052000 0.045000
v 0.020750 -0.052000 0.045000
v 0.041500 -0.052000 0.045000
v 0.062250 -0.052000 0.045000
v 0.083000 -0.052000 0.045000
v 0.128033 -0.026000 0.045000
v 0.128033 0.026000 0.045000
v 0.083000 0.052000 0.045000
v 0.062250 0.052000 0.045000
v 0.041500 0.052000 0.045000
v 0.020750 0.052000 0.045000
v 0.000000 0.052000 0.045000
v -0.020750 0.052000 0.045000
v -0.041500 0.052000 0.045000
v -0.062250 0.052000 0.045000
v -0.083000 0.052000 0.045000
v -0.128033 0.026000 0.045000
v -0.128033 -0.026000 0.045000
v -0.083000 -0.052000 0.090000
v -0.062250 -0.052000 0.090000
v -0.041500 -0.052000 0.090000
v -0.020750 -0.052000 0.090000
v 0.000000 -0.052000 0.090000
v 0.020750 -0.052000 0.090000
v 0.041500 -0.052000 0.090000
v 0.062250 -0.052000 0.090000
v 0.083000 -0.052000 0.090000
v 0.128033 -0.026000 0.090000
v 0.128033 0.026000 0.090000
v 0.083000 0.052000 0.090000
v 0.062250 0.052000 0.090000
v 0.041500 0.052000 0.090000
v 0.020750 0.052000 0.090000
v 0.000000 0.052000 0.090000
v -0.020750 0.052000 0.090000
v -0.041500 0.052000 0.090000
v -0.062250 0.052000 0.090000
v -0.083000 0.052000 0.090000
v -0.128033 0.026000 0.090000
v -0.128033 -0.026000 0.090000
v -0.096922 -0.038078 0.135000
v -0.072691 -0.038078 0.135000
v -0.048461 -0.038078 0.135000
v -0.024230 -0.038078 0.135000
v 0.000000 -0.038078 0.135000
v 0.024230 -0.038078 0.135000
v 0.048461 -0.038078 0.135000
v 0.072691 -0.038078 0.135000
v 0.096922 -0.038078 0.135000
v 0.129899 -0.019039 0.135000
v 0.129899 0.019039 0.135000
v 0.096922 0.038078 0.135000
v 0.072691 0.038078 0.135000
v 0.048461 0.038078 0.135000
v 0.024230 0.038078 0.135000
v 0.000000 0.038078 0.135000
v -0.024230 0.038078 0.135000
v -0.048461 0.038078 0.135000
v -0.072691 0.038078 0.135000
v -0.096922 0.038078 0.135000
v -0.129899 0.019039 0.135000
v -0.129899 -0.019039 0.135000
vn -0.0000 -0.0000 1.0000
vn -0.0000 -0.8314 -0.5557
vn 0.4857 -0.8412 -0.2376
vn 0.9960 -0.0000 0.0892
vn 0.4857 0.8412 -0.2376
vn -0.0000 0.8314 -0.5557
vn -0.4857 0.8412 -0.2376
vn -0.9960 -0.0000 0.0892
vn -0.4857 -0.8412 -0.2376
vn -0.0000 -0.9553 -0.2956
vn 0.4968 -0.8605 -0.1125
vn 0.9991 -0.0000 0.0414
vn 0.4968 0.8605 -0.1125
vn -0.0000 0.9553 -0.2956
vn -0.4968 0.8605 -0.1125
vn -0.9991 -0.0000 0.0414
vn -0.4968 -0.8605 -0.1125
vn -0.0000 -1.0000 -0.0000
vn 0.5000 -0.8660 -0.0000
vn 1.0000 -0.0000 -0.0000
vn 0.5000 0.8660 -0.0000
vn -0.0000 1.0000 -0.0000
vn -0.5000 0.8660 -0.0000
vn -1.0000 -0.0000 -0.0000
vn -0.5000 -0.8660 -0.0000
vn -0.0000 -0.9553 0.2956
vn 0.4968 -0.8605 0.1125
vn 0.9991 -0.0000 -0.0414
vn 0.4968 0.8605 0.1125
vn -0.0000 0.9553 0.2956
vn -0.4968 0.8605 0.1125
vn -0.9991 -0.0000 -0.0414
vn -0.4968 -0.8605 0.1125
vn -0.0000 -0.8314 0.5557
vn 0.4857 -0.8412 0.2376
vn 0.9960 -0.0000 -0.0892
vn 0.4857 0.8412 0.2376
vn -0.0000 0.8314 0.5557
vn -0.4857 0.8412 0.2376
vn -0.9960 -0.0000 -0.0892
vn -0.4857 -0.8412 0.2376
s 0
f 1//1 2//1 11//1
f 1//1 11//1 10//1
f 2//1 3//1 12//1
f 2//1 12//1 11//1
f 3//1 4//1 13//1
f 3//1 13//1 12//1
f 4//1 5//1 14//1
f 4//1 14//1 13//1
f 5//1 6//1 15//1
f 5//1 15//1 14//1
f 6//1 7//1 16//1
f 6//1 16//1 15//1
f 7//1 8//1 17//1
f 7//1 17//1 16//1
f 8//1 9//1 18//1
f 8//1 18//1 17//1
f 10//1 11//1 20//1
f 10//1 20//1 19//1
f 11//1 12//1 21//1
f 11//1 21//1 20//1
f 12//1 13//1 22//1
f 12//1 22//1 21//1
f 13//1 14//1 23//1
f 13//1 23//1 22//1
f 14//1 15//1 24//1
f 14//1 24//1 23//1
f 15//1 16//1 25//1
f 15//1 25//1 24//1
f 16//1 17//1 26//1
f 16//1 26//1 25//1
f 17//1 18//1 27//1
f 17//1 27//1 26//1
f 18//1 9//1 28//1
f 18//1 28//1 29//1
f 18//1 29//1 27//1
f 10//1 19//1 30//1
f 10//1 30//1 31//1
f 10//1 31//1 1//1
f 32//1 33//1 42//1
f 32//1 42//1 41//1
f 33//1 34//1 43//1
f 33//1 43//1 42//1
f 34//1 35//1 44//1
f 34//1 44//1 43//1
f 35//1 36//1 45//1
f 35//1 45//1 44//1
f 36//1 37//1 46//1
f 36//1 46//1 45//1
f 37//1 38//1 47//1
f 37//1 47//1 46//1
f 38//1 39//1 48//1
f 38//1 48//1 47//1
f 39//1 40//1 49//1
f 39//1 49//1 48//1
f 41//1 42//1 51//1
f 41//1 51//1 50//1
f 42//1 43//1 52//1
f 42//1 52//1 51//1
f 43//1 44//1 53//1
f 43//1 53//1 52//1
f 44//1 45//1 54//1
f 44//1 54//1 53//1
f 45//1 46//1 55//1
f 45//1 55//1 54//1
f 46//1 47//1 56//1
f 46//1 56//1 55//1
f 47//1 48//1 57//1
f 47//1 57//1 56//1
f 48//1 49//1 58//1
f 48//1 58//1 57//1
f 49//1 40//1 59//1
f 49//1 59//1 60//1
f 49//1 60//1 58//1
f 41//1 50//1 61//1
f 41//1 61//1 62//1
f 41//1 62//1 32//1
f 1//2 2//2 64//2
f 1//2 64//2 63//2
f 2//2 3//2 65//2
f 2//2 65//2 64//2
f 3//2 4//2 66//2
f 3//2 66//2 65//2
f 4//2 5//2 67//2
f 4//2 67//2 66//2
f 5//2 6//2 68//2
f 5//2 68//2 67//2
f 6//2 7//2 69//2
f 6//2 69//2 68//2
f 7//2 8//2 70//2
f 7//2 70//2 69//2
f 8//2 9//2 71//2
f 8//2 71//2 70//2
f 9//3 28//3 72//3
f 9//3 72//3 71//3
f 28//4 29//4 73//4
f 28//4 73//4 72//4
f 29//5 27//5 74//5
f 29//5 74//5 73//5
f 27//6 26//6 75//6
f 27//6 75//6 74//6
f 26//6 25//6 76//6
f 26//6 76//6 75//6
f 25//6 24//6 77//6
f 25//6 77//6 76//6
f 24//6 23//6 78//6
f 24//6 78//6 77//6
f 23//6 22//6 79//6
f 23//6 79//6 78//6
f 22//6 21//6 80//6
f 22//6 80//6 79//6
f 21//6 20//6 81//6
f 21//6 81//6 80//6
f 20//6 19//6 82//6
f 20//6 82//6 81//6
f 19//7 30//7 83//7
f 19//7 83//7 82//7
f 30//8 31//8 84//8
f 30//8 84//8 83//8
f 31//9 1//9 63//9
f 31//9 63//9 84//9
f 63//10 64//10 86//10
f 63//10 86//10 85//10
f 64//10 65//10 87//10
f 64//10 87//10 86//10
f 65//10 66//10 88//10
f 65//10 88//10 87//10
f 66//10 67//10 89//10
f 66//10 89//10 88//10
f 67//10 68//10 90//10
f 67//10 90//10 89//10
f 68//10 69//10 91//10
f 68//10 91//10 90//10
f 69//10 70//10 92//10
f 69//10 92//10 91//10
f 70//10 71//10 93//10
f 70//10 93//10 92//10
f 71//11 72//11 94//11
f 71//11 94//11 93//11
f 72//12 73//12 95//12
f 72//12 95//12 94//12
f 73//13 74//13 96//13
f 73//13 96//13 95//13
f 74//14 75//14 97//14
f 74//14 97//14 96//14
f 75//14 76//14 98//14
f 75//14 98//14 97//14
f 76//14 77//14 99//14
f 76//14 99//14 98//14
f 77//14 78//14 100//14
f 77//14 100//14 99//14
f 78//14 79//14 101//14
f 78//14 101//14 100//14
f 79//14 80//14 102//14
f 79//14 102//14 101//14
f 80//14 81//14 103//14
f 80//14 103//14 102//14
f 81//14 82//14 104//14
f 81//14 104//14 103//14
f 82//15 83//15 105//15
f 82//15 105//15 104//15
f 83//16 84//16 106//16
f 83//16 106//16 105//16
f 84//17 63//17 85//17
f 84//17 85//17 106//17
f 85//18 86//18 108//18
f 85//18 108//18 107//18
f 86//18 87//18 109//18
f 86//18 109//18 108//18
f 87//18 88//18 110//18
f 87//18 110//18 109//18
f 88//18 89//18 111//18
f 88//18 111//18 110//18
f 89//18 90//18 112//18
f 89//18 112//18 111//18
f 90//18 91//18 113//18
f 90//18 113//18 112//18
f 91//18 92//18 114//18
f 91//18 114//18 113//18
f 92//18 93//18 115//18
f 92//18 115//18 114//18
f 93//19 94//19 116//19
f 93//19 116//19 115//19
f 94//20 95//20 117//20
f 94//20 117//20 116//20
f 95//21 96//21 118//21
f 95//21 118//21 117//21
f 96//22 97//22 119//22
f 96//22 119//22 118//22
f 97//22 98//22 120//22
f 97//22 120//22 119//22
f 98//22 99//22 121//22
f 98//22 121//22 120//22
f 99//22 100//22 122//22
f 99//22 122//22 121//22
f 100//22 101//22 123//22
f 100//22 123//22 122//22
f 101//22 102//22 124//22
f 101//22 124//22 123//22
f 102//22 103//22 125//22
f 102//22 125//22 124//22
f 103//22 104//22 126//22
f 103//22 126//22 125//22
f 104//23 105//23 127//23
f 104//23 127//23 126//23
f 105//24 106//24 128//24
f 105//24 128//24 127//24
f 106//25 85//25 107//25
f 106//25 107//25 128//25
f 107//18 108//18 130//18
f 107//18 130//18 129//18
f 108//18 109//18 131//18
f 108//18 131//18 130//18
f 109//18 110//18 132//18
f 109//18 132//18 131//18
f 110//18 111//18 133//18
f 110//18 133//18 132//18
f 111//18 112//18 134//18
f 111//18 134//18 133//18
f 112//18 113//18 135//18
f 112//18 135//18 134//18
f 113//18 114//18 136//18
f 113//18 136//18 135//18
f 114//18 115//18 137//18
f 114//18 137//18 136//18
f 115//19 116//19 138//19
f 115//19 138//19 137//19
f 116//20 117//20 139//20
f 116//20 139//20 138//20
f 117//21 118//21 140//21
f 117//21 140//21 139//21
f 118//22 119//22 141//22
f 118//22 141//22 140//22
f 119//22 120//22 142//22
f 119//22 142//22 141//22
f 120//22 121//22 143//22
f 120//22 143//22 142//22
f 121//22 122//22 144//22
f 121//22 144//22 143//22
f 122//22 123//22 145//22
f 122//22 145//22 144//22
f 123//22 124//22 146//22
f 123//22 146//22 145//22
f 124//22 125//22 147//22
f 124//22 147//22 146//22
f 125//22 126//22 148//22
f 125//22 148//22 147//22
f 126//23 127//23 149//23
f 126//23 149//23 148//23
f 127//24 128//24 150//24
f 127//24 150//24 149//24
f 128//25 107//25 129//25
f 128//25 129//25 150//25
f 129//18 130//18 152//18
f 129//18 152//18 151//18
f 130//18 131//18 153//18
f 130//18 153//18 152//18
f 131//18 132//18 154//18
f 131//18 154//18 153//18
f 132//18 133//18 155//18
f 132//18 155//18 154//18
f 133//18 134//18 156//18
f 133//18 156//18 155//18
f 134//18 135//18 157//18
f 134//18 157//18 156//18
f 135//18 136//18 158//18
f 135//18 158//18 157//18
f 136//18 137//18 159//18
f 136//18 159//18 158//18
f 137//19 138//19 160//19
f 137//19 160//19 159//19
f 138//20 139//20 161//20
f 138//20 161//20 160//20
f 139//21 140//21 162//21
f 139//21 162//21 161//21
f 140//22 141//22 163//22
f 140//22 163//22 162//22
f 141//22 142//22 164//22
f 141//22 164//22 163//22
f 142//22 143//22 165//22
f 142//22 165//22 164//22
f 143//22 144//22 166//22
f 143//22 166//22 165//22
f 144//22 145//22 167//22
f 144//22 167//22 166//22
f 145//22 146//22 168//22
f 145//22 168//22 167//22
f 146//22 147//22 169//22
f 146//22 169//22 168//22
f 147//22 148//22 170//22
f 147//22 170//22 169//22
f 148//23 149//23 171//23
f 148//23 171//23 170//23
f 149//24 150//24 172//24
f 149//24 172//24 171//24
f 150//25 129//25 151//25
f 150//25 151//25 172//25
f 151//18 152//18 174//18
f 151//18 174//18 173//18
f 152//18 153//18 175//18
f 152//18 175//18 174//18
f 153//18 154//18 176//18
f 153//18 176//18 175//18
f 154//18 155//18 177//18
f 154//18 177//18 176//18
f 155//18 156//18 178//18
f 155//18 178//18 177//18
f 156//18 157//18 179//18
f 156//18 179//18 178//18
f 157//18 158//18 180//18
f 157//18 180//18 179//18
f 158//18 159//18 181//18
f 158//18 181//18 180//18
f 159//19 160//19 182//19
f 159//19 182//19 181//19
f 160//20 161//20 183//20
f 160//20 183//20 182//20
f 161//21 162//21 184//21
f 161//21 184//21 183//21
f 162//22 163//22 185//22
f 162//22 185//22 184//22
f 163//22 164//22 186//22
f 163//22 186//22 185//22
f 164//22 165//22 187//22
f 164//22 187//22 186//22
f 165//22 166//22 188//22
f 165//22 188//22 187//22
f 166//22 167//22 189//22
f 166//22 189//22 188//22
f 167//22 168//22 190//22
f 167//22 190//22 189//22
f 168//22 169//22 191//22
f 168//22 191//22 190//22
f 169//22 170//22 192//22
f 169//22 192//22 191//22
f 170//23 171//23 193//23
f 170//23 193//23 192//23
f 171//24 172//24 194//24
f 171//24 194//24 193//24
f 172//25 151//25 173//25
f 172//25 173//25 194//25
f 173//26 174//26 196//26
f 173//26 196//26 195//26
f 174//26 175//26 197//26
f 174//26 197//26 196//26
f 175//26 176//26 198//26
f 175//26 198//26 197//26
f 176//26 177//26 199//26
f 176//26 199//26 198//26
f 177//26 178//26 200//26
f 177//26 200//26 199//26
f 178//26 179//26 201//26
f 178//26 201//26 200//26
f 179//26 180//26 202//26
f 179//26 202//26 201//26
f 180//26 181//26 203//26
f 180//26 203//26 202//26
f 181//27 182//27 204//27
f 181//27 204//27 203//27
f 182//28 183//28 205//28
f 182//28 205//28 204//28
f 183//29 184//29 206//29
f 183//29 206//29 205//29
f 184//30 185//30 207//30
f 184//30 207//30 206//30
f 185//30 186//30 208//30
f 185//30 208//30 207//30
f 186//30 187//30 209//30
f 186//30 209//30 208//30
f 187//30 188//30 210//30
f 187//30 210//30 209//30
f 188//30 189//30 211//30
f 188//30 211//30 210//30
f 189//30 190//30 212//30
f 189//30 212//30 211//30
f 190//30 191//30 213//30
f 190//30 213//30 212//30
f 191//30 192//30 214//30
f 191//30 214//30 213//30
f 192//31 193//31 215//31
f 192//31 215//31 214//31
f 193//32 194//32 216//32
f 193//32 216//32 215//32
f 194//33 173//33 195//33
f 194//33 195//33 216//33
f 195//34 196//34 33//34
f 195//34 33//34 32//34
f 196//34 197//34 34//34
f 196//34 34//34 33//34
f 197//34 198//34 35//34
f 197//34 35//34 34//34
f 198//34 199//34 36//34
f 198//34 36//34 35//34
f 199//34 200//34 37//34
f 199//34 37//34 36//34
f 200//34 201//34 38//34
f 200//34 38//34 37//34
f 201//34 202//34 39//34
f 201//34 39//34 38//34
f 202//34 203//34 40//34
f 202//34 40//34 39//34
f 203//35 204//35 59//35
f 203//35 59//35 40//35
f 204//36 205//36 60//36
f 204//36 60//36 59//36
f 205//37 206//37 58//37
f 205//37 58//37 60//37
f 206//38 207//38 57//38
f 206//38 57//38 58//38
f 207//38 208//38 56//38
f 207//38 56//38 57//38
f 208//38 209//38 55//38
f 208//38 55//38 56//38
f 209//38 210//38 54//38
f 209//38 54//38 55//38
f 210//38 211//38 53//38
f 210//38 53//38 54//38
f 211//38 212//38 52//38
f 211//38 52//38 53//38
f 212//38 213//38 51//38
f 212//38 51//38 52//38
f 213//38 214//38 50//38
f 213//38 50//38 51//38
f 214//39 215//39 61//39
f 214//39 61//39 50//39
f 215//40 216//40 62//40
f 215//40 62//40 61//40
f 216//41 195//41 32//41
f 216//41 32//41 62//41
