# https://github.com/mikedh/trimesh

o geometry_0
v 0.03986571 0.03050000 0.09428303
v 0.04246973 0.02849840 0.10923083
v 0.04289163 0.02849840 0.10497767
v 0.04275591 0.02849840 0.09841447
v 0.04294529 -0.03979519 0.10417502
v 0.04285270 -0.03979519 0.09928504
v 0.04168905 0.02849840 0.09205414
v 0.04216882 -0.03979519 0.09419042
v 0.04257494 -0.03979519 0.10835939
v 0.03965318 -0.04264915 0.09997920
v 0.03711861 0.03050000 0.11920045
v 0.03681349 -0.04426892 0.10929809
v 0.04128293 -0.03979519 0.09048235
v 0.04004878 0.02849840 0.08694629
v 0.04117351 0.02849840 0.11488996
v 0.04167853 -0.03979519 0.11298829
v 0.03452406 -0.04580000 0.09712582
v 0.03563511 0.03050000 0.08226534
v 0.03954692 -0.03979519 0.08567175
v 0.03552043 -0.04343990 0.08697892
v 0.03988570 0.02849840 0.11850452
v 0.04029603 -0.03979519 0.11746196
v 0.03793295 0.02849840 0.08225475
v 0.03463822 -0.04395990 0.11804013
v 0.03472081 -0.04580000 0.10563920
v 0.03163913 -0.04580000 0.08794122
v 0.03768255 -0.03979519 0.08182256
v 0.03754367 0.02849840 0.12338480
v 0.03862105 -0.03979519 0.12135878
v 0.03040604 -0.04580000 0.11970761
v 0.03169516 -0.04377179 0.08126005
v 0.03298796 -0.00130909 0.07341327
v 0.03299217 0.02749012 0.07341327
v 0.03566878 -0.03979519 0.12644634
v 0.03522478 -0.03979519 0.07787811
v 0.03166228 -0.03979519 0.07341327
v 0.02887625 0.03050000 0.07341327
v 0.03039026 -0.04375265 0.12562671
v 0.03397590 0.02849840 0.12881018
v 0.02916874 0.03050000 0.13107084
v 0.01944077 -0.04580000 0.07341327
v 0.02782833 -0.04229533 0.07341327
v -0.02887291 0.03050000 0.07341327
v 0.03248294 -0.03979519 0.13064305
v -0.03299724 0.02749012 0.07341327
v 0.02952435 0.02849840 0.13369577
v -0.03298882 -0.00137631 0.07341327
v -0.03710475 -0.03979519 0.08085585
v -0.03865348 0.02849840 0.08376656
v 0.02147243 -0.04580000 0.12999387
v 0.02772101 -0.03979519 0.13534252
v -0.03617362 0.03050000 0.08349225
v -0.03938155 -0.03979519 0.08528189
v 0.02368926 0.02849840 0.13834408
v 0.02039821 0.03050000 0.13798156
v -0.03165894 -0.03979519 0.07341327
v -0.04094291 -0.03979519 0.08943097
v -0.03534454 -0.04313088 0.08569424
v 0.02425951 -0.03979519 0.13797627
v -0.02986559 -0.04356593 0.07818814
v -0.04095132 0.02849840 0.08944862
v -0.03959619 0.03050000 0.09215821
v 0.01876399 -0.04411441 0.13521132
v -0.01944585 -0.04580000 0.07341327
v -0.03872581 -0.04295257 0.09562416
v 0.01897573 0.02849840 0.14106162
v 0.02027826 -0.03979519 0.14039481
v -0.03020490 -0.04580000 0.08488850
v -0.04207079 -0.03979519 0.09371059
v -0.04207920 0.02849840 0.09375998
v 0.01104269 0.03050000 0.14181046
v -0.02464756 -0.04580000 0.07784901
v -0.03334234 -0.04580000 0.09232844
v 0.01632016 -0.03979519 0.14226471
v 0.01484508 0.02849840 0.14283097
v -0.04275677 -0.03979519 0.09808195
v -0.04063358 0.03050000 0.10484449
v -0.04287461 0.02849840 0.09983543
v -0.03453914 -0.04580000 0.10528859
v 0.01200644 -0.04395990 0.13855752
v 0.01211376 -0.03979519 0.14373946
v 0.00863753 0.02849840 0.14460739
v -0.03961144 -0.04278266 0.10339619
v -0.04297983 -0.03979519 0.10250622
v 0.00557900 -0.04580000 0.13687903
v 0.00777058 -0.03979519 0.14477322
v -0.04292512 0.02849840 0.10478187
v 0.00436958 -0.04391089 0.14022303
v -0.04275677 -0.03979519 0.10692344
v 0.00377881 0.02849840 0.14530419
v -0.00079795 0.03050000 0.14335667
v -0.03779047 -0.04349871 0.11035190
v -0.04243482 0.02849840 0.10935255
v -0.04207079 -0.03979519 0.11128774
v 0.00111692 -0.03979519 0.14546825
v -0.00232248 0.02849840 0.14540210
v -0.04094291 -0.03979519 0.11557088
v -0.04151316 0.02849840 0.11363217
v -0.03693115 0.03050000 0.11999163
v -0.00328517 -0.03979519 0.14535534
v -0.00796793 -0.04300812 0.14090814
v -0.00776513 -0.04580000 0.13638684
v -0.03138012 -0.04580000 0.11768071
v -0.03938576 -0.03979519 0.11970938
v -0.04010331 0.02849840 0.11796825
v -0.01055537 0.03050000 0.14204067
v -0.00715700 0.02849840 0.14487906
v -0.00765781 -0.03979519 0.14479437
v -0.03832942 0.02849840 0.12194974
v -0.03264452 -0.04315842 0.12393034
v -0.03740355 -0.03979519 0.12367852
v -0.01354762 -0.03979519 0.14326493
v -0.01364021 0.02849840 0.14325611
v -0.03603368 0.02849840 0.12592418
v -0.02126708 0.03050000 0.13735180
v -0.03501733 -0.03979519 0.12742187
v -0.03049108 0.03050000 0.12975572
v -0.01633997 -0.04332040 0.13773635
v -0.02096933 -0.04580000 0.13044371
v -0.03341178 0.02849840 0.12954052
v -0.01818329 -0.03979519 0.14144619
v -0.01979305 0.02849840 0.14065059
v -0.02695014 -0.04333627 0.13047591
v -0.03226496 -0.03979519 0.13089354
v -0.03052685 0.02849840 0.13275464
v -0.02396158 -0.03979519 0.13817914
v -0.02349233 0.02849840 0.13849667
v -0.02750935 -0.03979519 0.13552599
v -0.02709481 0.02849840 0.13585939
f 1 18 37
f 1 37 43
f 1 43 52
f 1 52 62
f 1 62 77
f 1 77 99
f 1 99 117
f 1 117 115
f 1 115 106
f 1 106 91
f 1 91 71
f 1 71 55
f 1 55 40
f 1 40 11
f 1 11 2
f 1 2 3
f 1 3 4
f 3 5 6
f 3 6 4
f 1 4 7
f 4 6 8
f 3 2 9
f 3 9 5
f 5 9 10
f 5 10 6
f 4 8 7
f 10 9 12
f 6 10 8
f 7 8 13
f 1 7 14
f 8 10 13
f 2 15 16
f 2 16 9
f 2 11 15
f 9 16 12
f 7 13 14
f 12 17 10
f 10 17 13
f 1 14 18
f 14 13 19
f 13 17 20
f 11 21 15
f 15 21 22
f 15 22 16
f 13 20 19
f 18 14 23
f 16 24 12
f 12 25 17
f 19 20 27
f 14 19 23
f 23 19 27
f 17 26 20
f 16 22 24
f 11 28 21
f 21 28 29
f 21 29 22
f 12 24 30
f 12 30 25
f 25 30 50
f 25 50 85
f 25 85 102
f 25 102 119
f 25 119 103
f 25 103 79
f 25 79 73
f 25 73 68
f 25 68 72
f 25 72 64
f 25 64 41
f 25 41 26
f 25 26 17
f 20 31 27
f 23 27 32
f 23 32 33
f 18 23 33
f 26 31 20
f 22 29 24
f 32 36 42
f 32 42 41
f 32 41 64
f 32 64 56
f 32 56 47
f 32 47 45
f 32 45 43
f 32 43 37
f 32 37 33
f 28 34 29
f 27 31 35
f 27 35 32
f 32 35 36
f 33 37 18
f 29 34 38
f 29 38 24
f 24 38 30
f 11 39 28
f 11 40 39
f 28 39 34
f 31 26 41
f 35 31 36
f 31 42 36
f 39 44 34
f 31 41 42
f 34 44 38
f 40 46 39
f 39 46 44
f 45 47 48
f 45 48 49
f 38 50 30
f 44 46 51
f 45 52 43
f 45 49 52
f 48 53 49
f 44 51 38
f 38 51 50
f 46 40 54
f 46 54 51
f 40 55 54
f 47 56 48
f 53 48 58
f 53 58 57
f 54 59 51
f 48 60 58
f 53 57 61
f 53 61 49
f 49 61 52
f 52 61 62
f 51 63 50
f 56 60 48
f 57 58 65
f 54 55 66
f 54 66 67
f 54 67 59
f 58 60 68
f 57 69 61
f 61 69 70
f 61 70 62
f 59 67 63
f 59 63 51
f 55 71 66
f 60 56 64
f 65 58 68
f 65 68 73
f 65 69 57
f 67 66 74
f 71 75 66
f 66 75 74
f 60 64 72
f 60 72 68
f 65 76 69
f 69 76 70
f 62 70 78
f 62 78 77
f 70 76 78
f 67 74 63
f 65 73 79
f 74 80 63
f 63 80 50
f 75 81 74
f 71 82 75
f 75 82 81
f 65 79 83
f 65 83 76
f 76 83 84
f 76 84 78
f 74 81 80
f 50 80 85
f 78 84 87
f 78 87 77
f 81 86 80
f 80 88 85
f 81 82 86
f 83 89 84
f 84 89 87
f 80 86 88
f 71 90 82
f 71 91 90
f 82 90 86
f 79 92 83
f 83 92 89
f 77 87 93
f 89 92 94
f 89 94 93
f 89 93 87
f 86 90 95
f 86 95 88
f 91 96 90
f 94 92 97
f 77 93 98
f 96 95 90
f 94 97 98
f 94 98 93
f 77 98 99
f 95 96 100
f 95 101 88
f 88 101 102
f 79 103 92
f 92 104 97
f 99 98 105
f 88 102 85
f 95 100 101
f 91 106 107
f 91 107 96
f 96 107 100
f 103 104 92
f 98 97 105
f 97 104 105
f 100 107 108
f 100 108 101
f 99 105 109
f 103 110 104
f 104 110 111
f 104 109 105
f 104 111 109
f 108 107 112
f 108 112 101
f 106 113 107
f 107 113 112
f 99 109 114
f 106 115 113
f 111 110 116
f 111 116 114
f 111 114 109
f 99 114 117
f 101 112 118
f 101 118 102
f 103 119 110
f 117 114 120
f 112 113 121
f 112 121 118
f 115 122 113
f 113 122 121
f 116 110 124
f 116 120 114
f 116 124 120
f 110 119 123
f 110 123 124
f 117 120 125
f 121 122 126
f 121 126 118
f 115 127 122
f 122 127 126
f 123 128 124
f 124 125 120
f 118 119 102
f 124 128 125
f 117 125 129
f 117 129 115
f 118 126 128
f 115 129 127
f 127 129 126
f 128 129 125
f 126 129 128
f 118 128 123
f 118 123 119

o geometry_1
v 0.03166226 -0.03120366 0.07341327
v 0.03166847 -0.03979915 0.07341327
v -0.03166711 -0.03120366 0.07341327
v -0.03166091 -0.03979915 0.07341327
v 0.03020535 -0.03979915 0.07189912
v -0.02942594 -0.04135723 0.07341327
v 0.02936839 -0.03120366 0.07110500
v -0.02998701 -0.03979915 0.07168163
v 0.02908321 -0.04159084 0.07341327
v 0.02752090 -0.04108291 0.07118424
v 0.02857484 -0.03979915 0.07037263
v -0.02993741 -0.03120366 0.07163361
v -0.02844330 -0.03120366 0.07025187
v -0.02835650 -0.03979915 0.07017916
v -0.02685929 -0.04085502 0.07030127
v -0.02614943 -0.04185945 0.07115199
v 0.02657235 -0.04300318 0.07341327
v 0.02482405 -0.04255097 0.07113004
v 0.02586870 -0.04108291 0.06980936
v 0.02686994 -0.03979915 0.06893189
v -0.02665160 -0.03979915 0.06875763
v -0.02696778 -0.04280672 0.07341327
v 0.02253019 -0.04387759 0.07166448
v 0.02232250 -0.04255097 0.06931883
v 0.02383831 -0.04159084 0.06896482
v 0.02509064 -0.03979915 0.06758240
v 0.02706213 -0.03120366 0.06908282
v -0.02592314 -0.03120366 0.06820603
v -0.02487850 -0.03979915 0.06743078
v -0.02340608 -0.04085502 0.06771000
v -0.02278612 -0.04185945 0.06862933
v -0.02380596 -0.04280672 0.07077191
v -0.02518228 -0.04369399 0.07341327
v 0.02274717 -0.04469127 0.07341327
v 0.02008443 -0.04387759 0.07001793
v 0.02237209 -0.04108291 0.06732238
v 0.02341674 -0.03979915 0.06643599
v 0.02527663 -0.03120366 0.06771344
v -0.02359517 -0.03120366 0.06656359
v -0.02303721 -0.03979915 0.06619586
v -0.02129511 -0.04280672 0.06901833
v -0.02233045 -0.04410690 0.07193994
v 0.01944276 -0.04580000 0.07341327
v 0.01896849 -0.04300318 0.06796557
v 0.02053080 -0.04108291 0.06621782
v 0.02133675 -0.03979915 0.06517019
v 0.02387861 -0.03120366 0.06674814
v 0.01282154 -0.03120366 0.05939559
v -0.02113391 -0.03979915 0.06505425
v -0.01282019 -0.03120366 0.05939559
v -0.01970490 -0.04085502 0.06548852
v -0.01918413 -0.04185945 0.06646617
v -0.01863856 -0.04280672 0.06748566
v -0.01980099 -0.04369399 0.06952053
v 0.01603141 -0.04580000 0.07142505
v 0.01705590 -0.04508276 0.07046044
v 0.01523165 -0.04469127 0.06884956
v 0.01624530 -0.04300318 0.06660476
v 0.01839502 -0.04159084 0.06569640
v 0.01936837 -0.03979915 0.06411228
v 0.01735038 -0.03979915 0.06315865
v 0.01528590 -0.03979915 0.06231067
v 0.01320592 -0.03979915 0.06157864
v 0.01105464 -0.03979915 0.06094609
v 0.00887237 -0.03979915 0.06042743
v 0.00667769 -0.03979915 0.06002265
v 0.00445822 -0.03979915 0.05973313
v 0.00223255 -0.03979915 0.05955887
v 0.00000068 -0.03979915 0.05950124
v -0.01918723 -0.03979915 0.06401967
v -0.00221260 -0.03979915 0.05955750
v -0.00436388 -0.03979915 0.05972353
v -0.00655855 -0.03979915 0.06000481
v -0.00874082 -0.03979915 0.06039861
v -0.01089830 -0.03979915 0.06090493
v -0.01302478 -0.03979915 0.06152239
v -0.01512026 -0.03979915 0.06224824
v -0.01717234 -0.03979915 0.06308112
v -0.01883230 -0.04490130 0.07113279
v -0.01609670 -0.04325036 0.06690010
v -0.01577742 -0.04451982 0.06878302
v -0.01944141 -0.04580000 0.07341327
v 0.01669012 -0.04108291 0.06429958
v 0.01470623 -0.04108291 0.06349070
v 0.01267585 -0.04108291 0.06278543
v 0.00641421 -0.04108291 0.06130765
v 0.00256074 -0.03349639 0.05939559
v -0.00212890 -0.04135723 0.06116495
v -0.00751639 -0.04085502 0.06124865
v -0.01377184 -0.04085502 0.06289657
v -0.01537445 -0.04185945 0.06468514
v 0.01105929 -0.04580000 0.06932741
v 0.01191949 -0.04508276 0.06821701
v 0.01234107 -0.04429979 0.06701297
v 0.01274715 -0.04345538 0.06585077
v 0.01313772 -0.04255097 0.06472836
v 0.00944583 -0.04159084 0.06246847
v 0.00317179 -0.04159084 0.06149152
v 0.00000068 -0.04220200 0.06208359
v -0.00523803 -0.04185945 0.06201567
v -0.00835025 -0.04185945 0.06252816
v -0.01140667 -0.04185945 0.06330478
v -0.01302788 -0.04280672 0.06503572
v -0.01263420 -0.04369399 0.06616773
v -0.01644078 -0.04580000 0.07161577
v -0.01201734 -0.04490130 0.06794327
v 0.00918235 -0.04255097 0.06357852
v 0.00513088 -0.04255097 0.06284032
v 0.00252548 -0.04300318 0.06318060
v -0.00305885 -0.04280672 0.06295146
v -0.00711032 -0.04280672 0.06347562
v -0.00946773 -0.04325036 0.06459492
v -0.01317667 -0.04580000 0.07008928
v 0.00893436 -0.04469127 0.06666033
v 0.00890957 -0.04345538 0.06473386
v 0.00539592 -0.04387759 0.06469303
v -0.00098817 -0.04363434 0.06396203
v -0.00493734 -0.04369399 0.06435172
v -0.00854554 -0.04451982 0.06626859
v -0.00846339 -0.04580000 0.06857204
v 0.00626852 -0.04580000 0.06807774
v 0.00650410 -0.04508276 0.06678999
v 0.00236429 -0.04469127 0.06563912
v -0.00095717 -0.04446482 0.06520004
v -0.00477615 -0.04451982 0.06558252
v -0.00089827 -0.04580000 0.06752271
v -0.00277057 -0.04528279 0.06665895
v -0.00448787 -0.04580000 0.06780057
v 0.00269752 -0.04580000 0.06761533
f 130 136 156
f 130 156 167
f 130 167 176
f 130 176 177
f 130 177 179
f 130 179 168
f 130 168 157
f 130 157 142
f 130 142 141
f 130 141 132
f 130 132 133
f 130 133 135
f 130 135 151
f 130 151 162
f 130 162 211
f 130 211 172
f 130 172 163
f 130 163 146
f 130 146 138
f 130 138 131
f 131 134 130
f 134 136 130
f 133 132 137
f 133 137 135
f 131 138 134
f 134 138 139
f 134 139 140
f 134 140 136
f 132 141 137
f 137 141 142
f 137 142 143
f 137 143 144
f 137 144 135
f 135 144 145
f 138 146 139
f 139 146 147
f 139 147 148
f 139 148 149
f 139 149 140
f 143 142 150
f 143 150 144
f 145 151 135
f 147 152 153
f 147 153 154
f 147 154 148
f 147 146 152
f 148 154 155
f 148 155 149
f 149 156 140
f 140 156 136
f 142 157 150
f 150 157 158
f 150 158 159
f 150 159 144
f 144 159 145
f 145 159 160
f 145 160 161
f 145 161 151
f 151 161 162
f 146 163 152
f 152 164 153
f 154 153 165
f 154 165 155
f 155 165 166
f 155 167 149
f 149 167 156
f 158 157 168
f 158 168 169
f 158 169 159
f 160 170 161
f 161 170 171
f 161 171 162
f 152 163 172
f 152 172 164
f 164 173 153
f 153 173 174
f 153 174 165
f 165 174 175
f 165 175 166
f 155 176 167
f 155 166 176
f 166 177 176
f 169 178 159
f 169 168 179
f 169 179 178
f 159 178 180
f 159 180 181
f 159 181 160
f 160 181 170
f 170 181 182
f 170 182 183
f 170 183 171
f 172 184 185
f 172 185 164
f 164 185 186
f 164 186 173
f 173 187 188
f 173 188 174
f 174 188 189
f 174 189 175
f 175 177 166
f 177 175 189
f 177 189 190
f 177 190 191
f 177 191 192
f 177 192 193
f 177 193 194
f 177 194 195
f 177 195 196
f 177 196 197
f 177 197 198
f 177 216 179
f 178 199 180
f 178 179 199
f 179 198 200
f 179 200 201
f 179 201 202
f 179 202 203
f 179 203 204
f 179 204 205
f 179 205 206
f 179 206 207
f 179 207 199
f 183 182 209
f 183 209 210
f 183 210 208
f 183 208 171
f 171 211 162
f 171 208 211
f 172 211 234
f 172 234 242
f 172 242 249
f 172 249 257
f 172 257 255
f 172 255 258
f 172 258 250
f 172 250 221
f 172 221 184
f 186 187 173
f 188 187 212
f 188 212 189
f 189 212 190
f 190 212 191
f 191 212 213
f 191 213 192
f 192 214 193
f 192 213 214
f 195 215 196
f 195 194 215
f 198 216 177
f 198 179 216
f 199 207 180
f 180 207 181
f 200 198 217
f 200 217 201
f 202 218 203
f 202 201 218
f 203 218 204
f 205 204 219
f 205 219 206
f 206 219 207
f 181 207 220
f 181 220 209
f 181 209 182
f 184 186 185
f 186 184 221
f 186 221 222
f 186 222 223
f 186 223 187
f 187 223 224
f 187 224 225
f 187 225 212
f 212 225 213
f 214 226 193
f 193 226 194
f 194 226 215
f 215 227 196
f 196 227 197
f 197 227 198
f 207 219 220
f 217 198 228
f 201 217 229
f 201 229 218
f 218 229 230
f 218 230 204
f 204 230 231
f 204 231 219
f 219 231 220
f 209 220 232
f 209 232 233
f 208 210 234
f 208 234 211
f 209 233 210
f 210 233 235
f 213 225 214
f 214 225 226
f 226 225 236
f 226 236 237
f 226 237 215
f 215 237 227
f 227 237 238
f 227 238 228
f 227 228 198
f 220 231 232
f 217 228 239
f 217 239 229
f 229 239 240
f 229 240 230
f 230 240 241
f 230 241 231
f 231 241 232
f 234 210 242
f 235 242 210
f 221 243 222
f 222 243 223
f 223 243 244
f 223 244 224
f 224 244 236
f 224 236 225
f 236 244 245
f 236 245 237
f 237 245 238
f 232 241 233
f 239 246 247
f 239 228 246
f 239 247 240
f 240 247 241
f 233 241 248
f 233 248 235
f 235 248 249
f 235 249 242
f 221 250 243
f 243 250 251
f 244 243 245
f 238 245 252
f 238 252 246
f 238 246 228
f 246 253 247
f 247 253 254
f 247 254 248
f 247 248 241
f 243 251 245
f 245 251 252
f 252 253 246
f 253 255 256
f 253 256 254
f 254 256 257
f 254 257 248
f 248 257 249
f 250 258 251
f 251 258 252
f 252 258 255
f 252 255 253
f 256 255 257

o geometry_2
v -0.03298062 0.00100144 0.00696953
v -0.03300000 0.00100144 0.01000270
v -0.03298062 0.00103321 0.00696953
v 0.03298061 0.00100144 0.00696953
v -0.03300000 0.00100144 0.01654120
v -0.03300000 0.01849843 0.01000270
v -0.03298062 0.01912797 0.01000270
v -0.03288371 0.00275143 0.00696953
v 0.03298061 0.00103321 0.00696953
v 0.03300000 0.00100144 0.01000270
v -0.03300000 0.01785735 0.05939559
v -0.03299354 0.00100144 0.05939559
v -0.03300000 0.01849843 0.05939559
v -0.03298062 0.01915396 0.05939559
v -0.03296123 0.01940230 0.05939559
v -0.03292893 0.01975172 0.01000270
v -0.03269636 0.00446388 0.00696953
v 0.03298061 0.01912797 0.01000270
v 0.03300000 0.01849843 0.01000270
v 0.03288371 0.00275143 0.00696953
v 0.03300000 0.00100144 0.05939559
v -0.03292893 0.01978927 0.05939559
v -0.03285141 0.02037548 0.01000270
v -0.03241856 0.00616188 0.00696953
v 0.03296770 0.01936765 0.05939559
v 0.03298061 0.01912508 0.05939559
v 0.03300000 0.01849843 0.05939559
v 0.03292893 0.01975172 0.01000270
v 0.03269636 0.00446388 0.00696953
v -0.03285787 0.02030329 0.05939559
v -0.03273512 0.02099347 0.05939559
v -0.03273512 0.02099347 0.01000270
v -0.03223766 0.00699356 0.00696953
v 0.03292893 0.01974884 0.05939559
v 0.03285141 0.02037548 0.01000270
v 0.03241856 0.00616188 0.00696953
v -0.03258007 0.02164321 0.05939559
v -0.03258653 0.02160567 0.01000270
v -0.03205031 0.00784545 0.00696953
v 0.03286433 0.02025709 0.05939559
v 0.03285141 0.02034660 0.05939559
v 0.03285787 0.02030329 0.05939559
v 0.03273512 0.02099347 0.01000270
v 0.03273512 0.02099347 0.05939559
v 0.03205031 0.00784545 0.00696953
v -0.03237334 0.02232184 0.05939559
v -0.03241210 0.02220633 0.01000270
v -0.03159808 0.00950592 0.00696953
v -0.03183066 0.00866558 0.00696953
v 0.03258653 0.02160567 0.01000270
v 0.03257361 0.02165765 0.05939559
v 0.03182420 0.00868579 0.00696953
v -0.03217952 0.02285319 0.05939559
v -0.03219890 0.02279832 0.01000270
v -0.03106186 0.01114040 0.00696953
v 0.03159808 0.00950592 0.00696953
v 0.03241209 0.02220633 0.01000270
v 0.03238625 0.02227563 0.05939559
v -0.03215368 0.02291961 0.05939559
v -0.03195987 0.02337876 0.01000270
v -0.03043520 0.01274600 0.00696953
v 0.03106186 0.01114040 0.00696953
v 0.03219890 0.02279832 0.01000270
v 0.03217306 0.02286474 0.05939559
v -0.03194048 0.02341342 0.05939559
v -0.03190818 0.02348561 0.05939559
v -0.03168853 0.02395054 0.05939559
v -0.03168853 0.02394765 0.01000270
v -0.02973101 0.01431406 0.00696953
v 0.03074530 0.01195186 0.00696953
v 0.03195987 0.02337876 0.01000270
v 0.03214721 0.02293405 0.05939559
v 0.03043520 0.01274600 0.00696953
v -0.03141072 0.02446456 0.05939559
v -0.03139135 0.02449922 0.01000270
v -0.02894283 0.01584169 0.00696953
v -0.02934338 0.01507065 0.00696953
v 0.03168852 0.02394765 0.01000270
v 0.03168852 0.02395343 0.05939559
v 0.03194048 0.02342497 0.05939559
v 0.03007987 0.01354013 0.00696953
v 0.02973101 0.01431406 0.00696953
v -0.03117815 0.02485152 0.05939559
v -0.03106186 0.02503345 0.01000270
v -0.02807713 0.01733177 0.00696953
v -0.02851644 0.01657807 0.00696953
v 0.03139134 0.02449922 0.01000270
v 0.02933046 0.01509087 0.00696953
v 0.02894283 0.01584169 0.00696953
v 0.03141073 0.02445879 0.05939559
v -0.03101664 0.02510276 0.05939559
v -0.03096496 0.02518073 0.05939559
v -0.03070654 0.02555325 0.01000270
v -0.02713391 0.01877277 0.00696953
v 0.03106186 0.02503345 0.01000270
v 0.03117815 0.02485152 0.05939559
v 0.02807713 0.01733177 0.00696953
v -0.03070654 0.02555036 0.05939559
v -0.03049980 0.02582759 0.05939559
v -0.03032537 0.02604995 0.01000270
v -0.02611961 0.02016179 0.00696953
v -0.02663645 0.01945717 0.00696953
v 0.03070653 0.02555325 0.01000270
v 0.03095203 0.02519517 0.05939559
v 0.03100372 0.02511720 0.05939559
v 0.02713390 0.01877277 0.00696953
v -0.03027369 0.02611348 0.05939559
v -0.03020908 0.02618856 0.05939559
v -0.02993774 0.02650333 0.05939559
v -0.02991190 0.02652932 0.01000270
v -0.02503426 0.02149594 0.00696953
v 0.03044812 0.02589112 0.05939559
v 0.03070653 0.02555325 0.05939559
v 0.02662353 0.01947450 0.00696953
v 0.02611961 0.02016179 0.00696953
v 0.03032537 0.02604995 0.01000270
v -0.02975039 0.02670547 0.05939559
v -0.02967933 0.02678055 0.05939559
v -0.02947905 0.02698270 0.01000270
v -0.02387784 0.02277233 0.00696953
v -0.02446574 0.02212836 0.00696953
v 0.03022846 0.02616546 0.05939559
v 0.02557047 0.02083752 0.00696953
v 0.02991190 0.02652932 0.01000270
v 0.02993774 0.02650333 0.05939559
v 0.02503426 0.02149594 0.00696953
v -0.02947905 0.02698847 0.05939559
v -0.02918833 0.02726859 0.05939559
v -0.02902682 0.02741586 0.01000270
v -0.02265681 0.02398808 0.00696953
v -0.02327701 0.02337299 0.00696953
v 0.02947905 0.02698270 0.01000270
v 0.02967932 0.02678055 0.05939559
v 0.02975039 0.02670547 0.05939559
v 0.02387784 0.02277233 0.00696953
v -0.02892345 0.02750538 0.05939559
v -0.02861335 0.02777106 0.05939559
v -0.02854874 0.02782304 0.01000270
v -0.02137764 0.02513742 0.00696953
v 0.02902682 0.02741586 0.01000270
v 0.02918833 0.02726859 0.05939559
v 0.02947905 0.02698847 0.05939559
v 0.02326409 0.02338743 0.00696953
v 0.02265681 0.02398808 0.00696953
v -0.02837431 0.02796165 0.05939559
v -0.02805129 0.02820711 0.01000270
v -0.02003387 0.02621744 0.00696953
v 0.02854875 0.02782304 0.01000270
v 0.02891699 0.02751405 0.05939559
v 0.02899451 0.02744474 0.05939559
v 0.02137764 0.02513742 0.00696953
v -0.02810297 0.02816957 0.05939559
v -0.02783809 0.02835727 0.05939559
v -0.02753445 0.02856231 0.01000270
v -0.01864487 0.02722527 0.00696953
v -0.01934906 0.02671702 0.00696953
v 0.02805129 0.02820711 0.01000270
v 0.02837431 0.02796165 0.05939559
v 0.02845830 0.02789523 0.05939559
v 0.02861335 0.02777106 0.05939559
v 0.02069930 0.02568320 0.00696953
v 0.02003386 0.02621744 0.00696953
v -0.02749569 0.02858541 0.05939559
v -0.02710160 0.02882798 0.05939559
v -0.02699823 0.02889151 0.01000270
v -0.01719773 0.02816091 0.00696953
v 0.02753446 0.02856231 0.01000270
v 0.02756676 0.02853921 0.05939559
v 0.02803191 0.02821866 0.05939559
v 0.01932968 0.02672858 0.00696953
v 0.01864487 0.02722527 0.00696953
v -0.02701116 0.02888285 0.05939559
v -0.02675920 0.02902435 0.05939559
v -0.02644264 0.02919184 0.01000270
v -0.01570536 0.02902146 0.00696953
v 0.02736002 0.02867204 0.05939559
v 0.01719773 0.02816091 0.00696953
v 0.02699824 0.02889151 0.01000270
v -0.02642325 0.02920339 0.05939559
v -0.02588058 0.02946040 0.01000270
v -0.01416778 0.02980116 0.00696953
v 0.02700470 0.02888574 0.05939559
v 0.01644185 0.02859696 0.00696953
v 0.01570536 0.02902146 0.00696953
v 0.02644264 0.02919184 0.01000270
v 0.02675920 0.02902435 0.05939559
v -0.02597102 0.02941709 0.05939559
v -0.02587412 0.02946040 0.05939559
v -0.02540896 0.02965677 0.05939559
v -0.02531206 0.02969720 0.05939559
v -0.02529914 0.02970009 0.01000270
v -0.01259788 0.03050000 0.00696953
v 0.01416778 0.02980116 0.00696953
v 0.02588058 0.02946040 0.01000270
v 0.02602271 0.02939687 0.05939559
v 0.02642325 0.02920339 0.05939559
v -0.02499549 0.02981271 0.05939559
v -0.02489859 0.02984737 0.05939559
v -0.02470478 0.02991090 0.01000270
v -0.02410395 0.03008994 0.01000270
v -0.02349021 0.03023721 0.01000270
v -0.02287647 0.03034984 0.01000270
v -0.02224980 0.03043358 0.01000270
v -0.02162314 0.03048267 0.01000270
v -0.02099647 0.03050000 0.01000270
v 0.01259788 0.03050000 0.00696953
v 0.02529914 0.02970009 0.01000270
v 0.02530560 0.02969720 0.05939559
v 0.02580951 0.02948928 0.05939559
v -0.02462079 0.02993688 0.05939559
v -0.02452388 0.02996576 0.05939559
v -0.02410395 0.03008994 0.05939559
v -0.02366464 0.03019679 0.05939559
v -0.02356774 0.03021988 0.05939559
v -0.02322533 0.03028920 0.05939559
v -0.02312842 0.03030652 0.05939559
v -0.02277956 0.03036428 0.05939559
v -0.02268265 0.03037871 0.05939559
v -0.02219812 0.03043936 0.05939559
v -0.02164898 0.03048845 0.05939559
v -0.02099647 0.03050000 0.05939559
v 0.02099648 0.03050000 0.01000270
v 0.02162314 0.03048267 0.01000270
v 0.02224980 0.03043358 0.01000270
v 0.02287646 0.03034984 0.01000270
v 0.02349021 0.03023721 0.01000270
v 0.02410395 0.03008994 0.01000270
v 0.02470477 0.02991090 0.01000270
v 0.02481460 0.02987624 0.05939559
v 0.02491151 0.02984159 0.05939559
v 0.02099648 0.03050000 0.05939559
v 0.02165544 0.03048845 0.05939559
v 0.02219812 0.03043936 0.05939559
v 0.02268265 0.03037871 0.05939559
v 0.02277956 0.03036428 0.05939559
v 0.02312843 0.03030652 0.05939559
v 0.02322533 0.03028920 0.05939559
v 0.02356773 0.03021988 0.05939559
v 0.02410395 0.03008994 0.05939559
v 0.02445928 0.02998598 0.05939559
v 0.02455618 0.02995710 0.05939559
f 259 260 264
f 259 264 261
f 259 261 266
f 259 266 275
f 259 275 282
f 259 282 291
f 259 291 297
f 259 297 307
f 259 307 306
f 259 306 313
f 259 313 319
f 259 319 327
f 259 327 335
f 259 335 334
f 259 334 344
f 259 344 343
f 259 343 352
f 259 352 360
f 259 360 359
f 259 359 369
f 259 369 379
f 259 379 378
f 259 378 389
f 259 389 388
f 259 388 397
f 259 397 405
f 259 405 414
f 259 414 413
f 259 413 424
f 259 424 433
f 259 433 439
f 259 439 450
f 259 450 464
f 259 464 451
f 259 451 442
f 259 442 441
f 259 441 435
f 259 435 429
f 259 429 428
f 259 428 420
f 259 420 419
f 259 419 409
f 259 409 402
f 259 402 401
f 259 401 393
f 259 393 384
f 259 384 381
f 259 381 373
f 259 373 372
f 259 372 364
f 259 364 355
f 259 355 347
f 259 347 346
f 259 346 340
f 259 340 339
f 259 339 331
f 259 331 328
f 259 328 320
f 259 320 314
f 259 314 310
f 259 310 303
f 259 303 294
f 259 294 287
f 259 287 278
f 259 278 267
f 259 267 262
f 259 262 268
f 259 268 279
f 259 279 270
f 259 270 263
f 259 263 260
f 260 263 269
f 260 269 271
f 260 271 264
f 261 265 266
f 261 264 265
f 262 267 277
f 262 277 268
f 263 270 269
f 264 271 272
f 264 272 265
f 265 272 273
f 265 273 274
f 265 274 266
f 266 274 275
f 267 276 277
f 267 278 276
f 268 277 285
f 268 285 279
f 269 270 279
f 269 279 285
f 269 285 284
f 269 284 283
f 269 283 292
f 269 292 298
f 269 298 300
f 269 300 299
f 269 299 302
f 269 302 309
f 269 309 316
f 269 316 322
f 269 322 330
f 269 330 338
f 269 338 337
f 269 337 348
f 269 348 354
f 269 354 363
f 269 363 362
f 269 362 371
f 269 371 370
f 269 370 380
f 269 380 383
f 269 383 392
f 269 392 391
f 269 391 400
f 269 400 399
f 269 399 408
f 269 408 407
f 269 407 418
f 269 418 417
f 269 417 416
f 269 416 427
f 269 427 426
f 269 426 434
f 269 434 440
f 269 440 444
f 269 444 454
f 269 454 453
f 269 453 467
f 269 467 466
f 269 466 488
f 269 488 487
f 269 487 499
f 269 499 498
f 269 498 497
f 269 497 496
f 269 496 495
f 269 495 494
f 269 494 493
f 269 493 492
f 269 492 491
f 269 491 490
f 269 490 489
f 269 489 479
f 269 479 478
f 269 478 477
f 269 477 476
f 269 476 475
f 269 475 474
f 269 474 473
f 269 473 472
f 269 472 471
f 269 471 470
f 269 470 469
f 269 469 468
f 269 468 456
f 269 456 455
f 269 455 448
f 269 448 447
f 269 447 446
f 269 446 445
f 269 445 437
f 269 437 431
f 269 431 430
f 269 430 422
f 269 422 421
f 269 421 411
f 269 411 410
f 269 410 403
f 269 403 395
f 269 395 394
f 269 394 386
f 269 386 385
f 269 385 376
f 269 376 375
f 269 375 367
f 269 367 366
f 269 366 365
f 269 365 357
f 269 357 356
f 269 356 350
f 269 350 349
f 269 349 341
f 269 341 332
f 269 332 325
f 269 325 324
f 269 324 323
f 269 323 317
f 269 317 311
f 269 311 304
f 269 304 295
f 269 295 289
f 269 289 288
f 269 288 280
f 269 280 273
f 269 273 272
f 269 272 271
f 273 280 274
f 274 280 281
f 274 281 275
f 275 281 282
f 276 283 284
f 276 284 285
f 276 285 277
f 276 278 286
f 276 286 283
f 278 287 286
f 280 288 281
f 281 288 289
f 281 289 290
f 281 290 282
f 282 290 291
f 283 286 292
f 286 287 293
f 286 293 292
f 287 294 293
f 289 295 290
f 290 295 296
f 290 296 297
f 290 297 291
f 292 293 298
f 293 299 300
f 293 300 298
f 293 294 301
f 293 301 302
f 293 302 299
f 294 303 301
f 295 304 305
f 295 305 296
f 296 305 306
f 296 306 307
f 296 307 297
f 301 308 302
f 301 303 308
f 302 308 309
f 303 310 308
f 304 311 312
f 304 312 305
f 305 312 313
f 305 313 306
f 308 310 314
f 308 314 315
f 308 315 309
f 309 315 316
f 311 317 312
f 312 317 318
f 312 318 319
f 312 319 313
f 314 320 315
f 315 320 321
f 315 321 316
f 316 321 322
f 317 323 318
f 318 323 324
f 318 324 325
f 318 325 326
f 318 326 327
f 318 327 319
f 320 328 321
f 321 329 330
f 321 330 322
f 321 328 331
f 321 331 329
f 325 332 333
f 325 333 326
f 326 333 334
f 326 334 335
f 326 335 327
f 329 336 337
f 329 337 338
f 329 338 330
f 329 331 339
f 329 339 340
f 329 340 336
f 332 341 333
f 333 341 342
f 333 342 343
f 333 343 344
f 333 344 334
f 336 345 337
f 336 340 346
f 336 346 347
f 336 347 345
f 337 345 348
f 341 349 342
f 342 349 350
f 342 350 351
f 342 351 352
f 342 352 343
f 345 353 354
f 345 354 348
f 345 347 355
f 345 355 353
f 350 356 351
f 351 356 357
f 351 357 358
f 351 358 359
f 351 359 360
f 351 360 352
f 353 361 362
f 353 362 363
f 353 363 354
f 353 355 364
f 353 364 361
f 357 365 358
f 358 365 366
f 358 366 367
f 358 367 368
f 358 368 369
f 358 369 359
f 361 370 371
f 361 371 362
f 361 364 372
f 361 372 373
f 361 373 374
f 361 374 370
f 367 375 368
f 368 375 376
f 368 376 377
f 368 377 378
f 368 378 379
f 368 379 369
f 370 374 380
f 373 381 374
f 374 382 383
f 374 383 380
f 374 381 384
f 374 384 382
f 376 385 377
f 377 385 386
f 377 386 387
f 377 387 388
f 377 388 389
f 377 389 378
f 382 390 391
f 382 391 392
f 382 392 383
f 382 384 393
f 382 393 390
f 386 394 387
f 387 394 395
f 387 395 396
f 387 396 397
f 387 397 388
f 390 398 399
f 390 399 400
f 390 400 391
f 390 393 401
f 390 401 402
f 390 402 398
f 395 403 396
f 396 403 404
f 396 404 405
f 396 405 397
f 398 406 407
f 398 407 408
f 398 408 399
f 398 402 409
f 398 409 406
f 403 410 404
f 404 410 411
f 404 411 412
f 404 412 413
f 404 413 414
f 404 414 405
f 406 415 416
f 406 416 417
f 406 417 418
f 406 418 407
f 406 409 419
f 406 419 420
f 406 420 415
f 411 421 412
f 412 421 422
f 412 422 423
f 412 423 424
f 412 424 413
f 415 425 426
f 415 426 427
f 415 427 416
f 415 420 428
f 415 428 429
f 415 429 425
f 422 430 423
f 423 430 431
f 423 431 432
f 423 432 433
f 423 433 424
f 425 434 426
f 425 429 435
f 425 435 436
f 425 436 434
f 431 437 432
f 432 437 438
f 432 438 439
f 432 439 433
f 434 436 440
f 435 441 436
f 436 441 442
f 436 442 443
f 436 443 444
f 436 444 440
f 437 445 438
f 438 445 446
f 438 446 447
f 438 447 448
f 438 448 449
f 438 449 450
f 438 450 439
f 442 451 443
f 443 452 453
f 443 453 454
f 443 454 444
f 443 451 452
f 448 455 449
f 449 455 456
f 449 456 457
f 449 457 450
f 450 457 458
f 450 458 459
f 450 459 460
f 450 460 461
f 450 461 462
f 450 462 463
f 450 463 479
f 450 479 489
f 450 489 480
f 450 480 464
f 451 464 452
f 452 465 466
f 452 466 467
f 452 467 453
f 452 464 465
f 456 468 457
f 457 468 469
f 457 469 458
f 458 469 470
f 458 470 471
f 458 471 459
f 459 471 472
f 459 472 473
f 459 473 460
f 460 473 474
f 460 474 475
f 460 475 476
f 460 476 461
f 461 476 477
f 461 477 478
f 461 478 462
f 462 478 463
f 463 478 479
f 464 480 481
f 464 481 482
f 464 482 483
f 464 483 484
f 464 484 485
f 464 485 486
f 464 486 465
f 465 486 487
f 465 487 488
f 465 488 466
f 480 489 490
f 480 490 481
f 481 490 482
f 482 490 491
f 482 491 492
f 482 492 483
f 483 492 493
f 483 493 494
f 483 494 495
f 483 495 484
f 484 495 496
f 484 496 485
f 485 496 497
f 485 497 498
f 485 498 499
f 485 499 486
f 486 499 487

o geometry_3
v 0.00000853 -0.03379995 0.01437025
v 0.00065447 -0.03379313 0.05939559
v 0.00000853 -0.03379995 0.05939559
v 0.00000853 -0.03379654 0.01400073
v 0.00172996 -0.03375226 0.01400073
v 0.00184623 -0.03374545 0.05939559
v 0.00000853 0.00099856 0.05939559
v 0.00000853 -0.03099999 0.00696953
v 0.01131574 -0.03099999 0.00696953
v 0.00345139 -0.03361601 0.01400073
v 0.00225640 -0.03372160 0.05939559
v 0.00000853 0.00099856 0.00700033
v 0.03300000 0.00099856 0.05939559
v 0.00000853 -0.02999854 0.00696953
v 0.01291767 -0.03036642 0.00696953
v 0.01182926 -0.03160631 0.01400073
v 0.01019826 -0.03218197 0.01400073
v 0.00854142 -0.03267247 0.01400073
v 0.00686197 -0.03307782 0.01400073
v 0.00516314 -0.03339119 0.01400073
v 0.00453012 -0.03348657 0.05939559
v 0.00337065 -0.03362622 0.05939559
v 0.02997376 0.00099856 0.00696953
v 0.03300000 -0.00059899 0.05939559
v 0.03300000 0.00099856 0.01000270
v 0.01448408 -0.02965111 0.00696953
v 0.01342473 -0.03094549 0.01400073
v 0.01267867 -0.03126568 0.05939559
v 0.01261085 -0.03129293 0.05939559
v 0.01182926 -0.03160631 0.05939559
v 0.01116071 -0.03185496 0.05939559
v 0.01020149 -0.03218197 0.05939559
v 0.00992696 -0.03227053 0.05939559
v 0.00897097 -0.03255666 0.05939559
v 0.00856079 -0.03266906 0.05939559
v 0.00723661 -0.03299607 0.05939559
v 0.00679091 -0.03309144 0.05939559
v 0.00592535 -0.03326176 0.05939559
v 0.00590597 -0.03326516 0.05939559
v 0.00516314 -0.03339119 0.05939559
v 0.03298385 0.00099856 0.00696953
v 0.03298385 -0.00156637 0.05939559
v 0.03299677 -0.00075568 0.01400073
v 0.03300000 -0.00000289 0.01000270
v 0.03299354 -0.00035033 0.00696953
v 0.01600850 -0.02885744 0.00696953
v 0.01498468 -0.03020292 0.01400073
v 0.01396733 -0.03069683 0.05939559
v 0.01336014 -0.03097274 0.05939559
v 0.03297093 -0.00200919 0.05939559
v 0.03293864 -0.00248947 0.01400073
v 0.03299354 -0.00071139 0.00696953
v 0.01748771 -0.02798203 0.00696953
v 0.01650265 -0.02937860 0.01400073
v 0.01536256 -0.03000536 0.05939559
v 0.01498468 -0.03019951 0.05939559
v 0.01404484 -0.03065936 0.05939559
v 0.03294832 -0.00252013 0.05939559
v 0.03293217 -0.00279263 0.05939559
v 0.03287081 -0.00359310 0.05939559
v 0.03279007 -0.00420283 0.01400073
v 0.03291926 -0.00243497 0.00696953
v 0.03297416 -0.00122574 0.00696953
v 0.01849861 -0.02731440 0.00696953
v 0.01797217 -0.02847594 0.01400073
v 0.01752969 -0.02875525 0.05939559
v 0.01658662 -0.02932751 0.05939559
v 0.01545622 -0.02995426 0.05939559
v 0.03283206 -0.00402570 0.05939559
v 0.03280944 -0.00424029 0.05939559
v 0.03273839 -0.00483980 0.05939559
v 0.03268026 -0.00526899 0.05939559
v 0.03255430 -0.00591959 0.01400073
v 0.03275454 -0.00414833 0.00696953
v 0.03287404 -0.00294250 0.00696953
v 0.01892493 -0.02703168 0.00696953
v 0.01939647 -0.02749493 0.01400073
v 0.01919945 -0.02763118 0.05939559
v 0.01796248 -0.02847935 0.05939559
v 0.03257045 -0.00602518 0.05939559
v 0.03240573 -0.00694147 0.05939559
v 0.03222810 -0.00761251 0.01400073
v 0.03250263 -0.00585487 0.00696953
v 0.03268349 -0.00465586 0.00696953
v 0.01989707 -0.02631295 0.00696953
v 0.02076586 -0.02644580 0.01400073
v 0.02047519 -0.02667743 0.05939559
v 0.01950951 -0.02741318 0.05939559
v 0.01933187 -0.02753921 0.05939559
v 0.02030724 -0.02600639 0.00696953
v 0.03232499 -0.00736044 0.05939559
v 0.03226686 -0.00764998 0.05939559
v 0.03213121 -0.00823926 0.05939559
v 0.03192450 -0.00908742 0.05939559
v 0.03181469 -0.00928839 0.01400073
v 0.03216027 -0.00754098 0.00696953
v 0.03240573 -0.00635559 0.00696953
v 0.02208035 -0.02532173 0.01400073
v 0.02161205 -0.02573389 0.05939559
v 0.02146025 -0.02586333 0.05939559
v 0.02076586 -0.02644239 0.05939559
v 0.02163788 -0.02491298 0.00696953
v 0.03179532 -0.00957112 0.05939559
v 0.03138192 -0.01099834 0.01400073
v 0.03203755 -0.00803829 0.00696953
v 0.02333348 -0.02413294 0.01400073
v 0.02267462 -0.02477332 0.05939559
v 0.02208035 -0.02532173 0.05939559
v 0.02290716 -0.02375144 0.00696953
v 0.03139484 -0.01096769 0.05939559
v 0.03105249 -0.01195551 0.05939559
v 0.03080703 -0.01262654 0.01400073
v 0.03117521 -0.01081781 0.00696953
v 0.03173072 -0.00921005 0.00696953
v 0.02452201 -0.02287943 0.01400073
v 0.02395682 -0.02348915 0.05939559
v 0.02337870 -0.02408525 0.05939559
v 0.02283288 -0.02462004 0.05939559
v 0.02411507 -0.02252518 0.00696953
v 0.03092007 -0.01232339 0.05939559
v 0.03080703 -0.01262995 0.05939559
v 0.03052604 -0.01332483 0.05939559
v 0.03038394 -0.01367568 0.05939559
v 0.03014494 -0.01422409 0.01400073
v 0.03056803 -0.01242898 0.00696953
v 0.02564272 -0.02156461 0.01400073
v 0.02533590 -0.02194270 0.05939559
v 0.02480623 -0.02255924 0.05939559
v 0.02452201 -0.02287943 0.05939559
v 0.02491927 -0.02161911 0.00696953
v 0.02525516 -0.02123420 0.00696953
v 0.03014494 -0.01422409 0.05939559
v 0.02991886 -0.01471800 0.05939559
v 0.02940210 -0.01578416 0.01400073
v 0.02988010 -0.01400608 0.00696953
v 0.03036456 -0.01289564 0.00696953
v 0.02669561 -0.02019528 0.01400073
v 0.02589464 -0.02125123 0.05939559
v 0.02564272 -0.02156461 0.05939559
v 0.02633065 -0.01988872 0.00696953
v 0.02976060 -0.01504840 0.05939559
v 0.02940210 -0.01578416 0.05939559
v 0.02923416 -0.01610776 0.05939559
v 0.02857853 -0.01729995 0.01400073
v 0.02910820 -0.01554572 0.00696953
v 0.02767421 -0.01877146 0.01400073
v 0.02717038 -0.01952084 0.05939559
v 0.02681834 -0.02002838 0.05939559
v 0.02669561 -0.02019528 0.05939559
v 0.02606582 -0.02102642 0.05939559
v 0.02703473 -0.01890431 0.00696953
v 0.02733186 -0.01848874 0.00696953
v 0.02873678 -0.01701723 0.05939559
v 0.02857853 -0.01729995 0.05939559
v 0.02847841 -0.01747026 0.05939559
v 0.02825879 -0.01703767 0.00696953
v 0.02885628 -0.01598854 0.00696953
v 0.02785184 -0.01848534 0.05939559
v 0.02768390 -0.01875443 0.05939559
v 0.02798426 -0.01747026 0.00696953
f 500 501 502
f 500 502 506
f 500 506 511
f 500 511 513
f 500 513 507
f 500 507 503
f 500 503 504
f 500 504 501
f 501 504 505
f 501 505 510
f 501 510 521
f 501 521 520
f 501 520 539
f 501 539 538
f 501 538 537
f 501 537 536
f 501 536 535
f 501 535 534
f 501 534 533
f 501 533 532
f 501 532 531
f 501 531 530
f 501 530 529
f 501 529 528
f 501 528 527
f 501 527 548
f 501 548 547
f 501 547 556
f 501 556 555
f 501 555 554
f 501 554 567
f 501 567 566
f 501 566 565
f 501 565 578
f 501 578 577
f 501 577 588
f 501 588 587
f 501 587 586
f 501 586 600
f 501 600 599
f 501 599 598
f 501 598 607
f 501 607 606
f 501 606 617
f 501 617 616
f 501 616 615
f 501 615 628
f 501 628 627
f 501 627 626
f 501 626 638
f 501 638 637
f 501 637 649
f 501 649 648
f 501 648 647
f 501 647 646
f 501 646 658
f 501 658 657
f 501 657 654
f 501 654 653
f 501 653 652
f 501 652 642
f 501 642 641
f 501 641 640
f 501 640 632
f 501 632 631
f 501 631 622
f 501 622 621
f 501 621 620
f 501 620 619
f 501 619 610
f 501 610 609
f 501 609 602
f 501 602 593
f 501 593 592
f 501 592 591
f 501 591 590
f 501 590 580
f 501 580 579
f 501 579 571
f 501 571 570
f 501 570 569
f 501 569 568
f 501 568 559
f 501 559 558
f 501 558 557
f 501 557 549
f 501 549 541
f 501 541 523
f 501 523 512
f 501 512 506
f 501 506 502
f 503 507 508
f 503 508 504
f 504 509 510
f 504 510 505
f 504 508 509
f 506 512 524
f 506 524 540
f 506 540 522
f 506 522 511
f 507 513 522
f 507 522 540
f 507 540 544
f 507 544 551
f 507 551 562
f 507 562 561
f 507 561 574
f 507 574 573
f 507 573 583
f 507 583 582
f 507 582 596
f 507 596 595
f 507 595 604
f 507 604 613
f 507 613 612
f 507 612 624
f 507 624 635
f 507 635 634
f 507 634 644
f 507 644 656
f 507 656 655
f 507 655 659
f 507 659 651
f 507 651 650
f 507 650 639
f 507 639 630
f 507 630 629
f 507 629 618
f 507 618 608
f 507 608 601
f 507 601 589
f 507 589 584
f 507 584 575
f 507 575 563
f 507 563 552
f 507 552 545
f 507 545 525
f 507 525 514
f 507 514 508
f 508 514 515
f 508 515 516
f 508 516 517
f 508 517 518
f 508 518 519
f 508 519 509
f 509 519 520
f 509 520 521
f 509 521 510
f 511 522 513
f 512 523 543
f 512 543 524
f 514 525 526
f 514 526 515
f 515 526 527
f 515 527 528
f 515 528 529
f 515 529 530
f 515 530 516
f 516 530 531
f 516 531 532
f 516 532 533
f 516 533 517
f 517 533 534
f 517 534 535
f 517 535 518
f 518 535 536
f 518 536 537
f 518 537 519
f 519 537 538
f 519 538 539
f 519 539 520
f 523 541 542
f 523 542 543
f 524 543 551
f 524 551 544
f 524 544 540
f 525 545 546
f 525 546 526
f 526 546 547
f 526 547 548
f 526 548 527
f 541 549 542
f 542 550 551
f 542 551 543
f 542 549 550
f 545 552 553
f 545 553 546
f 546 553 554
f 546 554 555
f 546 555 556
f 546 556 547
f 549 557 550
f 550 557 558
f 550 558 559
f 550 559 560
f 550 560 561
f 550 561 562
f 550 562 551
f 552 563 564
f 552 564 553
f 553 564 565
f 553 565 566
f 553 566 567
f 553 567 554
f 559 568 560
f 560 568 569
f 560 569 570
f 560 570 571
f 560 571 572
f 560 572 573
f 560 573 574
f 560 574 561
f 563 575 564
f 564 576 577
f 564 577 578
f 564 578 565
f 564 575 576
f 571 579 572
f 572 579 580
f 572 580 581
f 572 581 582
f 572 582 583
f 572 583 573
f 575 584 576
f 576 585 586
f 576 586 587
f 576 587 588
f 576 588 577
f 576 584 589
f 576 589 585
f 580 590 581
f 581 590 591
f 581 591 592
f 581 592 593
f 581 593 594
f 581 594 595
f 581 595 596
f 581 596 582
f 585 597 598
f 585 598 599
f 585 599 600
f 585 600 586
f 585 589 601
f 585 601 597
f 593 602 603
f 593 603 594
f 594 603 604
f 594 604 595
f 597 605 606
f 597 606 607
f 597 607 598
f 597 601 608
f 597 608 605
f 602 609 603
f 603 609 610
f 603 610 611
f 603 611 612
f 603 612 613
f 603 613 604
f 605 614 615
f 605 615 616
f 605 616 617
f 605 617 606
f 605 608 618
f 605 618 614
f 610 619 611
f 611 619 620
f 611 620 621
f 611 621 622
f 611 622 623
f 611 623 624
f 611 624 612
f 614 625 626
f 614 626 627
f 614 627 628
f 614 628 615
f 614 618 629
f 614 629 630
f 614 630 625
f 622 631 623
f 623 631 632
f 623 632 633
f 623 633 634
f 623 634 635
f 623 635 624
f 625 636 637
f 625 637 638
f 625 638 626
f 625 630 639
f 625 639 636
f 632 640 633
f 633 640 641
f 633 641 642
f 633 642 643
f 633 643 644
f 633 644 634
f 636 645 646
f 636 646 647
f 636 647 648
f 636 648 649
f 636 649 637
f 636 639 650
f 636 650 651
f 636 651 645
f 642 652 643
f 643 652 653
f 643 653 654
f 643 654 645
f 643 645 655
f 643 655 656
f 643 656 644
f 645 654 657
f 645 657 658
f 645 658 646
f 645 651 659
f 645 659 655

o geometry_4
v -0.00000117 -0.03380000 0.01400073
v 0.00000530 -0.03379659 0.01400073
v -0.00000117 -0.03380000 0.05939559
v -0.00087993 -0.03378637 0.05939559
v -0.00172962 -0.03375231 0.01400073
v -0.01131524 -0.03099663 0.00696953
v 0.00000530 -0.03099663 0.00696953
v 0.00000530 -0.03379659 0.05939559
v -0.00172962 -0.03375231 0.05939559
v -0.00219161 -0.03372506 0.05939559
v -0.00345160 -0.03361606 0.01400073
v -0.01291769 -0.03036647 0.00696953
v -0.00516390 -0.03339124 0.01400073
v -0.00686327 -0.03307787 0.01400073
v -0.00854326 -0.03267252 0.01400073
v -0.01020063 -0.03218202 0.01400073
v -0.01182892 -0.03160635 0.01400073
v 0.00000206 -0.02999859 0.00696953
v 0.00000530 0.00099856 0.00700033
v 0.00000530 0.00099856 0.05939559
v -0.00348068 -0.03361606 0.05939559
v -0.00433683 -0.03351387 0.05939559
v -0.01337968 -0.03015528 0.00696953
v -0.01342491 -0.03094554 0.01400073
v -0.00481821 -0.03344575 0.05939559
v -0.00516390 -0.03339465 0.05939559
v -0.00614604 -0.03322093 0.05939559
v -0.00653373 -0.03314599 0.05939559
v -0.00688912 -0.03307446 0.05939559
v -0.00748680 -0.03293821 0.05939559
v -0.00854326 -0.03267593 0.05939559
v -0.00879203 -0.03260439 0.05939559
v -0.01018448 -0.03218883 0.05939559
v -0.01090493 -0.03194357 0.05939559
v -0.01152524 -0.03172217 0.05939559
v -0.01182892 -0.03160635 0.05939559
v -0.01295322 -0.03114991 0.05939559
v -0.02997279 0.00099856 0.00696953
v -0.03299677 0.00099856 0.05939559
v -0.01448137 -0.02965115 0.00696953
v -0.01342491 -0.03094554 0.05939559
v -0.01426491 -0.03055722 0.05939559
v -0.01498213 -0.03020296 0.01400073
v -0.03298385 0.00099856 0.00696953
v -0.03299677 -0.00078974 0.05939559
v -0.03300000 0.00099856 0.01654120
v -0.01600951 -0.02885749 0.00696953
v -0.01504029 -0.03017231 0.05939559
v -0.01566382 -0.02984531 0.05939559
v -0.01649735 -0.02937865 0.01400073
v -0.03299031 0.00052168 0.00696953
v -0.03300000 0.00099856 0.01000270
v -0.03298385 -0.00157659 0.05939559
v -0.03300000 -0.00000289 0.01400073
v -0.03300000 -0.00000289 0.01000270
v -0.03299677 -0.00075568 0.01400073
v -0.01748919 -0.02798207 0.00696953
v -0.01650058 -0.02937524 0.05939559
v -0.01660397 -0.02931393 0.05939559
v -0.01713704 -0.02899714 0.05939559
v -0.01797057 -0.02847598 0.01400073
v -0.03299354 -0.00035033 0.00696953
v -0.03297092 -0.00201941 0.05939559
v -0.03299354 -0.00071140 0.00696953
v -0.03294185 -0.00249288 0.01400073
v -0.01892364 -0.02703172 0.00696953
v -0.01797380 -0.02847258 0.05939559
v -0.01834534 -0.02822732 0.05939559
v -0.01939533 -0.02749498 0.01400073
v -0.03295154 -0.00252013 0.05939559
v -0.03291923 -0.00243497 0.00696953
v -0.03278354 -0.00419602 0.01400073
v -0.03287077 -0.00359992 0.05939559
v -0.03293215 -0.00280626 0.05939559
v -0.01933395 -0.02672856 0.00696953
v -0.01918533 -0.02764826 0.05939559
v -0.01945348 -0.02745410 0.05939559
v -0.02076517 -0.02644243 0.01400073
v -0.02030963 -0.02600643 0.00696953
v -0.03275446 -0.00414493 0.00696953
v -0.03255416 -0.00591960 0.01400073
v -0.03273831 -0.00483640 0.05939559
v -0.03280938 -0.00423690 0.05939559
v -0.02079424 -0.02642200 0.05939559
v -0.02122716 -0.02606093 0.05939559
v -0.02208008 -0.02532177 0.01400073
v -0.02163747 -0.02491301 0.00696953
v -0.02070378 -0.02568283 0.00696953
v -0.03250246 -0.00585488 0.00696953
v -0.03222139 -0.00760571 0.01400073
v -0.03232801 -0.00735024 0.05939559
v -0.03240877 -0.00693467 0.05939559
v -0.03257354 -0.00602179 0.05939559
v -0.03268015 -0.00526900 0.05939559
v -0.02207685 -0.02532517 0.05939559
v -0.02306546 -0.02439867 0.05939559
v -0.02333361 -0.02413297 0.01400073
v -0.02290715 -0.02375147 0.00696953
v -0.03216001 -0.00754099 0.00696953
v -0.03182724 -0.00929863 0.01400073
v -0.03213739 -0.00821884 0.05939559
v -0.03226339 -0.00764999 0.05939559
v -0.02330130 -0.02416363 0.05939559
v -0.02448376 -0.02292375 0.05939559
v -0.02452252 -0.02287946 0.01400073
v -0.02411545 -0.02252521 0.00696953
v -0.03173678 -0.00921347 0.00696953
v -0.03138462 -0.01099836 0.01400073
v -0.03186278 -0.00933269 0.05939559
v -0.03204047 -0.00862759 0.05939559
v -0.02498452 -0.02235149 0.05939559
v -0.02564359 -0.02156464 0.01400073
v -0.02525590 -0.02123423 0.00696953
v -0.02445468 -0.02214371 0.00696953
v -0.03136847 -0.01036820 0.00696953
v -0.03080632 -0.01262656 0.01400073
v -0.03095817 -0.01222462 0.05939559
v -0.03108740 -0.01185674 0.05939559
v -0.03140078 -0.01094045 0.05939559
v -0.03181108 -0.00952685 0.05939559
v -0.02557898 -0.02164639 0.05939559
v -0.02663543 -0.02028047 0.05939559
v -0.02669681 -0.02019532 0.01400073
v -0.02632851 -0.01988875 0.00696953
v -0.02557575 -0.02083570 0.00696953
v -0.03057048 -0.01242900 0.00696953
v -0.03014402 -0.01422411 0.01400073
v -0.03039925 -0.01363482 0.05939559
v -0.03054463 -0.01328398 0.05939559
v -0.03080632 -0.01262997 0.05939559
v -0.02733327 -0.01927903 0.05939559
v -0.02767573 -0.01877149 0.01400073
v -0.02733004 -0.01848877 0.00696953
v -0.02987910 -0.01400611 0.00696953
v -0.02940095 -0.01578419 0.01400073
v -0.02974987 -0.01507568 0.05939559
v -0.02990494 -0.01474527 0.05939559
v -0.03001156 -0.01451705 0.05939559
v -0.03014402 -0.01422411 0.05939559
v -0.02751097 -0.01902015 0.05939559
v -0.02767573 -0.01877149 0.05939559
v -0.02822819 -0.01788245 0.05939559
v -0.02840265 -0.01759973 0.05939559
v -0.02857711 -0.01729998 0.01400073
v -0.02825727 -0.01703770 0.00696953
v -0.02760465 -0.01805958 0.00696953
v -0.02933634 -0.01508930 0.00696953
v -0.02919418 -0.01618613 0.05939559
v -0.02940095 -0.01578419 0.05939559
v -0.02910695 -0.01554575 0.00696953
v -0.02857711 -0.01729998 0.05939559
f 660 661 667
f 660 667 662
f 660 662 663
f 660 663 664
f 660 664 665
f 660 665 666
f 660 666 661
f 661 666 678
f 661 678 679
f 661 679 667
f 662 667 679
f 662 679 698
f 662 698 704
f 662 704 712
f 662 712 722
f 662 722 729
f 662 729 733
f 662 733 732
f 662 732 742
f 662 742 741
f 662 741 753
f 662 753 752
f 662 752 751
f 662 751 750
f 662 750 761
f 662 761 760
f 662 760 769
f 662 769 768
f 662 768 779
f 662 779 778
f 662 778 777
f 662 777 776
f 662 776 789
f 662 789 788
f 662 788 787
f 662 787 798
f 662 798 797
f 662 797 796
f 662 796 795
f 662 795 808
f 662 808 807
f 662 807 810
f 662 810 802
f 662 802 801
f 662 801 800
f 662 800 799
f 662 799 790
f 662 790 781
f 662 781 780
f 662 780 770
f 662 770 763
f 662 763 762
f 662 762 755
f 662 755 754
f 662 754 744
f 662 744 743
f 662 743 736
f 662 736 735
f 662 735 727
f 662 727 726
f 662 726 719
f 662 719 718
f 662 718 717
f 662 717 708
f 662 708 707
f 662 707 701
f 662 701 700
f 662 700 696
f 662 696 695
f 662 695 694
f 662 694 693
f 662 693 692
f 662 692 691
f 662 691 690
f 662 690 689
f 662 689 688
f 662 688 687
f 662 687 686
f 662 686 685
f 662 685 684
f 662 684 681
f 662 681 680
f 662 680 669
f 662 669 668
f 662 668 663
f 663 668 664
f 664 668 669
f 664 669 670
f 664 670 665
f 665 671 682
f 665 682 699
f 665 699 706
f 665 706 716
f 665 716 725
f 665 725 734
f 665 734 738
f 665 738 747
f 665 747 746
f 665 746 757
f 665 757 765
f 665 765 773
f 665 773 772
f 665 772 784
f 665 784 783
f 665 783 792
f 665 792 805
f 665 805 804
f 665 804 809
f 665 809 806
f 665 806 793
f 665 793 785
f 665 785 774
f 665 774 766
f 665 766 758
f 665 758 748
f 665 748 739
f 665 739 730
f 665 730 723
f 665 723 721
f 665 721 710
f 665 710 703
f 665 703 697
f 665 697 677
f 665 677 666
f 665 670 672
f 665 672 673
f 665 673 674
f 665 674 675
f 665 675 676
f 665 676 671
f 666 677 678
f 669 680 670
f 670 680 681
f 670 681 672
f 671 676 683
f 671 683 682
f 672 681 684
f 672 684 685
f 672 685 686
f 672 686 673
f 673 686 687
f 673 687 688
f 673 688 689
f 673 689 674
f 674 689 690
f 674 690 691
f 674 691 675
f 675 691 692
f 675 692 693
f 675 693 676
f 676 693 694
f 676 694 695
f 676 695 696
f 676 696 683
f 677 697 678
f 678 697 703
f 678 703 711
f 678 711 705
f 678 705 698
f 678 698 679
f 682 683 699
f 683 696 700
f 683 700 701
f 683 701 702
f 683 702 699
f 698 705 704
f 699 702 706
f 701 707 702
f 702 707 708
f 702 708 709
f 702 709 706
f 703 710 711
f 704 705 713
f 704 713 714
f 704 714 715
f 704 715 712
f 705 711 714
f 705 714 713
f 706 709 716
f 708 717 709
f 709 717 718
f 709 718 719
f 709 719 720
f 709 720 716
f 710 721 711
f 711 721 723
f 711 723 714
f 712 715 722
f 714 723 715
f 715 723 724
f 715 724 722
f 716 720 725
f 719 726 720
f 720 726 727
f 720 727 728
f 720 728 725
f 722 724 729
f 723 730 724
f 724 731 732
f 724 732 733
f 724 733 729
f 724 730 731
f 725 728 734
f 727 735 728
f 728 735 736
f 728 736 737
f 728 737 738
f 728 738 734
f 730 739 731
f 731 740 741
f 731 741 742
f 731 742 732
f 731 739 740
f 736 743 737
f 737 743 744
f 737 744 745
f 737 745 746
f 737 746 747
f 737 747 738
f 739 748 740
f 740 749 750
f 740 750 751
f 740 751 752
f 740 752 753
f 740 753 741
f 740 748 749
f 744 754 745
f 745 754 755
f 745 755 756
f 745 756 757
f 745 757 746
f 748 758 749
f 749 759 760
f 749 760 761
f 749 761 750
f 749 758 759
f 755 762 756
f 756 762 763
f 756 763 764
f 756 764 765
f 756 765 757
f 758 766 759
f 759 767 768
f 759 768 769
f 759 769 760
f 759 766 767
f 763 770 764
f 764 770 771
f 764 771 772
f 764 772 773
f 764 773 765
f 766 774 767
f 767 775 776
f 767 776 777
f 767 777 778
f 767 778 779
f 767 779 768
f 767 774 775
f 770 780 771
f 771 780 781
f 771 781 782
f 771 782 783
f 771 783 784
f 771 784 772
f 774 785 775
f 775 786 787
f 775 787 788
f 775 788 789
f 775 789 776
f 775 785 786
f 781 790 782
f 782 790 791
f 782 791 792
f 782 792 783
f 785 793 786
f 786 794 795
f 786 795 796
f 786 796 797
f 786 797 798
f 786 798 787
f 786 793 794
f 790 799 791
f 791 799 800
f 791 800 801
f 791 801 802
f 791 802 803
f 791 803 804
f 791 804 805
f 791 805 792
f 793 806 794
f 794 803 807
f 794 807 808
f 794 808 795
f 794 806 809
f 794 809 803
f 802 810 803
f 803 810 807
f 803 809 804

o geometry_5
v 0.02099648 0.03050000 0.06720427
v 0.02165544 0.03048792 0.06720427
v 0.02099648 0.03050000 0.05939559
v 0.02165544 0.03048792 0.05939559
v 0.02247915 0.03040336 0.06720427
v -0.02099647 0.03050000 0.05939559
v -0.02100294 0.03049396 0.06720427
v 0.02244361 0.03040336 0.05939559
v -0.02164898 0.03048792 0.05939559
v -0.02164898 0.03048792 0.06720427
v 0.02334485 0.03026445 0.06720427
v 0.02341753 0.03024783 0.05939559
v -0.02244362 0.03040336 0.05939559
v -0.02296691 0.03033391 0.06720427
v -0.02317688 0.03029766 0.05939559
v 0.02434299 0.03001983 0.06720427
v 0.02428162 0.03003795 0.05939559
v -0.02384230 0.03015270 0.06720427
v -0.02410395 0.03008929 0.05939559
v 0.02510855 0.02976917 0.05939559
v 0.02568676 0.02953664 0.06720427
v -0.02477261 0.02988695 0.06720427
v 0.02580951 0.02949134 0.05939559
v -0.02531206 0.02969669 0.05939559
v -0.02587412 0.02946114 0.06720427
v 0.02682704 0.02898701 0.06720427
v 0.02662838 0.02908968 0.05939559
v -0.02642325 0.02920142 0.05939559
v -0.02670106 0.02905646 0.06720427
v 0.02779287 0.02838603 0.06720427
v 0.02746339 0.02860347 0.05939559
v -0.02725342 0.02873333 0.05939559
v -0.02725019 0.02873333 0.06720427
v 0.02845830 0.02789680 0.05939559
v -0.02835816 0.02796928 0.05939559
v -0.02823218 0.02806592 0.06720427
v 0.02852613 0.02783942 0.06720427
v 0.02911726 0.02733207 0.06720427
v 0.02928524 0.02717352 0.05939559
v -0.02909465 0.02735321 0.05939559
v -0.02908819 0.02735925 0.06720427
v 0.02971162 0.02674922 0.06720427
v 0.02984407 0.02660426 0.05939559
v -0.02971163 0.02674922 0.06720427
v 0.03300000 0.02317360 0.06720427
v -0.02984407 0.02660426 0.05939559
v 0.03300000 -0.00069610 0.06720427
v 0.03300000 0.01849871 0.05939559
v 0.03296770 0.01936846 0.05939559
v 0.03279326 0.02067006 0.05939559
v 0.03247993 0.02196562 0.05939559
v 0.03205031 0.02316001 0.05939559
v 0.03168852 0.02395274 0.05939559
v 0.03110224 0.02496443 0.05939559
v 0.03052241 0.02579039 0.05939559
v -0.03300000 0.02317360 0.06720427
v 0.03300000 -0.00059343 0.05939559
v -0.03168853 0.02395274 0.05939559
v -0.03226997 0.02260434 0.05939559
v -0.03265760 0.02131633 0.05939559
v -0.03289340 0.02004191 0.05939559
v -0.03300000 0.01849871 0.05939559
v -0.03299354 -0.00083502 0.06720427
v -0.03078406 0.02543252 0.05939559
v -0.03138812 0.02449936 0.05939559
v 0.03294832 -0.00251412 0.05939559
v -0.03299354 -0.00078670 0.05939559
v 0.03294185 -0.00265303 0.06720427
v -0.03294831 -0.00251412 0.05939559
v 0.03285141 -0.00380363 0.05939559
v -0.03294186 -0.00271343 0.06720427
v 0.03284172 -0.00394557 0.06720427
v 0.03270282 -0.00515355 0.06720427
v 0.03265113 -0.00542535 0.05939559
v -0.03277065 -0.00453446 0.05939559
v 0.03247670 -0.00657595 0.06720427
v -0.03275612 -0.00472170 0.06720427
v 0.03240563 -0.00694137 0.05939559
v -0.03257361 -0.00601726 0.05939559
v -0.03247670 -0.00657595 0.06720427
v 0.03219244 -0.00799835 0.06720427
v 0.03213430 -0.00823390 0.05939559
v -0.03226351 -0.00764803 0.05939559
v 0.03185327 -0.00938451 0.06720427
v -0.03216175 -0.00814029 0.06720427
v 0.03182419 -0.00944491 0.05939559
v -0.03186296 -0.00932713 0.05939559
v 0.03139134 -0.01095790 0.06720427
v 0.03139134 -0.01096394 0.05939559
v 0.02454326 -0.03120366 0.06720427
v 0.03091973 -0.01231688 0.05939559
v 0.01774364 -0.02861858 0.05939559
v 0.01935552 -0.02752234 0.05939559
v 0.02061854 -0.02655897 0.05939559
v 0.02177173 -0.02559259 0.05939559
v 0.02338038 -0.02408261 0.05939559
v 0.02452388 -0.02288067 0.05939559
v 0.02548649 -0.02175121 0.05939559
v 0.02641195 -0.02056739 0.05939559
v 0.02768305 -0.01875542 0.05939559
v 0.02860689 -0.01724242 0.05939559
v 0.02957919 -0.01540931 0.05939559
v 0.03038352 -0.01366982 0.05939559
v -0.02454973 -0.03120366 0.06720427
v -0.03183066 -0.00947812 0.06720427
v -0.03139780 -0.01093978 0.05939559
v 0.01521760 -0.03007722 0.05939559
v 0.01658398 -0.02932525 0.05939559
v -0.03140426 -0.01092770 0.06720427
v -0.03094557 -0.01223836 0.05939559
v -0.03027046 -0.01392651 0.05939559
v -0.02975039 -0.01507108 0.05939559
v -0.02921417 -0.01613410 0.05939559
v -0.02848737 -0.01744778 0.05939559
v -0.02754576 -0.01896077 0.05939559
v -0.02654278 -0.02039525 0.05939559
v -0.02557694 -0.02164853 0.05939559
v -0.02448512 -0.02292295 0.05939559
v -0.02318334 -0.02427891 0.05939559
v -0.02207537 -0.02532683 0.05939559
v -0.02078974 -0.02642006 0.05939559
v -0.01945243 -0.02745288 0.05939559
v -0.01797298 -0.02847362 0.05939559
v -0.01681656 -0.02918633 0.05939559
v -0.01566014 -0.02984468 0.05939559
v -0.01425822 -0.03055739 0.05939559
v 0.01282400 -0.03120366 0.05939559
v 0.01403857 -0.03066007 0.05939559
v -0.01281754 -0.03120366 0.05939559
f 811 812 814
f 811 814 813
f 811 813 816
f 811 817 820
f 811 820 824
f 811 824 828
f 811 828 832
f 811 832 835
f 811 835 839
f 811 839 843
f 811 843 846
f 811 846 851
f 811 851 854
f 811 854 866
f 811 866 873
f 811 873 881
f 811 881 887
f 811 887 890
f 811 890 895
f 811 895 915
f 811 915 919
f 811 919 914
f 811 914 900
f 811 900 898
f 811 898 894
f 811 894 891
f 811 891 886
f 811 886 883
f 811 883 882
f 811 882 878
f 811 878 857
f 811 857 855
f 811 855 852
f 811 852 848
f 811 848 847
f 811 847 840
f 811 840 836
f 811 836 831
f 811 831 826
f 811 826 821
f 811 821 815
f 811 815 812
f 812 815 814
f 813 814 818
f 813 818 822
f 813 822 827
f 813 827 830
f 813 830 833
f 813 833 837
f 813 837 841
f 813 841 844
f 813 844 849
f 813 849 853
f 813 853 865
f 813 865 864
f 813 864 863
f 813 863 862
f 813 862 861
f 813 861 860
f 813 860 859
f 813 859 858
f 813 858 867
f 813 867 876
f 813 876 880
f 813 880 884
f 813 884 888
f 813 888 892
f 813 892 896
f 813 896 899
f 813 899 901
f 813 901 913
f 813 913 912
f 813 912 911
f 813 911 910
f 813 910 909
f 813 909 908
f 813 908 907
f 813 907 906
f 813 906 905
f 813 905 904
f 813 904 903
f 813 903 902
f 813 902 918
f 813 918 917
f 813 917 938
f 813 938 937
f 813 937 939
f 813 939 936
f 813 936 935
f 813 935 934
f 813 934 933
f 813 933 932
f 813 932 931
f 813 931 930
f 813 930 929
f 813 929 928
f 813 928 927
f 813 927 926
f 813 926 925
f 813 925 924
f 813 924 923
f 813 923 922
f 813 922 921
f 813 921 920
f 813 920 916
f 813 916 897
f 813 897 893
f 813 893 889
f 813 889 885
f 813 885 879
f 813 879 877
f 813 877 872
f 813 872 871
f 813 871 870
f 813 870 869
f 813 869 868
f 813 868 875
f 813 875 874
f 813 874 856
f 813 856 850
f 813 850 845
f 813 845 842
f 813 842 838
f 813 838 834
f 813 834 829
f 813 829 825
f 813 825 823
f 813 823 819
f 813 819 816
f 811 816 817
f 814 815 818
f 816 819 820
f 816 820 817
f 815 821 822
f 815 822 818
f 819 823 820
f 820 823 824
f 823 825 824
f 822 821 826
f 822 826 827
f 824 825 828
f 825 829 828
f 826 830 827
f 826 831 830
f 828 829 832
f 831 833 830
f 829 834 832
f 832 834 835
f 831 836 837
f 831 837 833
f 834 838 835
f 838 839 835
f 836 840 841
f 836 841 837
f 838 842 839
f 839 842 843
f 841 840 844
f 842 845 846
f 842 846 843
f 840 847 844
f 847 848 844
f 844 848 849
f 845 850 851
f 845 851 846
f 848 852 849
f 849 852 853
f 850 854 851
f 852 855 853
f 850 856 854
f 855 857 867
f 855 867 858
f 855 858 859
f 855 859 860
f 855 860 861
f 855 861 862
f 855 862 863
f 855 863 864
f 855 864 865
f 855 865 853
f 856 866 854
f 866 868 869
f 866 869 870
f 866 870 871
f 866 871 872
f 866 872 873
f 866 856 874
f 866 874 875
f 866 875 868
f 857 876 867
f 873 872 877
f 857 878 876
f 877 879 873
f 876 878 880
f 879 881 873
f 878 882 880
f 880 882 883
f 880 883 884
f 879 885 881
f 883 886 884
f 885 887 881
f 886 888 884
f 885 889 887
f 887 889 890
f 886 891 888
f 888 891 892
f 889 893 890
f 892 891 894
f 890 893 895
f 894 896 892
f 893 897 895
f 894 898 899
f 894 899 896
f 898 900 899
f 899 900 901
f 900 902 903
f 900 903 904
f 900 904 905
f 900 905 906
f 900 906 907
f 900 907 908
f 900 908 909
f 900 909 910
f 900 910 911
f 900 911 912
f 900 912 913
f 900 913 901
f 900 914 939
f 900 939 937
f 895 897 915
f 897 916 915
f 900 917 918
f 900 918 902
f 914 919 916
f 914 916 920
f 914 920 921
f 914 921 922
f 914 922 923
f 914 923 924
f 914 924 925
f 914 925 926
f 914 926 927
f 914 927 928
f 914 928 929
f 914 929 930
f 914 930 931
f 914 931 932
f 914 932 933
f 914 933 934
f 914 934 935
f 914 935 936
f 915 916 919
f 900 937 938
f 900 938 917
f 914 936 939

o geometry_6
v 0.02887823 0.03050000 0.07341266
v 0.03117169 0.02885715 0.07341266
v 0.02801253 0.02823504 0.06720427
v 0.02757322 0.02853703 0.06720427
v 0.02733418 0.02868803 0.06720427
v 0.02695301 0.02891755 0.06720427
v 0.02670106 0.02905646 0.06720427
v 0.02664291 0.02908666 0.06720427
v 0.02641679 0.02920142 0.06720427
v 0.02606147 0.02937658 0.06720427
v 0.02584181 0.02947322 0.06720427
v 0.02541542 0.02965441 0.06720427
v 0.02531205 0.02969669 0.06720427
v 0.02492443 0.02983561 0.06720427
v 0.02458203 0.02995037 0.06720427
v 0.02845830 0.03050000 0.07299086
v -0.02887823 0.03050000 0.07341266
v 0.03237979 0.02795720 0.07341266
v 0.02810943 0.02816256 0.06720427
v 0.02410395 0.03008929 0.06720427
v 0.02357420 0.03021613 0.06720427
v 0.02352251 0.03022821 0.06720427
v 0.02316719 0.03030069 0.06720427
v 0.02688195 0.03050000 0.07154680
v -0.02845830 0.03050000 0.07299086
v -0.02410395 0.03008929 0.06720427
v -0.02459495 0.02994433 0.06720427
v -0.02495027 0.02982957 0.06720427
v -0.02524745 0.02972085 0.06720427
v -0.02531206 0.02969669 0.06720427
v -0.02587412 0.02946114 0.06720427
v -0.02599041 0.02940678 0.06720427
v -0.02641680 0.02920142 0.06720427
v -0.02664291 0.02908666 0.06720427
v -0.02670106 0.02905646 0.06720427
v -0.02701116 0.02888131 0.06720427
v -0.02748923 0.02858535 0.06720427
v -0.02788332 0.02832564 0.06720427
v -0.02807067 0.02819276 0.06720427
v -0.03117169 0.02885715 0.07341266
v 0.03300000 0.02749213 0.07341266
v 0.02842600 0.02792096 0.06720427
v 0.02276664 0.03036713 0.06720427
v 0.02219166 0.03043960 0.06720427
v 0.02523453 0.03050000 0.07018721
v -0.02688195 0.03050000 0.07154680
v -0.02316719 0.03030069 0.06720427
v -0.02358066 0.03021613 0.06720427
v -0.02836785 0.02796928 0.06720427
v -0.03300000 0.02749213 0.07341266
v 0.03300000 -0.00077462 0.07341266
v 0.03300000 0.02639287 0.07174858
v 0.02951781 0.02694854 0.06720427
v 0.02925939 0.02720221 0.06720427
v 0.02921417 0.02724449 0.06720427
v 0.02897514 0.02746193 0.06720427
v 0.02862627 0.02775788 0.06720427
v 0.02165544 0.03048792 0.06720427
v 0.02351605 0.03050000 0.06891454
v -0.02523453 0.03050000 0.07018721
v -0.02219166 0.03043960 0.06720427
v -0.02276664 0.03036713 0.06720427
v -0.02280540 0.03036108 0.06720427
v -0.02860689 0.02777600 0.06720427
v -0.02898160 0.02745589 0.06720427
v -0.02917541 0.02728073 0.06720427
v -0.02921417 0.02724449 0.06720427
v -0.02942091 0.02704518 0.06720427
v -0.02951781 0.02694854 0.06720427
v -0.03300000 0.02639287 0.07174858
v -0.03300000 0.00130310 0.07341266
v 0.03300000 -0.00069610 0.06720427
v 0.03298061 -0.00185577 0.07341266
v 0.03300000 0.02317360 0.06720427
v 0.02971162 0.02674922 0.06720427
v 0.02099648 0.03050000 0.06720427
v -0.02351605 0.03050000 0.06891454
v -0.02164898 0.03048792 0.06720427
v -0.02971163 0.02674922 0.06720427
v -0.03300000 0.02317360 0.06720427
v -0.03299354 -0.00087126 0.07341266
v -0.03300000 0.00992205 0.06720427
v -0.03299354 -0.00083502 0.06720427
v 0.03298061 -0.00170477 0.06720427
v 0.03295477 -0.00247788 0.07341266
v 0.03296123 -0.00226648 0.06720427
v 0.03297415 -0.00192220 0.06720427
v 0.02055716 0.03050000 0.06720427
v -0.02099647 0.03050000 0.06728692
v -0.02100294 0.03049396 0.06720427
v -0.03298062 -0.00186785 0.07341266
v -0.03298062 -0.00173497 0.06720427
v 0.03166268 -0.03120366 0.07341266
v 0.03294185 -0.00265303 0.06720427
v -0.03297416 -0.00193428 0.06720427
v -0.03296123 -0.00229668 0.06720427
v -0.03295477 -0.00247788 0.07341266
v 0.03119107 -0.03120366 0.07291368
v 0.03179189 -0.00961100 0.06720427
v 0.03191464 -0.00915801 0.06720427
v 0.03211492 -0.00834262 0.06720427
v 0.03221182 -0.00791379 0.06720427
v 0.03226997 -0.00765407 0.06720427
v 0.03234103 -0.00730980 0.06720427
v 0.03237979 -0.00711652 0.06720427
v 0.03257361 -0.00603538 0.06720427
v 0.03270282 -0.00515355 0.06720427
v 0.03278034 -0.00453748 0.06720427
v 0.03281265 -0.00424153 0.06720427
v 0.03283849 -0.00398785 0.06720427
v 0.03285787 -0.00377646 0.06720427
v 0.03290309 -0.00319662 0.06720427
v 0.03292893 -0.00284027 0.06720427
v -0.03166268 -0.03120366 0.07341266
v -0.03294186 -0.00271343 0.06720427
v 0.03041582 -0.03120366 0.07210838
v 0.03021554 -0.03120366 0.07190903
v 0.03139134 -0.01095790 0.06720427
v -0.03289017 -0.00339594 0.06720427
v -0.03285787 -0.00379457 0.06720427
v -0.03281264 -0.00424153 0.06720427
v -0.03278034 -0.00453144 0.06720427
v -0.03272866 -0.00496028 0.06720427
v -0.03270281 -0.00515355 0.06720427
v -0.03265113 -0.00551595 0.06720427
v -0.03257361 -0.00603538 0.06720427
v -0.03237979 -0.00711652 0.06720427
v -0.03226997 -0.00765407 0.06720427
v -0.03217952 -0.00807083 0.06720427
v -0.03212138 -0.00832450 0.06720427
v -0.03163038 -0.03120366 0.07337133
v 0.02971162 -0.03120366 0.07142159
v 0.02869733 -0.03120366 0.07047834
v 0.02809651 -0.03120366 0.06995687
v 0.02696593 -0.03120366 0.06900692
v 0.02690133 -0.03120366 0.06895526
v 0.02619068 -0.03120366 0.06840705
v 0.02527329 -0.03120366 0.06771480
v 0.02506656 -0.03120366 0.06756407
v 0.02489213 -0.03120366 0.06744191
v 0.02454326 -0.03120366 0.06720427
v -0.03207615 -0.00851174 0.06720427
v -0.03157224 -0.03120366 0.07330873
v -0.03186942 -0.00933317 0.06720427
v -0.03183066 -0.00947812 0.06720427
v -0.02454973 -0.03120366 0.06720427
v -0.03149471 -0.03120366 0.07322607
v -0.03164976 -0.01010023 0.06720427
v -0.02998297 -0.03120366 0.07167929
v -0.03118461 -0.03120366 0.07290456
v -0.03130090 -0.03120366 0.07302368
v -0.02467247 -0.03120366 0.06728692
v -0.03140426 -0.01092770 0.06720427
v -0.02993774 -0.03120366 0.07163431
v -0.02487274 -0.03120366 0.06742671
v -0.02977623 -0.03120366 0.07148238
v -0.02520223 -0.03120366 0.06766617
v -0.02613900 -0.03120366 0.06836451
v -0.02663645 -0.03120366 0.06874740
v -0.02799315 -0.03120366 0.06986570
v -0.02835493 -0.03120366 0.07017931
v -0.02843892 -0.03120366 0.07025285
f 940 941 942
f 940 942 943
f 940 943 944
f 940 944 945
f 940 945 946
f 940 946 947
f 940 947 948
f 940 948 949
f 940 949 950
f 940 950 951
f 940 951 952
f 940 952 953
f 940 953 954
f 940 954 955
f 940 955 963
f 940 963 984
f 940 984 998
f 940 998 1015
f 940 1015 1027
f 940 1027 1028
f 940 1028 1016
f 940 1016 999
f 940 999 985
f 940 985 964
f 940 964 956
f 940 956 979
f 940 979 989
f 940 989 1010
f 940 1010 1020
f 940 1020 1030
f 940 1030 1036
f 940 1036 1053
f 940 1053 1032
f 940 1032 1024
f 940 1024 1012
f 940 1012 990
f 940 990 980
f 940 980 957
f 940 957 941
f 941 957 942
f 942 958 981
f 942 981 996
f 942 996 995
f 942 995 994
f 942 994 993
f 942 993 992
f 942 992 1014
f 942 1014 1013
f 942 1013 1011
f 942 1011 1023
f 942 1023 1026
f 942 1026 1025
f 942 1025 1033
f 942 1033 1052
f 942 1052 1051
f 942 1051 1050
f 942 1050 1049
f 942 1049 1048
f 942 1048 1047
f 942 1047 1046
f 942 1046 1045
f 942 1045 1044
f 942 1044 1043
f 942 1043 1042
f 942 1042 1041
f 942 1041 1040
f 942 1040 1039
f 942 1039 1038
f 942 1038 1057
f 942 1057 1080
f 942 1080 1085
f 942 1085 1092
f 942 1092 1087
f 942 1087 1084
f 942 1084 1083
f 942 1083 1081
f 942 1081 1069
f 942 1069 1068
f 942 1068 1067
f 942 1067 1066
f 942 1066 1065
f 942 1065 1064
f 942 1064 1063
f 942 1063 1062
f 942 1062 1061
f 942 1061 1060
f 942 1060 1059
f 942 1059 1058
f 942 1058 1054
f 942 1054 1035
f 942 1035 1034
f 942 1034 1031
f 942 1031 1022
f 942 1022 1021
f 942 1021 1019
f 942 1019 1018
f 942 1018 1008
f 942 1008 1007
f 942 1007 1006
f 942 1006 1005
f 942 1005 1004
f 942 1004 1003
f 942 1003 988
f 942 988 978
f 942 978 977
f 942 977 976
f 942 976 975
f 942 975 974
f 942 974 973
f 942 973 972
f 942 972 971
f 942 971 970
f 942 970 969
f 942 969 968
f 942 968 967
f 942 967 966
f 942 966 965
f 942 965 987
f 942 987 986
f 942 986 1002
f 942 1002 1001
f 942 1001 1000
f 942 1000 1017
f 942 1017 1029
f 942 1029 1027
f 942 1027 1015
f 942 1015 997
f 942 997 983
f 942 983 982
f 942 982 962
f 942 962 961
f 942 961 960
f 942 960 959
f 942 959 954
f 942 954 953
f 942 953 952
f 942 952 951
f 942 951 950
f 942 950 949
f 942 949 948
f 942 948 947
f 942 947 946
f 942 946 945
f 942 945 944
f 942 944 943
f 942 957 958
f 954 959 955
f 955 959 960
f 955 960 961
f 955 961 962
f 955 962 963
f 956 964 965
f 956 965 966
f 956 966 967
f 956 967 968
f 956 968 969
f 956 969 970
f 956 970 971
f 956 971 972
f 956 972 973
f 956 973 974
f 956 974 975
f 956 975 976
f 956 976 977
f 956 977 978
f 956 978 979
f 957 980 958
f 958 980 981
f 962 982 963
f 963 982 983
f 963 983 984
f 964 985 986
f 964 986 987
f 964 987 965
f 978 988 989
f 978 989 979
f 980 990 1011
f 980 1011 1013
f 980 1013 991
f 980 991 992
f 980 992 993
f 980 993 994
f 980 994 995
f 980 995 996
f 980 996 981
f 983 997 984
f 984 997 998
f 985 999 1000
f 985 1000 1001
f 985 1001 1002
f 985 1002 986
f 988 1003 989
f 989 1004 1005
f 989 1005 1006
f 989 1006 1007
f 989 1007 1008
f 989 1008 1009
f 989 1009 1019
f 989 1019 1021
f 989 1021 1010
f 989 1003 1004
f 990 1012 1011
f 991 1013 1014
f 991 1014 992
f 997 1015 998
f 999 1016 1017
f 999 1017 1000
f 1008 1018 1009
f 1009 1018 1019
f 1010 1021 1022
f 1010 1022 1020
f 1011 1012 1023
f 1012 1024 1025
f 1012 1025 1026
f 1012 1026 1023
f 1016 1028 1017
f 1017 1028 1029
f 1020 1022 1030
f 1022 1031 1030
f 1024 1032 1025
f 1025 1032 1033
f 1027 1029 1028
f 1030 1031 1034
f 1030 1034 1035
f 1030 1035 1036
f 1032 1037 1038
f 1032 1038 1039
f 1032 1039 1040
f 1032 1040 1041
f 1032 1041 1042
f 1032 1042 1043
f 1032 1043 1044
f 1032 1044 1045
f 1032 1045 1046
f 1032 1046 1047
f 1032 1047 1048
f 1032 1048 1049
f 1032 1049 1050
f 1032 1050 1051
f 1032 1051 1052
f 1032 1052 1033
f 1032 1053 1070
f 1032 1070 1082
f 1032 1082 1086
f 1032 1086 1090
f 1032 1090 1089
f 1032 1089 1088
f 1032 1088 1093
f 1032 1093 1095
f 1032 1095 1101
f 1032 1101 1100
f 1032 1100 1099
f 1032 1099 1098
f 1032 1098 1097
f 1032 1097 1096
f 1032 1096 1094
f 1032 1094 1091
f 1032 1091 1085
f 1032 1085 1080
f 1032 1080 1079
f 1032 1079 1078
f 1032 1078 1077
f 1032 1077 1076
f 1032 1076 1075
f 1032 1075 1074
f 1032 1074 1073
f 1032 1073 1072
f 1032 1072 1071
f 1032 1071 1056
f 1032 1056 1055
f 1032 1055 1037
f 1035 1054 1053
f 1035 1053 1036
f 1037 1055 1038
f 1038 1055 1056
f 1038 1056 1057
f 1053 1054 1058
f 1053 1058 1059
f 1053 1059 1060
f 1053 1060 1061
f 1053 1061 1062
f 1053 1062 1063
f 1053 1063 1064
f 1053 1064 1065
f 1053 1065 1066
f 1053 1066 1067
f 1053 1067 1068
f 1053 1068 1069
f 1053 1069 1070
f 1056 1071 1057
f 1057 1071 1072
f 1057 1072 1073
f 1057 1073 1074
f 1057 1074 1075
f 1057 1075 1076
f 1057 1076 1077
f 1057 1077 1078
f 1057 1078 1079
f 1057 1079 1080
f 1069 1081 1070
f 1070 1081 1083
f 1070 1083 1084
f 1070 1084 1082
f 1082 1084 1086
f 1084 1087 1088
f 1084 1088 1089
f 1084 1089 1090
f 1084 1090 1086
f 1085 1091 1092
f 1087 1092 1093
f 1087 1093 1088
f 1091 1094 1092
f 1092 1095 1093
f 1092 1094 1096
f 1092 1096 1097
f 1092 1097 1098
f 1092 1098 1099
f 1092 1099 1100
f 1092 1100 1101
f 1092 1101 1095

o geometry_7
v -0.03298344 0.00099856 0.00399962
v -0.03298344 0.00099856 0.00696440
v -0.03298344 0.00103183 0.00399962
v -0.03147420 0.00099856 0.00000068
v -0.02997349 0.00099856 0.00696440
v -0.03298344 0.00103183 0.00696440
v -0.03288491 0.00275156 0.00399962
v -0.03142872 0.00211410 0.00000068
v -0.02997349 0.00099856 0.00000068
v -0.02330553 0.01888934 0.00696440
v -0.03288491 0.00275156 0.00696440
v -0.03279207 0.00359741 0.00696440
v -0.03269637 0.00446253 0.00399962
v -0.03127619 0.00374802 0.00000068
v -0.02330648 0.01888934 0.00000068
v -0.02705543 0.01888934 0.00696440
v -0.03269637 0.00446253 0.00696440
v -0.03255995 0.00530138 0.00696440
v -0.03241973 0.00616124 0.00399962
v -0.03103839 0.00537318 0.00000068
v -0.02520606 0.01888934 0.00000068
v -0.02705543 0.01888934 0.00399962
v -0.02713975 0.01877200 0.00696440
v -0.03241973 0.00616124 0.00696440
v -0.03205402 0.00784420 0.00399962
v -0.03071626 0.00698258 0.00000068
v -0.02525722 0.01882454 0.00000068
v -0.02713975 0.01877200 0.00399962
v -0.02808243 0.01733247 0.00696440
v -0.03205402 0.00784420 0.00696440
v -0.03160116 0.00950438 0.00399962
v -0.03031077 0.00857447 0.00000068
v -0.02620370 0.01748308 0.00000068
v -0.02808243 0.01733247 0.00399962
v -0.02894648 0.01584391 0.00696440
v -0.03160116 0.00950438 0.00696440
v -0.03106302 0.01113830 0.00399962
v -0.02982285 0.01014009 0.00000068
v -0.02707816 0.01609259 0.00000068
v -0.02894648 0.01584391 0.00399962
v -0.02934534 0.01506986 0.00696440
v -0.03106302 0.01113830 0.00696440
v -0.03043962 0.01274244 0.00399962
v -0.02925345 0.01167944 0.00000068
v -0.02788063 0.01466006 0.00000068
v -0.02973379 0.01431332 0.00399962
v -0.02973379 0.01431332 0.00696440
v -0.03043962 0.01274244 0.00696440
v -0.02860541 0.01318901 0.00000068
f 1102 1103 1107
f 1102 1107 1104
f 1102 1104 1105
f 1102 1105 1110
f 1102 1110 1106
f 1102 1106 1103
f 1103 1106 1111
f 1103 1111 1117
f 1103 1117 1124
f 1103 1124 1130
f 1103 1130 1136
f 1103 1136 1142
f 1103 1142 1148
f 1103 1148 1149
f 1103 1149 1143
f 1103 1143 1137
f 1103 1137 1131
f 1103 1131 1125
f 1103 1125 1119
f 1103 1119 1118
f 1103 1118 1113
f 1103 1113 1112
f 1103 1112 1107
f 1104 1107 1112
f 1104 1112 1108
f 1104 1108 1109
f 1104 1109 1105
f 1105 1109 1115
f 1105 1115 1121
f 1105 1121 1127
f 1105 1127 1133
f 1105 1133 1139
f 1105 1139 1145
f 1105 1145 1150
f 1105 1150 1146
f 1105 1146 1140
f 1105 1140 1134
f 1105 1134 1128
f 1105 1128 1122
f 1105 1122 1116
f 1105 1116 1110
f 1106 1110 1111
f 1108 1112 1113
f 1108 1113 1114
f 1108 1114 1115
f 1108 1115 1109
f 1110 1116 1111
f 1111 1116 1122
f 1111 1122 1123
f 1111 1123 1117
f 1113 1118 1114
f 1114 1118 1119
f 1114 1119 1120
f 1114 1120 1121
f 1114 1121 1115
f 1117 1123 1129
f 1117 1129 1124
f 1119 1125 1120
f 1120 1125 1131
f 1120 1131 1126
f 1120 1126 1127
f 1120 1127 1121
f 1122 1128 1123
f 1123 1128 1129
f 1124 1129 1135
f 1124 1135 1130
f 1126 1131 1137
f 1126 1137 1132
f 1126 1132 1133
f 1126 1133 1127
f 1128 1134 1129
f 1129 1134 1135
f 1130 1135 1141
f 1130 1141 1136
f 1132 1137 1143
f 1132 1143 1138
f 1132 1138 1139
f 1132 1139 1133
f 1134 1140 1135
f 1135 1140 1141
f 1136 1141 1142
f 1138 1143 1149
f 1138 1149 1144
f 1138 1144 1145
f 1138 1145 1139
f 1140 1146 1141
f 1141 1146 1147
f 1141 1147 1142
f 1142 1147 1148
f 1144 1149 1148
f 1144 1148 1147
f 1144 1147 1150
f 1144 1150 1145
f 1146 1150 1147

o geometry_8
v 0.02569733 -0.02068649 0.00696440
v 0.02525723 -0.02123770 0.00696440
v 0.02569733 -0.02068649 0.00399962
v 0.02171124 -0.02068649 0.00696440
v 0.02525723 -0.02123770 0.00399962
v 0.02411547 -0.02252588 0.00696440
v 0.02375332 -0.02068649 0.00000068
v 0.02171124 -0.02068649 0.00000068
v 0.00000781 -0.02999954 0.00696440
v 0.02411547 -0.02252588 0.00399962
v 0.02290833 -0.02375349 0.00696440
v 0.02268199 -0.02185756 0.00000068
v 0.00000781 -0.02999954 0.00000068
v 0.00000781 -0.03100000 0.00696440
v 0.02290833 -0.02375349 0.00399962
v 0.02163831 -0.02491547 0.00696440
v 0.02151257 -0.02301046 0.00000068
v 0.00000781 -0.03100000 0.00000068
v 0.01131472 -0.03100000 0.00696440
v 0.02163831 -0.02491547 0.00399962
v 0.02030794 -0.02600881 0.00696440
v 0.02028279 -0.02409976 0.00000068
v 0.00559085 -0.03100000 0.00000068
v 0.01131472 -0.03100000 0.00399962
v 0.01244139 -0.03055479 0.00696440
v 0.02030794 -0.02600881 0.00399962
v 0.01989801 -0.02631268 0.00696440
v 0.01900020 -0.02512344 0.00000068
v 0.00719786 -0.03066584 0.00000068
v 0.01035152 -0.02975018 0.00000068
v 0.01188811 -0.02917070 0.00000068
v 0.01291418 -0.03036701 0.00399962
v 0.00878726 -0.03024991 0.00000068
v 0.01291418 -0.03036701 0.00696440
v 0.01892475 -0.02703249 0.00399962
v 0.01892475 -0.02703249 0.00696440
v 0.01766480 -0.02607847 0.00000068
v 0.01338950 -0.02851248 0.00000068
v 0.01448096 -0.02965226 0.00399962
v 0.01448096 -0.02965226 0.00696440
v 0.01849974 -0.02731415 0.00696440
v 0.01748876 -0.02798348 0.00399962
v 0.01628161 -0.02696384 0.00000068
v 0.01485567 -0.02777551 0.00000068
v 0.01600749 -0.02885674 0.00399962
v 0.01555481 -0.02909297 0.00696440
v 0.01748876 -0.02798348 0.00696440
v 0.01600749 -0.02885674 0.00696440
f 1151 1152 1155
f 1151 1155 1153
f 1151 1153 1157
f 1151 1157 1158
f 1151 1158 1154
f 1151 1154 1159
f 1151 1159 1164
f 1151 1164 1169
f 1151 1169 1175
f 1151 1175 1184
f 1151 1184 1190
f 1151 1190 1196
f 1151 1196 1198
f 1151 1198 1197
f 1151 1197 1191
f 1151 1191 1186
f 1151 1186 1177
f 1151 1177 1171
f 1151 1171 1166
f 1151 1166 1161
f 1151 1161 1156
f 1151 1156 1152
f 1152 1156 1160
f 1152 1160 1155
f 1153 1155 1157
f 1154 1158 1163
f 1154 1163 1159
f 1155 1160 1157
f 1156 1161 1165
f 1156 1165 1160
f 1157 1160 1162
f 1157 1162 1167
f 1157 1167 1172
f 1157 1172 1178
f 1157 1178 1187
f 1157 1187 1193
f 1157 1193 1194
f 1157 1194 1188
f 1157 1188 1181
f 1157 1181 1180
f 1157 1180 1183
f 1157 1183 1179
f 1157 1179 1173
f 1157 1173 1168
f 1157 1168 1163
f 1157 1163 1158
f 1159 1163 1168
f 1159 1168 1164
f 1160 1165 1162
f 1161 1166 1170
f 1161 1170 1165
f 1162 1165 1167
f 1164 1168 1173
f 1164 1173 1174
f 1164 1174 1169
f 1165 1170 1167
f 1166 1171 1176
f 1166 1176 1170
f 1167 1170 1172
f 1169 1174 1175
f 1170 1176 1172
f 1171 1177 1176
f 1172 1176 1178
f 1173 1179 1174
f 1174 1180 1181
f 1174 1181 1182
f 1174 1182 1175
f 1174 1179 1183
f 1174 1183 1180
f 1175 1182 1184
f 1176 1177 1185
f 1176 1185 1178
f 1177 1186 1185
f 1178 1185 1187
f 1181 1188 1182
f 1182 1188 1189
f 1182 1189 1190
f 1182 1190 1184
f 1185 1186 1191
f 1185 1191 1192
f 1185 1192 1187
f 1187 1192 1193
f 1188 1194 1189
f 1189 1194 1195
f 1189 1195 1196
f 1189 1196 1190
f 1191 1197 1192
f 1192 1197 1198
f 1192 1198 1195
f 1192 1195 1193
f 1193 1195 1194
f 1195 1198 1196

o geometry_9
v -0.00465773 0.03050000 0.00696440
v -0.00465773 0.02963511 0.00696440
v -0.00465773 0.03050000 0.00000068
v -0.01260065 0.03050000 0.00696440
v -0.00465773 0.02963511 0.00000068
v -0.02330375 0.01889047 0.00696440
v -0.00787611 0.03050000 0.00000068
v -0.01260065 0.03050000 0.00399962
v -0.01417476 0.02980104 0.00696440
v -0.02330594 0.01889047 0.00000068
v -0.02705488 0.01889047 0.00696440
v -0.00945461 0.03004767 0.00000068
v -0.01100680 0.02951464 0.00000068
v -0.01252830 0.02890092 0.00000068
v -0.01417476 0.02980104 0.00399962
v -0.01570942 0.02902139 0.00696440
v -0.02520452 0.01889047 0.00000068
v -0.02612313 0.02016337 0.00696440
v -0.02705488 0.01889047 0.00399962
v -0.01401691 0.02820878 0.00000068
v -0.01570942 0.02902139 0.00399962
v -0.01719803 0.02816218 0.00696440
v -0.02612313 0.02016337 0.00399962
v -0.02423989 0.02011564 0.00000068
v -0.02558600 0.02082369 0.00696440
v -0.01546825 0.02744049 0.00000068
v -0.01719803 0.02816218 0.00399962
v -0.01793027 0.02768939 0.00696440
v -0.02503571 0.02149878 0.00399962
v -0.02315905 0.02135103 0.00000068
v -0.02503571 0.02149878 0.00696440
v -0.01687575 0.02659720 0.00000068
v -0.01864498 0.02722683 0.00399962
v -0.01864498 0.02722683 0.00696440
v -0.02446570 0.02212955 0.00696440
v -0.02388034 0.02277509 0.00399962
v -0.02201464 0.02252847 0.00000068
v -0.01823721 0.02568230 0.00000068
v -0.02003933 0.02621760 0.00399962
v -0.02003933 0.02621760 0.00696440
v -0.02388034 0.02277509 0.00696440
v -0.02266139 0.02398889 0.00399962
v -0.02081104 0.02364566 0.00000068
v -0.01955043 0.02469694 0.00000068
v -0.02137886 0.02513677 0.00399962
v -0.02137886 0.02513677 0.00696440
v -0.02266139 0.02398889 0.00696440
v -0.02202780 0.02455715 0.00696440
f 1199 1200 1203
f 1199 1203 1201
f 1199 1201 1205
f 1199 1205 1206
f 1199 1206 1202
f 1199 1202 1207
f 1199 1207 1214
f 1199 1214 1220
f 1199 1220 1226
f 1199 1226 1232
f 1199 1232 1238
f 1199 1238 1244
f 1199 1244 1246
f 1199 1246 1245
f 1199 1245 1239
f 1199 1239 1233
f 1199 1233 1229
f 1199 1229 1223
f 1199 1223 1216
f 1199 1216 1209
f 1199 1209 1204
f 1199 1204 1200
f 1200 1204 1203
f 1201 1203 1208
f 1201 1208 1215
f 1201 1215 1222
f 1201 1222 1228
f 1201 1228 1235
f 1201 1235 1241
f 1201 1241 1242
f 1201 1242 1236
f 1201 1236 1230
f 1201 1230 1224
f 1201 1224 1218
f 1201 1218 1212
f 1201 1212 1211
f 1201 1211 1210
f 1201 1210 1205
f 1202 1206 1213
f 1202 1213 1207
f 1203 1204 1208
f 1204 1209 1217
f 1204 1217 1215
f 1204 1215 1208
f 1205 1210 1206
f 1206 1211 1212
f 1206 1212 1213
f 1206 1210 1211
f 1207 1213 1219
f 1207 1219 1214
f 1209 1216 1221
f 1209 1221 1217
f 1212 1218 1213
f 1213 1218 1219
f 1214 1219 1225
f 1214 1225 1220
f 1215 1217 1221
f 1215 1221 1222
f 1216 1223 1221
f 1218 1224 1219
f 1219 1224 1225
f 1220 1225 1226
f 1221 1223 1227
f 1221 1227 1222
f 1222 1227 1228
f 1223 1229 1227
f 1224 1230 1225
f 1225 1230 1231
f 1225 1231 1226
f 1226 1231 1232
f 1227 1229 1233
f 1227 1233 1234
f 1227 1234 1228
f 1228 1234 1235
f 1230 1236 1231
f 1231 1236 1237
f 1231 1237 1238
f 1231 1238 1232
f 1233 1239 1234
f 1234 1239 1245
f 1234 1245 1240
f 1234 1240 1235
f 1235 1240 1241
f 1236 1242 1237
f 1237 1243 1244
f 1237 1244 1238
f 1237 1242 1243
f 1240 1245 1246
f 1240 1246 1243
f 1240 1243 1241
f 1241 1243 1242
f 1243 1246 1244

o geometry_10
v 0.01259688 0.03050000 0.00696440
v 0.01259688 0.03050000 0.00399962
v -0.00465773 0.03050000 0.00696440
v 0.01417232 0.02980076 0.00696440
v 0.01252717 0.02890098 0.00000068
v 0.01100470 0.02951460 0.00000068
v 0.00945435 0.03004786 0.00000068
v 0.00787612 0.03050000 0.00000068
v 0.01417232 0.02980076 0.00399962
v -0.00465773 0.03050000 0.00000068
v -0.00465773 0.02963477 0.00696440
v 0.01493077 0.02941621 0.00696440
v 0.01401617 0.02820925 0.00000068
v 0.01570594 0.02902115 0.00399962
v -0.00465773 0.02963477 0.00000068
v 0.01944797 0.02282711 0.00696440
v 0.01570594 0.02902115 0.00696440
v 0.01546614 0.02744091 0.00000068
v 0.01644487 0.02859755 0.00696440
v 0.01719774 0.02816268 0.00399962
v 0.01944797 0.02282711 0.00000068
v 0.02382855 0.02282711 0.00696440
v 0.01687428 0.02659822 0.00000068
v 0.01719774 0.02816268 0.00696440
v 0.01864492 0.02722761 0.00399962
v 0.02169264 0.02282711 0.00000068
v 0.02382855 0.02282711 0.00399962
v 0.02266021 0.02398901 0.00696440
v 0.01823781 0.02568267 0.00000068
v 0.01864492 0.02722761 0.00696440
v 0.02003912 0.02621893 0.00399962
v 0.02081150 0.02364502 0.00000068
v 0.02266021 0.02398901 0.00399962
v 0.02137755 0.02513814 0.00696440
v 0.01955115 0.02469727 0.00000068
v 0.02003912 0.02621893 0.00696440
v 0.02137755 0.02513814 0.00399962
f 1247 1248 1254
f 1247 1254 1256
f 1247 1256 1249
f 1247 1249 1257
f 1247 1257 1262
f 1247 1262 1268
f 1247 1268 1274
f 1247 1274 1280
f 1247 1280 1282
f 1247 1282 1276
f 1247 1276 1270
f 1247 1270 1265
f 1247 1265 1263
f 1247 1263 1258
f 1247 1258 1250
f 1247 1250 1255
f 1247 1255 1248
f 1248 1251 1252
f 1248 1252 1253
f 1248 1253 1254
f 1248 1255 1251
f 1249 1256 1261
f 1249 1261 1257
f 1250 1258 1255
f 1251 1255 1259
f 1251 1259 1264
f 1251 1264 1269
f 1251 1269 1275
f 1251 1275 1281
f 1251 1281 1278
f 1251 1278 1272
f 1251 1272 1267
f 1251 1267 1261
f 1251 1261 1256
f 1251 1256 1254
f 1251 1254 1253
f 1251 1253 1252
f 1255 1258 1260
f 1255 1260 1259
f 1257 1261 1267
f 1257 1267 1262
f 1258 1263 1260
f 1259 1260 1264
f 1260 1263 1265
f 1260 1265 1266
f 1260 1266 1264
f 1262 1267 1272
f 1262 1272 1273
f 1262 1273 1268
f 1264 1266 1269
f 1265 1270 1266
f 1266 1270 1276
f 1266 1276 1271
f 1266 1271 1269
f 1268 1273 1279
f 1268 1279 1274
f 1269 1271 1275
f 1271 1276 1282
f 1271 1282 1277
f 1271 1277 1275
f 1272 1278 1279
f 1272 1279 1273
f 1274 1279 1283
f 1274 1283 1280
f 1275 1277 1281
f 1277 1282 1280
f 1277 1280 1283
f 1277 1283 1281
f 1278 1281 1283
f 1278 1283 1279

o geometry_11
v -0.02119484 -0.02123040 0.00696440
v -0.02119484 -0.02123040 0.00000068
v -0.02526123 -0.02123040 0.00696440
v 0.00000282 -0.02999971 0.00696440
v 0.00000530 -0.02999971 0.00000068
v -0.02325524 -0.02123040 0.00000068
v -0.02526123 -0.02123040 0.00399962
v -0.02525628 -0.02123805 0.00696440
v 0.00000530 -0.03099904 0.00696440
v 0.00000530 -0.03099904 0.00000068
v -0.02268140 -0.02185773 0.00000068
v -0.02411601 -0.02252619 0.00399962
v -0.02525628 -0.02123805 0.00399962
v -0.02411601 -0.02252619 0.00696440
v -0.01131579 -0.03099904 0.00696440
v -0.00559217 -0.03099904 0.00000068
v -0.02151144 -0.02301008 0.00000068
v -0.02290648 -0.02375313 0.00399962
v -0.02326514 -0.02338973 0.00696440
v -0.01179070 -0.03081257 0.00696440
v -0.01131579 -0.03099904 0.00399962
v -0.00719993 -0.03066625 0.00000068
v -0.02163759 -0.02491504 0.00399962
v -0.02028460 -0.02409931 0.00000068
v -0.02290648 -0.02375313 0.00696440
v -0.01291365 -0.03036693 0.00696440
v -0.01291365 -0.03036693 0.00399962
v -0.01188716 -0.02917059 0.00000068
v -0.01035114 -0.02975107 0.00000068
v -0.00878790 -0.03024930 0.00000068
v -0.02163759 -0.02491504 0.00696440
v -0.02030934 -0.02601001 0.00399962
v -0.02070262 -0.02568582 0.00696440
v -0.01900087 -0.02512351 0.00000068
v -0.01337867 -0.03015558 0.00696440
v -0.01447936 -0.02965257 0.00399962
v -0.01338856 -0.02851170 0.00000068
v -0.01892419 -0.02703325 0.00399962
v -0.02030934 -0.02601001 0.00696440
v -0.01766519 -0.02607982 0.00000068
v -0.01447936 -0.02965257 0.00696440
v -0.01485533 -0.02777534 0.00000068
v -0.01600549 -0.02885692 0.00399962
v -0.01748958 -0.02798286 0.00399962
v -0.01791501 -0.02770171 0.00696440
v -0.01892419 -0.02703325 0.00696440
v -0.01628252 -0.02696344 0.00000068
v -0.01600549 -0.02885692 0.00696440
v -0.01644577 -0.02859776 0.00696440
v -0.01748958 -0.02798286 0.00696440
f 1284 1285 1289
f 1284 1289 1290
f 1284 1290 1286
f 1284 1286 1291
f 1284 1291 1297
f 1284 1297 1302
f 1284 1302 1308
f 1284 1308 1314
f 1284 1314 1316
f 1284 1316 1322
f 1284 1322 1329
f 1284 1329 1328
f 1284 1328 1333
f 1284 1333 1332
f 1284 1332 1331
f 1284 1331 1324
f 1284 1324 1318
f 1284 1318 1309
f 1284 1309 1303
f 1284 1303 1298
f 1284 1298 1292
f 1284 1292 1287
f 1284 1287 1288
f 1284 1288 1285
f 1285 1288 1293
f 1285 1293 1299
f 1285 1299 1305
f 1285 1305 1313
f 1285 1313 1312
f 1285 1312 1311
f 1285 1311 1320
f 1285 1320 1325
f 1285 1325 1330
f 1285 1330 1323
f 1285 1323 1317
f 1285 1317 1307
f 1285 1307 1300
f 1285 1300 1294
f 1285 1294 1289
f 1286 1290 1296
f 1286 1296 1291
f 1287 1292 1288
f 1288 1292 1293
f 1289 1294 1295
f 1289 1295 1296
f 1289 1296 1290
f 1291 1296 1295
f 1291 1295 1297
f 1292 1298 1304
f 1292 1304 1299
f 1292 1299 1293
f 1294 1300 1301
f 1294 1301 1295
f 1295 1301 1302
f 1295 1302 1297
f 1298 1303 1304
f 1299 1304 1305
f 1300 1306 1301
f 1300 1307 1306
f 1301 1306 1314
f 1301 1314 1308
f 1301 1308 1302
f 1303 1309 1310
f 1303 1310 1304
f 1304 1310 1311
f 1304 1311 1312
f 1304 1312 1313
f 1304 1313 1305
f 1306 1307 1315
f 1306 1315 1316
f 1306 1316 1314
f 1307 1317 1315
f 1309 1318 1310
f 1310 1318 1319
f 1310 1319 1320
f 1310 1320 1311
f 1315 1317 1321
f 1315 1321 1329
f 1315 1329 1322
f 1315 1322 1316
f 1317 1323 1321
f 1318 1324 1319
f 1319 1325 1320
f 1319 1324 1331
f 1319 1331 1326
f 1319 1326 1325
f 1321 1323 1327
f 1321 1327 1328
f 1321 1328 1329
f 1323 1330 1327
f 1325 1326 1330
f 1326 1332 1327
f 1326 1327 1330
f 1326 1331 1332
f 1327 1332 1333
f 1327 1333 1328

o geometry_12
v -0.03299635 -0.00035050 0.00696440
v -0.03299173 -0.00068994 0.00399962
v -0.03299288 -0.00070952 0.00696440
v -0.03299173 0.00051986 0.00696440
v -0.03298364 0.00099855 0.00399962
v -0.03147729 -0.00117081 0.00000068
v -0.03291086 -0.00241107 0.00399962
v -0.03292011 -0.00243501 0.00696440
v -0.03149578 0.00047199 0.00000068
v -0.03298364 0.00099855 0.00696440
v -0.03147383 0.00099855 0.00000068
v -0.03137448 -0.00280926 0.00000068
v -0.03274106 -0.00412350 0.00399962
v -0.03275376 -0.00414526 0.00696440
v -0.02997326 0.00099855 0.00696440
v -0.02997326 0.00099855 0.00000068
v -0.03118503 -0.00443901 0.00000068
v -0.03248114 -0.00582506 0.00399962
v -0.03250309 -0.00585334 0.00696440
v -0.02119623 -0.02123040 0.00696440
v -0.02119623 -0.02123040 0.00000068
v -0.03091126 -0.00605788 0.00000068
v -0.03213343 -0.00751137 0.00399962
v -0.03216000 -0.00753966 0.00696440
v -0.02526476 -0.02123040 0.00696440
v -0.02325707 -0.02123040 0.00000068
v -0.03055431 -0.00766151 0.00000068
v -0.03169793 -0.00917593 0.00399962
v -0.03173605 -0.00921293 0.00696440
v -0.02526476 -0.02123040 0.00399962
v -0.02633214 -0.01989005 0.00696440
v -0.02379076 -0.02064508 0.00000068
v -0.03011303 -0.00924121 0.00000068
v -0.03117695 -0.01081438 0.00399962
v -0.03136871 -0.01036397 0.00696440
v -0.02633214 -0.01989005 0.00399962
v -0.02483504 -0.01937653 0.00000068
v -0.02733252 -0.01849095 0.00696440
v -0.02959089 -0.01079698 0.00000068
v -0.03057048 -0.01242672 0.00399962
v -0.03057048 -0.01242672 0.00696440
v -0.02733252 -0.01849095 0.00399962
v -0.02581000 -0.01805794 0.00000068
v -0.02825897 -0.01703962 0.00696440
v -0.02898789 -0.01232446 0.00000068
v -0.02988084 -0.01400425 0.00399962
v -0.02988084 -0.01400425 0.00696440
v -0.02825897 -0.01703962 0.00399962
v -0.02671682 -0.01668713 0.00000068
v -0.02910919 -0.01554261 0.00696440
v -0.02830634 -0.01381712 0.00000068
v -0.02910919 -0.01554261 0.00399962
v -0.02754854 -0.01527280 0.00000068
f 1334 1335 1336
f 1334 1336 1341
f 1334 1341 1347
f 1334 1347 1352
f 1334 1352 1357
f 1334 1357 1362
f 1334 1362 1368
f 1334 1368 1374
f 1334 1374 1380
f 1334 1380 1383
f 1334 1383 1377
f 1334 1377 1371
f 1334 1371 1364
f 1334 1364 1358
f 1334 1358 1353
f 1334 1353 1348
f 1334 1348 1343
f 1334 1343 1337
f 1334 1337 1338
f 1334 1338 1335
f 1335 1339 1340
f 1335 1340 1341
f 1335 1341 1336
f 1335 1338 1342
f 1335 1342 1339
f 1337 1343 1338
f 1338 1343 1348
f 1338 1348 1349
f 1338 1349 1344
f 1338 1344 1342
f 1339 1345 1340
f 1339 1342 1344
f 1339 1344 1349
f 1339 1349 1354
f 1339 1354 1359
f 1339 1359 1365
f 1339 1365 1370
f 1339 1370 1376
f 1339 1376 1382
f 1339 1382 1386
f 1339 1386 1384
f 1339 1384 1378
f 1339 1378 1372
f 1339 1372 1366
f 1339 1366 1360
f 1339 1360 1355
f 1339 1355 1350
f 1339 1350 1345
f 1340 1345 1346
f 1340 1346 1347
f 1340 1347 1341
f 1345 1350 1346
f 1346 1350 1351
f 1346 1351 1352
f 1346 1352 1347
f 1348 1353 1354
f 1348 1354 1349
f 1350 1355 1351
f 1351 1355 1356
f 1351 1356 1357
f 1351 1357 1352
f 1353 1358 1363
f 1353 1363 1359
f 1353 1359 1354
f 1355 1360 1356
f 1356 1360 1361
f 1356 1361 1362
f 1356 1362 1357
f 1358 1364 1369
f 1358 1369 1363
f 1359 1363 1365
f 1360 1366 1361
f 1361 1366 1367
f 1361 1367 1362
f 1362 1367 1368
f 1363 1369 1370
f 1363 1370 1365
f 1364 1371 1375
f 1364 1375 1369
f 1366 1372 1367
f 1367 1372 1373
f 1367 1373 1368
f 1368 1373 1374
f 1369 1375 1376
f 1369 1376 1370
f 1371 1377 1381
f 1371 1381 1375
f 1372 1378 1373
f 1373 1379 1380
f 1373 1380 1374
f 1373 1378 1379
f 1375 1381 1382
f 1375 1382 1376
f 1377 1383 1385
f 1377 1385 1381
f 1378 1384 1379
f 1379 1384 1385
f 1379 1385 1383
f 1379 1383 1380
f 1381 1385 1386
f 1381 1386 1382
f 1384 1386 1385

o geometry_13
v 0.02171304 -0.02068649 0.00000068
v 0.02375411 -0.02068649 0.00000068
v 0.02171304 -0.02068649 0.00696440
v 0.02997340 0.00099856 0.00000068
v 0.02379166 -0.02064404 0.00000068
v 0.02569798 -0.02068649 0.00399962
v 0.02569798 -0.02068649 0.00696440
v 0.02997340 0.00099856 0.00696440
v 0.03147439 0.00099856 0.00000068
v 0.02483428 -0.01937681 0.00000068
v 0.02633195 -0.01989049 0.00399962
v 0.02633195 -0.01989049 0.00696440
v 0.03298310 0.00099856 0.00696440
v 0.03149537 0.00047214 0.00000068
v 0.03298310 0.00099856 0.00399962
v 0.02581064 -0.01805652 0.00000068
v 0.02733371 -0.01848954 0.00399962
v 0.02703661 -0.01890558 0.00696440
v 0.03299635 -0.00034933 0.00696440
v 0.03299193 -0.00069108 0.00399962
v 0.03147770 -0.00117080 0.00000068
v 0.02671631 -0.01668741 0.00000068
v 0.02825926 -0.01703977 0.00399962
v 0.02798424 -0.01747067 0.00696440
v 0.02733371 -0.01848954 0.00696440
v 0.03299304 -0.00071018 0.00696440
v 0.03297647 -0.00122386 0.00696440
v 0.03292014 -0.00243378 0.00696440
v 0.03291130 -0.00241043 0.00399962
v 0.03137388 -0.00280949 0.00000068
v 0.02754798 -0.01527372 0.00000068
v 0.02910971 -0.01554330 0.00399962
v 0.02885788 -0.01598693 0.00696440
v 0.02825926 -0.01703977 0.00696440
v 0.03287486 -0.00294109 0.00696440
v 0.03275558 -0.00414676 0.00696440
v 0.03274122 -0.00412341 0.00399962
v 0.03118501 -0.00443969 0.00000068
v 0.02830675 -0.01381758 0.00000068
v 0.02910971 -0.01554330 0.00696440
v 0.02988063 -0.01400437 0.00399962
v 0.03268599 -0.00465620 0.00696440
v 0.03250375 -0.00585338 0.00696440
v 0.03248167 -0.00582578 0.00399962
v 0.03091110 -0.00605715 0.00000068
v 0.02898821 -0.01232323 0.00000068
v 0.02988063 -0.01400437 0.00696440
v 0.03056982 -0.01242724 0.00399962
v 0.03240656 -0.00635432 0.00696440
v 0.03216247 -0.00754089 0.00696440
v 0.03213375 -0.00751117 0.00399962
v 0.03055436 -0.00765975 0.00000068
v 0.02959125 -0.01079704 0.00000068
v 0.03056982 -0.01242724 0.00696440
v 0.03117618 -0.01081614 0.00399962
v 0.03099725 -0.01129374 0.00696440
v 0.03203988 -0.00803759 0.00696440
v 0.03169859 -0.00917745 0.00399962
v 0.03011367 -0.00924113 0.00000068
v 0.03117618 -0.01081614 0.00696440
v 0.03173283 -0.00920929 0.00696440
f 1387 1388 1392
f 1387 1392 1393
f 1387 1393 1389
f 1387 1389 1394
f 1387 1394 1390
f 1387 1390 1395
f 1387 1395 1400
f 1387 1400 1407
f 1387 1407 1416
f 1387 1416 1424
f 1387 1424 1431
f 1387 1431 1438
f 1387 1438 1445
f 1387 1445 1439
f 1387 1439 1432
f 1387 1432 1425
f 1387 1425 1417
f 1387 1417 1408
f 1387 1408 1402
f 1387 1402 1396
f 1387 1396 1391
f 1387 1391 1388
f 1388 1391 1392
f 1389 1393 1398
f 1389 1398 1404
f 1389 1404 1411
f 1389 1411 1410
f 1389 1410 1420
f 1389 1420 1419
f 1389 1419 1426
f 1389 1426 1433
f 1389 1433 1440
f 1389 1440 1442
f 1389 1442 1446
f 1389 1446 1447
f 1389 1447 1443
f 1389 1443 1436
f 1389 1436 1435
f 1389 1435 1429
f 1389 1429 1428
f 1389 1428 1422
f 1389 1422 1421
f 1389 1421 1414
f 1389 1414 1413
f 1389 1413 1412
f 1389 1412 1405
f 1389 1405 1399
f 1389 1399 1394
f 1390 1394 1399
f 1390 1399 1401
f 1390 1401 1395
f 1391 1396 1392
f 1392 1396 1397
f 1392 1397 1398
f 1392 1398 1393
f 1395 1401 1400
f 1396 1402 1397
f 1397 1402 1403
f 1397 1403 1404
f 1397 1404 1398
f 1399 1405 1401
f 1400 1401 1406
f 1400 1406 1407
f 1401 1405 1406
f 1402 1408 1403
f 1403 1408 1409
f 1403 1409 1410
f 1403 1410 1411
f 1403 1411 1404
f 1405 1412 1406
f 1406 1412 1413
f 1406 1413 1414
f 1406 1414 1415
f 1406 1415 1407
f 1407 1415 1416
f 1408 1417 1409
f 1409 1417 1418
f 1409 1418 1419
f 1409 1419 1420
f 1409 1420 1410
f 1414 1421 1415
f 1415 1421 1422
f 1415 1422 1423
f 1415 1423 1416
f 1416 1423 1424
f 1417 1425 1418
f 1418 1426 1419
f 1418 1425 1427
f 1418 1427 1433
f 1418 1433 1426
f 1422 1428 1423
f 1423 1428 1429
f 1423 1429 1430
f 1423 1430 1424
f 1424 1430 1431
f 1425 1432 1427
f 1427 1432 1434
f 1427 1434 1440
f 1427 1440 1433
f 1429 1435 1430
f 1430 1435 1436
f 1430 1436 1437
f 1430 1437 1431
f 1431 1437 1438
f 1432 1439 1434
f 1434 1439 1441
f 1434 1441 1442
f 1434 1442 1440
f 1436 1443 1437
f 1437 1443 1444
f 1437 1444 1438
f 1438 1444 1445
f 1439 1445 1441
f 1441 1446 1442
f 1441 1445 1444
f 1441 1444 1447
f 1441 1447 1446
f 1443 1447 1444

o geometry_14
v 0.01945012 0.02282711 0.00000068
v 0.01945012 0.02282711 0.00696440
v 0.02169562 0.02282711 0.00000068
v 0.02997283 0.00100069 0.00000068
v 0.02382984 0.02282711 0.00696440
v 0.02997283 0.00100069 0.00696440
v 0.02382984 0.02282711 0.00399962
v 0.02201754 0.02252797 0.00000068
v 0.03147380 0.00100069 0.00000068
v 0.02388283 0.02277370 0.00696440
v 0.03298272 0.00100069 0.00696440
v 0.02388283 0.02277370 0.00399962
v 0.02316082 0.02135065 0.00000068
v 0.03142876 0.00211391 0.00000068
v 0.03298272 0.00103274 0.00399962
v 0.03298272 0.00100069 0.00399962
v 0.02445248 0.02214337 0.00696440
v 0.03298272 0.00103274 0.00696440
v 0.02503671 0.02149595 0.00399962
v 0.02424184 0.02011350 0.00000068
v 0.03127508 0.00374849 0.00000068
v 0.03288469 0.00275065 0.00399962
v 0.03293370 0.00190238 0.00696440
v 0.02503671 0.02149595 0.00696440
v 0.02557457 0.02083784 0.00696440
v 0.02612435 0.02016264 0.00399962
v 0.02525662 0.01882293 0.00000068
v 0.03269657 0.00446215 0.00399962
v 0.03103795 0.00537239 0.00000068
v 0.03288469 0.00275065 0.00696440
v 0.02612435 0.02016264 0.00696440
v 0.02713913 0.01877165 0.00399962
v 0.02620384 0.01748108 0.00000068
v 0.03269657 0.00446215 0.00696440
v 0.03241969 0.00616083 0.00399962
v 0.03071603 0.00698346 0.00000068
v 0.02713913 0.01877165 0.00696440
v 0.02808105 0.01733151 0.00399962
v 0.02707686 0.01609223 0.00000068
v 0.03241969 0.00616083 0.00696440
v 0.03205405 0.00784455 0.00399962
v 0.03031065 0.00857317 0.00000068
v 0.02808105 0.01733151 0.00696440
v 0.02850895 0.01659649 0.00696440
v 0.02894612 0.01584437 0.00399962
v 0.02787968 0.01466063 0.00000068
v 0.03205405 0.00784455 0.00696440
v 0.03160098 0.00950477 0.00399962
v 0.02982180 0.01014151 0.00000068
v 0.02894612 0.01584437 0.00696440
v 0.02933561 0.01508798 0.00696440
v 0.02973304 0.01431235 0.00399962
v 0.02860566 0.01318845 0.00000068
v 0.03160098 0.00950477 0.00696440
v 0.03106312 0.01113935 0.00399962
v 0.03132940 0.01033167 0.00696440
v 0.02925348 0.01168207 0.00000068
v 0.02973304 0.01431235 0.00696440
v 0.03008278 0.01353673 0.00696440
v 0.03043915 0.01274187 0.00399962
v 0.03074782 0.01194916 0.00696440
v 0.03106312 0.01113935 0.00696440
v 0.03043915 0.01274187 0.00696440
f 1448 1449 1452
f 1448 1452 1454
f 1448 1454 1450
f 1448 1450 1455
f 1448 1455 1460
f 1448 1460 1467
f 1448 1467 1474
f 1448 1474 1480
f 1448 1480 1486
f 1448 1486 1493
f 1448 1493 1500
f 1448 1500 1504
f 1448 1504 1496
f 1448 1496 1489
f 1448 1489 1483
f 1448 1483 1476
f 1448 1476 1468
f 1448 1468 1461
f 1448 1461 1456
f 1448 1456 1451
f 1448 1451 1453
f 1448 1453 1449
f 1449 1453 1458
f 1449 1458 1465
f 1449 1465 1470
f 1449 1470 1477
f 1449 1477 1481
f 1449 1481 1487
f 1449 1487 1494
f 1449 1494 1501
f 1449 1501 1503
f 1449 1503 1509
f 1449 1509 1508
f 1449 1508 1510
f 1449 1510 1506
f 1449 1506 1505
f 1449 1505 1498
f 1449 1498 1497
f 1449 1497 1491
f 1449 1491 1490
f 1449 1490 1484
f 1449 1484 1478
f 1449 1478 1472
f 1449 1472 1471
f 1449 1471 1464
f 1449 1464 1457
f 1449 1457 1452
f 1450 1454 1455
f 1451 1456 1463
f 1451 1463 1458
f 1451 1458 1453
f 1452 1457 1459
f 1452 1459 1454
f 1454 1459 1455
f 1455 1459 1460
f 1456 1461 1462
f 1456 1462 1463
f 1457 1464 1459
f 1458 1463 1462
f 1458 1462 1465
f 1459 1464 1466
f 1459 1466 1460
f 1460 1466 1467
f 1461 1468 1469
f 1461 1469 1462
f 1462 1469 1470
f 1462 1470 1465
f 1464 1471 1466
f 1466 1472 1473
f 1466 1473 1467
f 1466 1471 1472
f 1467 1473 1474
f 1468 1475 1469
f 1468 1476 1475
f 1469 1475 1481
f 1469 1481 1477
f 1469 1477 1470
f 1472 1478 1473
f 1473 1478 1484
f 1473 1484 1479
f 1473 1479 1474
f 1474 1479 1480
f 1475 1476 1482
f 1475 1482 1487
f 1475 1487 1481
f 1476 1483 1482
f 1479 1484 1490
f 1479 1490 1485
f 1479 1485 1480
f 1480 1485 1486
f 1482 1483 1488
f 1482 1488 1494
f 1482 1494 1487
f 1483 1489 1488
f 1485 1490 1491
f 1485 1491 1492
f 1485 1492 1486
f 1486 1492 1493
f 1488 1489 1495
f 1488 1495 1501
f 1488 1501 1494
f 1489 1496 1495
f 1491 1497 1492
f 1492 1498 1499
f 1492 1499 1493
f 1492 1497 1498
f 1493 1499 1500
f 1495 1496 1502
f 1495 1502 1503
f 1495 1503 1501
f 1496 1504 1502
f 1498 1505 1499
f 1499 1505 1506
f 1499 1506 1507
f 1499 1507 1500
f 1500 1507 1504
f 1502 1504 1507
f 1502 1507 1508
f 1502 1508 1509
f 1502 1509 1503
f 1506 1510 1507
f 1507 1510 1508

