# https://github.com/mikedh/trimesh

o geometry_0
v 0.03203891 0.03489506 -0.02875189
v 0.03024561 0.03489506 -0.02457223
v 0.04102281 0.01717839 -0.02727621
v 0.04102281 0.01717839 -0.03018320
v 0.03116838 0.03489506 -0.03694912
v 0.04104023 0.01452983 -0.02462341
v 0.02186237 0.03489506 -0.02417815
v 0.03048936 0.03489506 -0.03872846
v 0.04109246 -0.01343936 -0.02459953
v 0.04339937 -0.00063924 -0.02473942
v 0.04384335 0.00681713 -0.02690602
v 0.04384335 0.00681713 -0.03040669
v 0.04100541 0.01306185 -0.03282321
v 0.03352317 0.00141126 -0.03873784
v 0.02869606 0.02942705 -0.03960533
v 0.04182153 0.00414527 -0.03339557
v 0.03813265 -0.02099671 -0.02468142
v -0.01160965 -0.03753278 -0.02449717
v 0.02322911 -0.03343178 -0.02449717
v -0.02185583 0.03489506 -0.02418157
v 0.04377371 -0.00767620 -0.02717897
v 0.04323833 0.00277826 -0.03218645
v 0.04121434 -0.01618113 -0.02662794
v 0.00607089 -0.04304740 -0.02461318
v -0.04108592 -0.01343936 -0.02459953
v -0.00606435 -0.04304740 -0.02461318
v 0.04440484 -0.00200625 -0.02875018
v 0.03006280 0.00004523 -0.03963924
v 0.01981226 0.03489506 -0.04056622
v 0.03301391 -0.02957154 -0.02672689
v 0.03843298 -0.02211322 -0.02762679
v 0.03095510 -0.03022009 -0.02487846
v 0.04148094 -0.01568501 -0.02875018
v 0.01649988 -0.04029786 -0.02462683
v 0.02194942 -0.03757162 -0.02462341
v -0.03023036 0.03489506 -0.02457565
v -0.04103369 0.01452983 -0.02462341
v -0.04339284 -0.00063924 -0.02473942
v -0.03812611 -0.02099671 -0.02468142
v -0.01649334 -0.04029786 -0.02462683
v 0.04377371 -0.00767620 -0.03023950
v 0.03281368 -0.01022380 -0.03832243
v 0.04160172 -0.00746649 -0.03324800
v 0.03166893 -0.03093855 -0.03054317
v 0.03557328 -0.02665113 -0.03022244
v 0.04121434 -0.01618113 -0.03059605
v -0.00340922 -0.04420080 -0.02875018
v -0.04101627 0.01717839 -0.02727621
v -0.04376717 -0.00767620 -0.02717897
v -0.04120779 -0.01618113 -0.02662794
v -0.03094856 -0.03022009 -0.02487846
v -0.02194288 -0.03757162 -0.02462341
v 0.02801269 -0.01292867 -0.03952771
v 0.02745990 -0.03489975 -0.02700838
v 0.03689213 -0.02179866 -0.03281084
v 0.04097059 -0.01283353 -0.03282577
v 0.00204902 -0.04291924 -0.03276563
v 0.00895671 -0.04349400 -0.02949484
v 0.01108516 -0.04303963 -0.02717897
v -0.03203237 0.03489506 -0.02875189
v -0.04101627 0.01717839 -0.03018320
v -0.04383681 0.00681713 -0.02690602
v -0.03842644 -0.02211322 -0.02762679
v -0.03300737 -0.02957154 -0.02672689
v -0.04422637 -0.00166450 -0.02981770
v -0.04120779 -0.01618113 -0.03059605
v -0.01107862 -0.04303963 -0.02717897
v -0.00613834 -0.04272312 -0.03247476
v 0.01912889 -0.00473637 -0.04065920
v 0.02049563 0.01115115 -0.04067551
v 0.01154328 0.03489506 -0.04123241
v 0.03136860 -0.02927640 -0.03270166
v 0.01903314 -0.04022018 -0.02875018
v 0.02745990 -0.03489975 -0.03034186
v -0.04383681 0.00681713 -0.03040669
v -0.03556674 -0.02665113 -0.03022244
v -0.03166239 -0.03093855 -0.03054317
v -0.04376717 -0.00767620 -0.03023950
v -0.02745336 -0.03489975 -0.02700838
v -0.01902660 -0.04022018 -0.02875018
v -0.01416031 -0.04183573 -0.03053293
v 0.02186237 -0.02112875 -0.03964798
v 0.01989061 -0.03928426 -0.03083318
v 0.02478736 -0.03493082 -0.03292983
v 0.02911718 -0.01741707 -0.03852352
v 0.00000327 -0.03784007 -0.03615952
v 0.00819499 -0.04188234 -0.03286372
v -0.03116184 0.03489506 -0.03694912
v -0.03048282 0.03489506 -0.03873187
v -0.04087699 0.01398613 -0.03269782
v -0.04324049 0.00277826 -0.03218688
v -0.04179976 -0.00473637 -0.03338277
v -0.04097275 -0.01285683 -0.03283088
v -0.03688777 -0.02180448 -0.03281254
v -0.02745336 -0.03489975 -0.03034186
v -0.00894473 -0.03948231 -0.03450339
v 0.02186237 -0.02659676 -0.03831561
v 0.01293586 -0.01805299 -0.04038883
v 0.02766883 -0.02694627 -0.03574299
v 0.01590792 -0.04008038 -0.03264834
v -0.02868952 0.03489506 -0.03939549
v -0.03339258 0.00551227 -0.03867174
v -0.04182588 0.00346176 -0.03340324
v -0.03179297 -0.02837153 -0.03304243
v -0.02671994 -0.03347061 -0.03282150
v -0.01591009 -0.04008038 -0.03264834
v 0.01674363 -0.03496965 -0.03568328
v -0.03340781 -0.00405287 -0.03867472
v -0.03064822 -0.01429374 -0.03862610
v 0.01058678 -0.02933077 -0.03944902
v 0.01079925 -0.00726527 -0.04102833
v 0.00887836 0.00414527 -0.04134969
v 0.00205338 0.03489506 -0.04152584
v -0.00545498 -0.03301623 -0.03881291
v 0.01026360 -0.03200846 -0.03864273
v -0.03005626 0.00072776 -0.03966504
v -0.02186454 -0.02659676 -0.03831732
v -0.01693732 -0.02964922 -0.03847768
v -0.02185583 0.02328330 -0.04054234
v -0.02759265 -0.02015399 -0.03844526
v 0.00000327 -0.03069777 -0.03963945
v -0.00955519 0.03489506 -0.04134543
v -0.01228867 -0.02796376 -0.03964798
v -0.00067575 -0.01192939 -0.04104139
v -0.01788402 -0.00080721 -0.04079504
v -0.02698110 -0.01395199 -0.03962772
v -0.01980572 -0.02454626 -0.03938952
v -0.00477161 0.00363264 -0.04144779
v -0.01365540 -0.01497724 -0.04058072
f 1 5 8
f 1 8 29
f 1 29 71
f 1 71 113
f 1 113 122
f 1 122 101
f 1 101 89
f 1 89 88
f 1 88 60
f 1 60 36
f 1 36 20
f 1 20 7
f 1 7 2
f 1 2 3
f 1 3 4
f 1 4 5
f 2 6 3
f 2 7 6
f 4 8 5
f 7 9 6
f 6 10 11
f 6 11 3
f 3 12 4
f 4 13 8
f 8 13 16
f 9 10 6
f 7 18 19
f 7 19 9
f 7 20 18
f 11 12 3
f 4 12 13
f 14 15 8
f 13 12 22
f 13 22 16
f 8 16 14
f 9 23 21
f 9 21 10
f 9 19 17
f 18 24 19
f 20 25 18
f 18 26 24
f 21 27 10
f 10 27 11
f 11 27 12
f 14 28 15
f 8 15 29
f 17 30 31
f 17 31 23
f 17 23 9
f 17 32 30
f 21 23 33
f 19 32 17
f 24 34 19
f 19 34 35
f 19 35 32
f 20 36 37
f 20 37 25
f 25 37 38
f 25 39 18
f 26 18 40
f 27 41 12
f 14 16 42
f 14 42 28
f 22 43 16
f 22 12 41
f 22 41 43
f 30 44 45
f 30 45 31
f 31 33 23
f 21 33 41
f 21 41 27
f 33 46 41
f 26 47 24
f 37 36 48
f 25 38 49
f 25 49 50
f 39 51 18
f 18 51 52
f 18 52 40
f 42 16 43
f 31 45 33
f 33 45 46
f 32 54 30
f 32 35 54
f 30 54 44
f 46 45 55
f 47 68 57
f 47 57 58
f 47 58 24
f 34 24 59
f 36 60 48
f 37 48 62
f 37 62 38
f 25 50 39
f 39 50 63
f 39 63 64
f 39 64 51
f 49 66 50
f 40 67 26
f 46 56 41
f 41 56 43
f 28 42 53
f 53 69 28
f 15 28 70
f 15 70 29
f 44 72 45
f 54 73 74
f 54 74 44
f 54 35 73
f 44 74 72
f 46 55 56
f 24 58 59
f 34 73 35
f 34 59 73
f 59 58 73
f 60 61 48
f 48 61 75
f 62 48 75
f 38 62 65
f 38 65 49
f 50 66 63
f 64 63 76
f 64 76 77
f 65 78 49
f 49 78 66
f 51 64 79
f 51 79 52
f 26 67 47
f 40 52 80
f 40 80 67
f 67 81 47
f 67 80 81
f 69 70 28
f 29 70 71
f 45 72 55
f 73 83 74
f 74 83 84
f 72 74 84
f 55 85 56
f 57 87 58
f 73 58 83
f 60 88 61
f 61 88 89
f 61 89 90
f 62 75 65
f 66 76 63
f 64 77 79
f 65 91 92
f 65 92 78
f 66 94 76
f 79 77 95
f 79 95 80
f 79 80 52
f 47 81 68
f 80 95 81
f 57 68 86
f 42 43 56
f 42 85 53
f 53 85 97
f 53 97 82
f 82 98 53
f 53 98 69
f 72 99 55
f 83 100 84
f 84 99 72
f 57 86 87
f 58 100 83
f 58 87 100
f 89 102 103
f 89 103 90
f 61 90 75
f 75 91 65
f 75 90 91
f 91 90 103
f 76 94 104
f 76 104 77
f 77 105 95
f 92 93 78
f 78 93 66
f 93 94 66
f 81 106 68
f 95 106 81
f 68 96 86
f 68 106 96
f 85 42 56
f 99 85 55
f 87 107 100
f 101 102 89
f 91 103 92
f 104 105 77
f 92 103 108
f 94 93 109
f 106 95 105
f 85 99 97
f 97 110 82
f 82 110 98
f 69 98 111
f 70 69 112
f 70 112 71
f 99 84 97
f 87 86 115
f 87 115 107
f 101 116 102
f 105 104 117
f 92 108 93
f 105 117 106
f 86 96 114
f 97 115 110
f 100 107 84
f 116 101 119
f 116 108 102
f 102 108 103
f 94 120 104
f 106 117 118
f 106 118 96
f 96 118 114
f 97 107 115
f 97 84 107
f 110 115 114
f 110 114 121
f 110 121 98
f 69 111 112
f 71 112 113
f 86 114 115
f 101 122 119
f 104 120 117
f 93 108 109
f 109 120 94
f 114 118 123
f 98 121 124
f 114 123 121
f 116 125 126
f 116 126 108
f 108 126 109
f 109 126 120
f 118 117 127
f 98 124 111
f 116 119 125
f 117 120 127
f 118 127 123
f 111 124 112
f 113 112 128
f 128 122 113
f 120 126 127
f 123 127 129
f 126 129 127
f 121 123 124
f 124 123 129
f 112 124 128
f 125 129 126
f 124 129 128
f 119 122 125
f 128 125 122
f 125 128 129

o geometry_1
v -0.03524306 0.11989052 -0.02308782
v -0.03048732 0.03489935 -0.03873120
v -0.03116375 0.03489506 -0.03694963
v -0.03444239 0.04857288 -0.02308782
v -0.03434575 0.12165277 -0.02308782
v -0.03302049 0.12128402 -0.02789713
v -0.03049422 0.11962897 -0.03381155
v -0.02869270 0.03489506 -0.03939498
v -0.02978327 0.11962897 -0.03517711
v -0.02735364 0.11564996 -0.03833328
v -0.03170559 0.03489506 -0.03285023
v -0.03203345 0.03489506 -0.02875083
v -0.03380737 0.04581159 -0.02308782
v -0.03211628 0.12161418 -0.02875083
v -0.03038378 0.12136121 -0.03351492
v -0.02595935 0.03489506 -0.03983992
v -0.02595935 0.11416642 -0.03869864
v -0.02322600 0.11416642 -0.03924848
v -0.01912599 0.11143085 -0.03998914
v -0.02798865 0.12132690 -0.03595304
v -0.02841660 0.11962897 -0.03645405
v -0.03126039 0.03489506 -0.02601789
v -0.03142604 0.12250174 -0.02308782
v -0.03142604 0.12233881 -0.02601789
v -0.02869270 0.12239883 -0.03148376
v -0.02881694 0.12171280 -0.03434331
v -0.02322600 0.03489506 -0.04020528
v -0.01502597 0.11416642 -0.04052541
v -0.01912599 0.11416642 -0.03994482
v -0.01920191 0.12100961 -0.03832785
v -0.02590413 0.11947460 -0.03770386
v -0.02677383 0.11746795 -0.03819763
v -0.02595935 0.12231308 -0.03421670
v -0.02595935 0.12155844 -0.03627318
v -0.02185933 0.11690198 -0.03924758
v -0.03023883 0.03489506 -0.02457637
v -0.02732603 0.12249316 -0.03011730
v -0.01912599 0.03489506 -0.04065835
v -0.01151265 0.11143085 -0.04095589
v -0.01639264 0.11690198 -0.04010037
v -0.01701903 0.11965469 -0.03920552
v -0.02495160 0.11846270 -0.03839116
v -0.01297596 0.12211155 -0.03694963
v -0.02185933 0.03489506 -0.02418117
v -0.02203189 0.03675164 -0.02308782
v -0.02631138 0.03745054 -0.02308782
v -0.02852014 0.03874114 -0.02308782
v -0.03074961 0.04075208 -0.02308782
v 0.03143401 0.12249316 -0.02308782
v 0.02733399 0.12249316 -0.03011730
v 0.01776728 0.12249316 -0.03421670
v -0.01775931 0.12249316 -0.03421670
v -0.00750927 0.12152414 -0.03891297
v -0.01365929 0.12134405 -0.03866970
v -0.01092595 0.11962897 -0.03989870
v 0.03434682 0.12165277 -0.02308782
v 0.03143401 0.12233881 -0.02601789
v 0.02870067 0.12239883 -0.03148376
v 0.02596732 0.12231308 -0.03421670
v -0.00272764 0.12232166 -0.03694963
v -0.01479129 0.03489506 -0.04103275
v -0.00856533 0.11576144 -0.04108068
v -0.00809597 0.11143085 -0.04122086
v -0.01229262 0.11690198 -0.04058691
v -0.00545926 0.11962897 -0.04025592
v -0.00545926 0.11769520 -0.04096854
v 0.02186730 0.03489506 -0.02417846
v 0.02186730 0.03673020 -0.02308782
v 0.03212080 0.12161418 -0.02875083
v 0.03038485 0.12136121 -0.03351673
v 0.02882491 0.12171280 -0.03434331
v 0.01298393 0.12211155 -0.03694963
v 0.00546722 0.12230451 -0.03694963
v 0.00273560 0.12157559 -0.03900159
v 0.00068732 0.11962897 -0.04036806
v -0.01092595 0.03489506 -0.04127241
v -0.00272591 0.11416642 -0.04141077
v 0.00000398 0.11817114 -0.04103547
v 0.03525103 0.11962897 -0.02308782
v 0.03302846 0.12128402 -0.02789532
v 0.02799662 0.12132690 -0.03595123
v 0.03050219 0.11962897 -0.03380974
v 0.02978434 0.11962897 -0.03517711
v 0.02596732 0.12155844 -0.03627137
v 0.01298393 0.12136550 -0.03869683
v -0.00409258 0.11143085 -0.04141891
v 0.00136721 0.11679907 -0.04122538
v -0.00135924 0.11143085 -0.04149126
v 0.03024680 0.03489506 -0.02457275
v 0.02603634 0.03742481 -0.02308782
v 0.03444345 0.04857288 -0.02308782
v 0.03116482 0.03489506 -0.03694963
v 0.03048838 0.03489506 -0.03872938
v 0.02841767 0.11962897 -0.03645224
v 0.02677490 0.11745938 -0.03819582
v 0.02590520 0.11947460 -0.03770205
v 0.01920298 0.12100961 -0.03832605
v 0.02736160 0.11564139 -0.03833147
v 0.00820057 0.11962897 -0.04010580
v -0.00545926 0.03489506 -0.04148674
v 0.00341722 0.11416642 -0.04137957
v 0.00136721 0.11143085 -0.04149126
v 0.00000398 0.03489506 -0.04156360
v 0.00546722 0.11768663 -0.04096854
v 0.02963939 0.03976591 -0.02308782
v 0.03127526 0.03489506 -0.02601789
v 0.03380843 0.04582017 -0.02308782
v 0.03204142 0.03489506 -0.02875083
v 0.03171011 0.03489506 -0.03285023
v 0.02870067 0.03489506 -0.03938775
v 0.02409332 0.11866423 -0.03847436
v 0.02050063 0.11690198 -0.03948903
v 0.02596732 0.11416642 -0.03869321
v 0.02323397 0.11416642 -0.03924305
v 0.01366726 0.11962897 -0.03962921
v 0.00546722 0.11143085 -0.04135832
v 0.00546722 0.03489506 -0.04148674
v 0.00856640 0.11575287 -0.04108068
v 0.02596732 0.03489506 -0.03982364
v 0.01913396 0.11143085 -0.03998552
v 0.01435060 0.11690198 -0.04034138
v 0.01913396 0.11416642 -0.03994121
v 0.00956724 0.03489506 -0.04135018
v 0.02050063 0.03489506 -0.04051276
v 0.01503394 0.11143085 -0.04056882
v 0.01366726 0.11416642 -0.04067554
v 0.01074065 0.11143085 -0.04103547
v 0.01352922 0.03489506 -0.04111414
v 0.01776728 0.03489506 -0.04078225
f 130 131 132
f 130 132 133
f 130 133 142
f 130 142 177
f 130 177 176
f 130 176 175
f 130 175 174
f 130 174 197
f 130 197 219
f 130 219 234
f 130 234 236
f 130 236 220
f 130 220 208
f 130 208 185
f 130 185 178
f 130 178 152
f 130 152 134
f 130 134 135
f 130 135 136
f 130 136 131
f 131 136 138
f 131 138 139
f 131 139 137
f 132 131 137
f 132 137 145
f 132 145 156
f 132 156 167
f 132 167 190
f 132 190 205
f 132 205 229
f 132 229 232
f 132 232 246
f 132 246 252
f 132 252 257
f 132 257 258
f 132 258 253
f 132 253 248
f 132 248 239
f 132 239 222
f 132 222 221
f 132 221 238
f 132 238 237
f 132 237 235
f 132 235 218
f 132 218 196
f 132 196 173
f 132 173 165
f 132 165 151
f 132 151 141
f 132 141 140
f 132 140 133
f 133 140 141
f 133 141 142
f 134 143 135
f 135 144 136
f 135 143 144
f 136 144 138
f 137 139 146
f 137 146 147
f 137 147 148
f 137 148 145
f 138 144 149
f 138 149 150
f 138 150 139
f 141 151 142
f 134 152 153
f 134 153 143
f 144 143 154
f 144 154 155
f 144 155 149
f 145 148 157
f 145 157 156
f 147 158 148
f 149 159 160
f 149 160 161
f 149 161 150
f 149 155 162
f 149 162 163
f 149 163 159
f 150 161 139
f 139 161 164
f 139 164 147
f 139 147 146
f 151 165 142
f 153 152 154
f 153 154 143
f 154 162 155
f 154 152 166
f 154 166 162
f 156 157 167
f 148 158 157
f 157 168 167
f 147 164 158
f 158 164 169
f 158 169 157
f 159 170 171
f 159 171 160
f 160 171 161
f 161 171 164
f 162 172 163
f 165 173 174
f 165 174 175
f 165 175 176
f 165 176 177
f 165 177 142
f 152 178 179
f 152 179 180
f 152 180 181
f 152 181 166
f 166 181 162
f 162 181 189
f 162 189 172
f 164 171 169
f 169 171 170
f 172 182 183
f 172 183 163
f 163 183 159
f 159 183 184
f 159 184 170
f 178 185 186
f 178 186 187
f 178 187 179
f 179 187 188
f 179 188 180
f 180 202 189
f 180 189 181
f 172 189 182
f 167 168 190
f 168 157 191
f 168 191 192
f 168 192 190
f 169 170 193
f 169 193 157
f 157 193 191
f 170 184 193
f 182 194 183
f 183 194 184
f 184 195 193
f 173 196 197
f 173 197 174
f 186 185 198
f 186 198 187
f 187 198 199
f 187 199 200
f 187 200 188
f 188 201 202
f 188 202 180
f 189 202 203
f 189 203 182
f 182 203 204
f 182 204 194
f 192 205 190
f 191 193 195
f 194 204 207
f 194 207 195
f 194 195 184
f 185 208 209
f 185 209 198
f 198 209 199
f 199 210 200
f 199 209 211
f 199 211 212
f 199 212 210
f 200 210 188
f 188 210 213
f 188 213 201
f 201 214 203
f 201 203 202
f 191 206 192
f 192 206 215
f 192 215 205
f 191 195 216
f 191 216 206
f 206 217 215
f 207 216 195
f 196 218 197
f 197 218 219
f 208 220 221
f 208 221 222
f 209 208 211
f 210 212 223
f 210 223 224
f 210 224 225
f 210 225 226
f 210 226 213
f 211 208 222
f 211 222 212
f 212 227 223
f 212 222 227
f 213 226 214
f 213 214 201
f 214 228 203
f 203 228 204
f 215 217 229
f 215 229 205
f 206 216 230
f 206 230 231
f 206 231 217
f 217 231 232
f 217 232 229
f 207 233 216
f 207 204 228
f 207 228 233
f 218 234 219
f 218 235 236
f 218 236 234
f 220 236 237
f 220 237 238
f 220 238 221
f 222 239 227
f 223 227 224
f 224 240 225
f 224 241 240
f 225 240 226
f 227 239 242
f 227 242 243
f 227 243 241
f 227 241 224
f 226 240 244
f 226 244 214
f 214 244 228
f 230 245 231
f 231 245 246
f 231 246 232
f 233 247 216
f 216 247 230
f 235 237 236
f 239 248 249
f 239 249 243
f 239 243 242
f 240 241 250
f 240 250 244
f 243 251 241
f 244 250 233
f 244 233 228
f 245 252 246
f 233 250 247
f 248 253 254
f 248 254 249
f 249 251 243
f 241 251 250
f 250 251 255
f 250 255 247
f 230 247 245
f 245 247 256
f 245 256 257
f 245 257 252
f 254 256 255
f 254 255 251
f 254 251 249
f 254 253 256
f 255 256 247
f 253 258 256
f 256 258 257

o geometry_2
v -0.04145592 0.04857525 0.00132349
v -0.04104201 0.04706269 -0.00578384
v -0.04104201 0.12107735 0.00571424
v -0.04143969 0.11963201 -0.00141204
v -0.04063013 0.04528963 0.00200421
v -0.04099737 0.04781057 0.00613752
v -0.03732798 0.04266471 -0.00956020
v -0.03749487 0.04177660 -0.00158222
v -0.03784233 0.04264160 0.00712781
v -0.03818522 0.04460898 0.01339015
v -0.03999101 0.04857525 0.01088206
v -0.04104201 0.12106895 -0.00577752
v -0.03996260 0.04857525 -0.01098009
v -0.03934985 0.11894926 0.01285000
v -0.03874522 0.12151012 0.01333329
v -0.03962985 0.12207733 -0.00004428
v -0.03995043 0.11826652 -0.01098009
v -0.03685828 0.04454176 -0.01633111
v -0.03820146 0.04857525 0.01618886
v -0.03555568 0.04444092 0.01913287
v -0.03448438 0.12134206 0.02234223
v -0.03578698 0.11963201 0.02093340
v -0.03484351 0.12241765 0.01566608
v -0.03689480 0.12249748 -0.00961232
v -0.03142470 0.12249748 -0.02308150
v -0.03524728 0.11989252 -0.02308150
v -0.03871275 0.11963201 -0.01488754
v -0.03817711 0.04857525 -0.01624583
v -0.02963312 0.03974568 -0.02308150
v -0.03311889 0.03879192 -0.00716424
v -0.03347599 0.03857344 0.00063803
v -0.03540960 0.04857525 0.02162202
v -0.03190658 0.03874781 0.01091838
v -0.00956053 0.12250588 0.03684749
v -0.03444381 0.04857525 -0.02308150
v -0.02769951 0.03880243 0.01960669
v -0.02903457 0.04150403 0.02358996
v -0.02860038 0.04459218 0.02855877
v -0.03187919 0.11963201 0.02644552
v -0.02527693 0.12235883 0.02933110
v 0.00956858 0.12250588 0.03684749
v 0.00136343 0.12210254 0.03958302
v 0.03143275 0.12249748 -0.02308150
v -0.02493606 0.03713861 -0.02308150
v -0.03312092 0.04857525 0.02497668
v -0.02800792 0.03796842 0.01361601
v -0.02649431 0.11963201 0.03184078
v 0.02528294 0.12235883 0.02933110
v 0.03416780 0.12245547 0.01771773
v 0.03690285 0.12249748 -0.00961232
v -0.02239579 0.12134206 0.03444679
v -0.00581912 0.12109417 0.04101081
v -0.02186014 0.03789489 0.02181471
v -0.02127377 0.04446193 0.03417356
v -0.02167754 0.04857525 0.03537549
v -0.02826560 0.04857525 0.03029612
v 0.03962978 0.12206892 -0.00141204
v 0.00581905 0.12109417 0.04101081
v 0.02239978 0.12134206 0.03444364
v 0.00000402 0.11963201 0.04143409
v 0.04104194 0.12106895 -0.00576489
v -0.02049262 0.03666803 -0.02308150
v -0.00956053 0.03781926 0.02864722
v -0.02059407 0.04167629 0.03147120
v -0.02099174 0.11963201 0.03574823
v 0.03449243 0.12134206 0.02234223
v 0.03874515 0.12150591 0.01333014
v -0.01625613 0.11963201 0.03814261
v -0.01037821 0.11826652 0.04007264
v 0.03525532 0.11963201 -0.02308150
v -0.01645091 0.03898729 0.03004341
v -0.01325731 0.04537681 0.03844901
v 0.04105006 0.12107735 0.00570160
v 0.04135035 0.11963201 -0.00277981
v 0.01161378 0.11826652 0.03975518
v 0.01900329 0.11963201 0.03676694
v -0.01667207 0.04857525 0.03794992
v -0.00272291 0.04857525 0.04135828
v 0.03933152 0.11894926 -0.01293065
v 0.03818515 0.04857525 -0.01623319
v 0.03444374 0.04857525 -0.02308150
v 0.02050066 0.03665963 -0.02308150
v 0.01571839 0.03785707 0.02523096
v -0.01197298 0.04163007 0.03560766
v -0.00583535 0.04701227 0.04101081
v 0.02865712 0.11963201 0.02994233
v 0.03312085 0.11963201 0.02496404
v 0.03578692 0.11963201 0.02092708
v 0.03934978 0.11894926 0.01284684
v 0.00273096 0.04857525 0.04135828
v 0.01559056 0.04857525 0.03843006
v 0.02502121 0.11963201 0.03307587
v -0.01092806 0.04857525 0.03997788
v 0.03996253 0.04857525 -0.01098009
v 0.03381070 0.04581903 -0.02308150
v 0.02463570 0.03710920 -0.02308150
v 0.02801394 0.03797052 0.01361601
v 0.00273502 0.03861336 0.03336964
v -0.00595709 0.03871209 0.03320222
v -0.00545796 0.04354179 0.03909341
v 0.03066174 0.04857525 0.02792701
v 0.03541764 0.04857525 0.02161570
v 0.03820139 0.04857525 0.01618254
v 0.03999094 0.04857525 0.01088206
v 0.04105006 0.04705429 0.00570792
v 0.04140716 0.04857525 -0.00072816
v 0.00583528 0.04701227 0.04101081
v 0.01093205 0.04857525 0.03997788
v 0.02168558 0.04857525 0.03537549
v 0.02650641 0.04857525 0.03184394
v 0.04104194 0.04707109 -0.00577120
v 0.03839211 0.04437159 -0.01203829
v 0.03143275 0.03801463 -0.00072974
v 0.01101726 0.03873730 0.03188342
v 0.02963508 0.03976879 -0.02308150
v 0.03312085 0.03879402 -0.00716108
v 0.03336940 0.03864592 0.00293290
v 0.02770756 0.03880243 0.01960669
v 0.02060414 0.03889643 0.02688065
v 0.00273502 0.04310692 0.03885650
v 0.02860842 0.04460058 0.02855245
v 0.03556373 0.04444092 0.01912656
v 0.03819327 0.04460898 0.01338383
v 0.01203378 0.04433798 0.03836372
v 0.01919401 0.04444092 0.03551447
v 0.03879689 0.04305755 -0.00277823
v 0.03557996 0.04170150 0.01239197
v 0.03775958 0.04257122 0.00712781
v 0.03030464 0.04155865 0.02214006
f 259 261 262
f 259 262 260
f 259 260 263
f 259 263 264
f 259 264 261
f 263 260 265
f 263 265 266
f 263 266 267
f 264 263 268
f 264 268 269
f 261 270 262
f 262 270 260
f 263 267 268
f 269 272 261
f 269 261 264
f 261 272 273
f 261 273 274
f 261 274 270
f 270 275 260
f 260 271 276
f 260 276 265
f 268 277 269
f 269 277 272
f 268 267 278
f 273 272 280
f 273 280 279
f 273 279 281
f 273 281 274
f 274 281 282
f 274 282 270
f 270 283 284
f 270 284 285
f 270 285 275
f 275 271 260
f 271 286 276
f 271 275 285
f 271 285 286
f 266 265 288
f 266 289 267
f 268 290 277
f 268 278 290
f 277 290 280
f 278 267 291
f 281 292 282
f 282 292 283
f 282 283 270
f 276 286 293
f 286 285 284
f 286 284 293
f 276 293 287
f 287 265 276
f 287 293 284
f 287 284 283
f 287 283 301
f 287 301 328
f 287 328 339
f 287 339 353
f 287 353 373
f 287 373 354
f 287 354 340
f 287 340 320
f 287 320 302
f 266 288 289
f 289 291 267
f 277 280 272
f 278 294 295
f 278 295 296
f 278 296 290
f 279 280 297
f 281 298 292
f 292 299 301
f 292 301 283
f 292 300 299
f 265 287 288
f 288 287 302
f 288 302 289
f 290 303 280
f 278 291 294
f 291 304 294
f 290 296 303
f 279 297 305
f 281 279 298
f 280 303 297
f 299 306 307
f 299 307 308
f 299 308 301
f 298 309 292
f 292 309 310
f 292 310 300
f 289 302 304
f 289 304 291
f 296 312 313
f 296 314 303
f 305 297 314
f 279 305 309
f 279 309 298
f 297 303 314
f 307 315 308
f 299 300 316
f 299 316 317
f 299 317 306
f 301 308 319
f 304 302 320
f 304 320 311
f 311 320 321
f 304 311 294
f 294 322 295
f 294 311 322
f 295 322 296
f 296 313 314
f 296 322 312
f 309 305 323
f 306 324 307
f 307 324 325
f 307 325 315
f 308 315 319
f 310 318 316
f 310 316 300
f 306 317 324
f 309 323 326
f 309 326 310
f 310 326 327
f 301 319 328
f 311 329 322
f 312 330 313
f 305 314 313
f 325 331 315
f 315 331 319
f 319 331 332
f 316 333 334
f 316 334 317
f 323 313 335
f 323 335 326
f 326 335 327
f 318 310 336
f 319 337 328
f 328 338 339
f 320 340 321
f 321 340 341
f 321 329 311
f 322 329 342
f 322 342 312
f 312 342 330
f 330 335 313
f 313 323 305
f 324 317 344
f 324 344 345
f 324 346 325
f 325 346 347
f 325 347 331
f 318 348 316
f 318 336 348
f 333 349 334
f 317 334 350
f 317 350 344
f 335 351 327
f 310 327 343
f 336 310 343
f 337 352 338
f 328 337 338
f 338 353 339
f 340 354 355
f 340 355 341
f 341 356 321
f 321 356 357
f 321 357 329
f 330 343 351
f 330 351 335
f 343 330 358
f 345 344 359
f 324 345 346
f 331 364 332
f 348 365 316
f 316 365 366
f 316 366 333
f 333 366 349
f 334 349 367
f 334 367 350
f 350 368 344
f 351 343 327
f 336 343 348
f 332 364 369
f 332 369 319
f 319 369 352
f 319 352 337
f 352 369 338
f 338 369 370
f 354 371 355
f 341 372 356
f 357 342 329
f 330 342 358
f 344 368 359
f 345 360 346
f 346 361 347
f 360 361 346
f 347 361 362
f 331 363 364
f 331 347 362
f 331 362 363
f 364 363 369
f 348 343 365
f 350 367 368
f 370 373 353
f 370 353 338
f 354 374 371
f 354 373 374
f 371 374 375
f 371 375 376
f 371 376 355
f 355 376 377
f 355 377 341
f 341 377 372
f 356 378 357
f 342 357 358
f 345 359 360
f 360 359 380
f 360 380 361
f 361 380 381
f 361 381 362
f 362 381 363
f 365 349 366
f 349 365 382
f 367 349 383
f 367 379 368
f 368 379 359
f 343 358 378
f 370 369 384
f 376 375 385
f 357 378 358
f 363 381 386
f 363 386 369
f 369 386 384
f 343 378 365
f 365 378 382
f 382 378 372
f 382 383 349
f 382 372 383
f 383 379 367
f 384 374 370
f 374 373 370
f 375 374 384
f 375 386 385
f 356 372 378
f 379 380 359
f 381 380 385
f 381 385 386
f 383 372 377
f 375 384 386
f 385 387 376
f 377 376 387
f 379 387 380
f 380 387 385
f 383 387 379
f 387 383 377

