# https://github.com/mikedh/trimesh

o collision
v -0.03459200 -0.06099900 -0.02193300
v -0.03796400 -0.06099800 -0.01542400
v -0.04013000 -0.06099800 -0.00809100
v -0.04101100 -0.06099600 0.00004900
v -0.03481100 -0.06517400 -0.00353200
v -0.03491300 -0.06522800 0.00159600
v -0.03095900 -0.06758600 0.00190200
v -0.03590117 -0.04401200 -0.01978100
v -0.03566800 -0.05297800 -0.02022100
v -0.03564776 -0.05161300 -0.02025047
v -0.03566967 -0.05162635 -0.02021591
v -0.03359900 -0.05297800 -0.02350900
v -0.03339400 -0.05161300 -0.02379900
v -0.03350200 -0.05161300 -0.02364200
v -0.03345494 -0.05161300 -0.02370305
v -0.03201168 -0.05300800 -0.02549463
v -0.03201168 -0.05297800 -0.02549463
v -0.03138300 -0.05297800 -0.02639100
v -0.03129500 -0.05161300 -0.02648500
v -0.03317920 -0.05161300 -0.02405825
v -0.03316601 -0.05161300 -0.02407482
v -0.03565868 -0.04970426 -0.02023562
v -0.03565400 -0.04401200 -0.02025100
v -0.03561323 -0.04401200 -0.02031465
v -0.03576900 -0.04401200 -0.02004600
v -0.03369385 -0.04401200 -0.02336666
v -0.03391764 -0.04401200 -0.02301095
v -0.03150666 -0.04401200 -0.02623539
v -0.03142352 -0.04401200 -0.02633811
v -0.03848800 -0.05297800 -0.01413500
v -0.03999700 -0.05297800 -0.00900600
v -0.04000975 -0.05161300 -0.00893855
v -0.03934700 -0.05297800 -0.01154200
v -0.03958890 -0.05300800 -0.01018866
v -0.03958890 -0.05297800 -0.01018866
v -0.03740400 -0.05297800 -0.01680800
v -0.03743600 -0.05161300 -0.01673600
v -0.03652700 -0.05297800 -0.01853600
v -0.03653736 -0.05297800 -0.01851078
v -0.03651085 -0.05297800 -0.01856244
v -0.04057500 -0.05297800 -0.00594800
v -0.04057500 -0.05161300 -0.00594800
v -0.04058804 -0.05161300 -0.00581381
v -0.04094486 -0.05297800 -0.00211486
v -0.04100110 -0.05297800 -0.00018923
v -0.04099957 -0.05297800 -0.00001156
v -0.04100281 -0.05300800 0.00004700
v -0.04100701 -0.05297800 0.00002523
v -0.04099147 -0.05297814 0.00072537
v -0.04094549 -0.05164300 -0.00210096
v -0.04094549 -0.05161300 -0.00210096
v -0.04100800 -0.05161300 0.00004700
v -0.04099726 -0.05161300 0.00033877
v -0.03846705 -0.04401200 -0.01418477
v -0.04006100 -0.04401200 -0.00868198
v -0.03998900 -0.04401300 -0.00904700
v -0.03736552 -0.04401200 -0.01688473
v -0.03737400 -0.04401200 -0.01687400
v -0.03737710 -0.04401200 -0.01685957
v -0.03727695 -0.04401200 -0.01706358
v -0.03762947 -0.04401200 -0.01627282
v -0.03712721 -0.04401200 -0.01735608
v -0.04056703 -0.04401200 -0.00601087
v -0.04057300 -0.04401200 -0.00598000
v -0.04061600 -0.04401200 -0.00560600
v -0.04094823 -0.04404200 -0.00203204
v -0.04094000 -0.04401200 -0.00224392
v -0.04094658 -0.04401200 -0.00205491
v -0.04094823 -0.04401200 -0.00203204
v -0.04096000 -0.04401200 -0.00184700
v -0.04099870 -0.04404200 -0.00001827
v -0.04099793 -0.04401200 -0.00006534
v -0.04100392 -0.04401200 -0.00002782
v -0.04100547 -0.04401200 0.00000036
v -0.04099944 -0.04401200 0.00018809
v -0.04098600 -0.04401200 0.00119200
v -0.02625900 -0.06099900 -0.03144900
v -0.03052600 -0.06099900 -0.02734100
v -0.02181500 -0.06880500 -0.02206000
v -0.02097600 -0.06099900 -0.03521200
v -0.03068600 -0.06485000 -0.01872000
v -0.02774800 -0.06805900 -0.01352900
v -0.02598733 -0.05297800 -0.03166926
v -0.02597509 -0.05300800 -0.03164883
v -0.02593937 -0.05297800 -0.03167827
v -0.02971606 -0.05297800 -0.02823900
v -0.02970431 -0.05161300 -0.02825285
v -0.02969868 -0.05161436 -0.02825914
v -0.02970394 -0.05158300 -0.02825327
v -0.02916279 -0.05297800 -0.02878135
v -0.02737300 -0.05297800 -0.03052400
v -0.02724005 -0.05297800 -0.03063440
v -0.02766600 -0.05161300 -0.03026000
v -0.02765956 -0.05164300 -0.03026482
v -0.02599900 -0.04363100 -0.03810500
v -0.02599900 -0.04397400 -0.03666600
v -0.02687813 -0.04401200 -0.03093513
v -0.02974604 -0.04401200 -0.02821164
v -0.02940102 -0.04401200 -0.02854700
v -0.02728546 -0.04401200 -0.03059571
v -0.02512100 -0.05297800 -0.03239400
v -0.02513700 -0.05161300 -0.03238600
v -0.02513700 -0.05161300 -0.03238700
v -0.02346700 -0.05297800 -0.03361400
v -0.02191000 -0.05297800 -0.03464705
v -0.02181300 -0.05161300 -0.03471400
v -0.02098450 -0.05297800 -0.03520166
v -0.02098397 -0.05300800 -0.03520204
v -0.02096642 -0.05297800 -0.03521087
v -0.02519900 -0.04397600 -0.03668000
v -0.02519900 -0.04374500 -0.03773000
v -0.02507931 -0.04401200 -0.03243198
v -0.02347700 -0.04401200 -0.03360700
v -0.02425565 -0.04401069 -0.03306200
v -0.02425498 -0.04400944 -0.03306248
v -0.02425447 -0.04400769 -0.03306286
v -0.02425411 -0.04400573 -0.03306312
v -0.02425368 -0.04400054 -0.03306344
v -0.02425384 -0.04400326 -0.03306332
v -0.02425360 -0.04399734 -0.03306350
v -0.02422447 -0.04400769 -0.03306286
v -0.02353680 -0.04401200 -0.03356084
v -0.02190543 -0.04401200 -0.03464969
v -0.02180700 -0.04401200 -0.03471500
v -0.04089617 -0.05297881 0.00438032
v -0.04090400 -0.05161300 0.00434900
v -0.04084963 -0.05298101 0.01493233
v -0.04091100 -0.04401200 0.00416500
v -0.04087377 -0.04401200 0.00486339
v -0.04086468 -0.04401200 0.00505000
v -0.04083400 -0.04401200 0.00575800
v -0.04002485 -0.04401200 0.02114521
v -0.04001375 -0.04401200 0.02135793
v -0.04001500 -0.04401200 0.02135700
v -0.03999700 -0.05161300 0.02567500
v -0.03999700 -0.05297800 0.03127700
v -0.03999700 -0.05298360 0.03127700
v -0.03972566 -0.05296487 0.03135384
v -0.02499500 -0.06839400 0.04780100
v -0.02549821 -0.04401901 0.03210703
v -0.02241000 -0.04402681 0.03433500
v -0.02228843 -0.04401200 0.03441242
v -0.02220954 -0.04401200 0.03446266
v -0.02205295 -0.04404200 0.03455920
v -0.02201900 -0.04401200 0.03458400
v -0.02147437 -0.04402700 0.03490310
v -0.03935200 -0.03493000 -0.01152200
v -0.03734200 -0.03493000 -0.01694000
v -0.03734200 -0.03493000 -0.01693400
v -0.02599900 -0.04297600 -0.03936000
v -0.02599900 -0.04205900 -0.04043200
v -0.02599900 -0.04103500 -0.04117300
v -0.02599900 -0.04004600 -0.04164300
v -0.02599800 -0.03868000 -0.04197300
v -0.02600300 -0.03493000 -0.04198100
v -0.02519900 -0.04283300 -0.03955800
v -0.02519900 -0.04210300 -0.04038800
v -0.02519900 -0.04340400 -0.03862600
v -0.02519900 -0.04110000 -0.04114400
v -0.02519900 -0.03996200 -0.04167200
v -0.02519900 -0.03866600 -0.04197300
v -0.02520070 -0.03493000 -0.04196536
v -0.02520400 -0.03493000 -0.04197700
v -0.02348200 -0.03493000 -0.03360700
v -0.02425282 -0.03493000 -0.03306418
v -0.02422282 -0.03493000 -0.03306418
v -0.02204920 -0.03493000 -0.03457620
v -0.02201920 -0.03493000 -0.03457620
v -0.04068677 -0.03496000 0.00851656
v -0.04005606 -0.03493000 0.01974900
v -0.04005500 -0.03493000 0.01974900
v -0.02596500 -0.03493000 0.03173800
v -0.02566261 -0.03494352 0.03198011
v -0.02211644 -0.03493000 0.03452581
v -0.01653700 -0.06596000 -0.03130300
v -0.01901300 -0.06909400 -0.02448800
v -0.01628300 -0.06100000 -0.03757500
v -0.01088200 -0.06969100 -0.02893945
v -0.01088200 -0.06969100 -0.02894000
v -0.01801600 -0.05161300 -0.03683300
v -0.02020000 -0.05297800 -0.03567700
v -0.01786300 -0.05297800 -0.03690500
v -0.01556100 -0.05297800 -0.03792750
v -0.01553585 -0.05164300 -0.03793700
v -0.02019058 -0.04404200 -0.03567837
v -0.02019058 -0.04401200 -0.03567837
v -0.02028200 -0.04401200 -0.03563000
v -0.01793100 -0.04401200 -0.03687400
v -0.01787740 -0.04401200 -0.03689775
v -0.01541200 -0.04401200 -0.03799000
v -0.01472385 -0.05300800 -0.03818770
v -0.01472385 -0.05297800 -0.03818770
v -0.01370575 -0.05297800 -0.03863867
v -0.01375300 -0.05161300 -0.03862300
v -0.01186600 -0.05297800 -0.03924100
v -0.01465970 -0.04401200 -0.03827732
v -0.01466337 -0.04401200 -0.03827471
v -0.01375200 -0.04401200 -0.03862400
v -0.01198044 -0.04401200 -0.03920275
v -0.01196600 -0.04401200 -0.03921000
v -0.00831800 -0.06633800 -0.03431300
v -0.00820600 -0.06100100 -0.04014900
v -0.00368200 -0.06995800 -0.03075000
v -0.00275500 -0.06100300 -0.04091800
v -0.00968900 -0.05297800 -0.03983482
v -0.00676600 -0.05297800 -0.04044674
v -0.00672800 -0.05161300 -0.04045300
v -0.00966600 -0.04401300 -0.03984300
v -0.00670500 -0.04401200 -0.04045400
v -0.00273709 -0.05297800 -0.04091800
v -0.00273715 -0.05297800 -0.04091800
v -0.00273800 -0.05297800 -0.04091800
v -0.00276048 -0.05297800 -0.04091489
v -0.00271101 -0.04401300 -0.04091908
v -0.00271300 -0.04401200 -0.04091900
v -0.01696000 -0.06925900 0.04510000
v -0.01060901 -0.06970200 0.04384500
v -0.01060900 -0.06970200 0.04384500
v -0.01777500 -0.05161300 0.03694300
v -0.01579200 -0.05161300 0.03783400
v -0.01967868 -0.04403682 0.03596417
v -0.01777500 -0.04401300 0.03694300
v -0.01578875 -0.04404200 0.03783086
v -0.01578875 -0.04401200 0.03783086
v -0.01379300 -0.05161300 0.03860500
v -0.01179400 -0.05298428 0.03926300
v -0.01179400 -0.05161300 0.03926300
v -0.01382900 -0.04401200 0.03858900
v -0.01178607 -0.04404200 0.03926516
v -0.01180163 -0.04401200 0.03926146
v -0.01178914 -0.04401200 0.03926516
v -0.00099994 -0.06998100 0.04305273
v -0.00099998 -0.06998100 0.04305504
v -0.00100001 -0.06998100 0.04305504
v -0.00100000 -0.06998100 0.04305506
v -0.00976595 -0.05298437 0.03981548
v -0.00971500 -0.05161300 0.03982900
v -0.00763334 -0.05298445 0.04027435
v -0.00753900 -0.05161300 0.04029400
v -0.00552345 -0.05298450 0.04061914
v -0.00549200 -0.05161300 0.04062700
v -0.00968029 -0.04401200 0.03983615
v -0.00868262 -0.04404200 0.04005093
v -0.00868262 -0.04401200 0.04005093
v -0.00869092 -0.04401200 0.04004916
v -0.00764100 -0.04401200 0.04027400
v -0.00659400 -0.04401200 0.04045100
v -0.00553966 -0.04404200 0.04061776
v -0.00553966 -0.04401200 0.04061776
v -0.00553201 -0.04399185 0.04061900
v -0.00233727 -0.05298456 0.04094000
v -0.00235300 -0.05161300 0.04094000
v -0.00234064 -0.05161300 0.04094021
v -0.00246061 -0.04404200 0.04093084
v -0.00244863 -0.04401200 0.04093203
v -0.00216800 -0.04401200 0.04094800
v -0.00082478 -0.04401200 0.04096329
v -0.01179900 -0.03493000 0.03926300
v -0.02497800 -0.06802000 0.07571900
v -0.03998400 -0.06099800 0.09914400
v -0.03875800 -0.06099800 0.10735800
v -0.03389600 -0.06403100 0.09893300
v -0.03101000 -0.06394800 0.11181700
v -0.03588900 -0.06099700 0.11559100
v -0.03209100 -0.06099900 0.12181000
v -0.03998400 -0.05299800 0.09893700
v -0.03792100 -0.05299800 0.11058100
v -0.03454200 -0.05299800 0.11807400
v -0.02889600 -0.06606200 0.10020600
v -0.02223300 -0.06741100 0.10923700
v -0.02796900 -0.06099800 0.12656300
v -0.02383800 -0.06510300 0.11884800
v -0.02175036 -0.06099800 0.13146514
v -0.02174800 -0.06099800 0.13146700
v -0.02900200 -0.05299800 0.12538500
v -0.02168100 -0.05300000 0.13155800
v -0.01732300 -0.06883300 0.07518300
v -0.00818200 -0.06960000 0.06549300
v -0.01654900 -0.06767300 0.11661900
v -0.01647694 -0.06767599 0.11666774
v -0.01982800 -0.06367300 0.12675101
v -0.01043300 -0.06792700 0.12075600
v -0.01211600 -0.06442800 0.12926701
v -0.01409800 -0.06100000 0.13539299
v -0.01429000 -0.05300000 0.13530999
v -0.00623100 -0.06904000 0.09329600
v -0.00789200 -0.06099900 0.13719700
v -0.00485056 -0.06805844 0.12247451
v -0.00478400 -0.06806000 0.12249500
v -0.00112300 -0.06100000 0.13796400
v -0.00608800 -0.05300000 0.13754100
v -0.03496615 -0.01354700 -0.02132196
v -0.03495135 -0.01357700 -0.02134542
v -0.03496615 -0.01357700 -0.02132402
v -0.03221885 -0.01357700 -0.02533318
v -0.03995500 -0.01357700 -0.00918400
v -0.03934502 -0.01357700 -0.01151303
v -0.03934316 -0.01357700 -0.01153401
v -0.03935700 -0.01357700 -0.01149200
v -0.03934231 -0.01354700 -0.01152406
v -0.03934315 -0.01357700 -0.01152938
v -0.03726032 -0.01357700 -0.01710467
v -0.03727058 -0.01357700 -0.01708124
v -0.03726500 -0.01357700 -0.01709600
v -0.03791100 -0.01357700 -0.01558500
v -0.03842200 -0.01357700 -0.01431800
v -0.04054637 -0.01357700 -0.00610596
v -0.04055200 -0.01357700 -0.00610300
v -0.04054637 -0.01354700 -0.00610596
v -0.04027000 -0.01357700 -0.00760200
v -0.04073800 -0.01357700 -0.00438700
v -0.04091600 -0.01357700 -0.00257300
v -0.04097000 -0.01357700 -0.00146300
v -0.04099600 -0.01357700 -0.00039922
v -0.04099600 -0.01358649 0.00011098
v -0.04099600 -0.01357700 0.00001158
v -0.04098931 -0.01357700 0.00033468
v -0.02628383 -0.01357700 -0.04179221
v -0.02620026 -0.01358708 -0.04198017
v -0.02620293 -0.01354700 -0.04196516
v -0.02620293 -0.01357700 -0.04196516
v -0.02619500 -0.01357700 -0.04199900
v -0.02619500 -0.01357700 -0.04199226
v -0.02703248 -0.01274286 -0.03096200
v -0.02703248 -0.01274286 -0.03099200
v -0.02618509 -0.01354700 -0.03556921
v -0.02618509 -0.01357700 -0.03556921
v -0.02689813 -0.01357700 -0.03098364
v -0.02689773 -0.01354700 -0.03101272
v -0.02689813 -0.01354700 -0.03098655
v -0.02689806 -0.01354700 -0.03100981
v -0.02830700 -0.00530500 -0.04199900
v -0.02819617 -0.00585713 -0.03555611
v -0.02837921 -0.00487334 -0.03554600
v -0.02846200 -0.00438200 -0.03099200
v -0.02769300 -0.00790200 -0.04199900
v -0.02770000 -0.00788300 -0.03557237
v -0.02770000 -0.00788300 -0.03557600
v -0.02793838 -0.00694925 -0.03556892
v -0.02523000 -0.01467800 -0.04199900
v -0.02538600 -0.01357700 -0.04199900
v -0.02538500 -0.01357700 -0.04199677
v -0.02537977 -0.01357700 -0.03557600
v -0.02537977 -0.01354700 -0.03557600
v -0.02202041 -0.01660669 -0.03457903
v -0.02241582 -0.01357700 -0.03540066
v -0.02242031 -0.01357700 -0.03540119
v -0.02213081 -0.01357700 -0.03476659
v -0.02205017 -0.01361872 -0.03457848
v -0.02205018 -0.01357700 -0.03457848
v -0.02202018 -0.01357700 -0.03457848
v -0.02083096 -0.01357700 -0.03530093
v -0.02055100 -0.01357708 -0.03547100
v -0.02083000 -0.01143698 -0.03532482
v -0.02080000 -0.01143698 -0.03532482
v -0.02871000 -0.00238500 -0.04199900
v -0.02865200 -0.00292200 -0.03099200
v -0.02876200 -0.00155400 -0.03099200
v -0.02879400 0.00079500 -0.04199900
v -0.02879802 -0.00028563 -0.03096200
v -0.02879802 -0.00028563 -0.03099200
v -0.02880481 -0.00002991 -0.03099174
v -0.02880500 -0.00003700 -0.03099200
v -0.02880482 -0.00004636 -0.03099078
v -0.02879044 0.00066817 -0.03099200
v -0.02879044 0.00066817 -0.03096200
v -0.02878600 0.00088400 -0.03099200
v -0.02868700 0.00252600 -0.03557600
v -0.02873100 0.00205000 -0.03099200
v -0.02864262 0.00295175 -0.04199900
v -0.02864000 0.00298900 -0.04199900
v -0.02854224 0.00367287 -0.04199900
v -0.02829200 0.00542600 -0.04199900
v -0.02861358 0.00325652 -0.03557600
v -0.02834873 0.00509432 -0.03557600
v -0.02759745 0.00458810 -0.04199900
v -0.02759218 0.00459087 -0.03557600
v -0.02813191 0.00615856 -0.03557600
v -0.02708955 0.00564184 -0.03557600
v -0.02758000 0.00831100 -0.04199900
v -0.02784583 0.00731937 -0.03557600
v -0.02783879 0.00734553 -0.03557600
v -0.02752166 0.00850100 -0.03557600
v -0.02752227 0.00849912 -0.03557614
v -0.02752200 0.00850100 -0.03557600
v -0.02723404 0.00934334 -0.03557600
v -0.04093885 -0.01357700 0.00331256
v -0.04081861 -0.01357700 0.00582090
v -0.04081606 -0.01357700 0.00591173
v -0.04069900 -0.01357700 0.00829600
v -0.04020500 -0.01477900 0.01618100
v -0.04026952 -0.01357700 0.01511744
v -0.04022600 -0.01357700 0.01576460
v -0.04022600 -0.01357700 0.01576300
v -0.04022900 -0.01357700 0.01576100
v -0.03162935 -0.01358912 0.02608709
v -0.03154198 -0.01360461 0.02619202
v -0.03139145 -0.01357700 0.02635659
v -0.02935261 -0.01357700 0.02861820
v -0.02897852 -0.01357700 0.02899435
v -0.02897802 -0.01357700 0.02899697
v -0.02868349 -0.01357700 0.02929033
v -0.02787100 -0.01357700 0.03003300
v -0.02620100 -0.01357700 0.03153200
v -0.02580415 -0.01357700 0.03185301
v -0.02580187 -0.01357700 0.03185506
v -0.02541400 -0.01357710 0.03216900
v -0.02459700 -0.01357700 0.03276900
v -0.02277900 -0.01357700 0.03408800
v -0.02235225 -0.01357700 0.03436213
v -0.02235100 -0.01357700 0.03436374
v -0.02204400 -0.01357700 0.03456800
v -0.03451100 0.02999800 -0.02214100
v -0.03204700 0.02999800 -0.02558000
v -0.03963600 0.02999800 -0.01040500
v -0.03834800 0.02999800 -0.01451700
v -0.03663000 0.02999800 -0.01836100
v -0.04052300 0.02999800 -0.00627900
v -0.04092900 0.02999800 -0.00197000
v -0.04094100 0.02999800 0.00221900
v -0.03702200 0.03322100 0.00282300
v -0.03535900 0.03345800 -0.01024700
v -0.03309500 0.03290300 -0.01792900
v -0.03134100 0.03599600 -0.00873300
v -0.03474500 0.03458200 -0.00520600
v -0.03263300 0.03600100 -0.00126200
v -0.02692900 0.01019900 -0.04199900
v -0.02598300 0.01243100 -0.04199900
v -0.02701004 0.00999047 -0.03557600
v -0.02670106 0.01078628 -0.03557567
v -0.02639406 0.01151010 -0.03557580
v -0.02602900 0.01233000 -0.03557577
v -0.02566151 0.01307299 -0.03557600
v -0.02767253 0.01766893 -0.03099200
v -0.02767253 0.01766893 -0.03096200
v -0.02454300 0.01507600 -0.04199900
v -0.02477900 0.01468600 -0.03557600
v -0.02293000 0.01743200 -0.04199900
v -0.02083108 0.01866994 -0.04199900
v -0.02083000 0.01867193 -0.04199494
v -0.02083074 0.01867075 -0.04173747
v -0.02082949 0.01872940 -0.04199900
v -0.02080000 0.01867195 -0.04199724
v -0.02085986 0.01865189 -0.03751936
v -0.02083000 0.01865189 -0.03751936
v -0.02080000 0.01733736 -0.03533286
v -0.02083000 0.01850391 -0.03557412
v -0.02086000 0.01867096 -0.03557600
v -0.02083000 0.01864317 -0.03557600
v -0.02083000 0.01867096 -0.03557600
v -0.02083000 0.01864200 -0.03533282
v -0.02080000 0.01864200 -0.03533282
v -0.02101115 0.01970482 -0.04199900
v -0.02083000 0.01988000 -0.04199900
v -0.02083000 0.01988200 -0.04199900
v -0.02083000 0.02119200 -0.03557597
v -0.02083000 0.02119200 -0.03557600
v -0.02683700 0.02999800 -0.03098540
v -0.02683700 0.02999800 -0.03099200
v -0.02682095 0.03000812 -0.03098366
v -0.02671663 0.03007393 -0.03098912
v -0.02671663 0.03007393 -0.03096200
v -0.02666847 0.03009748 -0.03099200
v -0.02915400 0.02999800 -0.02880000
v -0.02887300 0.03336000 -0.02322100
v -0.02518000 0.02999800 -0.03235400
v -0.02558300 0.03078900 -0.03099200
v -0.02490390 0.03116710 -0.03099200
v -0.02436085 0.03146251 -0.03099200
v -0.02344300 0.02999800 -0.03363400
v -0.02339100 0.03198300 -0.03099200
v -0.02238200 0.03099500 -0.03313200
v -0.02261100 0.03198300 -0.03159600
v -0.02265900 0.03234900 -0.03099200
v -0.02167700 0.02999800 -0.03479900
v -0.02083000 0.02999800 -0.03529700
v -0.02083000 0.02999900 -0.03529800
v -0.02083000 0.03029500 -0.03494359
v -0.02161068 0.03281326 -0.03099200
v -0.02056800 0.03327300 -0.03099200
v -0.02355200 0.03366500 -0.02797100
v -0.02355100 0.03599600 -0.02255700
v -0.02833900 0.03599600 -0.01610600
v -0.04006200 0.02999800 0.00858900
v -0.03841400 0.02999800 0.01418800
v -0.03650600 0.02999800 0.01861000
v -0.03577600 0.03314200 0.01026600
v -0.03182300 0.03599600 0.00712400
v -0.03403000 0.03245300 0.01750000
v -0.03406400 0.02999800 0.02273200
v -0.03118900 0.02999800 0.02659400
v -0.02822100 0.03599600 0.01612700
v -0.02829500 0.03458100 0.02088900
v -0.02745000 0.03311300 0.02519000
v -0.02107500 0.03599600 0.02496600
v -0.02746800 0.02999800 0.03040900
v -0.02416100 0.02999800 0.03309800
v -0.02059000 0.02999800 0.03543000
v -0.02110700 0.03419300 0.02897500
v -0.01802700 -0.01357700 -0.03682500
v -0.02009013 -0.01357700 -0.03573171
v -0.01972900 -0.01357700 -0.03593900
v -0.01379925 -0.01357700 -0.03860749
v -0.01378597 -0.01357700 -0.03861100
v -0.01230281 -0.01357700 -0.03910574
v -0.01225571 -0.01357700 -0.03911509
v -0.00969424 -0.01360700 -0.03982839
v -0.00970091 -0.01357700 -0.03983506
v -0.00969424 -0.01357700 -0.03982839
v -0.00657700 -0.01357700 -0.04047821
v -0.00660700 -0.01357700 -0.04047600
v -0.00661747 -0.01357700 -0.04047059
v -0.00657700 -0.01357700 -0.04047434
v -0.00581610 -0.01357700 -0.04056517
v -0.00581523 -0.01357700 -0.04056527
v -0.00469437 -0.01357700 -0.04069876
v -0.00333862 -0.01357700 -0.04084447
v -0.01965645 -0.01360337 0.03597254
v -0.01965456 -0.01357700 0.03597351
v -0.01969678 -0.01357700 0.03595000
v -0.01777400 -0.01357700 0.03694300
v -0.01588362 -0.01357700 0.03779124
v -0.01576614 -0.01357700 0.03784039
v -0.01383200 -0.01357700 0.03858900
v -0.01185080 -0.01357700 0.03923963
v -0.01176604 -0.01357700 0.03926557
v -0.01082400 -0.01357700 0.03952800
v -0.00974300 -0.01357700 0.03981700
v -0.00773824 -0.01357700 0.04025557
v -0.00765400 -0.01357977 0.04027400
v -0.00765400 -0.01357724 0.04027400
v -0.00764700 -0.01357700 0.04027800
v -0.00760476 -0.01357700 0.04028189
v -0.00554200 -0.01357958 0.04062000
v -0.00554200 -0.01357700 0.04062000
v -0.00285700 -0.01357700 0.04090000
v -0.00160905 -0.01357700 0.04096479
v -0.00012122 -0.01354700 0.04095298
v -0.00009122 -0.01357700 0.04095298
v -0.01806896 0.01864200 -0.03680002
v -0.01945800 0.01864200 -0.03608700
v -0.01937071 0.01864200 -0.03613270
v -0.01700295 0.01864200 -0.03730555
v -0.01588200 0.01864200 -0.03779600
v -0.01415649 0.01861200 -0.03847518
v -0.01415649 0.01864200 -0.03847518
v -0.01261609 0.01861200 -0.03900563
v -0.01261611 0.01864200 -0.03900563
v -0.02010300 0.03199000 -0.03325400
v -0.01883200 0.03099800 -0.03527100
v -0.02023000 0.03341200 -0.03099200
v -0.02000400 0.03336400 -0.03123200
v -0.01961200 0.03363800 -0.03099200
v -0.01898881 0.03385206 -0.03099200
v -0.01898881 0.03385206 -0.03096200
v -0.01892838 0.03387282 -0.03097486
v -0.01882004 0.03391003 -0.03099200
v -0.01882004 0.03391003 -0.03096200
v -0.01744700 0.03198300 -0.03471600
v -0.01780400 0.03291900 -0.03322200
v -0.01780700 0.03425800 -0.03099200
v -0.01723100 0.03378900 -0.03215300
v -0.01664200 0.03460000 -0.03099200
v -0.01701400 0.03599600 -0.02787700
v -0.01386900 0.02458500 -0.04199900
v -0.01350427 0.02508872 -0.04199900
v -0.01303000 0.02596000 -0.04199900
v -0.01349200 0.02763000 -0.04199400
v -0.01283432 0.02673438 -0.04199900
v -0.01349200 0.02800500 -0.04187500
v -0.01349200 0.02832000 -0.04157900
v -0.01276500 0.02686000 -0.04199900
v -0.01269300 0.02773200 -0.04196600
v -0.01269300 0.02821300 -0.04168900
v -0.01515900 0.03291300 -0.03450600
v -0.01501100 0.03460000 -0.03186700
v -0.01459900 0.03515900 -0.03099200
v -0.01377000 0.03376900 -0.03381800
v -0.01373100 0.03534900 -0.03099200
v -0.01260800 0.03267000 -0.03585600
v -0.01247700 0.03459600 -0.03293800
v -0.01113800 0.03378400 -0.03473500
v -0.01121000 0.03534700 -0.03202600
v -0.01094876 0.03589292 -0.03099200
v -0.01036160 0.03597810 -0.03099200
v -0.01036160 0.03597810 -0.03096200
v -0.00972239 0.01861198 -0.03982833
v -0.00972239 0.01864201 -0.03982833
v -0.00649796 0.01864200 -0.04049300
v -0.00601400 0.01864200 -0.04054900
v -0.00556900 0.01864200 -0.04059800
v -0.00255608 0.01864200 -0.04092500
v -0.00990000 0.03460000 -0.03380700
v -0.01023783 0.03599600 -0.03098520
v -0.01023780 0.03599600 -0.03099200
v -0.00832500 0.03360700 -0.03579900
v -0.00783800 0.03534700 -0.03301400
v -0.00767400 0.03599800 -0.03175000
v -0.00634500 0.03459300 -0.03466300
v -0.00523500 0.03534400 -0.03352200
v -0.00393500 0.03410900 -0.03580000
v -0.00435100 0.03599800 -0.03237500
v -0.00263500 0.03531200 -0.03389700
v -0.00127900 0.03423300 -0.03580000
v -0.00026100 0.03599800 -0.03268400
v -0.01690600 0.03333700 0.03295800
v -0.01679700 0.02999800 0.03737500
v -0.01098900 0.03299600 0.03577600
v -0.01128700 0.02999800 0.03937100
v -0.00760700 0.03599600 0.03178000
v -0.00661100 0.02999800 0.04044400
v -0.00230200 0.03411100 0.03577900
v -0.00211700 0.02999800 0.04092300
v 0.00092937 -0.06999299 -0.03097697
v 0.00093000 -0.06999300 -0.03097700
v 0.00076000 -0.06625700 -0.03545500
v 0.00355500 -0.06100100 -0.04078200
v 0.00752500 -0.06635500 -0.03449300
v 0.00970500 -0.06975900 -0.02940500
v 0.00031200 -0.05297800 -0.04098573
v 0.00027041 -0.05161300 -0.04099103
v 0.00032000 -0.05161300 -0.04099800
v 0.00179361 -0.05297800 -0.04094144
v 0.00275300 -0.05297800 -0.04091000
v 0.00261058 -0.05161300 -0.04091143
v 0.00287793 -0.05161300 -0.04090245
v 0.00288103 -0.05158622 -0.04090234
v 0.00034500 -0.04401300 -0.04099900
v 0.00240300 -0.04401200 -0.04092245
v 0.00284867 -0.04401200 -0.04090034
v 0.00545500 -0.05297800 -0.04062500
v 0.00636709 -0.05297800 -0.04043575
v 0.00636709 -0.05300800 -0.04043575
v 0.00552300 -0.05161300 -0.04062100
v 0.00847700 -0.05297800 -0.04012300
v 0.00851300 -0.04401200 -0.04011600
v 0.01225200 -0.06100100 -0.03903600
v 0.01538100 -0.06940200 -0.02688000
v 0.01865300 -0.06100400 -0.03647400
v 0.01182500 -0.05297800 -0.03926500
v 0.01184100 -0.05161300 -0.03926500
v 0.01343900 -0.05297800 -0.03875100
v 0.01449606 -0.05297800 -0.03829523
v 0.01450156 -0.05300800 -0.03829379
v 0.01202200 -0.04401190 -0.03921800
v 0.01345472 -0.04404200 -0.03875600
v 0.01352188 -0.04401200 -0.03873227
v 0.01548600 -0.05297800 -0.03796400
v 0.01547000 -0.05161300 -0.03797300
v 0.01729200 -0.05297800 -0.03717800
v 0.01719743 -0.05161300 -0.03722128
v 0.01950800 -0.05297800 -0.03606200
v 0.01948400 -0.05161300 -0.03607800
v 0.02011584 -0.05161300 -0.03572322
v 0.02011800 -0.05161300 -0.03572200
v 0.02011584 -0.05158300 -0.03572322
v 0.01548300 -0.04401200 -0.03796500
v 0.01619601 -0.04401200 -0.03765388
v 0.01637691 -0.04401200 -0.03757380
v 0.01730861 -0.04401200 -0.03716807
v 0.01926200 -0.04401200 -0.03619200
v 0.01942335 -0.04401300 -0.03610277
v 0.01942089 -0.04401200 -0.03610413
v 0.01957200 -0.04401300 -0.03603100
v 0.01977172 -0.04401300 -0.03591010
v 0.01977338 -0.04401200 -0.03590918
v 0.00748900 -0.06986000 0.04303100
v 0.00077745 -0.05298457 0.04098914
v 0.00074600 -0.05161300 0.04099700
v 0.00086665 -0.05161300 0.04098902
v 0.00450231 -0.05298454 0.04076414
v 0.00446300 -0.05161300 0.04077200
v 0.00096000 -0.04401200 0.04098900
v 0.00106527 -0.04401200 0.04097603
v 0.00428000 -0.04401200 0.04078000
v 0.00461600 -0.04401200 0.04074818
v 0.00461800 -0.04401200 0.04074766
v 0.00887100 -0.05298442 0.04004100
v 0.00886848 -0.05161300 0.04003700
v 0.00874500 -0.04401200 0.04006600
v 0.00896662 -0.04401200 0.04001816
v 0.00897200 -0.04401200 0.04001700
v 0.00898241 -0.04401200 0.04001272
v 0.01299714 -0.05298425 0.03889400
v 0.01300500 -0.05161300 0.03889400
v 0.01287100 -0.04401200 0.03893400
v 0.01308494 -0.04401200 0.03886334
v 0.01308469 -0.04401200 0.03886200
v 0.01308469 -0.04401200 0.03886299
v 0.01702276 -0.05161303 0.03730513
v 0.01685800 -0.04401200 0.03738500
v 0.01694790 -0.04401200 0.03734295
v 0.01705789 -0.04401200 0.03728900
v 0.01707000 -0.04401200 0.03728900
v 0.01715181 -0.04401200 0.03724020
v 0.01705900 -0.03493000 -0.03728500
v 0.02064000 -0.06892600 -0.02306400
v 0.02590700 -0.06100200 -0.03176000
v 0.02692400 -0.06817100 -0.01501400
v 0.03012200 -0.06771600 -0.00749000
v 0.02075200 -0.05297800 -0.03536400
v 0.02064800 -0.05161300 -0.03542800
v 0.02279500 -0.05297800 -0.03407800
v 0.02304930 -0.05297800 -0.03371800
v 0.02305371 -0.05300800 -0.03371068
v 0.02251286 -0.05161300 -0.03425685
v 0.02280720 -0.05161300 -0.03407200
v 0.02289000 -0.05161300 -0.03402000
v 0.02505900 -0.05297800 -0.03245400
v 0.02509410 -0.05161300 -0.03242917
v 0.02068500 -0.04401200 -0.03540500
v 0.02270085 -0.04401200 -0.03413706
v 0.02282022 -0.04401200 -0.03406634
v 0.02282800 -0.04401200 -0.03406500
v 0.02520300 -0.04369800 -0.03790300
v 0.02520300 -0.04397500 -0.03664200
v 0.02505881 -0.04401179 -0.03247754
v 0.02505863 -0.04401064 -0.03247768
v 0.02505854 -0.04400924 -0.03247776
v 0.02505847 -0.04400767 -0.03247781
v 0.02505828 -0.04401190 -0.03247252
v 0.02505839 -0.04400338 -0.03247788
v 0.02505842 -0.04400563 -0.03247785
v 0.02503498 -0.04401190 -0.03247252
v 0.02508551 -0.04401200 -0.03243114
v 0.02681400 -0.05297800 -0.03101400
v 0.02682200 -0.05161300 -0.03100600
v 0.02811400 -0.05297800 -0.02983800
v 0.02747698 -0.05161300 -0.03041472
v 0.02748943 -0.05161300 -0.03040305
v 0.02778488 -0.05161300 -0.03012288
v 0.02813800 -0.05161300 -0.02981800
v 0.02959500 -0.05297800 -0.02836500
v 0.03019755 -0.05297800 -0.02763617
v 0.03022651 -0.05297800 -0.02760664
v 0.02963771 -0.05161300 -0.02832628
v 0.02600300 -0.04361600 -0.03812100
v 0.02600300 -0.04387200 -0.03724000
v 0.02600300 -0.04399100 -0.03636500
v 0.02687914 -0.04401198 -0.03096363
v 0.02688826 -0.04401198 -0.03095592
v 0.02950723 -0.04404200 -0.02846147
v 0.02949800 -0.04401200 -0.02847600
v 0.03067200 -0.04401200 -0.02720900
v 0.03249400 -0.06100400 -0.02484600
v 0.03668900 -0.06099900 -0.01824000
v 0.03912600 -0.06099800 -0.01219000
v 0.03789300 -0.06326800 0.00014600
v 0.04041400 -0.06100000 -0.00682500
v 0.04100900 -0.06099900 -0.00035200
v 0.03077100 -0.05297800 -0.02709700
v 0.03207200 -0.05297800 -0.02553200
v 0.03228100 -0.05161300 -0.02527500
v 0.03228100 -0.05161300 -0.02527600
v 0.03359700 -0.05297800 -0.02349300
v 0.03360500 -0.05161300 -0.02348600
v 0.03471300 -0.05297800 -0.02181600
v 0.03579561 -0.05297800 -0.01969931
v 0.03582041 -0.05300800 -0.01965198
v 0.03582041 -0.05297800 -0.01965198
v 0.03212731 -0.04401200 -0.02546191
v 0.03348300 -0.04401200 -0.02365400
v 0.03461010 -0.04401200 -0.02196910
v 0.03474800 -0.04401200 -0.02174170
v 0.03575500 -0.04401200 -0.02006200
v 0.03583000 -0.04401200 -0.01993100
v 0.03588900 -0.05297800 -0.01982500
v 0.03594200 -0.05161300 -0.01973700
v 0.03594997 -0.04401200 -0.01971309
v 0.03595576 -0.04401200 -0.01970750
v 0.03595300 -0.04401200 -0.01971300
v 0.03745900 -0.05297800 -0.01670300
v 0.03865500 -0.05297800 -0.01369300
v 0.03962700 -0.05297800 -0.01057900
v 0.03956231 -0.05161605 -0.01080278
v 0.03977755 -0.05300804 -0.00946923
v 0.03977755 -0.05300800 -0.00946922
v 0.03977671 -0.05297800 -0.00947140
v 0.04025300 -0.05297800 -0.00778600
v 0.04059000 -0.05297800 -0.00578000
v 0.04087100 -0.05297800 -0.00334800
v 0.04022500 -0.05161300 -0.00793900
v 0.04057408 -0.05161880 -0.00587950
v 0.04086981 -0.05161880 -0.00335834
v 0.04100100 -0.05297800 -0.00041300
v 0.04100103 -0.05297800 -0.00041277
v 0.04100700 -0.05297800 -0.00028200
v 0.04099482 -0.05297800 0.00043766
v 0.04098865 -0.05297800 0.00080200
v 0.04099485 -0.05161300 -0.00054868
v 0.04100700 -0.05161300 -0.00027400
v 0.03704300 -0.04401200 -0.01754200
v 0.03745852 -0.04401200 -0.01669700
v 0.03746400 -0.04401200 -0.01669700
v 0.03865846 -0.04401200 -0.01367953
v 0.03956230 -0.04401200 -0.01080097
v 0.03965219 -0.04404200 -0.01044939
v 0.03965008 -0.04401200 -0.01047195
v 0.04022898 -0.04401200 -0.00790712
v 0.04025537 -0.04401200 -0.00778100
v 0.04059791 -0.04404200 -0.00572459
v 0.04059752 -0.04401200 -0.00573563
v 0.04099903 -0.04401200 -0.00048220
v 0.04100500 -0.04401200 -0.00038600
v 0.04095850 -0.04401200 0.00263600
v 0.02516000 -0.06839600 0.03974700
v 0.02086235 -0.04403271 0.03530380
v 0.02086235 -0.04400271 0.03530380
v 0.02065862 -0.04401200 0.03542724
v 0.02077925 -0.04402218 0.03535433
v 0.02076890 -0.04401200 0.03536060
v 0.02423800 -0.04401197 0.03307500
v 0.02430195 -0.04401300 0.03302604
v 0.02460508 -0.04401300 0.03279394
v 0.02460678 -0.04401300 0.03279394
v 0.02505834 -0.04401300 0.03242474
v 0.03083600 -0.06760600 0.00353400
v 0.04094300 -0.05297800 0.00349900
v 0.04094441 -0.05164307 0.00340710
v 0.04094444 -0.05161300 0.00340512
v 0.04094300 -0.05161300 0.00349000
v 0.04093942 -0.04401200 0.00354289
v 0.04071101 -0.04401200 0.00822388
v 0.03907777 -0.04401300 0.02205651
v 0.04002100 -0.04401200 0.02135900
v 0.03723473 -0.05298405 0.03086267
v 0.04000400 -0.05297800 0.02994500
v 0.04000400 -0.05298487 0.02994500
v 0.04000400 -0.05161300 0.02570700
v 0.02520300 -0.04268300 -0.03976000
v 0.02520300 -0.04326700 -0.03887900
v 0.02520300 -0.04182900 -0.04062700
v 0.02520300 -0.04081900 -0.04130400
v 0.02520300 -0.03969300 -0.04176300
v 0.02520300 -0.03851300 -0.04198200
v 0.02520723 -0.03493000 -0.04198899
v 0.02520600 -0.03493000 -0.04198500
v 0.02520536 -0.03493000 -0.04183882
v 0.02520694 -0.03490000 -0.04198502
v 0.02502833 -0.03493000 -0.03247517
v 0.02505617 -0.03493000 -0.03247517
v 0.02513410 -0.03493000 -0.03239474
v 0.02516410 -0.03493000 -0.03239474
v 0.02513411 -0.03301297 -0.03239508
v 0.02600300 -0.04307800 -0.03921400
v 0.02600300 -0.04232400 -0.04016100
v 0.02600300 -0.04164400 -0.04076500
v 0.02600300 -0.04087900 -0.04126800
v 0.02600300 -0.03990100 -0.04169800
v 0.02600300 -0.03864500 -0.04197500
v 0.02600700 -0.03493000 -0.04197500
v 0.03747130 -0.03496000 -0.01667623
v 0.03747000 -0.03493000 -0.01668000
v 0.03865900 -0.03493000 -0.01367657
v 0.04087200 -0.03493000 -0.00332500
v 0.02413200 -0.03493000 0.03315500
v 0.02516400 -0.03495684 0.03234084
v 0.02744229 -0.03494620 0.03046964
v 0.02745385 -0.03491614 0.03046013
v 0.02516297 -0.02931003 0.03234610
v 0.04094600 -0.03493000 0.00342200
v 0.04071000 -0.03493002 0.00825303
v 0.04006129 -0.03492882 0.01975460
v 0.04006200 -0.03493000 0.01975400
v 0.00818900 -0.06963000 0.06341900
v 0.00000200 -0.06960200 0.07473100
v 0.00818900 -0.06919200 0.08579600
v 0.01878200 -0.06902300 0.05235400
v 0.01695600 -0.06872200 0.08326200
v 0.00427500 -0.06878600 0.10328000
v 0.00195200 -0.06808800 0.12281600
v 0.00001500 -0.06528400 0.12972400
v 0.00572700 -0.06389700 0.13218500
v 0.00584100 -0.06099900 0.13754299
v 0.00000800 -0.05300100 0.13795701
v 0.00811600 -0.05300101 0.13718100
v 0.01925200 -0.06754500 0.11372400
v 0.01296300 -0.06783600 0.11940800
v 0.01185900 -0.06529600 0.12730400
v 0.01236400 -0.06099900 0.13599800
v 0.01721700 -0.06532000 0.12424200
v 0.02003500 -0.06099800 0.13254300
v 0.01405399 -0.05300200 0.13540138
v 0.01408200 -0.05300200 0.13539299
v 0.02037000 -0.05300300 0.13239600
v 0.02497900 -0.06811700 0.07089000
v 0.02342000 -0.06737300 0.10658900
v 0.03025700 -0.06554800 0.09957200
v 0.02436600 -0.06372700 0.12269400
v 0.02625900 -0.06480200 0.11648600
v 0.02676300 -0.06099900 0.12767000
v 0.02543600 -0.05300300 0.12884100
v 0.03080300 -0.06414600 0.11125500
v 0.03460700 -0.06326800 0.10572100
v 0.03594000 -0.06307900 0.09947300
v 0.03999200 -0.06099000 0.09914000
v 0.03877200 -0.06099900 0.10732300
v 0.03221300 -0.06099800 0.12165100
v 0.03589700 -0.06099800 0.11559100
v 0.03999200 -0.05300100 0.09881900
v 0.03852800 -0.05300400 0.10860400
v 0.03086600 -0.05300300 0.12337700
v 0.03549400 -0.05300400 0.11634700
v 0.00045100 -0.01354700 -0.04099994
v 0.00045100 -0.01357700 -0.04100100
v 0.00055207 -0.01357700 -0.04099645
v 0.00164100 -0.01357700 -0.04095900
v 0.00313028 -0.01360700 -0.04088004
v 0.00312911 -0.01357700 -0.04088010
v 0.00544411 -0.01357700 -0.04063165
v 0.00554100 -0.01357700 -0.04062200
v 0.00803269 -0.01357700 -0.04019340
v 0.00849389 -0.01360700 -0.04011407
v 0.00849389 -0.01357700 -0.04011407
v 0.00863800 -0.01357700 -0.04008844
v 0.00975045 -0.01357700 -0.03980272
v 0.01069246 -0.01357700 -0.03956220
v 0.01269600 -0.01357700 -0.03904900
v 0.01269596 -0.01357700 -0.03904073
v 0.01349600 -0.01357700 -0.03879300
v 0.01348799 -0.01357700 -0.03878629
v 0.01373376 -0.01357700 -0.03868899
v 0.01548459 -0.01357700 -0.03796471
v 0.01692020 -0.01357700 -0.03734721
v 0.01702287 -0.01357700 -0.03729856
v 0.01761500 -0.01357700 -0.03702500
v 0.01760747 -0.01357700 -0.03702805
v 0.01944422 -0.01360700 -0.03609632
v 0.01944400 -0.01357700 -0.03610000
v 0.00006100 -0.01357700 0.04098852
v 0.00154400 -0.01357700 0.04096500
v 0.00349900 -0.01357700 0.04084400
v 0.00498245 -0.01357700 0.04069592
v 0.00502100 -0.01357700 0.04069200
v 0.00516160 -0.01357700 0.04066870
v 0.00828600 -0.01357700 0.04014928
v 0.00923205 -0.01357700 0.03994601
v 0.00944502 -0.01357700 0.03989245
v 0.00931000 -0.01357700 0.03992900
v 0.01027650 -0.01357700 0.03966738
v 0.01242200 -0.01357700 0.03906847
v 0.01341753 -0.01357700 0.03874100
v 0.01341318 -0.01357700 0.03874260
v 0.01341800 -0.01357700 0.03874100
v 0.02027500 -0.01357700 0.03563500
v 0.01646238 -0.01357700 0.03754909
v 0.01737800 -0.01357700 0.03713600
v 0.01738421 -0.01357700 0.03713278
v 0.00055690 0.01864200 -0.04100200
v 0.00055704 0.01864200 -0.04100200
v 0.00076553 0.01864200 -0.04099527
v 0.00111338 0.01865767 -0.04097870
v 0.00333653 0.01864216 -0.04086403
v 0.00333700 0.01864200 -0.04086400
v 0.00333664 0.01864219 -0.04086402
v 0.00871700 0.01864200 -0.04007200
v 0.00905580 0.01864200 -0.03998342
v 0.00914021 0.01864200 -0.03996148
v 0.00059000 0.02849800 -0.04100300
v 0.00339900 0.02850000 -0.04085900
v 0.00047200 0.03464700 -0.03514600
v 0.00054400 0.03536800 -0.03388800
v 0.00353400 0.03413400 -0.03580100
v 0.00366800 0.03537600 -0.03368200
v 0.00383500 0.03599800 -0.03244100
v 0.00411000 0.03461800 -0.03495800
v 0.00552400 0.02850000 -0.04062500
v 0.00878900 0.02849991 -0.04005700
v 0.00878900 0.02850000 -0.04005700
v 0.00763900 0.03465100 -0.03430300
v 0.00643400 0.03537300 -0.03325800
v 0.00718400 0.03599800 -0.03186700
v 0.00794700 0.03366500 -0.03579900
v 0.00886100 0.03537600 -0.03270200
v 0.01284356 0.01587099 -0.03901328
v 0.01334600 0.01587000 -0.03888400
v 0.01353700 0.01587000 -0.03882300
v 0.01263196 0.01835189 -0.03901354
v 0.01262190 0.01857175 -0.03900961
v 0.01258979 0.01871717 -0.03900806
v 0.01284050 0.01617508 -0.03901409
v 0.01685282 0.01587000 -0.03737522
v 0.01785200 0.01587000 -0.03691100
v 0.01802400 0.01587000 -0.03682400
v 0.01939014 0.01587000 -0.03612644
v 0.01270000 0.02550000 -0.03962500
v 0.01270000 0.02550192 -0.03902600
v 0.01270133 0.02570802 -0.03905520
v 0.01270133 0.02570802 -0.03902520
v 0.01278800 0.02680300 -0.04200000
v 0.01270100 0.02768400 -0.04197700
v 0.01270800 0.02734500 -0.03962500
v 0.01270000 0.02810800 -0.04179800
v 0.01270000 0.02833500 -0.04155900
v 0.01269900 0.02849300 -0.04117900
v 0.01262003 0.02851288 -0.03893699
v 0.01259874 0.02850000 -0.03894392
v 0.01261997 0.02853050 -0.03892405
v 0.01262874 0.02850000 -0.03894392
v 0.01262843 0.02848471 -0.03894410
v 0.01275188 0.02824828 -0.03902461
v 0.01276018 0.02849991 -0.03905538
v 0.01276111 0.02850000 -0.03902592
v 0.01276018 0.02849991 -0.03902538
v 0.01276099 0.02850000 -0.03902587
v 0.01407900 0.02436400 -0.04200000
v 0.01303100 0.02596500 -0.04200000
v 0.01348100 0.02510600 -0.04200000
v 0.01350500 0.02747300 -0.04200300
v 0.01349800 0.02781100 -0.04195700
v 0.01349900 0.02821300 -0.04169000
v 0.01349900 0.02848800 -0.04120800
v 0.01350700 0.02850100 -0.04052700
v 0.01407567 0.02850003 -0.03906638
v 0.01408922 0.02850000 -0.03902592
v 0.01409100 0.02850000 -0.03902700
v 0.01274100 0.03014500 -0.03881800
v 0.01270000 0.03112200 -0.03777600
v 0.01270000 0.03211600 -0.03656700
v 0.01262007 0.03260973 -0.03592345
v 0.01259007 0.03260973 -0.03592345
v 0.01261993 0.03262261 -0.03591260
v 0.01259115 0.03262474 -0.03591058
v 0.01262437 0.03262954 -0.03590593
v 0.01261900 0.03267086 -0.03585183
v 0.01262062 0.03265499 -0.03587317
v 0.01059900 0.03382500 -0.03484400
v 0.01031374 0.03599600 -0.03097908
v 0.01031372 0.03599600 -0.03099200
v 0.01036918 0.03598895 -0.03096200
v 0.01036918 0.03598895 -0.03099200
v 0.01051100 0.03596800 -0.03099200
v 0.01069694 0.03593316 -0.03099200
v 0.01109400 0.03463500 -0.03337500
v 0.01152900 0.03537500 -0.03185200
v 0.01281200 0.03295700 -0.03538500
v 0.01261900 0.03364076 -0.03441936
v 0.01261900 0.03463400 -0.03279613
v 0.01261900 0.03537500 -0.03141500
v 0.01292100 0.03000000 -0.03891000
v 0.01509100 0.03202700 -0.03574900
v 0.01330300 0.03384200 -0.03388900
v 0.01367600 0.03463100 -0.03239700
v 0.01367200 0.03537500 -0.03099200
v 0.01383400 0.03534300 -0.03099200
v 0.01493721 0.03506697 -0.03099200
v 0.01588100 0.03000000 -0.03779900
v 0.01781700 0.03000000 -0.03692600
v 0.01662800 0.03104000 -0.03631400
v 0.01782400 0.03203500 -0.03447300
v 0.01552300 0.03296300 -0.03428800
v 0.01615000 0.03463700 -0.03124300
v 0.01625134 0.03473332 -0.03099200
v 0.01657900 0.03463700 -0.03099200
v 0.01672700 0.03383000 -0.03235700
v 0.01970900 0.03000000 -0.03595100
v 0.02031200 0.03104100 -0.03438800
v 0.01900100 0.03296300 -0.03248900
v 0.01912000 0.03382500 -0.03099200
v 0.01920300 0.03379800 -0.03099200
v 0.02027042 0.03337714 -0.03096200
v 0.02027042 0.03337714 -0.03099200
v 0.02033991 0.03334974 -0.03098244
v 0.02045688 0.03330362 -0.03096200
v 0.02045688 0.03330362 -0.03099200
v 0.02034964 0.03334590 -0.03098262
v 0.00272300 0.03599600 0.03256200
v 0.00245900 0.02999800 0.04093400
v 0.00422200 0.03339400 0.03674100
v 0.01024500 0.03440700 0.03389400
v 0.00664800 0.02999800 0.04044000
v 0.01440400 0.03599600 0.02915200
v 0.01081800 0.02999800 0.03952800
v 0.01487600 0.02999800 0.03818500
v 0.01791800 0.03362300 0.03188300
v 0.01877200 0.02999800 0.03642700
v 0.02077400 -0.01357700 -0.03535200
v 0.02217721 -0.01357700 -0.03448393
v 0.02216800 -0.01357700 -0.03449000
v 0.02302381 -0.01357700 -0.03392104
v 0.02299400 -0.01071404 -0.03394567
v 0.02302400 -0.01071404 -0.03394567
v 0.02522600 -0.01481000 -0.04199300
v 0.02538940 -0.01357700 -0.04180742
v 0.02539400 -0.01357700 -0.04200000
v 0.02520186 -0.01357700 -0.03412123
v 0.02538460 -0.01357700 -0.03413791
v 0.02480557 -0.01357700 -0.03264719
v 0.02483154 -0.01357700 -0.03262858
v 0.02513413 -0.01357700 -0.03238779
v 0.02516551 -0.01357700 -0.03259828
v 0.02516410 -0.01362985 -0.03238781
v 0.02516413 -0.01357700 -0.03238779
v 0.02576341 -0.01424333 -0.04200000
v 0.02619799 -0.01357704 -0.04200000
v 0.02620395 -0.01354700 -0.04198664
v 0.02620395 -0.01357700 -0.04198664
v 0.02619844 -0.01356776 -0.04199900
v 0.02620339 -0.01354700 -0.04144586
v 0.02619405 -0.01357700 -0.03413781
v 0.02619405 -0.01354700 -0.03413781
v 0.02690612 -0.01357700 -0.03098832
v 0.02690612 -0.01354700 -0.03098832
v 0.02690580 -0.01354700 -0.03100582
v 0.02690608 -0.01354700 -0.03100402
v 0.02700895 -0.01294391 -0.03099200
v 0.02700895 -0.01294391 -0.03096200
v 0.02768400 -0.00795600 -0.04199900
v 0.02778201 -0.00759856 -0.03413800
v 0.02788267 -0.00721915 -0.03413800
v 0.02804900 -0.00651600 -0.03413351
v 0.02831700 -0.00529300 -0.04199900
v 0.02823118 -0.00572710 -0.03412418
v 0.02840121 -0.00478668 -0.03410728
v 0.02845500 -0.00446300 -0.03099200
v 0.02872200 -0.00226500 -0.04199900
v 0.02865800 -0.00291900 -0.03099200
v 0.02873600 -0.00206400 -0.03099200
v 0.02879500 -0.00088200 -0.03099200
v 0.02880100 -0.00065800 -0.03099200
v 0.02879800 0.00079800 -0.04199900
v 0.02880011 0.00046386 -0.03099200
v 0.02880011 0.00046386 -0.03096714
v 0.02879999 0.00060836 -0.03098269
v 0.02879890 0.00063355 -0.03098438
v 0.02879827 0.00064800 -0.03098478
v 0.02875900 0.00159500 -0.03413800
v 0.02870754 0.00232486 -0.03413722
v 0.02875644 0.00160370 -0.03096200
v 0.02756400 0.00837900 -0.04199900
v 0.02809500 0.00636000 -0.03413800
v 0.02810349 0.00631899 -0.03413800
v 0.02787952 0.00721492 -0.03413800
v 0.02753879 0.00846062 -0.03413800
v 0.02754023 0.00845549 -0.03413800
v 0.02721900 0.00940900 -0.03413800
v 0.02864500 0.00298800 -0.04199900
v 0.02828100 0.00550200 -0.04199900
v 0.02861500 0.00328500 -0.03413800
v 0.02835900 0.00508500 -0.03413800
v 0.03484118 -0.01357700 -0.02160490
v 0.03485400 -0.01357700 -0.02158500
v 0.03747800 -0.01357700 -0.01665200
v 0.03747900 -0.01357700 -0.01665100
v 0.03759389 -0.01357700 -0.01633841
v 0.03866200 -0.01357700 -0.01365900
v 0.03912991 -0.01357700 -0.01213032
v 0.03912991 -0.01354700 -0.01213032
v 0.03945700 -0.01357700 -0.01114800
v 0.03974400 -0.01357700 -0.01007900
v 0.04005103 -0.01357700 -0.00871900
v 0.04028500 -0.01357700 -0.00761900
v 0.04039679 -0.01357700 -0.00683713
v 0.04040586 -0.01357700 -0.00678293
v 0.04042388 -0.01357700 -0.00678293
v 0.04048886 -0.01357700 -0.00639739
v 0.04062000 -0.01357700 -0.00555900
v 0.04075800 -0.01357700 -0.00437300
v 0.04087200 -0.01357700 -0.00325800
v 0.04093199 -0.01354700 -0.00180928
v 0.04093200 -0.01357700 -0.00184200
v 0.04099600 -0.01357700 -0.00072600
v 0.04100200 -0.01357700 0.00001600
v 0.02104844 -0.01357700 0.03518215
v 0.02115251 -0.01360700 0.03512130
v 0.02159125 -0.01357700 0.03483297
v 0.02387500 -0.01357700 0.03333200
v 0.02428175 -0.01357700 0.03303186
v 0.02428412 -0.01357700 0.03303091
v 0.02469300 -0.01357700 0.03273000
v 0.02515424 -0.01357700 0.03235200
v 0.02516400 -0.01357700 0.03235200
v 0.02722000 -0.01357700 0.03066400
v 0.02796700 -0.01357700 0.02998418
v 0.02797200 -0.01357700 0.02998000
v 0.02805651 -0.01357700 0.02989123
v 0.03026600 -0.01357700 0.02765800
v 0.03059795 -0.01357700 0.02728510
v 0.03059900 -0.01357700 0.02728400
v 0.03059795 -0.01354700 0.02728510
v 0.04094700 -0.01357700 0.00332700
v 0.04083300 -0.01357700 0.00568300
v 0.04072100 -0.01357700 0.00801500
v 0.04021300 -0.01481200 0.01618000
v 0.04023300 -0.01367700 0.01580900
v 0.04023143 -0.01357700 0.01575581
v 0.04023100 -0.01357700 0.01576960
v 0.04023100 -0.01357700 0.01576300
v 0.03094200 -0.01357700 0.02690800
v 0.02302476 0.01588458 -0.04199900
v 0.02302400 0.01589700 -0.04200000
v 0.02302400 0.01589701 -0.04199900
v 0.02302290 0.01591585 -0.03902533
v 0.02302239 0.01591632 -0.03902600
v 0.02302507 0.01590214 -0.03750923
v 0.02086015 0.01587000 -0.03529930
v 0.02172600 0.01587000 -0.03477100
v 0.02177540 0.01587001 -0.03474074
v 0.02299400 0.01382832 -0.03394484
v 0.02302400 0.01587173 -0.03413758
v 0.02299400 0.01587000 -0.03394461
v 0.02302400 0.01587000 -0.03394461
v 0.02427400 0.01549700 -0.04199900
v 0.02522795 0.01389737 -0.04199900
v 0.02302400 0.01729105 -0.04199274
v 0.02299400 0.01733603 -0.04172552
v 0.02302400 0.01733626 -0.04172392
v 0.02302400 0.01733623 -0.04172412
v 0.02302400 0.01733603 -0.04172552
v 0.02302400 0.01735029 -0.04164075
v 0.02302400 0.01736518 -0.04155229
v 0.02302400 0.01736623 -0.04154608
v 0.02302400 0.01736625 -0.04154577
v 0.02302400 0.01736749 -0.04153814
v 0.02302400 0.01736763 -0.04153777
v 0.02285800 0.01752900 -0.04200000
v 0.02299400 0.01734283 -0.04037903
v 0.02299400 0.01734425 -0.03902700
v 0.02299400 0.01734557 -0.03902600
v 0.02302400 0.01734557 -0.03902600
v 0.02293524 0.01742502 -0.03902598
v 0.02299400 0.01737814 -0.03901390
v 0.02302400 0.01777002 -0.03914334
v 0.02302400 0.01777052 -0.03914160
v 0.02302400 0.01777064 -0.03914097
v 0.02302400 0.01777064 -0.03914094
v 0.02302400 0.01777206 -0.03913470
v 0.02302400 0.01777130 -0.03913919
v 0.02302400 0.01777143 -0.03910845
v 0.02260120 0.01785725 -0.03902567
v 0.02260546 0.01785186 -0.03902564
v 0.02302400 0.01781449 -0.03885258
v 0.02302400 0.01781449 -0.03888258
v 0.02299400 0.01782209 -0.03883744
v 0.02302400 0.01782209 -0.03883744
v 0.02302400 0.01782563 -0.03881639
v 0.02302400 0.01861300 -0.03413798
v 0.02302400 0.01861300 -0.03413800
v 0.02092800 0.01979800 -0.04200000
v 0.02655900 0.01114900 -0.04199900
v 0.02640255 0.01147330 -0.04199900
v 0.02672627 0.01074228 -0.03413800
v 0.02670111 0.01080057 -0.03413800
v 0.02627409 0.01180449 -0.03413800
v 0.02155500 0.03000000 -0.03487600
v 0.02131000 0.03203500 -0.03243400
v 0.02302400 0.03000059 -0.03391427
v 0.02302400 0.03000000 -0.03391400
v 0.02302400 0.03011000 -0.03377800
v 0.02302400 0.03103737 -0.03259464
v 0.02302400 0.03134200 -0.03219500
v 0.02116768 0.03302337 -0.03099200
v 0.02147500 0.03289900 -0.03099200
v 0.02334300 0.03000000 -0.03370600
v 0.02327300 0.03203200 -0.03099200
v 0.02377700 0.03103800 -0.03209000
v 0.02420000 0.03157100 -0.03099200
v 0.02507200 0.03000000 -0.03244000
v 0.02169000 0.03599600 -0.02421500
v 0.02543700 0.03330300 -0.02688500
v 0.02673200 0.03000000 -0.03108500
v 0.02674700 0.03005800 -0.03097700
v 0.02669582 0.03008860 -0.03099106
v 0.02683500 0.03000000 -0.03099200
v 0.02640782 0.03026080 -0.03099200
v 0.02711600 0.03599600 -0.01823700
v 0.03192800 0.02999800 -0.02568900
v 0.03239900 0.03248200 -0.02008000
v 0.03442800 0.02999800 -0.02222600
v 0.03108100 0.03599600 -0.00988000
v 0.03245000 0.03599600 -0.00238600
v 0.03749400 0.03000300 -0.01659600
v 0.03625400 0.03270700 -0.01082300
v 0.03899500 0.02999800 -0.01260000
v 0.04009100 0.02999800 -0.00848100
v 0.03612400 0.03383800 -0.00321600
v 0.04086700 0.02999800 -0.00266199
v 0.04086700 0.02999800 -0.00266200
v 0.04086707 0.02999801 -0.00262538
v 0.04092200 0.02999800 0.00213800
v 0.02211100 0.03599600 0.02396200
v 0.02943600 0.03599600 0.01418400
v 0.02998600 0.03420000 0.01942300
v 0.02280800 0.03249500 0.03061200
v 0.02246100 0.02999800 0.03427400
v 0.02306600 0.03461400 0.02649100
v 0.02816100 0.03250200 0.02579600
v 0.02590800 0.02999800 0.03175200
v 0.02907400 0.02999800 0.02888000
v 0.03156700 0.03599600 0.00815200
v 0.03385400 0.03402400 0.01225900
v 0.03509600 0.03224900 0.01578200
v 0.03443200 0.02999800 0.02222100
v 0.03605700 0.03378300 0.00429300
v 0.04050602 0.03000298 0.00637040
v 0.04050400 0.03000300 0.00639100
v 0.03898700 0.02999800 0.01261600
v 0.03655100 0.02999800 0.01852900
v 0.03192400 0.02999800 0.02569200
f 1 16 78
f 4 5 6
f 2 3 34
f 1 2 38
f 3 5 4
f 3 4 47
f 3 82 5
f 2 81 82
f 5 7 6
f 5 82 7
f 1 81 2
f 2 82 3
f 9 40 11
f 1 38 40
f 1 40 16
f 12 40 9
f 9 11 12
f 11 10 12
f 11 22 10
f 22 15 10
f 12 17 40
f 10 14 12
f 16 40 17
f 10 15 14
f 20 15 13
f 16 17 78
f 12 18 17
f 18 21 19
f 19 87 18
f 87 21 89
f 19 21 87
f 12 14 18
f 14 15 18
f 18 20 21
f 18 15 20
f 27 13 15
f 22 27 15
f 22 24 27
f 8 25 24
f 23 24 25
f 27 26 13
f 29 89 21
f 13 28 20
f 20 29 21
f 23 25 150
f 24 23 96
f 28 29 20
f 24 96 27
f 96 26 27
f 28 13 26
f 3 35 34
f 31 35 41
f 35 33 39
f 35 39 34
f 35 31 33
f 2 34 39
f 2 39 38
f 30 39 33
f 36 39 30
f 30 37 36
f 11 39 36
f 38 39 11
f 38 11 40
f 11 36 22
f 3 46 35
f 3 47 46
f 4 49 47
f 32 41 43
f 35 44 41
f 32 31 41
f 35 46 44
f 43 41 44
f 32 43 42
f 44 46 45
f 46 47 48
f 45 50 44
f 45 46 50
f 48 50 46
f 50 48 53
f 47 49 48
f 48 126 53
f 48 49 126
f 50 53 51
f 52 51 53
f 31 56 33
f 31 32 56
f 33 147 30
f 36 37 59
f 37 30 54
f 36 58 57
f 58 36 59
f 22 36 57
f 37 54 59
f 58 60 57
f 54 61 59
f 22 60 62
f 60 22 57
f 22 62 24
f 24 62 8
f 42 43 63
f 32 42 56
f 43 44 63
f 44 50 63
f 50 51 63
f 52 66 51
f 53 71 52
f 53 126 71
f 63 55 42
f 42 55 56
f 51 68 63
f 63 67 64
f 67 65 64
f 63 68 67
f 66 68 51
f 52 71 66
f 71 126 75
f 66 69 68
f 69 66 72
f 69 72 70
f 66 71 72
f 72 73 70
f 71 73 72
f 73 71 74
f 71 75 74
f 75 128 76
f 1 78 79
f 1 79 81
f 77 78 84
f 77 176 78
f 78 176 79
f 77 175 176
f 77 84 80
f 77 80 175
f 79 82 81
f 91 94 102
f 91 102 92
f 92 102 83
f 94 93 102
f 93 103 102
f 78 17 84
f 90 86 88
f 88 89 90
f 86 18 88
f 18 87 88
f 90 18 86
f 17 18 83
f 88 87 89
f 18 90 91
f 89 93 90
f 18 92 83
f 92 18 91
f 85 84 17
f 83 85 17
f 91 90 94
f 93 94 90
f 23 150 95
f 23 95 96
f 98 96 99
f 97 103 93
f 95 111 96
f 96 100 99
f 103 97 112
f 96 97 100
f 96 112 97
f 89 99 93
f 89 98 99
f 29 98 89
f 28 26 96
f 28 96 29
f 98 29 96
f 99 100 93
f 97 93 100
f 83 104 85
f 83 102 101
f 83 101 104
f 102 104 101
f 107 84 85
f 104 105 85
f 80 84 108
f 85 105 107
f 107 108 84
f 105 104 106
f 106 109 107
f 106 107 105
f 108 107 109
f 106 181 109
f 102 103 122
f 102 122 104
f 95 158 111
f 96 111 110
f 111 158 115
f 103 112 122
f 96 110 114
f 96 114 112
f 110 111 114
f 116 156 117
f 111 115 114
f 115 158 116
f 112 114 121
f 114 115 121
f 115 116 121
f 116 117 121
f 117 119 121
f 118 121 119
f 118 120 121
f 113 112 121
f 112 113 122
f 122 106 104
f 106 122 123
f 106 123 124
f 113 123 122
f 106 124 185
f 124 187 186
f 124 186 185
f 4 6 260
f 127 4 260
f 6 7 260
f 4 127 49
f 49 125 126
f 49 127 125
f 125 137 126
f 126 136 135
f 126 137 136
f 126 135 130
f 75 126 129
f 126 130 129
f 75 129 128
f 130 132 131
f 130 135 132
f 132 135 133
f 132 133 134
f 136 137 138
f 127 266 125
f 137 125 266
f 135 136 219
f 136 138 220
f 135 140 133
f 7 82 139
f 82 79 139
f 79 216 139
f 7 139 259
f 137 226 138
f 135 141 140
f 135 142 141
f 142 135 143
f 135 144 143
f 135 221 144
f 135 222 221
f 136 220 219
f 138 225 220
f 138 227 225
f 138 226 227
f 135 219 222
f 144 145 143
f 144 146 145
f 144 221 146
f 60 152 62
f 58 152 60
f 58 148 155
f 152 8 62
f 8 151 25
f 59 148 58
f 59 61 148
f 61 149 148
f 30 306 54
f 56 296 33
f 55 296 56
f 30 147 306
f 33 296 147
f 54 306 61
f 61 305 149
f 63 64 310
f 64 65 308
f 63 310 55
f 67 311 65
f 68 69 313
f 68 313 67
f 70 313 69
f 70 73 313
f 74 313 73
f 315 74 75
f 76 315 75
f 76 128 387
f 149 323 148
f 302 319 149
f 296 55 310
f 61 306 305
f 64 307 310
f 307 64 308
f 65 311 308
f 67 312 311
f 67 313 312
f 74 314 313
f 74 315 314
f 76 387 315
f 147 301 298
f 147 297 301
f 147 299 297
f 147 298 306
f 296 299 147
f 149 303 304
f 302 149 304
f 149 305 303
f 58 153 152
f 58 154 153
f 8 152 151
f 25 151 150
f 58 155 154
f 150 151 156
f 95 150 158
f 151 152 159
f 152 153 159
f 153 154 160
f 155 161 154
f 151 157 156
f 150 156 158
f 116 158 156
f 117 156 157
f 119 157 159
f 151 159 157
f 153 160 159
f 118 159 160
f 120 160 161
f 117 157 119
f 118 119 159
f 118 160 120
f 120 165 121
f 113 121 164
f 154 161 160
f 120 161 165
f 165 166 121
f 164 121 166
f 113 164 123
f 123 164 124
f 164 168 124
f 161 155 163
f 163 162 161
f 162 165 161
f 162 167 164
f 162 164 165
f 164 166 165
f 164 167 168
f 124 353 187
f 124 168 345
f 148 323 155
f 149 319 323
f 155 323 341
f 163 155 340
f 163 349 162
f 167 162 349
f 167 345 168
f 351 124 345
f 351 352 124
f 353 124 352
f 155 341 340
f 340 349 163
f 167 349 345
f 132 169 131
f 134 169 132
f 134 170 169
f 128 129 387
f 129 130 387
f 130 131 387
f 131 169 390
f 169 170 171
f 133 173 134
f 134 172 170
f 170 172 171
f 169 171 390
f 131 388 387
f 131 389 388
f 131 390 389
f 171 392 390
f 171 395 392
f 171 391 395
f 171 396 391
f 171 397 396
f 171 398 397
f 171 399 398
f 171 400 399
f 171 401 400
f 401 171 402
f 402 171 403
f 171 404 403
f 133 140 173
f 134 173 172
f 145 174 143
f 141 409 140
f 173 140 407
f 141 142 409
f 409 142 143
f 145 146 412
f 146 221 412
f 409 143 174
f 145 412 174
f 171 172 404
f 172 173 404
f 173 405 404
f 405 173 406
f 140 408 407
f 140 409 408
f 173 407 406
f 411 409 174
f 174 412 411
f 175 179 176
f 80 108 177
f 80 177 175
f 175 177 201
f 175 201 179
f 178 176 179
f 177 191 202
f 177 202 201
f 79 176 216
f 178 216 176
f 181 180 182
f 106 180 181
f 182 109 181
f 108 109 191
f 177 108 191
f 182 192 109
f 109 192 191
f 182 184 183
f 183 193 182
f 182 193 192
f 106 185 180
f 185 186 180
f 182 180 188
f 182 188 184
f 188 189 184
f 189 197 184
f 189 190 197
f 184 193 183
f 193 194 195
f 191 192 202
f 193 195 205
f 193 213 192
f 184 197 193
f 193 197 196
f 196 194 193
f 194 196 199
f 198 200 196
f 200 199 196
f 194 199 195
f 199 200 195
f 195 208 205
f 179 201 203
f 201 202 616
f 178 179 203
f 201 616 203
f 203 616 614
f 202 204 616
f 204 202 213
f 204 210 617
f 178 203 217
f 203 614 232
f 192 213 202
f 193 205 213
f 213 205 206
f 205 208 206
f 206 208 207
f 208 209 207
f 206 207 214
f 209 214 207
f 210 204 211
f 211 204 212
f 204 213 212
f 212 622 211
f 210 211 624
f 622 620 211
f 212 621 622
f 211 620 623
f 206 214 213
f 213 214 212
f 209 215 214
f 214 628 212
f 212 628 621
f 178 217 216
f 219 220 222
f 222 220 223
f 223 224 222
f 227 226 236
f 220 225 223
f 223 230 224
f 223 225 230
f 224 230 228
f 225 227 229
f 227 236 229
f 229 236 237
f 225 229 230
f 229 231 230
f 229 245 231
f 217 203 218
f 232 218 203
f 232 234 218
f 233 235 234
f 232 233 234
f 237 236 238
f 238 240 239
f 239 240 241
f 237 238 243
f 238 239 243
f 229 237 245
f 237 243 245
f 231 245 242
f 243 239 244
f 243 244 245
f 239 241 248
f 239 248 244
f 246 244 247
f 247 244 249
f 244 248 249
f 247 249 250
f 248 250 249
f 241 240 252
f 252 240 251
f 252 251 253
f 251 669 253
f 669 251 668
f 253 669 670
f 241 252 254
f 241 254 248
f 254 250 248
f 253 257 252
f 253 670 257
f 254 252 255
f 255 252 257
f 255 257 256
f 180 502 188
f 180 186 502
f 186 187 502
f 197 190 503
f 503 196 197
f 196 503 198
f 198 505 200
f 195 200 507
f 195 507 208
f 500 188 502
f 187 353 501
f 187 501 502
f 544 189 188
f 189 544 190
f 504 198 503
f 505 198 504
f 200 505 506
f 200 506 507
f 209 208 513
f 209 516 215
f 214 905 628
f 507 512 208
f 208 511 513
f 208 512 511
f 209 513 514
f 209 514 515
f 209 515 516
f 215 516 517
f 215 592 214
f 221 222 521
f 222 224 523
f 228 230 258
f 231 258 230
f 242 258 231
f 224 228 523
f 258 524 228
f 242 527 258
f 412 221 518
f 221 521 518
f 521 222 522
f 222 523 522
f 523 228 524
f 258 525 524
f 258 526 525
f 258 527 526
f 242 245 531
f 244 530 245
f 244 246 530
f 246 247 530
f 247 250 534
f 250 254 536
f 254 255 536
f 256 536 255
f 256 257 930
f 242 528 527
f 242 529 528
f 242 531 529
f 245 530 531
f 247 533 530
f 247 534 533
f 250 536 534
f 256 537 536
f 256 930 537
f 7 262 260
f 7 269 262
f 260 266 127
f 137 266 267
f 137 267 268
f 137 268 275
f 7 259 269
f 139 277 259
f 259 277 270
f 137 275 226
f 260 261 266
f 260 262 261
f 261 264 267
f 262 269 263
f 261 262 263
f 261 263 264
f 264 265 268
f 263 265 264
f 261 267 266
f 264 268 267
f 265 275 268
f 263 269 270
f 263 270 272
f 259 270 269
f 270 279 272
f 263 272 265
f 265 271 275
f 265 272 271
f 271 273 275
f 271 272 281
f 271 281 273
f 273 274 275
f 273 281 274
f 274 276 275
f 275 276 285
f 139 216 277
f 216 217 277
f 217 218 277
f 218 278 277
f 277 278 286
f 236 226 275
f 238 236 275
f 240 238 275
f 240 275 251
f 218 234 278
f 234 235 278
f 235 866 278
f 278 866 286
f 286 866 870
f 668 251 275
f 275 671 668
f 275 678 671
f 275 684 678
f 270 277 279
f 277 286 279
f 279 286 280
f 272 279 280
f 272 282 281
f 272 280 282
f 274 281 283
f 274 283 284
f 274 284 285
f 281 282 283
f 280 288 282
f 283 287 284
f 284 287 285
f 274 285 276
f 285 291 275
f 280 286 288
f 288 286 289
f 286 870 289
f 282 288 283
f 283 288 289
f 283 289 287
f 289 871 872
f 287 289 872
f 287 872 290
f 287 290 291
f 684 275 291
f 285 287 291
f 290 875 291
f 292 294 302
f 292 293 294
f 294 293 318
f 318 302 294
f 295 318 293
f 293 364 295
f 293 363 364
f 297 310 307
f 296 310 299
f 300 301 297
f 297 299 310
f 305 306 303
f 303 306 298
f 308 311 313
f 311 312 313
f 308 313 314
f 308 314 316
f 315 316 314
f 315 387 317
f 292 413 293
f 293 413 363
f 297 307 415
f 297 415 300
f 300 416 301
f 298 301 416
f 416 303 298
f 304 303 416
f 302 304 417
f 292 302 417
f 307 309 415
f 308 419 307
f 309 307 419
f 316 419 308
f 315 419 316
f 315 317 420
f 317 388 420
f 302 318 319
f 295 321 318
f 321 295 327
f 318 321 319
f 319 320 323
f 322 323 320
f 319 321 320
f 322 341 323
f 321 327 320
f 326 320 327
f 322 320 336
f 326 338 320
f 330 324 325
f 326 329 337
f 331 333 329
f 325 334 330
f 330 334 331
f 326 327 329
f 331 327 328
f 331 329 327
f 330 331 328
f 327 295 328
f 324 330 295
f 328 295 330
f 332 356 336
f 334 332 333
f 335 356 332
f 332 334 335
f 325 361 358
f 361 324 360
f 336 320 338
f 356 322 336
f 338 339 336
f 376 341 322
f 342 341 376
f 377 344 342
f 329 333 339
f 326 337 338
f 329 339 337
f 331 334 333
f 337 339 338
f 325 324 361
f 334 325 335
f 336 339 332
f 332 339 333
f 322 356 376
f 335 325 357
f 357 325 358
f 295 360 324
f 295 364 360
f 340 341 342
f 340 342 347
f 347 346 340
f 340 346 348
f 340 348 349
f 343 342 344
f 342 343 347
f 343 344 346
f 343 346 347
f 349 351 345
f 348 350 349
f 350 348 351
f 349 350 351
f 346 355 348
f 355 352 348
f 348 352 351
f 346 354 355
f 355 353 352
f 356 358 359
f 335 357 356
f 357 358 356
f 376 356 359
f 370 372 359
f 370 368 371
f 359 369 370
f 358 361 359
f 361 364 359
f 364 363 359
f 359 363 362
f 359 362 365
f 359 365 367
f 360 364 361
f 362 366 365
f 367 365 369
f 367 369 359
f 369 368 370
f 377 342 376
f 344 377 379
f 370 371 372
f 376 359 372
f 374 372 371
f 368 374 371
f 374 375 372
f 373 372 375
f 375 378 373
f 365 366 435
f 365 434 369
f 369 434 368
f 372 373 376
f 376 379 377
f 373 382 380
f 373 378 381
f 373 381 382
f 427 373 380
f 427 380 429
f 380 382 384
f 380 384 383
f 386 380 383
f 386 429 380
f 384 385 383
f 344 447 346
f 346 447 354
f 355 446 501
f 354 446 355
f 379 448 344
f 344 448 447
f 354 447 451
f 354 451 446
f 387 388 317
f 389 390 392
f 391 393 395
f 393 394 395
f 391 396 393
f 388 389 420
f 389 392 420
f 392 395 420
f 395 394 420
f 394 393 491
f 393 396 491
f 397 491 396
f 398 491 397
f 399 400 398
f 401 402 403
f 403 404 401
f 401 404 405
f 406 407 409
f 407 408 409
f 406 409 410
f 410 409 411
f 411 412 520
f 398 400 491
f 401 496 400
f 401 405 496
f 406 496 405
f 406 410 497
f 497 410 411
f 411 520 498
f 292 417 413
f 363 413 414
f 300 415 416
f 304 416 417
f 309 418 415
f 309 419 418
f 315 420 419
f 413 423 465
f 413 465 414
f 415 418 422
f 416 422 417
f 415 422 416
f 418 419 421
f 419 420 421
f 418 421 425
f 418 425 422
f 413 417 423
f 417 422 423
f 422 483 423
f 422 424 483
f 424 426 483
f 422 425 424
f 421 426 425
f 421 488 426
f 424 425 426
f 373 427 438
f 429 430 427
f 427 430 431
f 428 427 431
f 431 432 428
f 432 433 428
f 368 459 374
f 374 459 375
f 365 435 434
f 375 459 378
f 378 459 381
f 382 381 459
f 382 459 384
f 459 385 384
f 363 464 362
f 362 464 366
f 366 464 435
f 434 459 368
f 434 435 458
f 363 414 464
f 439 376 373
f 376 439 379
f 428 438 427
f 428 437 436
f 428 433 437
f 428 436 438
f 373 438 453
f 439 373 442
f 373 453 442
f 385 476 383
f 383 476 386
f 379 439 440
f 441 379 440
f 441 444 379
f 379 444 448
f 457 436 437
f 386 476 429
f 429 476 430
f 430 476 431
f 431 476 432
f 432 476 433
f 437 433 476
f 438 436 457
f 442 440 439
f 453 454 442
f 440 442 443
f 441 445 444
f 445 450 444
f 437 456 457
f 448 449 447
f 447 449 451
f 446 451 452
f 448 444 450
f 445 449 450
f 448 450 449
f 449 452 451
f 438 457 453
f 453 457 454
f 437 476 456
f 434 458 459
f 385 459 466
f 435 464 458
f 458 460 459
f 460 462 461
f 461 462 463
f 460 466 459
f 460 461 466
f 461 463 466
f 463 467 466
f 467 463 468
f 414 465 464
f 464 465 481
f 458 464 481
f 458 481 460
f 460 481 462
f 465 483 482
f 385 466 470
f 385 470 475
f 385 475 476
f 454 476 455
f 454 457 476
f 456 476 457
f 468 463 469
f 466 467 472
f 467 468 472
f 466 472 470
f 462 554 463
f 468 469 472
f 469 463 480
f 469 471 473
f 469 473 472
f 469 479 471
f 470 472 475
f 471 474 473
f 474 471 479
f 473 474 479
f 480 463 553
f 479 469 480
f 475 472 478
f 476 475 478
f 476 478 477
f 478 472 550
f 472 473 549
f 553 463 554
f 462 555 554
f 473 480 549
f 473 479 480
f 481 555 462
f 465 482 481
f 481 482 564
f 423 483 465
f 426 482 483
f 426 564 482
f 394 484 420
f 394 485 484
f 394 486 485
f 394 490 486
f 394 491 490
f 420 484 421
f 421 484 487
f 484 485 487
f 485 489 487
f 485 486 489
f 421 487 488
f 426 488 492
f 487 492 488
f 486 490 489
f 489 490 494
f 490 491 494
f 487 489 492
f 400 496 491
f 406 497 496
f 497 411 498
f 426 492 495
f 489 493 492
f 489 494 493
f 492 493 495
f 493 494 495
f 491 496 494
f 494 496 499
f 496 497 499
f 494 499 495
f 497 498 499
f 353 355 501
f 500 543 188
f 503 190 545
f 506 509 507
f 506 508 509
f 446 502 501
f 542 500 502
f 543 544 188
f 500 542 540
f 446 541 502
f 502 541 542
f 500 540 543
f 190 544 545
f 504 503 545
f 547 505 504
f 505 587 506
f 506 587 508
f 545 547 504
f 547 587 505
f 509 512 507
f 509 508 512
f 510 513 511
f 510 514 513
f 515 517 516
f 215 517 592
f 592 905 214
f 508 587 512
f 588 511 512
f 510 511 590
f 510 590 514
f 515 514 590
f 587 588 512
f 511 588 589
f 511 589 590
f 515 590 517
f 905 592 904
f 590 591 517
f 517 591 592
f 592 949 904
f 518 520 412
f 520 518 519
f 518 521 519
f 519 521 522
f 524 525 523
f 527 528 526
f 498 520 519
f 519 522 607
f 522 523 609
f 523 525 609
f 525 526 609
f 526 529 609
f 526 528 529
f 533 531 530
f 531 533 532
f 534 535 533
f 533 535 536
f 532 533 539
f 534 536 535
f 533 536 537
f 537 930 533
f 532 539 538
f 533 930 539
f 529 531 609
f 531 532 609
f 538 613 532
f 441 440 543
f 441 541 445
f 441 542 541
f 445 541 449
f 441 540 542
f 441 543 540
f 452 541 446
f 449 541 452
f 454 568 442
f 455 568 454
f 588 440 443
f 440 546 544
f 440 544 543
f 440 548 546
f 440 588 548
f 545 544 546
f 442 951 443
f 545 546 547
f 546 548 547
f 443 589 588
f 587 547 548
f 443 590 589
f 443 591 590
f 548 588 587
f 442 565 952
f 476 570 455
f 476 477 570
f 565 442 569
f 568 569 442
f 455 570 568
f 477 571 570
f 477 478 571
f 472 549 550
f 549 559 550
f 549 560 559
f 549 480 552
f 480 551 552
f 480 553 551
f 551 553 552
f 549 552 560
f 552 553 562
f 555 556 554
f 556 558 554
f 558 557 554
f 553 554 562
f 552 562 560
f 554 557 562
f 557 561 562
f 478 550 571
f 550 559 571
f 559 560 575
f 561 557 563
f 560 562 575
f 561 576 562
f 577 563 557
f 562 578 575
f 561 563 576
f 557 558 586
f 563 577 576
f 481 556 555
f 481 564 556
f 556 564 558
f 426 594 564
f 564 586 558
f 565 567 566
f 565 569 567
f 568 572 569
f 568 573 572
f 568 570 573
f 570 571 574
f 559 575 571
f 571 575 580
f 562 576 578
f 557 585 577
f 575 578 580
f 576 581 578
f 576 577 581
f 577 579 581
f 557 586 585
f 577 585 579
f 571 580 596
f 578 582 580
f 578 581 582
f 579 583 581
f 583 579 584
f 585 584 579
f 581 593 582
f 580 582 596
f 581 583 593
f 584 585 583
f 585 586 594
f 585 594 595
f 564 594 586
f 443 592 591
f 443 949 592
f 443 951 949
f 442 952 951
f 565 953 952
f 566 955 953
f 565 566 953
f 566 567 955
f 570 959 573
f 570 574 959
f 567 569 955
f 569 572 955
f 572 573 960
f 571 604 574
f 571 596 601
f 582 593 596
f 583 597 593
f 583 585 598
f 585 595 598
f 593 599 596
f 593 597 599
f 583 598 597
f 571 601 604
f 597 600 599
f 598 595 602
f 597 598 600
f 596 599 601
f 599 600 601
f 598 602 600
f 573 959 960
f 572 960 955
f 574 963 959
f 574 604 963
f 600 603 601
f 600 602 603
f 601 603 604
f 595 594 1029
f 602 605 603
f 595 1029 602
f 603 961 604
f 603 962 961
f 603 605 962
f 594 426 1259
f 498 519 607
f 522 609 607
f 426 495 610
f 426 610 1067
f 498 606 499
f 498 607 606
f 495 499 606
f 606 607 608
f 495 606 610
f 606 608 610
f 607 609 608
f 532 611 609
f 532 613 611
f 608 612 610
f 608 609 611
f 608 611 612
f 610 612 1067
f 611 613 612
f 612 613 1068
f 615 614 616
f 615 616 618
f 616 617 618
f 204 617 616
f 615 618 619
f 618 637 619
f 617 633 637
f 617 637 618
f 614 615 667
f 615 619 667
f 617 210 633
f 623 624 211
f 620 622 623
f 621 625 622
f 624 631 210
f 622 624 623
f 622 625 624
f 631 632 210
f 625 626 624
f 633 210 632
f 624 626 634
f 626 627 634
f 624 634 631
f 621 628 625
f 625 628 626
f 626 628 627
f 629 627 628
f 629 630 627
f 632 631 635
f 634 635 631
f 632 635 640
f 633 632 644
f 635 636 641
f 619 639 638
f 619 637 639
f 637 644 639
f 638 639 698
f 619 638 667
f 638 697 868
f 633 644 637
f 635 641 640
f 632 640 643
f 632 643 644
f 640 641 642
f 642 643 640
f 642 648 643
f 642 649 648
f 641 646 642
f 642 646 649
f 646 647 649
f 649 647 658
f 647 657 658
f 644 643 639
f 648 651 650
f 648 701 643
f 650 701 648
f 639 643 705
f 650 651 653
f 650 653 652
f 650 652 701
f 651 654 653
f 651 656 654
f 701 704 643
f 653 654 652
f 704 705 643
f 654 655 652
f 655 702 652
f 652 702 701
f 654 656 655
f 649 658 648
f 648 659 651
f 658 696 648
f 648 696 659
f 659 663 651
f 660 661 659
f 651 664 656
f 655 656 665
f 651 663 662
f 651 662 664
f 659 661 663
f 656 664 665
f 655 665 666
f 662 665 664
f 667 232 614
f 667 233 232
f 669 668 670
f 668 672 670
f 672 668 671
f 670 672 674
f 674 673 670
f 674 675 673
f 672 671 676
f 671 677 676
f 674 672 676
f 675 674 676
f 671 678 679
f 678 685 679
f 681 677 671
f 679 681 671
f 677 680 676
f 677 681 680
f 638 868 667
f 684 685 678
f 679 685 681
f 685 683 682
f 682 681 685
f 683 685 689
f 683 687 686
f 683 689 687
f 685 688 689
f 685 692 688
f 688 691 689
f 689 691 687
f 695 809 694
f 695 811 809
f 695 810 811
f 690 692 685
f 691 688 692
f 693 695 694
f 627 910 634
f 628 905 629
f 627 630 910
f 629 908 630
f 910 635 634
f 636 635 912
f 636 916 641
f 629 905 906
f 629 906 908
f 630 908 910
f 635 910 912
f 636 912 913
f 636 913 916
f 645 921 641
f 641 921 646
f 646 921 647
f 647 921 657
f 657 696 658
f 659 696 660
f 696 657 925
f 696 927 660
f 660 927 661
f 663 661 928
f 663 928 662
f 662 928 665
f 666 665 928
f 666 928 711
f 641 956 645
f 919 645 917
f 921 645 919
f 657 921 922
f 923 657 922
f 923 924 657
f 657 924 925
f 661 927 928
f 711 928 1077
f 696 925 927
f 257 670 930
f 670 673 930
f 673 675 931
f 676 933 675
f 676 680 933
f 936 680 681
f 682 936 681
f 683 940 682
f 673 931 930
f 932 931 675
f 932 675 933
f 934 933 680
f 934 680 935
f 680 936 935
f 682 937 936
f 682 939 937
f 682 938 939
f 682 940 938
f 683 686 940
f 686 687 944
f 687 691 944
f 694 809 945
f 692 693 947
f 691 692 947
f 693 694 947
f 686 941 940
f 686 943 941
f 686 944 943
f 694 945 948
f 691 946 944
f 691 947 946
f 694 948 947
f 638 698 697
f 698 639 705
f 697 698 745
f 697 745 746
f 698 734 745
f 699 806 697
f 697 746 699
f 699 700 817
f 703 701 702
f 655 706 702
f 703 704 701
f 703 702 706
f 703 706 707
f 703 707 708
f 703 708 709
f 709 708 710
f 703 734 704
f 704 734 705
f 655 713 706
f 706 713 707
f 707 714 708
f 666 712 655
f 711 712 666
f 655 712 713
f 707 713 714
f 708 724 710
f 715 831 737
f 715 719 831
f 715 738 716
f 714 840 708
f 708 840 724
f 710 724 725
f 715 716 718
f 716 739 717
f 716 717 718
f 715 718 719
f 719 720 831
f 720 723 830
f 717 739 725
f 725 724 721
f 721 722 723
f 718 717 719
f 720 717 721
f 719 717 720
f 717 725 721
f 720 721 723
f 705 734 698
f 703 709 734
f 710 727 709
f 709 727 726
f 727 710 729
f 726 727 729
f 726 734 709
f 729 730 726
f 726 730 732
f 728 733 726
f 726 732 728
f 730 731 732
f 728 732 736
f 726 733 751
f 726 751 734
f 728 736 733
f 732 731 736
f 733 736 751
f 734 751 735
f 710 741 729
f 716 738 739
f 715 737 738
f 725 740 710
f 740 741 710
f 739 740 725
f 739 741 740
f 739 743 741
f 737 845 766
f 739 738 763
f 737 765 738
f 730 729 741
f 741 743 730
f 731 730 743
f 731 742 736
f 751 736 744
f 731 743 742
f 739 744 743
f 736 742 744
f 739 761 744
f 742 743 744
f 739 762 761
f 746 745 759
f 699 747 700
f 699 746 747
f 700 749 817
f 748 817 749
f 700 747 749
f 746 759 747
f 747 776 749
f 748 749 750
f 749 777 750
f 734 735 745
f 735 758 745
f 751 752 735
f 751 754 752
f 752 754 753
f 753 755 752
f 752 758 735
f 755 753 756
f 745 758 760
f 745 760 759
f 755 757 752
f 757 767 752
f 755 756 757
f 752 767 758
f 758 767 760
f 757 768 767
f 744 754 751
f 754 762 753
f 756 753 762
f 754 744 761
f 762 739 763
f 763 738 764
f 764 738 765
f 737 766 765
f 766 845 769
f 769 845 771
f 754 761 762
f 756 763 757
f 763 768 757
f 756 762 763
f 763 764 768
f 764 769 768
f 764 765 766
f 764 766 769
f 771 768 769
f 759 760 747
f 747 760 776
f 767 772 760
f 772 767 768
f 760 772 774
f 760 774 778
f 749 776 777
f 773 774 772
f 760 777 776
f 777 760 778
f 773 775 774
f 779 778 774
f 774 775 782
f 774 782 779
f 750 777 785
f 750 785 786
f 786 788 750
f 750 788 789
f 778 779 781
f 778 785 777
f 779 780 781
f 780 779 783
f 785 778 781
f 780 783 784
f 780 784 781
f 786 787 788
f 781 784 785
f 784 787 786
f 784 786 785
f 784 790 787
f 787 819 788
f 788 819 789
f 787 790 819
f 789 819 818
f 790 791 820
f 819 790 820
f 768 771 772
f 771 770 772
f 770 793 772
f 772 793 794
f 772 854 773
f 770 792 793
f 792 794 793
f 794 854 772
f 773 795 775
f 782 775 797
f 775 795 797
f 773 854 795
f 797 795 798
f 796 798 795
f 782 801 779
f 779 801 783
f 801 784 783
f 791 805 820
f 782 799 801
f 800 802 799
f 799 802 801
f 784 801 855
f 784 855 790
f 791 790 855
f 803 805 791
f 791 855 803
f 803 804 805
f 697 806 868
f 699 817 806
f 806 817 886
f 684 826 685
f 690 685 827
f 807 808 810
f 807 812 808
f 692 690 829
f 693 829 695
f 692 829 693
f 813 815 814
f 826 828 685
f 695 829 810
f 807 810 829
f 813 812 829
f 813 829 815
f 824 816 815
f 807 829 812
f 748 896 817
f 748 750 896
f 818 819 821
f 819 820 821
f 818 821 827
f 821 829 827
f 818 827 828
f 829 821 822
f 820 861 821
f 805 861 820
f 821 861 822
f 822 823 825
f 822 825 829
f 825 824 829
f 827 829 690
f 685 828 827
f 829 824 815
f 750 789 900
f 789 818 900
f 828 900 818
f 830 845 831
f 830 832 846
f 720 830 831
f 723 832 830
f 722 833 832
f 832 833 847
f 722 834 833
f 722 832 723
f 721 841 722
f 724 840 721
f 833 834 849
f 834 835 850
f 835 834 838
f 835 836 850
f 834 722 841
f 840 841 721
f 711 1078 712
f 1078 713 712
f 1078 714 713
f 835 837 836
f 835 838 837
f 834 841 838
f 836 837 839
f 836 839 851
f 838 841 843
f 840 842 841
f 842 843 841
f 842 844 843
f 714 1088 840
f 830 846 845
f 832 847 846
f 737 831 845
f 833 848 847
f 833 849 848
f 834 850 849
f 771 847 848
f 771 845 846
f 771 846 847
f 794 848 849
f 794 849 850
f 794 850 851
f 836 851 850
f 1079 711 1077
f 711 1079 1078
f 837 1085 839
f 837 838 1092
f 838 843 1092
f 840 1088 842
f 842 1089 844
f 843 844 1092
f 1080 1088 714
f 714 1081 1080
f 837 1083 1085
f 839 1085 1094
f 837 1092 1083
f 842 1088 1089
f 1089 1090 844
f 844 1090 1092
f 839 1094 851
f 851 1097 853
f 851 1094 1095
f 851 1095 1097
f 770 771 848
f 770 848 792
f 792 848 794
f 794 851 852
f 852 851 853
f 795 854 796
f 805 804 861
f 794 852 1146
f 794 1146 854
f 796 1149 798
f 797 1151 782
f 797 798 1151
f 796 854 1149
f 782 1151 799
f 799 1151 800
f 802 800 1156
f 1157 801 802
f 803 1162 804
f 801 1157 855
f 803 855 1162
f 804 1163 861
f 1097 1143 853
f 853 1146 852
f 1149 1150 798
f 798 1150 1151
f 800 1151 1152
f 800 1152 1155
f 1155 1156 800
f 802 1156 1157
f 1162 1163 804
f 853 1143 1144
f 853 1144 1146
f 854 1146 1149
f 1157 1158 855
f 1158 1159 855
f 855 1159 1162
f 861 1163 1181
f 808 812 856
f 809 811 1165
f 811 810 1165
f 810 808 1165
f 808 856 1167
f 857 860 816
f 813 1170 812
f 813 814 1170
f 1170 814 815
f 1170 815 816
f 812 1170 856
f 824 857 816
f 858 859 857
f 859 860 857
f 809 1165 945
f 1166 1165 808
f 808 1167 1166
f 816 860 1171
f 816 1171 1170
f 856 1169 1167
f 856 1170 1169
f 860 1172 1171
f 860 859 1173
f 860 1173 1172
f 824 825 857
f 825 863 859
f 822 861 823
f 825 823 862
f 825 862 864
f 825 864 863
f 861 1183 823
f 823 1183 862
f 825 858 857
f 825 859 858
f 864 1179 1178
f 1179 864 1189
f 864 1178 1177
f 862 1183 864
f 863 864 1175
f 861 1181 1182
f 861 1182 1183
f 864 1184 1189
f 864 1183 1185
f 864 1185 1184
f 859 863 1173
f 863 1174 1173
f 864 1176 1175
f 863 1175 1174
f 864 1177 1176
f 233 865 235
f 233 667 865
f 235 865 866
f 866 867 870
f 865 867 866
f 667 868 865
f 865 868 869
f 868 886 869
f 865 869 867
f 867 878 870
f 870 878 871
f 289 870 871
f 871 879 872
f 290 872 873
f 290 874 875
f 290 873 874
f 871 878 879
f 872 879 873
f 873 879 880
f 873 880 874
f 874 880 876
f 684 291 884
f 874 876 875
f 291 875 883
f 291 883 884
f 875 876 883
f 867 869 878
f 869 887 877
f 869 877 878
f 878 881 879
f 879 882 880
f 877 881 878
f 879 881 882
f 880 882 884
f 876 880 883
f 880 884 883
f 882 885 884
f 884 885 892
f 806 886 868
f 817 888 886
f 869 886 887
f 886 888 887
f 684 884 826
f 817 895 888
f 817 896 895
f 750 900 896
f 826 902 828
f 828 902 903
f 828 903 900
f 877 887 890
f 887 888 893
f 887 893 890
f 877 890 881
f 881 890 889
f 881 889 891
f 881 891 882
f 882 891 892
f 889 890 898
f 889 898 891
f 891 898 902
f 884 892 826
f 882 892 885
f 891 902 892
f 888 895 894
f 888 894 893
f 890 893 899
f 893 894 897
f 893 897 899
f 894 895 897
f 895 896 897
f 896 900 897
f 897 901 899
f 890 899 898
f 898 899 903
f 826 892 902
f 899 901 903
f 900 903 901
f 897 900 901
f 898 903 902
f 905 904 906
f 904 907 906
f 906 907 909
f 906 909 908
f 910 908 909
f 910 911 912
f 641 916 956
f 913 912 914
f 914 916 913
f 914 915 916
f 904 950 907
f 909 907 953
f 909 954 910
f 954 911 910
f 904 949 950
f 950 951 907
f 951 952 907
f 907 952 953
f 909 953 954
f 912 911 956
f 912 956 914
f 956 915 914
f 915 956 916
f 917 645 956
f 918 919 917
f 918 920 919
f 919 920 921
f 920 922 921
f 918 976 920
f 920 977 922
f 977 923 922
f 977 924 923
f 926 929 927
f 927 929 928
f 929 1077 928
f 924 977 925
f 982 927 925
f 982 926 927
f 926 983 929
f 985 1077 929
f 956 918 917
f 975 918 981
f 956 981 918
f 918 975 976
f 920 976 977
f 925 977 982
f 982 983 926
f 983 984 929
f 984 985 929
f 1077 985 1196
f 539 930 932
f 538 539 933
f 930 931 932
f 932 933 539
f 935 936 937
f 538 933 1068
f 934 1068 933
f 934 935 1071
f 935 937 1071
f 937 939 1071
f 939 938 1073
f 940 941 938
f 938 941 943
f 942 943 944
f 942 944 946
f 945 1164 948
f 942 946 947
f 938 943 1073
f 942 1074 943
f 947 1074 942
f 948 1164 1076
f 1165 1076 1164
f 1074 947 948
f 911 954 960
f 911 960 967
f 950 949 951
f 953 955 954
f 954 955 960
f 956 911 967
f 956 957 981
f 956 969 957
f 958 957 968
f 968 980 958
f 959 963 960
f 604 961 963
f 602 972 605
f 961 962 964
f 962 605 965
f 960 963 973
f 961 966 963
f 961 964 966
f 962 965 964
f 605 972 965
f 594 1028 1029
f 964 971 966
f 972 602 1029
f 964 965 971
f 956 967 969
f 968 957 969
f 969 997 968
f 960 973 967
f 963 966 973
f 966 971 970
f 965 972 971
f 966 970 973
f 970 971 974
f 971 972 974
f 967 1023 969
f 967 973 1023
f 970 1027 973
f 972 1031 974
f 970 1034 1027
f 970 974 1034
f 972 1029 1031
f 1031 1032 974
f 594 1259 1028
f 1270 1259 426
f 957 978 981
f 957 958 978
f 978 958 979
f 979 958 980
f 1000 978 979
f 980 1000 979
f 975 981 1193
f 975 1193 976
f 976 1193 977
f 982 977 1193
f 981 1194 1193
f 982 1193 983
f 983 1193 984
f 984 1193 985
f 1194 981 978
f 987 1194 978
f 1006 1191 986
f 1194 987 986
f 1006 1009 1191
f 1192 986 1191
f 986 1192 1194
f 1009 1239 1216
f 1191 1009 1216
f 1230 1216 1016
f 1016 1216 1239
f 968 997 980
f 1000 987 978
f 989 986 987
f 986 989 988
f 980 997 1000
f 986 991 990
f 986 988 995
f 986 993 991
f 993 986 995
f 988 992 995
f 988 1001 992
f 988 989 1001
f 989 987 1000
f 989 1000 1001
f 993 995 994
f 995 992 1002
f 992 1001 1002
f 997 998 996
f 997 996 999
f 997 999 1000
f 1000 1004 1001
f 1000 999 1004
f 1002 1001 1004
f 1003 1002 1005
f 1002 1004 1005
f 996 1017 999
f 996 998 1017
f 999 1017 1004
f 1004 1017 1005
f 1003 1005 1040
f 986 1008 1006
f 986 1007 1008
f 1006 1008 1009
f 986 990 1007
f 990 1009 1007
f 1007 1009 1008
f 990 991 1009
f 991 1010 1009
f 991 993 1010
f 993 994 1011
f 994 995 1012
f 993 1011 1010
f 994 1012 1011
f 995 1013 1012
f 995 1002 1013
f 1013 1002 1014
f 1012 1013 1014
f 1002 1003 1014
f 1003 1040 1015
f 1014 1003 1015
f 1014 1015 1016
f 969 1021 997
f 969 1023 1021
f 1005 1017 1040
f 998 1018 1017
f 997 1020 998
f 1017 1018 1040
f 998 1020 1018
f 997 1021 1020
f 1018 1020 1022
f 1018 1022 1019
f 1019 1022 1024
f 1022 1021 1024
f 1020 1021 1022
f 1021 1023 1024
f 1026 1024 1023
f 973 1027 1026
f 973 1026 1023
f 974 1035 1034
f 974 1032 1035
f 1029 1028 1031
f 1028 1030 1031
f 1032 1033 1035
f 1026 1027 1025
f 1037 1025 1027
f 1027 1034 1042
f 1037 1027 1042
f 1036 1025 1037
f 1035 1038 1034
f 1035 1033 1039
f 1034 1038 1042
f 1035 1039 1038
f 1039 1033 1044
f 1018 1047 1040
f 1018 1019 1041
f 1015 1040 1047
f 1018 1049 1047
f 1018 1041 1049
f 1024 1026 1041
f 1026 1025 1041
f 1019 1024 1041
f 1025 1036 1041
f 1036 1051 1041
f 1036 1037 1042
f 1036 1042 1051
f 1038 1039 1043
f 1038 1043 1042
f 1039 1045 1043
f 1039 1044 1045
f 1031 1030 1062
f 1031 1062 1032
f 1032 1062 1033
f 1042 1043 1055
f 1042 1055 1051
f 1043 1045 1052
f 1062 1044 1033
f 1045 1046 1052
f 1028 1259 1030
f 1009 1010 1239
f 1010 1011 1239
f 1011 1012 1239
f 1012 1014 1239
f 1014 1016 1239
f 1015 1230 1016
f 1015 1047 1230
f 1047 1048 1230
f 1048 1056 1222
f 1047 1049 1048
f 1041 1050 1049
f 1041 1051 1050
f 1050 1051 1058
f 1043 1052 1055
f 1062 1045 1044
f 1046 1053 1052
f 1053 1046 1054
f 1052 1053 1054
f 1046 1045 1062
f 1051 1055 1058
f 1062 1030 1061
f 1052 1059 1055
f 1054 1046 1059
f 1052 1054 1059
f 1048 1049 1056
f 1049 1057 1056
f 1049 1050 1057
f 1050 1246 1057
f 1050 1058 1246
f 1046 1062 1059
f 1055 1060 1058
f 1055 1059 1060
f 1058 1060 1062
f 1060 1059 1062
f 1058 1062 1065
f 1058 1065 1252
f 1062 1063 1066
f 1061 1063 1062
f 1066 1064 1065
f 1062 1066 1065
f 1030 1259 1061
f 1270 426 1271
f 538 1068 613
f 934 1071 1068
f 939 1073 1071
f 426 1067 1271
f 612 1069 1067
f 612 1068 1069
f 1068 1071 1069
f 1067 1069 1070
f 1067 1070 1072
f 1069 1071 1070
f 943 1074 1073
f 948 1076 1074
f 1281 1282 1067
f 1070 1074 1075
f 1072 1281 1067
f 1070 1075 1072
f 1073 1074 1071
f 1070 1071 1074
f 1074 1076 1075
f 1075 1076 1285
f 1072 1075 1286
f 1072 1286 1281
f 1078 1199 714
f 1081 714 1199
f 1080 1081 1082
f 1083 1084 1085
f 1083 1086 1084
f 1086 1083 1091
f 1083 1092 1091
f 1084 1086 1087
f 1080 1082 1086
f 1086 1088 1080
f 1082 1087 1086
f 1089 1088 1091
f 1086 1091 1088
f 1089 1091 1090
f 1091 1092 1093
f 1092 1090 1093
f 1090 1091 1093
f 1077 1198 1079
f 1078 1079 1199
f 1085 1084 1190
f 1190 1098 1085
f 1084 1087 1190
f 1085 1098 1094
f 1094 1098 1095
f 1098 1097 1095
f 1098 1096 1097
f 1097 1096 1099
f 1097 1099 1100
f 1100 1099 1101
f 1098 1108 1096
f 1099 1096 1108
f 1101 1099 1109
f 1101 1104 1100
f 1102 1100 1105
f 1100 1104 1105
f 1102 1105 1103
f 1103 1105 1107
f 1105 1106 1107
f 1101 1109 1104
f 1104 1111 1105
f 1100 1141 1097
f 1100 1102 1141
f 1103 1141 1102
f 1103 1107 1141
f 1108 1109 1099
f 1108 1110 1109
f 1108 1111 1110
f 1105 1115 1106
f 1109 1110 1104
f 1104 1110 1111
f 1105 1111 1113
f 1105 1113 1114
f 1106 1122 1107
f 1105 1114 1115
f 1108 1112 1111
f 1106 1115 1118
f 1106 1118 1119
f 1111 1112 1113
f 1114 1113 1112
f 1114 1112 1115
f 1112 1117 1115
f 1106 1119 1122
f 1107 1122 1123
f 1123 1141 1107
f 1081 1199 1082
f 1082 1200 1087
f 1196 1197 1077
f 1198 1077 1197
f 1079 1198 1201
f 1079 1201 1199
f 1199 1202 1082
f 1082 1202 1200
f 1087 1192 1190
f 1192 1087 1193
f 1193 1087 1195
f 1195 1087 1200
f 1098 1190 1108
f 1108 1190 1112
f 1112 1190 1116
f 1116 1117 1112
f 1116 1121 1120
f 1116 1118 1117
f 1115 1117 1118
f 1118 1116 1119
f 1116 1120 1119
f 1121 1137 1127
f 1137 1128 1127
f 1137 1139 1128
f 1121 1122 1120
f 1126 1121 1127
f 1122 1121 1124
f 1124 1121 1125
f 1125 1121 1126
f 1120 1122 1119
f 1122 1124 1123
f 1128 1129 1127
f 1126 1127 1129
f 1121 1116 1190
f 1121 1190 1137
f 1137 1190 1138
f 1130 1132 1138
f 1130 1133 1131
f 1130 1131 1132
f 1130 1138 1240
f 1138 1241 1240
f 1130 1134 1135
f 1130 1136 1134
f 1133 1130 1135
f 1138 1139 1137
f 1138 1140 1139
f 1132 1140 1138
f 1097 1141 1142
f 1097 1142 1143
f 1123 1124 1141
f 1146 1144 1145
f 1146 1145 1147
f 1145 1148 1147
f 1146 1147 1149
f 1149 1147 1150
f 1147 1148 1153
f 1150 1147 1151
f 1151 1147 1152
f 1152 1147 1155
f 1153 1155 1147
f 1153 1154 1155
f 1155 1159 1156
f 1154 1159 1155
f 1157 1156 1159
f 1159 1158 1157
f 1154 1161 1159
f 1159 1161 1162
f 1161 1163 1162
f 1163 1161 1181
f 1161 1160 1182
f 1181 1161 1182
f 1141 1269 1142
f 1124 1269 1141
f 1142 1272 1143
f 1272 1144 1143
f 1144 1272 1145
f 1148 1145 1274
f 1153 1148 1275
f 1153 1275 1154
f 1154 1278 1161
f 1161 1278 1160
f 1160 1280 1182
f 1165 1164 945
f 1166 1167 1168
f 1168 1167 1169
f 1168 1169 1174
f 1174 1172 1173
f 1171 1174 1170
f 1169 1170 1174
f 1174 1171 1172
f 1176 1177 1178
f 1176 1178 1180
f 1178 1179 1180
f 1166 1285 1165
f 1166 1168 1285
f 1174 1288 1168
f 1175 1289 1174
f 1176 1289 1175
f 1176 1180 1289
f 1179 1189 1187
f 1179 1187 1180
f 1183 1182 1186
f 1183 1186 1185
f 1184 1185 1189
f 1185 1187 1189
f 1188 1187 1185
f 1185 1186 1188
f 1187 1299 1180
f 1182 1280 1186
f 1186 1280 1188
f 1188 1299 1187
f 1192 1193 1194
f 1195 985 1193
f 1195 1196 985
f 1195 1197 1196
f 1195 1198 1197
f 1199 1201 1202
f 1198 1195 1200
f 1201 1198 1200
f 1200 1202 1201
f 1190 1203 1138
f 1203 1190 1192
f 1204 1203 1238
f 1241 1203 1204
f 1238 1240 1241
f 1244 1240 1238
f 1241 1204 1238
f 1191 1216 1192
f 1205 1206 1209
f 1206 1220 1209
f 1209 1220 1208
f 1208 1220 1207
f 1207 1220 1210
f 1220 1211 1210
f 1213 1212 1220
f 1220 1212 1211
f 1213 1220 1214
f 1220 1215 1214
f 1206 1205 1216
f 1206 1216 1217
f 1216 1230 1231
f 1206 1217 1220
f 1217 1218 1220
f 1216 1231 1221
f 1217 1216 1218
f 1216 1221 1218
f 1215 1220 1223
f 1219 1222 1220
f 1218 1219 1220
f 1219 1218 1222
f 1221 1222 1218
f 1222 1234 1220
f 1220 1226 1225
f 1223 1220 1225
f 1220 1228 1226
f 1227 1228 1220
f 1220 1229 1227
f 1220 1233 1229
f 1220 1232 1233
f 1220 1235 1232
f 1220 1234 1235
f 1224 1223 1225
f 1234 1236 1235
f 1048 1231 1230
f 1048 1221 1231
f 1048 1222 1221
f 1056 1234 1222
f 1234 1245 1236
f 1238 1236 1248
f 1238 1248 1237
f 1203 1192 1216
f 1205 1203 1216
f 1203 1205 1209
f 1207 1210 1203
f 1207 1203 1208
f 1213 1214 1203
f 1212 1213 1203
f 1209 1208 1203
f 1210 1211 1203
f 1211 1212 1203
f 1203 1214 1215
f 1215 1223 1203
f 1224 1225 1203
f 1224 1203 1223
f 1225 1226 1203
f 1226 1228 1203
f 1203 1227 1229
f 1203 1228 1227
f 1233 1232 1203
f 1203 1229 1233
f 1203 1232 1235
f 1203 1235 1236
f 1203 1236 1238
f 1244 1238 1237
f 1242 1243 1248
f 1243 1244 1248
f 1244 1237 1248
f 1131 1248 1254
f 1131 1254 1258
f 1203 1241 1138
f 1136 1240 1242
f 1240 1243 1242
f 1243 1240 1244
f 1130 1240 1136
f 1128 1139 1264
f 1128 1264 1129
f 1139 1140 1264
f 1133 1135 1248
f 1134 1136 1248
f 1135 1134 1248
f 1133 1248 1131
f 1132 1261 1140
f 1131 1261 1132
f 1125 1126 1267
f 1126 1129 1267
f 1124 1125 1269
f 1136 1242 1248
f 1131 1258 1261
f 1140 1261 1264
f 1264 1267 1129
f 1056 1245 1234
f 1245 1247 1236
f 1236 1247 1248
f 1056 1057 1245
f 1057 1249 1245
f 1058 1253 1246
f 1057 1246 1250
f 1057 1250 1249
f 1245 1249 1247
f 1249 1248 1247
f 1249 1251 1248
f 1249 1250 1251
f 1246 1253 1255
f 1246 1251 1250
f 1251 1246 1257
f 1065 1064 1263
f 1246 1255 1257
f 1065 1263 1252
f 1058 1252 1253
f 1248 1251 1254
f 1251 1256 1254
f 1254 1256 1258
f 1251 1257 1256
f 1252 1263 1253
f 1263 1255 1253
f 1257 1265 1256
f 1256 1261 1258
f 1263 1265 1255
f 1263 1064 1262
f 1265 1257 1255
f 1061 1259 1063
f 1066 1063 1259
f 1066 1260 1064
f 1066 1259 1260
f 1260 1262 1064
f 1259 1266 1260
f 1261 1256 1265
f 1261 1265 1263
f 1262 1261 1263
f 1260 1267 1262
f 1261 1267 1264
f 1262 1267 1261
f 1260 1268 1267
f 1260 1266 1268
f 1266 1259 1270
f 1266 1270 1268
f 1142 1269 1272
f 1125 1267 1269
f 1272 1274 1145
f 1148 1274 1275
f 1154 1275 1278
f 1279 1160 1277
f 1160 1278 1277
f 1160 1279 1280
f 1267 1268 1269
f 1268 1272 1269
f 1268 1270 1273
f 1268 1273 1272
f 1270 1271 1276
f 1270 1276 1273
f 1271 1294 1276
f 1272 1273 1274
f 1273 1275 1274
f 1273 1276 1275
f 1276 1294 1277
f 1275 1276 1278
f 1276 1277 1278
f 1294 1279 1277
f 1279 1294 1295
f 1279 1295 1280
f 1076 1165 1285
f 1168 1288 1285
f 1174 1289 1288
f 1180 1299 1289
f 1271 1067 1290
f 1282 1290 1067
f 1281 1286 1287
f 1281 1283 1282
f 1281 1287 1283
f 1283 1287 1299
f 1075 1285 1284
f 1075 1284 1286
f 1284 1285 1288
f 1284 1287 1286
f 1284 1288 1289
f 1284 1289 1287
f 1287 1289 1299
f 1188 1293 1299
f 1188 1280 1295
f 1188 1295 1296
f 1188 1296 1297
f 1188 1298 1293
f 1188 1297 1298
f 1282 1291 1290
f 1271 1290 1294
f 1290 1291 1294
f 1283 1299 1298
f 1282 1283 1291
f 1283 1292 1291
f 1283 1298 1292
f 1293 1298 1299
f 1291 1297 1294
f 1291 1292 1297
f 1295 1294 1296
f 1294 1297 1296
f 1292 1298 1297
