# https://github.com/mikedh/trimesh

o collision
v -0.05373892 -0.03989713 -0.07167345
v -0.06470220 -0.01655926 -0.07125976
v -0.06063480 -0.02528277 -0.07514558
v -0.06209002 -0.02476856 -0.06985613
v -0.05768749 -0.03386320 -0.06985651
v -0.05768832 -0.03386194 -0.06985613
v -0.05709510 -0.03249974 -0.07517512
v -0.05731796 -0.02018879 -0.07547062
v -0.04606954 -0.04654878 -0.07501260
v -0.04880299 -0.04573085 -0.06985613
v -0.03393620 -0.05585265 -0.07516774
v -0.03388376 -0.05771102 -0.06985613
v -0.04132699 -0.05254487 -0.07049885
v -0.06456782 -0.01187123 -0.07529332
v -0.06594437 -0.01122772 -0.06985613
v -0.06690141 -0.00049248 -0.06982613
v -0.06690141 -0.00049248 -0.06985613
v -0.06438428 0.01372495 -0.07520467
v -0.06639012 0.00846860 -0.06985613
v -0.06454159 0.01761009 -0.07192463
v -0.05917303 0.02831526 -0.07527117
v -0.05552844 0.02637871 -0.07547062
v -0.02618816 -0.06148189 -0.07120065
v -0.02210438 -0.06151196 -0.07530810
v -0.01848929 -0.06418975 -0.07046191
v -0.01080353 -0.06497610 -0.07523422
v -0.00805369 -0.06636537 -0.06985613
v -0.00000085 -0.06688861 -0.06985613
v -0.05373892 -0.03989713 0.07164345
v -0.05373892 -0.03989713 0.07167345
v -0.06059548 -0.02845824 0.06985613
v -0.06503322 -0.01558797 0.06985613
v -0.06256198 -0.02376721 0.06985613
v -0.06063480 -0.02528277 0.07514558
v -0.05709510 -0.03249974 0.07517512
v -0.05731796 -0.02018879 0.07547062
v -0.04606954 -0.04654878 0.07501260
v -0.04520101 -0.04924311 0.07049885
v -0.03933098 -0.05416267 0.06985613
v -0.03393620 -0.05585265 0.07516774
v -0.06645566 -0.00764931 0.06985613
v -0.06456782 -0.01187123 0.07529332
v -0.06690141 -0.00049248 0.06985613
v -0.06639012 0.00846860 0.06985613
v -0.06438428 0.01372495 0.07520467
v -0.06454159 0.01761009 0.07192463
v -0.06094944 0.02471880 0.07526378
v -0.05552844 0.02637871 0.07547062
v -0.05739662 0.03191172 0.07527855
v -0.03222534 -0.05850489 0.07125237
v -0.02574242 -0.06168035 0.07120065
v -0.01970525 -0.06395370 0.06985613
v -0.00895501 -0.06631125 0.06985613
v -0.01080353 -0.06497610 0.07523422
v -0.00000085 -0.06688861 0.06985613
v -0.00000085 -0.05601503 0.07547062
v -0.05075639 0.05598031 -0.05193777
v -0.05030458 0.05595031 -0.05259842
v -0.05030458 0.05597622 -0.05259842
v -0.05055461 0.05598031 -0.05220467
v -0.05103231 0.05595031 -0.05145240
v -0.05103231 0.05598031 -0.05145240
v -0.05089605 0.05598031 -0.05166698
v -0.05848075 0.05598031 -0.03814162
v -0.05416971 0.05598031 -0.04651165
v -0.05048435 0.07659670 -0.04409964
v -0.05262109 0.07657608 -0.04147338
v -0.05262109 0.07660609 -0.04147338
v -0.05267858 0.07659670 -0.04139207
v -0.05239883 0.07660609 -0.04178129
v -0.05402557 0.07659670 -0.03972994
v -0.05199410 0.07660609 -0.04224705
v -0.05199410 0.07657608 -0.04224705
v -0.05187754 0.07659670 -0.04238052
v -0.05018610 0.04254472 -0.07526378
v -0.04305423 0.04972561 -0.07526378
v -0.03510414 0.05598031 -0.07344645
v -0.04871866 0.05598031 -0.05509592
v -0.03547104 0.07659670 -0.05710532
v -0.03547104 0.07659670 -0.05710100
v -0.04746802 0.07660609 -0.04742949
v -0.04611035 0.07657608 -0.04864593
v -0.04611035 0.07660609 -0.04864593
v -0.04601484 0.07659670 -0.04873151
v -0.04518072 0.07659670 -0.04959593
v -0.04288528 0.07659670 -0.05153552
v -0.04253269 0.07660437 -0.05184914
v -0.04257780 0.07657608 -0.05181102
v -0.04922109 0.07660609 -0.04542220
v -0.04922109 0.07657608 -0.04542220
v -0.04934442 0.07659670 -0.04528098
v -0.04182767 0.07660609 -0.05248312
v -0.04137254 0.07659670 -0.05281376
v -0.04150486 0.07657608 -0.05271763
v -0.04150486 0.07660609 -0.05271763
v -0.03986071 0.07659670 -0.05409122
v -0.06042835 0.05595031 -0.03323435
v -0.06044988 0.05598031 -0.03318598
v -0.06044988 0.05595031 -0.03318598
v -0.06104832 0.05598031 -0.03207773
v -0.06318490 0.05598031 -0.02593010
v -0.06444284 0.05598031 -0.02127967
v -0.06468468 0.05595031 -0.02012604
v -0.06468468 0.05598031 -0.02012604
v -0.06471231 0.05598031 -0.01999425
v -0.06475152 0.05595031 -0.01980721
v -0.06475152 0.05598031 -0.01980721
v -0.06562214 0.05598031 -0.01565410
v -0.06628176 0.05598031 -0.01095312
v -0.06631615 0.05598031 -0.01074141
v -0.06631663 0.05598031 -0.01074141
v -0.06678836 0.05598031 -0.00536332
v -0.06685027 0.05598031 -0.00294990
v -0.06685302 0.05598031 -0.00287190
v -0.06692763 0.05598031 -0.00178777
v -0.06689565 0.05598031 -0.00121108
v -0.06689633 0.05598031 -0.00115434
v -0.05872314 0.07659670 -0.03206430
v -0.06039919 0.07659270 -0.02892544
v -0.06040764 0.07660609 -0.02890966
v -0.06040001 0.07659248 -0.02892392
v -0.06281249 0.07659670 -0.02322207
v -0.06279179 0.07659670 -0.02328538
v -0.06075331 0.07660609 -0.02826372
v -0.06262546 0.07660609 -0.02368211
v -0.05701315 0.07659670 -0.03526789
v -0.05699308 0.07659670 -0.03529030
v -0.05699308 0.07660609 -0.03529030
v -0.06452145 0.07659670 -0.01799593
v -0.06537332 0.07659670 -0.01397069
v -0.06538782 0.07660609 -0.01391707
v -0.06577133 0.07660609 -0.01253259
v -0.06589397 0.07659670 -0.01150995
v -0.06588632 0.07660609 -0.01154953
v -0.06606767 0.07659670 -0.01068970
v -0.06682766 0.07659670 -0.00355338
v -0.06681933 0.07659670 -0.00357394
v -0.06681933 0.07662670 -0.00357394
v -0.06681947 0.07659670 -0.00359480
v -0.05073038 0.14820795 -0.04365402
v -0.05386173 0.15015569 -0.03957703
v -0.04502125 0.14820795 -0.04947782
v -0.03958070 0.15015569 -0.05386615
v -0.04030130 0.15169582 -0.04926152
v -0.06209953 0.14731154 -0.02484876
v -0.06129048 0.15045819 -0.02596960
v -0.05745819 0.14820795 -0.03430055
v -0.05194886 0.15197064 -0.03403181
v -0.06448734 0.15000813 -0.01793361
v -0.06632160 0.14820795 -0.00895375
v -0.06539137 0.15093036 -0.00895375
v -0.06683253 0.14798991 -0.00001108
v -0.06683257 0.14820795 -0.00000020
v -0.06683258 0.14820795 -0.00000011
v -0.06269691 0.15196890 -0.00001511
v -0.03320990 0.05595310 -0.07520784
v -0.03320990 0.05597990 -0.07520784
v -0.03321726 0.05598031 -0.07520100
v -0.03309480 0.05597347 -0.07531487
v -0.03308623 0.05597344 -0.07532284
v -0.03308623 0.05598031 -0.07532284
v -0.03308620 0.05598031 -0.07532287
v -0.03299338 0.05598031 -0.07532328
v -0.03299338 0.05598031 -0.07532296
v -0.03245724 0.05695109 -0.07529332
v -0.02534205 0.06051531 -0.07529332
v -0.01967051 0.05598031 -0.07547055
v -0.03017785 0.07659137 -0.06006444
v -0.03017356 0.07659077 -0.06006684
v -0.03003308 0.07659670 -0.06012415
v -0.02518153 0.07659670 -0.06227287
v -0.02253452 0.07659670 -0.06318337
v -0.02227265 0.07657608 -0.06329021
v -0.02217733 0.07657608 -0.06332299
v -0.02195831 0.07659670 -0.06338158
v -0.01838410 0.07659670 -0.06461101
v -0.01466271 0.06406742 -0.07527855
v -0.01074477 0.06418852 -0.07533765
v -0.00987339 0.07659670 -0.06623626
v -0.01480372 0.07659670 -0.06529474
v -0.01458928 0.07657608 -0.06535207
v -0.01458928 0.07660609 -0.06535207
v -0.01252328 0.07660609 -0.06590059
v -0.01107539 0.07657608 -0.06602310
v -0.01107539 0.07660609 -0.06602310
v -0.01092235 0.07659670 -0.06603594
v -0.00002848 0.07662670 -0.06694904
v -0.00002848 0.07659670 -0.06695283
v -0.03339662 0.14820795 -0.05799558
v -0.02642643 0.14820795 -0.06149575
v -0.02598096 0.15045819 -0.06129912
v -0.01793642 0.15000813 -0.06449778
v -0.02686534 0.15197064 -0.05553103
v -0.00894854 0.15093036 -0.06538921
v -0.00805761 0.14820795 -0.06633963
v -0.06692555 0.05598031 0.00001536
v -0.06678836 0.05598031 0.00536332
v -0.06630353 0.05598031 0.01074141
v -0.06623393 0.05596531 0.01076007
v -0.06623289 0.05598031 0.01077874
v -0.06623147 0.05595031 0.01078925
v -0.06554352 0.05598031 0.01611951
v -0.06422663 0.05598031 0.02222158
v -0.06324635 0.05595031 0.02541427
v -0.06323805 0.05598031 0.02544008
v -0.06323805 0.05595031 0.02544008
v -0.06324314 0.05595031 0.02542575
v -0.06288351 0.05598031 0.02686092
v -0.06062972 0.05598031 0.03316246
v -0.06682111 0.07659670 0.00362726
v -0.06673893 0.07659670 0.00432084
v -0.06673724 0.07660609 0.00436743
v -0.06672776 0.07660609 0.00541402
v -0.06576683 0.07660609 0.01252740
v -0.06576677 0.07660609 0.01253007
v -0.06576607 0.07657608 0.01253278
v -0.06577133 0.07660609 0.01253236
v -0.06576475 0.07657608 0.01253888
v -0.06576475 0.07660609 0.01253888
v -0.06359837 0.07659670 0.02077788
v -0.06364227 0.07660609 0.02066012
v -0.06360183 0.07660609 0.02076855
v -0.06350920 0.07659670 0.02111715
v -0.06138290 0.07659670 0.02671801
v -0.06112671 0.07657608 0.02739728
v -0.06111842 0.07657608 0.02741824
v -0.06109776 0.07657608 0.02746006
v -0.06104662 0.07659670 0.02755765
v -0.05884765 0.07659670 0.03198784
v -0.05698178 0.07659670 0.03531288
v -0.05697386 0.07659670 0.03532699
v -0.05854459 0.05595183 0.03781168
v -0.05854459 0.05598031 0.03781168
v -0.05843878 0.05598031 0.03804760
v -0.05833249 0.05598031 0.03832297
v -0.05821240 0.05598031 0.03855237
v -0.05808762 0.05598031 0.03883059
v -0.05808762 0.05595031 0.03883059
v -0.05743247 0.05598031 0.04029138
v -0.05392074 0.05598031 0.04691058
v -0.05200440 0.05598031 0.05000268
v -0.05200440 0.05595031 0.05000268
v -0.05191191 0.05596292 0.05015191
v -0.05186259 0.05596250 0.05023149
v -0.05178165 0.05596406 0.05036210
v -0.05176875 0.05598031 0.05038291
v -0.05176875 0.05595031 0.05038291
v -0.05045487 0.05598031 0.05250291
v -0.05398626 0.07659670 0.03978904
v -0.04681865 0.05598031 0.05769632
v -0.05018610 0.04254472 0.07526378
v -0.04305423 0.04972561 0.07526378
v -0.03510414 0.05598031 0.07344645
v -0.04958190 0.07659670 0.04514670
v -0.04956860 0.07659670 0.04516453
v -0.04958103 0.07662670 0.04514783
v -0.04470244 0.07659670 0.05007242
v -0.04227287 0.07659670 0.05208089
v -0.04227287 0.07662670 0.05208089
v -0.04223470 0.07659670 0.05211244
v -0.03984105 0.07659670 0.05409122
v -0.03555974 0.07659670 0.05703531
v -0.03545732 0.07659262 0.05710910
v -0.03546672 0.07660609 0.05710392
v -0.06539137 0.15093036 0.00895353
v -0.06603336 0.14820728 0.01074296
v -0.06603336 0.14820795 0.01074294
v -0.06448734 0.15000813 0.01793339
v -0.06273169 0.14462233 0.02328197
v -0.06129048 0.15045819 0.02596937
v -0.05800192 0.14820795 0.03340234
v -0.05194886 0.15197064 0.03403158
v -0.05386173 0.15015569 0.03957681
v -0.05073038 0.14820795 0.04365380
v -0.04502125 0.14820795 0.04947760
v -0.04030130 0.15169582 0.04926129
v -0.03958070 0.15015569 0.05386592
v -0.03321389 0.05595031 0.07520413
v -0.03321389 0.05598031 0.07520413
v -0.03308626 0.05598031 0.07532281
v -0.03308620 0.05598031 0.07532287
v -0.03305402 0.05598031 0.07532302
v -0.03245724 0.05695109 0.07529332
v -0.02534205 0.06051531 0.07529332
v -0.02932194 0.07660609 0.06048611
v -0.02932194 0.07658941 0.06048611
v -0.02907985 0.07659670 0.06058237
v -0.02328480 0.07659670 0.06303009
v -0.02205113 0.07659670 0.06337717
v -0.02190958 0.07657608 0.06343346
v -0.02190958 0.07660609 0.06343346
v -0.02126102 0.07660609 0.06369134
v -0.01995877 0.07657608 0.06398231
v -0.01995877 0.07660609 0.06398231
v -0.01967423 0.07659670 0.06404590
v -0.01466271 0.06406742 0.07527855
v -0.01074477 0.06418852 0.07533765
v -0.00132992 0.05598031 0.07547062
v -0.01484289 0.07659670 0.06540517
v -0.01084853 0.07659670 0.06601785
v -0.01061704 0.07657608 0.06606955
v -0.01061704 0.07660609 0.06606955
v -0.00984929 0.07660609 0.06624109
v -0.00919109 0.07657608 0.06628827
v -0.00919109 0.07660609 0.06628827
v -0.00899285 0.07659670 0.06630249
v -0.00719097 0.07659670 0.06657887
v -0.02686534 0.15197064 0.05553081
v -0.03339662 0.14820795 0.05799535
v -0.02598096 0.15045819 0.06129888
v -0.02642643 0.14820795 0.06149554
v -0.01793642 0.15000813 0.06449755
v -0.01074350 0.14820795 0.06601824
v -0.00891854 0.15093036 0.06538898
v -0.00894854 0.15093036 0.06538898
v 0.01080183 -0.06497610 -0.07523422
v 0.00895331 -0.06631125 -0.06985613
v 0.01848923 -0.06418975 -0.07046191
v 0.02618974 -0.06148189 -0.07120065
v 0.02618810 -0.06148247 -0.07120049
v 0.02799472 -0.05869103 -0.07523790
v 0.02801859 -0.05868230 -0.07523791
v 0.03222565 -0.05850552 -0.07125236
v 0.03222692 -0.05850489 -0.07125237
v 0.03932928 -0.05416267 -0.06985613
v 0.04332785 -0.05092707 -0.07114156
v 0.04606785 -0.04654878 -0.07501260
v 0.05375033 -0.03989713 -0.07167345
v 0.05053837 -0.04390255 -0.06985613
v 0.05550053 -0.03455658 -0.07524161
v 0.06059377 -0.02845824 -0.06985613
v 0.06256029 -0.02376721 -0.06985613
v 0.06503153 -0.01558797 -0.06985613
v 0.06456612 -0.01187123 -0.07529332
v 0.06645397 -0.00764931 -0.06985613
v 0.06690626 -0.00049248 -0.06985613
v 0.05866168 0.00511270 -0.07546970
v 0.05860848 0.00515884 -0.07546957
v 0.06438258 0.01372495 -0.07520467
v 0.06640153 0.00846860 -0.06985613
v 0.05739493 0.03191172 -0.07527855
v 0.06094775 0.02471880 -0.07526378
v 0.06453990 0.01761009 -0.07192463
v 0.00805855 -0.06636537 0.06985613
v 0.01080183 -0.06497610 0.07523422
v 0.01848923 -0.06418975 0.07046191
v 0.02618974 -0.06148189 0.07117064
v 0.02618974 -0.06148189 0.07120065
v 0.03388206 -0.05771102 0.06985613
v 0.03393450 -0.05585265 0.07516774
v 0.04132857 -0.05254487 0.07049885
v 0.04881440 -0.04573085 0.06985613
v 0.05375033 -0.03989713 0.07164345
v 0.05375033 -0.03989713 0.07167345
v 0.05768662 -0.03386194 0.06985613
v 0.05709340 -0.03249974 0.07517512
v 0.05726834 -0.02021875 0.07547062
v 0.05731627 -0.02018879 0.07547062
v 0.06208832 -0.02476856 0.06985613
v 0.06063311 -0.02528277 0.07514558
v 0.06470050 -0.01655926 0.07125976
v 0.06594268 -0.01122772 0.06985613
v 0.06456612 -0.01187123 0.07529332
v 0.06692593 0.00129974 0.06985613
v 0.06640153 0.00846860 0.06985613
v 0.06438258 0.01372495 0.07520467
v 0.05917134 0.02831526 0.07527117
v 0.06453990 0.01761009 0.07192463
v 0.00000008 0.06221871 -0.07547062
v 0.01466287 0.06406742 -0.07527855
v 0.00000864 0.07659670 -0.06695124
v 0.00000371 0.07659670 -0.06695520
v 0.00000008 0.07659670 -0.06696023
v 0.00716113 0.07659670 -0.06658347
v 0.00871588 0.07659670 -0.06632257
v 0.00888623 0.07657608 -0.06631035
v 0.00888623 0.07660609 -0.06631035
v 0.00984936 0.07660609 -0.06624132
v 0.01151381 0.07657608 -0.06586942
v 0.01151381 0.07660609 -0.06586942
v 0.01180853 0.07659670 -0.06580359
v 0.02235462 0.05598031 -0.07547062
v 0.03303823 0.05598031 -0.07532305
v 0.03308642 0.05597797 -0.07532281
v 0.03309710 0.05597139 -0.07531288
v 0.03319695 0.05597344 -0.07522003
v 0.03319695 0.05595031 -0.07522003
v 0.03319695 0.05598031 -0.07522003
v 0.02534221 0.06051531 -0.07529332
v 0.03245740 0.05695109 -0.07529332
v 0.01719840 0.07659670 -0.06489912
v 0.02078279 0.07659670 -0.06379844
v 0.02098061 0.07657608 -0.06375422
v 0.02098061 0.07660609 -0.06375422
v 0.02126507 0.07660609 -0.06368998
v 0.02152678 0.07657608 -0.06358650
v 0.02152678 0.07660609 -0.06358650
v 0.02171399 0.07659670 -0.06351249
v 0.02328496 0.07659670 -0.06303009
v 0.02841879 0.07659670 -0.06086166
v 0.02894532 0.07657938 -0.06065349
v 0.02906204 0.07659670 -0.06058997
v 0.02937153 0.07659670 -0.06045924
v 0.00000003 0.14462233 -0.06689677
v -0.00000002 0.15196715 -0.06271080
v 0.00000003 0.15197064 -0.06270181
v 0.00889006 0.15092579 -0.06539080
v 0.00891861 0.15093036 -0.06538921
v 0.00894861 0.15093036 -0.06538921
v 0.01074356 0.14820795 -0.06601845
v 0.01793648 0.15000813 -0.06449778
v 0.02507372 0.15189686 -0.05732044
v 0.02642649 0.14820795 -0.06149575
v 0.02598103 0.15045819 -0.06129912
v 0.03339668 0.14820795 -0.05799558
v 0.03510430 0.05598031 -0.07344645
v 0.04305254 0.04972561 -0.07526378
v 0.04681881 0.05598031 -0.05769632
v 0.03493546 0.07659670 -0.05739332
v 0.03545746 0.07659250 -0.05710921
v 0.03546036 0.07660609 -0.05710763
v 0.03546678 0.07659084 -0.05710414
v 0.03556798 0.07659670 -0.05702950
v 0.03984776 0.07659670 -0.05407644
v 0.04220069 0.07659670 -0.05213780
v 0.04225738 0.07659049 -0.05209588
v 0.04229574 0.07659670 -0.05205949
v 0.04468950 0.07659670 -0.05008720
v 0.04957541 0.07662670 -0.04515347
v 0.04957290 0.07659670 -0.04515627
v 0.04957767 0.07659670 -0.04515047
v 0.05019751 0.04254472 -0.07526378
v 0.05045503 0.05598031 -0.05250291
v 0.05392089 0.05598031 -0.04691058
v 0.05534415 0.05595031 -0.04423780
v 0.05534415 0.05598031 -0.04423780
v 0.05548332 0.05598031 -0.04397647
v 0.05554313 0.05598031 -0.04389279
v 0.05563585 0.05598031 -0.04369002
v 0.05577878 0.05595031 -0.04342160
v 0.05577878 0.05598031 -0.04342160
v 0.05760298 0.05598031 -0.03999589
v 0.05398642 0.07659670 -0.03978904
v 0.06062987 0.05598031 -0.03316984
v 0.06121342 0.05597761 -0.03153636
v 0.06121342 0.05595031 -0.03153636
v 0.06127126 0.05597436 -0.03137445
v 0.06131218 0.05597452 -0.03125991
v 0.06137033 0.05598031 -0.03109713
v 0.06137033 0.05595031 -0.03109713
v 0.06288368 0.05598031 -0.02686092
v 0.06420035 0.05598031 -0.02233336
v 0.06421193 0.05598031 -0.02228387
v 0.06427651 0.05598031 -0.02198499
v 0.06427651 0.05595031 -0.02198499
v 0.06431825 0.05598031 -0.02181294
v 0.06446124 0.05598031 -0.02136463
v 0.06463634 0.05598031 -0.02031939
v 0.06466611 0.05595031 -0.02018161
v 0.06466611 0.05598031 -0.02018161
v 0.06554369 0.05598031 -0.01611951
v 0.06623960 0.05595031 -0.01078925
v 0.06623960 0.05598031 -0.01078925
v 0.06624128 0.05595031 -0.01077281
v 0.06630369 0.05598031 -0.01074141
v 0.06678851 0.05598031 -0.00536332
v 0.05698004 0.07658643 -0.03531652
v 0.05698895 0.07660609 -0.03529950
v 0.05698895 0.07659670 -0.03529950
v 0.05695764 0.07659670 -0.03534630
v 0.05700378 0.07659670 -0.03527584
v 0.06111952 0.07658654 -0.02740642
v 0.06112102 0.07658672 -0.02740300
v 0.06111763 0.07658632 -0.02741003
v 0.06350504 0.07659670 -0.02110844
v 0.06351592 0.07659670 -0.02109499
v 0.06350504 0.07662670 -0.02110844
v 0.06476295 0.07659670 -0.01634860
v 0.06576487 0.07657608 -0.01253898
v 0.06576622 0.07660609 -0.01253698
v 0.06576622 0.07660609 -0.01255218
v 0.06577916 0.07659670 -0.01245126
v 0.06634300 0.07659670 -0.00899797
v 0.06682128 0.07659670 -0.00362726
v 0.06682338 0.07660609 -0.00143345
v 0.06682328 0.07659670 -0.00143518
v 0.06687195 0.07660609 -0.00092104
v 0.06682443 0.07659670 -0.00017260
v 0.06682453 0.07660609 -0.00020457
v 0.03958076 0.15015569 -0.05386615
v 0.04030136 0.15169582 -0.04926152
v 0.04502131 0.14820793 -0.04947782
v 0.04502131 0.14820795 -0.04947782
v 0.05073045 0.14820795 -0.04365402
v 0.05386180 0.15015569 -0.03957703
v 0.05745826 0.14820795 -0.03430055
v 0.05463481 0.15190054 -0.03044970
v 0.06273176 0.14462233 -0.02328220
v 0.06129055 0.15045819 -0.02596960
v 0.06448741 0.15000813 -0.01793361
v 0.06691125 0.14462233 -0.00000011
v 0.06632167 0.14820795 -0.00895375
v 0.00000008 0.06221871 0.07547062
v 0.01466287 0.06406742 0.07527855
v 0.00000008 0.07660609 0.06694711
v 0.00000008 0.07659670 0.06694711
v 0.00001264 0.07659670 0.06695931
v 0.00000008 0.07659670 0.06696023
v 0.00002518 0.07659670 0.06695808
v 0.01100463 0.07659670 0.06602027
v 0.01115881 0.07660609 0.06600720
v 0.01115881 0.07657608 0.06600720
v 0.01257782 0.07660609 0.06588715
v 0.01455936 0.07660609 0.06535781
v 0.01455936 0.07657608 0.06535781
v 0.01477456 0.07659670 0.06530034
v 0.00987355 0.07659670 0.06623626
v 0.03298599 0.05598031 0.07532302
v 0.03307192 0.05598303 0.07532293
v 0.03308643 0.05597364 0.07532281
v 0.03308636 0.05598031 0.07532287
v 0.03308643 0.05598031 0.07532281
v 0.03308638 0.05596908 0.07532284
v 0.03320853 0.05595031 0.07520927
v 0.03320853 0.05598031 0.07520927
v 0.02534221 0.06051531 0.07529332
v 0.03245740 0.05695109 0.07529332
v 0.01838426 0.07659670 0.06461101
v 0.02196263 0.07659670 0.06338014
v 0.02218090 0.07657608 0.06332182
v 0.02226868 0.07657608 0.06329163
v 0.02253056 0.07659670 0.06318479
v 0.02518169 0.07659670 0.06227287
v 0.03004061 0.07659670 0.06012089
v 0.03017797 0.07660609 0.06006419
v 0.03017797 0.07659169 0.06006419
v 0.00000003 0.15197064 0.06270158
v 0.00000003 0.14462233 0.06689656
v 0.00803071 0.14821707 0.06633623
v 0.00805768 0.14820795 0.06633941
v 0.00894861 0.15093036 0.06538898
v 0.01793648 0.15000813 0.06449755
v 0.02507372 0.15189686 0.05732022
v 0.02598103 0.15045819 0.06129888
v 0.02642649 0.14820795 0.06149554
v 0.03339668 0.14820795 0.05799535
v 0.06692611 0.05598031 0.00000000
v 0.06685843 0.05598031 0.00257040
v 0.06685618 0.05598031 0.00272593
v 0.06685479 0.05598031 0.00277986
v 0.06678922 0.05598031 0.00533386
v 0.06631679 0.05598031 0.01074141
v 0.06577455 0.05598031 0.01411183
v 0.06578368 0.05598031 0.01405507
v 0.06562803 0.05598031 0.01562410
v 0.06562137 0.05598031 0.01567744
v 0.06532659 0.05598031 0.01689610
v 0.06530727 0.05595031 0.01701621
v 0.06530727 0.05598031 0.01701621
v 0.06513093 0.05598031 0.01811229
v 0.06324637 0.05595031 0.02549561
v 0.06325695 0.05598031 0.02546410
v 0.06325695 0.05595031 0.02546410
v 0.06318506 0.05598031 0.02593010
v 0.06114747 0.05598031 0.03181054
v 0.05894200 0.05598031 0.03703777
v 0.05894200 0.05595031 0.03703777
v 0.05896180 0.05595031 0.03699378
v 0.05896180 0.05598031 0.03699378
v 0.06682783 0.07659670 0.00355338
v 0.06615779 0.07659670 0.00983359
v 0.06616296 0.07659670 0.00981576
v 0.06616122 0.07662670 0.00981823
v 0.06606782 0.07659670 0.01071186
v 0.06475748 0.07659670 0.01705033
v 0.05703396 0.07659670 0.03522238
v 0.05700190 0.07659670 0.03527270
v 0.06113436 0.07659670 0.02737805
v 0.06281393 0.07659670 0.02321567
v 0.06279177 0.07659670 0.02327061
v 0.06279177 0.07659670 0.02328583
v 0.05895359 0.07659670 0.03177566
v 0.05914463 0.07659670 0.03131227
v 0.05886609 0.07659670 0.03195028
v 0.04870572 0.05598031 0.05509592
v 0.03510430 0.05598031 0.07344645
v 0.04305254 0.04972561 0.07526378
v 0.03990627 0.07659670 0.05404572
v 0.04150707 0.07659670 0.05271585
v 0.04165858 0.07660609 0.05260578
v 0.04165858 0.07657608 0.05260578
v 0.04182773 0.07660609 0.05248290
v 0.04880878 0.07659670 0.04591614
v 0.04900605 0.07657608 0.04573057
v 0.04900605 0.07660609 0.04573057
v 0.04958692 0.07659670 0.04513019
v 0.04921322 0.07657608 0.04552133
v 0.04921322 0.07660609 0.04552133
v 0.04915823 0.07660609 0.04558742
v 0.04928450 0.07659670 0.04543565
v 0.04471571 0.07659670 0.05005026
v 0.04198824 0.07660609 0.05233192
v 0.04198824 0.07657608 0.05233192
v 0.04213201 0.07659670 0.05219668
v 0.03546428 0.07659670 0.05710919
v 0.03546678 0.07659670 0.05710392
v 0.05416986 0.05598031 0.04651165
v 0.05848091 0.05598031 0.03814162
v 0.05113914 0.05595031 0.05127296
v 0.05113914 0.05598031 0.05127296
v 0.05164380 0.05595221 0.05048014
v 0.05165536 0.05598031 0.05046198
v 0.05147292 0.05598031 0.05074859
v 0.05140853 0.05598031 0.05084975
v 0.05019751 0.04254472 0.07526378
v 0.05400591 0.07658456 0.03976034
v 0.05400591 0.07660609 0.03976034
v 0.05402992 0.07659670 0.03972366
v 0.05357363 0.07659670 0.04027995
v 0.06269245 0.15197064 0.00536158
v 0.06635442 0.14820795 0.00805226
v 0.06539144 0.15093036 0.00895353
v 0.06448741 0.15000813 0.01793339
v 0.05732069 0.15183046 0.02686736
v 0.05745826 0.14820795 0.03430032
v 0.06081561 0.14641513 0.02787022
v 0.06129055 0.15045819 0.02596937
v 0.03958076 0.15015569 0.05386592
v 0.04612514 0.15164508 0.04343586
v 0.04502131 0.14820795 0.04947760
v 0.05386180 0.15015569 0.03957681
v 0.05073045 0.14820795 0.04365380
f 1 7 9
f 4 7 6
f 3 7 4
f 2 15 14
f 2 14 3
f 3 14 8
f 2 3 4
f 5 6 7
f 1 5 7
f 3 8 7
f 1 9 13
f 1 13 10
f 7 11 9
f 11 12 13
f 9 11 13
f 8 24 11
f 7 8 11
f 1 10 29
f 4 6 31
f 2 32 15
f 2 4 32
f 1 29 5
f 5 29 6
f 10 13 38
f 12 39 13
f 14 15 17
f 14 17 18
f 15 16 17
f 8 14 18
f 17 19 18
f 18 19 20
f 8 18 22
f 18 20 21
f 18 21 22
f 21 75 22
f 21 99 75
f 19 110 20
f 16 115 17
f 19 17 115
f 20 105 21
f 22 75 160
f 16 15 41
f 110 19 113
f 19 114 113
f 19 115 114
f 115 16 43
f 11 23 12
f 11 24 23
f 23 24 26
f 23 26 25
f 25 26 27
f 27 26 28
f 28 26 316
f 24 322 26
f 8 337 24
f 23 50 12
f 23 25 51
f 25 27 52
f 28 55 27
f 8 22 337
f 164 338 22
f 4 33 32
f 4 31 33
f 6 29 31
f 10 38 29
f 13 39 38
f 12 50 39
f 30 37 35
f 38 30 29
f 31 35 34
f 32 34 42
f 31 34 33
f 32 33 34
f 34 36 42
f 30 35 31
f 29 30 31
f 34 35 36
f 30 38 37
f 35 37 40
f 38 39 50
f 38 50 40
f 37 38 40
f 35 40 36
f 15 32 41
f 41 43 16
f 44 116 115
f 44 117 116
f 44 199 117
f 32 42 41
f 41 42 43
f 42 45 43
f 36 45 42
f 43 45 44
f 44 45 46
f 45 36 48
f 115 43 44
f 44 46 199
f 45 47 46
f 45 48 47
f 46 47 204
f 47 49 207
f 47 48 49
f 48 251 49
f 48 280 251
f 23 51 50
f 25 52 51
f 27 53 52
f 27 55 53
f 40 50 51
f 40 56 36
f 40 51 54
f 51 52 54
f 52 53 54
f 40 54 56
f 54 53 55
f 54 55 345
f 54 345 56
f 56 357 36
f 357 48 36
f 57 75 63
f 61 63 75
f 21 105 103
f 21 103 99
f 75 99 97
f 61 75 97
f 57 63 60
f 58 60 59
f 61 62 63
f 62 64 65
f 64 62 98
f 98 62 97
f 61 97 62
f 78 60 126
f 64 119 65
f 65 118 126
f 60 63 126
f 62 126 63
f 62 65 126
f 71 78 127
f 127 78 126
f 127 69 71
f 66 74 91
f 67 69 68
f 70 72 68
f 68 72 67
f 69 127 68
f 67 72 73
f 72 74 73
f 57 76 75
f 75 76 160
f 58 156 76
f 57 60 76
f 58 76 60
f 77 59 78
f 58 59 156
f 77 82 84
f 77 84 85
f 22 160 163
f 163 164 22
f 59 158 156
f 77 158 59
f 76 159 160
f 156 159 76
f 77 165 158
f 77 85 165
f 78 59 60
f 67 77 69
f 67 73 77
f 73 74 77
f 69 77 71
f 71 77 78
f 66 91 77
f 77 91 90
f 66 77 74
f 77 90 82
f 85 88 165
f 88 94 165
f 93 165 94
f 93 96 165
f 96 80 165
f 79 165 80
f 83 82 89
f 84 82 83
f 87 94 88
f 87 92 95
f 87 95 94
f 84 83 87
f 84 86 85
f 85 86 88
f 84 87 86
f 86 87 88
f 91 89 90
f 82 90 89
f 83 89 81
f 94 95 93
f 96 93 80
f 20 109 106
f 20 106 105
f 109 20 110
f 64 98 100
f 97 99 98
f 98 102 100
f 104 98 99
f 102 101 100
f 104 102 98
f 103 104 99
f 106 107 105
f 64 100 121
f 64 121 119
f 100 120 121
f 101 102 129
f 101 122 123
f 101 129 122
f 100 101 123
f 100 123 120
f 118 65 119
f 106 109 107
f 107 109 108
f 110 113 111
f 111 113 112
f 114 115 116
f 104 135 102
f 103 135 104
f 103 105 135
f 107 135 105
f 107 108 135
f 108 109 135
f 109 110 135
f 110 111 135
f 131 130 102
f 131 102 134
f 102 133 134
f 102 135 133
f 102 130 129
f 111 112 136
f 112 113 136
f 114 136 113
f 114 116 136
f 116 117 136
f 117 196 136
f 111 139 135
f 111 136 139
f 118 119 120
f 120 119 121
f 120 125 124
f 120 123 125
f 118 128 127
f 118 127 126
f 127 128 68
f 129 130 122
f 122 130 131
f 132 131 134
f 133 137 134
f 133 135 139
f 133 139 137
f 134 137 138
f 137 139 136
f 136 211 137
f 211 138 137
f 128 141 68
f 74 72 140
f 70 140 72
f 74 140 91
f 68 141 70
f 70 141 140
f 79 80 189
f 81 142 83
f 83 142 87
f 87 142 92
f 89 140 81
f 89 91 140
f 81 140 142
f 95 143 93
f 95 92 143
f 80 93 143
f 92 142 143
f 140 143 142
f 141 148 143
f 140 141 143
f 143 148 144
f 80 143 189
f 143 144 191
f 144 148 193
f 120 147 118
f 120 124 147
f 123 122 149
f 124 125 145
f 123 145 125
f 124 145 147
f 118 147 128
f 131 132 149
f 122 131 149
f 132 134 150
f 134 138 150
f 150 138 152
f 123 149 145
f 145 146 147
f 145 149 146
f 146 151 148
f 128 147 141
f 141 147 146
f 141 146 148
f 132 150 149
f 146 149 151
f 149 150 151
f 148 151 155
f 150 153 151
f 150 152 153
f 153 152 154
f 151 153 154
f 154 265 151
f 155 151 265
f 155 406 148
f 157 156 158
f 156 157 159
f 159 161 160
f 160 161 162
f 157 161 159
f 163 160 162
f 167 164 163
f 157 158 165
f 157 165 161
f 162 161 165
f 162 165 166
f 165 171 166
f 162 166 178
f 163 162 369
f 369 167 163
f 166 177 178
f 166 176 177
f 165 79 168
f 165 169 170
f 165 168 169
f 165 170 171
f 171 170 172
f 166 171 172
f 166 172 173
f 166 173 174
f 166 174 176
f 174 175 176
f 175 180 176
f 162 178 369
f 177 373 178
f 164 167 383
f 176 181 177
f 177 181 184
f 177 184 186
f 177 186 179
f 176 180 181
f 180 182 181
f 182 185 181
f 183 185 182
f 181 185 184
f 185 186 184
f 179 188 177
f 179 186 188
f 177 188 373
f 187 188 186
f 187 372 188
f 187 371 372
f 188 372 373
f 189 168 79
f 170 190 172
f 190 169 168
f 190 170 169
f 168 189 190
f 172 190 173
f 174 173 192
f 174 192 175
f 175 192 180
f 143 191 189
f 189 191 190
f 173 190 192
f 190 191 192
f 191 194 192
f 191 193 194
f 144 193 191
f 148 406 193
f 183 195 185
f 186 185 195
f 180 192 182
f 182 192 183
f 186 195 187
f 187 404 371
f 187 195 404
f 183 192 195
f 192 194 195
f 193 406 194
f 195 194 407
f 194 406 405
f 194 405 407
f 406 155 620
f 196 117 197
f 197 117 198
f 199 200 117
f 117 200 198
f 199 201 200
f 201 204 200
f 198 200 205
f 198 203 202
f 196 197 210
f 197 198 210
f 196 210 136
f 198 211 210
f 198 212 211
f 212 198 214
f 198 202 216
f 202 203 218
f 214 198 216
f 202 218 216
f 203 222 218
f 203 198 205
f 200 204 205
f 205 208 203
f 204 207 205
f 206 205 207
f 46 201 199
f 46 204 201
f 205 209 208
f 205 206 232
f 205 233 209
f 205 232 233
f 203 208 223
f 203 220 222
f 203 223 220
f 208 209 223
f 209 224 223
f 209 233 226
f 226 233 234
f 226 234 236
f 226 236 237
f 237 239 226
f 209 225 224
f 209 226 225
f 226 239 227
f 227 239 229
f 136 210 211
f 212 214 213
f 215 213 214
f 215 217 213
f 214 216 215
f 216 218 219
f 215 216 219
f 215 219 217
f 218 222 219
f 221 219 222
f 220 224 222
f 220 223 224
f 227 229 228
f 228 229 230
f 47 207 204
f 49 206 207
f 49 232 206
f 232 234 233
f 235 236 234
f 236 238 237
f 237 238 241
f 237 241 239
f 239 241 240
f 238 242 241
f 49 234 232
f 49 235 234
f 235 251 236
f 236 251 238
f 241 242 243
f 243 246 241
f 246 243 244
f 244 247 245
f 244 245 246
f 238 251 242
f 229 239 240
f 229 240 230
f 230 240 231
f 231 240 241
f 231 241 246
f 231 246 248
f 248 249 231
f 248 250 249
f 49 251 235
f 242 251 243
f 231 249 254
f 248 246 250
f 253 254 249
f 253 255 254
f 253 257 255
f 243 252 244
f 244 252 247
f 245 247 279
f 245 279 246
f 246 279 250
f 243 251 252
f 247 252 278
f 251 280 252
f 249 250 253
f 280 48 282
f 247 278 279
f 250 279 253
f 252 280 278
f 253 279 283
f 253 283 257
f 255 256 254
f 257 258 255
f 258 259 255
f 258 260 259
f 261 262 260
f 262 264 260
f 257 283 258
f 258 283 260
f 283 261 260
f 262 263 264
f 261 283 262
f 262 283 263
f 211 152 138
f 211 212 152
f 212 213 152
f 217 266 213
f 219 268 217
f 219 221 268
f 213 267 152
f 266 267 213
f 221 222 269
f 222 224 269
f 224 225 269
f 225 226 269
f 226 227 269
f 227 228 271
f 228 230 271
f 221 269 268
f 227 271 269
f 231 273 230
f 217 268 266
f 154 152 267
f 154 267 265
f 265 267 268
f 266 268 267
f 265 268 270
f 155 265 272
f 268 269 270
f 265 270 272
f 269 271 270
f 230 273 271
f 270 271 273
f 270 273 272
f 231 254 273
f 254 256 273
f 273 256 274
f 256 255 274
f 255 259 275
f 255 275 274
f 259 260 277
f 260 264 277
f 259 277 275
f 272 273 277
f 273 274 277
f 272 277 276
f 274 275 277
f 264 309 277
f 272 276 308
f 276 277 310
f 279 278 280
f 280 282 281
f 279 280 283
f 281 283 280
f 281 282 284
f 281 284 283
f 283 284 288
f 48 518 282
f 284 282 298
f 284 297 296
f 284 296 299
f 263 286 264
f 286 285 264
f 283 286 263
f 283 287 286
f 285 286 287
f 287 289 285
f 283 288 287
f 288 289 287
f 289 290 291
f 290 293 291
f 291 294 292
f 291 293 294
f 293 295 294
f 293 299 295
f 295 300 294
f 284 289 288
f 284 290 289
f 284 293 290
f 284 299 293
f 284 503 297
f 284 298 503
f 296 297 508
f 282 518 298
f 299 300 295
f 299 301 300
f 296 301 299
f 296 304 301
f 296 306 304
f 300 301 302
f 296 307 306
f 301 304 302
f 305 303 302
f 302 304 305
f 304 306 305
f 296 508 307
f 306 506 305
f 307 507 306
f 305 506 505
f 306 507 506
f 307 508 507
f 620 155 272
f 272 308 620
f 264 285 309
f 285 289 311
f 285 311 309
f 289 291 311
f 291 292 311
f 292 294 312
f 276 310 308
f 277 309 310
f 309 311 310
f 292 312 311
f 310 311 312
f 308 310 315
f 310 312 315
f 294 300 312
f 300 302 312
f 302 303 312
f 303 305 538
f 305 505 538
f 303 538 313
f 303 313 312
f 308 315 537
f 312 313 315
f 315 313 314
f 314 537 315
f 314 313 539
f 313 538 540
f 316 317 28
f 26 321 316
f 316 318 317
f 26 322 321
f 316 320 318
f 316 321 319
f 316 319 320
f 319 321 322
f 319 322 323
f 322 324 323
f 24 337 322
f 55 28 317
f 317 318 344
f 320 347 318
f 319 347 320
f 319 323 347
f 323 324 347
f 337 22 338
f 164 383 338
f 322 326 324
f 324 326 325
f 322 327 326
f 322 330 327
f 326 327 328
f 326 328 329
f 322 337 330
f 327 330 328
f 328 330 331
f 330 334 331
f 331 333 332
f 330 337 334
f 331 334 333
f 324 325 349
f 325 326 351
f 326 329 352
f 329 328 353
f 328 331 355
f 331 332 359
f 332 333 359
f 384 337 383
f 338 383 337
f 384 432 337
f 333 334 335
f 334 336 335
f 334 339 336
f 334 337 339
f 337 342 339
f 336 339 340
f 339 343 340
f 337 432 341
f 337 341 342
f 339 342 343
f 341 448 342
f 336 340 464
f 340 343 464
f 342 457 343
f 333 335 362
f 335 336 364
f 464 548 336
f 548 549 336
f 55 317 344
f 344 318 346
f 318 347 346
f 324 349 347
f 55 344 345
f 344 346 345
f 56 345 350
f 345 346 348
f 346 347 348
f 345 348 350
f 349 348 347
f 348 349 350
f 56 350 357
f 357 518 48
f 325 351 349
f 326 352 351
f 329 353 352
f 328 355 353
f 331 359 355
f 333 361 359
f 333 362 361
f 349 351 350
f 350 351 354
f 351 352 354
f 350 354 356
f 350 356 358
f 350 358 357
f 353 354 352
f 353 355 354
f 354 355 356
f 356 360 358
f 355 359 356
f 356 359 360
f 359 361 360
f 358 360 363
f 360 361 363
f 361 362 363
f 335 364 362
f 549 364 336
f 549 550 365
f 554 365 550
f 554 553 365
f 365 553 555
f 357 358 518
f 358 523 518
f 358 367 523
f 367 615 523
f 358 363 366
f 362 364 363
f 364 366 363
f 358 366 367
f 364 365 366
f 365 368 366
f 549 365 364
f 365 555 368
f 367 568 615
f 366 368 367
f 367 368 563
f 369 382 167
f 178 370 369
f 178 373 370
f 382 383 167
f 370 382 369
f 373 372 374
f 374 372 371
f 371 375 374
f 370 373 374
f 370 374 375
f 377 379 376
f 380 377 378
f 370 375 376
f 370 376 379
f 370 379 381
f 370 381 391
f 377 380 379
f 379 380 381
f 381 392 391
f 370 389 382
f 370 391 389
f 385 384 386
f 385 386 387
f 382 389 390
f 389 399 390
f 382 390 383
f 383 390 384
f 384 390 386
f 386 390 388
f 389 391 393
f 389 393 396
f 389 396 398
f 389 398 399
f 391 392 393
f 392 394 393
f 393 394 396
f 394 395 397
f 394 397 396
f 397 398 396
f 398 400 399
f 390 399 401
f 399 400 401
f 390 401 402
f 390 402 403
f 390 403 419
f 402 419 403
f 371 404 375
f 375 404 376
f 376 404 377
f 377 404 378
f 378 404 410
f 380 378 411
f 380 411 381
f 195 410 404
f 407 409 195
f 195 409 410
f 405 408 407
f 405 406 412
f 378 410 411
f 409 407 408
f 409 411 410
f 412 408 405
f 412 409 408
f 381 411 392
f 392 411 394
f 394 411 395
f 395 413 397
f 397 413 398
f 398 413 400
f 400 413 401
f 401 413 402
f 415 419 402
f 413 415 402
f 395 411 413
f 409 414 411
f 409 412 414
f 411 414 413
f 413 414 415
f 414 490 415
f 412 491 414
f 412 406 620
f 385 387 417
f 384 385 417
f 386 436 387
f 386 388 436
f 388 416 436
f 390 416 388
f 390 428 416
f 384 417 432
f 417 387 435
f 418 434 416
f 417 438 432
f 416 443 418
f 387 436 435
f 416 434 436
f 428 430 416
f 416 430 431
f 416 431 443
f 390 419 420
f 390 420 422
f 390 422 423
f 390 423 424
f 419 421 420
f 422 420 421
f 422 421 423
f 390 424 426
f 390 426 427
f 390 427 428
f 421 425 423
f 423 425 424
f 425 426 424
f 427 430 428
f 431 430 429
f 341 432 438
f 417 435 437
f 417 437 438
f 433 434 418
f 341 438 439
f 341 439 440
f 341 440 446
f 435 436 437
f 437 439 438
f 439 441 440
f 440 441 446
f 441 442 444
f 418 443 433
f 433 471 434
f 433 443 467
f 434 474 436
f 436 474 437
f 437 472 439
f 439 472 441
f 433 469 471
f 433 467 469
f 341 446 447
f 341 447 448
f 342 448 450
f 342 450 455
f 342 455 456
f 342 456 457
f 343 457 458
f 431 470 443
f 472 442 441
f 434 471 474
f 441 444 445
f 446 441 445
f 444 449 445
f 447 446 445
f 445 449 447
f 447 449 448
f 448 449 450
f 343 458 459
f 343 459 462
f 343 462 464
f 450 449 455
f 449 451 452
f 453 449 452
f 449 453 454
f 449 454 455
f 454 456 455
f 456 458 457
f 458 460 459
f 442 472 444
f 444 476 449
f 437 474 472
f 444 472 473
f 449 476 451
f 475 444 473
f 444 475 476
f 451 476 452
f 453 452 476
f 453 479 454
f 453 476 478
f 459 460 462
f 460 461 463
f 460 463 462
f 461 465 463
f 462 463 464
f 463 548 464
f 463 465 548
f 465 466 548
f 547 548 466
f 454 479 456
f 456 479 458
f 458 479 460
f 460 479 461
f 461 483 465
f 453 478 479
f 461 479 482
f 482 483 461
f 465 484 466
f 466 484 547
f 465 483 484
f 484 486 547
f 486 488 547
f 443 470 467
f 467 468 469
f 471 469 468
f 473 477 475
f 475 478 476
f 477 478 475
f 478 481 479
f 479 481 480
f 479 480 482
f 483 482 484
f 486 484 482
f 485 488 486
f 485 487 489
f 485 489 488
f 415 421 419
f 421 490 425
f 425 490 426
f 427 426 492
f 427 492 430
f 430 492 429
f 429 492 494
f 415 490 421
f 414 491 490
f 412 497 491
f 426 490 492
f 490 493 492
f 490 494 493
f 494 492 493
f 490 491 497
f 490 495 494
f 490 497 495
f 429 495 431
f 431 495 470
f 429 494 495
f 412 620 497
f 468 467 495
f 470 495 467
f 471 468 496
f 471 496 474
f 496 472 474
f 473 472 498
f 473 498 477
f 472 496 498
f 477 498 500
f 477 500 478
f 478 500 481
f 480 502 482
f 481 502 480
f 486 482 502
f 486 502 485
f 485 502 487
f 487 501 489
f 487 502 501
f 468 495 496
f 495 499 496
f 495 497 499
f 496 499 498
f 497 500 499
f 498 499 500
f 481 500 502
f 497 620 500
f 500 621 502
f 500 620 622
f 502 621 501
f 500 622 621
f 297 503 504
f 297 504 508
f 298 518 503
f 503 519 504
f 506 507 509
f 509 510 506
f 506 510 505
f 504 507 508
f 504 509 507
f 504 517 509
f 509 517 510
f 510 512 511
f 512 515 511
f 511 514 513
f 515 514 511
f 515 516 514
f 504 510 517
f 504 512 510
f 504 515 512
f 504 516 515
f 504 528 516
f 504 526 528
f 503 518 519
f 504 521 526
f 519 518 523
f 520 521 519
f 520 522 521
f 520 525 522
f 523 520 519
f 524 525 520
f 504 519 521
f 526 527 533
f 521 527 526
f 521 522 527
f 525 527 522
f 516 529 514
f 529 516 528
f 526 529 528
f 526 531 530
f 526 530 529
f 526 532 531
f 526 533 532
f 532 533 534
f 527 534 533
f 534 536 535
f 536 605 535
f 527 536 534
f 527 605 536
f 510 540 505
f 505 540 538
f 513 514 542
f 510 511 540
f 511 513 540
f 308 537 620
f 537 314 541
f 539 541 314
f 539 540 541
f 539 313 540
f 513 542 540
f 537 541 543
f 541 540 542
f 529 542 514
f 529 530 542
f 542 530 531
f 531 532 545
f 534 535 545
f 532 534 545
f 546 535 605
f 545 535 546
f 543 620 537
f 543 544 629
f 542 531 545
f 541 542 544
f 541 544 543
f 542 545 544
f 544 545 546
f 544 546 628
f 551 552 550
f 554 550 552
f 553 557 555
f 555 557 556
f 547 570 548
f 570 549 548
f 549 570 550
f 550 570 551
f 551 570 552
f 488 570 547
f 552 570 572
f 553 554 574
f 553 574 557
f 552 574 554
f 558 557 574
f 558 574 559
f 559 574 560
f 571 552 572
f 552 571 574
f 574 575 560
f 559 563 558
f 559 560 564
f 559 562 563
f 562 559 564
f 562 561 563
f 562 569 561
f 562 564 569
f 564 565 569
f 568 561 569
f 569 566 567
f 568 569 567
f 556 368 555
f 368 557 558
f 368 556 557
f 564 581 565
f 565 581 578
f 560 575 564
f 564 575 579
f 564 580 581
f 579 580 564
f 565 578 569
f 566 578 608
f 566 569 578
f 582 608 578
f 582 584 608
f 488 489 572
f 488 572 570
f 572 573 571
f 574 579 575
f 571 579 574
f 584 583 576
f 577 576 583
f 583 618 577
f 580 578 581
f 580 583 578
f 582 578 583
f 582 583 584
f 585 618 586
f 586 594 601
f 586 597 594
f 586 596 597
f 616 586 618
f 586 616 596
f 524 520 587
f 525 524 610
f 610 586 525
f 520 523 615
f 527 525 586
f 527 586 601
f 524 609 610
f 585 586 610
f 614 587 613
f 587 614 609
f 524 587 609
f 520 615 587
f 615 613 587
f 606 589 590
f 606 588 589
f 590 602 592
f 589 591 590
f 590 591 603
f 594 597 598
f 595 594 598
f 595 598 599
f 593 594 595
f 596 600 597
f 597 600 598
f 593 604 601
f 590 603 602
f 603 604 602
f 593 595 604
f 593 601 594
f 527 606 605
f 527 588 606
f 527 589 588
f 527 591 589
f 527 603 591
f 527 604 603
f 527 601 604
f 567 612 611
f 566 608 612
f 566 612 567
f 607 612 608
f 609 614 610
f 613 611 612
f 615 567 611
f 568 567 615
f 577 612 607
f 577 614 613
f 577 610 614
f 577 613 612
f 585 577 618
f 584 607 608
f 577 607 576
f 576 607 584
f 577 585 610
f 367 563 561
f 367 561 568
f 368 558 563
f 615 611 613
f 617 598 619
f 618 617 616
f 616 617 619
f 596 616 619
f 596 619 600
f 598 600 619
f 543 624 620
f 489 501 572
f 501 573 572
f 571 573 623
f 571 623 579
f 573 501 621
f 618 583 625
f 580 626 583
f 623 580 579
f 580 623 626
f 583 626 625
f 573 621 623
f 620 627 622
f 621 622 623
f 622 627 623
f 627 629 631
f 624 629 627
f 625 627 631
f 620 624 627
f 623 627 626
f 625 626 627
f 606 590 628
f 592 628 590
f 599 630 595
f 632 599 598
f 592 602 630
f 602 604 630
f 604 595 630
f 599 632 630
f 546 605 606
f 546 606 628
f 544 628 629
f 592 630 628
f 543 629 624
f 628 631 629
f 628 632 631
f 628 630 632
f 617 632 598
f 617 618 625
f 617 631 632
f 617 625 631
