# https://github.com/mikedh/trimesh

o collision
v -0.06342187 -0.02658384 -0.06383147
v -0.06535827 -0.01378532 -0.06637291
v -0.05524290 -0.04153512 -0.06323103
v -0.05545956 -0.02663633 -0.07100892
v -0.06598118 -0.00198443 -0.06683371
v -0.06529734 0.01375446 -0.06628214
v -0.06390935 0.02398015 -0.06457156
v -0.06212189 -0.00198443 -0.07077153
v -0.05516165 0.02965088 -0.07089721
v -0.04770173 -0.04967224 -0.06369030
v -0.04770037 -0.04967367 -0.06369183
v -0.05116695 -0.02166133 -0.07130216
v -0.04313693 -0.04513183 -0.07085532
v -0.06775510 -0.01378532 -0.05905582
v -0.06273126 -0.02907790 -0.05905582
v -0.06565619 -0.02166133 -0.05905582
v -0.06565673 -0.02165933 -0.05905582
v -0.05533769 -0.04165326 -0.05511800
v -0.06900767 -0.00198443 -0.05905582
v -0.06844570 0.00981645 -0.05905522
v -0.06844570 0.00981645 -0.05905582
v -0.06683428 0.01769247 -0.05905582
v -0.06438331 0.02518780 -0.05905582
v -0.03927765 -0.05705086 -0.05905582
v -0.04752433 0.06501416 -0.06356616
v -0.04752415 0.06502647 -0.06356108
v -0.04752370 0.06502647 -0.06356704
v -0.04742241 0.06499647 -0.06367256
v -0.04742241 0.06502566 -0.06367256
v -0.04372026 0.06502647 -0.06752460
v -0.03989593 0.06499647 -0.07098456
v -0.03989593 0.06502647 -0.07098456
v -0.03981027 0.06501416 -0.07106040
v -0.03980576 0.06504416 -0.07106040
v -0.03973439 0.06504416 -0.07106478
v -0.03965586 0.06502647 -0.07106483
v -0.04786134 0.06502647 -0.05905658
v -0.04787060 0.06502647 -0.05749717
v -0.04787060 0.06499647 -0.05749717
v -0.04790824 0.06502647 -0.05118428
v -0.04787209 0.06499647 -0.05122014
v -0.03403715 -0.05861294 -0.06510219
v -0.02417905 -0.05728713 -0.07095306
v -0.02370510 -0.06501874 -0.06307743
v -0.01180226 -0.06654146 -0.06561886
v -0.03153877 -0.06135642 -0.05905582
v -0.01180226 -0.06814291 -0.05905582
v -0.00392320 -0.06903531 -0.05905582
v -0.00392120 -0.06903554 -0.05905582
v -0.03545287 0.06502647 -0.07128525
v -0.02908676 0.06502647 -0.07130799
v -0.01944865 0.06502647 -0.07131326
v -0.06775510 -0.01378532 0.05902084
v -0.06775510 -0.01378532 0.05905084
v -0.06466090 -0.02439168 0.05905084
v -0.06179690 -0.03106004 0.05905084
v -0.06890611 -0.00590930 0.05905084
v -0.06913631 0.00194045 0.05905084
v -0.06845924 0.00981645 0.05905084
v -0.06684782 0.01769247 0.05905084
v -0.06282605 0.02913894 0.05905084
v -0.04795765 -0.04993619 0.05905084
v -0.03929119 -0.05705086 0.05905079
v -0.03929119 -0.05705086 0.05905084
v -0.06343541 -0.02659696 0.06384046
v -0.06534474 -0.01378532 0.06638188
v -0.05524237 -0.04153573 0.06320971
v -0.05524290 -0.04153512 0.06324001
v -0.05451843 -0.02927480 0.07078051
v -0.06598118 -0.00198443 0.06682873
v -0.06529734 0.01375446 0.06627715
v -0.06390935 0.02398015 0.06456657
v -0.06208805 -0.00198443 0.07076655
v -0.05517519 0.02966400 0.07090619
v -0.04770037 -0.04968679 0.06368685
v -0.05116695 -0.02166133 0.07131115
v -0.04312339 -0.04511871 0.07085034
v -0.04791761 0.06502647 0.05115353
v -0.04791745 0.06502647 0.05121229
v -0.04789718 0.06500947 0.05462694
v -0.04789718 0.06502647 0.05462694
v -0.04789347 0.06502647 0.05525214
v -0.04789347 0.06499647 0.05525214
v -0.04787072 0.06502647 0.05908387
v -0.04752816 0.06499647 0.06357880
v -0.04753190 0.06499647 0.06357235
v -0.04753190 0.06502647 0.06357235
v -0.04753175 0.06502647 0.06358171
v -0.04753139 0.06502647 0.06357556
v -0.04753139 0.06499647 0.06357556
v -0.04753308 0.06502647 0.06358033
v -0.04373149 0.06502647 0.06751955
v -0.03991767 0.06502647 0.07095865
v -0.03991767 0.06499647 0.07095865
v -0.03979980 0.06499647 0.07106041
v -0.03980544 0.06501416 0.07105981
v -0.03600373 0.06179253 0.07128424
v -0.02773946 -0.06332582 0.05902180
v -0.02774042 -0.06332542 0.05905084
v -0.01180226 -0.06814291 0.05905084
v -0.00392120 -0.06904866 0.05905084
v -0.03403715 -0.05861294 0.06509721
v -0.02370208 -0.06501953 0.06307142
v -0.02370510 -0.06501874 0.06307244
v -0.02417905 -0.05728713 0.07096204
v -0.00589485 -0.06676462 0.06587220
v -0.03545764 0.06494389 0.07128245
v -0.03545324 0.06502647 0.07128307
v -0.03542474 0.06502647 0.07128453
v -0.03536550 0.06502647 0.07128321
v -0.02754634 0.06502647 0.07131255
v -0.04725185 0.19075003 -0.06303380
v -0.04725185 0.19078003 -0.06303380
v -0.04725797 0.19078003 -0.06304727
v -0.04727529 0.19078003 -0.06062948
v -0.04708486 0.21902573 -0.06875543
v -0.04708076 0.21889366 -0.06875543
v -0.04707299 0.21887566 -0.06875543
v -0.04718799 0.22069383 -0.06876346
v -0.04717786 0.22051650 -0.06874856
v -0.04727156 0.22381867 -0.06873699
v -0.04727156 0.22381867 -0.06876700
v -0.04703738 0.21864507 -0.06875543
v -0.04216703 0.19078274 -0.06875639
v -0.04216794 0.19078003 -0.06875543
v -0.04383830 0.19078003 -0.06698359
v -0.04376376 0.19078003 -0.06706844
v -0.03990718 0.19078003 -0.07114925
v -0.03990883 0.19075003 -0.07114430
v -0.03990973 0.19075003 -0.07114336
v -0.05120984 0.28900895 -0.09845089
v -0.04934457 0.28900895 -0.10197997
v -0.05182070 0.28900898 -0.09452373
v -0.05180064 0.28900895 -0.09463467
v -0.05180064 0.28903896 -0.09463467
v -0.05183092 0.28900898 -0.09443909
v -0.05186020 0.28903896 -0.09424997
v -0.05186020 0.28900895 -0.09424997
v -0.04869166 0.28903896 -0.10313238
v -0.04869166 0.28900895 -0.10313238
v -0.04863394 0.28900909 -0.10323423
v -0.04863267 0.28900895 -0.10323647
v -0.04863396 0.28900909 -0.10323420
v -0.04863242 0.28901273 -0.10323656
v -0.04856991 0.28901261 -0.10326111
v -0.04840371 0.28900895 -0.10332637
v -0.04840371 0.28903896 -0.10332637
v -0.04813982 0.28793588 -0.10313753
v -0.04334483 0.28536174 -0.10407750
v -0.04332430 0.28900895 -0.10532089
v -0.04075738 0.28022587 -0.10309465
v -0.05243169 0.28900895 -0.09055848
v -0.05244155 0.28903896 -0.08299947
v -0.05244155 0.28901014 -0.08299947
v -0.05244196 0.28901494 -0.08268903
v -0.05244196 0.28901663 -0.08268585
v -0.05244196 0.28900895 -0.08268585
v -0.04990201 0.28900898 -0.07434774
v -0.04988918 0.28899598 -0.07432365
v -0.04988736 0.28899664 -0.07432259
v -0.04988981 0.28899333 -0.07432468
v -0.04988736 0.28902662 -0.07432259
v -0.04989729 0.28900898 -0.07433223
v -0.04786275 0.27702475 -0.06877709
v -0.04786310 0.27719033 -0.06877279
v -0.04786311 0.27707180 -0.06874663
v -0.04786275 0.27702475 -0.06874710
v -0.04786364 0.27715096 -0.06875543
v -0.04776886 0.27878463 -0.06875543
v -0.04763282 0.28357637 -0.07017041
v -0.04767804 0.28036320 -0.06875543
v -0.04768371 0.28036490 -0.06875543
v -0.04329669 0.28446168 -0.06875580
v -0.04329904 0.28446048 -0.06875620
v -0.04329786 0.28446159 -0.06875543
v -0.04331221 0.28903162 -0.07107684
v -0.04331221 0.28902429 -0.07107684
v -0.04331221 0.28900161 -0.07107684
v -0.04329669 0.28900898 -0.07107330
v -0.04329945 0.28900898 -0.07107663
v -0.04323988 0.28900898 -0.07107669
v -0.04158638 0.28900898 -0.07108228
v -0.04727657 0.19079114 -0.06046236
v -0.04728922 0.19078003 -0.05914063
v -0.04728613 0.19081002 -0.05914758
v -0.04729249 0.19078003 -0.05654619
v -0.04730555 0.19093248 -0.05178908
v -0.04730448 0.19078003 -0.05178908
v -0.04730661 0.19078003 -0.03799264
v -0.04730812 0.19078003 -0.02383041
v -0.04764008 0.26969120 -0.05176893
v -0.04755637 0.27425802 -0.05176466
v -0.04755614 0.27426177 -0.05175908
v -0.04724865 0.27445561 -0.05175908
v -0.04330073 0.27684462 -0.05175908
v -0.06681303 0.31694520 -0.09842953
v -0.06348603 0.31186914 -0.10286541
v -0.07086999 0.32866931 -0.09459363
v -0.07023828 0.34057340 -0.10051960
v -0.07070856 0.35041949 -0.09320189
v -0.06580580 0.33072433 -0.10429157
v -0.06227876 0.30636111 -0.09842953
v -0.06286836 0.30534711 -0.08662432
v -0.06479156 0.31373519 -0.07577069
v -0.07087061 0.32866627 -0.07868064
v -0.07086999 0.32865730 -0.07867466
v -0.07169122 0.34057340 -0.08662432
v -0.07112268 0.34678945 -0.07782388
v -0.06691129 0.34057340 -0.07353062
v -0.05905004 0.31694520 -0.07133728
v -0.06870815 0.35630554 -0.09842953
v -0.06529693 0.35630554 -0.10410469
v -0.06334565 0.36889365 -0.10273262
v -0.05578621 0.38101974 -0.10268590
v -0.05581428 0.38473979 -0.09361745
v -0.06746579 0.36417761 -0.08662432
v -0.06461608 0.36719564 -0.07588134
v -0.06255952 0.37519369 -0.08662432
v -0.05905004 0.36417761 -0.07143563
v -0.05568093 0.38456577 -0.07733209
v -0.04700270 0.33307195 -0.11806427
v -0.04700331 0.33306572 -0.11806421
v -0.04700746 0.33313844 -0.11806465
v -0.04734238 0.34513345 -0.11818931
v -0.03938286 0.31296119 -0.11813521
v -0.03854760 0.32678530 -0.11921714
v -0.04724412 0.39175382 -0.10238346
v -0.03887749 0.36756164 -0.11797293
v -0.03956535 0.39975789 -0.09512968
v -0.04847945 0.39288184 -0.09056102
v -0.04805832 0.39250985 -0.07706653
v -0.04723709 0.38386977 -0.07192004
v -0.03956535 0.39975789 -0.07830090
v -0.03545474 0.19078003 -0.07148829
v -0.03542474 0.19078003 -0.07148135
v -0.02754634 0.19078003 -0.07153738
v -0.02755022 0.19078003 -0.07155108
v -0.03567490 0.28900895 -0.10768565
v -0.01973872 0.28900895 -0.11226472
v -0.01970872 0.28900895 -0.11227334
v -0.03542423 0.28507590 -0.06875543
v -0.03541837 0.28507635 -0.06875543
v -0.03541837 0.28900898 -0.07099856
v -0.01444142 0.28900895 -0.11350024
v -0.01582421 0.28900895 -0.11317815
v -0.01575483 0.28903255 -0.11319431
v -0.01575483 0.28901643 -0.11319431
v -0.01573573 0.28903574 -0.11319876
v -0.01571663 0.28900895 -0.11320321
v -0.01179236 0.28900895 -0.11408401
v -0.00754560 0.28900895 -0.11459106
v -0.00392735 0.28900895 -0.11496131
v -0.00019796 0.28903475 -0.11496131
v -0.00019796 0.28900898 -0.11496131
v -0.00000932 0.28900898 -0.11496131
v -0.03543034 0.27773768 -0.05177227
v -0.03542453 0.27773833 -0.05174273
v -0.03536864 0.27772513 -0.05177241
v -0.03180236 0.30484912 -0.11826309
v -0.02754886 0.30907315 -0.11931550
v -0.03542415 0.35237551 -0.11956631
v -0.03147949 0.37599769 -0.11812048
v -0.03316405 0.40052590 -0.10314080
v -0.02164239 0.37402070 -0.11925156
v -0.02388495 0.40760595 -0.09504607
v -0.02388493 0.40760595 -0.09502704
v -0.03542415 0.39831188 -0.07467894
v -0.02754886 0.39567786 -0.07122417
v -0.02387092 0.40759397 -0.07836976
v -0.01732923 0.29665303 -0.11844997
v -0.01573592 0.33663136 -0.12082773
v -0.00786063 0.32481727 -0.12080068
v -0.01655714 0.38420576 -0.11832210
v -0.01665541 0.40773794 -0.10263918
v -0.01179827 0.41024598 -0.09449528
v -0.01573592 0.40354994 -0.07234297
v -0.00589531 0.40932199 -0.07522727
v -0.04730812 0.19078003 0.05118356
v -0.04731441 0.19078003 0.05118730
v -0.04730172 0.19078003 0.05656141
v -0.04729598 0.19081002 0.05905223
v -0.04729860 0.19078003 0.05905586
v -0.04724918 0.19081002 0.06305940
v -0.04725691 0.19081002 0.06305002
v -0.04725861 0.19081002 0.06304725
v -0.04725865 0.19081002 0.06304703
v -0.04725878 0.19081002 0.06304548
v -0.04725903 0.19081002 0.06301802
v -0.04541036 0.19080836 0.06517369
v -0.04540511 0.19078003 0.06517857
v -0.04589099 0.19512837 0.06517369
v -0.04588811 0.19513015 0.06517857
v -0.04707669 0.21018483 0.06517044
v -0.04707669 0.21018483 0.06520045
v -0.04725134 0.21611772 0.06520098
v -0.04725134 0.21611772 0.06517097
v -0.04657286 0.20278712 0.06516534
v -0.04658194 0.20290665 0.06516424
v -0.04657665 0.20282948 0.06517857
v -0.04728639 0.21828388 0.06516240
v -0.04728639 0.21828388 0.06519240
v -0.04728818 0.21846344 0.06518680
v -0.04390424 0.19078003 0.06689935
v -0.04383278 0.19078003 0.06698944
v -0.03988915 0.19078003 0.07113044
v -0.03989006 0.19075003 0.07112958
v -0.03989682 0.19078003 0.07114320
v -0.04992503 0.28909013 0.07433283
v -0.04992862 0.28910348 0.07433916
v -0.04992503 0.28912011 0.07433283
v -0.04993225 0.28910398 0.07434944
v -0.05006521 0.28910050 0.07472841
v -0.05006521 0.28913051 0.07472841
v -0.04770007 0.27418399 0.06514927
v -0.04770007 0.27418399 0.06517927
v -0.04770065 0.27428782 0.06514857
v -0.04770662 0.27518180 0.06517857
v -0.04768654 0.27633885 0.06517857
v -0.04813452 0.28910050 0.07344925
v -0.05157112 0.28910050 0.07895286
v -0.05242455 0.28910050 0.08243705
v -0.05242455 0.28913051 0.08243705
v -0.05248574 0.28910050 0.08268686
v -0.05248581 0.28910691 0.08268648
v -0.05248636 0.28910232 0.08297104
v -0.05248643 0.28913051 0.08296980
v -0.05249457 0.28910050 0.08780462
v -0.05248574 0.28910050 0.09055509
v -0.04329849 0.27940145 0.06517990
v -0.04329529 0.27940369 0.06517369
v -0.04376085 0.28910050 0.07127498
v -0.04343406 0.28910050 0.07113703
v -0.04331250 0.28909084 0.07107983
v -0.04329824 0.28910032 0.07107964
v -0.04331844 0.28912130 0.07108262
v -0.04331250 0.28912082 0.07107983
v -0.04329244 0.28915849 0.07107972
v -0.04320803 0.28910050 0.07107902
v -0.03604779 0.28028914 0.06517369
v -0.03604779 0.28028914 0.06518107
v -0.05192471 0.28913051 0.09396992
v -0.05198218 0.28910050 0.09475767
v -0.05189725 0.28910050 0.09450717
v -0.05189725 0.28913051 0.09450717
v -0.05127309 0.28910050 0.09845261
v -0.04870227 0.28910050 0.10319202
v -0.04870227 0.28913051 0.10319202
v -0.04865368 0.28910050 0.10325417
v -0.04867310 0.28910050 0.10324579
v -0.04867310 0.28911671 0.10324579
v -0.04867340 0.28911579 0.10324524
v -0.04868190 0.28911579 0.10322957
v -0.04865368 0.28910959 0.10325417
v -0.04865962 0.28911030 0.10325161
v -0.04855705 0.28911254 0.10329590
v -0.04852289 0.28910050 0.10331064
v -0.04852289 0.28913051 0.10331064
v -0.04813871 0.28792635 0.10313841
v -0.04709049 0.28910050 0.10392914
v -0.04334978 0.28535670 0.10408045
v -0.04331895 0.28910050 0.10535440
v -0.04076006 0.28022701 0.10309448
v -0.03976322 0.28910050 0.10648680
v -0.06786708 0.31694412 0.08662426
v -0.06286965 0.30533662 0.08268648
v -0.06479281 0.31373048 0.07577203
v -0.06691252 0.34056681 0.07353275
v -0.07087115 0.32865953 0.07867005
v -0.07112384 0.34679028 0.07782449
v -0.07168441 0.34057719 0.08660965
v -0.05903733 0.31694412 0.07133527
v -0.06350134 0.31185985 0.10287188
v -0.07087115 0.32865953 0.09460796
v -0.07112384 0.34679028 0.09587140
v -0.07025349 0.34056681 0.10056132
v -0.06581406 0.33072501 0.10429631
v -0.06257485 0.30584025 0.09449735
v -0.06747402 0.36417753 0.08268648
v -0.06888833 0.35913223 0.09056203
v -0.06461734 0.36719334 0.07588264
v -0.05903733 0.36417753 0.07143359
v -0.06255379 0.37518546 0.08662426
v -0.05566827 0.38456261 0.07733288
v -0.06870934 0.35631129 0.09843267
v -0.06566315 0.35237819 0.10424101
v -0.06334691 0.36891407 0.10273915
v -0.05578057 0.38101321 0.10268015
v -0.05566827 0.38456261 0.09666288
v -0.04700482 0.33305871 0.11806531
v -0.04700563 0.33311915 0.11806562
v -0.04732984 0.34513548 0.11819036
v -0.03938447 0.31296304 0.11813629
v -0.03854923 0.32678890 0.11921659
v -0.04723158 0.38386711 0.07191782
v -0.04805981 0.39250079 0.07706250
v -0.04848094 0.39288452 0.09056203
v -0.03956696 0.39975548 0.07830136
v -0.04724561 0.39175734 0.10238028
v -0.03887911 0.36755908 0.11797406
v -0.03898440 0.39935979 0.09774687
v -0.03545474 0.19078003 0.07148064
v -0.03542474 0.19078003 0.07148064
v -0.02773868 0.19078003 0.07155293
v -0.02754634 0.19078003 0.07155067
v -0.02754446 0.19078003 0.07155068
v -0.03542444 0.28034174 0.06518455
v -0.03542412 0.28034174 0.06518453
v -0.03539685 0.28033522 0.06518018
v -0.03539243 0.28910050 0.07101634
v -0.02735927 0.28910050 0.11026473
v -0.01971343 0.28910050 0.11233917
v -0.01214187 0.28910050 0.11407188
v -0.01214187 0.28913051 0.11407188
v -0.01180099 0.28910145 0.11414990
v -0.01171216 0.28910694 0.11415998
v -0.01132264 0.28913051 0.11420388
v -0.01132264 0.28910050 0.11420388
v -0.00391818 0.28910050 0.11503839
v -0.00021959 0.28913051 0.11503610
v -0.00021984 0.28910330 0.11503608
v -0.00003336 0.28910345 0.11503597
v -0.00000328 0.28910431 0.11503597
v -0.03179005 0.30484498 0.11826410
v -0.02755065 0.30906588 0.11932597
v -0.03542583 0.39831054 0.07468066
v -0.02755065 0.39567849 0.07122220
v -0.03167771 0.40414450 0.08663940
v -0.02387275 0.40759775 0.07836526
v -0.03542583 0.35631129 0.11947837
v -0.03148122 0.37600088 0.11811662
v -0.03316575 0.40052292 0.10314227
v -0.02164426 0.37402532 0.11924609
v -0.02387275 0.40759775 0.09504057
v -0.01733116 0.29665497 0.11845091
v -0.01376908 0.33072501 0.12076700
v -0.01573787 0.40355670 0.07234307
v -0.01179277 0.41071630 0.08270149
v -0.01180028 0.41071546 0.08268648
v -0.00589741 0.40931848 0.07522757
v -0.00786269 0.41115314 0.09056203
v -0.01664331 0.40772966 0.10263100
v -0.01655908 0.38420287 0.11832310
v -0.00786269 0.40836519 0.10324059
v 0.00001256 -0.06227528 -0.07008731
v 0.00000580 -0.05317046 -0.07131568
v 0.00591320 -0.06676462 -0.06587718
v 0.02419063 -0.05728713 -0.07095306
v 0.02371381 -0.06500638 -0.06306250
v 0.02371668 -0.06500562 -0.06306347
v 0.03404873 -0.05861294 -0.06510219
v 0.00394632 -0.06903554 -0.05905582
v 0.00394632 -0.06903559 -0.05860717
v 0.01181384 -0.06812979 -0.05905582
v 0.03154358 -0.06135642 -0.05905582
v 0.02756491 0.06502647 -0.07131326
v 0.03544331 0.06502647 -0.07128525
v 0.04314174 -0.04511871 -0.07085532
v 0.04771194 -0.04967367 -0.06367787
v 0.05119207 -0.02166133 -0.07130216
v 0.05525447 -0.04152200 -0.06321707
v 0.05547113 -0.02662321 -0.07099496
v 0.06343345 -0.02657070 -0.06381752
v 0.06535632 -0.01378532 -0.06637291
v 0.06210639 -0.00198443 -0.07076455
v 0.05518676 0.02963775 -0.07089721
v 0.06598599 -0.00198443 -0.06682673
v 0.06530215 0.01375446 -0.06627516
v 0.06392093 0.02395390 -0.06455760
v 0.03928922 -0.05703773 -0.05905582
v 0.03928923 -0.05703773 -0.05905582
v 0.04796923 -0.04992307 -0.05905582
v 0.05808580 -0.03741122 -0.05905582
v 0.06274284 -0.02905165 -0.05905582
v 0.06775312 -0.01378532 -0.05905582
v 0.06683231 0.01769247 -0.05905582
v 0.06889060 -0.00590930 -0.05905582
v 0.06912075 0.00193846 -0.05905582
v 0.06912081 0.00194045 -0.05905582
v 0.06844333 0.00981845 -0.05905582
v 0.06844374 0.00981645 -0.05905582
v 0.06439488 0.02516156 -0.05905582
v 0.03974180 0.06502647 -0.07106483
v 0.03982107 0.06501416 -0.07106114
v 0.04002844 0.06499647 -0.07086600
v 0.04002844 0.06502647 -0.07086600
v 0.04369545 0.06502647 -0.06753006
v 0.04744143 0.06502647 -0.06362471
v 0.04744143 0.06499647 -0.06362471
v 0.04752356 0.06501115 -0.06353831
v 0.04752359 0.06501126 -0.06353790
v 0.04752351 0.06502647 -0.06353902
v 0.04784109 0.06502647 -0.05910288
v 0.04784109 0.06499647 -0.05908480
v 0.04784117 0.06499647 -0.05903130
v 0.04784117 0.06502647 -0.05905374
v 0.04787992 0.06502647 -0.05124031
v 0.04784386 0.06499647 -0.03551728
v 0.04788930 0.06502647 -0.03549572
v 0.00394635 -0.06904866 0.05905084
v 0.01181384 -0.06812979 0.05905084
v 0.00001256 -0.06227528 0.07008232
v 0.00000593 -0.05316538 0.07131115
v 0.00000579 -0.05316535 0.07131115
v 0.01181384 -0.06654146 0.06559990
v 0.02370314 -0.06500562 0.06305848
v 0.02419063 -0.05728713 0.07096204
v 0.03403519 -0.05859981 0.06509721
v 0.02763056 0.06502647 0.07131255
v 0.03547144 0.06502647 0.07128453
v 0.03927569 -0.05703773 0.05904330
v 0.03927569 -0.05703773 0.05905084
v 0.04795569 -0.04990995 0.05905084
v 0.06274284 -0.02905165 0.05902084
v 0.06274284 -0.02905165 0.05905084
v 0.06669690 -0.01772332 0.05905084
v 0.06683231 0.01769247 0.05902084
v 0.06683231 0.01769247 0.05905084
v 0.06889060 -0.00590930 0.05905084
v 0.06878228 0.00587845 0.05905084
v 0.06439488 0.02516156 0.05905084
v 0.04313497 -0.04511214 0.07085034
v 0.04771194 -0.04967367 0.06367289
v 0.05119207 -0.00198443 0.07130416
v 0.05119196 -0.00198376 0.07130416
v 0.05525447 -0.04150888 0.06321208
v 0.05453678 -0.02926167 0.07078051
v 0.06343345 -0.02655758 0.06381253
v 0.06535632 -0.01378532 0.06636792
v 0.06207254 -0.00198443 0.07076655
v 0.05517322 0.02962463 0.07089222
v 0.06597921 -0.00198443 0.06682873
v 0.06530215 0.01375446 0.06627017
v 0.06392093 0.02395390 0.06455262
v 0.04789867 0.06502647 0.05118356
v 0.04785465 0.06502647 0.05857353
v 0.04785465 0.06500248 0.05857353
v 0.04785178 0.06500264 0.05905586
v 0.04785178 0.06502647 0.05905586
v 0.03982408 0.06499863 0.07105972
v 0.03982310 0.06502647 0.07106043
v 0.03982332 0.06502647 0.07106041
v 0.03982310 0.06502647 0.07105994
v 0.03983783 0.06499647 0.07104719
v 0.03983783 0.06502647 0.07104719
v 0.04382018 0.06502647 0.06741554
v 0.04752853 0.06502647 0.06354285
v 0.04752943 0.06502647 0.06353369
v 0.04752943 0.06499647 0.06353369
v 0.04753167 0.06499647 0.06350611
v 0.04753289 0.06502647 0.06353830
v 0.00000765 0.28900898 -0.11496323
v 0.00022230 0.28901967 -0.11496131
v 0.00028474 0.28900895 -0.11496131
v 0.00028474 0.28903896 -0.11496131
v 0.00393766 0.28900895 -0.11496131
v 0.01124891 0.28903896 -0.11414378
v 0.01124891 0.28900895 -0.11414378
v 0.01175191 0.28900895 -0.11408754
v 0.01179407 0.28900898 -0.11408439
v 0.01184982 0.28900895 -0.11407226
v 0.01220942 0.28903896 -0.11398987
v 0.01220942 0.28900895 -0.11398987
v 0.02630370 0.19078003 -0.07155108
v 0.02756491 0.19071166 -0.07155126
v 0.02770035 0.19078003 -0.07155020
v 0.03543563 0.19078003 -0.07149228
v 0.03552772 0.19078003 -0.07148135
v 0.01972930 0.28900895 -0.11226674
v 0.02737869 0.28900895 -0.11020871
v 0.03544197 0.26838186 -0.06875543
v 0.03543841 0.26838186 -0.06875543
v 0.03543563 0.26838437 -0.06875543
v 0.03543563 0.28900898 -0.07116885
v 0.03544173 0.26095024 -0.05175908
v 0.00000765 0.29562104 -0.11881880
v 0.01734452 0.29665303 -0.11844997
v 0.00984826 0.33761689 -0.12095067
v 0.00000765 0.35630554 -0.12084003
v 0.00000765 0.38511777 -0.11874012
v 0.00000765 0.41061801 -0.09842953
v 0.00787592 0.40836197 -0.10324161
v 0.01673563 0.36221260 -0.12011158
v 0.01657244 0.38419378 -0.11832210
v 0.01181357 0.41025198 -0.09449528
v 0.01667070 0.40773794 -0.10263427
v 0.00000765 0.41159001 -0.09056102
v 0.00000765 0.41159001 -0.08268760
v 0.00000765 0.40354994 -0.07130039
v 0.01181357 0.41072598 -0.08268760
v 0.01181357 0.40910599 -0.07536497
v 0.01575122 0.40354994 -0.07234297
v 0.02756416 0.30907315 -0.11931058
v 0.03181766 0.30484912 -0.11826309
v 0.02390025 0.40759397 -0.09503624
v 0.03543945 0.35237551 -0.11956631
v 0.03544433 0.35237253 -0.11956574
v 0.03149479 0.37598571 -0.11811555
v 0.03317934 0.40052590 -0.10314080
v 0.02388621 0.40759397 -0.07837467
v 0.02756416 0.39567786 -0.07122417
v 0.03543945 0.39831188 -0.07466910
v 0.03989444 0.19078003 -0.07115048
v 0.03992444 0.19078003 -0.07115048
v 0.03992649 0.19078003 -0.07114517
v 0.04001230 0.19078666 -0.07105973
v 0.04217526 0.19078003 -0.06875543
v 0.04217402 0.19078122 -0.06875585
v 0.04386286 0.19078942 -0.06695590
v 0.04393861 0.19080053 -0.06687513
v 0.04471246 0.19078003 -0.06597441
v 0.04726104 0.19075003 -0.06300579
v 0.04726143 0.19078003 -0.06301527
v 0.04726283 0.19078003 -0.06301899
v 0.04726103 0.19078003 -0.06300750
v 0.04712306 0.21956110 -0.06875543
v 0.04712079 0.21955834 -0.06875543
v 0.04718186 0.22023140 -0.06875543
v 0.04718634 0.22020589 -0.06875543
v 0.04718415 0.22023140 -0.06875543
v 0.04728139 0.22412531 -0.06873087
v 0.04728181 0.22419691 -0.06875543
v 0.04728540 0.22504811 -0.06875701
v 0.04731874 0.23032402 -0.06693368
v 0.03987441 0.28900895 -0.10642575
v 0.04076770 0.28023207 -0.10309136
v 0.04336541 0.28536174 -0.10407750
v 0.04334488 0.28900895 -0.10531759
v 0.04719524 0.28900895 -0.10386312
v 0.04815013 0.28793588 -0.10313753
v 0.04842567 0.28903896 -0.10332356
v 0.04847599 0.28900895 -0.10330874
v 0.04847599 0.28903216 -0.10330874
v 0.04863039 0.28901121 -0.10324191
v 0.04864297 0.28900895 -0.10323647
v 0.04864917 0.28900898 -0.10323423
v 0.04865947 0.28900895 -0.10320595
v 0.04871809 0.28900895 -0.10309753
v 0.04871809 0.28903896 -0.10309753
v 0.05123042 0.28900895 -0.09845089
v 0.05184789 0.28900895 -0.09450510
v 0.05184789 0.28903896 -0.09450510
v 0.05195681 0.28900895 -0.09465855
v 0.05185388 0.28903896 -0.09438960
v 0.03940532 0.26680663 -0.06875543
v 0.03940532 0.26681706 -0.06875543
v 0.03900835 0.28900898 -0.07119337
v 0.04243787 0.26411515 -0.06875543
v 0.04243859 0.26411521 -0.06875543
v 0.04324747 0.26309413 -0.06875543
v 0.04358877 0.26266330 -0.06875543
v 0.04359158 0.26265886 -0.06875543
v 0.04116900 0.28900898 -0.07136120
v 0.04117958 0.28900898 -0.07136202
v 0.04117958 0.28903899 -0.07136202
v 0.04331396 0.28900898 -0.07152781
v 0.04730754 0.23233971 -0.06878544
v 0.04731019 0.23422775 -0.06878544
v 0.04731772 0.24607506 -0.06876372
v 0.04691698 0.25701159 -0.06875561
v 0.04691807 0.25700974 -0.06875543
v 0.04731874 0.24788065 -0.06877530
v 0.04729436 0.25471187 -0.06875543
v 0.04729074 0.25494230 -0.06875543
v 0.04729383 0.25494230 -0.06875543
v 0.05244201 0.28900895 -0.09055848
v 0.05244201 0.28903896 -0.08300812
v 0.05244201 0.28901163 -0.08300812
v 0.05244201 0.28901389 -0.08268585
v 0.05238401 0.28903896 -0.08245220
v 0.05238401 0.28900895 -0.08245220
v 0.05170121 0.28900898 -0.07970161
v 0.04692739 0.28900898 -0.07305918
v 0.05005123 0.28899628 -0.07514802
v 0.05005367 0.28900969 -0.07515430
v 0.05005338 0.28900969 -0.07515351
v 0.05005103 0.28902641 -0.07514790
v 0.05005138 0.28899527 -0.07514837
v 0.05002990 0.28900898 -0.07513544
v 0.05002990 0.28903899 -0.07513544
v 0.05020250 0.28901172 -0.07556509
v 0.05020250 0.28903899 -0.07556509
v 0.04729078 0.19078003 -0.05906105
v 0.04728915 0.19075003 -0.05905918
v 0.04730942 0.19881991 -0.05906105
v 0.04729866 0.19079565 -0.05288420
v 0.04729779 0.19076741 -0.05175908
v 0.04731874 0.20670286 -0.05906105
v 0.04731231 0.19078894 -0.01271084
v 0.04165966 0.25912815 -0.05176757
v 0.04166331 0.25912702 -0.05177093
v 0.04166435 0.25912666 -0.05174362
v 0.04732175 0.24636170 -0.05175906
v 0.04531539 0.25448054 -0.05175908
v 0.04559734 0.25411111 -0.05175908
v 0.04560424 0.25410208 -0.05175908
v 0.04731871 0.24637170 -0.05178908
v 0.04728901 0.24975848 -0.05175908
v 0.04728529 0.25016639 -0.05175908
v 0.04729078 0.25016984 -0.05175908
v 0.04729384 0.25016639 -0.05117533
v 0.03939816 0.31297317 -0.11813521
v 0.03856289 0.32678530 -0.11921591
v 0.04702077 0.33310333 -0.11806145
v 0.04734364 0.34509745 -0.11818440
v 0.03889279 0.36754963 -0.11796802
v 0.03959469 0.39975789 -0.09514935
v 0.04725941 0.39175382 -0.10237854
v 0.03959469 0.39975789 -0.07828615
v 0.04849475 0.39289385 -0.08662432
v 0.04807361 0.39250985 -0.07705670
v 0.04725239 0.38386977 -0.07191512
v 0.06258886 0.30586311 -0.09449528
v 0.06350133 0.31188115 -0.10286048
v 0.06581408 0.33072433 -0.10428665
v 0.07089933 0.32865730 -0.09460346
v 0.07023954 0.34057340 -0.10049993
v 0.07121518 0.34366342 -0.09619438
v 0.05906533 0.31694520 -0.07133728
v 0.05906533 0.34056440 -0.07118114
v 0.06288366 0.30535311 -0.08268760
v 0.06480686 0.31374118 -0.07577561
v 0.06788117 0.31694520 -0.08662432
v 0.07089933 0.32865730 -0.07866974
v 0.07113797 0.34674144 -0.07783863
v 0.06694063 0.34057340 -0.07354046
v 0.05579449 0.38100773 -0.10267607
v 0.05583660 0.38473979 -0.09361007
v 0.06531222 0.35630554 -0.10409977
v 0.06336094 0.36888164 -0.10272770
v 0.06870940 0.35630554 -0.09842953
v 0.06257482 0.37518170 -0.08662432
v 0.05906533 0.36417761 -0.07143563
v 0.05569622 0.38456577 -0.07733209
v 0.06402073 0.37020165 -0.07654033
v 0.06747407 0.36417761 -0.08662432
v 0.06981841 0.35630554 -0.08268760
v 0.06524203 0.36417761 -0.07522235
v 0.00001408 0.28910425 0.11503594
v 0.00017958 0.28910050 0.11503583
v 0.00017958 0.28913051 0.11503583
v 0.00391348 0.28910050 0.11503350
v 0.00394348 0.28910050 0.11503350
v 0.00788972 0.28910050 0.11462349
v 0.01181541 0.28910050 0.11414515
v 0.01577489 0.28912443 0.11325638
v 0.01573857 0.28910300 0.11326485
v 0.01583971 0.28910050 0.11324126
v 0.01455928 0.28910050 0.11353990
v 0.02756491 0.19078003 0.07153667
v 0.02763225 0.19078003 0.07155244
v 0.03544331 0.19078003 0.07148064
v 0.03544148 0.19078003 0.07148487
v 0.03544283 0.26355273 0.06517966
v 0.03544106 0.26355329 0.06517369
v 0.03564716 0.26348609 0.06517369
v 0.03568839 0.26347226 0.06517880
v 0.03412681 0.28910050 0.07116614
v 0.03546167 0.28912985 0.07116831
v 0.03546167 0.28909984 0.07116831
v 0.01972845 0.28910050 0.11233429
v 0.03544148 0.28543368 0.10648680
v 0.03569840 0.28910050 0.10771195
v 0.00000547 0.29561174 0.11881962
v 0.01735613 0.29665497 0.11845091
v 0.01181122 0.33072501 0.12081247
v 0.00000547 0.40355670 0.07130086
v 0.00787363 0.41115314 0.08268648
v 0.01181122 0.40910864 0.07536153
v 0.01574881 0.40355670 0.07234307
v 0.01175125 0.41071680 0.09056203
v 0.01181122 0.41071546 0.09056203
v 0.01180371 0.41071630 0.09054702
v 0.00000547 0.35631129 0.12084012
v 0.00000547 0.41061953 0.09843267
v 0.00787363 0.40836519 0.10324059
v 0.00000547 0.38512021 0.11874588
v 0.01665425 0.40772966 0.10263100
v 0.01657002 0.38420287 0.11831819
v 0.03181502 0.30484498 0.11825918
v 0.02389772 0.40759775 0.07838130
v 0.02389773 0.40759775 0.07837509
v 0.02756158 0.39567849 0.07122220
v 0.03543676 0.39831656 0.07467083
v 0.03169570 0.40414128 0.08662426
v 0.02388372 0.40759775 0.09501597
v 0.02388369 0.40759775 0.09501600
v 0.03543676 0.35631129 0.11947837
v 0.03544469 0.35630384 0.11947751
v 0.03149216 0.37598890 0.11811662
v 0.03317669 0.40052292 0.10314227
v 0.04732175 0.19078003 0.05134686
v 0.04730761 0.19081002 0.05531490
v 0.04729391 0.19081002 0.05914128
v 0.04729381 0.19081002 0.05915631
v 0.04731245 0.19881919 0.05905005
v 0.04732175 0.20668529 0.05904267
v 0.03990811 0.19078003 0.07114785
v 0.03982332 0.19078003 0.07114445
v 0.03990773 0.19078003 0.07113044
v 0.03990955 0.19075003 0.07112863
v 0.03991184 0.19078003 0.07114808
v 0.04384781 0.19078003 0.06696013
v 0.04376559 0.19078003 0.06704801
v 0.04538907 0.19078003 0.06517835
v 0.04538930 0.19078003 0.06517857
v 0.04539854 0.19081523 0.06517369
v 0.04540118 0.19085051 0.06517369
v 0.04726593 0.19078003 0.06301038
v 0.04728454 0.19881919 0.06307906
v 0.04658847 0.20665586 0.06516787
v 0.04659782 0.20678428 0.06516682
v 0.04711283 0.21467222 0.06517236
v 0.04729366 0.21883836 0.06517369
v 0.04732136 0.22999024 0.06518187
v 0.04307931 0.26053751 0.06517369
v 0.04307931 0.26053751 0.06517971
v 0.04324408 0.28909278 0.07151832
v 0.04331448 0.28908834 0.07152163
v 0.04331390 0.28910407 0.07152158
v 0.04332184 0.28911185 0.07152405
v 0.04732175 0.24606484 0.06518004
v 0.04631554 0.25525150 0.06517857
v 0.04628905 0.25531754 0.06517857
v 0.04637279 0.25511962 0.06518380
v 0.04729133 0.25235689 0.06518158
v 0.04729385 0.25234860 0.06518954
v 0.05007327 0.28908032 0.07513973
v 0.05007321 0.28908032 0.07513970
v 0.05007321 0.28911033 0.07513970
v 0.05007814 0.28910050 0.07514523
v 0.05248923 0.28912157 0.08268261
v 0.05249049 0.28910050 0.08268686
v 0.05248942 0.28909156 0.08268322
v 0.05249029 0.28910050 0.08284061
v 0.05249029 0.28913051 0.08284061
v 0.05248021 0.28910050 0.09055509
v 0.04076480 0.28022701 0.10308960
v 0.04335452 0.28536630 0.10407557
v 0.04333397 0.28910050 0.10534464
v 0.04815372 0.28794560 0.10313353
v 0.04844134 0.28910050 0.10333401
v 0.04844134 0.28913051 0.10333401
v 0.04867895 0.28910631 0.10323897
v 0.04867808 0.28910619 0.10324049
v 0.04865605 0.28910491 0.10324948
v 0.04867098 0.28910366 0.10324360
v 0.04867784 0.28910050 0.10324091
v 0.04867895 0.28910050 0.10323897
v 0.04872514 0.28910050 0.10315823
v 0.04872514 0.28913051 0.10315823
v 0.05190508 0.28910050 0.09429836
v 0.05190508 0.28913051 0.09429836
v 0.05187578 0.28910050 0.09448908
v 0.05187222 0.28910050 0.09451226
v 0.05185734 0.28910050 0.09460908
v 0.05185734 0.28913051 0.09460908
v 0.04944859 0.28910050 0.10189375
v 0.05126756 0.28910050 0.09844773
v 0.03940945 0.31296304 0.11813629
v 0.03856016 0.32678890 0.11921536
v 0.04701006 0.33310241 0.11806116
v 0.04701006 0.33313242 0.11806116
v 0.04701791 0.33310828 0.11806009
v 0.04735482 0.34509951 0.11818545
v 0.03959191 0.39976749 0.07828663
v 0.03959194 0.39976749 0.07828660
v 0.04724954 0.38386711 0.07191537
v 0.04807074 0.39250079 0.07705758
v 0.04848486 0.39288452 0.08662426
v 0.03887602 0.36754707 0.11796914
v 0.03957790 0.39975548 0.09513889
v 0.04725655 0.39175734 0.10237536
v 0.05906231 0.31694412 0.07134019
v 0.06288058 0.30536059 0.08662426
v 0.06480376 0.31374246 0.07577449
v 0.06693748 0.34056681 0.07354259
v 0.07089614 0.32865956 0.07869896
v 0.07089614 0.32865953 0.07867497
v 0.07113478 0.34673032 0.07783923
v 0.07169629 0.34056681 0.08662426
v 0.06229099 0.30636784 0.09843267
v 0.06351227 0.31188381 0.10286205
v 0.06682519 0.31694412 0.09843267
v 0.06581797 0.33072501 0.10428894
v 0.07089614 0.32868353 0.09458829
v 0.07071716 0.35037863 0.09319459
v 0.07025040 0.34056681 0.10050725
v 0.05906231 0.35237819 0.07118534
v 0.05906231 0.36417753 0.07143359
v 0.06256473 0.37517348 0.08662426
v 0.05569325 0.38456261 0.07733288
v 0.06462828 0.36718732 0.07588264
v 0.06747093 0.36417753 0.08662426
v 0.05579853 0.38100120 0.10266786
v 0.05569325 0.38455066 0.09664319
v 0.05569325 0.38455063 0.09664322
v 0.06530911 0.35631129 0.10410582
v 0.06337190 0.36890209 0.10273915
v 0.06872027 0.35631129 0.09843267
f 2 14 19
f 1 15 16
f 1 17 14
f 1 14 2
f 1 16 17
f 1 3 15
f 2 8 4
f 1 2 4
f 1 4 3
f 4 8 12
f 6 19 21
f 2 19 5
f 5 19 6
f 2 5 8
f 5 6 8
f 6 21 22
f 6 22 7
f 7 22 23
f 6 9 8
f 8 9 12
f 6 7 9
f 7 23 25
f 7 25 9
f 3 10 18
f 3 11 10
f 3 13 11
f 3 4 13
f 4 12 13
f 11 42 24
f 11 13 42
f 12 43 13
f 9 33 12
f 33 35 12
f 12 35 36
f 3 18 15
f 16 15 55
f 16 53 17
f 14 17 53
f 18 56 15
f 19 20 21
f 21 20 22
f 14 57 19
f 20 19 58
f 20 60 22
f 22 60 23
f 23 61 39
f 10 67 18
f 11 62 10
f 11 24 62
f 46 63 24
f 26 23 37
f 25 23 26
f 9 25 28
f 9 28 31
f 9 31 33
f 28 25 27
f 25 26 27
f 27 29 28
f 31 28 29
f 27 26 112
f 26 37 112
f 27 130 29
f 31 29 32
f 29 30 32
f 34 35 33
f 32 34 31
f 31 34 33
f 35 50 36
f 32 30 129
f 29 130 30
f 34 129 35
f 32 129 34
f 35 235 50
f 37 115 112
f 27 112 127
f 30 130 129
f 125 27 127
f 27 125 130
f 129 235 35
f 39 37 23
f 38 37 39
f 39 41 38
f 38 184 37
f 38 40 184
f 39 61 41
f 40 38 78
f 38 41 81
f 78 190 40
f 115 37 183
f 183 37 185
f 184 185 37
f 184 40 186
f 40 189 186
f 40 190 189
f 24 42 46
f 13 43 42
f 42 44 46
f 42 45 44
f 42 43 45
f 43 12 445
f 45 47 44
f 43 444 45
f 45 48 47
f 45 49 48
f 45 446 49
f 45 444 446
f 12 36 459
f 44 98 46
f 47 100 44
f 48 100 47
f 49 100 48
f 49 451 101
f 36 50 51
f 50 236 51
f 50 235 236
f 51 482 36
f 51 52 456
f 51 563 52
f 51 236 563
f 14 53 57
f 15 56 55
f 16 55 53
f 18 67 56
f 53 54 57
f 55 54 53
f 19 57 58
f 58 59 20
f 59 60 20
f 23 60 61
f 10 62 67
f 24 63 62
f 62 63 64
f 54 66 57
f 55 56 65
f 54 55 65
f 54 65 66
f 56 68 65
f 65 69 66
f 66 69 73
f 67 68 56
f 65 68 69
f 69 76 73
f 57 70 58
f 58 71 59
f 57 66 70
f 58 70 71
f 66 73 70
f 70 73 71
f 59 71 60
f 60 71 72
f 60 72 61
f 71 73 74
f 71 74 72
f 61 72 90
f 72 74 90
f 62 68 67
f 62 75 68
f 68 75 77
f 62 64 75
f 68 77 69
f 69 77 76
f 64 102 75
f 75 102 77
f 76 77 105
f 73 76 97
f 73 107 74
f 73 97 107
f 41 61 80
f 38 81 78
f 41 80 81
f 61 83 80
f 61 86 83
f 78 81 79
f 82 81 80
f 82 80 83
f 82 83 87
f 87 84 82
f 278 78 79
f 79 81 282
f 81 82 282
f 82 84 282
f 78 278 190
f 278 79 280
f 79 282 280
f 84 288 282
f 61 90 86
f 74 85 90
f 83 86 87
f 85 89 90
f 89 88 91
f 86 90 87
f 87 90 89
f 85 93 89
f 89 93 88
f 74 94 85
f 74 96 94
f 74 95 96
f 84 87 288
f 87 89 288
f 288 89 91
f 88 306 91
f 93 92 88
f 74 107 95
f 85 94 93
f 96 93 94
f 95 107 108
f 92 306 88
f 92 93 306
f 93 96 305
f 95 305 96
f 95 108 402
f 91 285 286
f 288 91 286
f 91 284 285
f 283 284 91
f 91 290 283
f 290 91 303
f 306 303 91
f 93 305 306
f 95 401 305
f 95 402 401
f 46 98 63
f 98 44 104
f 103 104 44
f 100 103 44
f 63 99 64
f 98 99 63
f 64 99 104
f 98 104 99
f 49 101 100
f 64 104 102
f 77 102 105
f 102 104 105
f 103 105 104
f 76 105 503
f 103 106 105
f 76 503 97
f 100 106 103
f 105 106 501
f 100 101 106
f 105 502 503
f 106 101 499
f 97 524 107
f 107 524 108
f 108 524 109
f 110 109 524
f 108 109 402
f 110 404 109
f 110 111 404
f 109 403 402
f 109 404 403
f 111 110 508
f 111 508 404
f 508 405 404
f 113 115 114
f 112 115 113
f 114 126 113
f 112 113 127
f 127 113 126
f 126 114 123
f 126 123 127
f 125 131 124
f 114 116 117
f 123 114 118
f 118 114 117
f 114 120 116
f 114 121 120
f 120 121 119
f 122 119 121
f 114 115 167
f 167 115 183
f 166 183 185
f 166 185 184
f 166 184 186
f 114 167 121
f 123 125 127
f 124 128 130
f 125 124 130
f 129 130 128
f 129 128 235
f 128 234 235
f 124 142 128
f 140 143 124
f 124 132 140
f 124 141 142
f 141 124 143
f 128 142 148
f 131 134 132
f 134 139 140
f 134 140 132
f 134 133 135
f 136 138 137
f 139 134 135
f 144 142 141
f 139 143 140
f 142 145 146
f 145 147 146
f 142 146 148
f 148 146 150
f 148 150 149
f 128 148 149
f 128 149 151
f 146 147 245
f 146 245 150
f 238 149 150
f 149 238 151
f 118 131 123
f 118 117 152
f 116 152 117
f 123 131 125
f 124 131 132
f 116 120 157
f 120 119 157
f 122 157 119
f 122 121 157
f 121 167 164
f 167 183 166
f 166 187 168
f 118 134 131
f 118 152 138
f 136 118 138
f 118 133 134
f 118 136 133
f 116 154 152
f 154 116 157
f 138 152 154
f 138 153 137
f 138 154 153
f 153 154 155
f 154 157 155
f 155 157 156
f 156 157 158
f 121 158 157
f 158 161 163
f 162 163 161
f 159 162 161
f 159 160 162
f 121 161 158
f 121 164 161
f 161 164 165
f 161 165 169
f 161 169 172
f 165 164 168
f 164 166 168
f 166 164 167
f 168 169 165
f 169 171 172
f 170 172 171
f 159 170 160
f 159 161 172
f 160 178 162
f 159 172 170
f 170 171 174
f 160 170 178
f 162 178 177
f 162 177 176
f 168 193 169
f 169 193 171
f 171 193 174
f 170 174 179
f 170 179 178
f 173 174 175
f 173 179 174
f 179 180 178
f 176 177 180
f 177 178 180
f 181 180 179
f 173 241 179
f 179 242 181
f 174 193 175
f 173 175 256
f 181 243 182
f 179 241 242
f 181 242 243
f 173 256 241
f 186 188 187
f 188 186 189
f 187 188 189
f 166 186 187
f 187 189 191
f 168 187 191
f 168 191 192
f 168 192 193
f 175 193 194
f 175 194 195
f 175 195 256
f 191 189 317
f 317 192 191
f 193 192 330
f 193 330 194
f 194 330 195
f 195 339 256
f 196 197 202
f 196 202 203
f 196 198 199
f 199 211 212
f 198 200 199
f 198 207 200
f 199 200 211
f 197 199 201
f 196 199 197
f 199 212 201
f 133 203 202
f 141 202 197
f 139 135 202
f 133 202 135
f 136 137 203
f 136 203 133
f 197 201 221
f 201 212 224
f 203 206 196
f 203 204 206
f 196 205 198
f 196 206 205
f 198 205 207
f 206 208 205
f 204 209 206
f 200 207 208
f 205 208 207
f 206 209 208
f 204 210 209
f 163 204 203
f 137 153 203
f 153 155 203
f 155 156 203
f 156 158 203
f 158 163 203
f 163 210 204
f 209 210 219
f 176 219 210
f 200 216 211
f 211 213 212
f 211 216 213
f 213 216 218
f 212 213 224
f 213 215 214
f 213 218 215
f 200 208 216
f 208 209 217
f 208 217 216
f 216 217 218
f 209 219 217
f 217 220 218
f 215 218 220
f 217 231 220
f 217 219 232
f 144 197 225
f 197 222 225
f 144 141 197
f 141 143 202
f 139 202 143
f 201 223 221
f 201 224 223
f 197 221 222
f 144 259 142
f 145 142 259
f 145 270 147
f 144 225 259
f 222 226 225
f 222 221 261
f 221 223 261
f 223 224 228
f 223 228 261
f 222 261 226
f 163 162 210
f 162 176 210
f 176 180 219
f 180 268 219
f 213 228 224
f 213 214 228
f 214 227 228
f 214 215 227
f 215 230 227
f 227 230 229
f 227 262 228
f 227 263 262
f 227 229 263
f 217 232 231
f 215 220 230
f 220 231 230
f 230 231 233
f 219 268 232
f 229 230 233
f 231 267 233
f 231 232 267
f 232 268 267
f 234 236 235
f 234 237 236
f 128 252 234
f 234 252 237
f 128 151 240
f 239 238 150
f 151 238 239
f 239 150 240
f 128 240 245
f 128 245 247
f 249 128 247
f 128 249 244
f 128 244 250
f 128 250 251
f 147 246 245
f 240 150 245
f 151 239 240
f 236 237 563
f 563 237 553
f 128 251 252
f 252 254 237
f 254 255 237
f 255 551 237
f 551 553 237
f 244 249 250
f 246 248 249
f 246 249 247
f 247 245 246
f 250 249 251
f 248 253 249
f 251 249 252
f 249 254 252
f 249 253 254
f 253 255 254
f 243 652 182
f 242 573 243
f 242 241 646
f 241 258 572
f 241 256 258
f 258 256 257
f 257 256 339
f 257 754 258
f 145 259 270
f 225 226 260
f 225 260 259
f 147 270 246
f 226 261 271
f 259 260 270
f 226 272 260
f 226 271 272
f 228 264 261
f 228 262 264
f 262 263 273
f 229 265 263
f 262 273 264
f 261 264 578
f 263 274 273
f 263 265 274
f 265 266 275
f 233 265 229
f 233 267 269
f 233 266 265
f 266 233 269
f 266 269 275
f 267 268 276
f 267 276 269
f 246 270 248
f 260 575 270
f 248 270 253
f 260 272 575
f 261 578 271
f 270 575 551
f 253 270 255
f 255 270 551
f 271 577 272
f 271 578 577
f 180 181 719
f 181 182 719
f 264 273 579
f 273 274 579
f 265 275 274
f 274 275 580
f 264 579 578
f 274 581 579
f 274 580 581
f 275 586 580
f 268 180 600
f 269 587 275
f 269 277 587
f 276 268 588
f 269 276 277
f 275 587 586
f 276 588 277
f 190 278 279
f 189 190 317
f 278 280 279
f 282 281 280
f 281 282 288
f 279 316 190
f 279 280 316
f 280 281 316
f 317 318 192
f 192 318 329
f 192 329 330
f 195 330 339
f 316 317 190
f 286 287 288
f 285 293 286
f 286 300 287
f 283 291 284
f 283 290 289
f 283 289 291
f 289 292 291
f 289 290 292
f 284 297 285
f 284 291 297
f 285 297 298
f 285 298 293
f 292 299 291
f 291 299 297
f 286 293 296
f 286 296 300
f 294 295 293
f 293 295 296
f 297 299 298
f 293 298 294
f 281 288 316
f 287 314 288
f 295 301 296
f 296 301 300
f 301 302 300
f 287 300 314
f 292 328 299
f 290 342 292
f 290 303 349
f 303 304 349
f 304 303 305
f 303 306 305
f 304 305 307
f 305 401 307
f 304 307 349
f 300 302 314
f 298 323 294
f 294 323 295
f 299 327 298
f 295 323 301
f 301 323 302
f 288 314 316
f 302 315 314
f 302 320 315
f 298 325 323
f 298 327 325
f 299 328 327
f 290 345 342
f 292 342 328
f 290 346 345
f 290 349 346
f 308 318 320
f 310 308 309
f 308 313 311
f 308 311 309
f 308 312 313
f 308 310 319
f 314 315 316
f 316 315 317
f 329 318 331
f 315 320 317
f 317 320 318
f 308 319 318
f 319 310 332
f 319 331 318
f 332 310 335
f 331 319 332
f 302 321 320
f 302 323 321
f 313 321 322
f 322 321 324
f 323 324 321
f 323 326 324
f 323 325 326
f 308 320 312
f 312 321 313
f 320 321 312
f 325 341 326
f 327 343 325
f 343 341 325
f 330 329 339
f 334 340 329
f 329 331 332
f 333 334 329
f 329 332 333
f 332 335 333
f 334 337 338
f 333 337 334
f 336 333 335
f 337 333 336
f 334 338 407
f 329 340 339
f 334 406 340
f 334 407 406
f 338 409 407
f 307 358 349
f 327 328 343
f 328 342 343
f 343 344 341
f 343 346 344
f 342 346 343
f 345 346 342
f 344 346 347
f 346 352 347
f 346 349 351
f 348 355 353
f 349 350 351
f 348 353 354
f 350 348 354
f 351 352 346
f 348 350 358
f 350 349 358
f 348 358 355
f 355 357 353
f 355 356 357
f 355 358 356
f 356 358 359
f 361 356 359
f 358 361 359
f 358 360 361
f 307 360 358
f 307 362 360
f 307 410 362
f 360 363 361
f 360 362 363
f 361 411 356
f 363 362 410
f 356 412 357
f 368 366 364
f 364 366 365
f 364 365 377
f 366 367 371
f 366 368 367
f 368 364 373
f 368 373 370
f 367 368 369
f 369 368 370
f 370 374 369
f 369 374 379
f 310 309 366
f 310 366 371
f 309 365 366
f 341 377 365
f 309 311 365
f 311 313 365
f 313 322 365
f 322 324 365
f 324 326 365
f 326 341 365
f 367 381 371
f 336 371 381
f 364 377 373
f 372 373 377
f 372 375 373
f 370 373 374
f 373 375 374
f 374 375 384
f 375 376 385
f 375 385 384
f 372 376 375
f 351 372 377
f 344 377 341
f 344 347 377
f 372 389 376
f 376 391 385
f 367 380 381
f 367 369 380
f 369 378 380
f 369 379 378
f 378 379 382
f 378 382 380
f 380 394 381
f 380 382 383
f 380 383 395
f 382 388 383
f 379 374 384
f 379 384 386
f 384 385 386
f 379 386 382
f 382 386 388
f 386 387 388
f 385 391 386
f 310 371 335
f 335 371 336
f 336 381 337
f 381 426 337
f 347 352 377
f 351 377 352
f 350 372 351
f 350 392 372
f 389 372 392
f 350 354 392
f 376 389 390
f 376 390 391
f 353 423 354
f 353 357 434
f 354 423 392
f 392 393 389
f 390 389 429
f 399 391 390
f 389 393 429
f 380 395 394
f 383 396 395
f 383 388 396
f 395 396 397
f 381 394 426
f 394 395 425
f 394 425 426
f 395 397 425
f 396 400 397
f 400 427 397
f 386 391 399
f 386 399 387
f 387 399 398
f 388 398 396
f 387 398 388
f 396 398 400
f 390 429 399
f 398 399 430
f 398 431 400
f 398 430 431
f 339 406 257
f 406 407 257
f 257 407 408
f 257 408 754
f 307 401 418
f 401 402 418
f 402 403 418
f 404 739 403
f 405 739 404
f 339 340 406
f 408 407 409
f 307 411 410
f 363 411 361
f 410 411 363
f 307 412 411
f 307 414 412
f 414 307 415
f 415 307 417
f 307 418 417
f 411 412 356
f 357 412 413
f 338 757 409
f 409 757 408
f 403 420 418
f 738 422 403
f 420 403 421
f 403 422 421
f 403 739 738
f 413 412 414
f 415 417 416
f 405 741 739
f 741 405 742
f 416 417 419
f 417 418 420
f 417 420 419
f 419 420 421
f 419 421 422
f 353 434 423
f 392 424 393
f 392 423 424
f 393 435 429
f 357 413 434
f 423 434 424
f 393 424 435
f 397 428 425
f 397 427 428
f 425 436 426
f 425 428 436
f 427 433 428
f 428 433 438
f 399 429 432
f 399 432 430
f 400 433 427
f 400 431 441
f 430 442 431
f 430 432 442
f 429 773 432
f 400 441 433
f 431 442 441
f 338 337 888
f 413 414 434
f 414 415 434
f 415 416 434
f 424 434 763
f 424 763 435
f 416 419 434
f 429 435 773
f 419 422 434
f 422 763 434
f 435 763 765
f 435 765 773
f 337 426 782
f 426 436 766
f 428 439 436
f 428 438 439
f 433 437 438
f 433 440 437
f 436 439 766
f 438 437 767
f 438 767 439
f 437 440 770
f 432 776 442
f 433 441 440
f 441 442 443
f 432 773 776
f 440 441 774
f 441 443 774
f 442 776 443
f 447 444 43
f 43 445 447
f 446 451 49
f 446 453 451
f 12 459 445
f 444 447 446
f 446 448 453
f 459 36 483
f 446 447 448
f 447 449 448
f 445 459 447
f 447 450 449
f 449 450 454
f 450 469 454
f 447 457 450
f 451 452 101
f 451 500 452
f 451 453 500
f 500 453 448
f 448 449 500
f 454 505 449
f 483 36 482
f 455 456 52
f 51 456 482
f 455 52 564
f 563 564 52
f 455 564 456
f 456 564 565
f 456 565 567
f 450 470 469
f 447 459 457
f 450 458 470
f 450 457 458
f 458 471 470
f 457 460 458
f 458 460 471
f 457 461 460
f 457 459 461
f 459 483 465
f 460 461 462
f 459 464 461
f 460 462 473
f 461 464 463
f 461 463 462
f 462 474 473
f 462 463 474
f 463 476 474
f 459 465 464
f 464 465 467
f 465 489 468
f 465 468 467
f 468 489 481
f 463 464 466
f 464 467 466
f 463 466 476
f 466 467 478
f 467 468 475
f 467 475 479
f 466 477 476
f 466 478 477
f 467 480 478
f 467 479 480
f 468 481 475
f 454 469 510
f 469 470 510
f 470 471 512
f 471 460 525
f 460 473 472
f 460 472 525
f 472 473 513
f 474 515 473
f 494 520 481
f 481 516 475
f 474 476 518
f 476 477 518
f 477 478 518
f 478 480 519
f 479 516 480
f 475 516 479
f 483 485 484
f 484 485 487
f 485 486 487
f 456 567 482
f 482 567 483
f 483 604 485
f 485 604 486
f 486 605 487
f 465 483 484
f 465 484 488
f 484 487 488
f 487 491 488
f 490 489 488
f 490 488 491
f 490 491 492
f 490 492 493
f 465 488 489
f 481 489 490
f 481 490 493
f 487 605 491
f 491 611 492
f 602 483 567
f 483 602 604
f 486 604 605
f 491 605 606
f 491 606 608
f 491 608 609
f 491 609 610
f 491 610 611
f 493 492 494
f 494 492 495
f 494 495 497
f 481 493 494
f 495 492 683
f 495 683 496
f 496 686 498
f 495 496 535
f 495 535 497
f 496 498 535
f 494 497 520
f 492 611 683
f 496 683 686
f 688 498 686
f 499 101 452
f 452 500 499
f 500 449 505
f 510 505 454
f 510 511 505
f 106 504 501
f 106 499 504
f 105 501 506
f 105 506 502
f 499 500 504
f 501 504 506
f 500 505 504
f 523 503 502
f 97 503 523
f 504 505 506
f 502 506 523
f 505 507 506
f 505 511 507
f 506 507 521
f 523 524 97
f 524 539 110
f 508 110 542
f 539 542 110
f 508 749 405
f 508 542 509
f 508 509 749
f 509 752 749
f 509 751 752
f 470 512 510
f 471 525 512
f 510 512 511
f 472 513 525
f 513 473 515
f 474 518 515
f 513 515 514
f 478 519 518
f 480 516 519
f 516 481 520
f 520 517 516
f 517 519 516
f 507 511 522
f 507 522 521
f 506 521 523
f 511 512 522
f 521 522 525
f 512 525 522
f 521 525 526
f 521 526 523
f 524 523 530
f 524 530 539
f 525 527 526
f 523 526 529
f 513 514 525
f 514 527 525
f 526 527 528
f 526 528 529
f 514 515 527
f 515 528 527
f 515 518 528
f 523 529 530
f 529 532 530
f 530 533 548
f 530 532 533
f 520 548 533
f 518 531 528
f 519 532 531
f 528 531 529
f 529 531 532
f 517 532 519
f 517 533 532
f 518 519 531
f 517 520 533
f 498 534 535
f 535 536 497
f 520 497 536
f 534 498 791
f 536 535 538
f 537 536 538
f 520 536 537
f 794 535 534
f 794 538 535
f 688 791 498
f 534 791 792
f 792 793 534
f 793 794 534
f 509 542 540
f 539 541 542
f 540 542 541
f 539 543 544
f 539 544 541
f 545 544 546
f 543 548 544
f 509 540 751
f 540 541 751
f 544 799 541
f 545 546 800
f 545 800 544
f 544 548 547
f 544 547 546
f 538 547 537
f 537 547 549
f 546 547 550
f 547 548 549
f 530 543 539
f 530 548 543
f 520 549 548
f 520 537 549
f 546 550 800
f 538 808 547
f 547 808 550
f 541 798 751
f 541 799 798
f 544 800 799
f 550 803 800
f 550 808 806
f 550 802 803
f 550 804 802
f 806 804 550
f 794 808 538
f 553 551 552
f 552 554 553
f 553 554 556
f 555 553 557
f 553 556 557
f 553 555 565
f 556 558 557
f 560 561 562
f 241 572 646
f 573 646 243
f 242 646 573
f 654 182 652
f 243 646 652
f 563 553 565
f 555 566 565
f 566 555 567
f 555 602 567
f 564 563 565
f 565 566 567
f 555 603 602
f 555 557 603
f 557 558 603
f 558 559 603
f 559 560 603
f 560 562 603
f 562 568 603
f 562 561 631
f 631 568 562
f 568 569 603
f 568 624 569
f 572 574 571
f 572 258 574
f 258 754 574
f 551 575 576
f 551 576 552
f 552 576 554
f 272 592 575
f 554 576 556
f 556 576 558
f 576 559 558
f 559 576 560
f 560 576 561
f 575 592 576
f 272 577 592
f 180 719 600
f 577 578 582
f 578 579 582
f 579 581 583
f 580 586 584
f 580 584 581
f 579 583 582
f 581 585 583
f 581 584 585
f 584 594 585
f 584 589 594
f 584 586 587
f 277 590 587
f 584 587 589
f 587 590 589
f 588 268 600
f 277 588 591
f 277 591 590
f 589 590 599
f 588 600 591
f 590 591 599
f 576 592 593
f 576 630 561
f 577 582 595
f 577 702 592
f 576 593 633
f 592 701 593
f 592 702 701
f 577 595 702
f 654 719 182
f 582 583 597
f 583 585 598
f 585 594 598
f 582 597 595
f 595 597 596
f 583 598 597
f 594 706 598
f 589 599 594
f 591 601 599
f 591 600 601
f 594 599 706
f 599 708 706
f 599 601 708
f 604 602 603
f 605 607 606
f 608 606 615
f 603 634 604
f 604 634 605
f 605 634 607
f 611 610 614
f 610 612 614
f 610 613 612
f 608 615 609
f 610 609 615
f 610 615 613
f 611 614 682
f 606 607 639
f 615 606 616
f 612 623 614
f 612 613 623
f 614 623 684
f 613 615 618
f 613 618 619
f 613 619 620
f 620 656 613
f 623 687 684
f 615 616 617
f 617 618 615
f 617 619 618
f 620 619 621
f 620 621 622
f 622 656 620
f 656 657 613
f 657 623 613
f 623 661 687
f 569 625 603
f 603 625 626
f 603 626 629
f 569 624 625
f 568 631 624
f 561 630 631
f 624 626 625
f 624 627 626
f 627 624 631
f 627 628 626
f 603 629 634
f 607 634 636
f 607 636 637
f 626 628 629
f 628 627 631
f 628 631 629
f 631 633 629
f 631 630 632
f 632 633 631
f 629 633 634
f 634 635 636
f 636 638 637
f 638 641 637
f 639 637 642
f 637 641 640
f 637 640 642
f 643 640 641
f 642 640 665
f 644 645 570
f 646 572 571
f 570 646 571
f 570 645 646
f 571 689 570
f 689 644 570
f 645 652 646
f 647 645 644
f 645 647 655
f 647 649 648
f 647 648 655
f 648 649 655
f 649 650 655
f 650 651 655
f 651 659 655
f 644 690 647
f 647 690 649
f 649 690 650
f 650 690 651
f 645 653 652
f 645 655 653
f 652 653 654
f 654 653 679
f 606 639 616
f 617 616 665
f 665 619 617
f 607 637 639
f 657 658 623
f 619 671 621
f 623 658 661
f 621 677 622
f 651 660 659
f 622 677 656
f 656 677 657
f 663 664 660
f 657 677 658
f 658 677 661
f 651 695 660
f 661 662 696
f 662 663 699
f 663 660 699
f 616 639 642
f 616 642 665
f 619 665 667
f 667 668 619
f 670 619 668
f 619 670 671
f 640 643 667
f 640 667 665
f 643 666 667
f 681 680 669
f 680 671 670
f 666 668 667
f 669 670 668
f 670 669 680
f 659 660 672
f 677 621 680
f 664 673 660
f 661 677 662
f 663 662 673
f 663 673 664
f 655 659 672
f 653 655 678
f 678 655 672
f 660 673 672
f 662 677 673
f 679 653 678
f 672 673 678
f 671 680 621
f 677 674 675
f 677 680 674
f 679 673 676
f 676 677 675
f 676 673 677
f 678 673 679
f 674 680 681
f 683 611 682
f 614 684 682
f 682 684 685
f 682 686 683
f 682 685 686
f 684 687 685
f 688 686 685
f 685 687 688
f 687 791 688
f 651 690 693
f 690 689 691
f 690 691 693
f 571 574 689
f 644 689 690
f 661 692 687
f 660 695 699
f 651 693 694
f 651 694 695
f 696 692 661
f 662 699 696
f 695 700 699
f 692 696 700
f 696 699 697
f 696 697 700
f 697 699 698
f 697 698 700
f 698 699 700
f 574 754 689
f 689 754 691
f 691 815 693
f 693 815 694
f 815 695 694
f 687 692 821
f 695 823 700
f 700 825 692
f 576 632 630
f 576 633 632
f 593 701 635
f 593 635 634
f 593 634 633
f 595 596 702
f 701 702 703
f 702 596 703
f 703 596 704
f 635 701 713
f 701 703 713
f 635 712 636
f 636 712 638
f 703 704 714
f 654 679 718
f 679 676 718
f 654 718 719
f 596 597 704
f 597 705 704
f 597 707 705
f 597 598 707
f 598 706 707
f 705 707 726
f 704 705 729
f 705 726 729
f 706 709 707
f 707 727 726
f 707 709 727
f 600 732 711
f 708 709 706
f 601 710 708
f 600 711 601
f 601 711 710
f 600 719 732
f 708 710 709
f 709 733 727
f 709 710 733
f 710 711 734
f 635 713 712
f 638 712 641
f 641 712 643
f 703 714 713
f 704 728 714
f 712 713 715
f 712 715 722
f 713 714 716
f 714 728 716
f 713 716 715
f 716 728 730
f 716 730 717
f 716 717 715
f 643 720 666
f 666 720 668
f 669 668 720
f 681 669 720
f 674 720 675
f 674 681 720
f 643 712 720
f 675 720 721
f 676 675 721
f 676 721 718
f 718 725 719
f 719 725 732
f 712 722 720
f 720 722 721
f 721 722 723
f 722 715 723
f 715 717 723
f 721 723 725
f 717 724 723
f 717 736 724
f 723 724 725
f 718 721 725
f 724 737 725
f 704 729 728
f 726 727 729
f 727 731 729
f 728 729 730
f 729 735 730
f 729 731 735
f 717 730 736
f 727 733 731
f 731 733 734
f 711 732 734
f 710 734 733
f 734 736 735
f 724 734 737
f 731 734 735
f 730 735 736
f 724 736 734
f 725 737 732
f 732 737 734
f 405 750 742
f 749 750 405
f 338 758 757
f 753 754 408
f 408 757 759
f 753 408 817
f 408 759 817
f 739 740 738
f 422 738 763
f 741 743 739
f 741 742 743
f 739 746 740
f 743 746 739
f 742 801 743
f 746 745 740
f 743 744 746
f 745 746 747
f 748 746 744
f 742 750 752
f 742 752 801
f 749 752 750
f 753 755 754
f 758 759 757
f 743 801 744
f 744 801 748
f 746 748 801
f 746 801 747
f 747 801 760
f 747 841 745
f 760 801 837
f 760 841 747
f 760 761 762
f 760 837 761
f 760 762 841
f 338 888 758
f 337 782 888
f 738 740 764
f 738 764 763
f 740 745 764
f 763 764 779
f 763 779 765
f 773 765 787
f 426 766 782
f 439 769 766
f 439 768 769
f 437 770 767
f 439 767 768
f 766 769 782
f 768 781 769
f 767 770 772
f 770 771 772
f 767 781 768
f 767 772 781
f 772 771 781
f 773 778 776
f 440 774 770
f 443 775 774
f 770 774 771
f 774 775 777
f 443 776 775
f 775 776 778
f 773 787 778
f 771 774 777
f 771 777 786
f 775 778 777
f 764 745 842
f 765 779 860
f 764 845 779
f 765 860 787
f 769 781 783
f 769 783 782
f 780 781 771
f 780 771 785
f 780 785 784
f 780 866 781
f 781 866 783
f 780 784 865
f 780 865 866
f 771 786 785
f 777 790 786
f 777 778 790
f 778 787 789
f 787 788 789
f 785 786 871
f 784 785 871
f 786 790 871
f 778 789 790
f 687 821 791
f 791 795 792
f 792 795 793
f 793 795 794
f 791 796 795
f 795 796 809
f 791 821 796
f 755 815 691
f 691 754 755
f 822 700 823
f 822 824 700
f 700 824 825
f 695 815 823
f 821 692 826
f 692 825 826
f 752 751 801
f 751 797 801
f 751 798 797
f 798 799 797
f 803 799 800
f 803 797 799
f 797 847 801
f 797 803 847
f 802 804 805
f 806 808 807
f 807 808 810
f 794 809 808
f 794 795 809
f 808 811 810
f 808 812 811
f 808 809 813
f 808 813 812
f 809 796 814
f 809 814 813
f 796 821 814
f 807 810 836
f 802 847 803
f 802 805 847
f 804 858 805
f 858 806 807
f 858 804 806
f 815 816 823
f 755 756 816
f 755 817 756
f 753 817 755
f 759 758 817
f 755 816 815
f 816 756 818
f 816 818 823
f 817 819 756
f 818 756 819
f 758 819 817
f 818 819 820
f 811 812 832
f 810 811 836
f 812 813 832
f 813 814 832
f 814 821 833
f 805 848 847
f 805 849 848
f 805 857 849
f 805 858 857
f 807 854 855
f 807 851 853
f 807 853 854
f 807 836 851
f 855 858 807
f 822 827 824
f 822 823 827
f 824 827 825
f 825 827 826
f 826 833 821
f 818 828 823
f 818 820 828
f 823 828 827
f 820 829 828
f 827 831 826
f 827 828 829
f 827 829 830
f 811 832 834
f 834 836 811
f 814 833 832
f 826 831 833
f 827 830 831
f 831 834 832
f 831 835 834
f 833 831 832
f 834 835 852
f 851 836 834
f 834 852 851
f 801 838 837
f 801 840 838
f 762 837 838
f 762 838 839
f 841 762 839
f 761 837 762
f 841 842 745
f 801 847 840
f 838 840 839
f 839 840 841
f 840 847 841
f 841 845 842
f 847 845 841
f 845 847 846
f 848 849 843
f 848 846 847
f 848 843 844
f 848 844 846
f 843 849 850
f 855 856 850
f 851 852 853
f 854 856 855
f 849 855 850
f 857 858 849
f 855 849 858
f 758 873 819
f 819 873 820
f 820 875 829
f 758 888 873
f 764 842 845
f 779 846 859
f 779 859 860
f 779 845 846
f 787 860 788
f 859 861 860
f 859 863 861
f 788 860 861
f 788 861 862
f 862 864 788
f 843 850 881
f 843 881 844
f 844 882 846
f 846 882 859
f 859 882 863
f 861 863 862
f 862 863 864
f 863 884 864
f 782 867 889
f 782 783 867
f 783 868 867
f 784 871 865
f 866 865 871
f 783 866 868
f 866 871 869
f 782 889 888
f 867 868 892
f 866 869 868
f 868 869 891
f 869 895 891
f 789 788 864
f 789 864 870
f 789 870 872
f 790 872 871
f 789 872 790
f 870 894 872
f 864 898 870
f 870 898 894
f 869 871 872
f 869 872 895
f 872 896 895
f 872 894 896
f 830 829 875
f 820 873 875
f 830 874 831
f 831 874 835
f 835 874 852
f 830 875 874
f 873 888 876
f 874 875 878
f 874 878 883
f 873 876 875
f 875 876 878
f 877 878 880
f 877 883 878
f 883 877 885
f 877 880 885
f 876 892 879
f 876 879 878
f 878 879 880
f 879 886 880
f 852 874 853
f 854 853 881
f 854 881 856
f 850 856 881
f 844 881 882
f 853 874 881
f 863 882 884
f 864 884 897
f 874 883 881
f 881 883 882
f 882 883 887
f 882 887 884
f 884 887 897
f 883 885 887
f 880 886 885
f 885 886 887
f 886 899 887
f 887 899 897
f 867 892 889
f 876 888 889
f 868 891 892
f 890 891 895
f 890 892 891
f 876 889 892
f 890 893 892
f 879 892 893
f 879 893 886
f 895 896 890
f 890 896 898
f 894 898 896
f 864 897 898
f 893 898 899
f 897 899 898
f 890 898 893
f 886 893 899
