# https://github.com/mikedh/trimesh
v 0.47516974 -0.38000000 0.08378525
v 0.47195622 -0.38000000 0.10031739
v 0.52342234 -0.38000000 0.13439202
v 0.57395755 -0.38000000 0.16892489
v 0.54825982 -0.38000000 0.23952883
v 0.48735030 -0.38000000 0.23349914
v 0.42602221 -0.38000000 0.22652003
v 0.41785726 -0.38000000 0.24125000
v 0.40918321 -0.38000000 0.25568604
v 0.44589133 -0.38000000 0.30530817
v 0.48156796 -0.38000000 0.35504252
v 0.43327202 -0.38000000 0.41259937
v 0.37809807 -0.38000000 0.38610104
v 0.32285552 -0.38000000 0.35856738
v 0.31014502 -0.38000000 0.36961644
v 0.29705666 -0.38000000 0.38021519
v 0.31457925 -0.38000000 0.43939965
v 0.33109416 -0.38000000 0.49833678
v 0.26602523 -0.38000000 0.53590435
v 0.22324163 -0.38000000 0.49213345
v 0.18074768 -0.38000000 0.44736621
v 0.16502472 -0.38000000 0.45340169
v 0.14910070 -0.38000000 0.45888477
v 0.14532427 -0.38000000 0.52049305
v 0.14068553 -0.38000000 0.58152427
v 0.06669186 -0.38000000 0.59457135
v 0.04145896 -0.38000000 0.53880731
v 0.01683901 -0.38000000 0.48220607
v 0.00000000 -0.38000000 0.48250000
v -0.01683901 -0.38000000 0.48220607
v -0.04145896 -0.38000000 0.53880731
v -0.06669186 -0.38000000 0.59457135
v -0.14068553 -0.38000000 0.58152427
v -0.14532427 -0.38000000 0.52049305
v -0.14910070 -0.38000000 0.45888477
v -0.16502472 -0.38000000 0.45340169
v -0.18074768 -0.38000000 0.44736621
v -0.22324163 -0.38000000 0.49213345
v -0.26602523 -0.38000000 0.53590435
v -0.33109416 -0.38000000 0.49833678
v -0.31457925 -0.38000000 0.43939965
v -0.29705666 -0.38000000 0.38021519
v -0.31014502 -0.38000000 0.36961644
v -0.32285552 -0.38000000 0.35856738
v -0.37809807 -0.38000000 0.38610104
v -0.43327202 -0.38000000 0.41259937
v -0.48156796 -0.38000000 0.35504252
v -0.44589133 -0.38000000 0.30530817
v -0.40918321 -0.38000000 0.25568604
v -0.41785726 -0.38000000 0.24125000
v -0.42602221 -0.38000000 0.22652003
v -0.48735030 -0.38000000 0.23349914
v -0.54825982 -0.38000000 0.23952883
v -0.57395755 -0.38000000 0.16892489
v -0.52342234 -0.38000000 0.13439202
v -0.47195622 -0.38000000 0.10031739
v -0.47516974 -0.38000000 0.08378525
v -0.47780434 -0.38000000 0.06715102
v -0.53782089 -0.38000000 0.05273380
v -0.59711939 -0.38000000 0.03756757
v -0.59711939 -0.38000000 -0.03756757
v -0.53782089 -0.38000000 -0.05273380
v -0.47780434 -0.38000000 -0.06715102
v -0.47516974 -0.38000000 -0.08378525
v -0.47195622 -0.38000000 -0.10031739
v -0.52342234 -0.38000000 -0.13439202
v -0.57395755 -0.38000000 -0.16892489
v -0.54825982 -0.38000000 -0.23952883
v -0.48735030 -0.38000000 -0.23349914
v -0.42602221 -0.38000000 -0.22652003
v -0.41785726 -0.38000000 -0.24125000
v -0.40918321 -0.38000000 -0.25568604
v -0.44589133 -0.38000000 -0.30530817
v -0.48156796 -0.38000000 -0.35504252
v -0.43327202 -0.38000000 -0.41259937
v -0.37809807 -0.38000000 -0.38610104
v -0.32285552 -0.38000000 -0.35856738
v -0.31014502 -0.38000000 -0.36961644
v -0.29705666 -0.38000000 -0.38021519
v -0.31457925 -0.38000000 -0.43939965
v -0.33109416 -0.38000000 -0.49833678
v -0.26602523 -0.38000000 -0.53590435
v -0.22324163 -0.38000000 -0.49213345
v -0.18074768 -0.38000000 -0.44736621
v -0.16502472 -0.38000000 -0.45340169
v -0.14910070 -0.38000000 -0.45888477
v -0.14532427 -0.38000000 -0.52049305
v -0.14068553 -0.38000000 -0.58152427
v -0.06669186 -0.38000000 -0.59457135
v -0.04145896 -0.38000000 -0.53880731
v -0.01683901 -0.38000000 -0.48220607
v -0.00000000 -0.38000000 -0.48250000
v 0.01683901 -0.38000000 -0.48220607
v 0.04145896 -0.38000000 -0.53880731
v 0.06669186 -0.38000000 -0.59457135
v 0.14068553 -0.38000000 -0.58152427
v 0.14532427 -0.38000000 -0.52049305
v 0.14910070 -0.38000000 -0.45888477
v 0.16502472 -0.38000000 -0.45340169
v 0.18074768 -0.38000000 -0.44736621
v 0.22324163 -0.38000000 -0.49213345
v 0.26602523 -0.38000000 -0.53590435
v 0.33109416 -0.38000000 -0.49833678
v 0.31457925 -0.38000000 -0.43939965
v 0.29705666 -0.38000000 -0.38021519
v 0.31014502 -0.38000000 -0.36961644
v 0.32285552 -0.38000000 -0.35856738
v 0.37809807 -0.38000000 -0.38610104
v 0.43327202 -0.38000000 -0.41259937
v 0.48156796 -0.38000000 -0.35504252
v 0.44589133 -0.38000000 -0.30530817
v 0.40918321 -0.38000000 -0.25568604
v 0.41785726 -0.38000000 -0.24125000
v 0.42602221 -0.38000000 -0.22652003
v 0.48735030 -0.38000000 -0.23349914
v 0.54825982 -0.38000000 -0.23952883
v 0.57395755 -0.38000000 -0.16892489
v 0.52342234 -0.38000000 -0.13439202
v 0.47195622 -0.38000000 -0.10031739
v 0.47516974 -0.38000000 -0.08378525
v 0.47780434 -0.38000000 -0.06715102
v 0.53782089 -0.38000000 -0.05273380
v 0.59711939 -0.38000000 -0.03756757
v 0.59711939 -0.38000000 0.03756757
v 0.53782089 -0.38000000 0.05273380
v 0.47780434 -0.38000000 0.06715102
v 0.49240388 -0.35200000 0.08682409
v 0.48907380 -0.35200000 0.10395585
v 0.54240657 -0.35200000 0.13926634
v 0.59477466 -0.35200000 0.17505170
v 0.56814489 -0.35200000 0.24821640
v 0.50502621 -0.35200000 0.24196802
v 0.44147380 -0.35200000 0.23473578
v 0.43301270 -0.35200000 0.25000000
v 0.42402405 -0.35200000 0.26495963
v 0.46206356 -0.35200000 0.31638152
v 0.49903415 -0.35200000 0.36791971
v 0.44898655 -0.35200000 0.42756412
v 0.39181147 -0.35200000 0.40010470
v 0.33456530 -0.35200000 0.37157241
v 0.32139380 -0.35200000 0.38302222
v 0.30783074 -0.35200000 0.39400538
v 0.32598886 -0.35200000 0.45533643
v 0.34310276 -0.35200000 0.51641117
v 0.27567381 -0.35200000 0.55534129
v 0.23133848 -0.35200000 0.50998285
v 0.18730330 -0.35200000 0.46359193
v 0.17101007 -0.35200000 0.46984631
v 0.15450850 -0.35200000 0.47552826
v 0.15059510 -0.35200000 0.53937104
v 0.14578811 -0.35200000 0.60261582
v 0.06911074 -0.35200000 0.61613611
v 0.04296266 -0.35200000 0.55834954
v 0.01744975 -0.35200000 0.49969541
v 0.00000000 -0.35200000 0.50000000
v -0.01744975 -0.35200000 0.49969541
v -0.04296266 -0.35200000 0.55834954
v -0.06911074 -0.35200000 0.61613611
v -0.14578811 -0.35200000 0.60261582
v -0.15059510 -0.35200000 0.53937104
v -0.15450850 -0.35200000 0.47552826
v -0.17101007 -0.35200000 0.46984631
v -0.18730330 -0.35200000 0.46359193
v -0.23133848 -0.35200000 0.50998285
v -0.27567381 -0.35200000 0.55534129
v -0.34310276 -0.35200000 0.51641117
v -0.32598886 -0.35200000 0.45533643
v -0.30783074 -0.35200000 0.39400538
v -0.32139380 -0.35200000 0.38302222
v -0.33456530 -0.35200000 0.37157241
v -0.39181147 -0.35200000 0.40010470
v -0.44898655 -0.35200000 0.42756412
v -0.49903415 -0.35200000 0.36791971
v -0.46206356 -0.35200000 0.31638152
v -0.42402405 -0.35200000 0.26495963
v -0.43301270 -0.35200000 0.25000000
v -0.44147380 -0.35200000 0.23473578
v -0.50502621 -0.35200000 0.24196802
v -0.56814489 -0.35200000 0.24821640
v -0.59477466 -0.35200000 0.17505170
v -0.54240657 -0.35200000 0.13926634
v -0.48907380 -0.35200000 0.10395585
v -0.49240388 -0.35200000 0.08682409
v -0.49513403 -0.35200000 0.06958655
v -0.55732734 -0.35200000 0.05464642
v -0.61877657 -0.35200000 0.03893012
v -0.61877657 -0.35200000 -0.03893012
v -0.55732734 -0.35200000 -0.05464642
v -0.49513403 -0.35200000 -0.06958655
v -0.49240388 -0.35200000 -0.08682409
v -0.48907380 -0.35200000 -0.10395585
v -0.54240657 -0.35200000 -0.13926634
v -0.59477466 -0.35200000 -0.17505170
v -0.56814489 -0.35200000 -0.24821640
v -0.50502621 -0.35200000 -0.24196802
v -0.44147380 -0.35200000 -0.23473578
v -0.43301270 -0.35200000 -0.25000000
v -0.42402405 -0.35200000 -0.26495963
v -0.46206356 -0.35200000 -0.31638152
v -0.49903415 -0.35200000 -0.36791971
v -0.44898655 -0.35200000 -0.42756412
v -0.39181147 -0.35200000 -0.40010470
v -0.33456530 -0.35200000 -0.37157241
v -0.32139380 -0.35200000 -0.38302222
v -0.30783074 -0.35200000 -0.39400538
v -0.32598886 -0.35200000 -0.45533643
v -0.34310276 -0.35200000 -0.51641117
v -0.27567381 -0.35200000 -0.55534129
v -0.23133848 -0.35200000 -0.50998285
v -0.18730330 -0.35200000 -0.46359193
v -0.17101007 -0.35200000 -0.46984631
v -0.15450850 -0.35200000 -0.47552826
v -0.15059510 -0.35200000 -0.53937104
v -0.14578811 -0.35200000 -0.60261582
v -0.06911074 -0.35200000 -0.61613611
v -0.04296266 -0.35200000 -0.55834954
v -0.01744975 -0.35200000 -0.49969541
v -0.00000000 -0.35200000 -0.50000000
v 0.01744975 -0.35200000 -0.49969541
v 0.04296266 -0.35200000 -0.55834954
v 0.06911074 -0.35200000 -0.61613611
v 0.14578811 -0.35200000 -0.60261582
v 0.15059510 -0.35200000 -0.53937104
v 0.15450850 -0.35200000 -0.47552826
v 0.17101007 -0.35200000 -0.46984631
v 0.18730330 -0.35200000 -0.46359193
v 0.23133848 -0.35200000 -0.50998285
v 0.27567381 -0.35200000 -0.55534129
v 0.34310276 -0.35200000 -0.51641117
v 0.32598886 -0.35200000 -0.45533643
v 0.30783074 -0.35200000 -0.39400538
v 0.32139380 -0.35200000 -0.38302222
v 0.33456530 -0.35200000 -0.37157241
v 0.39181147 -0.35200000 -0.40010470
v 0.44898655 -0.35200000 -0.42756412
v 0.49903415 -0.35200000 -0.36791971
v 0.46206356 -0.35200000 -0.31638152
v 0.42402405 -0.35200000 -0.26495963
v 0.43301270 -0.35200000 -0.25000000
v 0.44147380 -0.35200000 -0.23473578
v 0.50502621 -0.35200000 -0.24196802
v 0.56814489 -0.35200000 -0.24821640
v 0.59477466 -0.35200000 -0.17505170
v 0.54240657 -0.35200000 -0.13926634
v 0.48907380 -0.35200000 -0.10395585
v 0.49240388 -0.35200000 -0.08682409
v 0.49513403 -0.35200000 -0.06958655
v 0.55732734 -0.35200000 -0.05464642
v 0.61877657 -0.35200000 -0.03893012
v 0.61877657 -0.35200000 0.03893012
v 0.55732734 -0.35200000 0.05464642
v 0.49513403 -0.35200000 0.06958655
v 0.49240388 0.35200000 0.08682409
v 0.48907380 0.35200000 0.10395585
v 0.54240657 0.35200000 0.13926634
v 0.59477466 0.35200000 0.17505170
v 0.56814489 0.35200000 0.24821640
v 0.50502621 0.35200000 0.24196802
v 0.44147380 0.35200000 0.23473578
v 0.43301270 0.35200000 0.25000000
v 0.42402405 0.35200000 0.26495963
v 0.46206356 0.35200000 0.31638152
v 0.49903415 0.35200000 0.36791971
v 0.44898655 0.35200000 0.42756412
v 0.39181147 0.35200000 0.40010470
v 0.33456530 0.35200000 0.37157241
v 0.32139380 0.35200000 0.38302222
v 0.30783074 0.35200000 0.39400538
v 0.32598886 0.35200000 0.45533643
v 0.34310276 0.35200000 0.51641117
v 0.27567381 0.35200000 0.55534129
v 0.23133848 0.35200000 0.50998285
v 0.18730330 0.35200000 0.46359193
v 0.17101007 0.35200000 0.46984631
v 0.15450850 0.35200000 0.47552826
v 0.15059510 0.35200000 0.53937104
v 0.14578811 0.35200000 0.60261582
v 0.06911074 0.35200000 0.61613611
v 0.04296266 0.35200000 0.55834954
v 0.01744975 0.35200000 0.49969541
v 0.00000000 0.35200000 0.50000000
v -0.01744975 0.35200000 0.49969541
v -0.04296266 0.35200000 0.55834954
v -0.06911074 0.35200000 0.61613611
v -0.14578811 0.35200000 0.60261582
v -0.15059510 0.35200000 0.53937104
v -0.15450850 0.35200000 0.47552826
v -0.17101007 0.35200000 0.46984631
v -0.18730330 0.35200000 0.46359193
v -0.23133848 0.35200000 0.50998285
v -0.27567381 0.35200000 0.55534129
v -0.34310276 0.35200000 0.51641117
v -0.32598886 0.35200000 0.45533643
v -0.30783074 0.35200000 0.39400538
v -0.32139380 0.35200000 0.38302222
v -0.33456530 0.35200000 0.37157241
v -0.39181147 0.35200000 0.40010470
v -0.44898655 0.35200000 0.42756412
v -0.49903415 0.35200000 0.36791971
v -0.46206356 0.35200000 0.31638152
v -0.42402405 0.35200000 0.26495963
v -0.43301270 0.35200000 0.25000000
v -0.44147380 0.35200000 0.23473578
v -0.50502621 0.35200000 0.24196802
v -0.56814489 0.35200000 0.24821640
v -0.59477466 0.35200000 0.17505170
v -0.54240657 0.35200000 0.13926634
v -0.48907380 0.35200000 0.10395585
v -0.49240388 0.35200000 0.08682409
v -0.49513403 0.35200000 0.06958655
v -0.55732734 0.35200000 0.05464642
v -0.61877657 0.35200000 0.03893012
v -0.61877657 0.35200000 -0.03893012
v -0.55732734 0.35200000 -0.05464642
v -0.49513403 0.35200000 -0.06958655
v -0.49240388 0.35200000 -0.08682409
v -0.48907380 0.35200000 -0.10395585
v -0.54240657 0.35200000 -0.13926634
v -0.59477466 0.35200000 -0.17505170
v -0.56814489 0.35200000 -0.24821640
v -0.50502621 0.35200000 -0.24196802
v -0.44147380 0.35200000 -0.23473578
v -0.43301270 0.35200000 -0.25000000
v -0.42402405 0.35200000 -0.26495963
v -0.46206356 0.35200000 -0.31638152
v -0.49903415 0.35200000 -0.36791971
v -0.44898655 0.35200000 -0.42756412
v -0.39181147 0.35200000 -0.40010470
v -0.33456530 0.35200000 -0.37157241
v -0.32139380 0.35200000 -0.38302222
v -0.30783074 0.35200000 -0.39400538
v -0.32598886 0.35200000 -0.45533643
v -0.34310276 0.35200000 -0.51641117
v -0.27567381 0.35200000 -0.55534129
v -0.23133848 0.35200000 -0.50998285
v -0.18730330 0.35200000 -0.46359193
v -0.17101007 0.35200000 -0.46984631
v -0.15450850 0.35200000 -0.47552826
v -0.15059510 0.35200000 -0.53937104
v -0.14578811 0.35200000 -0.60261582
v -0.06911074 0.35200000 -0.61613611
v -0.04296266 0.35200000 -0.55834954
v -0.01744975 0.35200000 -0.49969541
v -0.00000000 0.35200000 -0.50000000
v 0.01744975 0.35200000 -0.49969541
v 0.04296266 0.35200000 -0.55834954
v 0.06911074 0.35200000 -0.61613611
v 0.14578811 0.35200000 -0.60261582
v 0.15059510 0.35200000 -0.53937104
v 0.15450850 0.35200000 -0.47552826
v 0.17101007 0.35200000 -0.46984631
v 0.18730330 0.35200000 -0.46359193
v 0.23133848 0.35200000 -0.50998285
v 0.27567381 0.35200000 -0.55534129
v 0.34310276 0.35200000 -0.51641117
v 0.32598886 0.35200000 -0.45533643
v 0.30783074 0.35200000 -0.39400538
v 0.32139380 0.35200000 -0.38302222
v 0.33456530 0.35200000 -0.37157241
v 0.39181147 0.35200000 -0.40010470
v 0.44898655 0.35200000 -0.42756412
v 0.49903415 0.35200000 -0.36791971
v 0.46206356 0.35200000 -0.31638152
v 0.42402405 0.35200000 -0.26495963
v 0.43301270 0.35200000 -0.25000000
v 0.44147380 0.35200000 -0.23473578
v 0.50502621 0.35200000 -0.24196802
v 0.56814489 0.35200000 -0.24821640
v 0.59477466 0.35200000 -0.17505170
v 0.54240657 0.35200000 -0.13926634
v 0.48907380 0.35200000 -0.10395585
v 0.49240388 0.35200000 -0.08682409
v 0.49513403 0.35200000 -0.06958655
v 0.55732734 0.35200000 -0.05464642
v 0.61877657 0.35200000 -0.03893012
v 0.61877657 0.35200000 0.03893012
v 0.55732734 0.35200000 0.05464642
v 0.49513403 0.35200000 0.06958655
v 0.47516974 0.38000000 0.08378525
v 0.47195622 0.38000000 0.10031739
v 0.52342234 0.38000000 0.13439202
v 0.57395755 0.38000000 0.16892489
v 0.54825982 0.38000000 0.23952883
v 0.48735030 0.38000000 0.23349914
v 0.42602221 0.38000000 0.22652003
v 0.41785726 0.38000000 0.24125000
v 0.40918321 0.38000000 0.25568604
v 0.44589133 0.38000000 0.30530817
v 0.48156796 0.38000000 0.35504252
v 0.43327202 0.38000000 0.41259937
v 0.37809807 0.38000000 0.38610104
v 0.32285552 0.38000000 0.35856738
v 0.31014502 0.38000000 0.36961644
v 0.29705666 0.38000000 0.38021519
v 0.31457925 0.38000000 0.43939965
v 0.33109416 0.38000000 0.49833678
v 0.26602523 0.38000000 0.53590435
v 0.22324163 0.38000000 0.49213345
v 0.18074768 0.38000000 0.44736621
v 0.16502472 0.38000000 0.45340169
v 0.14910070 0.38000000 0.45888477
v 0.14532427 0.38000000 0.52049305
v 0.14068553 0.38000000 0.58152427
v 0.06669186 0.38000000 0.59457135
v 0.04145896 0.38000000 0.53880731
v 0.01683901 0.38000000 0.48220607
v 0.00000000 0.38000000 0.48250000
v -0.01683901 0.38000000 0.48220607
v -0.04145896 0.38000000 0.53880731
v -0.06669186 0.38000000 0.59457135
v -0.14068553 0.38000000 0.58152427
v -0.14532427 0.38000000 0.52049305
v -0.14910070 0.38000000 0.45888477
v -0.16502472 0.38000000 0.45340169
v -0.18074768 0.38000000 0.44736621
v -0.22324163 0.38000000 0.49213345
v -0.26602523 0.38000000 0.53590435
v -0.33109416 0.38000000 0.49833678
v -0.31457925 0.38000000 0.43939965
v -0.29705666 0.38000000 0.38021519
v -0.31014502 0.38000000 0.36961644
v -0.32285552 0.38000000 0.35856738
v -0.37809807 0.38000000 0.38610104
v -0.43327202 0.38000000 0.41259937
v -0.48156796 0.38000000 0.35504252
v -0.44589133 0.38000000 0.30530817
v -0.40918321 0.38000000 0.25568604
v -0.41785726 0.38000000 0.24125000
v -0.42602221 0.38000000 0.22652003
v -0.48735030 0.38000000 0.23349914
v -0.54825982 0.38000000 0.23952883
v -0.57395755 0.38000000 0.16892489
v -0.52342234 0.38000000 0.13439202
v -0.47195622 0.38000000 0.10031739
v -0.47516974 0.38000000 0.08378525
v -0.47780434 0.38000000 0.06715102
v -0.53782089 0.38000000 0.05273380
v -0.59711939 0.38000000 0.03756757
v -0.59711939 0.38000000 -0.03756757
v -0.53782089 0.38000000 -0.05273380
v -0.47780434 0.38000000 -0.06715102
v -0.47516974 0.38000000 -0.08378525
v -0.47195622 0.38000000 -0.10031739
v -0.52342234 0.38000000 -0.13439202
v -0.57395755 0.38000000 -0.16892489
v -0.54825982 0.38000000 -0.23952883
v -0.48735030 0.38000000 -0.23349914
v -0.42602221 0.38000000 -0.22652003
v -0.41785726 0.38000000 -0.24125000
v -0.40918321 0.38000000 -0.25568604
v -0.44589133 0.38000000 -0.30530817
v -0.48156796 0.38000000 -0.35504252
v -0.43327202 0.38000000 -0.41259937
v -0.37809807 0.38000000 -0.38610104
v -0.32285552 0.38000000 -0.35856738
v -0.31014502 0.38000000 -0.36961644
v -0.29705666 0.38000000 -0.38021519
v -0.31457925 0.38000000 -0.43939965
v -0.33109416 0.38000000 -0.49833678
v -0.26602523 0.38000000 -0.53590435
v -0.22324163 0.38000000 -0.49213345
v -0.18074768 0.38000000 -0.44736621
v -0.16502472 0.38000000 -0.45340169
v -0.14910070 0.38000000 -0.45888477
v -0.14532427 0.38000000 -0.52049305
v -0.14068553 0.38000000 -0.58152427
v -0.06669186 0.38000000 -0.59457135
v -0.04145896 0.38000000 -0.53880731
v -0.01683901 0.38000000 -0.48220607
v -0.00000000 0.38000000 -0.48250000
v 0.01683901 0.38000000 -0.48220607
v 0.04145896 0.38000000 -0.53880731
v 0.06669186 0.38000000 -0.59457135
v 0.14068553 0.38000000 -0.58152427
v 0.14532427 0.38000000 -0.52049305
v 0.14910070 0.38000000 -0.45888477
v 0.16502472 0.38000000 -0.45340169
v 0.18074768 0.38000000 -0.44736621
v 0.22324163 0.38000000 -0.49213345
v 0.26602523 0.38000000 -0.53590435
v 0.33109416 0.38000000 -0.49833678
v 0.31457925 0.38000000 -0.43939965
v 0.29705666 0.38000000 -0.38021519
v 0.31014502 0.38000000 -0.36961644
v 0.32285552 0.38000000 -0.35856738
v 0.37809807 0.38000000 -0.38610104
v 0.43327202 0.38000000 -0.41259937
v 0.48156796 0.38000000 -0.35504252
v 0.44589133 0.38000000 -0.30530817
v 0.40918321 0.38000000 -0.25568604
v 0.41785726 0.38000000 -0.24125000
v 0.42602221 0.38000000 -0.22652003
v 0.48735030 0.38000000 -0.23349914
v 0.54825982 0.38000000 -0.23952883
v 0.57395755 0.38000000 -0.16892489
v 0.52342234 0.38000000 -0.13439202
v 0.47195622 0.38000000 -0.10031739
v 0.47516974 0.38000000 -0.08378525
v 0.47780434 0.38000000 -0.06715102
v 0.53782089 0.38000000 -0.05273380
v 0.59711939 0.38000000 -0.03756757
v 0.59711939 0.38000000 0.03756757
v 0.53782089 0.38000000 0.05273380
v 0.47780434 0.38000000 0.06715102
v 0.00000000 -0.38000000 0.00000000
v 0.00000000 0.38000000 0.00000000
f 1 127 128
f 1 128 2
f 2 128 129
f 2 129 3
f 3 129 130
f 3 130 4
f 4 130 131
f 4 131 5
f 5 131 132
f 5 132 6
f 6 132 133
f 6 133 7
f 7 133 134
f 7 134 8
f 8 134 135
f 8 135 9
f 9 135 136
f 9 136 10
f 10 136 137
f 10 137 11
f 11 137 138
f 11 138 12
f 12 138 139
f 12 139 13
f 13 139 140
f 13 140 14
f 14 140 141
f 14 141 15
f 15 141 142
f 15 142 16
f 16 142 143
f 16 143 17
f 17 143 144
f 17 144 18
f 18 144 145
f 18 145 19
f 19 145 146
f 19 146 20
f 20 146 147
f 20 147 21
f 21 147 148
f 21 148 22
f 22 148 149
f 22 149 23
f 23 149 150
f 23 150 24
f 24 150 151
f 24 151 25
f 25 151 152
f 25 152 26
f 26 152 153
f 26 153 27
f 27 153 154
f 27 154 28
f 28 154 155
f 28 155 29
f 29 155 156
f 29 156 30
f 30 156 157
f 30 157 31
f 31 157 158
f 31 158 32
f 32 158 159
f 32 159 33
f 33 159 160
f 33 160 34
f 34 160 161
f 34 161 35
f 35 161 162
f 35 162 36
f 36 162 163
f 36 163 37
f 37 163 164
f 37 164 38
f 38 164 165
f 38 165 39
f 39 165 166
f 39 166 40
f 40 166 167
f 40 167 41
f 41 167 168
f 41 168 42
f 42 168 169
f 42 169 43
f 43 169 170
f 43 170 44
f 44 170 171
f 44 171 45
f 45 171 172
f 45 172 46
f 46 172 173
f 46 173 47
f 47 173 174
f 47 174 48
f 48 174 175
f 48 175 49
f 49 175 176
f 49 176 50
f 50 176 177
f 50 177 51
f 51 177 178
f 51 178 52
f 52 178 179
f 52 179 53
f 53 179 180
f 53 180 54
f 54 180 181
f 54 181 55
f 55 181 182
f 55 182 56
f 56 182 183
f 56 183 57
f 57 183 184
f 57 184 58
f 58 184 185
f 58 185 59
f 59 185 186
f 59 186 60
f 60 186 187
f 60 187 61
f 61 187 188
f 61 188 62
f 62 188 189
f 62 189 63
f 63 189 190
f 63 190 64
f 64 190 191
f 64 191 65
f 65 191 192
f 65 192 66
f 66 192 193
f 66 193 67
f 67 193 194
f 67 194 68
f 68 194 195
f 68 195 69
f 69 195 196
f 69 196 70
f 70 196 197
f 70 197 71
f 71 197 198
f 71 198 72
f 72 198 199
f 72 199 73
f 73 199 200
f 73 200 74
f 74 200 201
f 74 201 75
f 75 201 202
f 75 202 76
f 76 202 203
f 76 203 77
f 77 203 204
f 77 204 78
f 78 204 205
f 78 205 79
f 79 205 206
f 79 206 80
f 80 206 207
f 80 207 81
f 81 207 208
f 81 208 82
f 82 208 209
f 82 209 83
f 83 209 210
f 83 210 84
f 84 210 211
f 84 211 85
f 85 211 212
f 85 212 86
f 86 212 213
f 86 213 87
f 87 213 214
f 87 214 88
f 88 214 215
f 88 215 89
f 89 215 216
f 89 216 90
f 90 216 217
f 90 217 91
f 91 217 218
f 91 218 92
f 92 218 219
f 92 219 93
f 93 219 220
f 93 220 94
f 94 220 221
f 94 221 95
f 95 221 222
f 95 222 96
f 96 222 223
f 96 223 97
f 97 223 224
f 97 224 98
f 98 224 225
f 98 225 99
f 99 225 226
f 99 226 100
f 100 226 227
f 100 227 101
f 101 227 228
f 101 228 102
f 102 228 229
f 102 229 103
f 103 229 230
f 103 230 104
f 104 230 231
f 104 231 105
f 105 231 232
f 105 232 106
f 106 232 233
f 106 233 107
f 107 233 234
f 107 234 108
f 108 234 235
f 108 235 109
f 109 235 236
f 109 236 110
f 110 236 237
f 110 237 111
f 111 237 238
f 111 238 112
f 112 238 239
f 112 239 113
f 113 239 240
f 113 240 114
f 114 240 241
f 114 241 115
f 115 241 242
f 115 242 116
f 116 242 243
f 116 243 117
f 117 243 244
f 117 244 118
f 118 244 245
f 118 245 119
f 119 245 246
f 119 246 120
f 120 246 247
f 120 247 121
f 121 247 248
f 121 248 122
f 122 248 249
f 122 249 123
f 123 249 250
f 123 250 124
f 124 250 251
f 124 251 125
f 125 251 252
f 125 252 126
f 126 252 127
f 126 127 1
f 127 253 254
f 127 254 128
f 128 254 255
f 128 255 129
f 129 255 256
f 129 256 130
f 130 256 257
f 130 257 131
f 131 257 258
f 131 258 132
f 132 258 259
f 132 259 133
f 133 259 260
f 133 260 134
f 134 260 261
f 134 261 135
f 135 261 262
f 135 262 136
f 136 262 263
f 136 263 137
f 137 263 264
f 137 264 138
f 138 264 265
f 138 265 139
f 139 265 266
f 139 266 140
f 140 266 267
f 140 267 141
f 141 267 268
f 141 268 142
f 142 268 269
f 142 269 143
f 143 269 270
f 143 270 144
f 144 270 271
f 144 271 145
f 145 271 272
f 145 272 146
f 146 272 273
f 146 273 147
f 147 273 274
f 147 274 148
f 148 274 275
f 148 275 149
f 149 275 276
f 149 276 150
f 150 276 277
f 150 277 151
f 151 277 278
f 151 278 152
f 152 278 279
f 152 279 153
f 153 279 280
f 153 280 154
f 154 280 281
f 154 281 155
f 155 281 282
f 155 282 156
f 156 282 283
f 156 283 157
f 157 283 284
f 157 284 158
f 158 284 285
f 158 285 159
f 159 285 286
f 159 286 160
f 160 286 287
f 160 287 161
f 161 287 288
f 161 288 162
f 162 288 289
f 162 289 163
f 163 289 290
f 163 290 164
f 164 290 291
f 164 291 165
f 165 291 292
f 165 292 166
f 166 292 293
f 166 293 167
f 167 293 294
f 167 294 168
f 168 294 295
f 168 295 169
f 169 295 296
f 169 296 170
f 170 296 297
f 170 297 171
f 171 297 298
f 171 298 172
f 172 298 299
f 172 299 173
f 173 299 300
f 173 300 174
f 174 300 301
f 174 301 175
f 175 301 302
f 175 302 176
f 176 302 303
f 176 303 177
f 177 303 304
f 177 304 178
f 178 304 305
f 178 305 179
f 179 305 306
f 179 306 180
f 180 306 307
f 180 307 181
f 181 307 308
f 181 308 182
f 182 308 309
f 182 309 183
f 183 309 310
f 183 310 184
f 184 310 311
f 184 311 185
f 185 311 312
f 185 312 186
f 186 312 313
f 186 313 187
f 187 313 314
f 187 314 188
f 188 314 315
f 188 315 189
f 189 315 316
f 189 316 190
f 190 316 317
f 190 317 191
f 191 317 318
f 191 318 192
f 192 318 319
f 192 319 193
f 193 319 320
f 193 320 194
f 194 320 321
f 194 321 195
f 195 321 322
f 195 322 196
f 196 322 323
f 196 323 197
f 197 323 324
f 197 324 198
f 198 324 325
f 198 325 199
f 199 325 326
f 199 326 200
f 200 326 327
f 200 327 201
f 201 327 328
f 201 328 202
f 202 328 329
f 202 329 203
f 203 329 330
f 203 330 204
f 204 330 331
f 204 331 205
f 205 331 332
f 205 332 206
f 206 332 333
f 206 333 207
f 207 333 334
f 207 334 208
f 208 334 335
f 208 335 209
f 209 335 336
f 209 336 210
f 210 336 337
f 210 337 211
f 211 337 338
f 211 338 212
f 212 338 339
f 212 339 213
f 213 339 340
f 213 340 214
f 214 340 341
f 214 341 215
f 215 341 342
f 215 342 216
f 216 342 343
f 216 343 217
f 217 343 344
f 217 344 218
f 218 344 345
f 218 345 219
f 219 345 346
f 219 346 220
f 220 346 347
f 220 347 221
f 221 347 348
f 221 348 222
f 222 348 349
f 222 349 223
f 223 349 350
f 223 350 224
f 224 350 351
f 224 351 225
f 225 351 352
f 225 352 226
f 226 352 353
f 226 353 227
f 227 353 354
f 227 354 228
f 228 354 355
f 228 355 229
f 229 355 356
f 229 356 230
f 230 356 357
f 230 357 231
f 231 357 358
f 231 358 232
f 232 358 359
f 232 359 233
f 233 359 360
f 233 360 234
f 234 360 361
f 234 361 235
f 235 361 362
f 235 362 236
f 236 362 363
f 236 363 237
f 237 363 364
f 237 364 238
f 238 364 365
f 238 365 239
f 239 365 366
f 239 366 240
f 240 366 367
f 240 367 241
f 241 367 368
f 241 368 242
f 242 368 369
f 242 369 243
f 243 369 370
f 243 370 244
f 244 370 371
f 244 371 245
f 245 371 372
f 245 372 246
f 246 372 373
f 246 373 247
f 247 373 374
f 247 374 248
f 248 374 375
f 248 375 249
f 249 375 376
f 249 376 250
f 250 376 377
f 250 377 251
f 251 377 378
f 251 378 252
f 252 378 253
f 252 253 127
f 253 379 380
f 253 380 254
f 254 380 381
f 254 381 255
f 255 381 382
f 255 382 256
f 256 382 383
f 256 383 257
f 257 383 384
f 257 384 258
f 258 384 385
f 258 385 259
f 259 385 386
f 259 386 260
f 260 386 387
f 260 387 261
f 261 387 388
f 261 388 262
f 262 388 389
f 262 389 263
f 263 389 390
f 263 390 264
f 264 390 391
f 264 391 265
f 265 391 392
f 265 392 266
f 266 392 393
f 266 393 267
f 267 393 394
f 267 394 268
f 268 394 395
f 268 395 269
f 269 395 396
f 269 396 270
f 270 396 397
f 270 397 271
f 271 397 398
f 271 398 272
f 272 398 399
f 272 399 273
f 273 399 400
f 273 400 274
f 274 400 401
f 274 401 275
f 275 401 402
f 275 402 276
f 276 402 403
f 276 403 277
f 277 403 404
f 277 404 278
f 278 404 405
f 278 405 279
f 279 405 406
f 279 406 280
f 280 406 407
f 280 407 281
f 281 407 408
f 281 408 282
f 282 408 409
f 282 409 283
f 283 409 410
f 283 410 284
f 284 410 411
f 284 411 285
f 285 411 412
f 285 412 286
f 286 412 413
f 286 413 287
f 287 413 414
f 287 414 288
f 288 414 415
f 288 415 289
f 289 415 416
f 289 416 290
f 290 416 417
f 290 417 291
f 291 417 418
f 291 418 292
f 292 418 419
f 292 419 293
f 293 419 420
f 293 420 294
f 294 420 421
f 294 421 295
f 295 421 422
f 295 422 296
f 296 422 423
f 296 423 297
f 297 423 424
f 297 424 298
f 298 424 425
f 298 425 299
f 299 425 426
f 299 426 300
f 300 426 427
f 300 427 301
f 301 427 428
f 301 428 302
f 302 428 429
f 302 429 303
f 303 429 430
f 303 430 304
f 304 430 431
f 304 431 305
f 305 431 432
f 305 432 306
f 306 432 433
f 306 433 307
f 307 433 434
f 307 434 308
f 308 434 435
f 308 435 309
f 309 435 436
f 309 436 310
f 310 436 437
f 310 437 311
f 311 437 438
f 311 438 312
f 312 438 439
f 312 439 313
f 313 439 440
f 313 440 314
f 314 440 441
f 314 441 315
f 315 441 442
f 315 442 316
f 316 442 443
f 316 443 317
f 317 443 444
f 317 444 318
f 318 444 445
f 318 445 319
f 319 445 446
f 319 446 320
f 320 446 447
f 320 447 321
f 321 447 448
f 321 448 322
f 322 448 449
f 322 449 323
f 323 449 450
f 323 450 324
f 324 450 451
f 324 451 325
f 325 451 452
f 325 452 326
f 326 452 453
f 326 453 327
f 327 453 454
f 327 454 328
f 328 454 455
f 328 455 329
f 329 455 456
f 329 456 330
f 330 456 457
f 330 457 331
f 331 457 458
f 331 458 332
f 332 458 459
f 332 459 333
f 333 459 460
f 333 460 334
f 334 460 461
f 334 461 335
f 335 461 462
f 335 462 336
f 336 462 463
f 336 463 337
f 337 463 464
f 337 464 338
f 338 464 465
f 338 465 339
f 339 465 466
f 339 466 340
f 340 466 467
f 340 467 341
f 341 467 468
f 341 468 342
f 342 468 469
f 342 469 343
f 343 469 470
f 343 470 344
f 344 470 471
f 344 471 345
f 345 471 472
f 345 472 346
f 346 472 473
f 346 473 347
f 347 473 474
f 347 474 348
f 348 474 475
f 348 475 349
f 349 475 476
f 349 476 350
f 350 476 477
f 350 477 351
f 351 477 478
f 351 478 352
f 352 478 479
f 352 479 353
f 353 479 480
f 353 480 354
f 354 480 481
f 354 481 355
f 355 481 482
f 355 482 356
f 356 482 483
f 356 483 357
f 357 483 484
f 357 484 358
f 358 484 485
f 358 485 359
f 359 485 486
f 359 486 360
f 360 486 487
f 360 487 361
f 361 487 488
f 361 488 362
f 362 488 489
f 362 489 363
f 363 489 490
f 363 490 364
f 364 490 491
f 364 491 365
f 365 491 492
f 365 492 366
f 366 492 493
f 366 493 367
f 367 493 494
f 367 494 368
f 368 494 495
f 368 495 369
f 369 495 496
f 369 496 370
f 370 496 497
f 370 497 371
f 371 497 498
f 371 498 372
f 372 498 499
f 372 499 373
f 373 499 500
f 373 500 374
f 374 500 501
f 374 501 375
f 375 501 502
f 375 502 376
f 376 502 503
f 376 503 377
f 377 503 504
f 377 504 378
f 378 504 379
f 378 379 253
f 1 2 505
f 380 379 506
f 2 3 505
f 381 380 506
f 3 4 505
f 382 381 506
f 4 5 505
f 383 382 506
f 5 6 505
f 384 383 506
f 6 7 505
f 385 384 506
f 7 8 505
f 386 385 506
f 8 9 505
f 387 386 506
f 9 10 505
f 388 387 506
f 10 11 505
f 389 388 506
f 11 12 505
f 390 389 506
f 12 13 505
f 391 390 506
f 13 14 505
f 392 391 506
f 14 15 505
f 393 392 506
f 15 16 505
f 394 393 506
f 16 17 505
f 395 394 506
f 17 18 505
f 396 395 506
f 18 19 505
f 397 396 506
f 19 20 505
f 398 397 506
f 20 21 505
f 399 398 506
f 21 22 505
f 400 399 506
f 22 23 505
f 401 400 506
f 23 24 505
f 402 401 506
f 24 25 505
f 403 402 506
f 25 26 505
f 404 403 506
f 26 27 505
f 405 404 506
f 27 28 505
f 406 405 506
f 28 29 505
f 407 406 506
f 29 30 505
f 408 407 506
f 30 31 505
f 409 408 506
f 31 32 505
f 410 409 506
f 32 33 505
f 411 410 506
f 33 34 505
f 412 411 506
f 34 35 505
f 413 412 506
f 35 36 505
f 414 413 506
f 36 37 505
f 415 414 506
f 37 38 505
f 416 415 506
f 38 39 505
f 417 416 506
f 39 40 505
f 418 417 506
f 40 41 505
f 419 418 506
f 41 42 505
f 420 419 506
f 42 43 505
f 421 420 506
f 43 44 505
f 422 421 506
f 44 45 505
f 423 422 506
f 45 46 505
f 424 423 506
f 46 47 505
f 425 424 506
f 47 48 505
f 426 425 506
f 48 49 505
f 427 426 506
f 49 50 505
f 428 427 506
f 50 51 505
f 429 428 506
f 51 52 505
f 430 429 506
f 52 53 505
f 431 430 506
f 53 54 505
f 432 431 506
f 54 55 505
f 433 432 506
f 55 56 505
f 434 433 506
f 56 57 505
f 435 434 506
f 57 58 505
f 436 435 506
f 58 59 505
f 437 436 506
f 59 60 505
f 438 437 506
f 60 61 505
f 439 438 506
f 61 62 505
f 440 439 506
f 62 63 505
f 441 440 506
f 63 64 505
f 442 441 506
f 64 65 505
f 443 442 506
f 65 66 505
f 444 443 506
f 66 67 505
f 445 444 506
f 67 68 505
f 446 445 506
f 68 69 505
f 447 446 506
f 69 70 505
f 448 447 506
f 70 71 505
f 449 448 506
f 71 72 505
f 450 449 506
f 72 73 505
f 451 450 506
f 73 74 505
f 452 451 506
f 74 75 505
f 453 452 506
f 75 76 505
f 454 453 506
f 76 77 505
f 455 454 506
f 77 78 505
f 456 455 506
f 78 79 505
f 457 456 506
f 79 80 505
f 458 457 506
f 80 81 505
f 459 458 506
f 81 82 505
f 460 459 506
f 82 83 505
f 461 460 506
f 83 84 505
f 462 461 506
f 84 85 505
f 463 462 506
f 85 86 505
f 464 463 506
f 86 87 505
f 465 464 506
f 87 88 505
f 466 465 506
f 88 89 505
f 467 466 506
f 89 90 505
f 468 467 506
f 90 91 505
f 469 468 506
f 91 92 505
f 470 469 506
f 92 93 505
f 471 470 506
f 93 94 505
f 472 471 506
f 94 95 505
f 473 472 506
f 95 96 505
f 474 473 506
f 96 97 505
f 475 474 506
f 97 98 505
f 476 475 506
f 98 99 505
f 477 476 506
f 99 100 505
f 478 477 506
f 100 101 505
f 479 478 506
f 101 102 505
f 480 479 506
f 102 103 505
f 481 480 506
f 103 104 505
f 482 481 506
f 104 105 505
f 483 482 506
f 105 106 505
f 484 483 506
f 106 107 505
f 485 484 506
f 107 108 505
f 486 485 506
f 108 109 505
f 487 486 506
f 109 110 505
f 488 487 506
f 110 111 505
f 489 488 506
f 111 112 505
f 490 489 506
f 112 113 505
f 491 490 506
f 113 114 505
f 492 491 506
f 114 115 505
f 493 492 506
f 115 116 505
f 494 493 506
f 116 117 505
f 495 494 506
f 117 118 505
f 496 495 506
f 118 119 505
f 497 496 506
f 119 120 505
f 498 497 506
f 120 121 505
f 499 498 506
f 121 122 505
f 500 499 506
f 122 123 505
f 501 500 506
f 123 124 505
f 502 501 506
f 124 125 505
f 503 502 506
f 125 126 505
f 504 503 506
f 126 1 505
f 379 504 506

