# Handle-free W1 paper shell, meters
o W1_paper_bag_no_handles
v -0.0649999976 -0.159999996 0
v -0.0649999976 -0.143999994 0
v -0.0649999976 -0.128000006 0
v -0.0649999976 -0.112000003 0
v -0.0649999976 -0.0960000008 0
v -0.0649999976 -0.0799999982 0
v -0.0649999976 -0.064000003 0
v -0.0649999976 -0.0480000004 0
v -0.0649999976 -0.0320000015 0
v -0.0649999976 -0.0160000008 0
v -0.0649999976 0 0
v -0.0649999976 0.0160000008 0
v -0.0649999976 0.0320000015 0
v -0.0649999976 0.0480000004 0
v -0.0649999976 0.064000003 0
v -0.0649999976 0.0799999982 0
v -0.0649999976 0.0960000008 0
v -0.0649999976 0.112000003 0
v -0.0649999976 0.128000006 0
v -0.0649999976 0.143999994 0
v -0.0649999976 0.159999996 0
v -0.0487499982 -0.159999996 0
v -0.0487499982 -0.143999994 0
v -0.0487499982 -0.128000006 0
v -0.0487499982 -0.112000003 0
v -0.0487499982 -0.0960000008 0
v -0.0487499982 -0.0799999982 0
v -0.0487499982 -0.064000003 0
v -0.0487499982 -0.0480000004 0
v -0.0487499982 -0.0320000015 0
v -0.0487499982 -0.0160000008 0
v -0.0487499982 0 0
v -0.0487499982 0.0160000008 0
v -0.0487499982 0.0320000015 0
v -0.0487499982 0.0480000004 0
v -0.0487499982 0.064000003 0
v -0.0487499982 0.0799999982 0
v -0.0487499982 0.0960000008 0
v -0.0487499982 0.112000003 0
v -0.0487499982 0.128000006 0
v -0.0487499982 0.143999994 0
v -0.0487499982 0.159999996 0
v -0.0324999988 -0.159999996 0
v -0.0324999988 -0.143999994 0
v -0.0324999988 -0.128000006 0
v -0.0324999988 -0.112000003 0
v -0.0324999988 -0.0960000008 0
v -0.0324999988 -0.0799999982 0
v -0.0324999988 -0.064000003 0
v -0.0324999988 -0.0480000004 0
v -0.0324999988 -0.0320000015 0
v -0.0324999988 -0.0160000008 0
v -0.0324999988 0 0
v -0.0324999988 0.0160000008 0
v -0.0324999988 0.0320000015 0
v -0.0324999988 0.0480000004 0
v -0.0324999988 0.064000003 0
v -0.0324999988 0.0799999982 0
v -0.0324999988 0.0960000008 0
v -0.0324999988 0.112000003 0
v -0.0324999988 0.128000006 0
v -0.0324999988 0.143999994 0
v -0.0324999988 0.159999996 0
v -0.0162499994 -0.159999996 0
v -0.0162499994 -0.143999994 0
v -0.0162499994 -0.128000006 0
v -0.0162499994 -0.112000003 0
v -0.0162499994 -0.0960000008 0
v -0.0162499994 -0.0799999982 0
v -0.0162499994 -0.064000003 0
v -0.0162499994 -0.0480000004 0
v -0.0162499994 -0.0320000015 0
v -0.0162499994 -0.0160000008 0
v -0.0162499994 0 0
v -0.0162499994 0.0160000008 0
v -0.0162499994 0.0320000015 0
v -0.0162499994 0.0480000004 0
v -0.0162499994 0.064000003 0
v -0.0162499994 0.0799999982 0
v -0.0162499994 0.0960000008 0
v -0.0162499994 0.112000003 0
v -0.0162499994 0.128000006 0
v -0.0162499994 0.143999994 0
v -0.0162499994 0.159999996 0
v 0 -0.159999996 0
v 0 -0.143999994 0
v 0 -0.128000006 0
v 0 -0.112000003 0
v 0 -0.0960000008 0
v 0 -0.0799999982 0
v 0 -0.064000003 0
v 0 -0.0480000004 0
v 0 -0.0320000015 0
v 0 -0.0160000008 0
v 0 0 0
v 0 0.0160000008 0
v 0 0.0320000015 0
v 0 0.0480000004 0
v 0 0.064000003 0
v 0 0.0799999982 0
v 0 0.0960000008 0
v 0 0.112000003 0
v 0 0.128000006 0
v 0 0.143999994 0
v 0 0.159999996 0
v 0.0162499994 -0.159999996 0
v 0.0162499994 -0.143999994 0
v 0.0162499994 -0.128000006 0
v 0.0162499994 -0.112000003 0
v 0.0162499994 -0.0960000008 0
v 0.0162499994 -0.0799999982 0
v 0.0162499994 -0.064000003 0
v 0.0162499994 -0.0480000004 0
v 0.0162499994 -0.0320000015 0
v 0.0162499994 -0.0160000008 0
v 0.0162499994 0 0
v 0.0162499994 0.0160000008 0
v 0.0162499994 0.0320000015 0
v 0.0162499994 0.0480000004 0
v 0.0162499994 0.064000003 0
v 0.0162499994 0.0799999982 0
v 0.0162499994 0.0960000008 0
v 0.0162499994 0.112000003 0
v 0.0162499994 0.128000006 0
v 0.0162499994 0.143999994 0
v 0.0162499994 0.159999996 0
v 0.0324999988 -0.159999996 0
v 0.0324999988 -0.143999994 0
v 0.0324999988 -0.128000006 0
v 0.0324999988 -0.112000003 0
v 0.0324999988 -0.0960000008 0
v 0.0324999988 -0.0799999982 0
v 0.0324999988 -0.064000003 0
v 0.0324999988 -0.0480000004 0
v 0.0324999988 -0.0320000015 0
v 0.0324999988 -0.0160000008 0
v 0.0324999988 0 0
v 0.0324999988 0.0160000008 0
v 0.0324999988 0.0320000015 0
v 0.0324999988 0.0480000004 0
v 0.0324999988 0.064000003 0
v 0.0324999988 0.0799999982 0
v 0.0324999988 0.0960000008 0
v 0.0324999988 0.112000003 0
v 0.0324999988 0.128000006 0
v 0.0324999988 0.143999994 0
v 0.0324999988 0.159999996 0
v 0.0487499982 -0.159999996 0
v 0.0487499982 -0.143999994 0
v 0.0487499982 -0.128000006 0
v 0.0487499982 -0.112000003 0
v 0.0487499982 -0.0960000008 0
v 0.0487499982 -0.0799999982 0
v 0.0487499982 -0.064000003 0
v 0.0487499982 -0.0480000004 0
v 0.0487499982 -0.0320000015 0
v 0.0487499982 -0.0160000008 0
v 0.0487499982 0 0
v 0.0487499982 0.0160000008 0
v 0.0487499982 0.0320000015 0
v 0.0487499982 0.0480000004 0
v 0.0487499982 0.064000003 0
v 0.0487499982 0.0799999982 0
v 0.0487499982 0.0960000008 0
v 0.0487499982 0.112000003 0
v 0.0487499982 0.128000006 0
v 0.0487499982 0.143999994 0
v 0.0487499982 0.159999996 0
v 0.0649999976 -0.159999996 0
v 0.0649999976 -0.143999994 0
v 0.0649999976 -0.128000006 0
v 0.0649999976 -0.112000003 0
v 0.0649999976 -0.0960000008 0
v 0.0649999976 -0.0799999982 0
v 0.0649999976 -0.064000003 0
v 0.0649999976 -0.0480000004 0
v 0.0649999976 -0.0320000015 0
v 0.0649999976 -0.0160000008 0
v 0.0649999976 0 0
v 0.0649999976 0.0160000008 0
v 0.0649999976 0.0320000015 0
v 0.0649999976 0.0480000004 0
v 0.0649999976 0.064000003 0
v 0.0649999976 0.0799999982 0
v 0.0649999976 0.0960000008 0
v 0.0649999976 0.112000003 0
v 0.0649999976 0.128000006 0
v 0.0649999976 0.143999994 0
v 0.0649999976 0.159999996 0
v -0.0651248768 -0.159999996 0.013888889
v -0.0652583316 -0.143999994 0.013888889
v -0.0651788116 -0.128000006 0.013888889
v -0.0650481284 -0.112000003 0.013888889
v -0.0652353838 -0.0960000008 0.013888889
v -0.0652285889 -0.0799999982 0.013888889
v -0.0650333315 -0.064000003 0.013888889
v -0.0651893988 -0.0480000004 0.013888889
v -0.0652559847 -0.0320000015 0.013888889
v -0.0651115254 -0.0160000008 0.013888889
v -0.0651248768 0 0.013888889
v -0.0652583316 0.0160000008 0.013888889
v -0.0651788116 0.0320000015 0.013888889
v -0.0650481284 0.0480000004 0.013888889
v -0.0652353838 0.064000003 0.013888889
v -0.0652285889 0.0799999982 0.013888889
v -0.0650333315 0.0960000008 0.013888889
v -0.0651893988 0.112000003 0.013888889
v -0.0652559847 0.128000006 0.013888889
v -0.0651115254 0.143999994 0.013888889
v -0.0651248768 0.159999996 0.013888889
v -0.0652459562 -0.159999996 0.027777778
v -0.0651177242 -0.143999994 0.027777778
v -0.0645796433 -0.128000006 0.027777778
v -0.0639598146 -0.112000003 0.027777778
v -0.0639941618 -0.0960000008 0.027777778
v -0.0636824593 -0.0799999982 0.027777778
v -0.0630431101 -0.064000003 0.027777778
v -0.0631455332 -0.0480000004 0.027777778
v -0.0631265566 -0.0320000015 0.027777778
v -0.0627504513 -0.0160000008 0.027777778
v -0.0627459586 0 0.027777778
v -0.0630395934 0.0160000008 0.027777778
v -0.0629745424 0.0320000015 0.027777778
v -0.0628672764 0.0480000004 0.027777778
v -0.0634410828 0.064000003 0.027777778
v -0.0636824593 0.0799999982 0.027777778
v -0.063596189 0.0960000008 0.027777778
v -0.0642380714 0.112000003 0.027777778
v -0.0647316575 0.128000006 0.027777778
v -0.0648285821 0.143999994 0.027777778
v -0.0652459562 0.159999996 0.027777778
v -0.0653595701 -0.159999996 0.0416666679
v -0.0657438338 -0.143999994 0.0416666679
v -0.0655148625 -0.128000006 0.0416666679
v -0.0651385784 -0.112000003 0.0416666679
v -0.0656777695 -0.0960000008 0.0416666679
v -0.0656581894 -0.0799999982 0.0416666679
v -0.065095976 -0.064000003 0.0416666679
v -0.0655453652 -0.0480000004 0.0416666679
v -0.0657370836 -0.0320000015 0.0416666679
v -0.0653211325 -0.0160000008 0.0416666679
v -0.0653595701 0 0.0416666679
v -0.0657438338 0.0160000008 0.0416666679
v -0.0655148625 0.0320000015 0.0416666679
v -0.0651385784 0.0480000004 0.0416666679
v -0.0656777695 0.064000003 0.0416666679
v -0.0656581894 0.0799999982 0.0416666679
v -0.065095976 0.0960000008 0.0416666679
v -0.0655453652 0.112000003 0.0416666679
v -0.0657370836 0.128000006 0.0416666679
v -0.0653211325 0.143999994 0.0416666679
v -0.0653595701 0.159999996 0.0416666679
v -0.065462254 -0.159999996 0.055555556
v -0.0659562573 -0.143999994 0.055555556
v -0.0656618923 -0.128000006 0.055555556
v -0.0651781559 -0.112000003 0.055555556
v -0.0658713281 -0.0960000008 0.055555556
v -0.0658461452 -0.0799999982 0.055555556
v -0.0651233867 -0.064000003 0.055555556
v -0.0657011047 -0.0480000004 0.055555556
v -0.0659475774 -0.0320000015 0.055555556
v -0.0654128417 -0.0160000008 0.055555556
v -0.065462254 0 0.055555556
v -0.0659562573 0.0160000008 0.055555556
v -0.0656618923 0.0320000015 0.055555556
v -0.0651781559 0.0480000004 0.055555556
v -0.0658713281 0.064000003 0.055555556
v -0.0658461452 0.0799999982 0.055555556
v -0.0651233867 0.0960000008 0.055555556
v -0.0657011047 0.112000003 0.055555556
v -0.0659475774 0.128000006 0.055555556
v -0.0654128417 0.143999994 0.055555556
v -0.065462254 0.159999996 0.055555556
v -0.0655508935 -0.159999996 0.0694444478
v -0.0661396161 -0.143999994 0.0694444478
v -0.0657888129 -0.128000006 0.0694444478
v -0.0652123168 -0.112000003 0.0694444478
v -0.0660384074 -0.0960000008 0.0694444478
v -0.0660084039 -0.0799999982 0.0694444478
v -0.0651470423 -0.064000003 0.0694444478
v -0.065835543 -0.0480000004 0.0694444478
v -0.0661292821 -0.0320000015 0.0694444478
v -0.0654920042 -0.0160000008 0.0694444478
v -0.0655508935 0 0.0694444478
v -0.0661396161 0.0160000008 0.0694444478
v -0.0657888129 0.0320000015 0.0694444478
v -0.0652123168 0.0480000004 0.0694444478
v -0.0660384074 0.064000003 0.0694444478
v -0.0660084039 0.0799999982 0.0694444478
v -0.0651470423 0.0960000008 0.0694444478
v -0.065835543 0.112000003 0.0694444478
v -0.0661292821 0.128000006 0.0694444478
v -0.0654920042 0.143999994 0.0694444478
v -0.0655508935 0.159999996 0.0694444478
v -0.0656227916 -0.159999996 0.0833333358
v -0.0662883595 -0.143999994 0.0833333358
v -0.0658917651 -0.128000006 0.0833333358
v -0.0652400255 -0.112000003 0.0833333358
v -0.0661739334 -0.0960000008 0.0833333358
v -0.066140011 -0.0799999982 0.0833333358
v -0.065166235 -0.064000003 0.0833333358
v -0.0659445971 -0.0480000004 0.0833333358
v -0.0662766695 -0.0320000015 0.0833333358
v -0.0655562207 -0.0160000008 0.0833333358
v -0.0656227916 0 0.0833333358
v -0.0662883595 0.0160000008 0.0833333358
v -0.0658917651 0.0320000015 0.0833333358
v -0.0652400255 0.0480000004 0.0833333358
v -0.0661739334 0.064000003 0.0833333358
v -0.066140011 0.0799999982 0.0833333358
v -0.065166235 0.0960000008 0.0833333358
v -0.0659445971 0.112000003 0.0833333358
v -0.0662766695 0.128000006 0.0833333358
v -0.0655562207 0.143999994 0.0833333358
v -0.0656227916 0.159999996 0.0833333358
v -0.0656757653 -0.159999996 0.0972222239
v -0.0663979501 -0.143999994 0.0972222239
v -0.0659676194 -0.128000006 0.0972222239
v -0.0652604476 -0.112000003 0.0972222239
v -0.0662737936 -0.0960000008 0.0972222239
v -0.0662369877 -0.0799999982 0.0972222239
v -0.0651803762 -0.064000003 0.0972222239
v -0.0660249442 -0.0480000004 0.0972222239
v -0.0663852692 -0.0320000015 0.0972222239
v -0.0656035393 -0.0160000008 0.0972222239
v -0.0656757653 0 0.0972222239
v -0.0663979501 0.0160000008 0.0972222239
v -0.0659676194 0.0320000015 0.0972222239
v -0.0652604476 0.0480000004 0.0972222239
v -0.0662737936 0.064000003 0.0972222239
v -0.0662369877 0.0799999982 0.0972222239
v -0.0651803762 0.0960000008 0.0972222239
v -0.0660249442 0.112000003 0.0972222239
v -0.0663852692 0.128000006 0.0972222239
v -0.0656035393 0.143999994 0.0972222239
v -0.0656757653 0.159999996 0.0972222239
v -0.0657082126 -0.159999996 0.111111112
v -0.0664650649 -0.143999994 0.111111112
v -0.0660140738 -0.128000006 0.111111112
v -0.0652729496 -0.112000003 0.111111112
v -0.0663349479 -0.0960000008 0.111111112
v -0.0662963763 -0.0799999982 0.111111112
v -0.0651890337 -0.064000003 0.111111112
v -0.0660741553 -0.0480000004 0.111111112
v -0.066451773 -0.0320000015 0.111111112
v -0.0656325147 -0.0160000008 0.111111112
v -0.0657082126 0 0.111111112
v -0.0664650649 0.0160000008 0.111111112
v -0.0660140738 0.0320000015 0.111111112
v -0.0652729496 0.0480000004 0.111111112
v -0.0663349479 0.064000003 0.111111112
v -0.0662963763 0.0799999982 0.111111112
v -0.0651890337 0.0960000008 0.111111112
v -0.0660741553 0.112000003 0.111111112
v -0.066451773 0.128000006 0.111111112
v -0.0656325147 0.143999994 0.111111112
v -0.0657082126 0.159999996 0.111111112
v -0.0657191351 -0.159999996 0.125
v -0.0664876699 -0.143999994 0.125
v -0.06602972 -0.128000006 0.125
v -0.0652771592 -0.112000003 0.125
v -0.0663555413 -0.0960000008 0.125
v -0.0663163736 -0.0799999982 0.125
v -0.0651919469 -0.064000003 0.125
v -0.0660907254 -0.0480000004 0.125
v -0.0664741695 -0.0320000015 0.125
v -0.0656422675 -0.0160000008 0.125
v -0.0657191351 0 0.125
v -0.0664876699 0.0160000008 0.125
v -0.06602972 0.0320000015 0.125
v -0.0652771592 0.0480000004 0.125
v -0.0663555413 0.064000003 0.125
v -0.0663163736 0.0799999982 0.125
v -0.0651919469 0.0960000008 0.125
v -0.0660907254 0.112000003 0.125
v -0.0664741695 0.128000006 0.125
v -0.0656422675 0.143999994 0.125
v -0.0657191351 0.159999996 0.125
v -0.0657082126 -0.159999996 0.138888896
v -0.0664650649 -0.143999994 0.138888896
v -0.0660140738 -0.128000006 0.138888896
v -0.0652729496 -0.112000003 0.138888896
v -0.0663349479 -0.0960000008 0.138888896
v -0.0662963763 -0.0799999982 0.138888896
v -0.0651890337 -0.064000003 0.138888896
v -0.0660741553 -0.0480000004 0.138888896
v -0.066451773 -0.0320000015 0.138888896
v -0.0656325147 -0.0160000008 0.138888896
v -0.0657082126 0 0.138888896
v -0.0664650649 0.0160000008 0.138888896
v -0.0660140738 0.0320000015 0.138888896
v -0.0652729496 0.0480000004 0.138888896
v -0.0663349479 0.064000003 0.138888896
v -0.0662963763 0.0799999982 0.138888896
v -0.0651890337 0.0960000008 0.138888896
v -0.0660741553 0.112000003 0.138888896
v -0.066451773 0.128000006 0.138888896
v -0.0656325147 0.143999994 0.138888896
v -0.0657082126 0.159999996 0.138888896
v -0.0656757653 -0.159999996 0.152777776
v -0.0663979501 -0.143999994 0.152777776
v -0.0659676194 -0.128000006 0.152777776
v -0.0652604476 -0.112000003 0.152777776
v -0.0662737936 -0.0960000008 0.152777776
v -0.0662369877 -0.0799999982 0.152777776
v -0.0651803762 -0.064000003 0.152777776
v -0.0660249442 -0.0480000004 0.152777776
v -0.0663852692 -0.0320000015 0.152777776
v -0.0656035393 -0.0160000008 0.152777776
v -0.0656757653 0 0.152777776
v -0.0663979501 0.0160000008 0.152777776
v -0.0659676194 0.0320000015 0.152777776
v -0.0652604476 0.0480000004 0.152777776
v -0.0662737936 0.064000003 0.152777776
v -0.0662369877 0.0799999982 0.152777776
v -0.0651803762 0.0960000008 0.152777776
v -0.0660249442 0.112000003 0.152777776
v -0.0663852692 0.128000006 0.152777776
v -0.0656035393 0.143999994 0.152777776
v -0.0656757653 0.159999996 0.152777776
v -0.0656227916 -0.159999996 0.166666672
v -0.0662883595 -0.143999994 0.166666672
v -0.0658917651 -0.128000006 0.166666672
v -0.0652400255 -0.112000003 0.166666672
v -0.0661739334 -0.0960000008 0.166666672
v -0.066140011 -0.0799999982 0.166666672
v -0.065166235 -0.064000003 0.166666672
v -0.0659445971 -0.0480000004 0.166666672
v -0.0662766695 -0.0320000015 0.166666672
v -0.0655562207 -0.0160000008 0.166666672
v -0.0656227916 0 0.166666672
v -0.0662883595 0.0160000008 0.166666672
v -0.0658917651 0.0320000015 0.166666672
v -0.0652400255 0.0480000004 0.166666672
v -0.0661739334 0.064000003 0.166666672
v -0.066140011 0.0799999982 0.166666672
v -0.065166235 0.0960000008 0.166666672
v -0.0659445971 0.112000003 0.166666672
v -0.0662766695 0.128000006 0.166666672
v -0.0655562207 0.143999994 0.166666672
v -0.0656227916 0.159999996 0.166666672
v -0.0655508935 -0.159999996 0.180555552
v -0.0661396161 -0.143999994 0.180555552
v -0.0657888129 -0.128000006 0.180555552
v -0.0652123168 -0.112000003 0.180555552
v -0.0660384074 -0.0960000008 0.180555552
v -0.0660084039 -0.0799999982 0.180555552
v -0.0651470423 -0.064000003 0.180555552
v -0.065835543 -0.0480000004 0.180555552
v -0.0661292821 -0.0320000015 0.180555552
v -0.0654920042 -0.0160000008 0.180555552
v -0.0655508935 0 0.180555552
v -0.0661396161 0.0160000008 0.180555552
v -0.0657888129 0.0320000015 0.180555552
v -0.0652123168 0.0480000004 0.180555552
v -0.0660384074 0.064000003 0.180555552
v -0.0660084039 0.0799999982 0.180555552
v -0.0651470423 0.0960000008 0.180555552
v -0.065835543 0.112000003 0.180555552
v -0.0661292821 0.128000006 0.180555552
v -0.0654920042 0.143999994 0.180555552
v -0.0655508935 0.159999996 0.180555552
v -0.065462254 -0.159999996 0.194444448
v -0.0659562573 -0.143999994 0.194444448
v -0.0656618923 -0.128000006 0.194444448
v -0.0651781559 -0.112000003 0.194444448
v -0.0658713281 -0.0960000008 0.194444448
v -0.0658461452 -0.0799999982 0.194444448
v -0.0651233867 -0.064000003 0.194444448
v -0.0657011047 -0.0480000004 0.194444448
v -0.0659475774 -0.0320000015 0.194444448
v -0.0654128417 -0.0160000008 0.194444448
v -0.065462254 0 0.194444448
v -0.0659562573 0.0160000008 0.194444448
v -0.0656618923 0.0320000015 0.194444448
v -0.0651781559 0.0480000004 0.194444448
v -0.0658713281 0.064000003 0.194444448
v -0.0658461452 0.0799999982 0.194444448
v -0.0651233867 0.0960000008 0.194444448
v -0.0657011047 0.112000003 0.194444448
v -0.0659475774 0.128000006 0.194444448
v -0.0654128417 0.143999994 0.194444448
v -0.065462254 0.159999996 0.194444448
v -0.0653595701 -0.159999996 0.208333328
v -0.0657438338 -0.143999994 0.208333328
v -0.0655148625 -0.128000006 0.208333328
v -0.0651385784 -0.112000003 0.208333328
v -0.0656777695 -0.0960000008 0.208333328
v -0.0656581894 -0.0799999982 0.208333328
v -0.065095976 -0.064000003 0.208333328
v -0.0655453652 -0.0480000004 0.208333328
v -0.0657370836 -0.0320000015 0.208333328
v -0.0653211325 -0.0160000008 0.208333328
v -0.0653595701 0 0.208333328
v -0.0657438338 0.0160000008 0.208333328
v -0.0655148625 0.0320000015 0.208333328
v -0.0651385784 0.0480000004 0.208333328
v -0.0656777695 0.064000003 0.208333328
v -0.0656581894 0.0799999982 0.208333328
v -0.065095976 0.0960000008 0.208333328
v -0.0655453652 0.112000003 0.208333328
v -0.0657370836 0.128000006 0.208333328
v -0.0653211325 0.143999994 0.208333328
v -0.0653595701 0.159999996 0.208333328
v -0.0652459562 -0.159999996 0.222222224
v -0.0655088127 -0.143999994 0.222222224
v -0.0653521866 -0.128000006 0.222222224
v -0.0650947914 -0.112000003 0.222222224
v -0.0654636249 -0.0960000008 0.222222224
v -0.0654502288 -0.0799999982 0.222222224
v -0.0650656521 -0.064000003 0.222222224
v -0.0653730482 -0.0480000004 0.222222224
v -0.0655041933 -0.0320000015 0.222222224
v -0.0652196705 -0.0160000008 0.222222224
v -0.0652459562 0 0.222222224
v -0.0655088127 0.0160000008 0.222222224
v -0.0653521866 0.0320000015 0.222222224
v -0.0650947914 0.0480000004 0.222222224
v -0.0654636249 0.064000003 0.222222224
v -0.0654502288 0.0799999982 0.222222224
v -0.0650656521 0.0960000008 0.222222224
v -0.0653730482 0.112000003 0.222222224
v -0.0655041933 0.128000006 0.222222224
v -0.0652196705 0.143999994 0.222222224
v -0.0652459562 0.159999996 0.222222224
v -0.0651248768 -0.159999996 0.236111104
v -0.0652583316 -0.143999994 0.236111104
v -0.0651788116 -0.128000006 0.236111104
v -0.0650481284 -0.112000003 0.236111104
v -0.0652353838 -0.0960000008 0.236111104
v -0.0652285889 -0.0799999982 0.236111104
v -0.0650333315 -0.064000003 0.236111104
v -0.0651893988 -0.0480000004 0.236111104
v -0.0652559847 -0.0320000015 0.236111104
v -0.0651115254 -0.0160000008 0.236111104
v -0.0651248768 0 0.236111104
v -0.0652583316 0.0160000008 0.236111104
v -0.0651788116 0.0320000015 0.236111104
v -0.0650481284 0.0480000004 0.236111104
v -0.0652353838 0.064000003 0.236111104
v -0.0652285889 0.0799999982 0.236111104
v -0.0650333315 0.0960000008 0.236111104
v -0.0651893988 0.112000003 0.236111104
v -0.0652559847 0.128000006 0.236111104
v -0.0651115254 0.143999994 0.236111104
v -0.0651248768 0.159999996 0.236111104
v -0.0649999976 -0.159999996 0.25
v -0.0649999976 -0.143999994 0.25
v -0.0649999976 -0.128000006 0.25
v -0.0649999976 -0.112000003 0.25
v -0.0649999976 -0.0960000008 0.25
v -0.0649999976 -0.0799999982 0.25
v -0.0649999976 -0.064000003 0.25
v -0.0649999976 -0.0480000004 0.25
v -0.0649999976 -0.0320000015 0.25
v -0.0649999976 -0.0160000008 0.25
v -0.0649999976 0 0.25
v -0.0649999976 0.0160000008 0.25
v -0.0649999976 0.0320000015 0.25
v -0.0649999976 0.0480000004 0.25
v -0.0649999976 0.064000003 0.25
v -0.0649999976 0.0799999982 0.25
v -0.0649999976 0.0960000008 0.25
v -0.0649999976 0.112000003 0.25
v -0.0649999976 0.128000006 0.25
v -0.0649999976 0.143999994 0.25
v -0.0649999976 0.159999996 0.25
v 0.0651248768 -0.159999996 0.013888889
v 0.0652583316 -0.143999994 0.013888889
v 0.0651788116 -0.128000006 0.013888889
v 0.0650481284 -0.112000003 0.013888889
v 0.0652353838 -0.0960000008 0.013888889
v 0.0652285889 -0.0799999982 0.013888889
v 0.0650333315 -0.064000003 0.013888889
v 0.0651893988 -0.0480000004 0.013888889
v 0.0652559847 -0.0320000015 0.013888889
v 0.0651115254 -0.0160000008 0.013888889
v 0.0651248768 0 0.013888889
v 0.0652583316 0.0160000008 0.013888889
v 0.0651788116 0.0320000015 0.013888889
v 0.0650481284 0.0480000004 0.013888889
v 0.0652353838 0.064000003 0.013888889
v 0.0652285889 0.0799999982 0.013888889
v 0.0650333315 0.0960000008 0.013888889
v 0.0651893988 0.112000003 0.013888889
v 0.0652559847 0.128000006 0.013888889
v 0.0651115254 0.143999994 0.013888889
v 0.0651248768 0.159999996 0.013888889
v 0.0652459562 -0.159999996 0.027777778
v 0.0651177242 -0.143999994 0.027777778
v 0.0645796433 -0.128000006 0.027777778
v 0.0639598146 -0.112000003 0.027777778
v 0.0639941618 -0.0960000008 0.027777778
v 0.0636824593 -0.0799999982 0.027777778
v 0.0630431101 -0.064000003 0.027777778
v 0.0631455332 -0.0480000004 0.027777778
v 0.0631265566 -0.0320000015 0.027777778
v 0.0627504513 -0.0160000008 0.027777778
v 0.0627459586 0 0.027777778
v 0.0630395934 0.0160000008 0.027777778
v 0.0629745424 0.0320000015 0.027777778
v 0.0628672764 0.0480000004 0.027777778
v 0.0634410828 0.064000003 0.027777778
v 0.0636824593 0.0799999982 0.027777778
v 0.063596189 0.0960000008 0.027777778
v 0.0642380714 0.112000003 0.027777778
v 0.0647316575 0.128000006 0.027777778
v 0.0648285821 0.143999994 0.027777778
v 0.0652459562 0.159999996 0.027777778
v 0.0653595701 -0.159999996 0.0416666679
v 0.0657438338 -0.143999994 0.0416666679
v 0.0655148625 -0.128000006 0.0416666679
v 0.0651385784 -0.112000003 0.0416666679
v 0.0656777695 -0.0960000008 0.0416666679
v 0.0656581894 -0.0799999982 0.0416666679
v 0.065095976 -0.064000003 0.0416666679
v 0.0655453652 -0.0480000004 0.0416666679
v 0.0657370836 -0.0320000015 0.0416666679
v 0.0653211325 -0.0160000008 0.0416666679
v 0.0653595701 0 0.0416666679
v 0.0657438338 0.0160000008 0.0416666679
v 0.0655148625 0.0320000015 0.0416666679
v 0.0651385784 0.0480000004 0.0416666679
v 0.0656777695 0.064000003 0.0416666679
v 0.0656581894 0.0799999982 0.0416666679
v 0.065095976 0.0960000008 0.0416666679
v 0.0655453652 0.112000003 0.0416666679
v 0.0657370836 0.128000006 0.0416666679
v 0.0653211325 0.143999994 0.0416666679
v 0.0653595701 0.159999996 0.0416666679
v 0.065462254 -0.159999996 0.055555556
v 0.0659562573 -0.143999994 0.055555556
v 0.0656618923 -0.128000006 0.055555556
v 0.0651781559 -0.112000003 0.055555556
v 0.0658713281 -0.0960000008 0.055555556
v 0.0658461452 -0.0799999982 0.055555556
v 0.0651233867 -0.064000003 0.055555556
v 0.0657011047 -0.0480000004 0.055555556
v 0.0659475774 -0.0320000015 0.055555556
v 0.0654128417 -0.0160000008 0.055555556
v 0.065462254 0 0.055555556
v 0.0659562573 0.0160000008 0.055555556
v 0.0656618923 0.0320000015 0.055555556
v 0.0651781559 0.0480000004 0.055555556
v 0.0658713281 0.064000003 0.055555556
v 0.0658461452 0.0799999982 0.055555556
v 0.0651233867 0.0960000008 0.055555556
v 0.0657011047 0.112000003 0.055555556
v 0.0659475774 0.128000006 0.055555556
v 0.0654128417 0.143999994 0.055555556
v 0.065462254 0.159999996 0.055555556
v 0.0655508935 -0.159999996 0.0694444478
v 0.0661396161 -0.143999994 0.0694444478
v 0.0657888129 -0.128000006 0.0694444478
v 0.0652123168 -0.112000003 0.0694444478
v 0.0660384074 -0.0960000008 0.0694444478
v 0.0660084039 -0.0799999982 0.0694444478
v 0.0651470423 -0.064000003 0.0694444478
v 0.065835543 -0.0480000004 0.0694444478
v 0.0661292821 -0.0320000015 0.0694444478
v 0.0654920042 -0.0160000008 0.0694444478
v 0.0655508935 0 0.0694444478
v 0.0661396161 0.0160000008 0.0694444478
v 0.0657888129 0.0320000015 0.0694444478
v 0.0652123168 0.0480000004 0.0694444478
v 0.0660384074 0.064000003 0.0694444478
v 0.0660084039 0.0799999982 0.0694444478
v 0.0651470423 0.0960000008 0.0694444478
v 0.065835543 0.112000003 0.0694444478
v 0.0661292821 0.128000006 0.0694444478
v 0.0654920042 0.143999994 0.0694444478
v 0.0655508935 0.159999996 0.0694444478
v 0.0656227916 -0.159999996 0.0833333358
v 0.0662883595 -0.143999994 0.0833333358
v 0.0658917651 -0.128000006 0.0833333358
v 0.0652400255 -0.112000003 0.0833333358
v 0.0661739334 -0.0960000008 0.0833333358
v 0.066140011 -0.0799999982 0.0833333358
v 0.065166235 -0.064000003 0.0833333358
v 0.0659445971 -0.0480000004 0.0833333358
v 0.0662766695 -0.0320000015 0.0833333358
v 0.0655562207 -0.0160000008 0.0833333358
v 0.0656227916 0 0.0833333358
v 0.0662883595 0.0160000008 0.0833333358
v 0.0658917651 0.0320000015 0.0833333358
v 0.0652400255 0.0480000004 0.0833333358
v 0.0661739334 0.064000003 0.0833333358
v 0.066140011 0.0799999982 0.0833333358
v 0.065166235 0.0960000008 0.0833333358
v 0.0659445971 0.112000003 0.0833333358
v 0.0662766695 0.128000006 0.0833333358
v 0.0655562207 0.143999994 0.0833333358
v 0.0656227916 0.159999996 0.0833333358
v 0.0656757653 -0.159999996 0.0972222239
v 0.0663979501 -0.143999994 0.0972222239
v 0.0659676194 -0.128000006 0.0972222239
v 0.0652604476 -0.112000003 0.0972222239
v 0.0662737936 -0.0960000008 0.0972222239
v 0.0662369877 -0.0799999982 0.0972222239
v 0.0651803762 -0.064000003 0.0972222239
v 0.0660249442 -0.0480000004 0.0972222239
v 0.0663852692 -0.0320000015 0.0972222239
v 0.0656035393 -0.0160000008 0.0972222239
v 0.0656757653 0 0.0972222239
v 0.0663979501 0.0160000008 0.0972222239
v 0.0659676194 0.0320000015 0.0972222239
v 0.0652604476 0.0480000004 0.0972222239
v 0.0662737936 0.064000003 0.0972222239
v 0.0662369877 0.0799999982 0.0972222239
v 0.0651803762 0.0960000008 0.0972222239
v 0.0660249442 0.112000003 0.0972222239
v 0.0663852692 0.128000006 0.0972222239
v 0.0656035393 0.143999994 0.0972222239
v 0.0656757653 0.159999996 0.0972222239
v 0.0657082126 -0.159999996 0.111111112
v 0.0664650649 -0.143999994 0.111111112
v 0.0660140738 -0.128000006 0.111111112
v 0.0652729496 -0.112000003 0.111111112
v 0.0663349479 -0.0960000008 0.111111112
v 0.0662963763 -0.0799999982 0.111111112
v 0.0651890337 -0.064000003 0.111111112
v 0.0660741553 -0.0480000004 0.111111112
v 0.066451773 -0.0320000015 0.111111112
v 0.0656325147 -0.0160000008 0.111111112
v 0.0657082126 0 0.111111112
v 0.0664650649 0.0160000008 0.111111112
v 0.0660140738 0.0320000015 0.111111112
v 0.0652729496 0.0480000004 0.111111112
v 0.0663349479 0.064000003 0.111111112
v 0.0662963763 0.0799999982 0.111111112
v 0.0651890337 0.0960000008 0.111111112
v 0.0660741553 0.112000003 0.111111112
v 0.066451773 0.128000006 0.111111112
v 0.0656325147 0.143999994 0.111111112
v 0.0657082126 0.159999996 0.111111112
v 0.0657191351 -0.159999996 0.125
v 0.0664876699 -0.143999994 0.125
v 0.06602972 -0.128000006 0.125
v 0.0652771592 -0.112000003 0.125
v 0.0663555413 -0.0960000008 0.125
v 0.0663163736 -0.0799999982 0.125
v 0.0651919469 -0.064000003 0.125
v 0.0660907254 -0.0480000004 0.125
v 0.0664741695 -0.0320000015 0.125
v 0.0656422675 -0.0160000008 0.125
v 0.0657191351 0 0.125
v 0.0664876699 0.0160000008 0.125
v 0.06602972 0.0320000015 0.125
v 0.0652771592 0.0480000004 0.125
v 0.0663555413 0.064000003 0.125
v 0.0663163736 0.0799999982 0.125
v 0.0651919469 0.0960000008 0.125
v 0.0660907254 0.112000003 0.125
v 0.0664741695 0.128000006 0.125
v 0.0656422675 0.143999994 0.125
v 0.0657191351 0.159999996 0.125
v 0.0657082126 -0.159999996 0.138888896
v 0.0664650649 -0.143999994 0.138888896
v 0.0660140738 -0.128000006 0.138888896
v 0.0652729496 -0.112000003 0.138888896
v 0.0663349479 -0.0960000008 0.138888896
v 0.0662963763 -0.0799999982 0.138888896
v 0.0651890337 -0.064000003 0.138888896
v 0.0660741553 -0.0480000004 0.138888896
v 0.066451773 -0.0320000015 0.138888896
v 0.0656325147 -0.0160000008 0.138888896
v 0.0657082126 0 0.138888896
v 0.0664650649 0.0160000008 0.138888896
v 0.0660140738 0.0320000015 0.138888896
v 0.0652729496 0.0480000004 0.138888896
v 0.0663349479 0.064000003 0.138888896
v 0.0662963763 0.0799999982 0.138888896
v 0.0651890337 0.0960000008 0.138888896
v 0.0660741553 0.112000003 0.138888896
v 0.066451773 0.128000006 0.138888896
v 0.0656325147 0.143999994 0.138888896
v 0.0657082126 0.159999996 0.138888896
v 0.0656757653 -0.159999996 0.152777776
v 0.0663979501 -0.143999994 0.152777776
v 0.0659676194 -0.128000006 0.152777776
v 0.0652604476 -0.112000003 0.152777776
v 0.0662737936 -0.0960000008 0.152777776
v 0.0662369877 -0.0799999982 0.152777776
v 0.0651803762 -0.064000003 0.152777776
v 0.0660249442 -0.0480000004 0.152777776
v 0.0663852692 -0.0320000015 0.152777776
v 0.0656035393 -0.0160000008 0.152777776
v 0.0656757653 0 0.152777776
v 0.0663979501 0.0160000008 0.152777776
v 0.0659676194 0.0320000015 0.152777776
v 0.0652604476 0.0480000004 0.152777776
v 0.0662737936 0.064000003 0.152777776
v 0.0662369877 0.0799999982 0.152777776
v 0.0651803762 0.0960000008 0.152777776
v 0.0660249442 0.112000003 0.152777776
v 0.0663852692 0.128000006 0.152777776
v 0.0656035393 0.143999994 0.152777776
v 0.0656757653 0.159999996 0.152777776
v 0.0656227916 -0.159999996 0.166666672
v 0.0662883595 -0.143999994 0.166666672
v 0.0658917651 -0.128000006 0.166666672
v 0.0652400255 -0.112000003 0.166666672
v 0.0661739334 -0.0960000008 0.166666672
v 0.066140011 -0.0799999982 0.166666672
v 0.065166235 -0.064000003 0.166666672
v 0.0659445971 -0.0480000004 0.166666672
v 0.0662766695 -0.0320000015 0.166666672
v 0.0655562207 -0.0160000008 0.166666672
v 0.0656227916 0 0.166666672
v 0.0662883595 0.0160000008 0.166666672
v 0.0658917651 0.0320000015 0.166666672
v 0.0652400255 0.0480000004 0.166666672
v 0.0661739334 0.064000003 0.166666672
v 0.066140011 0.0799999982 0.166666672
v 0.065166235 0.0960000008 0.166666672
v 0.0659445971 0.112000003 0.166666672
v 0.0662766695 0.128000006 0.166666672
v 0.0655562207 0.143999994 0.166666672
v 0.0656227916 0.159999996 0.166666672
v 0.0655508935 -0.159999996 0.180555552
v 0.0661396161 -0.143999994 0.180555552
v 0.0657888129 -0.128000006 0.180555552
v 0.0652123168 -0.112000003 0.180555552
v 0.0660384074 -0.0960000008 0.180555552
v 0.0660084039 -0.0799999982 0.180555552
v 0.0651470423 -0.064000003 0.180555552
v 0.065835543 -0.0480000004 0.180555552
v 0.0661292821 -0.0320000015 0.180555552
v 0.0654920042 -0.0160000008 0.180555552
v 0.0655508935 0 0.180555552
v 0.0661396161 0.0160000008 0.180555552
v 0.0657888129 0.0320000015 0.180555552
v 0.0652123168 0.0480000004 0.180555552
v 0.0660384074 0.064000003 0.180555552
v 0.0660084039 0.0799999982 0.180555552
v 0.0651470423 0.0960000008 0.180555552
v 0.065835543 0.112000003 0.180555552
v 0.0661292821 0.128000006 0.180555552
v 0.0654920042 0.143999994 0.180555552
v 0.0655508935 0.159999996 0.180555552
v 0.065462254 -0.159999996 0.194444448
v 0.0659562573 -0.143999994 0.194444448
v 0.0656618923 -0.128000006 0.194444448
v 0.0651781559 -0.112000003 0.194444448
v 0.0658713281 -0.0960000008 0.194444448
v 0.0658461452 -0.0799999982 0.194444448
v 0.0651233867 -0.064000003 0.194444448
v 0.0657011047 -0.0480000004 0.194444448
v 0.0659475774 -0.0320000015 0.194444448
v 0.0654128417 -0.0160000008 0.194444448
v 0.065462254 0 0.194444448
v 0.0659562573 0.0160000008 0.194444448
v 0.0656618923 0.0320000015 0.194444448
v 0.0651781559 0.0480000004 0.194444448
v 0.0658713281 0.064000003 0.194444448
v 0.0658461452 0.0799999982 0.194444448
v 0.0651233867 0.0960000008 0.194444448
v 0.0657011047 0.112000003 0.194444448
v 0.0659475774 0.128000006 0.194444448
v 0.0654128417 0.143999994 0.194444448
v 0.065462254 0.159999996 0.194444448
v 0.0653595701 -0.159999996 0.208333328
v 0.0657438338 -0.143999994 0.208333328
v 0.0655148625 -0.128000006 0.208333328
v 0.0651385784 -0.112000003 0.208333328
v 0.0656777695 -0.0960000008 0.208333328
v 0.0656581894 -0.0799999982 0.208333328
v 0.065095976 -0.064000003 0.208333328
v 0.0655453652 -0.0480000004 0.208333328
v 0.0657370836 -0.0320000015 0.208333328
v 0.0653211325 -0.0160000008 0.208333328
v 0.0653595701 0 0.208333328
v 0.0657438338 0.0160000008 0.208333328
v 0.0655148625 0.0320000015 0.208333328
v 0.0651385784 0.0480000004 0.208333328
v 0.0656777695 0.064000003 0.208333328
v 0.0656581894 0.0799999982 0.208333328
v 0.065095976 0.0960000008 0.208333328
v 0.0655453652 0.112000003 0.208333328
v 0.0657370836 0.128000006 0.208333328
v 0.0653211325 0.143999994 0.208333328
v 0.0653595701 0.159999996 0.208333328
v 0.0652459562 -0.159999996 0.222222224
v 0.0655088127 -0.143999994 0.222222224
v 0.0653521866 -0.128000006 0.222222224
v 0.0650947914 -0.112000003 0.222222224
v 0.0654636249 -0.0960000008 0.222222224
v 0.0654502288 -0.0799999982 0.222222224
v 0.0650656521 -0.064000003 0.222222224
v 0.0653730482 -0.0480000004 0.222222224
v 0.0655041933 -0.0320000015 0.222222224
v 0.0652196705 -0.0160000008 0.222222224
v 0.0652459562 0 0.222222224
v 0.0655088127 0.0160000008 0.222222224
v 0.0653521866 0.0320000015 0.222222224
v 0.0650947914 0.0480000004 0.222222224
v 0.0654636249 0.064000003 0.222222224
v 0.0654502288 0.0799999982 0.222222224
v 0.0650656521 0.0960000008 0.222222224
v 0.0653730482 0.112000003 0.222222224
v 0.0655041933 0.128000006 0.222222224
v 0.0652196705 0.143999994 0.222222224
v 0.0652459562 0.159999996 0.222222224
v 0.0651248768 -0.159999996 0.236111104
v 0.0652583316 -0.143999994 0.236111104
v 0.0651788116 -0.128000006 0.236111104
v 0.0650481284 -0.112000003 0.236111104
v 0.0652353838 -0.0960000008 0.236111104
v 0.0652285889 -0.0799999982 0.236111104
v 0.0650333315 -0.064000003 0.236111104
v 0.0651893988 -0.0480000004 0.236111104
v 0.0652559847 -0.0320000015 0.236111104
v 0.0651115254 -0.0160000008 0.236111104
v 0.0651248768 0 0.236111104
v 0.0652583316 0.0160000008 0.236111104
v 0.0651788116 0.0320000015 0.236111104
v 0.0650481284 0.0480000004 0.236111104
v 0.0652353838 0.064000003 0.236111104
v 0.0652285889 0.0799999982 0.236111104
v 0.0650333315 0.0960000008 0.236111104
v 0.0651893988 0.112000003 0.236111104
v 0.0652559847 0.128000006 0.236111104
v 0.0651115254 0.143999994 0.236111104
v 0.0651248768 0.159999996 0.236111104
v 0.0649999976 -0.159999996 0.25
v 0.0649999976 -0.143999994 0.25
v 0.0649999976 -0.128000006 0.25
v 0.0649999976 -0.112000003 0.25
v 0.0649999976 -0.0960000008 0.25
v 0.0649999976 -0.0799999982 0.25
v 0.0649999976 -0.064000003 0.25
v 0.0649999976 -0.0480000004 0.25
v 0.0649999976 -0.0320000015 0.25
v 0.0649999976 -0.0160000008 0.25
v 0.0649999976 0 0.25
v 0.0649999976 0.0160000008 0.25
v 0.0649999976 0.0320000015 0.25
v 0.0649999976 0.0480000004 0.25
v 0.0649999976 0.064000003 0.25
v 0.0649999976 0.0799999982 0.25
v 0.0649999976 0.0960000008 0.25
v 0.0649999976 0.112000003 0.25
v 0.0649999976 0.128000006 0.25
v 0.0649999976 0.143999994 0.25
v 0.0649999976 0.159999996 0.25
v -0.0487499982 -0.159305409 0.013888889
v -0.0324999988 -0.158610821 0.013888889
v -0.0162499994 -0.157916218 0.013888889
v 0 -0.15722163 0.013888889
v 0.0162499994 -0.157916218 0.013888889
v 0.0324999988 -0.158610821 0.013888889
v 0.0487499982 -0.159305409 0.013888889
v -0.0487499982 -0.158631921 0.027777778
v -0.0324999988 -0.157263845 0.027777778
v -0.0162499994 -0.155895755 0.027777778
v 0 -0.154527679 0.027777778
v 0.0162499994 -0.155895755 0.027777778
v 0.0324999988 -0.157263845 0.027777778
v 0.0487499982 -0.158631921 0.027777778
v -0.0487499982 -0.158000007 0.0416666679
v -0.0324999988 -0.156000003 0.0416666679
v -0.0162499994 -0.153999999 0.0416666679
v 0 -0.151999995 0.0416666679
v 0.0162499994 -0.153999999 0.0416666679
v 0.0324999988 -0.156000003 0.0416666679
v 0.0487499982 -0.158000007 0.0416666679
v -0.0487499982 -0.157428846 0.055555556
v -0.0324999988 -0.154857695 0.055555556
v -0.0162499994 -0.152286544 0.055555556
v 0 -0.149715394 0.055555556
v 0.0162499994 -0.152286544 0.055555556
v 0.0324999988 -0.154857695 0.055555556
v 0.0487499982 -0.157428846 0.055555556
v -0.0487499982 -0.156935826 0.0694444478
v -0.0324999988 -0.153871641 0.0694444478
v -0.0162499994 -0.15080747 0.0694444478
v 0 -0.147743285 0.0694444478
v 0.0162499994 -0.15080747 0.0694444478
v 0.0324999988 -0.153871641 0.0694444478
v 0.0487499982 -0.156935826 0.0694444478
v -0.0487499982 -0.156535894 0.0833333358
v -0.0324999988 -0.153071791 0.0833333358
v -0.0162499994 -0.149607688 0.0833333358
v 0 -0.1461436 0.0833333358
v 0.0162499994 -0.149607688 0.0833333358
v 0.0324999988 -0.153071791 0.0833333358
v 0.0487499982 -0.156535894 0.0833333358
v -0.0487499982 -0.156241223 0.0972222239
v -0.0324999988 -0.152482465 0.0972222239
v -0.0162499994 -0.148723692 0.0972222239
v 0 -0.144964918 0.0972222239
v 0.0162499994 -0.148723692 0.0972222239
v 0.0324999988 -0.152482465 0.0972222239
v 0.0487499982 -0.156241223 0.0972222239
v -0.0487499982 -0.15606077 0.111111112
v -0.0324999988 -0.152121544 0.111111112
v -0.0162499994 -0.148182303 0.111111112
v 0 -0.144243076 0.111111112
v 0.0162499994 -0.148182303 0.111111112
v 0.0324999988 -0.152121544 0.111111112
v 0.0487499982 -0.15606077 0.111111112
v -0.0487499982 -0.156000003 0.125
v -0.0324999988 -0.151999995 0.125
v -0.0162499994 -0.148000002 0.125
v 0 -0.143999994 0.125
v 0.0162499994 -0.148000002 0.125
v 0.0324999988 -0.151999995 0.125
v 0.0487499982 -0.156000003 0.125
v -0.0487499982 -0.15606077 0.138888896
v -0.0324999988 -0.152121544 0.138888896
v -0.0162499994 -0.148182303 0.138888896
v 0 -0.144243076 0.138888896
v 0.0162499994 -0.148182303 0.138888896
v 0.0324999988 -0.152121544 0.138888896
v 0.0487499982 -0.15606077 0.138888896
v -0.0487499982 -0.156241223 0.152777776
v -0.0324999988 -0.152482465 0.152777776
v -0.0162499994 -0.148723692 0.152777776
v 0 -0.144964918 0.152777776
v 0.0162499994 -0.148723692 0.152777776
v 0.0324999988 -0.152482465 0.152777776
v 0.0487499982 -0.156241223 0.152777776
v -0.0487499982 -0.156535894 0.166666672
v -0.0324999988 -0.153071791 0.166666672
v -0.0162499994 -0.149607688 0.166666672
v 0 -0.1461436 0.166666672
v 0.0162499994 -0.149607688 0.166666672
v 0.0324999988 -0.153071791 0.166666672
v 0.0487499982 -0.156535894 0.166666672
v -0.0487499982 -0.156935826 0.180555552
v -0.0324999988 -0.153871641 0.180555552
v -0.0162499994 -0.15080747 0.180555552
v 0 -0.147743285 0.180555552
v 0.0162499994 -0.15080747 0.180555552
v 0.0324999988 -0.153871641 0.180555552
v 0.0487499982 -0.156935826 0.180555552
v -0.0487499982 -0.157428846 0.194444448
v -0.0324999988 -0.154857695 0.194444448
v -0.0162499994 -0.152286544 0.194444448
v 0 -0.149715394 0.194444448
v 0.0162499994 -0.152286544 0.194444448
v 0.0324999988 -0.154857695 0.194444448
v 0.0487499982 -0.157428846 0.194444448
v -0.0487499982 -0.158000007 0.208333328
v -0.0324999988 -0.156000003 0.208333328
v -0.0162499994 -0.153999999 0.208333328
v 0 -0.151999995 0.208333328
v 0.0162499994 -0.153999999 0.208333328
v 0.0324999988 -0.156000003 0.208333328
v 0.0487499982 -0.158000007 0.208333328
v -0.0487499982 -0.158631921 0.222222224
v -0.0324999988 -0.157263845 0.222222224
v -0.0162499994 -0.155895755 0.222222224
v 0 -0.154527679 0.222222224
v 0.0162499994 -0.155895755 0.222222224
v 0.0324999988 -0.157263845 0.222222224
v 0.0487499982 -0.158631921 0.222222224
v -0.0487499982 -0.159305409 0.236111104
v -0.0324999988 -0.158610821 0.236111104
v -0.0162499994 -0.157916218 0.236111104
v 0 -0.15722163 0.236111104
v 0.0162499994 -0.157916218 0.236111104
v 0.0324999988 -0.158610821 0.236111104
v 0.0487499982 -0.159305409 0.236111104
v -0.0487499982 -0.159999996 0.25
v -0.0324999988 -0.159999996 0.25
v -0.0162499994 -0.159999996 0.25
v 0 -0.159999996 0.25
v 0.0162499994 -0.159999996 0.25
v 0.0324999988 -0.159999996 0.25
v 0.0487499982 -0.159999996 0.25
v -0.0487499982 0.159305409 0.013888889
v -0.0324999988 0.158610821 0.013888889
v -0.0162499994 0.157916218 0.013888889
v 0 0.15722163 0.013888889
v 0.0162499994 0.157916218 0.013888889
v 0.0324999988 0.158610821 0.013888889
v 0.0487499982 0.159305409 0.013888889
v -0.0487499982 0.158631921 0.027777778
v -0.0324999988 0.157263845 0.027777778
v -0.0162499994 0.155895755 0.027777778
v 0 0.154527679 0.027777778
v 0.0162499994 0.155895755 0.027777778
v 0.0324999988 0.157263845 0.027777778
v 0.0487499982 0.158631921 0.027777778
v -0.0487499982 0.158000007 0.0416666679
v -0.0324999988 0.156000003 0.0416666679
v -0.0162499994 0.153999999 0.0416666679
v 0 0.151999995 0.0416666679
v 0.0162499994 0.153999999 0.0416666679
v 0.0324999988 0.156000003 0.0416666679
v 0.0487499982 0.158000007 0.0416666679
v -0.0487499982 0.157428846 0.055555556
v -0.0324999988 0.154857695 0.055555556
v -0.0162499994 0.152286544 0.055555556
v 0 0.149715394 0.055555556
v 0.0162499994 0.152286544 0.055555556
v 0.0324999988 0.154857695 0.055555556
v 0.0487499982 0.157428846 0.055555556
v -0.0487499982 0.156935826 0.0694444478
v -0.0324999988 0.153871641 0.0694444478
v -0.0162499994 0.15080747 0.0694444478
v 0 0.147743285 0.0694444478
v 0.0162499994 0.15080747 0.0694444478
v 0.0324999988 0.153871641 0.0694444478
v 0.0487499982 0.156935826 0.0694444478
v -0.0487499982 0.156535894 0.0833333358
v -0.0324999988 0.153071791 0.0833333358
v -0.0162499994 0.149607688 0.0833333358
v 0 0.1461436 0.0833333358
v 0.0162499994 0.149607688 0.0833333358
v 0.0324999988 0.153071791 0.0833333358
v 0.0487499982 0.156535894 0.0833333358
v -0.0487499982 0.156241223 0.0972222239
v -0.0324999988 0.152482465 0.0972222239
v -0.0162499994 0.148723692 0.0972222239
v 0 0.144964918 0.0972222239
v 0.0162499994 0.148723692 0.0972222239
v 0.0324999988 0.152482465 0.0972222239
v 0.0487499982 0.156241223 0.0972222239
v -0.0487499982 0.15606077 0.111111112
v -0.0324999988 0.152121544 0.111111112
v -0.0162499994 0.148182303 0.111111112
v 0 0.144243076 0.111111112
v 0.0162499994 0.148182303 0.111111112
v 0.0324999988 0.152121544 0.111111112
v 0.0487499982 0.15606077 0.111111112
v -0.0487499982 0.156000003 0.125
v -0.0324999988 0.151999995 0.125
v -0.0162499994 0.148000002 0.125
v 0 0.143999994 0.125
v 0.0162499994 0.148000002 0.125
v 0.0324999988 0.151999995 0.125
v 0.0487499982 0.156000003 0.125
v -0.0487499982 0.15606077 0.138888896
v -0.0324999988 0.152121544 0.138888896
v -0.0162499994 0.148182303 0.138888896
v 0 0.144243076 0.138888896
v 0.0162499994 0.148182303 0.138888896
v 0.0324999988 0.152121544 0.138888896
v 0.0487499982 0.15606077 0.138888896
v -0.0487499982 0.156241223 0.152777776
v -0.0324999988 0.152482465 0.152777776
v -0.0162499994 0.148723692 0.152777776
v 0 0.144964918 0.152777776
v 0.0162499994 0.148723692 0.152777776
v 0.0324999988 0.152482465 0.152777776
v 0.0487499982 0.156241223 0.152777776
v -0.0487499982 0.156535894 0.166666672
v -0.0324999988 0.153071791 0.166666672
v -0.0162499994 0.149607688 0.166666672
v 0 0.1461436 0.166666672
v 0.0162499994 0.149607688 0.166666672
v 0.0324999988 0.153071791 0.166666672
v 0.0487499982 0.156535894 0.166666672
v -0.0487499982 0.156935826 0.180555552
v -0.0324999988 0.153871641 0.180555552
v -0.0162499994 0.15080747 0.180555552
v 0 0.147743285 0.180555552
v 0.0162499994 0.15080747 0.180555552
v 0.0324999988 0.153871641 0.180555552
v 0.0487499982 0.156935826 0.180555552
v -0.0487499982 0.157428846 0.194444448
v -0.0324999988 0.154857695 0.194444448
v -0.0162499994 0.152286544 0.194444448
v 0 0.149715394 0.194444448
v 0.0162499994 0.152286544 0.194444448
v 0.0324999988 0.154857695 0.194444448
v 0.0487499982 0.157428846 0.194444448
v -0.0487499982 0.158000007 0.208333328
v -0.0324999988 0.156000003 0.208333328
v -0.0162499994 0.153999999 0.208333328
v 0 0.151999995 0.208333328
v 0.0162499994 0.153999999 0.208333328
v 0.0324999988 0.156000003 0.208333328
v 0.0487499982 0.158000007 0.208333328
v -0.0487499982 0.158631921 0.222222224
v -0.0324999988 0.157263845 0.222222224
v -0.0162499994 0.155895755 0.222222224
v 0 0.154527679 0.222222224
v 0.0162499994 0.155895755 0.222222224
v 0.0324999988 0.157263845 0.222222224
v 0.0487499982 0.158631921 0.222222224
v -0.0487499982 0.159305409 0.236111104
v -0.0324999988 0.158610821 0.236111104
v -0.0162499994 0.157916218 0.236111104
v 0 0.15722163 0.236111104
v 0.0162499994 0.157916218 0.236111104
v 0.0324999988 0.158610821 0.236111104
v 0.0487499982 0.159305409 0.236111104
v -0.0487499982 0.159999996 0.25
v -0.0324999988 0.159999996 0.25
v -0.0162499994 0.159999996 0.25
v 0 0.159999996 0.25
v 0.0162499994 0.159999996 0.25
v 0.0324999988 0.159999996 0.25
v 0.0487499982 0.159999996 0.25
f 1 2 23
f 1 23 22
f 2 3 24
f 2 24 23
f 3 4 25
f 3 25 24
f 4 5 26
f 4 26 25
f 5 6 27
f 5 27 26
f 6 7 28
f 6 28 27
f 7 8 29
f 7 29 28
f 8 9 30
f 8 30 29
f 9 10 31
f 9 31 30
f 10 11 32
f 10 32 31
f 11 12 33
f 11 33 32
f 12 13 34
f 12 34 33
f 13 14 35
f 13 35 34
f 14 15 36
f 14 36 35
f 15 16 37
f 15 37 36
f 16 17 38
f 16 38 37
f 17 18 39
f 17 39 38
f 18 19 40
f 18 40 39
f 19 20 41
f 19 41 40
f 20 21 42
f 20 42 41
f 22 23 44
f 22 44 43
f 23 24 45
f 23 45 44
f 24 25 46
f 24 46 45
f 25 26 47
f 25 47 46
f 26 27 48
f 26 48 47
f 27 28 49
f 27 49 48
f 28 29 50
f 28 50 49
f 29 30 51
f 29 51 50
f 30 31 52
f 30 52 51
f 31 32 53
f 31 53 52
f 32 33 54
f 32 54 53
f 33 34 55
f 33 55 54
f 34 35 56
f 34 56 55
f 35 36 57
f 35 57 56
f 36 37 58
f 36 58 57
f 37 38 59
f 37 59 58
f 38 39 60
f 38 60 59
f 39 40 61
f 39 61 60
f 40 41 62
f 40 62 61
f 41 42 63
f 41 63 62
f 43 44 65
f 43 65 64
f 44 45 66
f 44 66 65
f 45 46 67
f 45 67 66
f 46 47 68
f 46 68 67
f 47 48 69
f 47 69 68
f 48 49 70
f 48 70 69
f 49 50 71
f 49 71 70
f 50 51 72
f 50 72 71
f 51 52 73
f 51 73 72
f 52 53 74
f 52 74 73
f 53 54 75
f 53 75 74
f 54 55 76
f 54 76 75
f 55 56 77
f 55 77 76
f 56 57 78
f 56 78 77
f 57 58 79
f 57 79 78
f 58 59 80
f 58 80 79
f 59 60 81
f 59 81 80
f 60 61 82
f 60 82 81
f 61 62 83
f 61 83 82
f 62 63 84
f 62 84 83
f 64 65 86
f 64 86 85
f 65 66 87
f 65 87 86
f 66 67 88
f 66 88 87
f 67 68 89
f 67 89 88
f 68 69 90
f 68 90 89
f 69 70 91
f 69 91 90
f 70 71 92
f 70 92 91
f 71 72 93
f 71 93 92
f 72 73 94
f 72 94 93
f 73 74 95
f 73 95 94
f 74 75 96
f 74 96 95
f 75 76 97
f 75 97 96
f 76 77 98
f 76 98 97
f 77 78 99
f 77 99 98
f 78 79 100
f 78 100 99
f 79 80 101
f 79 101 100
f 80 81 102
f 80 102 101
f 81 82 103
f 81 103 102
f 82 83 104
f 82 104 103
f 83 84 105
f 83 105 104
f 85 86 107
f 85 107 106
f 86 87 108
f 86 108 107
f 87 88 109
f 87 109 108
f 88 89 110
f 88 110 109
f 89 90 111
f 89 111 110
f 90 91 112
f 90 112 111
f 91 92 113
f 91 113 112
f 92 93 114
f 92 114 113
f 93 94 115
f 93 115 114
f 94 95 116
f 94 116 115
f 95 96 117
f 95 117 116
f 96 97 118
f 96 118 117
f 97 98 119
f 97 119 118
f 98 99 120
f 98 120 119
f 99 100 121
f 99 121 120
f 100 101 122
f 100 122 121
f 101 102 123
f 101 123 122
f 102 103 124
f 102 124 123
f 103 104 125
f 103 125 124
f 104 105 126
f 104 126 125
f 106 107 128
f 106 128 127
f 107 108 129
f 107 129 128
f 108 109 130
f 108 130 129
f 109 110 131
f 109 131 130
f 110 111 132
f 110 132 131
f 111 112 133
f 111 133 132
f 112 113 134
f 112 134 133
f 113 114 135
f 113 135 134
f 114 115 136
f 114 136 135
f 115 116 137
f 115 137 136
f 116 117 138
f 116 138 137
f 117 118 139
f 117 139 138
f 118 119 140
f 118 140 139
f 119 120 141
f 119 141 140
f 120 121 142
f 120 142 141
f 121 122 143
f 121 143 142
f 122 123 144
f 122 144 143
f 123 124 145
f 123 145 144
f 124 125 146
f 124 146 145
f 125 126 147
f 125 147 146
f 127 128 149
f 127 149 148
f 128 129 150
f 128 150 149
f 129 130 151
f 129 151 150
f 130 131 152
f 130 152 151
f 131 132 153
f 131 153 152
f 132 133 154
f 132 154 153
f 133 134 155
f 133 155 154
f 134 135 156
f 134 156 155
f 135 136 157
f 135 157 156
f 136 137 158
f 136 158 157
f 137 138 159
f 137 159 158
f 138 139 160
f 138 160 159
f 139 140 161
f 139 161 160
f 140 141 162
f 140 162 161
f 141 142 163
f 141 163 162
f 142 143 164
f 142 164 163
f 143 144 165
f 143 165 164
f 144 145 166
f 144 166 165
f 145 146 167
f 145 167 166
f 146 147 168
f 146 168 167
f 148 149 170
f 148 170 169
f 149 150 171
f 149 171 170
f 150 151 172
f 150 172 171
f 151 152 173
f 151 173 172
f 152 153 174
f 152 174 173
f 153 154 175
f 153 175 174
f 154 155 176
f 154 176 175
f 155 156 177
f 155 177 176
f 156 157 178
f 156 178 177
f 157 158 179
f 157 179 178
f 158 159 180
f 158 180 179
f 159 160 181
f 159 181 180
f 160 161 182
f 160 182 181
f 161 162 183
f 161 183 182
f 162 163 184
f 162 184 183
f 163 164 185
f 163 185 184
f 164 165 186
f 164 186 185
f 165 166 187
f 165 187 186
f 166 167 188
f 166 188 187
f 167 168 189
f 167 189 188
f 191 2 1
f 190 191 1
f 192 3 2
f 191 192 2
f 193 4 3
f 192 193 3
f 194 5 4
f 193 194 4
f 195 6 5
f 194 195 5
f 196 7 6
f 195 196 6
f 197 8 7
f 196 197 7
f 198 9 8
f 197 198 8
f 199 10 9
f 198 199 9
f 200 11 10
f 199 200 10
f 201 12 11
f 200 201 11
f 202 13 12
f 201 202 12
f 203 14 13
f 202 203 13
f 204 15 14
f 203 204 14
f 205 16 15
f 204 205 15
f 206 17 16
f 205 206 16
f 207 18 17
f 206 207 17
f 208 19 18
f 207 208 18
f 209 20 19
f 208 209 19
f 210 21 20
f 209 210 20
f 212 191 190
f 211 212 190
f 213 192 191
f 212 213 191
f 214 193 192
f 213 214 192
f 215 194 193
f 214 215 193
f 216 195 194
f 215 216 194
f 217 196 195
f 216 217 195
f 218 197 196
f 217 218 196
f 219 198 197
f 218 219 197
f 220 199 198
f 219 220 198
f 221 200 199
f 220 221 199
f 222 201 200
f 221 222 200
f 223 202 201
f 222 223 201
f 224 203 202
f 223 224 202
f 225 204 203
f 224 225 203
f 226 205 204
f 225 226 204
f 227 206 205
f 226 227 205
f 228 207 206
f 227 228 206
f 229 208 207
f 228 229 207
f 230 209 208
f 229 230 208
f 231 210 209
f 230 231 209
f 233 212 211
f 232 233 211
f 234 213 212
f 233 234 212
f 235 214 213
f 234 235 213
f 236 215 214
f 235 236 214
f 237 216 215
f 236 237 215
f 238 217 216
f 237 238 216
f 239 218 217
f 238 239 217
f 240 219 218
f 239 240 218
f 241 220 219
f 240 241 219
f 242 221 220
f 241 242 220
f 243 222 221
f 242 243 221
f 244 223 222
f 243 244 222
f 245 224 223
f 244 245 223
f 246 225 224
f 245 246 224
f 247 226 225
f 246 247 225
f 248 227 226
f 247 248 226
f 249 228 227
f 248 249 227
f 250 229 228
f 249 250 228
f 251 230 229
f 250 251 229
f 252 231 230
f 251 252 230
f 254 233 232
f 253 254 232
f 255 234 233
f 254 255 233
f 256 235 234
f 255 256 234
f 257 236 235
f 256 257 235
f 258 237 236
f 257 258 236
f 259 238 237
f 258 259 237
f 260 239 238
f 259 260 238
f 261 240 239
f 260 261 239
f 262 241 240
f 261 262 240
f 263 242 241
f 262 263 241
f 264 243 242
f 263 264 242
f 265 244 243
f 264 265 243
f 266 245 244
f 265 266 244
f 267 246 245
f 266 267 245
f 268 247 246
f 267 268 246
f 269 248 247
f 268 269 247
f 270 249 248
f 269 270 248
f 271 250 249
f 270 271 249
f 272 251 250
f 271 272 250
f 273 252 251
f 272 273 251
f 275 254 253
f 274 275 253
f 276 255 254
f 275 276 254
f 277 256 255
f 276 277 255
f 278 257 256
f 277 278 256
f 279 258 257
f 278 279 257
f 280 259 258
f 279 280 258
f 281 260 259
f 280 281 259
f 282 261 260
f 281 282 260
f 283 262 261
f 282 283 261
f 284 263 262
f 283 284 262
f 285 264 263
f 284 285 263
f 286 265 264
f 285 286 264
f 287 266 265
f 286 287 265
f 288 267 266
f 287 288 266
f 289 268 267
f 288 289 267
f 290 269 268
f 289 290 268
f 291 270 269
f 290 291 269
f 292 271 270
f 291 292 270
f 293 272 271
f 292 293 271
f 294 273 272
f 293 294 272
f 296 275 274
f 295 296 274
f 297 276 275
f 296 297 275
f 298 277 276
f 297 298 276
f 299 278 277
f 298 299 277
f 300 279 278
f 299 300 278
f 301 280 279
f 300 301 279
f 302 281 280
f 301 302 280
f 303 282 281
f 302 303 281
f 304 283 282
f 303 304 282
f 305 284 283
f 304 305 283
f 306 285 284
f 305 306 284
f 307 286 285
f 306 307 285
f 308 287 286
f 307 308 286
f 309 288 287
f 308 309 287
f 310 289 288
f 309 310 288
f 311 290 289
f 310 311 289
f 312 291 290
f 311 312 290
f 313 292 291
f 312 313 291
f 314 293 292
f 313 314 292
f 315 294 293
f 314 315 293
f 317 296 295
f 316 317 295
f 318 297 296
f 317 318 296
f 319 298 297
f 318 319 297
f 320 299 298
f 319 320 298
f 321 300 299
f 320 321 299
f 322 301 300
f 321 322 300
f 323 302 301
f 322 323 301
f 324 303 302
f 323 324 302
f 325 304 303
f 324 325 303
f 326 305 304
f 325 326 304
f 327 306 305
f 326 327 305
f 328 307 306
f 327 328 306
f 329 308 307
f 328 329 307
f 330 309 308
f 329 330 308
f 331 310 309
f 330 331 309
f 332 311 310
f 331 332 310
f 333 312 311
f 332 333 311
f 334 313 312
f 333 334 312
f 335 314 313
f 334 335 313
f 336 315 314
f 335 336 314
f 338 317 316
f 337 338 316
f 339 318 317
f 338 339 317
f 340 319 318
f 339 340 318
f 341 320 319
f 340 341 319
f 342 321 320
f 341 342 320
f 343 322 321
f 342 343 321
f 344 323 322
f 343 344 322
f 345 324 323
f 344 345 323
f 346 325 324
f 345 346 324
f 347 326 325
f 346 347 325
f 348 327 326
f 347 348 326
f 349 328 327
f 348 349 327
f 350 329 328
f 349 350 328
f 351 330 329
f 350 351 329
f 352 331 330
f 351 352 330
f 353 332 331
f 352 353 331
f 354 333 332
f 353 354 332
f 355 334 333
f 354 355 333
f 356 335 334
f 355 356 334
f 357 336 335
f 356 357 335
f 359 338 337
f 358 359 337
f 360 339 338
f 359 360 338
f 361 340 339
f 360 361 339
f 362 341 340
f 361 362 340
f 363 342 341
f 362 363 341
f 364 343 342
f 363 364 342
f 365 344 343
f 364 365 343
f 366 345 344
f 365 366 344
f 367 346 345
f 366 367 345
f 368 347 346
f 367 368 346
f 369 348 347
f 368 369 347
f 370 349 348
f 369 370 348
f 371 350 349
f 370 371 349
f 372 351 350
f 371 372 350
f 373 352 351
f 372 373 351
f 374 353 352
f 373 374 352
f 375 354 353
f 374 375 353
f 376 355 354
f 375 376 354
f 377 356 355
f 376 377 355
f 378 357 356
f 377 378 356
f 380 359 358
f 379 380 358
f 381 360 359
f 380 381 359
f 382 361 360
f 381 382 360
f 383 362 361
f 382 383 361
f 384 363 362
f 383 384 362
f 385 364 363
f 384 385 363
f 386 365 364
f 385 386 364
f 387 366 365
f 386 387 365
f 388 367 366
f 387 388 366
f 389 368 367
f 388 389 367
f 390 369 368
f 389 390 368
f 391 370 369
f 390 391 369
f 392 371 370
f 391 392 370
f 393 372 371
f 392 393 371
f 394 373 372
f 393 394 372
f 395 374 373
f 394 395 373
f 396 375 374
f 395 396 374
f 397 376 375
f 396 397 375
f 398 377 376
f 397 398 376
f 399 378 377
f 398 399 377
f 401 380 379
f 400 401 379
f 402 381 380
f 401 402 380
f 403 382 381
f 402 403 381
f 404 383 382
f 403 404 382
f 405 384 383
f 404 405 383
f 406 385 384
f 405 406 384
f 407 386 385
f 406 407 385
f 408 387 386
f 407 408 386
f 409 388 387
f 408 409 387
f 410 389 388
f 409 410 388
f 411 390 389
f 410 411 389
f 412 391 390
f 411 412 390
f 413 392 391
f 412 413 391
f 414 393 392
f 413 414 392
f 415 394 393
f 414 415 393
f 416 395 394
f 415 416 394
f 417 396 395
f 416 417 395
f 418 397 396
f 417 418 396
f 419 398 397
f 418 419 397
f 420 399 398
f 419 420 398
f 422 401 400
f 421 422 400
f 423 402 401
f 422 423 401
f 424 403 402
f 423 424 402
f 425 404 403
f 424 425 403
f 426 405 404
f 425 426 404
f 427 406 405
f 426 427 405
f 428 407 406
f 427 428 406
f 429 408 407
f 428 429 407
f 430 409 408
f 429 430 408
f 431 410 409
f 430 431 409
f 432 411 410
f 431 432 410
f 433 412 411
f 432 433 411
f 434 413 412
f 433 434 412
f 435 414 413
f 434 435 413
f 436 415 414
f 435 436 414
f 437 416 415
f 436 437 415
f 438 417 416
f 437 438 416
f 439 418 417
f 438 439 417
f 440 419 418
f 439 440 418
f 441 420 419
f 440 441 419
f 443 422 421
f 442 443 421
f 444 423 422
f 443 444 422
f 445 424 423
f 444 445 423
f 446 425 424
f 445 446 424
f 447 426 425
f 446 447 425
f 448 427 426
f 447 448 426
f 449 428 427
f 448 449 427
f 450 429 428
f 449 450 428
f 451 430 429
f 450 451 429
f 452 431 430
f 451 452 430
f 453 432 431
f 452 453 431
f 454 433 432
f 453 454 432
f 455 434 433
f 454 455 433
f 456 435 434
f 455 456 434
f 457 436 435
f 456 457 435
f 458 437 436
f 457 458 436
f 459 438 437
f 458 459 437
f 460 439 438
f 459 460 438
f 461 440 439
f 460 461 439
f 462 441 440
f 461 462 440
f 464 443 442
f 463 464 442
f 465 444 443
f 464 465 443
f 466 445 444
f 465 466 444
f 467 446 445
f 466 467 445
f 468 447 446
f 467 468 446
f 469 448 447
f 468 469 447
f 470 449 448
f 469 470 448
f 471 450 449
f 470 471 449
f 472 451 450
f 471 472 450
f 473 452 451
f 472 473 451
f 474 453 452
f 473 474 452
f 475 454 453
f 474 475 453
f 476 455 454
f 475 476 454
f 477 456 455
f 476 477 455
f 478 457 456
f 477 478 456
f 479 458 457
f 478 479 457
f 480 459 458
f 479 480 458
f 481 460 459
f 480 481 459
f 482 461 460
f 481 482 460
f 483 462 461
f 482 483 461
f 485 464 463
f 484 485 463
f 486 465 464
f 485 486 464
f 487 466 465
f 486 487 465
f 488 467 466
f 487 488 466
f 489 468 467
f 488 489 467
f 491 470 469
f 490 491 469
f 492 471 470
f 491 492 470
f 493 472 471
f 492 493 471
f 494 473 472
f 493 494 472
f 495 474 473
f 494 495 473
f 496 475 474
f 495 496 474
f 497 476 475
f 496 497 475
f 498 477 476
f 497 498 476
f 500 479 478
f 499 500 478
f 501 480 479
f 500 501 479
f 502 481 480
f 501 502 480
f 503 482 481
f 502 503 481
f 504 483 482
f 503 504 482
f 506 485 484
f 505 506 484
f 507 486 485
f 506 507 485
f 508 487 486
f 507 508 486
f 509 488 487
f 508 509 487
f 510 489 488
f 509 510 488
f 511 490 489
f 510 511 489
f 512 491 490
f 511 512 490
f 513 492 491
f 512 513 491
f 514 493 492
f 513 514 492
f 515 494 493
f 514 515 493
f 516 495 494
f 515 516 494
f 517 496 495
f 516 517 495
f 518 497 496
f 517 518 496
f 519 498 497
f 518 519 497
f 520 499 498
f 519 520 498
f 521 500 499
f 520 521 499
f 522 501 500
f 521 522 500
f 523 502 501
f 522 523 501
f 524 503 502
f 523 524 502
f 525 504 503
f 524 525 503
f 527 506 505
f 526 527 505
f 528 507 506
f 527 528 506
f 529 508 507
f 528 529 507
f 530 509 508
f 529 530 508
f 531 510 509
f 530 531 509
f 532 511 510
f 531 532 510
f 533 512 511
f 532 533 511
f 534 513 512
f 533 534 512
f 535 514 513
f 534 535 513
f 536 515 514
f 535 536 514
f 537 516 515
f 536 537 515
f 538 517 516
f 537 538 516
f 539 518 517
f 538 539 517
f 540 519 518
f 539 540 518
f 541 520 519
f 540 541 519
f 542 521 520
f 541 542 520
f 543 522 521
f 542 543 521
f 544 523 522
f 543 544 522
f 545 524 523
f 544 545 523
f 546 525 524
f 545 546 524
f 548 527 526
f 547 548 526
f 549 528 527
f 548 549 527
f 550 529 528
f 549 550 528
f 551 530 529
f 550 551 529
f 552 531 530
f 551 552 530
f 553 532 531
f 552 553 531
f 554 533 532
f 553 554 532
f 555 534 533
f 554 555 533
f 556 535 534
f 555 556 534
f 557 536 535
f 556 557 535
f 558 537 536
f 557 558 536
f 559 538 537
f 558 559 537
f 560 539 538
f 559 560 538
f 561 540 539
f 560 561 539
f 562 541 540
f 561 562 540
f 563 542 541
f 562 563 541
f 564 543 542
f 563 564 542
f 565 544 543
f 564 565 543
f 566 545 544
f 565 566 544
f 567 546 545
f 566 567 545
f 169 170 569
f 169 569 568
f 170 171 570
f 170 570 569
f 171 172 571
f 171 571 570
f 172 173 572
f 172 572 571
f 173 174 573
f 173 573 572
f 174 175 574
f 174 574 573
f 175 176 575
f 175 575 574
f 176 177 576
f 176 576 575
f 177 178 577
f 177 577 576
f 178 179 578
f 178 578 577
f 179 180 579
f 179 579 578
f 180 181 580
f 180 580 579
f 181 182 581
f 181 581 580
f 182 183 582
f 182 582 581
f 183 184 583
f 183 583 582
f 184 185 584
f 184 584 583
f 185 186 585
f 185 585 584
f 186 187 586
f 186 586 585
f 187 188 587
f 187 587 586
f 188 189 588
f 188 588 587
f 568 569 590
f 568 590 589
f 569 570 591
f 569 591 590
f 570 571 592
f 570 592 591
f 571 572 593
f 571 593 592
f 572 573 594
f 572 594 593
f 573 574 595
f 573 595 594
f 574 575 596
f 574 596 595
f 575 576 597
f 575 597 596
f 576 577 598
f 576 598 597
f 577 578 599
f 577 599 598
f 578 579 600
f 578 600 599
f 579 580 601
f 579 601 600
f 580 581 602
f 580 602 601
f 581 582 603
f 581 603 602
f 582 583 604
f 582 604 603
f 583 584 605
f 583 605 604
f 584 585 606
f 584 606 605
f 585 586 607
f 585 607 606
f 586 587 608
f 586 608 607
f 587 588 609
f 587 609 608
f 589 590 611
f 589 611 610
f 590 591 612
f 590 612 611
f 591 592 613
f 591 613 612
f 592 593 614
f 592 614 613
f 593 594 615
f 593 615 614
f 594 595 616
f 594 616 615
f 595 596 617
f 595 617 616
f 596 597 618
f 596 618 617
f 597 598 619
f 597 619 618
f 598 599 620
f 598 620 619
f 599 600 621
f 599 621 620
f 600 601 622
f 600 622 621
f 601 602 623
f 601 623 622
f 602 603 624
f 602 624 623
f 603 604 625
f 603 625 624
f 604 605 626
f 604 626 625
f 605 606 627
f 605 627 626
f 606 607 628
f 606 628 627
f 607 608 629
f 607 629 628
f 608 609 630
f 608 630 629
f 610 611 632
f 610 632 631
f 611 612 633
f 611 633 632
f 612 613 634
f 612 634 633
f 613 614 635
f 613 635 634
f 614 615 636
f 614 636 635
f 615 616 637
f 615 637 636
f 616 617 638
f 616 638 637
f 617 618 639
f 617 639 638
f 618 619 640
f 618 640 639
f 619 620 641
f 619 641 640
f 620 621 642
f 620 642 641
f 621 622 643
f 621 643 642
f 622 623 644
f 622 644 643
f 623 624 645
f 623 645 644
f 624 625 646
f 624 646 645
f 625 626 647
f 625 647 646
f 626 627 648
f 626 648 647
f 627 628 649
f 627 649 648
f 628 629 650
f 628 650 649
f 629 630 651
f 629 651 650
f 631 632 653
f 631 653 652
f 632 633 654
f 632 654 653
f 633 634 655
f 633 655 654
f 634 635 656
f 634 656 655
f 635 636 657
f 635 657 656
f 636 637 658
f 636 658 657
f 637 638 659
f 637 659 658
f 638 639 660
f 638 660 659
f 639 640 661
f 639 661 660
f 640 641 662
f 640 662 661
f 641 642 663
f 641 663 662
f 642 643 664
f 642 664 663
f 643 644 665
f 643 665 664
f 644 645 666
f 644 666 665
f 645 646 667
f 645 667 666
f 646 647 668
f 646 668 667
f 647 648 669
f 647 669 668
f 648 649 670
f 648 670 669
f 649 650 671
f 649 671 670
f 650 651 672
f 650 672 671
f 652 653 674
f 652 674 673
f 653 654 675
f 653 675 674
f 654 655 676
f 654 676 675
f 655 656 677
f 655 677 676
f 656 657 678
f 656 678 677
f 657 658 679
f 657 679 678
f 658 659 680
f 658 680 679
f 659 660 681
f 659 681 680
f 660 661 682
f 660 682 681
f 661 662 683
f 661 683 682
f 662 663 684
f 662 684 683
f 663 664 685
f 663 685 684
f 664 665 686
f 664 686 685
f 665 666 687
f 665 687 686
f 666 667 688
f 666 688 687
f 667 668 689
f 667 689 688
f 668 669 690
f 668 690 689
f 669 670 691
f 669 691 690
f 670 671 692
f 670 692 691
f 671 672 693
f 671 693 692
f 673 674 695
f 673 695 694
f 674 675 696
f 674 696 695
f 675 676 697
f 675 697 696
f 676 677 698
f 676 698 697
f 677 678 699
f 677 699 698
f 678 679 700
f 678 700 699
f 679 680 701
f 679 701 700
f 680 681 702
f 680 702 701
f 681 682 703
f 681 703 702
f 682 683 704
f 682 704 703
f 683 684 705
f 683 705 704
f 684 685 706
f 684 706 705
f 685 686 707
f 685 707 706
f 686 687 708
f 686 708 707
f 687 688 709
f 687 709 708
f 688 689 710
f 688 710 709
f 689 690 711
f 689 711 710
f 690 691 712
f 690 712 711
f 691 692 713
f 691 713 712
f 692 693 714
f 692 714 713
f 694 695 716
f 694 716 715
f 695 696 717
f 695 717 716
f 696 697 718
f 696 718 717
f 697 698 719
f 697 719 718
f 698 699 720
f 698 720 719
f 699 700 721
f 699 721 720
f 700 701 722
f 700 722 721
f 701 702 723
f 701 723 722
f 702 703 724
f 702 724 723
f 703 704 725
f 703 725 724
f 704 705 726
f 704 726 725
f 705 706 727
f 705 727 726
f 706 707 728
f 706 728 727
f 707 708 729
f 707 729 728
f 708 709 730
f 708 730 729
f 709 710 731
f 709 731 730
f 710 711 732
f 710 732 731
f 711 712 733
f 711 733 732
f 712 713 734
f 712 734 733
f 713 714 735
f 713 735 734
f 715 716 737
f 715 737 736
f 716 717 738
f 716 738 737
f 717 718 739
f 717 739 738
f 718 719 740
f 718 740 739
f 719 720 741
f 719 741 740
f 720 721 742
f 720 742 741
f 721 722 743
f 721 743 742
f 722 723 744
f 722 744 743
f 723 724 745
f 723 745 744
f 724 725 746
f 724 746 745
f 725 726 747
f 725 747 746
f 726 727 748
f 726 748 747
f 727 728 749
f 727 749 748
f 728 729 750
f 728 750 749
f 729 730 751
f 729 751 750
f 730 731 752
f 730 752 751
f 731 732 753
f 731 753 752
f 732 733 754
f 732 754 753
f 733 734 755
f 733 755 754
f 734 735 756
f 734 756 755
f 736 737 758
f 736 758 757
f 737 738 759
f 737 759 758
f 738 739 760
f 738 760 759
f 739 740 761
f 739 761 760
f 740 741 762
f 740 762 761
f 741 742 763
f 741 763 762
f 742 743 764
f 742 764 763
f 743 744 765
f 743 765 764
f 744 745 766
f 744 766 765
f 745 746 767
f 745 767 766
f 746 747 768
f 746 768 767
f 747 748 769
f 747 769 768
f 748 749 770
f 748 770 769
f 749 750 771
f 749 771 770
f 750 751 772
f 750 772 771
f 751 752 773
f 751 773 772
f 752 753 774
f 752 774 773
f 753 754 775
f 753 775 774
f 754 755 776
f 754 776 775
f 755 756 777
f 755 777 776
f 757 758 779
f 757 779 778
f 758 759 780
f 758 780 779
f 759 760 781
f 759 781 780
f 760 761 782
f 760 782 781
f 761 762 783
f 761 783 782
f 762 763 784
f 762 784 783
f 763 764 785
f 763 785 784
f 764 765 786
f 764 786 785
f 765 766 787
f 765 787 786
f 766 767 788
f 766 788 787
f 767 768 789
f 767 789 788
f 768 769 790
f 768 790 789
f 769 770 791
f 769 791 790
f 770 771 792
f 770 792 791
f 771 772 793
f 771 793 792
f 772 773 794
f 772 794 793
f 773 774 795
f 773 795 794
f 774 775 796
f 774 796 795
f 775 776 797
f 775 797 796
f 776 777 798
f 776 798 797
f 778 779 800
f 778 800 799
f 779 780 801
f 779 801 800
f 780 781 802
f 780 802 801
f 781 782 803
f 781 803 802
f 782 783 804
f 782 804 803
f 783 784 805
f 783 805 804
f 784 785 806
f 784 806 805
f 785 786 807
f 785 807 806
f 786 787 808
f 786 808 807
f 787 788 809
f 787 809 808
f 788 789 810
f 788 810 809
f 789 790 811
f 789 811 810
f 790 791 812
f 790 812 811
f 791 792 813
f 791 813 812
f 792 793 814
f 792 814 813
f 793 794 815
f 793 815 814
f 794 795 816
f 794 816 815
f 795 796 817
f 795 817 816
f 796 797 818
f 796 818 817
f 797 798 819
f 797 819 818
f 799 800 821
f 799 821 820
f 800 801 822
f 800 822 821
f 801 802 823
f 801 823 822
f 802 803 824
f 802 824 823
f 803 804 825
f 803 825 824
f 804 805 826
f 804 826 825
f 805 806 827
f 805 827 826
f 806 807 828
f 806 828 827
f 807 808 829
f 807 829 828
f 808 809 830
f 808 830 829
f 809 810 831
f 809 831 830
f 810 811 832
f 810 832 831
f 811 812 833
f 811 833 832
f 812 813 834
f 812 834 833
f 813 814 835
f 813 835 834
f 814 815 836
f 814 836 835
f 815 816 837
f 815 837 836
f 816 817 838
f 816 838 837
f 817 818 839
f 817 839 838
f 818 819 840
f 818 840 839
f 820 821 842
f 820 842 841
f 821 822 843
f 821 843 842
f 822 823 844
f 822 844 843
f 823 824 845
f 823 845 844
f 824 825 846
f 824 846 845
f 825 826 847
f 825 847 846
f 826 827 848
f 826 848 847
f 827 828 849
f 827 849 848
f 828 829 850
f 828 850 849
f 829 830 851
f 829 851 850
f 830 831 852
f 830 852 851
f 831 832 853
f 831 853 852
f 832 833 854
f 832 854 853
f 833 834 855
f 833 855 854
f 834 835 856
f 834 856 855
f 835 836 857
f 835 857 856
f 836 837 858
f 836 858 857
f 837 838 859
f 837 859 858
f 838 839 860
f 838 860 859
f 839 840 861
f 839 861 860
f 841 842 863
f 841 863 862
f 842 843 864
f 842 864 863
f 843 844 865
f 843 865 864
f 844 845 866
f 844 866 865
f 845 846 867
f 845 867 866
f 847 848 869
f 847 869 868
f 848 849 870
f 848 870 869
f 849 850 871
f 849 871 870
f 850 851 872
f 850 872 871
f 851 852 873
f 851 873 872
f 852 853 874
f 852 874 873
f 853 854 875
f 853 875 874
f 854 855 876
f 854 876 875
f 856 857 878
f 856 878 877
f 857 858 879
f 857 879 878
f 858 859 880
f 858 880 879
f 859 860 881
f 859 881 880
f 860 861 882
f 860 882 881
f 862 863 884
f 862 884 883
f 863 864 885
f 863 885 884
f 864 865 886
f 864 886 885
f 865 866 887
f 865 887 886
f 866 867 888
f 866 888 887
f 867 868 889
f 867 889 888
f 868 869 890
f 868 890 889
f 869 870 891
f 869 891 890
f 870 871 892
f 870 892 891
f 871 872 893
f 871 893 892
f 872 873 894
f 872 894 893
f 873 874 895
f 873 895 894
f 874 875 896
f 874 896 895
f 875 876 897
f 875 897 896
f 876 877 898
f 876 898 897
f 877 878 899
f 877 899 898
f 878 879 900
f 878 900 899
f 879 880 901
f 879 901 900
f 880 881 902
f 880 902 901
f 881 882 903
f 881 903 902
f 883 884 905
f 883 905 904
f 884 885 906
f 884 906 905
f 885 886 907
f 885 907 906
f 886 887 908
f 886 908 907
f 887 888 909
f 887 909 908
f 888 889 910
f 888 910 909
f 889 890 911
f 889 911 910
f 890 891 912
f 890 912 911
f 891 892 913
f 891 913 912
f 892 893 914
f 892 914 913
f 893 894 915
f 893 915 914
f 894 895 916
f 894 916 915
f 895 896 917
f 895 917 916
f 896 897 918
f 896 918 917
f 897 898 919
f 897 919 918
f 898 899 920
f 898 920 919
f 899 900 921
f 899 921 920
f 900 901 922
f 900 922 921
f 901 902 923
f 901 923 922
f 902 903 924
f 902 924 923
f 904 905 926
f 904 926 925
f 905 906 927
f 905 927 926
f 906 907 928
f 906 928 927
f 907 908 929
f 907 929 928
f 908 909 930
f 908 930 929
f 909 910 931
f 909 931 930
f 910 911 932
f 910 932 931
f 911 912 933
f 911 933 932
f 912 913 934
f 912 934 933
f 913 914 935
f 913 935 934
f 914 915 936
f 914 936 935
f 915 916 937
f 915 937 936
f 916 917 938
f 916 938 937
f 917 918 939
f 917 939 938
f 918 919 940
f 918 940 939
f 919 920 941
f 919 941 940
f 920 921 942
f 920 942 941
f 921 922 943
f 921 943 942
f 922 923 944
f 922 944 943
f 923 924 945
f 923 945 944
f 1 22 946
f 1 946 190
f 22 43 947
f 22 947 946
f 43 64 948
f 43 948 947
f 64 85 949
f 64 949 948
f 85 106 950
f 85 950 949
f 106 127 951
f 106 951 950
f 127 148 952
f 127 952 951
f 148 169 568
f 148 568 952
f 190 946 953
f 190 953 211
f 946 947 954
f 946 954 953
f 947 948 955
f 947 955 954
f 948 949 956
f 948 956 955
f 949 950 957
f 949 957 956
f 950 951 958
f 950 958 957
f 951 952 959
f 951 959 958
f 952 568 589
f 952 589 959
f 211 953 960
f 211 960 232
f 953 954 961
f 953 961 960
f 954 955 962
f 954 962 961
f 955 956 963
f 955 963 962
f 956 957 964
f 956 964 963
f 957 958 965
f 957 965 964
f 958 959 966
f 958 966 965
f 959 589 610
f 959 610 966
f 232 960 967
f 232 967 253
f 960 961 968
f 960 968 967
f 961 962 969
f 961 969 968
f 962 963 970
f 962 970 969
f 963 964 971
f 963 971 970
f 964 965 972
f 964 972 971
f 965 966 973
f 965 973 972
f 966 610 631
f 966 631 973
f 253 967 974
f 253 974 274
f 967 968 975
f 967 975 974
f 968 969 976
f 968 976 975
f 969 970 977
f 969 977 976
f 970 971 978
f 970 978 977
f 971 972 979
f 971 979 978
f 972 973 980
f 972 980 979
f 973 631 652
f 973 652 980
f 274 974 981
f 274 981 295
f 974 975 982
f 974 982 981
f 975 976 983
f 975 983 982
f 976 977 984
f 976 984 983
f 977 978 985
f 977 985 984
f 978 979 986
f 978 986 985
f 979 980 987
f 979 987 986
f 980 652 673
f 980 673 987
f 295 981 988
f 295 988 316
f 981 982 989
f 981 989 988
f 982 983 990
f 982 990 989
f 983 984 991
f 983 991 990
f 984 985 992
f 984 992 991
f 985 986 993
f 985 993 992
f 986 987 994
f 986 994 993
f 987 673 694
f 987 694 994
f 316 988 995
f 316 995 337
f 988 989 996
f 988 996 995
f 989 990 997
f 989 997 996
f 990 991 998
f 990 998 997
f 991 992 999
f 991 999 998
f 992 993 1000
f 992 1000 999
f 993 994 1001
f 993 1001 1000
f 994 694 715
f 994 715 1001
f 337 995 1002
f 337 1002 358
f 995 996 1003
f 995 1003 1002
f 996 997 1004
f 996 1004 1003
f 997 998 1005
f 997 1005 1004
f 998 999 1006
f 998 1006 1005
f 999 1000 1007
f 999 1007 1006
f 1000 1001 1008
f 1000 1008 1007
f 1001 715 736
f 1001 736 1008
f 358 1002 1009
f 358 1009 379
f 1002 1003 1010
f 1002 1010 1009
f 1003 1004 1011
f 1003 1011 1010
f 1004 1005 1012
f 1004 1012 1011
f 1005 1006 1013
f 1005 1013 1012
f 1006 1007 1014
f 1006 1014 1013
f 1007 1008 1015
f 1007 1015 1014
f 1008 736 757
f 1008 757 1015
f 379 1009 1016
f 379 1016 400
f 1009 1010 1017
f 1009 1017 1016
f 1010 1011 1018
f 1010 1018 1017
f 1011 1012 1019
f 1011 1019 1018
f 1012 1013 1020
f 1012 1020 1019
f 1013 1014 1021
f 1013 1021 1020
f 1014 1015 1022
f 1014 1022 1021
f 1015 757 778
f 1015 778 1022
f 400 1016 1023
f 400 1023 421
f 1016 1017 1024
f 1016 1024 1023
f 1017 1018 1025
f 1017 1025 1024
f 1018 1019 1026
f 1018 1026 1025
f 1019 1020 1027
f 1019 1027 1026
f 1020 1021 1028
f 1020 1028 1027
f 1021 1022 1029
f 1021 1029 1028
f 1022 778 799
f 1022 799 1029
f 421 1023 1030
f 421 1030 442
f 1023 1024 1031
f 1023 1031 1030
f 1024 1025 1032
f 1024 1032 1031
f 1025 1026 1033
f 1025 1033 1032
f 1026 1027 1034
f 1026 1034 1033
f 1027 1028 1035
f 1027 1035 1034
f 1028 1029 1036
f 1028 1036 1035
f 1029 799 820
f 1029 820 1036
f 442 1030 1037
f 442 1037 463
f 1030 1031 1038
f 1030 1038 1037
f 1031 1032 1039
f 1031 1039 1038
f 1032 1033 1040
f 1032 1040 1039
f 1033 1034 1041
f 1033 1041 1040
f 1034 1035 1042
f 1034 1042 1041
f 1035 1036 1043
f 1035 1043 1042
f 1036 820 841
f 1036 841 1043
f 463 1037 1044
f 463 1044 484
f 1037 1038 1045
f 1037 1045 1044
f 1038 1039 1046
f 1038 1046 1045
f 1039 1040 1047
f 1039 1047 1046
f 1040 1041 1048
f 1040 1048 1047
f 1041 1042 1049
f 1041 1049 1048
f 1042 1043 1050
f 1042 1050 1049
f 1043 841 862
f 1043 862 1050
f 484 1044 1051
f 484 1051 505
f 1044 1045 1052
f 1044 1052 1051
f 1045 1046 1053
f 1045 1053 1052
f 1046 1047 1054
f 1046 1054 1053
f 1047 1048 1055
f 1047 1055 1054
f 1048 1049 1056
f 1048 1056 1055
f 1049 1050 1057
f 1049 1057 1056
f 1050 862 883
f 1050 883 1057
f 505 1051 1058
f 505 1058 526
f 1051 1052 1059
f 1051 1059 1058
f 1052 1053 1060
f 1052 1060 1059
f 1053 1054 1061
f 1053 1061 1060
f 1054 1055 1062
f 1054 1062 1061
f 1055 1056 1063
f 1055 1063 1062
f 1056 1057 1064
f 1056 1064 1063
f 1057 883 904
f 1057 904 1064
f 526 1058 1065
f 526 1065 547
f 1058 1059 1066
f 1058 1066 1065
f 1059 1060 1067
f 1059 1067 1066
f 1060 1061 1068
f 1060 1068 1067
f 1061 1062 1069
f 1061 1069 1068
f 1062 1063 1070
f 1062 1070 1069
f 1063 1064 1071
f 1063 1071 1070
f 1064 904 925
f 1064 925 1071
f 1072 42 21
f 210 1072 21
f 1073 63 42
f 1072 1073 42
f 1074 84 63
f 1073 1074 63
f 1075 105 84
f 1074 1075 84
f 1076 126 105
f 1075 1076 105
f 1077 147 126
f 1076 1077 126
f 1078 168 147
f 1077 1078 147
f 588 189 168
f 1078 588 168
f 1079 1072 210
f 231 1079 210
f 1080 1073 1072
f 1079 1080 1072
f 1081 1074 1073
f 1080 1081 1073
f 1082 1075 1074
f 1081 1082 1074
f 1083 1076 1075
f 1082 1083 1075
f 1084 1077 1076
f 1083 1084 1076
f 1085 1078 1077
f 1084 1085 1077
f 609 588 1078
f 1085 609 1078
f 1086 1079 231
f 252 1086 231
f 1087 1080 1079
f 1086 1087 1079
f 1088 1081 1080
f 1087 1088 1080
f 1089 1082 1081
f 1088 1089 1081
f 1090 1083 1082
f 1089 1090 1082
f 1091 1084 1083
f 1090 1091 1083
f 1092 1085 1084
f 1091 1092 1084
f 630 609 1085
f 1092 630 1085
f 1093 1086 252
f 273 1093 252
f 1094 1087 1086
f 1093 1094 1086
f 1095 1088 1087
f 1094 1095 1087
f 1096 1089 1088
f 1095 1096 1088
f 1097 1090 1089
f 1096 1097 1089
f 1098 1091 1090
f 1097 1098 1090
f 1099 1092 1091
f 1098 1099 1091
f 651 630 1092
f 1099 651 1092
f 1100 1093 273
f 294 1100 273
f 1101 1094 1093
f 1100 1101 1093
f 1102 1095 1094
f 1101 1102 1094
f 1103 1096 1095
f 1102 1103 1095
f 1104 1097 1096
f 1103 1104 1096
f 1105 1098 1097
f 1104 1105 1097
f 1106 1099 1098
f 1105 1106 1098
f 672 651 1099
f 1106 672 1099
f 1107 1100 294
f 315 1107 294
f 1108 1101 1100
f 1107 1108 1100
f 1109 1102 1101
f 1108 1109 1101
f 1110 1103 1102
f 1109 1110 1102
f 1111 1104 1103
f 1110 1111 1103
f 1112 1105 1104
f 1111 1112 1104
f 1113 1106 1105
f 1112 1113 1105
f 693 672 1106
f 1113 693 1106
f 1114 1107 315
f 336 1114 315
f 1115 1108 1107
f 1114 1115 1107
f 1116 1109 1108
f 1115 1116 1108
f 1117 1110 1109
f 1116 1117 1109
f 1118 1111 1110
f 1117 1118 1110
f 1119 1112 1111
f 1118 1119 1111
f 1120 1113 1112
f 1119 1120 1112
f 714 693 1113
f 1120 714 1113
f 1121 1114 336
f 357 1121 336
f 1122 1115 1114
f 1121 1122 1114
f 1123 1116 1115
f 1122 1123 1115
f 1124 1117 1116
f 1123 1124 1116
f 1125 1118 1117
f 1124 1125 1117
f 1126 1119 1118
f 1125 1126 1118
f 1127 1120 1119
f 1126 1127 1119
f 735 714 1120
f 1127 735 1120
f 1128 1121 357
f 378 1128 357
f 1129 1122 1121
f 1128 1129 1121
f 1130 1123 1122
f 1129 1130 1122
f 1131 1124 1123
f 1130 1131 1123
f 1132 1125 1124
f 1131 1132 1124
f 1133 1126 1125
f 1132 1133 1125
f 1134 1127 1126
f 1133 1134 1126
f 756 735 1127
f 1134 756 1127
f 1135 1128 378
f 399 1135 378
f 1136 1129 1128
f 1135 1136 1128
f 1137 1130 1129
f 1136 1137 1129
f 1138 1131 1130
f 1137 1138 1130
f 1139 1132 1131
f 1138 1139 1131
f 1140 1133 1132
f 1139 1140 1132
f 1141 1134 1133
f 1140 1141 1133
f 777 756 1134
f 1141 777 1134
f 1142 1135 399
f 420 1142 399
f 1143 1136 1135
f 1142 1143 1135
f 1144 1137 1136
f 1143 1144 1136
f 1145 1138 1137
f 1144 1145 1137
f 1146 1139 1138
f 1145 1146 1138
f 1147 1140 1139
f 1146 1147 1139
f 1148 1141 1140
f 1147 1148 1140
f 798 777 1141
f 1148 798 1141
f 1149 1142 420
f 441 1149 420
f 1150 1143 1142
f 1149 1150 1142
f 1151 1144 1143
f 1150 1151 1143
f 1152 1145 1144
f 1151 1152 1144
f 1153 1146 1145
f 1152 1153 1145
f 1154 1147 1146
f 1153 1154 1146
f 1155 1148 1147
f 1154 1155 1147
f 819 798 1148
f 1155 819 1148
f 1156 1149 441
f 462 1156 441
f 1157 1150 1149
f 1156 1157 1149
f 1158 1151 1150
f 1157 1158 1150
f 1159 1152 1151
f 1158 1159 1151
f 1160 1153 1152
f 1159 1160 1152
f 1161 1154 1153
f 1160 1161 1153
f 1162 1155 1154
f 1161 1162 1154
f 840 819 1155
f 1162 840 1155
f 1163 1156 462
f 483 1163 462
f 1164 1157 1156
f 1163 1164 1156
f 1165 1158 1157
f 1164 1165 1157
f 1166 1159 1158
f 1165 1166 1158
f 1167 1160 1159
f 1166 1167 1159
f 1168 1161 1160
f 1167 1168 1160
f 1169 1162 1161
f 1168 1169 1161
f 861 840 1162
f 1169 861 1162
f 1170 1163 483
f 504 1170 483
f 1171 1164 1163
f 1170 1171 1163
f 1172 1165 1164
f 1171 1172 1164
f 1173 1166 1165
f 1172 1173 1165
f 1174 1167 1166
f 1173 1174 1166
f 1175 1168 1167
f 1174 1175 1167
f 1176 1169 1168
f 1175 1176 1168
f 882 861 1169
f 1176 882 1169
f 1177 1170 504
f 525 1177 504
f 1178 1171 1170
f 1177 1178 1170
f 1179 1172 1171
f 1178 1179 1171
f 1180 1173 1172
f 1179 1180 1172
f 1181 1174 1173
f 1180 1181 1173
f 1182 1175 1174
f 1181 1182 1174
f 1183 1176 1175
f 1182 1183 1175
f 903 882 1176
f 1183 903 1176
f 1184 1177 525
f 546 1184 525
f 1185 1178 1177
f 1184 1185 1177
f 1186 1179 1178
f 1185 1186 1178
f 1187 1180 1179
f 1186 1187 1179
f 1188 1181 1180
f 1187 1188 1180
f 1189 1182 1181
f 1188 1189 1181
f 1190 1183 1182
f 1189 1190 1182
f 924 903 1183
f 1190 924 1183
f 1191 1184 546
f 567 1191 546
f 1192 1185 1184
f 1191 1192 1184
f 1193 1186 1185
f 1192 1193 1185
f 1194 1187 1186
f 1193 1194 1186
f 1195 1188 1187
f 1194 1195 1187
f 1196 1189 1188
f 1195 1196 1188
f 1197 1190 1189
f 1196 1197 1189
f 945 924 1190
f 1197 945 1190
f 468 489 490
f 469 468 490
f 478 477 498
f 478 498 499
f 868 867 846
f 868 846 847
f 876 855 856
f 877 876 856
