# https://github.com/mikedh/trimesh

o collision
v -0.03554000 -0.02999800 -0.02039900
v -0.03192800 -0.02999800 -0.02568700
v -0.03959700 -0.02999800 -0.01055500
v -0.03749400 -0.02999800 -0.01659400
v -0.03650300 -0.03201500 -0.01306000
v -0.04048000 -0.02999800 -0.00637900
v -0.04092200 -0.02999800 -0.00212900
v -0.04092200 -0.02999800 0.00210500
v -0.04092200 -0.02999800 0.00213500
v -0.03819500 -0.03246800 0.00004000
v -0.03265700 -0.03400800 -0.01527400
v -0.03579100 -0.03371400 -0.00706800
v -0.03228500 -0.03599600 -0.00492600
v -0.02673200 -0.02999700 -0.03108600
v -0.02674886 -0.02999800 -0.03106707
v -0.02674625 -0.03000028 -0.03106900
v -0.02675000 -0.02999700 -0.03106900
v -0.02673400 -0.03001100 -0.03105878
v -0.02653588 -0.03012494 -0.03106900
v -0.02652583 -0.03013010 -0.03106900
v -0.02658985 -0.03009724 -0.03105964
v -0.02658985 -0.03009724 -0.03103900
v -0.02906700 -0.02999800 -0.02888600
v -0.02533532 -0.03084777 -0.03106900
v -0.02507200 -0.02999700 -0.03244000
v -0.02417100 -0.03153600 -0.03106900
v -0.02377700 -0.03104000 -0.03209000
v -0.02316800 -0.03203200 -0.03106900
v -0.02334300 -0.02999700 -0.03370500
v -0.02143822 -0.03286156 -0.03106900
v -0.02121700 -0.03295400 -0.03106900
v -0.02131100 -0.03203200 -0.03243400
v -0.02086400 -0.03221400 -0.03244400
v -0.02155700 -0.02999700 -0.03487500
v -0.02086800 -0.03057700 -0.03460500
v -0.02086800 -0.02999700 -0.03527600
v -0.02549900 -0.03381500 -0.02593900
v -0.02553100 -0.03599600 -0.02023700
v -0.02948000 -0.03452100 -0.01937300
v -0.02655900 -0.01115100 -0.04199900
v -0.02633337 -0.01167152 -0.03593444
v -0.02634006 -0.01165755 -0.03593424
v -0.02668688 -0.01084067 -0.03593487
v -0.02668800 -0.01083800 -0.03593500
v -0.02684029 -0.01042265 -0.03593500
v -0.02375557 -0.01628610 -0.03593493
v -0.02086700 -0.01985400 -0.04199900
v -0.02086400 -0.01985500 -0.04200000
v -0.02092900 -0.01979600 -0.04199900
v -0.02086700 -0.02053600 -0.03593500
v -0.02285900 -0.01752800 -0.04199900
v -0.02086702 -0.01864399 -0.04199900
v -0.02086700 -0.01864300 -0.04199900
v -0.02086400 -0.01864400 -0.04200000
v -0.02089186 -0.01863948 -0.03593500
v -0.02086800 -0.01863944 -0.03593066
v -0.02086800 -0.01863900 -0.03531067
v -0.02083800 -0.01863900 -0.03531067
v -0.02525400 -0.01385400 -0.04199900
v -0.02427400 -0.01549900 -0.04199899
v -0.02461219 -0.01495552 -0.03593500
v -0.02442324 -0.01527216 -0.03593486
v -0.02535749 -0.01366892 -0.03593500
v -0.04050400 -0.03000300 0.00639600
v -0.03898700 -0.02999800 0.01261800
v -0.03704900 -0.03294700 0.00632900
v -0.03722300 -0.02999800 0.01708100
v -0.03437200 -0.03490500 0.00411000
v -0.03523900 -0.03339700 0.01136600
v -0.03156700 -0.03599600 0.00815200
v -0.03443200 -0.02999800 0.02222200
v -0.03196000 -0.03359700 0.01802800
v -0.03192400 -0.02999800 0.02569300
v -0.02815500 -0.03599600 0.01638800
v -0.02779300 -0.03351700 0.02398300
v -0.02211100 -0.03599600 0.02395700
v -0.02790700 -0.02999800 0.02998000
v -0.02233600 -0.03272100 0.03056000
v -0.02289200 -0.02999800 0.03395900
v -0.03599700 0.01472100 -0.01961700
v -0.03547500 0.01472100 -0.02053600
v -0.03486017 0.01472100 -0.02157217
v -0.03434713 0.01472100 -0.02235072
v -0.03427100 0.01472100 -0.02248100
v -0.03371700 0.01472100 -0.02332200
v -0.03436879 0.01472100 -0.02231371
v -0.03166045 0.01472100 -0.02602890
v -0.03109207 0.01472100 -0.02671811
v -0.03100621 0.01472100 -0.02681540
v -0.03105962 0.01475100 -0.02675644
v -0.03105022 0.01475059 -0.02676699
v -0.03309100 0.01472100 -0.02418400
v -0.03242500 0.01472100 -0.02508200
v -0.03973800 0.01472100 -0.01009200
v -0.04005900 0.01472100 -0.00868800
v -0.03943025 0.01472100 -0.01122370
v -0.03946044 0.01475100 -0.01112700
v -0.03866200 0.01472100 -0.01365400
v -0.03948339 0.01472100 -0.01104237
v -0.03948331 0.01472685 -0.01104264
v -0.03742002 0.01472100 -0.01676264
v -0.03751861 0.01472100 -0.01654400
v -0.03747800 0.01472100 -0.01665700
v -0.03675200 0.01472100 -0.01812100
v -0.04045300 0.01472100 -0.00661500
v -0.04040546 0.01472100 -0.00680036
v -0.04061300 0.01472100 -0.00556800
v -0.04028400 0.01472100 -0.00762700
v -0.04032983 0.01472100 -0.00714292
v -0.04070472 0.01472100 -0.00481563
v -0.04075800 0.01472100 -0.00436400
v -0.04086690 0.01472100 -0.00331100
v -0.04093186 0.01409614 -0.00178783
v -0.04093170 0.01469100 -0.00181606
v -0.04093170 0.01472100 -0.00181606
v -0.04098463 0.01472100 -0.00079004
v -0.04099000 0.01472461 -0.00070897
v -0.04099800 0.01472100 0.00001800
v -0.02833759 -0.00762092 -0.03103900
v -0.02828100 -0.00550500 -0.04200000
v -0.02864500 -0.00298900 -0.04199900
v -0.02833991 -0.00518445 -0.03593472
v -0.02862651 -0.00317129 -0.03593500
v -0.02756400 -0.00838100 -0.04199900
v -0.02729832 -0.00917306 -0.03593500
v -0.02729700 -0.00918000 -0.03593500
v -0.02754328 -0.00844115 -0.03593500
v -0.02754410 -0.00843871 -0.03593500
v -0.02781774 -0.00744167 -0.03593500
v -0.02770028 -0.00404224 -0.04199900
v -0.02770053 -0.00403827 -0.04118830
v -0.02813685 -0.00616361 -0.03593447
v -0.02770588 -0.00403960 -0.03593500
v -0.02770588 -0.00403960 -0.03596500
v -0.02879800 -0.00079500 -0.04199900
v -0.02869376 -0.00247356 -0.03596500
v -0.02874885 -0.00177084 -0.03106900
v -0.02874518 -0.00176963 -0.03103900
v -0.02879489 -0.00070655 -0.03106190
v -0.02879757 -0.00064448 -0.03106287
v -0.02879822 -0.00062939 -0.03106232
v -0.02879910 -0.00054633 -0.03105927
v -0.02879930 -0.00042403 -0.03106900
v -0.02879930 -0.00042403 -0.03104295
v -0.02872200 0.00226900 -0.04199900
v -0.02880100 0.00064800 -0.03106900
v -0.02879500 0.00089200 -0.03106900
v -0.02873600 0.00206200 -0.03106900
v -0.02865800 0.00291300 -0.03106900
v -0.02831700 0.00529400 -0.04199900
v -0.02838995 0.00485596 -0.03592566
v -0.02844495 0.00453430 -0.03106900
v -0.02825000 0.00562800 -0.03593500
v -0.02811100 0.00623600 -0.03593500
v -0.02768500 0.00795600 -0.04199900
v -0.02783400 0.00740400 -0.03592333
v -0.02603600 0.01472100 -0.04199900
v -0.02604404 0.01469100 -0.04172448
v -0.02604404 0.01472100 -0.04172448
v -0.02692268 0.01396930 -0.03106900
v -0.02692268 0.01396930 -0.03103900
v -0.02605931 0.01469100 -0.03593495
v -0.02605931 0.01472100 -0.03593495
v -0.02624970 0.01469100 -0.03469970
v -0.02624970 0.01472100 -0.03469970
v -0.02625141 0.01472100 -0.03464124
v -0.02676940 0.01469100 -0.03132785
v -0.02676940 0.01472100 -0.03132785
v -0.02676068 0.01472100 -0.03133705
v -0.02680663 0.01469100 -0.03108620
v -0.02680678 0.01469100 -0.03108505
v -0.02680684 0.01472100 -0.03106098
v -0.02680623 0.01472100 -0.03108894
v -0.02633500 0.01472100 -0.03178182
v -0.02948203 0.01472100 -0.02849300
v -0.03033700 0.01472100 -0.02756800
v -0.02523786 0.01472100 -0.04191802
v -0.02523032 0.01477863 -0.04199900
v -0.02522600 0.01481100 -0.04199900
v -0.02524920 0.01458245 -0.03593500
v -0.02522725 0.01472100 -0.03593500
v -0.02519706 0.01472100 -0.03593045
v -0.02519282 0.01472100 -0.03592487
v -0.02517310 0.01472100 -0.03238718
v -0.02514310 0.01472100 -0.03238718
v -0.02486213 0.01472100 -0.03260491
v -0.02399024 0.01472100 -0.03323461
v -0.02286886 0.01472100 -0.03403464
v -0.02220757 0.01472100 -0.03446376
v -0.02086800 0.01375346 -0.03531408
v -0.02083800 0.01375346 -0.03531408
v -0.02090804 0.01472100 -0.03527186
v -0.02086844 0.01472100 -0.03529606
v -0.04094200 0.01472100 0.00333700
v -0.04083415 0.01472100 0.00562406
v -0.04082511 0.01472100 0.00581204
v -0.04071700 0.01472100 0.00804700
v -0.04021213 0.01472100 0.01615200
v -0.04021200 0.01481300 0.01618300
v -0.04020700 0.01472100 0.01615200
v -0.04020786 0.01472100 0.01615200
v -0.04020784 0.01472100 0.01615300
v -0.03093100 0.01472100 0.02691900
v -0.03060000 0.01472100 0.02728400
v -0.03029715 0.01472100 0.02761930
v -0.02827431 0.01472100 0.02966869
v -0.02787551 0.01472100 0.03006105
v -0.02796455 0.01475100 0.02998208
v -0.02795900 0.01475100 0.02998717
v -0.02729105 0.01472100 0.03059694
v -0.02467800 0.01472100 0.03274000
v -0.02428700 0.01472100 0.03302900
v -0.02389100 0.01472100 0.03332400
v -0.02123098 0.01472100 0.03507153
v -0.02110432 0.01472100 0.03515190
v -0.02113685 0.01475100 0.03513309
v -0.02040618 -0.03327059 -0.03104000
v -0.02040618 -0.03327059 -0.03107000
v -0.02027213 -0.03332377 -0.03107000
v -0.02027793 -0.03332147 -0.03106416
v -0.02018312 -0.03335907 -0.03107000
v -0.02018312 -0.03335907 -0.03104000
v -0.01919000 -0.03375300 -0.03107000
v -0.01898300 -0.03382600 -0.03107000
v -0.01899900 -0.03296300 -0.03248900
v -0.02030900 -0.03104100 -0.03438900
v -0.01672400 -0.03383100 -0.03235700
v -0.01637438 -0.03465747 -0.03107000
v -0.01615000 -0.03463700 -0.03124300
v -0.01616900 -0.03471700 -0.03107000
v -0.01572933 -0.03482795 -0.03107000
v -0.01551900 -0.03296300 -0.03428800
v -0.01782400 -0.03203500 -0.03447400
v -0.01943500 -0.03599600 -0.02619800
v -0.01382200 -0.03530300 -0.03107000
v -0.01347700 -0.03537600 -0.03107000
v -0.01367400 -0.03463200 -0.03239800
v -0.01330000 -0.03384200 -0.03389000
v -0.01281100 -0.03295600 -0.03538700
v -0.01153100 -0.03537400 -0.03185200
v -0.01109100 -0.03463500 -0.03337500
v -0.01074215 -0.03588855 -0.03107000
v -0.01051565 -0.03592867 -0.03107000
v -0.01059800 -0.03382500 -0.03484400
v -0.01261400 -0.03266000 -0.03586700
v -0.01349700 -0.02821300 -0.04168900
v -0.01349700 -0.02781000 -0.04195600
v -0.01350400 -0.02747200 -0.04200300
v -0.01347700 -0.02510700 -0.04200000
v -0.01302800 -0.02596600 -0.04200000
v -0.01407800 -0.02436600 -0.04200000
v -0.01269600 -0.02810800 -0.04179900
v -0.01269900 -0.02768300 -0.04197600
v -0.01278500 -0.02680600 -0.04200000
v -0.01867300 -0.01863900 -0.03649350
v -0.01938688 -0.01863900 -0.03613006
v -0.01787276 -0.01863900 -0.03689912
v -0.01678074 -0.01863900 -0.03740766
v -0.01354000 -0.01863900 -0.03882600
v -0.01340500 -0.01863900 -0.03886800
v -0.01011304 -0.03598635 -0.03107000
v -0.01008909 -0.03598949 -0.03105592
v -0.01006918 -0.03599209 -0.03106915
v -0.01003929 -0.03599600 -0.03105902
v -0.00886100 -0.03537600 -0.03270100
v -0.00794600 -0.03366500 -0.03579900
v -0.00764000 -0.03465000 -0.03430300
v -0.00718400 -0.03599800 -0.03186600
v -0.00643500 -0.03537300 -0.03325900
v -0.00411100 -0.03461800 -0.03495700
v -0.00367100 -0.03537600 -0.03368300
v -0.00383900 -0.03599800 -0.03244100
v -0.00353700 -0.03413600 -0.03580100
v -0.00054900 -0.03536800 -0.03388800
v -0.00047700 -0.03464700 -0.03514600
v -0.00871240 -0.01863900 -0.04007228
v -0.00552900 -0.01863900 -0.04062500
v -0.00330684 -0.01863900 -0.04086601
v -0.00115483 -0.01863900 -0.04097724
v -0.00058102 -0.01863901 -0.04100221
v -0.01877200 -0.02999800 0.03642900
v -0.01705100 -0.03599600 0.02787600
v -0.01175700 -0.03599600 0.03042300
v -0.01168700 -0.03339700 0.03508200
v -0.01336300 -0.02999800 0.03871700
v -0.00618400 -0.03419900 0.03522700
v -0.00874300 -0.02999800 0.04003800
v -0.00274574 -0.03598420 0.03258447
v -0.00272300 -0.03599600 0.03256700
v -0.00402800 -0.02999800 0.04077500
v -0.01613989 0.01469100 -0.03768561
v -0.01546544 0.01469100 -0.03797269
v -0.01349541 0.01471800 -0.03879141
v -0.00862290 0.01474800 -0.04009302
v -0.00553913 0.01471800 -0.04062198
v -0.02028600 0.01472100 0.03562500
v -0.01826900 0.01472100 0.03667339
v -0.01736495 0.01472100 0.03713752
v -0.01735414 0.01472100 0.03714200
v -0.01646500 0.01472100 0.03754900
v -0.01432200 0.01472100 0.03838900
v -0.01351527 0.01472100 0.03869982
v -0.01335712 0.01472100 0.03875879
v -0.01340368 0.01475100 0.03874281
v -0.01246700 0.01472100 0.03905900
v -0.00929600 0.01472100 0.03993500
v -0.00881200 0.01472100 0.04003800
v -0.00880879 0.01469100 0.04003850
v -0.00872829 0.01472100 0.04005261
v -0.00834764 0.01472100 0.04013885
v -0.00500100 0.01472100 0.04069800
v -0.00341659 0.01472100 0.04084889
v -0.00327351 0.01472100 0.04083096
v -0.00318975 0.01472100 0.04083336
v -0.00154900 0.01472100 0.04096800
v -0.00001400 0.01472100 0.04098902
v -0.02633176 0.01924199 -0.03178136
v -0.02600200 0.03864100 -0.04197700
v -0.02600200 0.03990000 -0.04170000
v -0.02600200 0.04087900 -0.04126800
v -0.02600200 0.04164100 -0.04077100
v -0.02520200 0.03851000 -0.04198700
v -0.02520200 0.03969100 -0.04176500
v -0.02520300 0.04081900 -0.04130600
v -0.02520300 0.04182800 -0.04062900
v -0.03593400 0.05289100 -0.01974500
v -0.03473700 0.04603100 -0.02177600
v -0.03230400 0.04603100 -0.02524500
v -0.03219033 0.04603100 -0.02538709
v -0.03325568 0.04603100 -0.02396560
v -0.03469683 0.05289100 -0.02183650
v -0.03414463 0.05289100 -0.02267156
v -0.03414463 0.05292100 -0.02266799
v -0.03416211 0.05289100 -0.02264302
v -0.03416211 0.05292100 -0.02264302
v -0.03340500 0.05289100 -0.02376400
v -0.03359700 0.05289100 -0.02349300
v -0.03227300 0.05289100 -0.02528100
v -0.03077100 0.05289100 -0.02709800
v -0.03955300 0.04603100 -0.01082930
v -0.04059700 0.04603100 -0.00573900
v -0.04086989 0.04600100 -0.00333898
v -0.04100300 0.04946100 -0.00027200
v -0.03945800 0.05289100 -0.01113200
v -0.03911566 0.05289100 -0.01221964
v -0.03911034 0.05289100 -0.01223530
v -0.03865500 0.05289100 -0.01369000
v -0.03962700 0.05289100 -0.01057600
v -0.03745088 0.05289100 -0.01671945
v -0.03745088 0.05292100 -0.01671945
v -0.03747010 0.05289100 -0.01667504
v -0.04059000 0.05289100 -0.00577500
v -0.04024306 0.05289100 -0.00783170
v -0.04026138 0.05289100 -0.00773504
v -0.04024306 0.05292100 -0.00783170
v -0.04020527 0.05289100 -0.00800878
v -0.04086282 0.05289100 -0.00338114
v -0.04086450 0.05289100 -0.00337162
v -0.04086450 0.05289100 -0.00334162
v -0.04086564 0.05289100 -0.00331717
v -0.04087184 0.05289100 -0.00332285
v -0.04100700 0.05289100 -0.00028200
v -0.04096814 0.05289100 0.00153837
v -0.04096814 0.05289100 0.00156837
v -0.04096328 0.05289100 0.00194241
v -0.03592600 0.06100200 -0.01976400
v -0.03412800 0.06100100 -0.02269300
v -0.03086000 0.06100700 -0.02699700
v -0.03959600 0.06099800 -0.01067400
v -0.03805400 0.06099600 -0.01520700
v -0.04041400 0.06100100 -0.00682000
v -0.04086400 0.06100000 -0.00336000
v -0.04100900 0.06100000 -0.00034600
v -0.03637200 0.06392700 -0.00632800
v -0.03653100 0.06417900 0.00120100
v -0.03512800 0.06371400 -0.01262300
v -0.03322500 0.06392100 -0.01667800
v -0.03351000 0.06612000 0.00166300
v -0.03098900 0.06758200 -0.00177700
v -0.02631400 0.04399900 -0.03178600
v -0.02631392 0.04400065 -0.03177880
v -0.02631379 0.04400335 -0.03177871
v -0.02631308 0.04401801 -0.03177721
v -0.02630493 0.04417828 -0.03175600
v -0.02630493 0.04417828 -0.03178600
v -0.02686540 0.04605615 -0.03097678
v -0.02686540 0.04602615 -0.03097678
v -0.02591080 0.04603062 -0.03175600
v -0.02591080 0.04603062 -0.03178600
v -0.02932898 0.04603100 -0.02864195
v -0.02818600 0.04603100 -0.02976900
v -0.02789827 0.04603100 -0.03003881
v -0.02591707 0.05029864 -0.03175600
v -0.02680404 0.05289100 -0.03102423
v -0.02681626 0.05289100 -0.03101393
v -0.02681400 0.05289100 -0.03101600
v -0.02591846 0.05215948 -0.03178600
v -0.02591846 0.05215948 -0.03175600
v -0.02588707 0.05289100 -0.03178181
v -0.02969600 0.05289100 -0.02826600
v -0.02949500 0.05289100 -0.02847300
v -0.03058620 0.05289100 -0.02724798
v -0.02818600 0.05289100 -0.02976900
v -0.02517308 0.05285878 -0.03239086
v -0.02517300 0.05289100 -0.03236700
v -0.02514307 0.05285533 -0.03239086
v -0.02502500 0.05289100 -0.03248500
v -0.02391008 0.05289100 -0.03327696
v -0.02391008 0.05289100 -0.03328768
v -0.02281199 0.05289064 -0.03407700
v -0.02281200 0.05289100 -0.03407700
v -0.02075200 0.05289100 -0.03536700
v -0.02746800 0.06100400 -0.03041700
v -0.02917900 0.06399000 -0.02326400
v -0.02832900 0.06596800 -0.01981600
v -0.02393200 0.06099500 -0.03326600
v -0.02539700 0.06462300 -0.02653100
v -0.02193700 0.06425600 -0.03019400
v -0.02051600 0.06680200 -0.02731900
v -0.02211700 0.06877200 -0.02175700
v -0.02839600 0.06797100 -0.01239400
v -0.03012200 0.06771600 -0.00749100
v -0.02545300 0.06836900 -0.01763400
v -0.04094200 0.04603100 0.00347300
v -0.04094240 0.04603100 0.00348520
v -0.04071092 0.04603100 0.00822013
v -0.04001200 0.04603100 0.02171800
v -0.04001100 0.04603100 0.02171800
v -0.04094300 0.05289100 0.00350100
v -0.04087540 0.05290283 0.00534546
v -0.04087540 0.05289100 0.00534546
v -0.04000400 0.05289472 0.02912000
v -0.04000400 0.05289100 0.02912000
v -0.03999774 0.05299594 0.04108000
v -0.03999774 0.05299621 0.04108000
v -0.03999774 0.05300177 0.04111000
v -0.04000400 0.05299853 0.04112615
v -0.03998445 0.05299600 0.04111000
v -0.04000049 0.05648946 0.04111000
v -0.03083600 0.06760500 0.00352779
v -0.03083600 0.06760500 0.00352800
v -0.03999700 0.06100000 0.04111000
v -0.03999600 0.06100000 0.04111000
v -0.03994048 0.06103483 0.04111000
v -0.03865700 0.06184000 0.04111000
v -0.03735700 0.06261700 0.04111000
v -0.03594283 0.06343206 0.04111000
v -0.03585833 0.06348024 0.04111000
v -0.03575375 0.06353587 0.04111000
v -0.03526600 0.06380500 0.04111000
v -0.03291700 0.06504500 0.04111000
v -0.03201542 0.06548152 0.04111000
v -0.03192565 0.06552499 0.04111000
v -0.03102100 0.06596300 0.04111000
v -0.02426100 0.04603100 0.03306000
v -0.02098500 0.04603100 0.03522600
v -0.02068000 0.04603100 0.03541100
v -0.02904000 0.06683400 0.04111000
v -0.02796111 0.06727684 0.04111000
v -0.02790895 0.06729825 0.04111000
v -0.02684000 0.06773700 0.04111000
v -0.02635734 0.06792352 0.04111000
v -0.02549570 0.06825273 0.04111000
v -0.02513256 0.06839637 0.04108000
v -0.02513358 0.06839739 0.04111000
v -0.02512817 0.06839699 0.04108000
v -0.02512527 0.06839731 0.04108000
v -0.02512535 0.06839874 0.04111000
v -0.02513200 0.06839800 0.04111000
v -0.02498300 0.06840300 0.04755400
v -0.02179240 0.06879747 0.04111000
v -0.02176500 0.06880000 0.04574200
v -0.02014314 0.05289100 -0.03570554
v -0.02012490 0.05289100 -0.03572108
v -0.01951282 0.05289100 -0.03606451
v -0.01951000 0.05289100 -0.03606700
v -0.01717400 0.05289100 -0.03723300
v -0.01717400 0.05289053 -0.03723300
v -0.01637290 0.05289100 -0.03757419
v -0.01636500 0.05289100 -0.03757800
v -0.01548800 0.05289084 -0.03796600
v -0.01548800 0.05289100 -0.03796600
v -0.01344837 0.05289100 -0.03874518
v -0.01182600 0.05289100 -0.03927000
v -0.01263200 0.05289100 -0.03900500
v -0.01141189 0.05289100 -0.03937589
v -0.01865300 0.06100400 -0.03647300
v -0.01713600 0.06380700 -0.03391900
v -0.01916300 0.06907900 -0.02437700
v -0.01663400 0.06706300 -0.02977400
v -0.01538100 0.06940100 -0.02687700
v -0.01305300 0.06100000 -0.03883000
v -0.01293100 0.06442900 -0.03509500
v -0.01360500 0.06740300 -0.03098600
v -0.00848768 0.05289100 -0.04011913
v -0.00848000 0.05289100 -0.04012400
v -0.00847190 0.05292100 -0.04012286
v -0.00821084 0.05289100 -0.04016685
v -0.00555200 0.05289100 -0.04061900
v -0.00420920 0.05289100 -0.04075750
v -0.00288100 0.05289100 -0.04090500
v -0.00034590 0.05289100 -0.04099651
v -0.00700000 0.06099700 -0.04037100
v -0.00745300 0.06393500 -0.03726100
v -0.00970500 0.06975900 -0.02940900
v -0.00535400 0.06993000 -0.03053400
v -0.00282500 0.06099800 -0.04090200
v -0.00431600 0.06775000 -0.03347500
v -0.00144800 0.06543000 -0.03643300
v -0.00093000 0.06999300 -0.03097600
v -0.01757281 0.04603294 0.03702910
v -0.01704300 0.04603100 0.03729900
v -0.01688300 0.04603100 0.03737000
v -0.01307224 0.04603111 0.03887273
v -0.01306900 0.04603100 0.03887400
v -0.01307020 0.04600107 0.03887354
v -0.01298882 0.05290678 0.03889506
v -0.01836600 0.06914600 0.04111000
v -0.01798300 0.06915900 0.04513000
v -0.01684807 0.06927508 0.04111000
v -0.01685957 0.06927407 0.04111000
v -0.01535389 0.06940245 0.04111000
v -0.01257830 0.06959280 0.04111000
v -0.01211700 0.06962500 0.04186300
v -0.00887100 0.05289100 0.04004200
v -0.00886159 0.05290591 0.04004357
v -0.00887986 0.05290593 0.04003954
v -0.00432700 0.04603100 0.04078300
v -0.00088092 0.04603100 0.04099000
v -0.00067200 0.04603100 0.04099524
v -0.00449528 0.05287080 0.04076895
v -0.00448551 0.05290078 0.04076958
v -0.00077044 0.05286301 0.04098900
v -0.00076766 0.05289301 0.04098900
v -0.00075801 0.05289302 0.04098903
v -0.00750500 0.06985900 0.04111000
v -0.00723143 0.06986727 0.04111000
v -0.00748900 0.06986000 0.04303100
v -0.00302500 0.06996200 0.04111000
v -0.00309500 0.06995800 0.04396400
v -0.00271900 0.06995200 0.04679500
v -0.00180729 0.06997708 0.04111000
v -0.00011926 0.06999126 0.04111000
v -0.00141900 0.06995800 0.04794000
v -0.03648000 0.06312400 0.05542300
v -0.03465500 0.06412100 0.05546900
v -0.03274400 0.06509800 0.05376700
v -0.03081000 0.06600400 0.05533100
v -0.03999600 0.06099200 0.09210972
v -0.03997204 0.06100261 0.09211000
v -0.03947100 0.06130400 0.09211000
v -0.03686385 0.06270143 0.09211000
v -0.03579664 0.06322300 0.09211000
v -0.03579100 0.06322600 0.09211500
v -0.03578529 0.06322855 0.09211000
v -0.03460800 0.06398800 0.07686900
v -0.03243900 0.06506900 0.07424200
v -0.03461600 0.06380000 0.09211000
v -0.03193700 0.06502000 0.09211000
v -0.02896900 0.06680500 0.05590100
v -0.02689400 0.06759800 0.05947900
v -0.02500700 0.06825300 0.06246400
v -0.03053600 0.06587600 0.07721800
v -0.02801400 0.06700700 0.07158000
v -0.03024180 0.06571162 0.09211000
v -0.03022476 0.06570934 0.09211000
v -0.03021972 0.06572109 0.09211000
v -0.03016828 0.06573928 0.09211000
v -0.03016500 0.06573600 0.09211500
v -0.02839000 0.06645100 0.09211000
v -0.02799800 0.06674100 0.08610800
v -0.02495200 0.06798000 0.07931500
v -0.02499100 0.06765600 0.09156700
v -0.02499123 0.06763992 0.09211000
v -0.02498974 0.06764003 0.09211000
v -0.02113800 0.06806900 0.09211000
v -0.02054991 0.06812561 0.09211000
v -0.03999200 0.05300100 0.09881800
v -0.03976500 0.05300400 0.10242900
v -0.03907600 0.05300400 0.10661200
v -0.03798000 0.05300400 0.11059500
v -0.03647600 0.05300400 0.11444100
v -0.03451100 0.05300300 0.11825200
v -0.03217800 0.05300300 0.12178100
v -0.03999200 0.06099000 0.09913900
v -0.03594000 0.06307900 0.09947400
v -0.03944800 0.06100000 0.10441300
v -0.03621000 0.06243100 0.10668100
v -0.03809700 0.06099800 0.11023500
v -0.03668800 0.06099800 0.11399100
v -0.03298400 0.06329700 0.11102400
v -0.03164100 0.06500100 0.09964000
v -0.03300400 0.06410600 0.10475900
v -0.03510600 0.06099800 0.11719100
v -0.03340700 0.06099800 0.12002600
v -0.03101900 0.06099800 0.12327700
v -0.02955400 0.05300300 0.12496900
v -0.02543600 0.05300300 0.12884299
v -0.02907300 0.06572000 0.10432300
v -0.02862300 0.06499500 0.11148200
v -0.02495800 0.06740500 0.09999700
v -0.02540500 0.06645000 0.10931000
v -0.02417100 0.06582400 0.11531700
v -0.02342000 0.06737300 0.10659000
v -0.02091000 0.06746100 0.11176600
v -0.02832500 0.06099900 0.12626199
v -0.02834700 0.06378000 0.11765500
v -0.02520100 0.06099800 0.12908199
v -0.02207700 0.06099800 0.13137300
v -0.02493700 0.06404400 0.12112300
v -0.02379600 0.06341000 0.12426400
v -0.01654900 0.06919700 0.05866500
v -0.01997900 0.06881800 0.06306200
v -0.01058200 0.06964700 0.05354200
v -0.01058200 0.06953400 0.06341600
v -0.01885584 0.06830644 0.09211000
v -0.01863900 0.06833000 0.09211500
v -0.01855931 0.06833594 0.09211000
v -0.01844198 0.06834604 0.09211000
v -0.01695600 0.06872200 0.08326100
v -0.01602500 0.06855400 0.09211000
v -0.01058200 0.06916200 0.08327500
v -0.01058200 0.06893100 0.09211000
v -0.01058200 0.06893100 0.09211500
v -0.00579700 0.06983700 0.05354700
v -0.00579700 0.06972600 0.06342100
v -0.00000200 0.06978000 0.06550000
v -0.00579700 0.06935300 0.08328000
v -0.00585899 0.06911854 0.09211000
v -0.00293200 0.06916200 0.09211000
v -0.00293200 0.06916200 0.09211500
v -0.00000200 0.06942300 0.08396900
v -0.00006178 0.06920370 0.09211000
v -0.02037000 0.05300300 0.13239500
v -0.01600900 0.05300300 0.13466699
v -0.01215600 0.05300100 0.13612001
v -0.01369500 0.06838500 0.10328500
v -0.01799300 0.06099900 0.13371100
v -0.02018600 0.06594300 0.11982900
v -0.01721700 0.06532000 0.12424200
v -0.01759400 0.06762800 0.11568300
v -0.01427000 0.06099900 0.13538300
v -0.01045700 0.06099900 0.13661300
v -0.01296300 0.06783600 0.11941100
v -0.01375400 0.06442200 0.12858000
v -0.00811600 0.05300100 0.13718100
v -0.00207100 0.05300100 0.13795701
v -0.00204100 0.05300100 0.13795701
v -0.00736800 0.06863500 0.10583400
v -0.00000400 0.06882300 0.10445800
v -0.00584100 0.06099900 0.13754299
v -0.00996400 0.06617100 0.12602700
v -0.00984600 0.06794400 0.12098200
v -0.00722900 0.06447100 0.13075300
v -0.00422400 0.06332400 0.13361700
v -0.00052100 0.06100100 0.13800800
v -0.00408000 0.06807500 0.12261900
v -0.00411900 0.06623300 0.12746800
v 0.00025900 -0.03599800 -0.03268300
v 0.00127600 -0.03423200 -0.03580000
v 0.00263200 -0.03531200 -0.03389700
v 0.00435200 -0.03599800 -0.03237500
v 0.00393200 -0.03410800 -0.03580000
v 0.00253000 -0.02849900 -0.04092600
v 0.00634500 -0.03459300 -0.03466300
v 0.00523600 -0.03534400 -0.03352200
v 0.00767500 -0.03599800 -0.03175100
v 0.00783900 -0.03534700 -0.03301500
v 0.00832500 -0.03360700 -0.03580000
v 0.00990100 -0.03459900 -0.03380800
v 0.00997680 -0.03599600 -0.03107000
v 0.01004963 -0.03598544 -0.03107000
v 0.01004963 -0.03598544 -0.03104000
v 0.00646700 -0.02850000 -0.04049800
v 0.00972700 -0.02850000 -0.03982600
v 0.00236737 -0.01863903 -0.04093405
v 0.00255300 -0.01863900 -0.04092600
v 0.00649900 -0.01863900 -0.04049300
v 0.00972000 -0.01863900 -0.03982900
v 0.01098400 -0.03585000 -0.03107000
v 0.01121100 -0.03534900 -0.03202600
v 0.01113800 -0.03378400 -0.03473600
v 0.01247800 -0.03459600 -0.03293800
v 0.01267100 -0.03274773 -0.03571737
v 0.01267220 -0.03217427 -0.03647415
v 0.01264107 -0.03165470 -0.03712436
v 0.01264208 -0.03168289 -0.03709929
v 0.01264108 -0.03163739 -0.03713584
v 0.01267208 -0.03168289 -0.03709929
v 0.01267108 -0.03163739 -0.03713584
v 0.01260600 -0.03266900 -0.03585500
v 0.01267100 -0.03251200 -0.03603316
v 0.01268556 -0.03243796 -0.03613296
v 0.01354600 -0.03534700 -0.03106900
v 0.01377200 -0.03376800 -0.03381700
v 0.01463800 -0.03510900 -0.03106900
v 0.01501300 -0.03460100 -0.03186700
v 0.01516000 -0.03291200 -0.03450500
v 0.01493042 -0.03186084 -0.03603340
v 0.01494532 -0.03185612 -0.03603378
v 0.01269500 -0.02821300 -0.04169000
v 0.01269600 -0.02773300 -0.04196700
v 0.01264109 -0.02850000 -0.03892228
v 0.01267109 -0.02850000 -0.03892228
v 0.01276900 -0.02686000 -0.04200000
v 0.01264107 -0.02349738 -0.03899751
v 0.01267106 -0.02325470 -0.03899752
v 0.01349500 -0.02832100 -0.04158000
v 0.01349500 -0.02800500 -0.04187400
v 0.01349500 -0.02763000 -0.04199400
v 0.01303200 -0.02595700 -0.04199900
v 0.01339500 -0.02524000 -0.04199900
v 0.01387100 -0.02458300 -0.04199900
v 0.01650000 -0.03460100 -0.03106900
v 0.01723500 -0.03378900 -0.03215300
v 0.01777000 -0.03422800 -0.03106900
v 0.01780700 -0.03292000 -0.03322200
v 0.01745000 -0.03198300 -0.03471500
v 0.01725300 -0.03098000 -0.03603500
v 0.01857833 -0.03394683 -0.03106900
v 0.01915535 -0.03365169 -0.03103900
v 0.01915535 -0.03365169 -0.03106900
v 0.02000700 -0.03336400 -0.03123200
v 0.02018924 -0.03338377 -0.03106900
v 0.01842100 -0.03051300 -0.03603500
v 0.01883300 -0.03099800 -0.03527000
v 0.02010300 -0.03199000 -0.03325300
v 0.01954000 -0.02999900 -0.03603500
v 0.01982000 -0.02999900 -0.03589000
v 0.01265613 -0.01586805 -0.03899341
v 0.01267108 -0.01590538 -0.03899838
v 0.01267130 -0.01590198 -0.03899831
v 0.01267209 -0.01589833 -0.03899805
v 0.01267310 -0.01589513 -0.03899771
v 0.01267815 -0.01586800 -0.03898695
v 0.01267239 -0.01586805 -0.03899341
v 0.01986036 -0.01587249 -0.03693389
v 0.00494200 -0.03599600 0.03219700
v 0.00237500 -0.03324100 0.03710200
v 0.00211700 -0.02999800 0.04092300
v 0.00661100 -0.02999800 0.04044300
v 0.01041700 -0.03427000 0.03401300
v 0.01343600 -0.03242200 0.03580000
v 0.01128700 -0.02999800 0.03936900
v 0.01709400 -0.03599600 0.02765900
v 0.01692700 -0.03343800 0.03276200
v 0.01679700 -0.02999800 0.03737800
v 0.00969005 0.01469100 -0.03983699
v 0.00969200 0.01472100 -0.03983700
v 0.01227100 0.01471800 -0.03911500
v 0.01267100 0.01471800 -0.03898200
v 0.01286943 0.01471800 -0.03891539
v 0.01389542 0.01469100 -0.03857172
v 0.01394900 0.01471800 -0.03855300
v 0.01509336 0.01471829 -0.03811486
v 0.01574889 0.01471852 -0.03785305
v 0.01740534 0.01471907 -0.03711984
v 0.01802588 0.01471921 -0.03682606
v 0.01873953 0.01471937 -0.03645824
v 0.01973624 0.01471959 -0.03593387
v 0.00163310 0.01472100 0.04095791
v 0.00183373 0.01472100 0.04093519
v 0.00284200 0.01472100 0.04089700
v 0.00456000 0.01472100 0.04072600
v 0.00553900 0.01472100 0.04061900
v 0.00654396 0.01472100 0.04045627
v 0.00659100 0.01472096 0.04044700
v 0.00659575 0.01472100 0.04044788
v 0.00765100 0.01472125 0.04027700
v 0.00765100 0.01472100 0.04027700
v 0.00973800 0.01472114 0.03982100
v 0.00973800 0.01472100 0.03982100
v 0.01180100 0.01472100 0.03925800
v 0.01238652 0.01472100 0.03902929
v 0.01235747 0.01472100 0.03904691
v 0.01240425 0.01472100 0.03905929
v 0.01383200 0.01472100 0.03858900
v 0.01871852 0.01472100 0.03645470
v 0.01872125 0.01472100 0.03645331
v 0.01872559 0.01472100 0.03645470
v 0.01966800 0.01472100 0.03596700
v 0.01580142 0.01472100 0.03782742
v 0.01777400 0.01472100 0.03694300
v 0.02167700 -0.02999900 -0.03479900
v 0.02263327 -0.03231420 -0.03106900
v 0.02265200 -0.03230600 -0.03106900
v 0.02261000 -0.03198300 -0.03159600
v 0.02238100 -0.03099800 -0.03313200
v 0.02335659 -0.03194676 -0.03106900
v 0.02344300 -0.02999600 -0.03363400
v 0.02556100 -0.03074400 -0.03106900
v 0.02518000 -0.02999600 -0.03235400
v 0.02238400 -0.03599600 -0.02378200
v 0.02313100 -0.03408500 -0.02751800
v 0.02663722 -0.03006352 -0.03106900
v 0.02664505 -0.03005857 -0.03104135
v 0.02673719 -0.03000031 -0.03106900
v 0.02674400 -0.02999600 -0.03106900
v 0.02718000 -0.03497300 -0.02128700
v 0.02915400 -0.02999800 -0.02879800
v 0.02986800 -0.03267100 -0.02338400
v 0.02833900 -0.03599600 -0.01610700
v 0.02101100 -0.01970700 -0.04199900
v 0.02300700 -0.01873359 -0.03719593
v 0.02293000 -0.01743300 -0.04199900
v 0.02297700 -0.01742672 -0.04163326
v 0.02300700 -0.01742672 -0.04163326
v 0.02300500 -0.01732200 -0.04199900
v 0.02300700 -0.01732208 -0.04198856
v 0.02301483 -0.01730756 -0.04199900
v 0.02297700 -0.01916059 -0.03574611
v 0.02300700 -0.01916673 -0.03572529
v 0.02300700 -0.01916059 -0.03574611
v 0.02300700 -0.01914862 -0.03578310
v 0.02306623 -0.01908787 -0.03569933
v 0.02297700 -0.01765772 -0.03599640
v 0.02297700 -0.01741757 -0.03603499
v 0.02300700 -0.01741757 -0.03603499
v 0.02331773 -0.01875980 -0.03556631
v 0.02356516 -0.01833169 -0.03544693
v 0.02371465 -0.01798033 -0.03538963
v 0.02297700 -0.01590091 -0.04199084
v 0.02300500 -0.01590100 -0.04199900
v 0.02297700 -0.01593254 -0.03604300
v 0.02294153 -0.01593531 -0.03605314
v 0.02300700 -0.01593254 -0.03604300
v 0.02454300 -0.01507600 -0.04199900
v 0.02762381 -0.01762662 -0.03103900
v 0.02762381 -0.01762662 -0.03106900
v 0.02598400 -0.01242800 -0.04199900
v 0.02693000 -0.01019400 -0.04199900
v 0.02665372 -0.01090622 -0.03428985
v 0.02702819 -0.00994222 -0.03415976
v 0.03204800 -0.02999800 -0.02558100
v 0.03451200 -0.02999800 -0.02213800
v 0.03116439 -0.03599600 -0.00959008
v 0.03511800 -0.03348700 -0.01092900
v 0.03354000 -0.03254500 -0.01799900
v 0.03263400 -0.03599600 -0.00125800
v 0.03564800 -0.03408800 -0.00479400
v 0.03663100 -0.02999800 -0.01836100
v 0.03834800 -0.02999800 -0.01451300
v 0.03963700 -0.02999800 -0.01040400
v 0.03702200 -0.03322200 0.00282600
v 0.04051600 -0.02999800 -0.00628000
v 0.04092900 -0.02999800 -0.00197000
v 0.04094100 -0.02999800 0.00222000
v 0.02545800 -0.03599600 0.02035600
v 0.02967600 -0.03599600 0.01352100
v 0.02745000 -0.03311200 0.02518800
v 0.02829300 -0.03458200 0.02088700
v 0.02161200 -0.03332500 0.03008900
v 0.02059000 -0.02999800 0.03543100
v 0.02585100 -0.02999800 0.03179500
v 0.03009900 -0.02999800 0.02776700
v 0.03182300 -0.03599600 0.00712300
v 0.03406600 -0.03419400 0.01102500
v 0.03385900 -0.03220000 0.01837300
v 0.03406400 -0.02999800 0.02273200
v 0.04045500 -0.02999800 0.00650900
v 0.03956900 -0.02999800 0.01064300
v 0.03650600 -0.02999800 0.01860700
v 0.03824800 -0.02999800 0.01469500
v 0.02758000 -0.00830800 -0.04199900
v 0.02750902 -0.00854067 -0.03401892
v 0.02790522 -0.00709861 -0.03394882
v 0.02809060 -0.00634428 -0.03392877
v 0.02829200 -0.00542400 -0.04199900
v 0.02864000 -0.00298900 -0.04199900
v 0.02836400 -0.00500800 -0.03393500
v 0.02836183 -0.00501391 -0.03393570
v 0.02859900 -0.00340700 -0.03393500
v 0.02879300 -0.00079900 -0.04199900
v 0.02869691 -0.00243653 -0.03393193
v 0.02872158 -0.00218927 -0.03106900
v 0.02878600 -0.00088000 -0.03106900
v 0.02879107 -0.00063650 -0.03106900
v 0.02879107 -0.00063650 -0.03103900
v 0.02880491 0.00002687 -0.03106888
v 0.02880500 0.00003000 -0.03106900
v 0.02879756 0.00029628 -0.03106900
v 0.02879756 0.00029628 -0.03103900
v 0.02871000 0.00238100 -0.04199900
v 0.02876200 0.00155900 -0.03106900
v 0.02865300 0.00291700 -0.03106900
v 0.02451436 0.00526230 -0.03526194
v 0.02454436 0.00526230 -0.03526194
v 0.02456190 0.00591663 -0.03522848
v 0.02457966 0.00616100 -0.03521459
v 0.02460966 0.00616100 -0.03521459
v 0.02466200 0.00729401 -0.03513213
v 0.02469200 0.00729401 -0.03513213
v 0.02472147 0.00811192 -0.03505411
v 0.02475147 0.00811192 -0.03505411
v 0.02054364 0.01471977 -0.03548121
v 0.02054496 0.01474977 -0.03548042
v 0.02178602 0.01472005 -0.03473099
v 0.02233260 0.01472017 -0.03437726
v 0.02233387 0.01472017 -0.03437642
v 0.02522900 0.01472100 -0.04199800
v 0.02522664 0.01472100 -0.04156083
v 0.02349609 0.01472043 -0.03359694
v 0.02518978 0.01472100 -0.03426639
v 0.02523006 0.01472100 -0.03426246
v 0.02518691 0.01472081 -0.03426094
v 0.02514709 0.01472073 -0.03237981
v 0.02517709 0.01472073 -0.03237981
v 0.02816751 0.00599645 -0.03393463
v 0.02800600 0.00668000 -0.03393500
v 0.02769975 0.00787045 -0.04199900
v 0.02830600 0.00530500 -0.04199900
v 0.02841061 0.00469824 -0.03393463
v 0.02846338 0.00436984 -0.03106900
v 0.02697891 0.01355574 -0.03106900
v 0.02697891 0.01355574 -0.03103900
v 0.02604200 0.01471800 -0.04199800
v 0.02606538 0.01462144 -0.04199900
v 0.02604884 0.01469100 -0.04175013
v 0.02604884 0.01472100 -0.04175013
v 0.02603818 0.01475020 -0.04199800
v 0.02607058 0.01472100 -0.04097698
v 0.02605828 0.01469100 -0.03393500
v 0.02605828 0.01472100 -0.03393500
v 0.02628922 0.01469100 -0.03304536
v 0.02628922 0.01472100 -0.03304536
v 0.02629502 0.01472100 -0.03299499
v 0.02632900 0.01472095 -0.03178078
v 0.02672485 0.01469100 -0.03136727
v 0.02671486 0.01472100 -0.03137770
v 0.02672485 0.01472100 -0.03136727
v 0.02679984 0.01469100 -0.03106310
v 0.02679984 0.01469100 -0.03107758
v 0.02679984 0.01472100 -0.03106310
v 0.02825697 0.01472100 -0.02976679
v 0.02982400 0.01472100 -0.02812400
v 0.03050107 0.01472100 -0.02737508
v 0.03167391 0.01469100 -0.02603472
v 0.03166200 0.01472100 -0.02605000
v 0.03169069 0.01472100 -0.02601318
v 0.03276200 0.01472100 -0.02463300
v 0.03398200 0.01472100 -0.02293000
v 0.03437045 0.01472100 -0.02232089
v 0.03492847 0.01472100 -0.02138182
v 0.03494213 0.01472100 -0.02135999
v 0.03508200 0.01472100 -0.02119900
v 0.03590100 0.01472100 -0.01979500
v 0.03726600 0.01472100 -0.01708561
v 0.03726598 0.01472100 -0.01708804
v 0.03726600 0.01472100 -0.01708800
v 0.03790000 0.01472100 -0.01561300
v 0.03842200 0.01472100 -0.01431000
v 0.03889053 0.01472100 -0.01290208
v 0.03888941 0.01472100 -0.01290585
v 0.03935300 0.01472100 -0.01148800
v 0.03957470 0.01472100 -0.01064342
v 0.03994448 0.01472100 -0.00920688
v 0.03995500 0.01472100 -0.00916676
v 0.04020406 0.01472100 -0.00792200
v 0.04054900 0.01472100 -0.00609500
v 0.04073400 0.01472100 -0.00444900
v 0.04090021 0.01472100 -0.00267205
v 0.04091700 0.01472100 -0.00255600
v 0.04091207 0.01472100 -0.00254541
v 0.04091582 0.01472100 -0.00244165
v 0.04096600 0.01472100 -0.00150000
v 0.04099100 0.01472100 -0.00043100
v 0.04099100 0.01472100 0.00012400
v 0.04095000 0.01472100 0.00288200
v 0.02193200 0.01472100 0.03463500
v 0.02234472 0.01472100 0.03436793
v 0.02234968 0.01472100 0.03436480
v 0.02275900 0.01472100 0.03410000
v 0.02277938 0.01472100 0.03408526
v 0.02463000 0.01472100 0.03274700
v 0.02528436 0.01472100 0.03226081
v 0.02546453 0.01472100 0.03212355
v 0.02541380 0.01475100 0.03216500
v 0.02618936 0.01472100 0.03153372
v 0.02865663 0.01472100 0.02931896
v 0.02897376 0.01472100 0.02899718
v 0.02896787 0.01472100 0.02900419
v 0.02931800 0.01472100 0.02865000
v 0.04093400 0.01472100 0.00345100
v 0.04082907 0.01472100 0.00561772
v 0.04081855 0.01472100 0.00585543
v 0.04072600 0.01472100 0.00778300
v 0.04061300 0.01472100 0.00967100
v 0.04019623 0.01472100 0.01616987
v 0.04020400 0.01472100 0.01616100
v 0.04020300 0.01472100 0.01615900
v 0.03155000 0.01472100 0.02617800
v 0.00119606 0.05289100 -0.04095780
v 0.00119606 0.05292100 -0.04095780
v 0.00121533 0.05289100 -0.04095786
v 0.00273700 0.05289100 -0.04092000
v 0.00672325 0.05289100 -0.04045361
v 0.00672325 0.05292100 -0.04045361
v 0.00675754 0.05289100 -0.04044689
v 0.00967985 0.05289100 -0.03984012
v 0.00275500 0.06100200 -0.04091800
v 0.00217700 0.06998800 -0.03092800
v 0.00357400 0.06470500 -0.03705600
v 0.00676100 0.06100200 -0.04044400
v 0.00756400 0.06621200 -0.03467700
v 0.00518800 0.06992800 -0.03056600
v 0.00877600 0.06980700 -0.02974600
v 0.01187000 0.05289100 -0.03924200
v 0.01279860 0.05289100 -0.03893712
v 0.01279900 0.05289100 -0.03893700
v 0.01367900 0.05289100 -0.03865300
v 0.01559599 0.05289055 -0.03791800
v 0.01559600 0.05289100 -0.03791800
v 0.01672300 0.05289100 -0.03741400
v 0.01786300 0.05289100 -0.03690700
v 0.01810900 0.05289100 -0.03678500
v 0.02007338 0.05289100 -0.03574992
v 0.02029800 0.05289100 -0.03561900
v 0.01268200 0.06099900 -0.03897300
v 0.01255800 0.06529800 -0.03422100
v 0.01298700 0.06957500 -0.02812300
v 0.01676100 0.06100000 -0.03739400
v 0.01707300 0.06518100 -0.03213900
v 0.01901300 0.06909400 -0.02449000
v 0.00231958 0.05289924 0.04094018
v 0.00232930 0.05286926 0.04093998
v 0.00955400 0.04603100 0.03986400
v 0.00552837 0.05290372 0.04061830
v 0.00763928 0.05290569 0.04027608
v 0.00972265 0.05290678 0.03982109
v 0.00009014 0.06999500 0.04110803
v 0.00009200 0.06999300 0.04174200
v 0.00041596 0.06998654 0.04111000
v 0.00233200 0.06997200 0.04111000
v 0.00201800 0.06997700 0.04244900
v 0.00179900 0.06995700 0.04771500
v 0.00289500 0.06996300 0.04352400
v 0.00300500 0.06995000 0.04623000
v 0.00573281 0.06989599 0.04111000
v 0.00578500 0.06988800 0.04601800
v 0.00912900 0.06978200 0.04111000
v 0.00901903 0.06978700 0.04383927
v 0.00901844 0.06978703 0.04383953
v 0.01382500 0.04603100 0.03859600
v 0.01179739 0.05290708 0.03926389
v 0.01178981 0.05290709 0.03926613
v 0.01382424 0.05290641 0.03859626
v 0.01967453 0.04603680 0.03596775
v 0.01565017 0.04603101 0.03788618
v 0.01582259 0.04604713 0.03781916
v 0.01778864 0.04603767 0.03693549
v 0.01061673 0.06970110 0.04108000
v 0.01061822 0.06970105 0.04108000
v 0.01061673 0.06970110 0.04111000
v 0.01071717 0.06969424 0.04111000
v 0.01226900 0.06961400 0.04111000
v 0.01219900 0.06961700 0.04385100
v 0.01615722 0.06931905 0.04111000
v 0.01699892 0.06925993 0.04108000
v 0.01699900 0.06926100 0.04111000
v 0.01731190 0.06922776 0.04111000
v 0.01695200 0.06925900 0.04601300
v 0.02519800 0.03866300 -0.04197400
v 0.02519800 0.03996000 -0.04167800
v 0.02519800 0.04109900 -0.04114700
v 0.02599800 0.03867800 -0.04197600
v 0.02599800 0.04004600 -0.04164900
v 0.02599800 0.04103200 -0.04117900
v 0.02599800 0.04205600 -0.04043800
v 0.02101832 0.05289100 -0.03518956
v 0.02100800 0.05289100 -0.03519500
v 0.02122523 0.05289100 -0.03506539
v 0.02181600 0.05289100 -0.03471400
v 0.02346700 0.05289100 -0.03361800
v 0.02427717 0.05289100 -0.03301908
v 0.02428000 0.05289100 -0.03301700
v 0.02513157 0.05289100 -0.03239316
v 0.02514933 0.05285427 -0.03238083
v 0.02517705 0.05285427 -0.03238083
v 0.02517733 0.05288666 -0.03235924
v 0.02631538 0.04401142 -0.03178372
v 0.02631600 0.04399600 -0.03178600
v 0.02631600 0.04399900 -0.03178600
v 0.02630545 0.04420977 -0.03178600
v 0.02630545 0.04420977 -0.03175600
v 0.02590370 0.04602658 -0.03178600
v 0.02590370 0.04602658 -0.03175600
v 0.02648354 0.04602822 -0.03128201
v 0.02668130 0.04603100 -0.03111940
v 0.02695184 0.04602586 -0.03088728
v 0.02764964 0.04603100 -0.03028052
v 0.02945610 0.04603100 -0.02850586
v 0.02976800 0.04603100 -0.02818800
v 0.02590370 0.05222959 -0.03178600
v 0.02590370 0.05222959 -0.03175600
v 0.02586700 0.05289100 -0.03178600
v 0.02587100 0.05289100 -0.03178233
v 0.02731636 0.05289100 -0.03057319
v 0.02737500 0.05289100 -0.03052233
v 0.02742510 0.05289100 -0.03047532
v 0.02756100 0.05289100 -0.03036100
v 0.02958500 0.05289100 -0.02837300
v 0.02975300 0.05289100 -0.02820200
v 0.03055590 0.05289100 -0.02730712
v 0.03056740 0.05289100 -0.02729440
v 0.03055590 0.05292100 -0.02730712
v 0.02097600 0.06099800 -0.03521100
v 0.02346100 0.06099800 -0.03362000
v 0.02153200 0.06576500 -0.02816100
v 0.02181500 0.06880600 -0.02205500
v 0.02745900 0.06100000 -0.03045300
v 0.03052600 0.06099900 -0.02734300
v 0.02565700 0.06540800 -0.02470500
v 0.02976300 0.06444300 -0.02148400
v 0.02450400 0.06848900 -0.01899200
v 0.02658400 0.06822300 -0.01597000
v 0.02891200 0.06789500 -0.01108400
v 0.03069400 0.06762600 -0.00393100
v 0.03094564 0.05289100 -0.02681969
v 0.03138300 0.05289100 -0.02639200
v 0.03337400 0.05289100 -0.02382099
v 0.03355682 0.05289100 -0.02355332
v 0.03359900 0.05289100 -0.02351400
v 0.03555267 0.05289100 -0.02041205
v 0.03565810 0.05289100 -0.02024099
v 0.03934500 0.04603100 -0.01153800
v 0.03998900 0.04603100 -0.00903798
v 0.04094200 0.04603100 -0.00221200
v 0.04095606 0.04603100 -0.00189300
v 0.04100100 0.04603100 0.00006700
v 0.03740400 0.05289100 -0.01680300
v 0.03744517 0.05289100 -0.01670891
v 0.03793618 0.05289100 -0.01548838
v 0.03793618 0.05292100 -0.01548838
v 0.03794737 0.05292100 -0.01546287
v 0.03797634 0.05289100 -0.01538403
v 0.03848369 0.05289100 -0.01412072
v 0.03934700 0.05289100 -0.01154500
v 0.03998688 0.05289100 -0.00904165
v 0.03999900 0.05289300 -0.00900200
v 0.04000636 0.05289100 -0.00895671
v 0.04057500 0.05289100 -0.00594600
v 0.04076121 0.05289100 -0.00405065
v 0.04076598 0.05289100 -0.00399634
v 0.04094400 0.05289100 -0.00214100
v 0.04096000 0.05289100 -0.00181300
v 0.04100900 0.05289100 0.00006000
v 0.04099506 0.05289100 0.00054431
v 0.03350400 0.06099700 -0.02364600
v 0.03568000 0.06100000 -0.02021400
v 0.03296200 0.06380100 -0.01760600
v 0.03261300 0.06545500 -0.01213300
v 0.03095900 0.06758500 0.00189600
v 0.03397800 0.06535200 -0.00760800
v 0.03481100 0.06517300 -0.00352500
v 0.03351200 0.06611100 0.00182400
v 0.03743000 0.06099800 -0.01675000
v 0.03891890 0.06099800 -0.01282800
v 0.04000797 0.06099700 -0.00897012
v 0.04000800 0.06099700 -0.00897000
v 0.04058600 0.06099700 -0.00591600
v 0.04101100 0.06099700 0.00005600
v 0.03678200 0.06402100 0.00097400
v 0.02223100 0.04603100 0.03445600
v 0.02238236 0.04603100 0.03435742
v 0.02326400 0.06861600 0.04111000
v 0.02507660 0.06840245 0.04111000
v 0.02508900 0.06840100 0.04111000
v 0.02510573 0.06839464 0.04111000
v 0.02509004 0.06840100 0.04110856
v 0.02509000 0.06840100 0.04111000
v 0.02515502 0.06837590 0.04111000
v 0.02320200 0.06861900 0.04642700
v 0.02499500 0.06839400 0.04780200
v 0.02691630 0.06770354 0.04111000
v 0.03040800 0.06621820 0.04111000
v 0.02891100 0.06688200 0.04111000
v 0.02916281 0.06675526 0.04111000
v 0.04090400 0.04603100 0.00424200
v 0.04089145 0.04600100 0.00451143
v 0.04086388 0.04606100 0.00512807
v 0.04054334 0.04603100 0.01128069
v 0.04000500 0.04604400 0.02171100
v 0.03999500 0.04603100 0.02171100
v 0.03999700 0.04603100 0.02171100
v 0.04089602 0.05290054 0.00439155
v 0.03999100 0.05288943 0.02922915
v 0.03999700 0.05289100 0.02922700
v 0.03999100 0.05298100 0.04111000
v 0.03999200 0.05298101 0.04111000
v 0.03164402 0.06563554 0.04111000
v 0.03289700 0.06503000 0.04111000
v 0.03494694 0.06397376 0.04111000
v 0.03495337 0.06397000 0.04108000
v 0.03495337 0.06397000 0.04111000
v 0.03704000 0.06279700 0.04111000
v 0.03769700 0.06241400 0.04111000
v 0.03999711 0.06099978 0.04108642
v 0.03999820 0.06099910 0.04111000
v 0.03998464 0.06100744 0.04111000
v 0.00052300 0.06996000 0.04821600
v 0.00578500 0.06969600 0.06550000
v 0.00321700 0.06916900 0.09211000
v 0.00418000 0.06915100 0.09211000
v 0.00578500 0.06931200 0.08497200
v 0.00560683 0.06910589 0.09211000
v 0.00770200 0.06902621 0.09211000
v 0.00779731 0.06901630 0.09211000
v 0.01057800 0.06950500 0.06549500
v 0.01695200 0.06906400 0.06549000
v 0.01057000 0.06912200 0.08496700
v 0.01051500 0.06891500 0.09211000
v 0.01535500 0.06880500 0.08496300
v 0.01591900 0.06855100 0.09211000
v 0.01681474 0.06845850 0.09211000
v 0.01738167 0.06842183 0.09211000
v 0.01741703 0.06841870 0.09211000
v 0.01742125 0.06841826 0.09211500
v 0.01739500 0.06842100 0.09211500
v 0.02003000 0.06839800 0.08479700
v 0.01887633 0.06828961 0.09211000
v 0.00205500 0.05300100 0.13795701
v 0.00608800 0.05300000 0.13754100
v 0.00810000 0.06864700 0.10447500
v 0.00276800 0.06099900 0.13792101
v 0.00017600 0.06810100 0.12301100
v 0.00478400 0.06806000 0.12249400
v 0.00137800 0.06433300 0.13183901
v 0.00130400 0.06623800 0.12775201
v 0.00684300 0.06327700 0.13327301
v 0.00789200 0.06099900 0.13719700
v 0.00646000 0.06588800 0.12776799
v 0.01229700 0.05300000 0.13607700
v 0.01628200 0.05300000 0.13454500
v 0.01995500 0.05300000 0.13267700
v 0.01228100 0.06100100 0.13607700
v 0.01082100 0.06666800 0.12429300
v 0.01043300 0.06792700 0.12075500
v 0.01128100 0.06398300 0.13060600
v 0.01295100 0.06487300 0.12792601
v 0.01591400 0.06099900 0.13471000
v 0.01974700 0.06099900 0.13276500
v 0.01580300 0.06650400 0.12175800
v 0.01654900 0.06767400 0.11662100
v 0.01961000 0.06664600 0.11773900
v 0.01982800 0.06367300 0.12675200
v 0.02172200 0.06859400 0.06548100
v 0.02498700 0.06819800 0.06681500
v 0.02978000 0.06643800 0.05890500
v 0.02689000 0.06759800 0.05947900
v 0.02253325 0.06790531 0.09211000
v 0.02496400 0.06783600 0.08487100
v 0.02497900 0.06763000 0.09211000
v 0.02500094 0.06762049 0.09211000
v 0.02680400 0.06734900 0.07818800
v 0.02850300 0.06673900 0.07588900
v 0.02812900 0.06653360 0.09211000
v 0.02589555 0.06732615 0.09211000
v 0.03017527 0.06573856 0.09211000
v 0.03031412 0.06567279 0.09211000
v 0.03048780 0.06559741 0.09211000
v 0.03998600 0.05300000 0.09211000
v 0.03999200 0.05299604 0.09211000
v 0.03999200 0.05556500 0.09211000
v 0.03998851 0.05603509 0.09211000
v 0.03566100 0.06357800 0.05666500
v 0.03341400 0.06472000 0.06197200
v 0.03172200 0.06543900 0.07095000
v 0.03109600 0.06537300 0.09211000
v 0.03210018 0.06493761 0.09211000
v 0.03465900 0.06379000 0.09211000
v 0.03492786 0.06366186 0.09211000
v 0.03494217 0.06365533 0.09211500
v 0.03503532 0.06360625 0.09211000
v 0.03523244 0.06351621 0.09211000
v 0.03720284 0.06252356 0.09211000
v 0.03748139 0.06238239 0.09211000
v 0.03813701 0.06202390 0.09211000
v 0.03988760 0.06104984 0.09211000
v 0.03998288 0.06099870 0.09208480
v 0.03998095 0.06100066 0.09211500
v 0.02340800 0.05300000 0.13044100
v 0.02701700 0.05299800 0.12746000
v 0.02701478 0.05299800 0.12746184
v 0.02475400 0.06740200 0.10089400
v 0.02223300 0.06741100 0.10923800
v 0.02417900 0.06649500 0.11154400
v 0.02982800 0.06570100 0.10027500
v 0.02867700 0.06571700 0.10587000
v 0.02829000 0.06499600 0.11216800
v 0.02489100 0.06319300 0.12381800
v 0.02374800 0.06099800 0.13017000
v 0.02383800 0.06510300 0.11884700
v 0.02796900 0.06099800 0.12656300
v 0.03953000 0.05299800 0.10392500
v 0.03998401 0.05299800 0.09893500
v 0.03727500 0.05299800 0.11253800
v 0.03856600 0.05299800 0.10862500
v 0.03098700 0.05299800 0.12331200
v 0.03350800 0.05299800 0.11985400
v 0.03557500 0.05299800 0.11629800
v 0.03186000 0.06332100 0.11347600
v 0.03491800 0.06348900 0.10106200
v 0.03245900 0.06415400 0.10652600
v 0.03998400 0.06099800 0.09914300
v 0.03998400 0.06099800 0.09914299
v 0.03975700 0.06099600 0.10248400
v 0.03619000 0.06238500 0.10712900
v 0.03667900 0.06099800 0.11398700
v 0.03808900 0.06099800 0.11024700
v 0.03909900 0.06100100 0.10645100
v 0.03326600 0.06099800 0.12022600
v 0.03091700 0.06100100 0.12339100
v 0.03509800 0.06099600 0.11719500
f 1 2 39
f 3 5 6
f 1 5 4
f 5 12 6
f 3 4 5
f 6 10 7
f 7 10 8
f 8 10 9
f 9 10 64
f 6 12 10
f 5 11 12
f 11 13 12
f 1 11 5
f 1 39 11
f 10 12 13
f 10 13 68
f 13 70 68
f 1 141 2
f 96 4 3
f 1 4 103
f 3 6 106
f 6 7 114
f 7 8 113
f 14 16 17
f 15 17 16
f 15 16 18
f 16 14 18
f 18 14 21
f 18 21 22
f 19 21 14
f 19 22 21
f 19 20 22
f 14 27 19
f 2 37 39
f 23 15 2
f 37 38 39
f 2 15 37
f 15 18 37
f 18 22 37
f 127 14 17
f 14 127 25
f 24 27 26
f 20 217 22
f 19 27 20
f 20 27 24
f 20 24 28
f 14 25 27
f 24 26 28
f 30 20 28
f 26 27 32
f 25 29 27
f 30 225 31
f 26 32 28
f 30 31 20
f 31 218 20
f 218 217 20
f 28 32 30
f 32 27 226
f 29 34 35
f 29 35 27
f 30 32 33
f 33 32 226
f 226 27 35
f 34 36 35
f 37 234 38
f 22 217 37
f 37 217 220
f 37 220 234
f 25 126 29
f 29 126 34
f 34 126 36
f 36 50 48
f 11 39 38
f 11 38 13
f 38 234 13
f 15 119 17
f 2 140 23
f 15 23 119
f 41 59 63
f 17 132 129
f 127 17 128
f 17 129 128
f 17 122 132
f 17 119 136
f 25 127 126
f 40 125 124
f 40 126 125
f 59 42 40
f 40 42 43
f 41 42 59
f 40 120 59
f 40 44 45
f 40 43 44
f 45 126 40
f 17 123 122
f 17 136 123
f 23 138 119
f 2 141 140
f 23 139 138
f 23 140 139
f 36 63 61
f 61 62 36
f 36 126 45
f 36 44 43
f 36 45 44
f 36 42 41
f 36 43 42
f 36 41 63
f 47 54 48
f 49 47 50
f 47 48 50
f 36 46 50
f 36 62 46
f 50 60 51
f 60 50 46
f 49 50 51
f 47 52 54
f 52 53 55
f 55 56 52
f 56 57 58
f 59 60 62
f 62 61 59
f 63 59 61
f 60 59 51
f 49 120 47
f 52 47 120
f 46 62 60
f 49 51 120
f 120 53 52
f 53 134 55
f 51 59 120
f 10 66 64
f 64 66 65
f 10 68 66
f 65 66 69
f 65 69 67
f 66 68 69
f 68 70 69
f 69 70 74
f 67 69 72
f 67 72 71
f 69 74 72
f 71 72 73
f 8 9 195
f 9 64 200
f 64 65 200
f 65 67 200
f 67 71 200
f 71 73 200
f 72 74 75
f 72 75 73
f 70 76 74
f 75 74 76
f 70 282 76
f 73 75 77
f 75 78 77
f 75 76 78
f 77 78 79
f 78 281 79
f 73 77 204
f 77 79 212
f 79 281 214
f 1 86 141
f 1 101 86
f 99 3 109
f 3 97 96
f 99 97 3
f 4 96 102
f 102 103 4
f 1 103 101
f 106 109 3
f 6 115 106
f 6 114 115
f 7 113 114
f 113 8 195
f 86 83 142
f 83 88 142
f 80 86 104
f 81 82 80
f 82 86 80
f 84 85 92
f 82 83 86
f 82 84 83
f 91 176 89
f 90 88 87
f 83 84 88
f 84 92 87
f 87 92 93
f 84 87 88
f 94 99 95
f 95 99 108
f 99 109 108
f 99 100 97
f 98 102 96
f 99 94 100
f 101 104 86
f 106 105 109
f 105 110 107
f 108 109 105
f 105 115 110
f 106 115 105
f 110 115 111
f 111 115 112
f 112 115 116
f 116 118 117
f 195 114 113
f 194 118 116
f 195 115 114
f 115 195 116
f 194 116 195
f 120 122 121
f 120 132 122
f 120 121 135
f 121 122 123
f 121 123 136
f 119 137 136
f 119 138 137
f 40 124 120
f 128 129 124
f 125 127 124
f 124 127 128
f 124 129 120
f 129 132 120
f 125 126 127
f 145 130 120
f 136 135 121
f 120 135 145
f 136 137 135
f 138 139 137
f 137 139 135
f 135 139 140
f 135 140 141
f 135 141 142
f 135 142 143
f 135 143 146
f 142 144 143
f 146 145 135
f 145 146 147
f 145 147 148
f 148 147 149
f 148 149 145
f 145 149 151
f 130 181 131
f 134 131 180
f 134 180 133
f 53 120 130
f 53 130 131
f 53 131 134
f 55 134 133
f 56 55 182
f 57 56 190
f 57 190 58
f 180 55 133
f 180 182 55
f 56 182 190
f 58 190 191
f 145 151 150
f 150 151 153
f 150 153 154
f 149 152 151
f 145 157 130
f 150 154 155
f 143 144 160
f 143 160 146
f 146 160 147
f 149 147 160
f 145 150 157
f 154 156 155
f 155 157 150
f 156 162 155
f 130 157 178
f 130 178 177
f 130 177 181
f 131 181 180
f 151 171 153
f 149 160 152
f 151 152 171
f 153 171 154
f 154 170 156
f 160 144 161
f 86 142 141
f 144 142 88
f 91 89 144
f 91 144 90
f 144 88 90
f 144 89 161
f 155 158 157
f 158 155 162
f 152 160 171
f 154 171 170
f 156 169 166
f 156 167 169
f 156 170 167
f 156 166 164
f 156 164 162
f 158 159 157
f 158 163 159
f 158 162 163
f 163 165 159
f 162 164 163
f 164 165 163
f 164 166 165
f 161 171 160
f 161 172 171
f 166 169 174
f 167 168 169
f 167 173 168
f 170 173 167
f 171 173 170
f 171 172 173
f 174 317 166
f 174 169 317
f 89 176 175
f 89 175 168
f 161 89 172
f 168 173 89
f 172 89 173
f 179 178 157
f 178 182 177
f 178 179 182
f 177 182 181
f 179 183 182
f 179 184 183
f 180 181 182
f 183 184 186
f 186 187 183
f 184 185 186
f 182 183 193
f 183 187 188
f 183 188 189
f 183 189 192
f 182 193 190
f 183 192 193
f 190 193 191
f 196 195 9
f 9 201 196
f 9 200 201
f 73 202 200
f 73 204 202
f 196 201 197
f 201 198 197
f 197 198 199
f 198 201 202
f 201 200 202
f 198 202 203
f 198 203 199
f 202 204 203
f 77 206 204
f 77 208 206
f 77 209 208
f 77 207 209
f 77 212 207
f 79 214 212
f 204 206 205
f 210 207 211
f 211 207 212
f 214 213 212
f 216 214 215
f 216 215 296
f 217 218 220
f 219 221 222
f 218 219 220
f 225 218 31
f 225 219 218
f 223 224 221
f 225 221 219
f 225 223 221
f 223 225 224
f 224 231 221
f 224 225 227
f 35 36 246
f 226 35 246
f 33 226 233
f 30 33 225
f 33 233 225
f 228 224 229
f 228 231 224
f 224 227 229
f 221 261 222
f 225 232 227
f 228 229 230
f 230 231 228
f 229 231 230
f 227 237 229
f 226 246 233
f 232 233 246
f 225 233 232
f 220 219 234
f 219 222 234
f 234 222 262
f 36 48 246
f 48 247 246
f 48 248 247
f 48 251 248
f 229 235 231
f 221 231 261
f 229 237 235
f 235 236 231
f 227 232 238
f 227 238 237
f 235 237 236
f 222 261 262
f 236 242 231
f 236 237 240
f 232 239 238
f 232 246 239
f 239 246 245
f 242 243 231
f 237 238 241
f 231 243 261
f 236 240 242
f 237 241 240
f 238 239 244
f 238 244 241
f 239 245 244
f 240 243 242
f 240 265 243
f 240 241 265
f 244 245 246
f 244 246 266
f 262 264 234
f 671 13 234
f 246 247 252
f 247 253 252
f 247 248 253
f 248 254 253
f 248 249 250
f 248 250 254
f 248 251 249
f 48 54 251
f 52 56 255
f 52 255 257
f 52 257 258
f 56 58 256
f 56 256 255
f 52 258 259
f 52 259 260
f 52 260 276
f 54 52 676
f 251 54 676
f 52 276 277
f 241 244 267
f 261 263 262
f 262 263 264
f 243 268 261
f 261 268 263
f 241 267 265
f 243 265 268
f 244 266 267
f 246 273 266
f 246 252 660
f 265 269 268
f 265 267 269
f 268 272 263
f 266 270 267
f 267 270 269
f 268 269 272
f 266 273 270
f 246 660 273
f 234 264 671
f 250 677 254
f 249 677 250
f 252 253 664
f 253 254 664
f 269 270 271
f 269 271 272
f 270 273 275
f 270 275 271
f 263 671 264
f 271 274 272
f 252 664 660
f 271 275 274
f 263 272 667
f 274 659 272
f 273 660 275
f 254 677 664
f 249 251 677
f 52 277 278
f 52 278 279
f 52 279 280
f 280 676 52
f 676 677 251
f 70 283 282
f 13 848 70
f 70 289 283
f 78 76 282
f 78 282 281
f 281 282 284
f 282 283 284
f 281 284 285
f 284 287 285
f 281 285 298
f 285 287 307
f 70 848 289
f 283 286 284
f 283 288 286
f 288 283 289
f 284 286 287
f 286 290 287
f 286 288 290
f 288 289 739
f 288 739 290
f 287 290 308
f 290 740 313
f 259 258 291
f 259 293 260
f 259 291 292
f 259 292 293
f 58 476 256
f 256 476 255
f 255 477 257
f 258 257 478
f 58 191 476
f 478 291 258
f 276 260 486
f 260 293 483
f 277 295 278
f 276 498 277
f 276 486 294
f 276 294 498
f 277 498 295
f 278 501 279
f 279 501 280
f 278 295 499
f 215 214 281
f 215 281 298
f 285 299 298
f 285 302 299
f 302 285 304
f 304 285 303
f 285 307 303
f 296 215 298
f 296 298 297
f 300 299 301
f 299 302 301
f 301 302 304
f 305 303 307
f 287 308 307
f 308 290 313
f 740 314 313
f 305 307 306
f 308 309 307
f 308 313 309
f 310 309 312
f 310 312 311
f 309 313 312
f 312 313 314
f 312 314 315
f 316 315 314
f 316 314 761
f 82 81 327
f 82 327 84
f 80 326 81
f 336 92 85
f 85 84 337
f 87 93 328
f 92 328 93
f 90 87 339
f 90 339 91
f 100 94 340
f 97 100 340
f 94 95 348
f 96 97 347
f 98 96 347
f 101 103 351
f 351 104 101
f 347 102 98
f 102 351 103
f 104 326 80
f 105 107 341
f 107 110 341
f 111 112 342
f 112 116 342
f 116 117 342
f 118 343 117
f 118 194 343
f 105 352 108
f 108 353 95
f 111 352 110
f 87 328 329
f 92 330 328
f 331 327 81
f 81 326 331
f 327 334 84
f 332 84 334
f 337 84 332
f 85 337 336
f 329 338 87
f 87 338 339
f 336 330 92
f 343 194 424
f 95 356 348
f 97 340 347
f 340 94 348
f 351 349 104
f 347 351 102
f 104 349 326
f 105 341 352
f 110 352 341
f 111 342 352
f 352 354 108
f 108 354 353
f 353 356 95
f 117 357 342
f 361 117 343
f 358 357 117
f 358 117 359
f 117 361 359
f 157 159 380
f 165 166 380
f 159 165 380
f 166 317 380
f 390 168 175
f 339 176 91
f 175 176 339
f 169 168 390
f 169 390 317
f 157 322 179
f 179 322 184
f 184 406 185
f 185 407 186
f 186 407 187
f 187 411 188
f 188 410 189
f 189 412 192
f 192 412 193
f 157 318 322
f 157 380 318
f 317 381 380
f 317 390 381
f 318 319 323
f 319 320 324
f 320 321 324
f 318 380 319
f 319 380 320
f 320 380 321
f 380 385 321
f 175 400 390
f 175 339 400
f 323 184 322
f 323 324 184
f 324 404 184
f 318 323 322
f 319 324 323
f 184 404 406
f 185 406 407
f 187 407 409
f 187 409 411
f 321 325 324
f 188 411 410
f 189 410 412
f 412 473 193
f 194 195 424
f 195 196 424
f 196 197 424
f 197 199 428
f 199 203 428
f 203 204 428
f 204 205 428
f 205 206 428
f 206 208 428
f 208 209 428
f 209 207 428
f 207 210 428
f 424 197 425
f 197 426 425
f 197 427 426
f 427 197 428
f 210 211 428
f 211 212 428
f 212 213 428
f 213 214 456
f 214 216 456
f 216 296 457
f 213 455 428
f 455 213 456
f 216 457 456
f 328 330 329
f 329 330 338
f 334 326 349
f 326 334 331
f 327 331 334
f 333 332 335
f 332 334 335
f 336 337 332
f 334 349 366
f 334 366 335
f 335 367 333
f 339 332 402
f 330 336 338
f 338 336 332
f 338 332 339
f 368 402 332
f 333 368 332
f 429 343 424
f 353 345 356
f 353 355 345
f 340 346 347
f 345 346 340
f 344 345 340
f 340 348 344
f 348 345 344
f 348 356 345
f 346 345 369
f 355 369 345
f 350 349 351
f 346 351 347
f 346 370 351
f 351 370 350
f 350 366 349
f 352 342 357
f 352 357 354
f 353 354 355
f 361 343 362
f 343 363 362
f 363 343 364
f 364 343 365
f 343 429 365
f 360 361 362
f 360 362 363
f 354 357 371
f 355 354 371
f 358 371 357
f 358 359 371
f 361 373 359
f 360 373 361
f 360 363 373
f 363 364 373
f 364 365 373
f 365 430 373
f 335 366 367
f 333 367 368
f 366 414 367
f 367 414 368
f 366 415 414
f 355 371 369
f 346 369 370
f 350 370 366
f 369 376 370
f 369 374 376
f 359 372 371
f 359 373 372
f 371 372 374
f 369 371 374
f 372 373 375
f 372 375 374
f 366 370 377
f 370 376 377
f 374 422 376
f 366 377 415
f 376 421 377
f 376 422 421
f 374 375 379
f 375 378 379
f 374 379 422
f 378 440 379
f 378 441 440
f 381 391 382
f 383 392 387
f 380 382 383
f 381 382 380
f 383 384 380
f 380 384 385
f 382 392 383
f 383 387 384
f 385 384 389
f 321 385 397
f 384 387 388
f 386 388 387
f 389 384 388
f 386 393 388
f 389 397 385
f 389 388 393
f 399 404 321
f 321 397 399
f 386 398 393
f 389 393 397
f 391 390 403
f 381 390 391
f 382 391 392
f 387 392 386
f 391 403 392
f 392 395 386
f 395 396 386
f 386 396 398
f 393 398 397
f 396 394 398
f 397 398 399
f 394 399 398
f 395 413 396
f 394 396 413
f 390 400 401
f 402 401 400
f 400 339 402
f 401 403 390
f 401 402 403
f 395 403 402
f 402 413 395
f 392 403 395
f 325 321 404
f 324 325 404
f 399 405 404
f 404 405 406
f 406 405 407
f 399 408 405
f 399 394 408
f 405 409 407
f 405 408 409
f 411 409 408
f 394 416 408
f 411 408 412
f 410 411 412
f 408 473 412
f 408 416 473
f 394 413 416
f 368 413 402
f 368 414 417
f 368 417 413
f 414 415 420
f 413 418 416
f 416 487 473
f 416 418 488
f 413 417 418
f 414 489 417
f 415 423 420
f 414 420 489
f 417 419 418
f 417 489 419
f 377 423 415
f 377 421 423
f 421 422 441
f 379 440 422
f 422 440 441
f 420 423 467
f 420 467 489
f 429 424 425
f 425 426 433
f 426 427 433
f 429 425 431
f 365 429 431
f 430 365 431
f 425 433 431
f 430 431 433
f 430 433 432
f 432 434 430
f 427 428 455
f 434 435 430
f 436 430 435
f 432 433 438
f 436 439 430
f 432 438 434
f 438 435 434
f 435 438 436
f 437 436 438
f 436 437 439
f 427 455 433
f 438 433 517
f 373 442 375
f 373 430 442
f 375 442 378
f 441 378 448
f 439 442 430
f 378 442 443
f 444 378 443
f 444 445 446
f 444 446 447
f 446 545 447
f 545 448 447
f 378 444 447
f 545 449 448
f 447 448 378
f 448 449 441
f 441 449 452
f 441 452 453
f 450 452 449
f 450 451 452
f 545 450 449
f 450 546 451
f 451 547 452
f 452 547 453
f 453 547 454
f 433 455 456
f 433 456 457
f 433 457 511
f 433 511 512
f 433 512 513
f 433 513 514
f 517 433 514
f 438 517 527
f 421 466 423
f 421 441 466
f 468 489 467
f 423 466 467
f 453 459 441
f 441 459 460
f 460 463 441
f 441 463 464
f 441 464 466
f 454 458 453
f 458 459 453
f 454 548 458
f 459 458 560
f 459 560 460
f 461 462 460
f 460 462 463
f 460 560 461
f 462 461 561
f 462 561 463
f 463 561 465
f 465 561 469
f 463 465 464
f 464 465 466
f 468 465 469
f 468 467 466
f 466 465 468
f 469 472 468
f 469 470 472
f 468 471 518
f 468 472 471
f 471 472 518
f 255 476 477
f 191 193 476
f 257 477 478
f 291 481 292
f 292 481 293
f 483 485 260
f 485 484 260
f 260 484 486
f 473 474 193
f 475 193 474
f 193 475 476
f 291 478 481
f 481 483 293
f 278 499 501
f 501 502 280
f 294 486 495
f 495 496 294
f 498 294 496
f 498 499 295
f 296 297 457
f 297 298 511
f 299 511 298
f 300 512 299
f 300 301 516
f 304 516 301
f 304 303 515
f 303 305 515
f 297 511 457
f 511 299 512
f 300 513 512
f 300 516 513
f 304 515 516
f 517 515 305
f 517 305 527
f 306 527 305
f 306 307 525
f 307 309 525
f 310 525 309
f 310 311 525
f 311 312 528
f 312 315 528
f 316 530 315
f 525 527 306
f 311 526 525
f 311 531 526
f 529 315 530
f 311 528 531
f 315 531 528
f 315 529 531
f 475 477 476
f 475 474 477
f 474 487 479
f 473 487 474
f 474 479 477
f 477 481 478
f 479 480 477
f 482 477 480
f 481 477 482
f 480 483 482
f 481 482 483
f 480 485 483
f 480 479 492
f 480 492 485
f 484 485 486
f 486 485 495
f 485 492 495
f 416 488 487
f 479 487 492
f 487 488 493
f 418 490 488
f 488 490 494
f 418 419 490
f 419 489 491
f 419 491 490
f 487 493 492
f 492 493 504
f 488 494 493
f 493 494 505
f 490 491 494
f 494 491 505
f 489 521 491
f 491 524 505
f 496 495 497
f 492 497 495
f 497 500 496
f 496 500 498
f 498 500 499
f 497 503 500
f 499 500 501
f 500 502 501
f 500 992 502
f 500 993 992
f 500 507 993
f 492 503 497
f 492 504 503
f 503 504 507
f 493 506 504
f 493 505 506
f 504 506 508
f 500 503 507
f 507 509 1000
f 504 509 507
f 504 508 509
f 506 510 508
f 508 510 509
f 509 510 1001
f 505 536 506
f 506 536 510
f 438 527 526
f 438 526 532
f 513 516 514
f 515 514 516
f 515 517 514
f 438 532 534
f 438 534 535
f 489 468 521
f 521 520 491
f 520 523 491
f 523 524 491
f 468 518 521
f 472 519 518
f 518 519 521
f 519 520 521
f 519 522 520
f 520 522 523
f 522 524 523
f 522 612 524
f 526 527 525
f 526 531 532
f 529 530 533
f 531 529 532
f 529 533 532
f 534 532 533
f 534 533 530
f 534 530 535
f 535 1188 438
f 505 524 536
f 510 536 537
f 510 537 543
f 510 543 1030
f 536 524 538
f 524 614 538
f 536 538 537
f 537 538 540
f 538 625 541
f 537 540 539
f 537 539 542
f 537 542 543
f 539 540 542
f 538 541 540
f 540 543 542
f 540 1031 543
f 540 541 1031
f 541 544 1031
f 544 1200 1031
f 437 438 578
f 578 549 437
f 437 549 439
f 442 439 549
f 443 549 444
f 442 549 443
f 444 549 445
f 445 549 446
f 446 551 545
f 545 551 546
f 545 546 450
f 451 546 547
f 454 547 548
f 546 556 547
f 547 557 548
f 547 556 557
f 548 557 563
f 446 549 550
f 446 550 551
f 551 552 546
f 551 550 552
f 550 553 552
f 553 550 554
f 552 553 556
f 553 554 555
f 546 552 556
f 556 558 557
f 557 559 563
f 553 555 556
f 555 558 556
f 558 555 559
f 557 558 559
f 555 566 559
f 555 569 566
f 566 565 559
f 458 548 560
f 461 560 561
f 469 561 470
f 548 563 560
f 560 563 564
f 560 564 561
f 561 564 562
f 470 562 472
f 470 561 562
f 472 562 613
f 562 572 613
f 563 571 564
f 562 564 572
f 564 571 572
f 563 559 571
f 559 565 571
f 566 567 571
f 571 565 566
f 567 566 568
f 566 569 568
f 567 568 571
f 568 570 571
f 569 574 568
f 574 570 568
f 570 572 571
f 572 570 573
f 574 573 570
f 572 620 613
f 573 574 575
f 572 573 576
f 573 575 576
f 572 576 620
f 575 577 576
f 578 580 579
f 578 579 585
f 578 581 580
f 579 580 587
f 578 583 581
f 581 583 582
f 580 581 589
f 581 582 590
f 578 584 583
f 582 583 594
f 583 584 595
f 584 597 596
f 578 585 549
f 579 587 585
f 550 549 585
f 550 585 554
f 585 587 586
f 554 585 586
f 586 587 588
f 580 589 587
f 581 590 589
f 582 594 590
f 587 589 588
f 589 590 591
f 554 586 555
f 586 588 593
f 588 589 591
f 588 591 593
f 590 594 591
f 591 594 600
f 555 586 569
f 586 593 592
f 569 586 592
f 592 593 599
f 591 600 593
f 583 595 594
f 584 596 595
f 594 595 607
f 595 596 607
f 578 636 584
f 597 598 606
f 584 636 597
f 597 636 598
f 598 634 609
f 594 607 600
f 569 592 601
f 592 599 601
f 569 601 574
f 599 604 601
f 593 600 599
f 599 600 602
f 599 602 604
f 600 607 603
f 600 603 602
f 574 601 575
f 575 601 577
f 577 601 616
f 601 617 616
f 601 604 617
f 604 605 617
f 602 603 605
f 602 605 604
f 603 641 605
f 596 597 606
f 596 610 607
f 596 606 610
f 606 611 610
f 606 608 611
f 598 608 606
f 603 607 610
f 608 640 611
f 598 609 608
f 608 609 640
f 603 610 639
f 603 639 641
f 610 611 640
f 610 640 639
f 1188 578 438
f 472 612 519
f 472 613 612
f 519 612 522
f 612 613 620
f 524 612 614
f 612 615 614
f 612 620 615
f 576 577 620
f 616 617 618
f 577 616 620
f 616 618 620
f 618 619 620
f 620 619 621
f 615 620 622
f 620 621 623
f 623 621 619
f 619 624 623
f 620 623 622
f 538 614 625
f 614 626 625
f 614 615 626
f 615 622 626
f 541 625 544
f 544 625 627
f 544 627 1200
f 625 626 627
f 622 628 626
f 622 623 628
f 624 630 623
f 623 629 628
f 623 630 629
f 624 631 630
f 626 628 627
f 627 628 632
f 628 629 632
f 629 630 632
f 630 633 632
f 598 636 634
f 634 635 638
f 634 636 635
f 578 1222 636
f 635 636 642
f 617 637 618
f 637 619 618
f 617 641 637
f 605 641 617
f 619 637 624
f 624 637 649
f 637 641 644
f 637 644 653
f 637 653 649
f 609 634 638
f 609 638 645
f 635 642 638
f 639 640 644
f 639 644 641
f 609 645 640
f 638 642 645
f 636 643 642
f 642 654 645
f 642 643 654
f 640 645 652
f 640 653 644
f 640 652 653
f 645 654 652
f 636 646 643
f 646 647 651
f 578 1282 1222
f 636 1222 646
f 647 646 648
f 648 646 1222
f 647 648 656
f 656 648 1221
f 624 649 631
f 631 649 650
f 649 657 650
f 643 646 651
f 643 655 654
f 643 651 655
f 652 657 653
f 649 653 657
f 652 658 657
f 652 654 658
f 647 656 651
f 651 656 655
f 655 656 1227
f 657 658 1225
f 650 657 1225
f 658 1228 1225
f 654 655 1227
f 654 1227 658
f 658 1227 1228
f 274 275 661
f 275 660 661
f 274 661 659
f 659 667 272
f 659 661 662
f 671 263 667
f 660 663 661
f 661 663 666
f 659 662 667
f 661 666 662
f 660 664 663
f 671 793 13
f 664 677 674
f 663 665 666
f 662 666 667
f 663 669 665
f 665 668 666
f 666 668 667
f 663 664 687
f 674 686 664
f 665 670 668
f 667 668 681
f 665 669 670
f 663 687 669
f 667 672 671
f 667 680 672
f 667 681 680
f 671 672 673
f 668 670 681
f 669 682 670
f 664 689 687
f 664 686 689
f 674 675 686
f 674 678 675
f 13 793 836
f 849 13 839
f 675 678 679
f 670 683 681
f 669 691 682
f 670 682 683
f 681 694 680
f 683 694 681
f 682 691 684
f 683 682 695
f 682 684 695
f 687 685 691
f 686 688 689
f 688 690 689
f 685 687 689
f 690 704 701
f 675 688 686
f 675 703 688
f 685 689 701
f 690 701 689
f 688 704 690
f 688 703 704
f 669 687 691
f 684 691 692
f 691 685 692
f 685 693 692
f 694 696 680
f 672 722 673
f 672 680 722
f 696 714 680
f 697 694 683
f 684 698 695
f 683 695 697
f 697 696 694
f 680 714 716
f 695 715 697
f 685 701 708
f 693 685 708
f 693 708 699
f 699 708 700
f 700 708 719
f 684 692 699
f 692 693 699
f 684 699 698
f 698 699 700
f 673 793 671
f 701 704 702
f 675 706 703
f 704 707 702
f 703 706 704
f 704 706 707
f 702 731 705
f 701 702 709
f 701 709 708
f 702 710 709
f 702 705 710
f 705 711 712
f 705 712 713
f 705 732 711
f 697 714 696
f 680 716 722
f 673 722 721
f 697 716 714
f 695 698 715
f 697 715 716
f 698 717 715
f 725 719 708
f 725 708 728
f 698 700 718
f 700 719 718
f 698 718 717
f 718 719 726
f 715 723 716
f 715 717 723
f 716 723 720
f 723 724 720
f 717 727 723
f 716 720 785
f 722 716 785
f 785 720 724
f 717 718 727
f 718 726 727
f 719 725 726
f 725 729 726
f 726 788 727
f 725 728 729
f 726 729 784
f 673 721 793
f 708 709 728
f 709 710 803
f 705 803 710
f 709 803 728
f 13 836 839
f 679 730 675
f 706 675 730
f 702 707 731
f 705 731 732
f 706 731 707
f 711 732 733
f 706 730 731
f 711 733 712
f 712 734 713
f 712 733 734
f 735 713 734
f 730 732 731
f 730 734 733
f 730 733 732
f 735 734 736
f 734 730 736
f 713 823 705
f 735 822 713
f 705 805 803
f 705 810 808
f 705 808 805
f 705 823 810
f 713 822 823
f 735 737 822
f 849 848 13
f 289 738 739
f 290 739 740
f 739 741 740
f 738 742 739
f 289 848 738
f 739 742 741
f 741 742 744
f 740 741 767
f 741 744 767
f 738 745 742
f 742 743 744
f 742 746 743
f 742 745 746
f 743 747 744
f 848 745 738
f 743 746 747
f 745 852 746
f 746 853 747
f 746 852 853
f 744 747 774
f 747 853 779
f 677 995 674
f 679 678 748
f 674 995 678
f 280 995 676
f 676 995 677
f 748 678 996
f 679 750 730
f 736 751 735
f 730 751 736
f 735 751 737
f 679 748 750
f 737 751 825
f 751 824 825
f 751 886 824
f 748 749 750
f 751 752 886
f 752 753 886
f 753 754 886
f 754 755 893
f 756 905 755
f 756 757 905
f 757 758 905
f 760 896 895
f 314 740 762
f 740 766 762
f 740 767 766
f 744 768 767
f 744 775 768
f 761 314 762
f 762 763 761
f 762 766 763
f 763 765 764
f 766 765 763
f 770 769 768
f 770 771 769
f 768 776 770
f 771 770 772
f 772 770 773
f 744 774 775
f 778 774 747
f 779 778 747
f 768 775 776
f 770 776 773
f 772 773 771
f 774 776 775
f 776 774 777
f 782 777 774
f 779 781 780
f 781 779 969
f 778 782 774
f 778 783 782
f 723 785 724
f 723 727 787
f 723 787 785
f 722 795 721
f 727 788 787
f 726 784 788
f 787 786 785
f 787 789 786
f 786 789 785
f 722 785 795
f 784 790 788
f 787 788 791
f 787 791 789
f 795 796 721
f 785 789 795
f 788 790 792
f 788 792 791
f 789 791 795
f 721 794 793
f 793 794 799
f 721 800 794
f 721 796 800
f 784 812 790
f 728 817 729
f 729 816 784
f 784 811 812
f 790 815 792
f 790 812 815
f 791 792 795
f 792 797 795
f 792 798 797
f 795 797 796
f 799 802 793
f 794 801 799
f 794 800 801
f 798 800 797
f 796 797 800
f 799 801 838
f 800 834 801
f 798 828 800
f 793 802 836
f 799 838 802
f 728 803 805
f 728 805 808
f 806 728 808
f 728 806 817
f 729 817 816
f 784 816 811
f 809 815 807
f 807 815 804
f 804 818 807
f 806 809 807
f 806 808 809
f 808 810 809
f 806 807 817
f 807 818 817
f 811 813 812
f 812 813 815
f 814 815 813
f 804 815 814
f 811 816 813
f 814 818 804
f 814 813 818
f 816 818 813
f 817 818 816
f 792 815 819
f 792 819 820
f 792 820 821
f 792 821 832
f 810 819 809
f 809 819 815
f 810 827 819
f 819 827 820
f 820 830 821
f 822 826 823
f 737 826 822
f 737 825 826
f 825 824 826
f 823 831 810
f 820 827 830
f 810 831 827
f 821 830 831
f 792 870 798
f 798 829 828
f 792 832 833
f 792 833 865
f 798 874 829
f 800 880 834
f 821 831 832
f 792 865 866
f 792 866 867
f 792 867 871
f 792 871 870
f 827 831 830
f 823 864 831
f 831 833 832
f 798 870 872
f 798 872 874
f 829 877 828
f 800 828 878
f 800 878 879
f 800 879 880
f 801 835 838
f 801 834 835
f 802 838 837
f 802 837 836
f 837 838 842
f 835 841 838
f 839 836 837
f 837 840 839
f 839 844 856
f 839 840 844
f 838 841 842
f 837 842 843
f 837 843 845
f 837 845 840
f 840 845 844
f 844 845 846
f 844 846 847
f 834 880 835
f 835 944 841
f 842 841 947
f 843 842 952
f 843 956 845
f 845 962 846
f 846 962 847
f 848 850 852
f 849 851 848
f 848 851 850
f 849 858 851
f 850 851 858
f 850 859 855
f 848 852 745
f 852 854 853
f 850 855 852
f 852 855 854
f 853 854 971
f 854 855 981
f 849 839 856
f 849 856 857
f 844 857 856
f 849 857 858
f 850 858 859
f 857 863 858
f 858 862 859
f 844 861 857
f 857 861 863
f 844 847 860
f 844 860 861
f 858 863 862
f 859 990 855
f 847 990 860
f 861 990 863
f 860 990 861
f 859 862 990
f 862 863 990
f 826 887 823
f 824 887 826
f 824 886 887
f 887 901 823
f 917 910 823
f 864 823 911
f 831 864 833
f 833 864 865
f 865 864 866
f 866 864 868
f 866 868 867
f 868 864 869
f 874 875 829
f 875 876 829
f 829 876 877
f 877 878 828
f 867 868 871
f 871 868 870
f 868 872 870
f 868 869 872
f 864 883 869
f 869 874 872
f 910 911 823
f 873 875 869
f 869 883 873
f 864 911 883
f 869 875 874
f 875 873 876
f 873 877 876
f 873 879 877
f 880 879 873
f 877 879 878
f 881 882 880
f 873 883 880
f 883 881 880
f 883 884 881
f 884 885 881
f 883 885 884
f 885 883 913
f 754 888 886
f 754 889 888
f 754 891 889
f 754 893 891
f 823 901 900
f 900 916 823
f 823 916 917
f 886 888 887
f 888 889 887
f 887 889 890
f 890 889 892
f 889 891 892
f 887 890 901
f 890 892 901
f 892 894 901
f 891 893 892
f 892 893 894
f 894 893 904
f 893 755 905
f 905 758 759
f 897 895 896
f 905 759 760
f 760 895 905
f 895 897 905
f 894 904 901
f 893 903 904
f 905 903 893
f 904 903 901
f 897 898 905
f 898 899 905
f 899 902 905
f 902 906 905
f 907 905 906
f 910 909 911
f 911 909 908
f 881 914 882
f 881 885 914
f 885 913 914
f 909 910 917
f 912 914 913
f 908 932 912
f 909 929 908
f 882 914 915
f 911 912 883
f 908 912 911
f 912 913 883
f 880 882 937
f 882 915 937
f 909 917 916
f 909 916 918
f 909 918 922
f 909 922 924
f 909 924 926
f 912 931 914
f 908 929 928
f 908 928 932
f 912 932 931
f 909 926 929
f 916 900 920
f 916 919 918
f 918 919 922
f 921 923 919
f 922 919 923
f 921 925 923
f 922 923 924
f 923 925 924
f 925 926 924
f 927 929 926
f 928 929 930
f 928 930 933
f 928 933 932
f 933 931 932
f 914 931 915
f 930 934 933
f 931 937 915
f 934 935 933
f 931 933 937
f 935 936 933
f 933 936 938
f 933 938 937
f 835 880 944
f 944 948 841
f 841 948 947
f 947 953 842
f 952 842 953
f 952 956 843
f 956 957 845
f 845 957 961
f 962 845 961
f 962 963 847
f 963 964 847
f 847 964 984
f 937 943 880
f 880 943 944
f 937 939 943
f 939 940 942
f 940 941 942
f 939 942 945
f 943 939 945
f 944 943 945
f 944 945 948
f 946 948 945
f 947 948 949
f 947 950 951
f 947 951 953
f 952 954 956
f 956 954 955
f 957 958 959
f 957 959 960
f 957 960 961
f 964 965 984
f 965 966 984
f 984 966 967
f 967 968 984
f 779 853 970
f 853 971 970
f 854 975 971
f 975 854 977
f 854 976 977
f 854 981 976
f 855 980 981
f 779 970 969
f 975 972 971
f 975 973 972
f 975 974 973
f 976 979 978
f 976 981 979
f 982 980 991
f 855 988 980
f 847 984 985
f 847 985 990
f 855 990 988
f 991 980 988
f 968 983 984
f 986 990 985
f 986 987 990
f 987 989 990
f 988 990 989
f 992 280 502
f 992 994 280
f 994 995 280
f 678 995 996
f 748 996 749
f 996 998 749
f 749 998 999
f 730 750 1007
f 730 1007 751
f 749 1007 750
f 751 1010 752
f 752 1010 753
f 753 1010 754
f 755 754 1010
f 755 1011 756
f 757 756 1011
f 757 1014 758
f 758 1015 759
f 760 759 1016
f 760 1016 896
f 749 999 1007
f 1007 1008 751
f 1008 1009 751
f 751 1009 1010
f 1010 1011 755
f 757 1011 1013
f 757 1013 1014
f 758 1014 1015
f 759 1015 1016
f 896 1016 1017
f 761 1025 316
f 761 763 1025
f 1025 763 764
f 765 1027 764
f 765 766 1027
f 767 768 1027
f 766 767 1027
f 768 769 1027
f 771 1026 769
f 316 1025 530
f 1025 764 1027
f 769 1028 1027
f 1028 769 1026
f 773 776 1043
f 771 773 1045
f 776 777 1043
f 777 782 1048
f 1047 783 778
f 778 779 1047
f 780 1047 779
f 1047 780 781
f 783 1049 782
f 777 1048 1043
f 1026 771 1045
f 773 1044 1045
f 1044 773 1046
f 1043 1046 773
f 783 1047 1050
f 1048 782 1049
f 783 1050 1049
f 993 994 992
f 993 1000 994
f 995 994 996
f 994 997 996
f 994 1000 997
f 997 998 996
f 999 998 1007
f 997 1018 998
f 507 1000 993
f 1000 1002 1003
f 509 1002 1000
f 509 1001 1002
f 1001 1004 1002
f 1001 1005 1004
f 997 1000 1003
f 997 1003 1018
f 1003 1004 1018
f 1002 1004 1003
f 1004 1005 1006
f 1004 1006 1019
f 510 1030 1001
f 1005 1001 1030
f 1005 1051 1006
f 1007 998 1008
f 998 1009 1008
f 998 1018 1009
f 1010 1009 1012
f 1010 1012 1011
f 1012 1009 1013
f 1013 1009 1018
f 1012 1013 1011
f 1013 1015 1014
f 1013 1017 1015
f 1013 1070 1017
f 1016 1015 1017
f 1013 1021 1070
f 1018 1019 1021
f 1004 1019 1018
f 1006 1022 1019
f 1006 1020 1022
f 1013 1018 1021
f 1021 1106 1070
f 1021 1022 1106
f 1022 1107 1106
f 1019 1022 1021
f 1020 1108 1022
f 1020 1023 1108
f 1006 1052 1020
f 1020 1058 1023
f 1023 1058 1109
f 535 530 1024
f 1025 1024 530
f 1024 1025 1027
f 1028 1026 1029
f 1005 1030 1051
f 1006 1051 1052
f 543 1031 1030
f 1030 1031 1032
f 1034 1033 1032
f 1033 1034 1036
f 1031 1035 1032
f 1031 1200 1035
f 1032 1035 1034
f 1034 1035 1036
f 1033 1038 1032
f 1030 1032 1051
f 1033 1036 1038
f 1032 1038 1040
f 1035 1037 1036
f 1036 1039 1038
f 1036 1037 1039
f 1032 1040 1053
f 1032 1053 1051
f 1038 1039 1042
f 1040 1038 1041
f 1038 1042 1041
f 1040 1041 1056
f 1026 1045 1029
f 535 1024 1188
f 1027 1188 1024
f 1028 1188 1027
f 1028 1029 1188
f 1029 1045 1188
f 1020 1052 1058
f 1058 1060 1109
f 1052 1051 1053
f 1052 1053 1054
f 1040 1056 1053
f 1053 1056 1054
f 1056 1055 1054
f 1054 1057 1052
f 1054 1055 1057
f 1056 1057 1055
f 1052 1057 1058
f 1056 1059 1057
f 1058 1057 1059
f 1059 1060 1058
f 1056 1061 1059
f 1060 1059 1172
f 1059 1061 1172
f 900 901 1062
f 901 903 1062
f 903 905 1062
f 905 907 1062
f 896 1072 897
f 897 1072 898
f 898 1072 899
f 899 1073 902
f 902 1074 906
f 906 1078 907
f 920 900 1065
f 920 1082 916
f 916 1081 919
f 919 1081 921
f 921 1081 925
f 926 925 1081
f 1081 927 926
f 1081 929 927
f 930 929 1092
f 930 1092 934
f 934 1092 935
f 935 1092 936
f 900 1062 1065
f 1062 907 1078
f 1017 1070 896
f 896 1070 1069
f 1069 1071 896
f 1071 1072 896
f 1072 1073 899
f 1062 1063 1065
f 902 1073 1074
f 1074 1075 906
f 906 1075 1076
f 906 1076 1077
f 906 1077 1078
f 1063 1064 1066
f 920 1065 1082
f 916 1082 1081
f 1081 1092 929
f 1063 1066 1065
f 1064 1067 1066
f 1064 1068 1067
f 1065 1066 1082
f 1066 1067 1082
f 1067 1068 1082
f 1068 1083 1082
f 936 1092 1102
f 1102 1103 936
f 1103 1104 936
f 936 1119 938
f 938 1120 937
f 939 937 1120
f 939 1120 940
f 940 1120 941
f 941 1122 942
f 945 942 1122
f 946 945 1124
f 946 1130 948
f 1130 949 948
f 949 1131 947
f 947 1131 950
f 1131 951 950
f 951 1125 953
f 953 1125 952
f 952 1125 954
f 954 1125 955
f 955 1126 956
f 956 1126 957
f 1126 958 957
f 958 1126 959
f 961 960 1127
f 961 1127 962
f 1127 963 962
f 963 1127 964
f 964 1127 965
f 965 1129 966
f 967 966 1129
f 967 1129 968
f 959 1141 960
f 1104 1119 936
f 938 1119 1120
f 1120 1122 941
f 1122 1123 945
f 1149 945 1123
f 945 1149 1124
f 1127 1128 965
f 946 1124 1130
f 949 1130 1131
f 1131 1132 951
f 1135 951 1132
f 951 1135 1136
f 951 1137 1125
f 1137 955 1125
f 1137 1126 955
f 951 1136 1137
f 959 1126 1141
f 1144 1127 960
f 1142 960 1141
f 960 1142 1143
f 960 1143 1144
f 965 1128 1145
f 965 1146 1129
f 1129 1146 968
f 1146 1178 968
f 1145 1146 965
f 1163 781 969
f 970 1164 969
f 971 1164 970
f 971 972 1164
f 972 973 1164
f 974 1183 973
f 974 975 1183
f 975 977 1183
f 976 1183 977
f 976 978 1183
f 1047 781 1163
f 1163 969 1164
f 1164 973 1183
f 968 1178 983
f 983 1180 984
f 984 1180 985
f 985 1180 986
f 986 1183 987
f 991 988 1183
f 987 1183 989
f 989 1183 988
f 979 1183 978
f 979 981 1183
f 980 1183 981
f 980 982 1183
f 982 991 1183
f 983 1178 1179
f 1180 983 1179
f 1180 1181 986
f 1181 1183 986
f 1062 1078 1063
f 1063 1078 1064
f 1064 1078 1068
f 1068 1078 1079
f 1069 1074 1071
f 1072 1071 1074
f 1070 1107 1069
f 1069 1107 1074
f 1072 1074 1073
f 1076 1075 1095
f 1077 1079 1078
f 1077 1076 1079
f 1095 1075 1096
f 1079 1076 1095
f 1074 1110 1075
f 1084 1083 1086
f 1081 1082 1080
f 1080 1082 1084
f 1082 1083 1084
f 1081 1080 1088
f 1080 1084 1087
f 1068 1093 1083
f 1083 1085 1086
f 1084 1086 1087
f 1080 1087 1088
f 1081 1088 1089
f 1081 1089 1090
f 1085 1083 1093
f 1085 1094 1086
f 1086 1094 1087
f 1087 1096 1088
f 1068 1079 1095
f 1068 1096 1093
f 1068 1095 1096
f 1089 1088 1097
f 1081 1090 1091
f 1090 1089 1099
f 1091 1092 1081
f 1090 1101 1091
f 1091 1102 1092
f 1085 1093 1094
f 1087 1094 1096
f 1096 1097 1088
f 1096 1094 1093
f 1096 1075 1097
f 1075 1110 1097
f 1089 1097 1098
f 1089 1098 1099
f 1099 1100 1090
f 1099 1101 1100
f 1110 1098 1097
f 1090 1100 1101
f 1099 1103 1101
f 1091 1101 1102
f 1099 1105 1103
f 1101 1103 1102
f 1104 1103 1105
f 1104 1105 1118
f 1098 1111 1099
f 1111 1105 1099
f 1070 1106 1107
f 1074 1107 1110
f 1107 1108 1110
f 1022 1108 1107
f 1023 1112 1108
f 1023 1109 1112
f 1109 1114 1112
f 1108 1111 1110
f 1098 1110 1111
f 1111 1112 1148
f 1108 1112 1111
f 1112 1114 1113
f 1112 1113 1148
f 1109 1170 1114
f 1114 1169 1115
f 1114 1115 1150
f 1113 1114 1150
f 1115 1151 1150
f 1115 1116 1151
f 1116 1152 1117
f 1104 1118 1119
f 1118 1120 1119
f 1118 1122 1120
f 1118 1121 1122
f 1105 1148 1118
f 1118 1148 1121
f 1122 1121 1123
f 1121 1149 1123
f 1127 1144 1128
f 1130 1124 1132
f 1132 1131 1130
f 1133 1134 1132
f 1132 1134 1135
f 1124 1149 1132
f 1132 1149 1133
f 1133 1156 1134
f 1134 1157 1135
f 1135 1137 1136
f 1135 1138 1137
f 1137 1138 1126
f 1126 1138 1139
f 1139 1140 1126
f 1135 1157 1138
f 1157 1139 1138
f 1141 1126 1140
f 1140 1142 1141
f 1143 1145 1144
f 1128 1144 1145
f 1147 1178 1146
f 1143 1147 1145
f 1146 1145 1147
f 1139 1160 1140
f 1140 1160 1142
f 1142 1160 1143
f 1143 1161 1147
f 1147 1161 1185
f 1105 1111 1148
f 1113 1149 1148
f 1113 1150 1149
f 1121 1148 1149
f 1149 1150 1156
f 1116 1153 1151
f 1150 1151 1156
f 1151 1153 1159
f 1117 1154 1153
f 1152 1155 1154
f 1116 1117 1153
f 1117 1152 1154
f 1154 1155 1162
f 1133 1149 1156
f 1134 1156 1157
f 1151 1158 1156
f 1151 1159 1158
f 1157 1158 1139
f 1139 1158 1159
f 1157 1156 1158
f 1153 1160 1159
f 1139 1159 1160
f 1143 1160 1161
f 1160 1162 1161
f 1153 1154 1160
f 1154 1162 1160
f 1043 1048 1186
f 1048 1049 1187
f 1050 1187 1049
f 1046 1043 1186
f 1045 1044 1188
f 1046 1188 1044
f 1047 1187 1050
f 1163 1187 1047
f 1163 1164 1187
f 1060 1166 1109
f 1109 1167 1170
f 1167 1109 1166
f 1114 1170 1169
f 1115 1169 1116
f 1116 1170 1152
f 1169 1170 1116
f 1060 1165 1166
f 1172 1165 1060
f 1167 1168 1170
f 1165 1172 1166
f 1172 1167 1166
f 1167 1172 1173
f 1167 1173 1168
f 1168 1173 1171
f 1152 1170 1168
f 1168 1171 1152
f 1171 1177 1152
f 1171 1174 1176
f 1177 1171 1176
f 1173 1174 1171
f 1177 1176 1175
f 1177 1175 1190
f 1175 1176 1248
f 1174 1248 1176
f 1180 1182 1181
f 1179 1178 1187
f 1179 1187 1180
f 1183 1181 1184
f 1181 1182 1184
f 1180 1187 1182
f 1184 1182 1187
f 1178 1147 1185
f 1178 1185 1187
f 1185 1188 1187
f 1185 1161 1188
f 1164 1183 1184
f 1164 1184 1187
f 1048 1187 1186
f 1046 1186 1188
f 1186 1187 1188
f 1198 1189 1188
f 1152 1193 1155
f 1162 1197 1161
f 1155 1197 1162
f 1152 1177 1193
f 1177 1190 1191
f 1193 1177 1192
f 1192 1177 1191
f 1193 1192 1194
f 1191 1265 1192
f 1192 1265 1194
f 1197 1155 1198
f 1198 1155 1199
f 1188 1161 1197
f 1193 1194 1199
f 1195 1199 1194
f 1199 1195 1196
f 1196 1195 1265
f 1197 1198 1188
f 1193 1199 1155
f 1194 1265 1195
f 627 1035 1200
f 1035 1201 1037
f 1037 1201 1039
f 627 1201 1035
f 1039 1201 1042
f 1041 1042 1201
f 1041 1201 1208
f 627 632 1201
f 632 1204 1201
f 633 1202 632
f 633 630 1202
f 1202 630 1203
f 1203 630 1205
f 632 1202 1204
f 630 1206 1205
f 1202 1203 1204
f 1201 1204 1210
f 1201 1210 1208
f 1204 1205 1210
f 1203 1205 1204
f 1205 1206 1210
f 1207 1210 1206
f 1207 1211 1210
f 578 1188 1189
f 578 1189 1261
f 1041 1208 1056
f 1056 1209 1061
f 1056 1208 1209
f 1061 1209 1246
f 1208 1210 1212
f 1208 1212 1209
f 1210 1211 1212
f 1207 1214 1211
f 1212 1211 1213
f 1211 1214 1213
f 1209 1212 1219
f 1209 1219 1246
f 1212 1216 1219
f 1212 1213 1215
f 1212 1215 1216
f 1213 1214 1215
f 1216 1215 1218
f 1217 1216 1218
f 1219 1216 1220
f 1219 1220 1250
f 1217 1252 1216
f 1216 1252 1220
f 1261 1282 578
f 648 1222 1221
f 1221 1222 1224
f 1222 1232 1230
f 631 1223 630
f 631 650 1223
f 630 1223 1206
f 650 1226 1223
f 1223 1207 1206
f 656 1221 1224
f 656 1224 1227
f 1224 1229 1227
f 650 1225 1226
f 1225 1228 1226
f 1226 1228 1231
f 1227 1231 1228
f 1227 1229 1231
f 1222 1230 1224
f 1224 1230 1229
f 1229 1235 1238
f 1229 1230 1235
f 1226 1231 1236
f 1231 1239 1236
f 1223 1226 1237
f 1226 1236 1237
f 1229 1238 1231
f 1231 1238 1239
f 1222 1234 1232
f 1232 1233 1240
f 1233 1232 1234
f 1234 1222 1282
f 1233 1234 1241
f 1223 1214 1207
f 1214 1223 1215
f 1223 1218 1215
f 1223 1237 1243
f 1218 1223 1243
f 1218 1284 1217
f 1218 1243 1285
f 1243 1244 1286
f 1230 1232 1235
f 1232 1240 1235
f 1238 1241 1239
f 1235 1240 1238
f 1236 1242 1237
f 1236 1239 1245
f 1237 1242 1243
f 1233 1241 1240
f 1239 1241 1245
f 1238 1240 1241
f 1236 1245 1242
f 1242 1244 1243
f 1242 1292 1244
f 1242 1245 1292
f 1061 1246 1172
f 1173 1247 1249
f 1172 1247 1173
f 1172 1246 1247
f 1173 1249 1174
f 1174 1249 1248
f 1247 1254 1249
f 1248 1255 1267
f 1248 1249 1255
f 1219 1247 1246
f 1219 1251 1247
f 1247 1251 1254
f 1219 1250 1251
f 1220 1252 1250
f 1251 1250 1252
f 1252 1253 1251
f 1251 1253 1257
f 1249 1254 1255
f 1259 1256 1257
f 1251 1256 1254
f 1254 1256 1255
f 1257 1256 1251
f 1259 1257 1253
f 1256 1258 1255
f 1258 1268 1255
f 1268 1269 1255
f 1256 1259 1258
f 1258 1259 1268
f 1259 1260 1268
f 1198 1262 1189
f 1261 1189 1262
f 1198 1263 1262
f 1261 1262 1263
f 1263 1264 1261
f 1266 1190 1175
f 1191 1190 1266
f 1175 1248 1266
f 1191 1266 1265
f 1248 1267 1266
f 1265 1266 1276
f 1196 1279 1199
f 1198 1199 1279
f 1196 1265 1279
f 1255 1269 1267
f 1266 1267 1274
f 1267 1269 1270
f 1268 1260 1269
f 1260 1271 1269
f 1271 1267 1270
f 1267 1271 1272
f 1267 1272 1273
f 1267 1273 1274
f 1266 1274 1275
f 1269 1271 1270
f 1265 1276 1277
f 1277 1278 1265
f 1264 1263 1198
f 1279 1264 1198
f 1265 1278 1279
f 1266 1275 1276
f 1273 1272 1278
f 1273 1278 1274
f 1278 1275 1274
f 1272 1280 1278
f 1275 1278 1276
f 1264 1279 1280
f 1278 1277 1276
f 1278 1280 1279
f 1234 1281 1241
f 1281 1234 1283
f 1234 1282 1283
f 1281 1283 1291
f 1298 1282 1299
f 1282 1298 1293
f 1283 1282 1291
f 1217 1284 1252
f 1218 1285 1284
f 1243 1286 1285
f 1285 1286 1288
f 1286 1292 1289
f 1284 1285 1288
f 1284 1288 1287
f 1252 1287 1253
f 1252 1284 1287
f 1253 1287 1259
f 1287 1288 1303
f 1286 1289 1288
f 1289 1292 1301
f 1288 1289 1303
f 1245 1293 1290
f 1241 1281 1291
f 1241 1291 1245
f 1245 1291 1293
f 1244 1292 1286
f 1245 1290 1292
f 1290 1312 1292
f 1290 1293 1312
f 1293 1298 1312
f 1292 1312 1311
f 1292 1311 1301
f 1282 1293 1291
f 1261 1299 1282
f 1261 1295 1294
f 1261 1264 1304
f 1261 1304 1295
f 1294 1295 1304
f 1261 1294 1299
f 1299 1297 1296
f 1299 1294 1297
f 1296 1308 1300
f 1296 1297 1309
f 1294 1310 1297
f 1298 1299 1311
f 1299 1296 1300
f 1299 1300 1313
f 1302 1303 1307
f 1301 1307 1303
f 1301 1313 1308
f 1301 1308 1307
f 1259 1302 1260
f 1259 1287 1302
f 1287 1303 1302
f 1260 1302 1271
f 1271 1302 1272
f 1289 1301 1303
f 1272 1302 1304
f 1272 1305 1280
f 1272 1304 1305
f 1302 1307 1306
f 1302 1306 1304
f 1264 1280 1305
f 1304 1264 1305
f 1294 1304 1306
f 1296 1309 1308
f 1306 1307 1310
f 1307 1309 1310
f 1307 1308 1309
f 1294 1306 1310
f 1297 1310 1309
f 1298 1311 1312
f 1299 1313 1311
f 1300 1308 1313
f 1301 1311 1313
