# https://github.com/mikedh/trimesh

o collision
v -0.00943631 -0.00326352 -0.01400491
v -0.00822137 -0.00326352 -0.01400491
v -0.00723330 -0.00608863 -0.01406375
v -0.00166535 -0.01065136 -0.01412259
v -0.00165793 -0.01065373 -0.01412044
v -0.00166593 -0.00951828 -0.01412258
v -0.00166986 -0.00947444 -0.01412205
v -0.00163986 -0.00947444 -0.01412205
v -0.00165793 -0.00949128 -0.01412667
v -0.01086540 -0.00326352 -0.00954213
v -0.00862423 -0.00745004 -0.01372429
v -0.00866769 -0.00749942 -0.01231666
v -0.00948295 -0.00603808 -0.01231666
v -0.01056750 -0.00326352 -0.01231666
v -0.00898468 -0.00603808 -0.01395513
v -0.00959957 -0.00603808 -0.00954213
v -0.00721422 -0.00793441 -0.01391892
v -0.00408251 -0.01061139 -0.01231666
v -0.00547026 -0.00988483 -0.01231666
v -0.00721422 -0.00870094 -0.00954213
v -0.00554659 -0.00997654 -0.00954213
v -0.00415884 -0.01065254 -0.00954213
v -0.00368813 -0.01044680 -0.01395060
v -0.00166535 -0.01120745 -0.01231666
v -0.00162793 -0.01120736 -0.01231649
v -0.00163878 -0.00862024 -0.01232356
v -0.00166878 -0.00862024 -0.01232355
v -0.00166878 -0.00862024 -0.01232356
v -0.00166535 -0.01131208 -0.00954213
v -0.00163979 -0.00847196 -0.00955325
v -0.00166979 -0.00847188 -0.00955159
v -0.00166979 -0.00847196 -0.00955325
v -0.00163990 -0.00847022 -0.00950265
v -0.00166997 -0.00846873 -0.00945710
v -0.00918633 0.00506279 -0.01405537
v -0.00899113 0.00515970 -0.01405654
v -0.00443990 0.00970539 -0.01406894
v -0.00166480 0.00879676 -0.01410060
v -0.00166480 0.00992272 -0.01410060
v -0.01113998 -0.00119084 -0.01231666
v -0.01127992 -0.00000107 -0.01312684
v -0.01127942 -0.00000342 -0.01312719
v -0.01127992 -0.00000342 -0.01312684
v -0.01140591 0.00019795 -0.01231380
v -0.01140075 -0.00000342 -0.01204007
v -0.01137888 0.00084258 -0.01370705
v -0.01137888 0.00091134 -0.01370705
v -0.01140591 0.00105009 -0.01231380
v -0.01135519 -0.00180688 -0.00954213
v -0.01150299 0.00000258 -0.00788390
v -0.01095733 0.00257020 -0.00954086
v -0.01036714 -0.00002550 -0.01376215
v -0.01037355 -0.00000342 -0.01376134
v -0.01010613 -0.00000342 -0.01378523
v -0.00851531 -0.00016050 -0.01382397
v -0.00853146 -0.00000342 -0.01381427
v -0.00850019 -0.00000342 -0.01381481
v -0.00848608 -0.00002067 -0.01380811
v -0.00848608 0.00000933 -0.01380811
v -0.00831175 -0.00002062 -0.01231105
v -0.00831207 -0.00002050 -0.01231667
v -0.00831169 0.00000937 -0.01230948
v -0.00831207 0.00000950 -0.01231667
v -0.00824369 -0.00002041 -0.00976075
v -0.00824369 0.00000959 -0.00976075
v -0.00990038 0.00506279 -0.01231380
v -0.00885081 0.00676340 -0.01392418
v -0.00901918 0.00697214 -0.01231380
v -0.00766236 0.00835963 -0.01231380
v -0.01003065 0.00506279 -0.00954086
v -0.00906220 0.00702371 -0.00954086
v -0.00771398 0.00841121 -0.00954086
v -0.00609292 0.00940701 -0.01388347
v -0.00627481 0.00953594 -0.01231380
v -0.00443990 0.01029845 -0.01231380
v -0.00632643 0.00957400 -0.00954086
v -0.00443990 0.01041141 -0.00954086
v -0.00166480 0.01076627 -0.01231380
v -0.00166480 0.01091116 -0.00954086
v -0.04286442 -0.00325944 0.03519819
v -0.04285173 -0.00256676 0.03741647
v -0.03288063 -0.02476803 0.03411985
v -0.03540141 -0.02606549 0.03660527
v -0.02937522 -0.02610944 0.04314240
v -0.03944986 -0.01925590 0.03568856
v -0.04199387 -0.01327920 0.03638143
v -0.04051479 -0.00880923 0.03420036
v -0.04031511 -0.00880923 0.03950118
v -0.03371948 -0.02156622 0.04193659
v -0.03581449 -0.01357950 0.04280344
v -0.03164877 -0.01898908 0.04467696
v -0.03305601 -0.00464584 0.04624217
v -0.03079513 -0.01018203 0.04734048
v -0.04173186 -0.00187409 0.03884185
v -0.03896176 0.00852864 0.04164504
v -0.03597613 -0.00048873 0.04427136
v -0.03174702 0.01199726 0.04733346
v -0.02810532 -0.03376447 0.03558914
v -0.02440551 -0.03694325 0.03686205
v -0.02667484 -0.03105026 0.04182802
v -0.01831171 -0.03794774 0.03426989
v -0.01649456 -0.04114536 0.03557878
v -0.01484222 -0.03794774 0.03399908
v -0.01912098 -0.03662935 0.04186461
v -0.01595787 -0.04090261 0.03796722
v -0.02506476 -0.02380121 0.04724533
v -0.01907238 -0.03382097 0.04459950
v -0.01961330 -0.02955189 0.04730633
v -0.01821346 -0.02329844 0.05044665
v -0.02308702 -0.01400118 0.05088412
v -0.01595047 -0.01659192 0.05310362
v -0.01984995 -0.00957097 0.05295297
v -0.00756304 -0.04380097 0.03565685
v -0.00930201 -0.04365658 0.03660832
v -0.00972038 -0.04064730 0.04169140
v -0.00721440 -0.04210799 0.03440529
v -0.01215346 -0.03377702 0.04733255
v -0.01011762 -0.03797703 0.04459950
v -0.01063160 -0.02600689 0.05168433
v -0.00304763 -0.03564579 0.04769789
v -0.00721440 -0.03171992 0.04975332
v -0.00201016 -0.02509344 0.05314387
v -0.01229873 -0.00205260 0.03211408
v -0.01210579 -0.00326352 0.03210746
v -0.00922322 -0.00807197 0.03213467
v -0.00945270 -0.00775647 0.03212471
v -0.00905830 -0.00822100 0.03210986
v -0.00905830 -0.00822100 0.03213746
v -0.01065125 -0.00610862 0.03213114
v -0.01065125 -0.00610862 0.03210746
v -0.00716121 -0.00993538 0.03210746
v -0.00475759 -0.01139328 0.03210746
v -0.00521582 -0.01117453 0.03210746
v -0.00458290 -0.01147668 0.03210746
v -0.00323768 -0.01172134 0.03210746
v -0.00323768 -0.01172134 0.03213746
v -0.00234047 -0.01188872 0.03212112
v -0.00237047 -0.01188872 0.03212112
v -0.00248036 -0.01186301 0.03211987
v -0.00186271 -0.01197651 0.03213269
v -0.00186271 -0.01197651 0.03210746
v -0.00168793 -0.01190982 0.03210746
v -0.00168793 -0.01190982 0.03213746
v -0.00166535 -0.01201277 0.03210746
v -0.00165793 -0.01190982 0.03210746
v -0.00165793 -0.01197641 0.03213929
v -0.00165793 -0.01197641 0.03211199
v -0.00165793 -0.01190982 0.03213746
v -0.00163971 -0.00723728 0.03210746
v -0.00166971 -0.00723728 0.03210746
v -0.00805114 -0.01621419 0.05492606
v -0.01394104 -0.01009833 0.05470344
v -0.00312475 -0.01756606 0.05520022
v -0.00582407 -0.00741969 0.05643561
v -0.02756652 -0.00118141 0.04986982
v -0.01976755 -0.00048873 0.05346530
v -0.01692561 0.01251520 0.05441098
v -0.01248850 -0.00069824 0.03210746
v -0.01244050 0.00000422 0.03042629
v -0.01248744 -0.00025854 0.03210746
v -0.01242230 0.00214168 0.03211199
v -0.01232152 0.00247566 0.03211199
v -0.01176724 0.00399577 0.03211199
v -0.01100894 0.00528626 0.03211199
v -0.00939403 0.00774447 0.03211199
v -0.00828669 0.00894165 0.03211199
v -0.00724389 0.00000964 0.03204569
v -0.00724262 -0.00002018 0.03210746
v -0.00724259 0.00000979 0.03211067
v -0.00708964 0.00994237 0.03211199
v -0.00454314 0.01126601 0.03211700
v -0.00454314 0.01126601 0.03211199
v -0.00166480 0.01242390 0.03211199
v -0.00166480 0.01242390 0.03211692
v -0.01259825 0.00020395 0.05563052
v -0.00721440 0.00089663 0.05658565
v -0.04425552 0.04668961 -0.03538089
v -0.04758827 0.04481799 -0.03057122
v -0.04457555 0.04253671 -0.03303492
v -0.03738033 0.04668961 -0.04254074
v -0.03358407 0.04252064 -0.04423505
v -0.02849113 0.04456898 -0.04865373
v -0.03122245 0.04668961 -0.04728734
v -0.04229766 0.04253338 -0.03535605
v -0.05047685 0.04668961 -0.02568588
v -0.05310608 0.04488225 -0.01953926
v -0.05300676 0.04252064 -0.01652060
v -0.05588706 0.04485815 -0.00882682
v -0.05496559 0.04263310 0.00016188
v -0.05021475 0.07841068 -0.02479458
v -0.05577671 0.07724995 -0.00536251
v -0.04598121 0.08450045 -0.03160022
v -0.04500594 0.12161046 -0.03083189
v -0.03032305 0.08900578 -0.04670085
v -0.03708098 0.09073884 -0.04147181
v -0.03114520 0.12328125 -0.04447890
v -0.03879289 0.12161046 -0.03834910
v -0.03832939 0.12345997 -0.03788873
v -0.03288055 0.12442992 -0.03937073
v -0.05378478 0.08560143 -0.01458560
v -0.05151695 0.12161046 -0.01786597
v -0.04801866 0.12161046 -0.02586246
v -0.04634125 0.12331740 -0.02805708
v -0.04883530 0.12452631 -0.01509116
v -0.05312816 0.12319288 -0.01150913
v -0.05429241 0.12161046 -0.00469403
v -0.05365786 0.12369794 -0.00087867
v -0.02536254 0.04668961 -0.05064234
v -0.01857011 0.04565339 -0.05341084
v -0.01709034 0.04251270 -0.05258610
v -0.01709686 0.04251261 -0.05258470
v -0.01726308 0.04251269 -0.05250052
v -0.02541772 0.07999311 -0.04986876
v -0.01941985 0.08137875 -0.05245437
v -0.01084518 0.04472963 -0.05548564
v -0.00720894 0.04264916 -0.05471206
v -0.00718185 0.04668804 -0.05620820
v -0.00721185 0.04668804 -0.05620820
v -0.00720894 0.04668961 -0.05620878
v -0.02716134 0.12161046 -0.04728314
v -0.02052893 0.12339371 -0.05012942
v -0.01275986 0.09108625 -0.05413608
v -0.01426070 0.12304831 -0.05258470
v -0.01138612 0.12448215 -0.04976586
v -0.01137489 0.12448214 -0.04977626
v -0.01144894 0.12448225 -0.04960552
v -0.00859391 0.12161046 -0.05384598
v -0.00720894 0.12372304 -0.05327421
v -0.00304851 0.12161046 -0.05439254
v -0.05660713 0.04668961 0.00085558
v -0.05596707 0.04461316 0.00737218
v -0.05565532 0.04668961 0.01061366
v -0.05379029 0.04585421 0.01760113
v -0.05291848 0.04252868 0.01673506
v -0.05028097 0.04567749 0.02594868
v -0.05295296 0.07481605 0.01830167
v -0.04786491 0.04411649 0.02923851
v -0.04632029 0.04271235 0.02923851
v -0.04691108 0.04295207 0.02923851
v -0.04752493 0.04502847 0.03080733
v -0.04851871 0.04666135 0.02920851
v -0.04851871 0.04666135 0.02923851
v -0.04852460 0.04668426 0.02922111
v -0.04852597 0.04668960 0.02923851
v -0.04851549 0.04720321 0.02920851
v -0.04851549 0.04720321 0.02923574
v -0.04850978 0.04739119 0.02923851
v -0.04754382 0.04668960 0.03084191
v -0.04659944 0.04668960 0.03222898
v -0.04573505 0.04247919 0.02920851
v -0.04573505 0.04247919 0.02923851
v -0.04571828 0.04247250 0.02922800
v -0.04571579 0.04247247 0.02921610
v -0.04571172 0.04247165 0.02923851
v -0.04575389 0.04250168 0.02920851
v -0.04575251 0.04248483 0.02923851
v -0.04469179 0.04250422 0.03350788
v -0.04460680 0.04271593 0.03376721
v -0.04436049 0.04217802 0.03376721
v -0.04436125 0.04217851 0.03376721
v -0.04501288 0.04392106 0.03376721
v -0.04468667 0.04304978 0.03376721
v -0.04380408 0.04161666 0.03376721
v -0.04316494 0.04135338 0.03374574
v -0.04317433 0.04136980 0.03376721
v -0.04317862 0.04135873 0.03376721
v -0.04317433 0.04133980 0.03376721
v -0.04351521 0.04133980 0.03429551
v -0.04550138 0.04668960 0.03375765
v -0.04550138 0.04668960 0.03376721
v -0.04547055 0.04655184 0.03376721
v -0.04545774 0.04830752 0.03376721
v -0.04276625 0.04133980 0.03712690
v -0.04276625 0.04136980 0.03712690
v -0.04272923 0.04132245 0.03726710
v -0.04272959 0.04134794 0.03726671
v -0.04272979 0.04134794 0.03726502
v -0.04272896 0.04134794 0.03726739
v -0.04746827 0.05448223 0.03072133
v -0.04825258 0.05990819 0.02923851
v -0.04744938 0.05633064 0.03069252
v -0.04743050 0.05778819 0.03066814
v -0.04639167 0.06056488 0.03208181
v -0.04526786 0.05778819 0.03376721
v -0.04520176 0.06056488 0.03376721
v -0.04631612 0.06334156 0.03208181
v -0.04716606 0.07721683 0.03024435
v -0.04772474 0.07928208 0.02923851
v -0.04711884 0.07999352 0.03017918
v -0.04475602 0.07630420 0.03376721
v -0.04583449 0.07999352 0.03208181
v -0.04477678 0.07999352 0.03360053
v -0.04462654 0.08031774 0.03376721
v -0.04048510 0.04131794 0.03213150
v -0.04051479 0.04134811 0.03213151
v -0.04051479 0.04133980 0.03213151
v -0.04045510 0.04134794 0.03213150
v -0.04243521 0.04134794 0.03259594
v -0.04243337 0.04133980 0.03259749
v -0.03779736 0.04134794 0.03213473
v -0.04015393 0.04134794 0.04005072
v -0.04015559 0.04133980 0.04005072
v -0.04006521 0.04134794 0.04013176
v -0.04195030 0.06056488 0.03771314
v -0.03820882 0.05848236 0.04153144
v -0.03573369 0.04134794 0.04407679
v -0.03524277 0.04133980 0.04443621
v -0.03524496 0.04134794 0.04443460
v -0.03503798 0.04133980 0.04461902
v -0.03435782 0.04133980 0.04508412
v -0.03435067 0.04134794 0.04508936
v -0.03104910 0.04134794 0.04750657
v -0.02967535 0.04133980 0.04828604
v -0.02967832 0.04134794 0.04828436
v -0.02921505 0.04133980 0.04860080
v -0.03407770 0.06056488 0.04496066
v -0.03079228 0.05886304 0.04733789
v -0.05553599 0.09105562 0.00262978
v -0.05506732 0.08756769 0.00821592
v -0.05349509 0.10087759 0.01387353
v -0.05444139 0.12161046 0.00293669
v -0.05310608 0.12316076 0.01173199
v -0.05098724 0.12161046 0.01932067
v -0.04883530 0.12452631 0.01543174
v -0.04793038 0.12161046 0.02603487
v -0.04760993 0.08277020 0.02923851
v -0.04707162 0.08277020 0.03010471
v -0.04697718 0.08830728 0.02994424
v -0.04574005 0.08277020 0.03208181
v -0.04454069 0.08277020 0.03376721
v -0.04469179 0.08460233 0.03349192
v -0.04456902 0.09108397 0.03332259
v -0.04417858 0.09161223 0.03376721
v -0.04418995 0.09162360 0.03376721
v -0.04701497 0.09940588 0.02923851
v -0.04676942 0.09940588 0.02962285
v -0.04692997 0.10154742 0.02923851
v -0.04538119 0.09940588 0.03171564
v -0.04532452 0.10218256 0.03163674
v -0.04434237 0.10218256 0.03302425
v -0.04375685 0.10218256 0.03376721
v -0.04665609 0.10495924 0.02944021
v -0.04671276 0.10653894 0.02923851
v -0.04526786 0.10495924 0.03154897
v -0.04615051 0.11899815 0.02923851
v -0.04495621 0.11883452 0.03109858
v -0.04319282 0.11400237 0.03376721
v -0.04601392 0.12161120 0.02923851
v -0.04489011 0.12161120 0.03100859
v -0.04532984 0.12345628 0.02920851
v -0.04532984 0.12345628 0.02923851
v -0.04531558 0.12348702 0.02923061
v -0.04530720 0.12350507 0.02923851
v -0.04530563 0.12350847 0.02923851
v -0.04530720 0.12350507 0.02923274
v -0.04530675 0.12350605 0.02923211
v -0.04529828 0.12351122 0.02923851
v -0.04527730 0.12350032 0.02930722
v -0.04479567 0.12315833 0.03087383
v -0.04328466 0.12426575 0.02923851
v -0.04328466 0.12425759 0.02930722
v -0.04322800 0.12361433 0.03191158
v -0.04387962 0.12161120 0.03239566
v -0.04285277 0.12103921 0.03376721
v -0.04282611 0.12161449 0.03376106
v -0.04277987 0.12178616 0.03376721
v -0.04205878 0.09057301 0.03642951
v -0.03935562 0.09241328 0.03925204
v -0.03655726 0.09017198 0.04197844
v -0.03361500 0.08394072 0.04460194
v -0.03313901 0.10218256 0.04424771
v -0.04055168 0.12452222 0.02920851
v -0.04055168 0.12452222 0.02923851
v -0.04050819 0.12452631 0.02930722
v -0.04050819 0.12442046 0.03208181
v -0.04243589 0.12320060 0.03376721
v -0.04234900 0.12338560 0.03376721
v -0.04234973 0.12338633 0.03376721
v -0.04234880 0.12338633 0.03376721
v -0.04222190 0.12341634 0.03376721
v -0.04222190 0.12341634 0.03379721
v -0.04053652 0.12403774 0.03376721
v -0.03773171 0.12452631 0.03208181
v -0.03773171 0.12449375 0.03376721
v -0.03773505 0.12447746 0.03485799
v -0.03638980 0.12450866 0.03379721
v -0.03638980 0.12450866 0.03376721
v -0.03630646 0.12451052 0.03376721
v -0.04064410 0.12161120 0.03636260
v -0.03792987 0.12161120 0.03918963
v -0.03496496 0.12452631 0.03376721
v -0.03432566 0.12161120 0.04240125
v -0.03547688 0.12340668 0.04086516
v -0.03098710 0.12316646 0.04470652
v -0.02941081 0.12426575 0.04318392
v -0.02736500 0.04133980 0.04959694
v -0.02735875 0.04134794 0.04960048
v -0.02556528 0.04134794 0.05061810
v -0.02486005 0.04134794 0.05093989
v -0.02485760 0.04133980 0.05094101
v -0.02386460 0.04133980 0.05147330
v -0.02292319 0.04133980 0.05182367
v -0.02292028 0.04134794 0.05182500
v -0.02632686 0.05848236 0.04994565
v -0.02079656 0.04134794 0.05279404
v -0.01692446 0.04134794 0.05413897
v -0.01616601 0.04134794 0.05433877
v -0.01616377 0.04133980 0.05433936
v -0.01553950 0.04133980 0.05457170
v -0.01972282 0.05958774 0.05290425
v -0.02448823 0.06899773 0.05060124
v -0.02778139 0.07999352 0.04854787
v -0.01828601 0.08034060 0.05288063
v -0.01553414 0.08068769 0.05373808
v -0.00777287 0.04134794 0.03213653
v -0.00720935 0.04247165 0.02923851
v -0.00710915 0.04247440 0.02923851
v -0.00509394 0.04250422 0.02923851
v -0.00391346 0.04134794 0.03217401
v -0.00389174 0.04134794 0.03217538
v -0.00374347 0.04255307 0.02923851
v -0.00311785 0.04262281 0.02923851
v -0.00272848 0.04263712 0.02923851
v -0.00165639 0.04272407 0.02923851
v -0.00151051 0.04136757 0.03227713
v -0.00144963 0.04136980 0.03227974
v -0.00144963 0.04133980 0.03227974
v -0.01433653 0.04133980 0.05482072
v -0.01433229 0.04134794 0.05482184
v -0.01122148 0.04134794 0.05564133
v -0.00832194 0.04134794 0.05606601
v -0.00831799 0.04133980 0.05606658
v -0.00812932 0.04133980 0.05610564
v -0.00801392 0.04133980 0.05611112
v -0.00800966 0.04134794 0.05611174
v -0.01414824 0.05848236 0.05463938
v -0.00958098 0.06096998 0.05559466
v -0.00582401 0.04134794 0.05643186
v -0.00443811 0.05917653 0.05627893
v -0.00165746 0.06056488 0.05640150
v -0.01137202 0.07999352 0.05477544
v -0.00654352 0.08053094 0.05556711
v -0.02828616 0.10218256 0.04750207
v -0.02363477 0.10114232 0.05000496
v -0.02039363 0.09108804 0.05172800
v -0.01651711 0.10218256 0.05277155
v -0.02686484 0.12161120 0.04745371
v -0.02582431 0.12335376 0.04766625
v -0.01831479 0.12436346 0.04873004
v -0.01598431 0.12452596 0.04840644
v -0.01553414 0.12452631 0.04873004
v -0.01946601 0.12161120 0.05093747
v -0.01928890 0.12344739 0.05053489
v -0.01137202 0.10183547 0.05408949
v -0.00213566 0.09129466 0.05558482
v -0.00582401 0.10218256 0.05496099
v -0.01321177 0.11982387 0.05300208
v -0.01196534 0.12319904 0.05303469
v -0.00790285 0.12432274 0.05150535
v -0.00859580 0.12161120 0.05385334
v -0.00304779 0.12161120 0.05444596
v -0.00235705 0.12374460 0.05364081
v 0.00111042 -0.01065155 -0.01414931
v 0.00111042 -0.01068155 -0.01414931
v 0.00111042 -0.00951727 -0.01414931
v 0.00336115 -0.01048672 -0.01397723
v 0.00665940 -0.00819711 -0.01396818
v 0.00648569 -0.00637417 -0.01405899
v 0.00864109 -0.00603740 -0.01400440
v 0.00111042 -0.01127196 -0.01231534
v 0.00111042 -0.01138177 -0.00953948
v 0.00412596 -0.01059063 -0.01227459
v 0.00521036 -0.01010295 -0.01317119
v 0.00529913 -0.01021631 -0.01132364
v 0.00639718 -0.00930826 -0.01227459
v 0.00388559 -0.01074531 -0.00953948
v 0.00669764 -0.00920199 -0.00953948
v 0.00823683 -0.00762796 -0.01386855
v 0.00837204 -0.00777202 -0.01231534
v 0.00841301 -0.00781453 -0.00953948
v 0.00937175 -0.00603740 -0.01231534
v 0.00951106 -0.00603740 -0.00953948
v 0.01043430 -0.00410794 -0.01231534
v 0.01096147 -0.00237451 -0.01385950
v 0.01106254 -0.00272048 -0.01231534
v 0.01053263 -0.00420477 -0.00953948
v 0.00388574 0.00846853 -0.01410888
v 0.00010483 0.00884287 -0.01408643
v 0.00009016 0.00880660 -0.01408580
v 0.00007424 0.00885132 -0.01408703
v 0.00008982 0.00880549 -0.01408316
v 0.00005982 0.00880549 -0.01408316
v 0.00003025 0.00992751 -0.01408737
v 0.00010424 0.00992637 -0.01408643
v 0.00111038 0.00992998 -0.01408173
v 0.00388574 0.00978285 -0.01410888
v 0.00845523 0.00694032 -0.01400934
v 0.00879891 0.00524124 -0.01401373
v 0.00902582 0.00506219 -0.01400934
v 0.01105844 -0.00048874 -0.01396365
v 0.00006003 0.00829674 -0.01231628
v 0.00008991 0.00829690 -0.01231723
v 0.00005991 0.00830213 -0.01233541
v 0.00005977 0.00818711 -0.00954564
v 0.00008977 0.00818711 -0.00954564
v 0.00005898 0.00818403 -0.00944688
v 0.00111038 0.01077817 -0.01231723
v 0.00008274 0.01093067 -0.00919752
v 0.00111038 0.01092036 -0.00953927
v 0.00388574 0.01045670 -0.01231723
v 0.00570733 0.00949971 -0.01395505
v 0.00598426 0.00968270 -0.01231723
v 0.00388574 0.01057416 -0.00953927
v 0.00604514 0.00972721 -0.00953927
v 0.00897688 0.00001193 -0.01232031
v 0.00897688 -0.00001807 -0.01232031
v 0.00971678 -0.00001798 -0.01359396
v 0.00971678 0.00001202 -0.01359396
v 0.00997388 -0.00001801 -0.01394581
v 0.00997388 0.00001199 -0.01394581
v 0.00880019 -0.00001751 -0.00954458
v 0.00880019 0.00001249 -0.00954458
v 0.01023385 0.00482974 -0.01255250
v 0.00872023 0.00725313 -0.01231723
v 0.01017058 0.00517471 -0.00953927
v 0.00878230 0.00731990 -0.00953927
v 0.01104556 -0.00002940 -0.01395052
v 0.01104174 0.00000617 -0.01395063
v 0.01104556 -0.00000342 -0.01395052
v 0.01136027 -0.00048874 -0.01231534
v 0.01099782 0.00181041 -0.01389623
v 0.01108018 0.00255597 -0.01255250
v 0.01142719 -0.00048874 -0.00953948
v 0.01138895 -0.00000342 -0.00953948
v 0.01120433 0.00228767 -0.00953927
v 0.01079369 0.00366009 -0.01362930
v 0.01085457 0.00374911 -0.01178336
v 0.00737135 0.00864039 -0.01231723
v 0.00743223 0.00870716 -0.00953927
v 0.00318775 -0.04210799 0.03423756
v 0.00110225 -0.04417557 0.03763299
v -0.00027964 -0.04124162 0.04245014
v 0.00780457 -0.04379469 0.03564953
v 0.00780458 -0.04379469 0.03564953
v 0.00942734 -0.03933728 0.03397591
v 0.00895404 -0.04369006 0.03668883
v 0.00730804 -0.04088377 0.04199392
v 0.00457385 -0.03702696 0.04635180
v 0.00318775 -0.02721123 0.05227961
v 0.00457385 -0.03198360 0.04989300
v 0.00958370 -0.02692349 0.05153673
v 0.00115544 -0.01206365 0.03211199
v 0.00388559 -0.01163801 0.03211199
v 0.00593420 -0.01076539 0.03211199
v 0.00729584 -0.00966723 0.03211199
v 0.00876479 -0.00826724 0.03211199
v 0.00877608 -0.00799571 0.03214199
v 0.00878286 -0.00799312 0.03214199
v 0.00878286 -0.00799312 0.03211199
v 0.00894510 -0.00790757 0.03211199
v 0.00894510 -0.00790757 0.03214199
v 0.00914521 -0.00773559 0.03214199
v 0.00914521 -0.00773559 0.03211199
v 0.00923327 -0.00748980 0.03214199
v 0.00923327 -0.00748980 0.03211199
v 0.01043293 -0.00619681 0.03211199
v 0.01124691 -0.00506322 0.03211199
v 0.01186968 -0.00370528 0.03211199
v 0.01198987 -0.00335104 0.03211199
v 0.00249258 -0.02060359 0.05453754
v -0.00027964 -0.00950400 0.05653381
v 0.00873640 -0.01817712 0.05442989
v 0.00785529 -0.01279370 0.05564516
v 0.01925054 -0.03975372 0.03562635
v 0.02053311 -0.03655820 0.03415401
v 0.01708474 -0.04102817 0.03686693
v 0.02379764 -0.03688256 0.03760188
v 0.01450164 -0.03745386 0.04341412
v 0.01510278 -0.03244817 0.04737951
v 0.01838633 -0.02750316 0.04872195
v 0.02209459 -0.03321618 0.04328329
v 0.02602260 -0.02537909 0.04591326
v 0.01603671 -0.01807563 0.05279561
v 0.01708686 -0.01097516 0.05367877
v 0.02158959 -0.02080449 0.04997778
v 0.02162340 -0.00256676 0.05270229
v 0.02729461 -0.00325944 0.05002413
v 0.00005883 0.00743411 0.03211199
v 0.00008883 0.00743411 0.03211199
v 0.00007424 0.01252798 0.03180191
v 0.00007424 0.01254007 0.03211864
v 0.00111038 0.01262662 0.03211199
v 0.00398839 0.01148169 0.03212111
v 0.00668974 0.01037015 0.03212197
v 0.00702482 0.00001356 0.03211198
v 0.00702482 -0.00001644 0.03211198
v 0.01023085 0.00664772 0.03211689
v 0.00952717 0.00778727 0.03211199
v 0.00952717 0.00778727 0.03211986
v 0.01202121 0.00271077 0.03212762
v 0.01196637 0.00288963 0.03211924
v 0.01229339 -0.00046921 0.03211199
v 0.01225511 -0.00001113 0.03144990
v 0.01212789 0.00234831 0.03214199
v 0.01212789 0.00234831 0.03211199
v 0.01215093 0.00228767 0.03211199
v 0.01138935 0.00477163 0.03213124
v 0.01138935 0.00477163 0.03211199
v 0.00690342 0.01024651 0.03212197
v 0.00690342 0.01024651 0.03211199
v 0.00249258 0.00020395 0.05697112
v 0.00665513 0.00089663 0.05665152
v -0.00027964 0.01581222 0.05697112
v 0.01265596 0.00089663 0.05561466
v 0.01775244 -0.00048873 0.05419843
v 0.02657937 0.02135992 0.05037087
v 0.03024431 -0.02962305 0.03447726
v 0.03301653 -0.02407326 0.03406252
v 0.03034574 -0.03249839 0.03638631
v 0.02901457 -0.02840929 0.04193537
v 0.03725409 -0.02200673 0.03531254
v 0.03721606 -0.01691419 0.04043832
v 0.03865393 -0.02144903 0.03636923
v 0.04160364 -0.01385678 0.03617528
v 0.03995552 -0.00811760 0.03414150
v 0.03841728 -0.00779219 0.04165358
v 0.02810018 -0.01506740 0.04799920
v 0.03175297 -0.02220449 0.04327475
v 0.03307569 -0.01589924 0.04461292
v 0.03153745 -0.00603015 0.04727217
v 0.03204245 0.01060876 0.04714134
v 0.03717802 -0.00014239 0.04319028
v 0.04264744 -0.00187409 0.03513597
v 0.04282070 0.00089663 0.03763299
v 0.00040613 0.04305655 -0.05255249
v 0.00041115 0.04305682 -0.05255107
v 0.00388186 0.04668961 -0.05651989
v 0.00820782 0.04523569 -0.05540156
v 0.00820375 0.04523706 -0.05540261
v 0.00725600 0.04472963 -0.05116367
v 0.01118744 0.04784631 -0.05542678
v 0.00165128 0.08003981 -0.05585089
v 0.01422223 0.04772582 -0.05116351
v 0.01422223 0.04772582 -0.05116367
v 0.01886823 0.05501950 -0.05326159
v 0.01921033 0.05080234 -0.05260152
v 0.01112122 0.08573849 -0.05460275
v 0.00943277 0.12161046 -0.05372826
v 0.00804229 0.12444599 -0.05116367
v 0.01896755 0.08553567 -0.05249222
v 0.02570480 0.08415003 -0.04957025
v 0.01388013 0.12312060 -0.05263516
v 0.02202442 0.12306436 -0.04982672
v 0.02750912 0.12303223 -0.04702668
v 0.02869959 0.05893543 -0.04843721
v 0.03331386 0.05896355 -0.04455458
v 0.03401324 0.06264854 -0.04483731
v 0.03849508 0.07651697 -0.04069928
v 0.04242376 0.06750229 -0.03691544
v 0.04704217 0.06731754 -0.03058804
v 0.05251584 0.07019324 -0.01947199
v 0.05360284 0.07444253 -0.01647856
v 0.05288552 0.07001653 -0.00816255
v 0.05515886 0.07362320 -0.00992938
v 0.05602240 0.07444253 -0.00191923
v 0.05563616 0.07240424 0.00016188
v 0.03173024 0.09015848 -0.04569183
v 0.03515129 0.12347403 -0.04072871
v 0.03707700 0.12161046 -0.03996353
v 0.03995730 0.12451829 -0.03174001
v 0.04004437 0.12451456 -0.03158385
v 0.04287070 0.10559729 -0.03467458
v 0.04271344 0.12161046 -0.03383583
v 0.04803986 0.09646062 -0.02756912
v 0.04693181 0.12305634 -0.02764506
v 0.04619794 0.12431947 -0.02341558
v 0.04973485 0.12308846 -0.02216272
v 0.05254894 0.12315273 -0.01406532
v 0.05389529 0.12161046 -0.00816255
v 0.05105913 0.12452631 0.00016188
v 0.05319897 0.12374992 -0.00685598
v 0.05323315 0.12374714 -0.00677514
v 0.05437809 0.12161046 0.00016188
v 0.00110120 0.04311492 0.02923851
v 0.00101332 0.04136980 0.03265656
v 0.00101332 0.04133980 0.03265656
v 0.00381157 0.04366863 0.02923851
v 0.00387767 0.04368492 0.02923851
v 0.00524446 0.04406585 0.02923851
v 0.00525821 0.04406955 0.02923851
v 0.00665415 0.04445848 0.02923851
v 0.00559276 0.04136980 0.03369527
v 0.00565276 0.04136980 0.03371118
v 0.00565276 0.04133980 0.03371118
v 0.00579946 0.04136980 0.03376757
v 0.00579946 0.04136980 0.03376721
v 0.00579946 0.04133980 0.03376721
v 0.00858069 0.04510991 0.02923851
v 0.00923965 0.04538028 0.02923851
v 0.01012003 0.04242279 0.03378521
v 0.01012003 0.04242279 0.03376721
v 0.00990964 0.04565980 0.02923851
v 0.01273596 0.04342435 0.03376721
v 0.01273596 0.04342435 0.03379051
v 0.01220710 0.04668146 0.02923851
v -0.00027600 0.04134794 0.05673435
v 0.00222098 0.04134794 0.05659748
v 0.00224118 0.04133980 0.05659802
v 0.00249469 0.04133980 0.05661005
v 0.00300759 0.04133980 0.05655436
v 0.00301255 0.04134794 0.05655409
v 0.00665792 0.04134794 0.05635427
v 0.00890999 0.04134794 0.05591374
v 0.00891305 0.04133980 0.05591314
v 0.01093178 0.04133980 0.05569395
v 0.00249137 0.06438281 0.05626599
v 0.00747705 0.06391257 0.05584317
v 0.01221036 0.06403573 0.05499810
v 0.01583352 0.04510991 0.03376721
v 0.01583352 0.04510991 0.03378940
v 0.01420459 0.04770270 0.02923851
v 0.01426215 0.04773187 0.02923851
v 0.01426585 0.04773187 0.02923851
v 0.01478224 0.04802950 0.02923851
v 0.01776006 0.04972685 0.02923851
v 0.01811892 0.04636389 0.03378842
v 0.01811892 0.04636389 0.03376721
v 0.02695832 0.05141240 0.03378173
v 0.02695832 0.05141240 0.03376721
v 0.01495856 0.04133980 0.05473059
v 0.01498583 0.04134794 0.05472368
v 0.01498215 0.04134794 0.05472597
v 0.02781573 0.04134794 0.04925198
v 0.02783892 0.04133980 0.04923923
v 0.02123418 0.04134794 0.05262312
v 0.02227869 0.04131794 0.05217306
v 0.02226304 0.04134794 0.05217980
v 0.02226997 0.04133980 0.05217715
v 0.02227869 0.04134794 0.05217306
v 0.02330638 0.04134794 0.05173025
v 0.01498215 0.06334156 0.05432564
v 0.01931252 0.06334156 0.05295822
v 0.02662722 0.06334156 0.04967014
v 0.02427164 0.06403573 0.05083514
v 0.00193790 0.08705584 0.05572538
v 0.00585317 0.08427356 0.05552971
v 0.01221036 0.08415040 0.05448757
v 0.00942971 0.09628923 0.05464416
v 0.00249137 0.10565341 0.05508637
v 0.00665792 0.10773592 0.05468323
v -0.00027600 0.12452631 0.05150535
v 0.00249137 0.12161120 0.05446958
v 0.00665792 0.12442860 0.05150535
v 0.00526759 0.12369982 0.05355871
v 0.00804381 0.12161120 0.05393880
v 0.01160818 0.12324791 0.05307293
v 0.01292323 0.12179034 0.05298634
v 0.01779601 0.08484457 0.05290312
v 0.02053459 0.08553874 0.05187869
v 0.02468785 0.08403233 0.05011544
v 0.01519025 0.10773592 0.05295035
v 0.01914426 0.10686719 0.05165772
v 0.01775394 0.12441231 0.04873004
v 0.01775394 0.12161120 0.05155258
v 0.01991470 0.12336189 0.05042581
v 0.02315141 0.10634758 0.05004010
v 0.02253152 0.12161120 0.04966114
v 0.02546714 0.12342703 0.04776071
v 0.02729139 0.12161120 0.04722094
v 0.05562236 0.07364327 0.00667848
v 0.05248273 0.07022537 0.01971167
v 0.05393943 0.07444253 0.01543174
v 0.03221852 0.05445780 0.03376721
v 0.03221852 0.05445780 0.03377714
v 0.03995703 0.04135991 0.03403024
v 0.03995552 0.04133980 0.03402958
v 0.04128319 0.04134794 0.03895573
v 0.03524997 0.05627364 0.03377360
v 0.03739372 0.05760905 0.03376721
v 0.03813089 0.05820392 0.03376721
v 0.03886695 0.05879790 0.03377465
v 0.03890824 0.05883906 0.03374496
v 0.03890824 0.05883906 0.03377496
v 0.03077678 0.04133980 0.04768936
v 0.03101515 0.04134794 0.04749363
v 0.03101515 0.04133980 0.04749363
v 0.03698643 0.04133980 0.04300237
v 0.03700595 0.04134794 0.04298769
v 0.03697623 0.04133980 0.04301249
v 0.03871946 0.06184329 0.02923851
v 0.04156453 0.06347475 0.02923851
v 0.03819259 0.06334156 0.04144992
v 0.03038420 0.06519505 0.04743459
v 0.03371168 0.06611824 0.04508885
v 0.03514628 0.06334156 0.04405879
v 0.04246593 0.04131794 0.03516780
v 0.04246984 0.04134794 0.03516611
v 0.04246593 0.04131794 0.03756716
v 0.04246828 0.04134794 0.03756962
v 0.04246984 0.04134794 0.03756808
v 0.04365828 0.06468827 0.02923851
v 0.04378534 0.06476203 0.02923851
v 0.04391938 0.06483983 0.02923851
v 0.04394606 0.06486043 0.02923851
v 0.04304242 0.06374162 0.03376583
v 0.04304296 0.06374227 0.03376583
v 0.04304296 0.06374227 0.03379583
v 0.04355906 0.06889492 0.03556644
v 0.04457183 0.06662166 0.03376721
v 0.04454122 0.06655423 0.03378957
v 0.04457183 0.06662166 0.03379721
v 0.04458990 0.06665567 0.03376721
v 0.04467488 0.06693252 0.03376721
v 0.04477299 0.06761210 0.03376721
v 0.04477299 0.06761210 0.03379721
v 0.04495341 0.06874373 0.03374489
v 0.04495341 0.06874373 0.03377460
v 0.04496711 0.06889492 0.03375499
v 0.04496655 0.06888870 0.03375509
v 0.04496711 0.06889492 0.03376721
v 0.04495042 0.06936492 0.03376721
v 0.04494876 0.06946492 0.03376721
v 0.04551337 0.06590377 0.02923851
v 0.04697918 0.06738851 0.03083393
v 0.04701695 0.06889492 0.03087781
v 0.04697918 0.07166347 0.03081975
v 0.04726415 0.06717680 0.02923851
v 0.04727193 0.06717680 0.02923851
v 0.04726249 0.06717680 0.02930722
v 0.04729101 0.06719736 0.02923752
v 0.04730817 0.06721586 0.02920851
v 0.04730833 0.06721696 0.02923851
v 0.04730817 0.06721586 0.02923851
v 0.04781967 0.06889492 0.02923851
v 0.04783856 0.06897636 0.02923851
v 0.04795034 0.07162695 0.02923845
v 0.04795057 0.07170626 0.02923851
v 0.04795188 0.07166347 0.02922484
v 0.04795188 0.07166347 0.02923851
v 0.04605368 0.06889492 0.03226488
v 0.04790938 0.07305218 0.02921441
v 0.04789603 0.07348806 0.02923851
v 0.04951966 0.09697923 0.02487029
v 0.05484573 0.11074323 0.00311379
v 0.05364146 0.12161046 0.00987371
v 0.05311176 0.12368690 0.00848631
v 0.05251584 0.12311256 0.01429659
v 0.04967967 0.12301617 0.02239398
v 0.04189422 0.08553060 0.03686413
v 0.03850697 0.08553060 0.04037375
v 0.03610711 0.09698238 0.04206784
v 0.02916877 0.08691894 0.04752343
v 0.03428507 0.12161120 0.04239732
v 0.03717651 0.12452631 0.03376721
v 0.03808109 0.12451143 0.03376721
v 0.03827352 0.12450971 0.03376721
v 0.03827230 0.12451003 0.03376721
v 0.04003761 0.12452587 0.02920851
v 0.04004243 0.12452509 0.02920851
v 0.04002854 0.12452631 0.02923851
v 0.04004243 0.12452509 0.02923851
v 0.04000849 0.12452631 0.02927034
v 0.03995299 0.12449375 0.03208181
v 0.04003182 0.12414489 0.03376721
v 0.04029917 0.12407926 0.03376721
v 0.04122790 0.12385046 0.03376721
v 0.03835199 0.12161120 0.03880505
v 0.03790921 0.12350847 0.03835524
v 0.04105294 0.12161120 0.03591954
v 0.03278184 0.10495924 0.04439840
v 0.03021815 0.12405811 0.04320191
v 0.03061223 0.12328862 0.04483021
v 0.04443880 0.08562832 0.03376721
v 0.04433334 0.08833571 0.03376721
v 0.04434436 0.08830728 0.03375968
v 0.04412667 0.09268080 0.03376721
v 0.04574204 0.08277020 0.03208181
v 0.04679975 0.08277020 0.03055199
v 0.04564760 0.08553060 0.03208181
v 0.04675253 0.08553060 0.03047929
v 0.04760911 0.08285121 0.02923851
v 0.04670531 0.08830728 0.03039906
v 0.04740094 0.08889869 0.02923851
v 0.04394871 0.09756561 0.03376721
v 0.04385328 0.10009801 0.03376721
v 0.04409881 0.10035858 0.03344538
v 0.04654476 0.09663733 0.03014727
v 0.04499597 0.10495924 0.03193108
v 0.04360161 0.10588131 0.03376721
v 0.04400437 0.10495924 0.03331860
v 0.04394772 0.10773592 0.03323570
v 0.04487321 0.11050447 0.03175820
v 0.04388161 0.11050447 0.03314571
v 0.04684697 0.10358311 0.02923851
v 0.04631811 0.10773592 0.02980460
v 0.04667697 0.10773592 0.02923851
v 0.04626144 0.11050447 0.02970530
v 0.04649615 0.11181279 0.02923851
v 0.04272946 0.12439603 0.02923851
v 0.04281446 0.12437975 0.02923851
v 0.04272946 0.12438788 0.02930722
v 0.04278613 0.12378532 0.03206540
v 0.04460878 0.12161120 0.03139292
v 0.04531706 0.12308504 0.02921361
v 0.04531706 0.12308504 0.02923851
v 0.04501526 0.12364282 0.02923851
v 0.04501486 0.12363061 0.02930722
v 0.04503592 0.12363453 0.02923406
v 0.04503600 0.12363438 0.02923512
v 0.04503495 0.12363643 0.02923851
v 0.04442935 0.12332932 0.03112961
v 0.04360774 0.12161120 0.03277999
v 0.04282627 0.12156382 0.03376721
v 0.04282400 0.12161131 0.03376721
v 0.04282405 0.12161120 0.03376702
v 0.04206248 0.12352475 0.03376721
v 0.04206840 0.12352475 0.03376721
v 0.04206840 0.12350988 0.03376721
v 0.04620724 0.11803666 0.02923851
v 0.04607315 0.12084677 0.02920851
v 0.04607315 0.12084677 0.02923851
v 0.04603376 0.12159705 0.02922563
v 0.04603479 0.12159491 0.02923851
f 1 3 15
f 4 17 15
f 3 4 15
f 4 23 17
f 3 1 7
f 2 7 1
f 2 55 7
f 3 6 4
f 3 7 6
f 4 464 5
f 9 7 8
f 6 7 9
f 4 6 465
f 465 6 9
f 14 49 40
f 10 49 14
f 11 19 12
f 11 14 15
f 11 13 14
f 10 13 16
f 12 16 13
f 14 43 15
f 1 15 43
f 10 14 13
f 11 15 17
f 11 12 13
f 1 55 2
f 11 17 23
f 11 23 19
f 12 19 21
f 12 21 20
f 18 19 23
f 18 21 19
f 18 22 21
f 7 55 57
f 28 57 58
f 27 58 61
f 32 61 60
f 31 60 64
f 7 57 28
f 27 28 58
f 27 61 32
f 31 32 60
f 18 23 24
f 4 24 23
f 18 24 29
f 4 5 24
f 5 25 24
f 25 5 470
f 24 25 471
f 24 471 29
f 8 7 28
f 8 28 26
f 26 28 27
f 26 27 32
f 32 30 26
f 31 30 32
f 31 33 30
f 31 34 33
f 35 36 57
f 35 67 37
f 36 492 59
f 35 39 36
f 35 37 39
f 36 39 38
f 36 38 490
f 492 36 490
f 38 39 493
f 38 493 490
f 14 40 43
f 41 46 42
f 46 53 42
f 41 42 43
f 41 45 46
f 41 43 45
f 45 44 46
f 40 49 43
f 43 49 45
f 45 50 44
f 47 48 66
f 45 49 50
f 1 43 42
f 1 42 52
f 52 42 53
f 1 52 54
f 1 54 56
f 52 53 35
f 35 46 47
f 35 53 46
f 54 52 35
f 54 35 56
f 48 51 70
f 1 56 55
f 56 57 55
f 58 57 59
f 58 59 61
f 59 63 61
f 61 63 62
f 61 62 60
f 64 60 62
f 62 65 64
f 57 36 59
f 35 57 56
f 47 66 67
f 35 47 67
f 48 70 66
f 66 70 68
f 66 68 67
f 67 68 69
f 67 69 73
f 68 71 72
f 68 72 69
f 59 501 63
f 62 63 501
f 62 504 65
f 59 492 503
f 59 503 501
f 62 501 504
f 65 504 506
f 37 67 73
f 69 74 73
f 73 74 75
f 69 72 74
f 72 76 74
f 74 76 77
f 37 73 75
f 74 77 75
f 37 75 78
f 37 78 39
f 75 77 79
f 75 79 78
f 39 78 507
f 78 79 509
f 80 86 81
f 82 83 85
f 82 98 83
f 83 84 89
f 83 98 99
f 83 99 100
f 83 100 84
f 82 85 87
f 83 86 85
f 83 89 86
f 86 89 90
f 80 87 85
f 80 85 86
f 81 86 88
f 86 90 88
f 90 94 88
f 81 88 94
f 90 92 94
f 92 96 94
f 90 89 91
f 90 91 93
f 84 91 89
f 84 106 91
f 91 106 93
f 90 93 92
f 92 93 155
f 80 81 268
f 80 267 299
f 80 268 267
f 81 273 268
f 81 275 273
f 82 87 296
f 94 96 95
f 80 299 87
f 81 94 275
f 94 95 302
f 95 96 309
f 92 97 96
f 92 155 97
f 96 97 309
f 97 155 315
f 87 299 296
f 294 82 296
f 94 302 275
f 95 303 302
f 303 95 308
f 95 307 308
f 95 309 307
f 97 310 309
f 310 97 311
f 311 97 314
f 97 313 314
f 97 315 313
f 10 16 124
f 10 124 49
f 12 20 131
f 12 130 16
f 18 134 22
f 20 21 131
f 21 22 133
f 31 64 168
f 18 29 134
f 29 471 144
f 33 34 150
f 31 168 34
f 49 124 123
f 125 126 12
f 12 127 125
f 12 131 127
f 12 126 130
f 16 130 124
f 21 133 131
f 22 132 133
f 22 134 132
f 29 135 134
f 29 139 135
f 139 29 137
f 29 141 137
f 29 144 141
f 33 150 149
f 34 168 150
f 98 102 99
f 99 104 100
f 100 104 107
f 82 101 98
f 82 103 101
f 98 101 102
f 99 102 105
f 99 105 104
f 104 105 115
f 82 126 103
f 84 100 108
f 100 107 108
f 84 108 106
f 104 118 107
f 106 108 109
f 107 117 108
f 108 119 109
f 82 129 126
f 93 106 110
f 106 109 110
f 93 110 155
f 110 112 155
f 112 156 155
f 109 111 110
f 110 111 112
f 109 119 111
f 111 152 112
f 112 175 156
f 112 152 175
f 101 116 102
f 101 103 116
f 102 116 113
f 102 114 105
f 102 113 114
f 105 114 115
f 104 115 118
f 103 540 116
f 113 116 540
f 113 541 114
f 114 542 115
f 114 541 542
f 103 139 540
f 107 118 117
f 117 118 120
f 117 120 121
f 108 117 119
f 117 121 119
f 115 542 118
f 118 542 120
f 120 550 121
f 119 121 122
f 121 549 122
f 103 126 125
f 103 125 128
f 103 128 136
f 124 130 129
f 125 127 128
f 126 129 130
f 103 136 139
f 540 139 138
f 133 132 127
f 127 132 134
f 134 135 127
f 131 133 127
f 128 127 136
f 127 135 136
f 168 169 150
f 135 139 136
f 138 139 137
f 137 141 140
f 142 141 145
f 142 143 141
f 140 143 146
f 140 141 143
f 144 145 141
f 147 145 144
f 146 148 145
f 146 145 147
f 146 143 148
f 142 148 143
f 142 145 148
f 552 147 144
f 111 119 151
f 111 151 152
f 151 154 152
f 152 154 175
f 154 176 175
f 119 122 151
f 122 153 151
f 151 153 154
f 122 570 153
f 154 571 176
f 153 571 154
f 176 571 611
f 44 159 46
f 44 50 159
f 47 46 161
f 47 161 48
f 48 162 51
f 49 158 50
f 51 163 70
f 168 64 65
f 68 70 163
f 68 163 71
f 71 166 72
f 72 166 76
f 65 506 167
f 76 172 77
f 77 173 79
f 79 590 508
f 46 159 161
f 48 161 162
f 49 123 158
f 50 160 159
f 50 158 160
f 51 162 163
f 168 65 167
f 71 163 164
f 71 164 165
f 71 165 166
f 167 506 588
f 76 166 170
f 76 170 172
f 77 172 173
f 79 173 591
f 79 591 590
f 82 294 129
f 123 124 294
f 123 294 158
f 158 294 160
f 161 160 294
f 161 294 162
f 162 294 163
f 129 294 124
f 163 294 164
f 164 294 165
f 155 156 401
f 156 175 157
f 156 157 409
f 157 175 409
f 165 294 166
f 166 294 170
f 170 294 171
f 171 294 174
f 174 294 173
f 294 420 173
f 155 396 315
f 396 155 397
f 397 155 399
f 155 400 399
f 155 401 400
f 156 402 401
f 156 403 402
f 403 156 408
f 156 409 408
f 160 161 159
f 168 167 169
f 167 588 169
f 150 169 588
f 588 589 150
f 170 171 172
f 171 174 172
f 172 174 173
f 175 176 433
f 176 611 613
f 173 420 592
f 175 428 409
f 428 175 429
f 429 175 432
f 175 433 432
f 176 613 433
f 433 613 434
f 613 435 434
f 613 708 435
f 179 184 187
f 177 179 178
f 178 185 192
f 177 178 192
f 180 182 181
f 180 183 182
f 181 212 184
f 183 194 208
f 177 180 179
f 184 179 180
f 180 181 184
f 184 212 187
f 212 211 187
f 180 195 183
f 183 195 194
f 177 197 180
f 178 187 186
f 178 186 185
f 186 187 188
f 185 186 190
f 186 188 200
f 178 179 187
f 187 189 188
f 188 231 230
f 188 189 231
f 187 234 189
f 188 230 191
f 186 200 190
f 185 190 192
f 188 191 200
f 191 230 318
f 211 253 187
f 177 192 197
f 192 202 193
f 192 193 197
f 193 202 203
f 193 203 198
f 194 195 196
f 180 197 195
f 194 196 220
f 195 197 196
f 193 198 197
f 196 197 198
f 198 203 199
f 196 198 199
f 199 204 224
f 190 200 201
f 190 202 192
f 191 205 200
f 191 318 206
f 190 201 202
f 200 205 201
f 201 205 202
f 202 205 203
f 199 203 204
f 203 205 204
f 191 206 205
f 205 207 204
f 205 206 207
f 206 321 207
f 207 324 204
f 224 204 324
f 324 372 226
f 182 208 209
f 181 182 212
f 182 183 208
f 182 211 212
f 182 209 211
f 210 209 215
f 209 210 211
f 208 214 209
f 209 214 215
f 208 213 214
f 194 213 208
f 210 215 216
f 210 216 635
f 215 222 218
f 217 218 219
f 215 638 216
f 218 639 215
f 217 639 218
f 219 642 217
f 217 642 637
f 218 222 219
f 214 222 215
f 210 423 211
f 210 635 423
f 636 423 635
f 213 221 214
f 194 220 213
f 214 223 222
f 213 220 221
f 196 221 220
f 196 199 221
f 199 225 221
f 214 221 223
f 199 224 225
f 219 222 227
f 219 229 642
f 219 227 229
f 222 223 227
f 221 228 223
f 221 225 228
f 223 228 227
f 227 228 229
f 225 649 228
f 224 324 226
f 226 374 224
f 230 231 232
f 189 234 231
f 231 234 233
f 231 233 232
f 234 187 253
f 230 232 319
f 233 234 235
f 234 255 235
f 232 233 236
f 233 235 236
f 234 250 255
f 234 253 252
f 234 252 250
f 235 255 241
f 241 243 235
f 230 319 318
f 232 236 320
f 232 320 319
f 235 325 236
f 235 243 325
f 243 245 325
f 253 211 254
f 240 242 237
f 242 238 239
f 242 239 237
f 241 255 242
f 242 256 238
f 251 242 255
f 251 256 242
f 237 257 240
f 237 239 260
f 241 242 243
f 242 244 243
f 240 244 242
f 240 248 244
f 243 244 245
f 244 246 245
f 244 247 246
f 245 246 247
f 244 248 279
f 244 281 247
f 240 249 248
f 248 249 279
f 240 269 249
f 240 271 269
f 250 252 251
f 252 254 251
f 253 254 252
f 250 251 255
f 238 266 239
f 251 264 256
f 251 254 264
f 238 256 264
f 254 298 264
f 254 295 298
f 259 260 239
f 259 239 263
f 239 266 263
f 257 260 258
f 258 260 259
f 258 263 262
f 237 260 257
f 240 258 261
f 240 257 258
f 240 261 271
f 261 258 262
f 262 271 261
f 262 276 271
f 269 276 270
f 269 271 276
f 238 264 266
f 263 266 262
f 259 263 258
f 262 266 265
f 299 264 298
f 264 267 266
f 299 267 264
f 262 265 274
f 265 266 273
f 266 267 273
f 267 268 273
f 249 269 272
f 269 270 272
f 265 273 274
f 273 275 274
f 274 275 277
f 275 276 277
f 275 278 276
f 262 274 277
f 262 277 276
f 270 276 304
f 244 279 281
f 247 281 280
f 249 281 279
f 281 249 283
f 249 285 283
f 280 281 282
f 281 283 282
f 282 283 286
f 249 272 284
f 272 270 304
f 249 284 285
f 284 272 285
f 282 287 280
f 282 286 291
f 282 291 287
f 283 285 286
f 285 272 290
f 285 292 286
f 290 272 330
f 272 304 333
f 288 326 280
f 247 351 245
f 287 288 280
f 280 351 247
f 287 289 288
f 287 291 289
f 288 289 327
f 288 327 326
f 289 291 329
f 289 329 327
f 286 292 291
f 285 290 292
f 272 334 330
f 272 333 334
f 290 293 292
f 291 292 329
f 290 330 293
f 330 292 293
f 304 367 333
f 254 297 295
f 295 294 296
f 294 295 297
f 297 300 294
f 299 298 295
f 299 295 296
f 275 301 278
f 275 302 301
f 302 303 301
f 278 304 276
f 278 301 304
f 301 303 305
f 305 303 306
f 301 305 304
f 254 416 297
f 416 300 297
f 303 308 306
f 305 306 316
f 307 310 308
f 307 309 310
f 308 310 311
f 306 308 317
f 308 311 317
f 311 312 317
f 311 314 312
f 313 397 314
f 315 396 313
f 312 314 317
f 397 317 314
f 306 317 316
f 304 305 368
f 304 368 367
f 305 369 368
f 305 316 369
f 316 317 370
f 316 370 369
f 317 443 370
f 317 412 443
f 318 319 321
f 236 323 320
f 325 245 350
f 206 318 321
f 319 320 322
f 319 322 321
f 207 321 322
f 207 322 324
f 236 325 323
f 320 323 322
f 322 323 356
f 322 356 324
f 323 325 355
f 324 356 357
f 323 355 356
f 350 353 325
f 353 355 325
f 324 357 372
f 226 373 374
f 372 373 226
f 327 328 326
f 326 351 280
f 326 328 335
f 327 329 338
f 327 338 328
f 292 331 329
f 292 330 331
f 331 330 332
f 331 338 329
f 330 334 332
f 331 332 338
f 335 337 326
f 328 336 335
f 245 351 350
f 328 338 336
f 335 336 337
f 336 342 337
f 337 351 326
f 336 339 342
f 338 332 340
f 334 341 332
f 336 338 339
f 338 340 339
f 339 340 344
f 332 341 340
f 334 333 347
f 334 347 341
f 333 367 364
f 337 342 343
f 337 343 351
f 342 349 343
f 342 339 344
f 340 346 344
f 340 341 347
f 342 344 346
f 333 364 347
f 347 364 340
f 343 345 351
f 343 349 345
f 342 346 349
f 340 349 346
f 340 363 349
f 340 364 363
f 348 351 345
f 345 349 348
f 348 359 351
f 350 352 353
f 350 351 352
f 354 356 353
f 353 356 355
f 356 354 357
f 351 359 352
f 354 359 358
f 353 359 354
f 352 359 353
f 354 362 357
f 354 358 362
f 348 349 359
f 349 363 359
f 357 361 360
f 362 361 357
f 357 360 373
f 358 359 378
f 358 378 362
f 363 364 365
f 359 363 365
f 359 365 366
f 359 366 376
f 359 376 378
f 362 378 379
f 367 368 389
f 368 369 390
f 369 370 371
f 370 443 371
f 364 367 389
f 368 390 389
f 369 392 390
f 357 373 372
f 360 361 375
f 360 374 373
f 360 375 374
f 361 362 382
f 361 382 375
f 374 375 384
f 365 364 389
f 365 389 366
f 366 377 376
f 376 377 378
f 377 379 378
f 379 381 380
f 379 382 362
f 379 380 382
f 366 389 377
f 377 389 379
f 381 386 380
f 375 382 384
f 380 387 382
f 374 384 383
f 380 386 387
f 382 387 384
f 383 384 387
f 381 385 386
f 383 387 388
f 383 388 391
f 386 388 387
f 379 389 390
f 379 393 381
f 381 393 385
f 379 390 393
f 390 392 393
f 385 393 395
f 392 394 393
f 385 450 386
f 386 450 388
f 369 371 392
f 371 443 394
f 371 394 392
f 394 443 447
f 393 394 395
f 394 448 395
f 211 416 254
f 211 417 416
f 211 422 417
f 211 423 422
f 294 300 420
f 416 415 300
f 415 420 300
f 313 396 397
f 317 397 398
f 397 399 398
f 398 399 411
f 401 402 400
f 399 400 411
f 400 402 411
f 402 403 411
f 403 405 411
f 317 398 404
f 398 411 404
f 405 410 411
f 405 403 406
f 406 403 407
f 408 407 403
f 405 406 410
f 408 409 428
f 406 407 436
f 407 408 436
f 408 428 436
f 406 436 410
f 317 404 412
f 404 411 412
f 410 445 411
f 410 436 413
f 410 413 445
f 413 436 414
f 416 417 419
f 415 416 419
f 417 422 418
f 417 418 419
f 418 422 421
f 418 420 419
f 415 419 420
f 422 423 421
f 418 421 425
f 418 425 420
f 421 426 425
f 421 423 685
f 421 685 426
f 423 424 685
f 420 425 427
f 425 426 427
f 427 426 686
f 429 431 430
f 428 429 436
f 429 430 436
f 429 432 431
f 432 433 434
f 430 431 437
f 431 432 437
f 432 434 437
f 437 434 435
f 437 435 438
f 430 437 436
f 706 438 435
f 706 435 707
f 435 708 707
f 439 438 706
f 437 438 439
f 439 706 440
f 436 437 441
f 414 436 441
f 437 442 441
f 437 439 442
f 439 440 455
f 439 455 442
f 440 745 455
f 224 374 858
f 411 443 412
f 411 444 443
f 411 445 444
f 413 446 445
f 413 414 446
f 414 454 446
f 385 395 451
f 443 444 447
f 394 447 448
f 444 452 447
f 385 451 450
f 395 448 449
f 447 452 448
f 448 452 453
f 444 445 452
f 445 446 452
f 395 449 451
f 448 453 449
f 446 457 452
f 452 458 453
f 452 457 458
f 449 453 459
f 414 441 454
f 441 442 456
f 441 456 454
f 442 455 456
f 383 860 374
f 383 391 862
f 854 391 388
f 388 450 855
f 446 454 457
f 454 456 460
f 449 459 451
f 454 460 457
f 453 458 459
f 457 460 458
f 451 459 751
f 458 462 459
f 458 460 461
f 455 461 456
f 461 455 749
f 456 461 460
f 458 461 462
f 459 462 751
f 461 752 462
f 464 4 463
f 465 463 4
f 463 465 468
f 9 519 465
f 464 463 469
f 464 467 466
f 463 468 469
f 464 469 467
f 465 500 468
f 519 527 465
f 465 527 500
f 468 500 469
f 5 464 470
f 25 470 471
f 464 466 470
f 466 472 470
f 470 472 471
f 471 472 476
f 9 8 517
f 8 26 517
f 30 521 26
f 30 33 521
f 466 473 472
f 472 473 474
f 472 474 476
f 466 478 473
f 473 475 474
f 466 467 478
f 473 479 475
f 474 475 479
f 26 516 517
f 9 517 519
f 26 521 516
f 473 478 479
f 469 478 467
f 474 479 477
f 477 479 480
f 478 481 479
f 469 484 478
f 478 483 481
f 478 484 483
f 479 481 482
f 481 483 486
f 481 486 482
f 469 500 484
f 483 484 485
f 483 485 486
f 487 520 489
f 496 498 487
f 492 490 488
f 492 488 489
f 492 489 491
f 488 490 493
f 488 493 494
f 487 489 488
f 487 488 494
f 494 495 496
f 496 487 494
f 496 511 497
f 520 487 527
f 487 528 527
f 487 498 528
f 496 497 498
f 497 499 498
f 499 528 498
f 497 531 499
f 492 502 503
f 502 501 503
f 501 502 505
f 505 504 501
f 491 515 502
f 502 522 505
f 504 505 506
f 491 518 515
f 489 520 518
f 502 515 522
f 491 489 518
f 491 502 492
f 39 507 493
f 493 507 494
f 494 507 495
f 507 78 509
f 495 507 496
f 496 507 510
f 507 509 510
f 509 513 510
f 509 79 508
f 496 510 511
f 510 513 512
f 510 512 511
f 511 512 538
f 512 513 514
f 512 514 539
f 515 517 516
f 517 518 520
f 515 518 517
f 517 520 519
f 522 515 516
f 522 516 521
f 497 511 538
f 497 538 524
f 524 538 526
f 526 538 539
f 497 536 531
f 523 536 524
f 523 524 525
f 497 524 536
f 524 526 525
f 484 500 530
f 484 530 485
f 519 520 527
f 527 528 529
f 528 531 529
f 529 531 530
f 500 527 530
f 527 529 530
f 485 530 533
f 530 534 533
f 530 535 534
f 531 532 530
f 499 531 528
f 531 536 532
f 532 537 535
f 530 532 535
f 523 537 536
f 532 536 537
f 523 525 537
f 512 539 538
f 471 476 553
f 476 474 553
f 474 477 554
f 33 596 521
f 477 480 555
f 479 567 480
f 479 482 567
f 485 568 486
f 485 533 569
f 482 486 567
f 471 552 144
f 471 553 552
f 33 149 596
f 474 554 553
f 477 555 554
f 480 556 555
f 480 566 556
f 480 567 566
f 485 569 568
f 486 568 567
f 113 540 543
f 540 544 543
f 113 543 541
f 541 547 542
f 541 543 544
f 541 544 546
f 541 546 547
f 540 138 545
f 540 574 544
f 540 545 575
f 544 574 546
f 546 576 547
f 547 576 578
f 545 558 575
f 120 542 548
f 120 548 550
f 542 547 548
f 121 550 549
f 122 549 570
f 550 551 549
f 549 551 570
f 547 578 548
f 548 579 550
f 548 578 579
f 550 579 551
f 137 545 138
f 137 140 545
f 140 146 545
f 545 146 557
f 147 552 555
f 146 147 557
f 595 149 150
f 553 554 552
f 552 554 555
f 147 555 556
f 557 147 559
f 559 147 556
f 149 595 596
f 545 557 558
f 558 561 575
f 557 559 558
f 560 559 556
f 558 559 560
f 558 560 561
f 556 563 560
f 561 560 563
f 561 563 562
f 562 563 564
f 563 565 564
f 556 566 563
f 563 566 565
f 565 604 564
f 565 566 569
f 567 568 566
f 568 569 566
f 565 569 602
f 153 570 573
f 153 573 571
f 570 572 573
f 571 612 611
f 571 573 612
f 551 572 570
f 551 583 572
f 572 584 573
f 573 614 612
f 573 584 614
f 540 575 574
f 546 574 576
f 574 577 576
f 576 577 578
f 577 581 578
f 574 575 617
f 574 617 619
f 574 619 577
f 577 619 581
f 581 619 620
f 578 581 579
f 551 579 580
f 579 581 580
f 551 580 583
f 580 581 582
f 580 582 585
f 581 620 582
f 561 562 618
f 562 564 625
f 564 604 625
f 561 618 575
f 562 625 618
f 572 583 584
f 580 585 583
f 583 585 584
f 584 615 614
f 584 586 615
f 582 627 585
f 584 585 627
f 584 627 587
f 584 587 586
f 506 505 588
f 505 522 595
f 509 508 592
f 509 592 513
f 513 592 514
f 522 521 596
f 526 539 598
f 525 526 598
f 535 537 606
f 533 534 603
f 535 606 534
f 525 608 537
f 514 610 539
f 588 505 589
f 505 595 589
f 508 590 592
f 514 592 593
f 593 594 514
f 514 594 610
f 522 596 595
f 598 597 525
f 537 605 606
f 601 605 537
f 533 602 569
f 533 603 602
f 534 606 603
f 537 608 601
f 525 597 608
f 539 610 598
f 150 589 595
f 173 592 591
f 590 591 592
f 420 597 599
f 420 607 597
f 597 598 599
f 565 602 605
f 565 605 604
f 603 606 602
f 602 606 605
f 604 605 600
f 600 605 601
f 597 607 608
f 601 608 607
f 594 609 610
f 599 610 609
f 598 610 599
f 611 612 709
f 612 614 715
f 420 593 592
f 420 594 593
f 420 427 607
f 420 609 594
f 420 599 609
f 611 709 613
f 709 612 710
f 612 711 710
f 612 713 711
f 613 709 708
f 713 612 714
f 612 715 714
f 614 730 715
f 600 625 604
f 601 607 776
f 600 601 776
f 614 615 730
f 586 738 615
f 586 587 616
f 427 776 607
f 615 732 730
f 615 731 732
f 738 737 615
f 615 737 731
f 586 616 738
f 616 736 738
f 616 734 736
f 575 618 617
f 617 621 619
f 617 618 621
f 619 623 620
f 620 623 628
f 619 621 623
f 582 620 628
f 622 629 628
f 618 625 621
f 621 625 624
f 622 628 623
f 622 626 629
f 621 624 623
f 622 623 624
f 622 624 626
f 624 625 633
f 624 634 626
f 626 634 632
f 582 628 627
f 627 628 629
f 587 627 630
f 627 629 630
f 626 630 629
f 626 632 630
f 624 633 634
f 600 776 625
f 625 776 633
f 634 798 632
f 587 630 631
f 630 632 631
f 587 631 616
f 631 632 789
f 776 796 633
f 798 787 632
f 616 631 784
f 616 784 734
f 631 789 784
f 632 787 789
f 634 633 796
f 634 796 798
f 216 638 635
f 215 639 638
f 635 638 636
f 217 637 639
f 636 638 640
f 637 641 639
f 638 639 641
f 638 644 640
f 638 641 646
f 643 640 644
f 637 647 641
f 637 642 647
f 641 647 645
f 638 646 644
f 641 645 646
f 644 646 656
f 645 655 646
f 646 655 656
f 645 647 650
f 645 651 655
f 645 650 651
f 636 640 690
f 640 643 699
f 643 644 722
f 642 648 647
f 229 648 642
f 228 652 229
f 228 649 652
f 647 648 652
f 229 652 648
f 225 670 649
f 647 652 650
f 650 653 651
f 650 652 653
f 649 653 652
f 651 653 654
f 649 670 653
f 224 858 225
f 858 670 225
f 655 657 656
f 644 656 663
f 655 667 657
f 651 667 655
f 657 667 658
f 656 657 659
f 657 658 659
f 656 659 660
f 656 660 661
f 659 674 660
f 663 790 644
f 656 661 663
f 660 674 661
f 661 662 664
f 661 666 663
f 661 664 666
f 664 665 666
f 651 654 667
f 658 672 659
f 658 667 669
f 658 669 672
f 654 669 667
f 653 668 654
f 654 668 669
f 653 670 668
f 668 673 669
f 669 673 672
f 668 675 673
f 668 670 675
f 659 672 674
f 672 673 674
f 673 675 674
f 670 671 676
f 858 671 670
f 661 677 662
f 661 674 677
f 662 679 664
f 664 679 665
f 670 676 675
f 674 675 677
f 675 676 677
f 676 671 681
f 662 677 678
f 676 678 677
f 678 676 681
f 671 680 681
f 671 858 680
f 662 678 679
f 665 679 683
f 678 682 679
f 678 681 682
f 680 682 681
f 679 682 683
f 689 423 636
f 689 636 690
f 640 699 690
f 643 721 699
f 643 722 721
f 644 723 722
f 644 724 723
f 644 790 724
f 423 688 424
f 687 684 424
f 424 684 692
f 424 692 685
f 688 687 424
f 423 689 688
f 426 685 686
f 686 685 692
f 684 687 693
f 687 688 701
f 689 701 688
f 686 692 694
f 684 693 692
f 694 692 693
f 693 696 694
f 696 697 694
f 695 697 696
f 687 696 693
f 687 701 696
f 699 691 690
f 691 699 698
f 690 701 689
f 690 691 701
f 691 698 701
f 698 699 703
f 695 696 701
f 695 700 697
f 695 701 700
f 699 702 703
f 703 702 705
f 701 703 700
f 698 703 701
f 700 703 704
f 686 776 427
f 703 719 704
f 702 699 721
f 702 721 705
f 705 721 703
f 703 722 723
f 721 722 703
f 709 710 708
f 706 707 716
f 707 708 716
f 716 708 710
f 710 711 716
f 712 711 713
f 711 712 716
f 440 706 716
f 712 717 716
f 712 713 718
f 714 718 713
f 714 715 730
f 714 730 732
f 714 732 718
f 712 718 717
f 440 716 745
f 716 717 746
f 716 746 745
f 718 741 747
f 717 718 748
f 717 748 746
f 718 747 748
f 686 694 776
f 703 723 719
f 704 719 720
f 776 694 697
f 724 727 723
f 724 725 727
f 719 723 727
f 719 726 720
f 697 700 776
f 719 727 726
f 700 704 776
f 704 720 776
f 726 727 729
f 725 729 727
f 726 729 728
f 720 726 776
f 790 725 724
f 731 742 732
f 735 731 737
f 731 735 742
f 718 732 741
f 732 742 741
f 733 734 743
f 738 739 737
f 736 739 738
f 736 734 739
f 739 740 744
f 735 737 744
f 739 744 737
f 733 740 739
f 734 733 739
f 733 743 740
f 735 744 742
f 740 743 744
f 741 742 758
f 741 758 747
f 742 759 758
f 742 744 759
f 743 760 744
f 743 852 760
f 744 760 759
f 745 746 749
f 745 749 455
f 746 750 749
f 746 748 750
f 747 757 748
f 374 860 858
f 854 388 855
f 749 750 752
f 451 855 450
f 461 749 752
f 462 753 751
f 462 754 753
f 462 752 754
f 750 755 752
f 752 756 754
f 748 755 750
f 748 757 755
f 747 761 757
f 451 751 855
f 751 753 763
f 753 754 756
f 752 755 756
f 755 757 756
f 753 756 765
f 747 758 761
f 758 759 762
f 758 762 761
f 760 852 766
f 759 760 766
f 759 766 762
f 383 862 860
f 854 862 391
f 751 857 855
f 761 762 764
f 763 857 751
f 757 761 764
f 753 765 763
f 756 757 765
f 757 764 765
f 762 767 764
f 764 767 765
f 766 852 769
f 762 766 767
f 766 769 767
f 763 765 768
f 765 767 768
f 763 768 871
f 767 769 768
f 768 769 872
f 663 666 771
f 663 771 802
f 665 770 666
f 666 770 771
f 770 772 771
f 663 801 790
f 663 802 801
f 771 803 802
f 804 803 771
f 771 827 804
f 843 841 837
f 771 831 830
f 771 828 827
f 828 771 830
f 771 838 831
f 771 837 838
f 771 843 837
f 726 728 776
f 728 774 776
f 729 725 791
f 728 729 773
f 728 773 774
f 773 778 774
f 790 791 725
f 729 801 773
f 774 778 776
f 775 797 776
f 776 797 796
f 775 776 780
f 788 787 799
f 777 788 799
f 787 798 799
f 777 792 788
f 776 778 779
f 729 791 801
f 773 803 778
f 776 779 780
f 775 780 781
f 775 781 783
f 775 783 807
f 781 780 782
f 778 803 779
f 781 782 783
f 779 828 780
f 782 805 783
f 734 786 785
f 784 786 734
f 743 734 785
f 786 787 785
f 786 784 787
f 785 787 794
f 743 785 793
f 785 794 793
f 784 789 787
f 787 788 794
f 788 795 794
f 788 792 795
f 773 801 802
f 773 802 803
f 790 801 791
f 804 779 803
f 780 828 782
f 805 807 783
f 777 850 792
f 777 849 850
f 792 851 795
f 792 850 851
f 743 793 852
f 793 794 852
f 794 795 851
f 775 810 797
f 800 797 817
f 797 800 796
f 796 800 798
f 799 800 777
f 799 798 800
f 777 800 808
f 775 807 810
f 808 800 820
f 797 810 811
f 797 811 815
f 815 817 797
f 800 817 820
f 779 804 823
f 827 779 823
f 779 827 828
f 782 828 829
f 782 829 805
f 806 807 805
f 807 806 810
f 805 824 806
f 806 809 810
f 806 824 809
f 809 811 810
f 812 809 824
f 812 824 813
f 812 813 809
f 809 815 811
f 809 813 814
f 809 814 815
f 814 816 815
f 815 816 817
f 816 820 817
f 816 819 820
f 820 819 818
f 818 821 820
f 818 819 840
f 818 840 821
f 808 820 821
f 821 840 822
f 808 821 822
f 804 827 823
f 805 829 824
f 829 833 824
f 832 824 833
f 824 825 840
f 825 826 840
f 828 830 829
f 830 833 829
f 831 832 833
f 830 831 833
f 832 834 824
f 831 836 832
f 824 834 835
f 832 836 834
f 836 835 834
f 831 838 836
f 835 836 824
f 824 839 825
f 824 836 839
f 838 839 836
f 838 837 839
f 825 839 826
f 839 837 826
f 813 824 814
f 814 824 816
f 816 824 819
f 819 824 840
f 777 808 849
f 822 876 808
f 822 877 873
f 822 873 874
f 826 877 840
f 841 842 837
f 837 842 826
f 842 881 826
f 840 877 822
f 826 881 878
f 826 878 877
f 665 844 770
f 770 845 772
f 665 683 844
f 770 844 845
f 841 843 920
f 771 772 848
f 771 848 843
f 680 858 846
f 772 845 847
f 680 846 682
f 683 845 844
f 682 846 683
f 683 846 845
f 847 845 846
f 843 848 920
f 846 858 859
f 846 859 906
f 846 906 908
f 848 904 922
f 848 908 909
f 848 909 904
f 848 922 920
f 772 847 848
f 847 846 908
f 847 908 848
f 850 867 851
f 849 867 850
f 794 870 852
f 794 851 870
f 763 871 857
f 868 871 872
f 853 868 872
f 851 867 853
f 849 869 867
f 854 855 862
f 855 857 856
f 857 868 856
f 859 860 861
f 858 860 859
f 860 863 861
f 855 860 862
f 855 863 860
f 863 899 861
f 859 861 906
f 861 899 900
f 863 901 899
f 863 864 901
f 855 856 863
f 863 856 864
f 856 865 864
f 856 868 916
f 864 865 901
f 916 865 856
f 865 866 901
f 916 866 865
f 916 869 917
f 918 917 869
f 857 871 868
f 853 867 868
f 867 869 868
f 868 869 916
f 769 852 870
f 851 853 870
f 768 872 871
f 769 853 872
f 769 870 853
f 808 884 849
f 874 876 822
f 873 877 879
f 874 873 875
f 873 879 875
f 808 876 884
f 876 874 884
f 874 875 885
f 877 878 879
f 878 880 879
f 880 878 883
f 880 883 882
f 879 880 882
f 881 883 878
f 842 894 881
f 841 920 842
f 881 894 883
f 884 874 885
f 879 888 875
f 885 875 886
f 875 888 886
f 849 884 869
f 885 886 890
f 886 888 890
f 882 883 894
f 842 896 894
f 879 882 888
f 882 894 887
f 842 898 896
f 882 887 888
f 898 842 919
f 894 896 887
f 888 887 895
f 888 895 892
f 884 885 913
f 885 890 889
f 888 891 890
f 889 890 891
f 888 892 891
f 885 889 913
f 889 891 913
f 891 893 913
f 869 884 913
f 891 892 893
f 842 921 919
f 895 887 896
f 920 921 842
f 895 896 897
f 896 898 897
f 892 895 897
f 897 898 919
f 892 903 893
f 892 897 903
f 893 915 913
f 893 912 915
f 893 903 912
f 900 906 861
f 900 899 901
f 900 902 907
f 866 900 901
f 866 902 900
f 900 907 906
f 905 911 923
f 906 907 910
f 904 909 910
f 905 910 907
f 904 910 905
f 909 908 906
f 909 906 910
f 905 907 911
f 903 911 912
f 902 911 907
f 903 923 911
f 913 915 914
f 869 913 914
f 866 916 902
f 916 917 902
f 911 918 914
f 911 915 912
f 911 914 915
f 902 917 911
f 911 917 918
f 869 914 918
f 897 919 921
f 903 897 921
f 921 920 923
f 920 922 923
f 903 921 923
f 905 923 922
f 904 905 922
